<svg xmlns="http://www.w3.org/2000/svg" width="310" height="51.234" viewBox="0 0 310 51.234">
  <g id="Innovatrics_Logo_SVG" data-name="Innovatrics Logo_SVG" transform="translate(-89.5 -219.521)">
    <path id="Path_2762" data-name="Path 2762" d="M200.683,219.7a2.681,2.681,0,0,0-2.583,2.583V242.95a2.583,2.583,0,1,0,5.167,0V222.283a2.681,2.681,0,0,0-2.583-2.583" transform="translate(-62.608 -0.103)" fill="#050708"/>
    <path id="Path_2763" data-name="Path 2763" d="M682.583,219.7A2.681,2.681,0,0,0,680,222.283V242.95a2.583,2.583,0,1,0,5.167,0h0V222.283a2.812,2.812,0,0,0-2.583-2.583" transform="translate(-340.425 -0.103)" fill="#050708"/>
    <path id="Path_2764" data-name="Path 2764" d="M237.842,219.7A10.763,10.763,0,0,0,227,230.456V242.78a2.583,2.583,0,1,0,5.167,0h0V230.541a5.844,5.844,0,1,1,11.689,0V242.78a2.583,2.583,0,1,0,5.167,0V230.541a11.329,11.329,0,0,0-11.18-10.842" transform="translate(-79.269 -0.103)" fill="#050708"/>
    <path id="Path_2765" data-name="Path 2765" d="M375.147,219.7a12.747,12.747,0,1,0,12.747,12.747h0A12.715,12.715,0,0,0,375.232,219.7h-.085m0,20.667a7.754,7.754,0,0,1-7.75-7.75v-.169a7.646,7.646,0,0,1,7.5-7.75h.254a7.718,7.718,0,0,1,7.75,7.708v.042a7.845,7.845,0,0,1-7.75,7.919" transform="translate(-157.328 -0.103)" fill="#050708"/>
    <path id="Path_2766" data-name="Path 2766" d="M455.891,219.766a2.558,2.558,0,0,0-3.261,1.186l-6.9,15.5-6.9-15.458a2.473,2.473,0,0,0-4.489,2.075l9.317,20.667A2.745,2.745,0,0,0,445.9,245.3a2.328,2.328,0,0,0,2.245-1.567l9.317-20.667a3.03,3.03,0,0,0-1.567-3.3" transform="translate(-198.644 0)" fill="#050708"/>
    <path id="Path_2767" data-name="Path 2767" d="M507.659,221.267a2.745,2.745,0,0,0-2.245-1.567,2.327,2.327,0,0,0-2.244,1.567l-9.317,20.667a2.476,2.476,0,0,0,4.489,2.075l6.9-15.5,6.9,15.5a2.745,2.745,0,0,0,2.245,1.567,2.066,2.066,0,0,0,1.016-.169,2.363,2.363,0,0,0,1.186-3.261Z" transform="translate(-233.006 -0.103)" fill="#050708"/>
    <path id="Path_2768" data-name="Path 2768" d="M306.142,219.7A10.763,10.763,0,0,0,295.3,230.456V242.78a2.583,2.583,0,1,0,5.167,0V230.541a5.844,5.844,0,1,1,11.689,0h0V242.78a2.583,2.583,0,1,0,5.167,0V230.541a11.329,11.329,0,0,0-11.18-10.842" transform="translate(-118.644 -0.103)" fill="#050708"/>
    <path id="Path_2769" data-name="Path 2769" d="M722.79,224.7h6.564a2.681,2.681,0,0,0,2.583-2.583,2.478,2.478,0,0,0-2.583-2.414H722.79a12.728,12.728,0,0,0,0,25.452h6.564a2.583,2.583,0,0,0,0-5.167H722.79a7.644,7.644,0,1,1,0-15.288" transform="translate(-357.89 -0.101)" fill="#050708"/>
    <path id="Path_2770" data-name="Path 2770" d="M575.244,219.7H556.483a2.583,2.583,0,1,0,0,5.167h6.9V242.95a2.583,2.583,0,1,0,5.167,0V224.7h6.9a2.681,2.681,0,0,0,2.583-2.583,3.2,3.2,0,0,0-2.8-2.414" transform="translate(-267.728 -0.103)" fill="#050708"/>
    <path id="Path_2771" data-name="Path 2771" d="M638.139,219.7h-5A10.763,10.763,0,0,0,622.3,230.456V242.78a2.583,2.583,0,1,0,5.167,0V230.541a5.757,5.757,0,0,1,5.76-5.844h5.082a2.681,2.681,0,0,0,2.583-2.583,3.018,3.018,0,0,0-2.753-2.414" transform="translate(-307.161 -0.103)" fill="#050708"/>
    <path id="Path_2772" data-name="Path 2772" d="M790.163,231.6l-8.766-3.43a1.677,1.677,0,0,1-1.016-2.075,1.575,1.575,0,0,1,1.736-1.4h9.105a2.681,2.681,0,0,0,2.583-2.583,2.478,2.478,0,0,0-2.583-2.414h-9.105a6.85,6.85,0,0,0-6.734,5.505,6.55,6.55,0,0,0,4.15,7.581l8.766,3.43a1.8,1.8,0,0,1,1.271,2.2c0,.085-.042.127-.042.169a2.093,2.093,0,0,1-2.075,1.736h-9.317a2.583,2.583,0,1,0,0,5.167h9.317a7.056,7.056,0,0,0,7.073-5.675,7.285,7.285,0,0,0-4.362-8.216" transform="translate(-395.322 -0.101)" fill="#050708"/>
    <path id="Path_2773" data-name="Path 2773" d="M95.175,253.5a5.675,5.675,0,1,0,5.675,5.675h0a5.675,5.675,0,0,0-5.675-5.675" transform="translate(0 -19.589)" fill="#050708"/>
    <path id="Path_2774" data-name="Path 2774" d="M125.675,236.4a5.675,5.675,0,1,0,5.675,5.675,5.675,5.675,0,0,0-5.675-5.675" transform="translate(-17.583 -9.731)" fill="#050708"/>
    <path id="Path_2775" data-name="Path 2775" d="M95.175,219.7a5.675,5.675,0,1,0,5.675,5.675,5.675,5.675,0,0,0-5.675-5.675" transform="translate(0 -0.103)" fill="#050708"/>
    <path id="Path_2776" data-name="Path 2776" d="M207.986,311.65a4.406,4.406,0,0,1-4.489,4.659,3.431,3.431,0,0,1-2.922-1.228v1.228H198.5V303.9h2.075v4.659a3.605,3.605,0,0,1,2.922-1.228c2.583-.339,4.489,1.567,4.489,4.32m-2.075,0a2.56,2.56,0,0,0-2.583-2.753,2.473,2.473,0,0,0-2.583,2.753,2.589,2.589,0,1,0,5.167,0" transform="translate(-62.839 -48.645)" fill="#050708"/>
    <path id="Path_2777" data-name="Path 2777" d="M233.209,311.312v8.936h-2.075v-1.186a3.576,3.576,0,0,1-2.922,1.186c-2.245,0-3.811-1.186-3.811-3.981V311.1h2.075v4.828c0,1.567.678,2.414,2.075,2.414s2.414-.847,2.414-2.753V311.1h2.245Z" transform="translate(-77.77 -52.795)" fill="#050708"/>
    <path id="Path_2778" data-name="Path 2778" d="M250.1,303.425a1.253,1.253,0,0,1,1.4-1.228,1.349,1.349,0,0,1,1.4,1.228,1.329,1.329,0,0,1-1.313,1.355h-.042c-.889-.127-1.44-.635-1.44-1.355m.381,2.753h2.075v8.936h-2.075Z" transform="translate(-92.586 -47.661)" fill="#050708"/>
    <path id="Path_2803" data-name="Path 2803" d="M0,0H2.075V12.408H0Z" transform="translate(162.172 255.086)" fill="#050708"/>
    <path id="Path_2779" data-name="Path 2779" d="M279.486,303.039v12.408h-2.075v-1.186a3.576,3.576,0,0,1-2.922,1.186A4.314,4.314,0,0,1,270,310.789a4.406,4.406,0,0,1,4.489-4.658,3.431,3.431,0,0,1,2.922,1.228V302.7h2.075Zm-2.075,7.919a2.584,2.584,0,0,0-2.583-2.753,2.473,2.473,0,0,0-2.583,2.753,2.589,2.589,0,1,0,5.167,0" transform="translate(-104.059 -47.953)" fill="#050708"/>
    <path id="Path_2780" data-name="Path 2780" d="M297.3,303.425a1.238,1.238,0,0,1,1.355-1.228,1.284,1.284,0,0,1,1.355,1.228,1.329,1.329,0,0,1-1.313,1.355h-.042a1.421,1.421,0,0,1-1.355-1.355m.169,2.753h2.075v8.936h-2.075Z" transform="translate(-119.797 -47.661)" fill="#050708"/>
    <path id="Path_2781" data-name="Path 2781" d="M317.239,315.437V320.6h-2.075v-4.828c0-1.567-.847-2.414-2.075-2.414-1.567,0-2.414.847-2.414,2.753V320.6H308.6v-8.936h1.906v1.186a3.712,3.712,0,0,1,3.092-1.186c2.117-.212,3.642,1.016,3.642,3.769" transform="translate(-126.312 -53.11)" fill="#050708"/>
    <path id="Path_2782" data-name="Path 2782" d="M342.529,311.254v7.581c0,3.261-1.736,4.658-4.828,4.658a7.867,7.867,0,0,1-4.32-1.228l.847-1.567a5.065,5.065,0,0,0,3.261,1.016c1.906,0,2.922-.847,2.922-2.753v-.508a3.576,3.576,0,0,1-2.922,1.186,4.323,4.323,0,1,1,0-8.639,3.824,3.824,0,0,1,3.091,1.228V311h1.906v.254Zm-2.075,4.15a2.758,2.758,0,1,0-2.753,2.583,2.583,2.583,0,0,0,2.753-2.583" transform="translate(-140.378 -52.738)" fill="#050708"/>
    <path id="Path_2783" data-name="Path 2783" d="M379.677,315.007v5.167h-1.863v-1.016a3.4,3.4,0,0,1-2.753,1.186c-2.075,0-3.261-1.186-3.261-2.753s1.016-2.583,3.769-2.583h2.245v-.169c0-1.228-.678-1.906-2.245-1.906a4.908,4.908,0,0,0-2.753.847l-.847-1.567a6.706,6.706,0,0,1,3.811-1.016c2.372,0,3.939,1.186,3.9,3.812m-2.033,2.371v-1.016H375.4c-1.4,0-1.736.508-1.736,1.228s.678,1.186,1.736,1.186a1.917,1.917,0,0,0,2.245-1.4" transform="translate(-162.747 -52.848)" fill="#050708"/>
    <path id="Path_2784" data-name="Path 2784" d="M419.861,311.6l-3.3,8.978h-2.033l-2.244-6.225-2.414,6.225h-1.906L404.7,311.6h1.863l2.414,6.564,2.414-6.564h1.736l2.414,6.564,2.414-6.564Z" transform="translate(-181.714 -53.084)" fill="#050708"/>
    <path id="Path_2785" data-name="Path 2785" d="M440.9,315.858a4.831,4.831,0,1,1,4.828,4.659c-2.8-.169-4.828-2.075-4.828-4.659m7.369,0a2.584,2.584,0,0,0-2.583-2.753,2.473,2.473,0,0,0-2.583,2.753,2.56,2.56,0,0,0,2.583,2.753,2.473,2.473,0,0,0,2.583-2.753" transform="translate(-202.583 -52.853)" fill="#050708"/>
    <path id="Path_2786" data-name="Path 2786" d="M472.467,311.2v2.075h-.508c-1.567,0-2.583.847-2.583,2.753v4.32H467.3v-8.936h2.075v1.355a3.292,3.292,0,0,1,3.092-1.567" transform="translate(-217.803 -52.853)" fill="#050708"/>
    <path id="Path_2802" data-name="Path 2802" d="M0,0H2.075V12.408H0Z" transform="translate(256.061 255.086)" fill="#050708"/>
    <path id="Path_2787" data-name="Path 2787" d="M501.186,303.039v12.408h-2.075v-1.186a3.576,3.576,0,0,1-2.922,1.186,4.314,4.314,0,0,1-4.489-4.658,4.406,4.406,0,0,1,4.489-4.658,3.482,3.482,0,0,1,2.922,1.228V302.7h2.075Zm-2.075,7.919a2.584,2.584,0,0,0-2.583-2.753,2.473,2.473,0,0,0-2.583,2.753,2.589,2.589,0,1,0,5.167,0" transform="translate(-231.869 -47.953)" fill="#050708"/>
    <path id="Path_2788" data-name="Path 2788" d="M529.5,315.858a4.831,4.831,0,1,1,4.828,4.659c-2.753-.169-4.828-2.075-4.828-4.659m7.411,0a2.561,2.561,0,0,0-2.583-2.753,2.473,2.473,0,0,0-2.583,2.753,2.584,2.584,0,0,0,2.583,2.753,2.494,2.494,0,0,0,2.583-2.753" transform="translate(-253.661 -52.853)" fill="#050708"/>
    <path id="Path_2789" data-name="Path 2789" d="M556.642,306.191v.508h2.414v1.736h-2.414v7.242h-2.075v-7.242H553V306.7h1.567v-.508a2.92,2.92,0,0,1,3.261-3.091,3.779,3.779,0,0,1,1.906.508l-.508,1.567a2.4,2.4,0,0,0-1.186-.339c-1.059,0-1.4.508-1.4,1.355" transform="translate(-267.209 -48.183)" fill="#050708"/>
    <path id="Path_2790" data-name="Path 2790" d="M580.8,303.425a1.253,1.253,0,0,1,1.4-1.228,1.284,1.284,0,0,1,1.355,1.228,1.329,1.329,0,0,1-1.313,1.355H582.2a1.535,1.535,0,0,1-1.4-1.355m.339,2.753h2.075v8.936h-2.075Z" transform="translate(-283.236 -47.661)" fill="#050708"/>
    <path id="Path_2791" data-name="Path 2791" d="M601.139,315.437V320.6h-2.075v-4.828c0-1.567-.847-2.414-2.075-2.414-1.567,0-2.414.847-2.414,2.753V320.6H592.5v-8.936h2.075v1.186a3.712,3.712,0,0,1,3.091-1.186c1.736-.212,3.473,1.016,3.473,3.769" transform="translate(-289.981 -53.11)" fill="#050708"/>
    <path id="Path_2792" data-name="Path 2792" d="M616.1,319.789l.847-1.567a6.173,6.173,0,0,0,3.092.847c1.355,0,1.906-.339,1.906-1.016,0-1.736-5.505-.169-5.505-3.6,0-1.736,1.567-2.753,3.939-2.753a8.477,8.477,0,0,1,3.261.678l-.847,1.567a4.637,4.637,0,0,0-2.583-.678c-1.186,0-1.906.339-1.906,1.016,0,1.736,5.505.169,5.505,3.6,0,1.736-1.567,2.753-4.15,2.753a7.592,7.592,0,0,1-3.557-.847" transform="translate(-303.586 -53.141)" fill="#050708"/>
    <path id="Path_2793" data-name="Path 2793" d="M642.334,317.245a3.607,3.607,0,0,1-2.075.508c-1.906,0-3.091-1.016-3.091-2.922v-4.32H635.6v-1.736h1.567V306.7h2.075v2.075h2.414v1.736h-2.414v4.32a1.208,1.208,0,0,0,1.186,1.355,2.277,2.277,0,0,0,1.186-.339Z" transform="translate(-314.828 -50.259)" fill="#050708"/>
    <path id="Path_2794" data-name="Path 2794" d="M661.419,315.007v5.167h-1.906v-1.016a3.4,3.4,0,0,1-2.753,1.186c-2.075,0-3.261-1.186-3.261-2.753s1.016-2.583,3.769-2.583h2.244v-.169c0-1.228-.677-1.906-2.244-1.906a4.909,4.909,0,0,0-2.753.847l-.847-1.567a6.705,6.705,0,0,1,3.811-1.016c2.414,0,3.981,1.186,3.939,3.812m-2.033,2.371v-1.016h-2.245c-1.4,0-1.736.508-1.736,1.228s.678,1.186,1.736,1.186a1.917,1.917,0,0,0,2.245-1.4" transform="translate(-325.148 -52.848)" fill="#050708"/>
    <path id="Path_2795" data-name="Path 2795" d="M686.6,315.437V320.6h-2.075v-4.828c0-1.567-.847-2.414-2.075-2.414-1.567,0-2.414.847-2.414,2.753V320.6H678v-8.936h2.075v1.186a3.712,3.712,0,0,1,3.092-1.186c1.863-.212,3.43,1.016,3.43,3.769" transform="translate(-339.272 -53.11)" fill="#050708"/>
    <path id="Path_2796" data-name="Path 2796" d="M707.034,317.245a3.607,3.607,0,0,1-2.075.508c-1.906,0-3.092-1.016-3.092-2.922v-4.32H700.3v-1.736h1.567V306.7h2.075v2.075h2.414v1.736h-2.414v4.32a1.208,1.208,0,0,0,1.186,1.355,2.276,2.276,0,0,0,1.186-.339Z" transform="translate(-352.128 -50.259)" fill="#050708"/>
    <path id="Path_2797" data-name="Path 2797" d="M734.691,317.245a3.607,3.607,0,0,1-2.075.508c-1.906,0-3.091-1.016-3.091-2.922v-4.32H728v-1.736h1.567V306.7h2.075v2.075h2.414v1.736h-2.414v4.32a1.208,1.208,0,0,0,1.186,1.355,2.276,2.276,0,0,0,1.186-.339Z" transform="translate(-368.097 -50.259)" fill="#050708"/>
    <path id="Path_2798" data-name="Path 2798" d="M751.867,311.2v2.075h-.508c-1.567,0-2.583.847-2.583,2.753v4.32H746.7v-8.936h2.075v1.355a3.124,3.124,0,0,1,3.091-1.567" transform="translate(-378.878 -52.853)" fill="#050708"/>
    <path id="Path_2799" data-name="Path 2799" d="M770.509,311.312v8.936h-2.075v-1.186a3.576,3.576,0,0,1-2.922,1.186c-2.244,0-3.812-1.186-3.812-3.981V311.1h2.075v4.828c0,1.567.678,2.414,2.075,2.414s2.414-.847,2.414-2.753V311.1h2.245Z" transform="translate(-387.525 -52.795)" fill="#050708"/>
    <path id="Path_2800" data-name="Path 2800" d="M786.1,319.789l.847-1.567a6.172,6.172,0,0,0,3.091.847c1.4,0,1.906-.339,1.906-1.016,0-1.736-5.505-.169-5.505-3.6,0-1.736,1.567-2.753,3.981-2.753a8.476,8.476,0,0,1,3.261.678l-.847,1.567a4.638,4.638,0,0,0-2.583-.678c-1.186,0-1.906.339-1.906,1.016,0,1.736,5.505.169,5.505,3.6,0,1.736-1.567,2.753-4.15,2.753a8.313,8.313,0,0,1-3.6-.847" transform="translate(-401.592 -53.141)" fill="#050708"/>
    <path id="Path_2801" data-name="Path 2801" d="M812.334,317.245a3.607,3.607,0,0,1-2.075.508c-1.906,0-3.092-1.016-3.092-2.922v-4.32H805.6v-1.736h1.567V306.7h2.075v2.075h2.414v1.736h-2.414v4.32a1.208,1.208,0,0,0,1.186,1.355,2.277,2.277,0,0,0,1.186-.339Z" transform="translate(-412.834 -50.259)" fill="#050708"/>
  </g>
</svg>
