<?xml version="1.0" encoding="utf-8"?>
<!-- Generator: Adobe Illustrator 27.7.0, SVG Export Plug-In . SVG Version: 6.00 Build 0)  -->
<svg version="1.1" id="Layer_2_00000096048843365075327680000003711084046976326299_"
	 xmlns="http://www.w3.org/2000/svg" xmlns:xlink="http://www.w3.org/1999/xlink" x="0px" y="0px" viewBox="0 0 145.9 128"
	 style="enable-background:new 0 0 145.9 128;" xml:space="preserve">
<style type="text/css">
	.st0{fill:#E00B14;}
</style>
<path class="st0" d="M124,73.2c5.1-8.9,8.1-19,9.2-28.9h-15.8c-0.4,6.1-1.6,12.2-3.7,17.7c-2,5.4-4.7,10.2-8.1,14.2l0,0
	c-5.1,5.9-11.7,9.7-19.2,9.7c-8.9,0-14.9-3.8-17.2-10.1H52.5c-2.7,6.6-9.2,9.8-17.3,9.8C26.2,85.6,17,79.1,16,66h52.6
	c1.4-6.4,6.4-11.3,14.7-14.5c0,0,7.6-2.8,15.2-6.1l0,0c10.5-4.8,18.4-13.6,18.4-24.5c0-15.6-13.4-21-25.4-21C76.3,0,65,8,65,20.8
	c0,7.5,4.1,14.5,10.1,21.7c-3.2,1.1-6.3,2.6-9.1,4.4c-4.8-13.4-16.1-22.1-31.3-22.1C14.6,24.7,0,39.8,0,61s13,37.6,35.7,37.6
	c10.5,0,18.3-3.8,23.8-9.2c5.6,5.7,13.9,9.2,24.2,9.2c12.6,0,22.9-5,30.7-12.7l10.1,11.1h21.4L124,73.2L124,73.2z M91.6,11.9
	c5.8,0,10.5,3.3,10.5,9.7c0,5.9-3.6,11.7-11.6,15.2l-0.2-0.2c-4.7-5-9.2-10.8-9.2-16.3C81.2,15,86.1,11.9,91.6,11.9z M34.7,36.9
	c9.2,0,17.6,6.7,18,17.7H16C17.3,41.3,27.3,36.9,34.7,36.9z"/>
<g>
	<path class="st0" d="M10.8,125.2c1.7,0,3.1-0.7,3.6-2.1h3.3c-0.7,2.4-3,4.8-6.8,4.8c-4.8,0-7.6-3.7-7.6-8c0-4.5,3.1-7.7,7.3-7.7
		c4.6,0,7.4,3.7,7.2,8.8H6.7C7,123.8,8.9,125.2,10.8,125.2z M14.5,118.6c-0.1-2.3-1.9-3.8-3.8-3.8c-1.6,0-3.7,0.9-3.9,3.8H14.5z"/>
	<path class="st0" d="M23.7,108.6v3.9h3v2.4h-3v8.2c0,1.5,0.4,1.9,1.7,1.9h1.2v2.5h-2.4c-3.2,0-3.9-0.8-3.9-3.9V115h-2.2v-2.4h2.2
		v-3.9L23.7,108.6L23.7,108.6z"/>
	<path class="st0" d="M32,110.7h-3.3v-3.3H32V110.7z M32,127.5h-3.3v-15H32V127.5z"/>
	<path class="st0" d="M40.4,114.7c-1.4,0-2.8,0.6-2.8,1.7s0.8,1.5,2,1.8l2.1,0.5c3,0.6,5.3,1.5,5.3,4.5c0,3.1-3,4.8-6.4,4.8
		c-3.6,0-6.1-2.1-6.4-4.9h3.3c0.3,1.5,1.4,2.4,3.3,2.4c1.7,0,3-0.8,3-2s-1.1-1.8-2.6-2l-2.3-0.5c-2.5-0.5-4.5-1.7-4.5-4.4
		c0-2.7,2.8-4.3,6.1-4.3c3,0,5.6,1.4,6.2,4.4h-3.1C43.2,115.3,42,114.7,40.4,114.7L40.4,114.7z"/>
	<path class="st0" d="M58.4,118.2v-0.3c0-2.6-1.4-3.3-3.1-3.3s-3,0.9-3,2.7H49c0.2-3,2.7-5.1,6.4-5.1s6.4,1.7,6.3,6.4
		c0,0.8-0.1,2.5-0.1,3.9c0,1.9,0.2,3.9,0.5,5.1h-3c-0.1-0.6-0.2-1-0.3-2c-0.9,1.6-2.7,2.4-4.9,2.4c-3.3,0-5.5-1.7-5.5-4.5
		C48.4,119.7,52.9,118.8,58.4,118.2L58.4,118.2z M51.9,123.4c0,1.3,1.1,2.1,2.7,2.1c2.4,0,3.9-1.3,3.9-3.8v-1.2
		C53.8,121,51.9,121.6,51.9,123.4z"/>
	<path class="st0" d="M64.5,127.5v-20.1h3.3v20.1H64.5z"/>
	<path class="st0" d="M80,118.2v-0.3c0-2.6-1.4-3.3-3.1-3.3s-3,0.9-3,2.7h-3.3c0.2-3,2.7-5.1,6.4-5.1c3.6,0,6.4,1.7,6.3,6.4
		c0,0.8-0.1,2.5-0.1,3.9c0,1.9,0.2,3.9,0.5,5.1h-3c-0.1-0.6-0.2-1-0.3-2c-0.9,1.6-2.7,2.4-4.9,2.4c-3.3,0-5.5-1.7-5.5-4.5
		C70,119.7,74.5,118.8,80,118.2L80,118.2z M73.5,123.4c0,1.3,1.1,2.1,2.7,2.1c2.4,0,3.9-1.3,3.9-3.8v-1.2
		C75.4,121,73.5,121.6,73.5,123.4z"/>
	<path class="st0" d="M89.8,108.6v3.9h3v2.4h-3v8.2c0,1.5,0.4,1.9,1.7,1.9h1.2v2.5h-2.4c-3.2,0-3.9-0.8-3.9-3.9V115h-2.2v-2.4h2.2
		v-3.9L89.8,108.6L89.8,108.6z"/>
	<path class="st0" d="M110.4,118.2v-0.3c0-2.6-1.4-3.3-3.1-3.3s-3,0.9-3,2.7H101c0.2-3,2.7-5.1,6.4-5.1s6.4,1.7,6.3,6.4
		c0,0.8-0.1,2.5-0.1,3.9c0,1.9,0.2,3.9,0.5,5.1h-3c-0.1-0.6-0.2-1-0.3-2c-0.9,1.6-2.7,2.4-4.9,2.4c-3.3,0-5.5-1.7-5.5-4.5
		C100.3,119.7,105,118.8,110.4,118.2L110.4,118.2z M103.9,123.4c0,1.3,1.1,2.1,2.7,2.1c2.4,0,3.9-1.3,3.9-3.8v-1.2
		C105.8,121,103.9,121.6,103.9,123.4L103.9,123.4z"/>
	<path class="st0" d="M124.4,112.2c3.6,0,5.1,2.3,5.1,5.9v9.4h-3.3V119c0-2-0.3-4-2.8-4c-2.5,0-3.5,2-3.5,4.6v8h-3.3v-15h3.3v2.1
		C120.7,113.1,122.3,112.2,124.4,112.2L124.4,112.2z"/>
	<path class="st0" d="M145.7,107.4v20.1h-3.3v-2c-0.9,1.4-2.4,2.3-4.5,2.3c-3.6,0-6.5-3-6.5-7.9s3-7.8,6.5-7.8c2,0,3.6,0.8,4.5,2.3
		v-7.2L145.7,107.4L145.7,107.4z M134.9,120c0,3.2,1.6,5.1,3.8,5.1s3.9-1.7,3.9-5.1s-1.7-5.1-3.9-5.1
		C136.5,115,134.9,116.9,134.9,120z"/>
</g>
</svg>
