<?xml version="1.0" encoding="UTF-8"?>
<svg id="Layer_2" data-name="Layer 2" xmlns="http://www.w3.org/2000/svg" width="638.06" height="389.81" viewBox="0 0 638.06 389.81">
  <defs>
    <style>
      .cls-1 {
        fill: #d1d2fd;
      }

      .cls-1, .cls-2, .cls-3, .cls-4, .cls-5, .cls-6, .cls-7, .cls-8, .cls-9, .cls-10, .cls-11, .cls-12, .cls-13, .cls-14, .cls-15, .cls-16, .cls-17, .cls-18, .cls-19, .cls-20, .cls-21, .cls-22, .cls-23, .cls-24, .cls-25, .cls-26, .cls-27 {
        stroke-width: 0px;
      }

      .cls-1, .cls-2, .cls-6, .cls-7, .cls-8, .cls-9, .cls-10, .cls-11, .cls-12, .cls-14, .cls-15, .cls-16, .cls-17, .cls-18, .cls-19, .cls-21, .cls-22, .cls-23, .cls-24, .cls-25, .cls-26, .cls-27 {
        fill-rule: evenodd;
      }

      .cls-2, .cls-20 {
        fill: #bbbbf6;
      }

      .cls-3 {
        fill: #e6e6f9;
      }

      .cls-4 {
        fill: #645193;
      }

      .cls-5 {
        fill: #8b77e6;
      }

      .cls-6 {
        fill: #dedffd;
      }

      .cls-7 {
        fill: #443572;
      }

      .cls-8 {
        fill: #e76d60;
      }

      .cls-9 {
        fill: #b1aec1;
      }

      .cls-10 {
        fill: #ada5d8;
      }

      .cls-11 {
        fill: #00b2e3;
      }

      .cls-12 {
        fill: #f4f5f9;
      }

      .cls-13 {
        fill: #c9c0ed;
      }

      .cls-14 {
        fill: #7060a0;
      }

      .cls-15 {
        fill: #fcb187;
      }

      .cls-16 {
        fill: #a8a8e5;
      }

      .cls-17 {
        fill: #ded8f9;
      }

      .cls-18 {
        fill: #fff;
      }

      .cls-19 {
        fill: #0055b8;
      }

      .cls-21 {
        fill: #938aca;
      }

      .cls-22 {
        fill: #31275b;
      }

      .cls-23 {
        fill: #f49677;
      }

      .cls-24 {
        fill: #4f4d6e;
      }

      .cls-25 {
        fill: #dbdbfd;
      }

      .cls-26 {
        fill: #fcccb1;
      }

      .cls-27 {
        fill: #f1effd;
      }
    </style>
  </defs>
  <g id="OBJECTS">
    <g>
      <path class="cls-5" d="m571.79,115.81c0-.39.32-.7.71-.7s.71.32.71.7v3.19c0,.4-.32.71-.71.71s-.71-.32-.71-.71v-3.19Zm-4.83,2.59c-.28-.27-.28-.72,0-1,.27-.27.73-.27,1,0l2.26,2.26c.28.28.28.73,0,1-.29.27-.73.27-1,0l-2.26-2.26Zm-1.59,5.25c-.4,0-.71-.32-.71-.71s.32-.7.71-.7h3.19c.39,0,.71.32.71.7s-.32.71-.71.71h-3.19Zm2.59,4.83c-.28.28-.73.28-1,0-.28-.27-.28-.72,0-1l2.26-2.26c.27-.28.72-.28,1,0,.28.27.28.72,0,1l-2.26,2.25Zm5.25,1.59c0,.39-.32.71-.71.71s-.71-.32-.71-.71v-3.19c0-.39.32-.71.71-.71s.71.32.71.71v3.19Zm4.83-2.59c.28.27.28.72,0,1-.27.28-.73.28-1,0l-2.26-2.25c-.28-.28-.28-.73,0-1,.28-.28.73-.28,1,0l2.26,2.26Zm1.59-5.25c.39,0,.71.32.71.7s-.32.71-.71.71h-3.2c-.38,0-.7-.32-.7-.71s.32-.7.7-.7h3.2Zm-2.59-4.84c.28-.27.73-.27,1,0,.28.28.28.73,0,1l-2.26,2.26c-.27.27-.73.27-1,0s-.28-.72,0-1l2.26-2.26Z"/>
      <path class="cls-1" d="m572.5,169.04c21.12,0,38.26-17.12,38.26-38.25s-17.13-38.26-38.26-38.26-38.25,17.13-38.25,38.26,17.13,38.25,38.25,38.25h0Z"/>
      <g>
        <rect class="cls-20" x="128.15" y="39.63" width="37.06" height="11.23"/>
        <rect class="cls-20" x="73.11" y="53.11" width="37.07" height="11.23"/>
        <rect class="cls-20" x="111.94" y="53.11" width="37.06" height="11.23"/>
        <rect class="cls-20" x="89.32" y="66.58" width="37.06" height="11.23"/>
        <rect class="cls-20" x="73.11" y="80.07" width="37.07" height="11.23"/>
        <rect class="cls-20" x="111.94" y="80.07" width="37.06" height="11.23"/>
      </g>
      <rect class="cls-20" x="152.19" y="286.13" width="37.07" height="11.22"/>
      <rect class="cls-20" x="191.02" y="286.13" width="37.07" height="11.22"/>
      <rect class="cls-20" x="135.98" y="299.6" width="37.06" height="11.23"/>
      <rect class="cls-20" x="174.81" y="299.6" width="37.06" height="11.23"/>
      <rect class="cls-20" x="191.02" y="313.08" width="37.07" height="11.23"/>
      <rect class="cls-20" x="135.98" y="326.56" width="37.06" height="11.23"/>
      <rect class="cls-20" x="174.81" y="326.56" width="37.06" height="11.23"/>
      <g>
        <path class="cls-2" d="m215.16,30.59h163.15c4.16,0,7.56,3.41,7.56,7.56v232.72h5.8c2.79,0,5.08,2.29,5.08,5.08v20.78c0,2.79-2.29,5.08-5.08,5.08h-189.89c-2.79,0-5.07-2.29-5.07-5.08v-20.78c0-2.79,2.28-5.08,5.07-5.08h5.8V38.15c0-4.16,3.41-7.56,7.57-7.56h0Z"/>
        <path class="cls-12" d="m211.01,28.83h163.15c4.16,0,7.56,3.4,7.56,7.56v236.32c0,4.16-3.4,7.56-7.56,7.56h-163.15c-4.16,0-7.56-3.4-7.56-7.56V36.39c0-4.16,3.4-7.56,7.56-7.56h0Z"/>
        <rect class="cls-4" x="217.27" y="160.33" width="150.63" height="98.61"/>
        <g>
          <rect class="cls-3" x="217.27" y="42.65" width="150.63" height="120.23"/>
          <path class="cls-14" d="m232.12,57.51v37.84h53.03v-37.84h-53.03Zm0,52.69v37.83h53.03v-37.83h-53.03Zm67.89,37.83h53.03v-37.83h-53.03v37.83Zm53.03-52.69v-37.84h-53.03v37.84h53.03Z"/>
          <path class="cls-2" d="m347.03,86.02l-9.32,9.32h-24.66l31.53-31.53h2.45v22.21Zm-23.25-22.21h10.68l-31.53,31.53h-2.92v-7.76l23.77-23.77Zm-38.62,77.92h-18.49l18.49-18.49v18.49Zm-28.61,0h-10.68l31.53-31.53h7.76v2.92l-28.61,28.61Zm66.32-31.53l-22.85,22.85v-22.85h22.85Z"/>
        </g>
        <path class="cls-6" d="m197.64,269.12h189.89c2.79,0,5.07,2.28,5.07,5.07v20.78c0,2.79-2.28,5.08-5.07,5.08h-189.89c-2.79,0-5.08-2.29-5.08-5.08v-20.78c0-2.79,2.28-5.07,5.08-5.07h0Z"/>
        <g>
          <path class="cls-11" d="m297.77,172.79l-1.97.21-1.21-.04-1.21-.05-1.94-.36-11.1-11.35-25.5,11.23c.78,40.08-3.41,58.89-8.33,86.52h77.48c.1-11.9,4.9-29.53,5.91-39.1l4.36-44.3-24.54-13.21-11.95,10.45Z"/>
          <path class="cls-19" d="m302.46,258.94h13.99c3.03-2.51,5.99-4.72,7.87-5.6,1.11-11.33,4.72-25.34,5.58-33.5l.12-1.26c-.31-3.06-.65-6.35-1.03-9.91-1.41-13.15,1.65-21.9,4.68-27.12l.59-6.02-24.54-13.21-3.86,3.38-1.33,6.34s13.27,10.24,14.87,15.83c1.6,5.6-4,44.13-8,60.76-.98,4.07-4.38,7.47-8.95,10.29h0Z"/>
          <path class="cls-19" d="m254.87,174.03c.4,24.63-1.1,41.15-3.49,56.85h0s13.02-48.69,11.58-50.02c-1.13-1.04-2.53-2.21-8.09-6.83h0Z"/>
          <path class="cls-9" d="m308.62,159.5c-8.92-4.28-17.71-4.63-26.94-1.06l1.41,4.26,23.79.94,1.73-4.13Z"/>
          <path class="cls-22" d="m297.77,172.79l-1.97.21-2.42-.09-1.94-.36-7.45-7.63-1.17.31-2.61,3.17s5.14,13.3,5.44,13.76c.32.46.89.7,1.79-.29.88-1,3.68-4.27,3.68-4.27,0,0,.81-.78,1.13.15.33.93,4.41-1.43,4.41-1.43l.25.89s.64-.71,1.2.27c.56.98,3.35,5.21,3.55,5.4.2.2,1.07.84,1.75-.42.61-1.16,7.93-15.96,9.2-18.55l-2.89-1.56-11.95,10.45Z"/>
          <path class="cls-22" d="m297.77,172.79l-1.97.21-2.42-.09-1.94-.36-.74-.76-1.74,2.75s3.59,1.32,3.46,4.51l-7.01,79.9h3.86l7.01-79.75c.27-3.18,3.8-4.23,3.8-4.23l-1.52-2.88-.8.7Z"/>
          <path class="cls-8" d="m295.9,139.86h0c5.62.22,10.04,5.01,9.81,10.62l-.53,13.52c-.22,5.62-5,10.03-10.62,9.81h0c-5.62-.22-10.03-5.01-9.81-10.62l.53-13.52c.22-5.62,5.01-10.04,10.62-9.82h0Z"/>
          <path class="cls-22" d="m292.27,171.63l1.18-.14s.22.26.24.68c.02.42,0,1.67,0,1.67-.44.14-2.75.52-2.66.19.02-.08,1.25-2.39,1.25-2.39h0Z"/>
          <path class="cls-22" d="m297.02,171.82l-1.16-.24s-.24.24-.29.66c-.05.42-.13,1.66-.13,1.66.42.35,2.71.73,2.65.4-.02-.08-1.06-2.48-1.06-2.48h0Z"/>
          <path class="cls-18" d="m308.62,159.5c.13.12,1.48,2.71,2.18,3.97,0,0,.64,1.03.08,2.7-.57,1.67-7.68,15.27-7.68,15.27,0,0-.5.72-1.22-.03-.73-.75-6.11-9.82-6.11-9.82l11.31-11.03c.53-.63,1.32-1.18,1.44-1.06h0Z"/>
          <path class="cls-18" d="m281.68,158.43c-.09.04-1.69,2.59-2.49,3.79,0,0-.72.98-.28,2.69.44,1.71,6.46,15.83,6.46,15.83,0,0,.44.75,1.22.06.78-.69,6.86-9.31,6.86-9.31l-10.41-11.89c-.7-.88-1.27-1.21-1.36-1.17h0Z"/>
          <path class="cls-8" d="m275.69,127.1c-.15,0-.31,0-.46,0h0c-2.83.18-5.27,2.29-5.75,5.21-.57,3.4,1.73,6.6,5.14,7.17,3.4.56,6.6-1.74,7.17-5.14.32-1.98-.32-3.88-1.58-5.25-.11,1.85-.72,4.05-3.08,3.94l.58-3.55c.24-1.43-1.01-2.29-2-2.4h0Z"/>
          <path class="cls-8" d="m320.23,133.57c.15.04.29.1.44.15h0c2.67.98,4.4,3.69,4.04,6.64-.43,3.41-3.55,5.83-6.96,5.4-3.42-.43-5.84-3.55-5.41-6.96.25-1.98,1.41-3.63,3.01-4.59-.42,1.8-.46,4.1,1.83,4.66l.46-3.57c.18-1.44,1.62-1.91,2.6-1.73h0Z"/>
          <path class="cls-15" d="m302.43,99.51h0c-11.62-1.68-22.51,6.44-24.19,18.06l-2.79,19.22c-1.69,11.62,6.44,22.51,18.06,24.19h0c11.62,1.69,22.5-6.44,24.19-18.06l2.79-19.21c1.68-11.62-6.44-22.51-18.06-24.2h0Z"/>
          <path class="cls-23" d="m290.53,160.33c.96.28,1.96.51,2.98.65h0c11.62,1.69,22.5-6.44,24.19-18.06l2.79-19.21c.51-3.48.13-6.89-.95-10-8.54-2.54-15.81-4.59-15.81-4.59,0,0-26.91-.03-24.04,7.41l.76,1.24s2.32-2.11,6.43-1.12c4.12,1,17.79,4.56,22.31,6.23,4.52,1.68,5.72,5.04,5.04,9.6-.69,4.55-.21,6.35.92,7.11,0,0-1.73,20.73-24.63,20.73h0Z"/>
          <path class="cls-18" d="m290.3,144.81c-.56,3,1.43,5.88,4.42,6.44,3.01.56,5.88-1.42,6.44-4.42h0c.09-.51-.25-1.02-.76-1.12l-8.96-1.67c-.52-.09-1.02.25-1.12.76h0Z"/>
          <path class="cls-18" d="m291.54,149.41c.8.93,1.9,1.6,3.19,1.84,1.06.2,2.1.08,3.02-.28-.21-1.19-1.27-2.26-2.73-2.58-1.39-.31-2.75.13-3.48,1.03h0Z"/>
          <path class="cls-18" d="m300.51,145.75l-8.43-1.56c-.31.9-.05,1.92.54,2.25.71.39,6.84,1.36,7.37.96.25-.2.42-.94.52-1.65h0Z"/>
          <path class="cls-8" d="m308.4,142.64c-1.53-.25-2.97.79-3.23,2.32-.25,1.53.79,2.97,2.32,3.23,1.53.25,2.97-.79,3.22-2.32.26-1.53-.78-2.97-2.31-3.23h0Z"/>
          <path class="cls-8" d="m284.57,138.71c-1.53-.25-2.97.79-3.23,2.32-.25,1.53.78,2.97,2.32,3.23,1.53.25,2.97-.79,3.22-2.32.26-1.53-.78-2.97-2.31-3.23h0Z"/>
          <path class="cls-22" d="m288.39,136.27c.07-.52-.06-1.05-.38-1.47-.31-.42-.77-.69-1.3-.77-.52-.08-1.05.06-1.47.37-.42.32-.7.78-.77,1.31-.06.41-.45.7-.86.63-.41-.06-.7-.45-.64-.86.14-.92.63-1.74,1.36-2.3.75-.55,1.67-.79,2.59-.65.93.13,1.74.62,2.3,1.36.56.75.79,1.67.66,2.59-.06.41-.45.7-.87.64-.41-.06-.7-.45-.64-.86h0Zm21.76,3.16c.08-.52-.05-1.05-.37-1.47-.32-.42-.78-.7-1.3-.77-.52-.08-1.05.06-1.47.37-.42.32-.7.78-.77,1.31-.06.41-.45.7-.86.64-.42-.06-.7-.45-.64-.87.13-.92.62-1.74,1.37-2.3.75-.55,1.67-.79,2.59-.65.92.13,1.74.62,2.3,1.37s.79,1.67.65,2.59c-.06.42-.45.7-.86.64-.41-.06-.7-.45-.64-.86h0Zm1.66-6.81c-1.49-1-3.44-1.49-5.15-.77-.39.16-.83-.03-1-.41-.16-.38.03-.82.41-.99,2.11-.88,4.76-.39,6.59.93.34.24.43.71.19,1.06-.24.34-.71.43-1.05.19h0Zm-26.97-3.91c-.4.13-.83-.09-.96-.48-.13-.4.09-.82.48-.95,2.14-.74,4.81-.47,6.59.98.32.27.37.75.1,1.06-.26.33-.74.38-1.06.11-1.44-1.18-3.44-1.25-5.15-.72h0Z"/>
          <path class="cls-22" d="m275.97,133.24s3.34-.82,4.13-6.23c.78-5.41.58-4.08,1-6.89.41-2.82,3.08-7.47,8.8-6.64,5.72.83,10.3,1.49,10.3,1.49,0,0,4.58.66,10.3,1.49,5.71.83,6.95,6.05,6.54,8.87-.4,2.82-.21,1.49-1,6.89-.79,5.4,2.18,7.15,2.18,7.15.63-4.29,2.17-5.78,2.17-5.78,0,0,.83-5.74,1.56-10.75.73-5.01.3-11.94-5.61-17.53-5.91-5.57-13.79-6.64-13.79-6.64,0,0-7.85-1.22-15.1,2.45-7.25,3.66-9.63,10.19-10.36,15.21-.73,5.01-1.56,10.74-1.56,10.74,0,0,1.06,1.87.45,6.16h0Z"/>
          <path class="cls-7" d="m289.9,113.48s9.61,10.49,24.09,4.34c0,0,6.19-3.65,8.12-.86,0,0,4.32-11.29-5.39-14.21,0,0,2.23-1.12,2.1-2.57-.12-1.46-3.33-5.8-13.34-3.62,0,0,.33-3.6-2.88-4.64-3.2-1.04-13.91,2.59-16.46,9.94,0,0-2.08,5.4,3.77,11.62h0Z"/>
          <path class="cls-24" d="m322.95,109.85c-.07-.52-.18-1.05-.34-1.56-2.8,1.47-8.8,3.48-18.13,1.05-8.24-2.14-8.91-10.43-8.19-16.55-2.95,1.1-6.17,3.04-8.3,5.74.02,3,1.55,7.35,8.34,11.94,9.61,6.48,21.76,1.77,26.62-.61h0Z"/>
          <path class="cls-15" d="m198.63,84.46l.03,1.64s.81.28,1.4,1.61c.6,1.33.88,2.31.88,2.31l8.57-3.11.03-.67-.68-2.04s-.19-.36,0-.61l-4.35-1.91-5.9,2.78Z"/>
          <path class="cls-11" d="m278.73,161.9s-41-21.43-47.5-28.72c-6.51-7.27-9.54-17.47-19.46-46.59,0,0-.36-1.36-2.46-1.21-2.11.14-8.02,2.22-8.83,3.22-.82,1-1.26,2.01-.97,3.38.29,1.37,11.99,46.73,15.3,53.51,3.32,6.78,33.33,34.69,39.58,41.2,6.24,6.51,24.34-24.8,24.34-24.8h0Z"/>
          <path class="cls-19" d="m207.58,85.69c-2.62.64-6.46,2.12-7.1,2.91-.82,1-1.26,2.01-.97,3.38.29,1.37,11.99,46.73,15.3,53.51,3.32,6.78,33.33,34.69,39.58,41.2,1.95,2.04,5.06.37,8.42-2.88.27-1.71.35-2.78.15-2.96-1.44-1.33-3.36-2.88-13.91-11.68-10.55-8.79-26.95-23.91-29.66-29.5-2.72-5.6-11.12-35.18-13.83-44.05-2.62-8.54,1.69-9.86,2.03-9.94h0Z"/>
          <path class="cls-15" d="m211.11,74.7c.59-3.21,2.36-5.46,3.09-6.22.95-1-3.62-3.79-5.41,1.04,0,0-1.61,1.82-2.54,1.29-.92-.53-2.39-14.65-2.55-16.19-.15-1.55-1.95-1.66-2.43-1.22-.47.44-.21,2.67-.08,5.51.14,2.85.26,6.06,0,6.35-.24.28-.89.28-1.57-1.25-.69-1.54-4.13-10.12-4.89-10.54-.76-.43-2.17.36-2.04,1.8.14,1.44,3.94,9.98,4.08,11.22.14,1.25-1.1,1.19-1.66.52-.56-.68-5.99-9.35-6.69-9.77-.7-.42-2.11.43-1.59,1.89.52,1.46,5.37,9.98,5.34,10.7-.03.71-.97,1.26-2.55.15-1.59-1.12-4.6-3.8-5.19-3.83-.58-.03-1.35,1.78.06,3.21,1.41,1.43,4.77,5.11,5.2,5.72,2.27,3.2,3.44,6.74,5.56,9,.76.82,1.76,1.43,2.88,1.85,2.65.98,5.98.82,8.53-.56,4.42-2.4,3.63-6.24,4.46-10.67h0Z"/>
          <path class="cls-15" d="m279.5,266.8l-2.71,2.32h-22.63s.88-2.8,2.36-3.68c0,0,.59-.28,1.34-.28,0,0,.7-.92,1.75-1.36,1.06-.44,6.34-1.72,9.09-2.2,2.77-.48,5.44.48,6.76.48s3.36-.28,3.36-.28l.68,5Z"/>
          <path class="cls-11" d="m334.27,175.54s4.16,2.94,6.16,11.81c2,8.88,7.04,53.97,7.99,61.8.96,7.84.64,19.96-16.62,19.96h-55.01v-8.05c0-2.13,1.36-2.84,2.76-2.84s43.42-4.56,45.42-5.12c1.99-.56,2.96-1.68,3.03-4.08.09-2.4-6.79-30.14-8.24-40.53-1.43-10.39,4.64-33.26,14.51-32.96h0Z"/>
          <path class="cls-19" d="m348.72,253.01c.16,7.42-2.31,16.11-16.92,16.11h-55.01v-6.32c1.35,1.68,4.05,3.61,9.35,3.61h43.34c6.63,0,19-4.8,19.24-13.39h0Z"/>
          <path class="cls-19" d="m319.75,208.5c.98,7.02,4.43,21.98,6.54,31.68,1.01,4.65,1.72,8.08,1.69,8.85-.07,2.21-.88,3.33-2.57,3.93,4.16-.69,5.57-2.64,6.29-5.27.62-2.24.07-11.67-1.68-29.1-.31-3.06-.65-6.36-1.03-9.91-1.41-13.15,1.65-21.9,4.68-27.12.93-1.6,1.86-2.87,2.64-3.82-1.15-1.56-2.05-2.2-2.05-2.2-9.88-.3-15.95,22.57-14.51,32.96h0Z"/>
          <path class="cls-26" d="m292.75,141.28s1.88-1.96,2.48-2.48c.6-.51.72.08.65.86-.07.78.13,2.28-.29,2.64-.42.36-2.5,0-2.94-.18-.44-.17.09-.83.09-.83h0Z"/>
        </g>
      </g>
      <path class="cls-5" d="m154.56,185.5c0-.34.27-.63.62-.63s.63.28.63.63v2.81c0,.34-.28.62-.63.62s-.62-.28-.62-.62v-2.81Zm-4.26,2.28c-.24-.25-.24-.64,0-.88.24-.25.64-.25.88,0l1.98,1.98c.25.24.25.63,0,.88-.24.24-.64.24-.88,0l-1.98-1.98Zm-1.4,4.62c-.34,0-.62-.28-.62-.63s.27-.63.62-.63h2.81c.35,0,.63.28.63.63s-.27.63-.63.63h-2.81Zm2.28,4.25c-.25.25-.64.25-.88,0-.24-.24-.24-.63,0-.88l1.98-1.99c.25-.24.64-.24.88,0,.25.25.25.64,0,.88l-1.98,1.98Zm4.62,1.4c0,.34-.28.63-.63.63s-.62-.29-.62-.63v-2.81c0-.35.27-.63.62-.63s.63.28.63.63v2.81Zm4.26-2.28c.24.24.24.64,0,.88-.25.25-.64.25-.88,0l-1.98-1.98c-.25-.24-.25-.63,0-.88.24-.24.64-.24.88,0l1.99,1.99Zm1.39-4.63c.35,0,.63.28.63.63s-.28.63-.63.63h-2.81c-.34,0-.62-.28-.62-.63s.28-.63.62-.63h2.81Zm-2.28-4.25c.24-.25.64-.25.88,0,.24.24.24.64,0,.88l-1.99,1.98c-.24.24-.64.24-.88,0-.25-.25-.25-.64,0-.88l1.98-1.98Z"/>
      <g>
        <path class="cls-17" d="m32.53,293.69h3.53c.64,0,1.18.53,1.18,1.18v3.54c0,.64-.53,1.18-1.18,1.18h-3.53c-.65,0-1.18-.53-1.18-1.18v-3.54c0-.64.52-1.18,1.18-1.18h0Z"/>
        <path class="cls-17" d="m44.59,293.69h3.54c.64,0,1.18.53,1.18,1.18v3.54c0,.64-.53,1.18-1.18,1.18h-3.54c-.64,0-1.18-.53-1.18-1.18v-3.54c0-.64.53-1.18,1.18-1.18h0Z"/>
        <path class="cls-17" d="m56.66,293.69h3.54c.64,0,1.18.53,1.18,1.18v3.54c0,.64-.53,1.18-1.18,1.18h-3.54c-.64,0-1.18-.53-1.18-1.18v-3.54c0-.64.53-1.18,1.18-1.18h0Z"/>
        <path class="cls-17" d="m68.73,293.69h3.53c.65,0,1.18.53,1.18,1.18v3.54c0,.64-.52,1.18-1.18,1.18h-3.53c-.65,0-1.18-.53-1.18-1.18v-3.54c0-.64.52-1.18,1.18-1.18h0Z"/>
      </g>
      <path class="cls-5" d="m109.61,20.44c0-.34.27-.62.63-.62s.62.27.62.62v2.81c0,.34-.27.63-.62.63s-.63-.28-.63-.63v-2.81Zm-4.26,2.29c-.24-.25-.24-.64,0-.88.25-.24.64-.24.88,0l1.98,1.98c.25.25.25.64,0,.88-.24.24-.64.24-.88,0l-1.99-1.98Zm-1.39,4.62c-.35,0-.63-.28-.63-.63s.27-.62.63-.62h2.81c.34,0,.62.27.62.62s-.27.63-.62.63h-2.81Zm2.28,4.26c-.24.24-.64.24-.88,0-.24-.25-.24-.64,0-.88l1.99-1.99c.24-.24.64-.24.88,0,.25.25.25.64,0,.88l-1.98,1.99Zm4.62,1.39c0,.34-.27.63-.62.63s-.63-.28-.63-.63v-2.81c0-.34.27-.62.63-.62s.62.27.62.62v2.81Zm4.26-2.28c.24.24.24.64,0,.88-.24.24-.64.24-.89,0l-1.98-1.99c-.25-.24-.25-.63,0-.88.24-.24.63-.24.88,0l1.98,1.99Zm1.4-4.62c.34,0,.62.27.62.62s-.27.63-.62.63h-2.81c-.35,0-.63-.28-.63-.63s.27-.62.63-.62h2.81Zm-2.28-4.26c.24-.24.64-.24.89,0,.24.24.24.63,0,.88l-1.98,1.98c-.25.24-.64.24-.88,0-.25-.24-.25-.63,0-.88l1.98-1.98Z"/>
      <g>
        <path class="cls-27" d="m138.71,141.14h3.54c.64,0,1.18.53,1.18,1.18v3.54c0,.64-.53,1.18-1.18,1.18h-3.54c-.64,0-1.18-.53-1.18-1.18v-3.54c0-.65.53-1.18,1.18-1.18h0Z"/>
        <path class="cls-27" d="m150.78,141.14h3.53c.65,0,1.18.53,1.18,1.18v3.54c0,.64-.52,1.18-1.18,1.18h-3.53c-.65,0-1.18-.53-1.18-1.18v-3.54c0-.65.52-1.18,1.18-1.18h0Z"/>
        <path class="cls-27" d="m162.84,141.14h3.54c.64,0,1.18.53,1.18,1.18v3.54c0,.64-.53,1.18-1.18,1.18h-3.54c-.64,0-1.18-.53-1.18-1.18v-3.54c0-.65.53-1.18,1.18-1.18h0Z"/>
        <path class="cls-27" d="m174.92,141.14h3.53c.64,0,1.18.53,1.18,1.18v3.54c0,.64-.53,1.18-1.18,1.18h-3.53c-.65,0-1.18-.53-1.18-1.18v-3.54c0-.65.52-1.18,1.18-1.18h0Z"/>
      </g>
      <g>
        <path class="cls-2" d="m480.4,90.82v77.22h-12.22c-8.73,0-15.88,7.14-15.88,15.89h0c0,8.73,7.15,15.89,15.88,15.89h12.22v158.3h-69.96V2.56c20.37,9.89,34.49,30.8,34.49,54.86h0c0,18.37,15.03,33.39,33.4,33.39h2.07Z"/>
        <path class="cls-6" d="m416.55,5.98v352.14h-12.21V0c4.31,1.54,8.41,3.55,12.21,5.98h0Z"/>
        <path class="cls-6" d="m431.63,19.54v338.58h-12.22V7.92c4.58,3.3,8.7,7.21,12.22,11.62h0Z"/>
        <path class="cls-6" d="m446.72,68.17v289.94h-12.22V23.43c6.58,9.72,10.43,21.42,10.43,33.99h0c0,3.75.63,7.37,1.79,10.75h0Z"/>
        <path class="cls-6" d="m461.81,86.41v82.98c-5.59,2.46-9.51,8.06-9.51,14.54h0c0,6.47,3.93,12.07,9.51,14.54v159.65h-12.22V74.37c2.96,4.99,7.18,9.15,12.22,12.04h0Z"/>
        <path class="cls-6" d="m476.9,90.78v77.26h-8.72c-1.2,0-2.38.14-3.5.4v-80.56c3.76,1.69,7.88,2.71,12.22,2.9h0Zm0,109.03v158.3h-12.22v-158.7c1.12.26,2.3.39,3.5.39h8.72Z"/>
      </g>
      <g>
        <path class="cls-27" d="m313.15,329.84h3.54c.64,0,1.18.52,1.18,1.18v3.53c0,.65-.53,1.18-1.18,1.18h-3.54c-.64,0-1.18-.53-1.18-1.18v-3.53c0-.65.53-1.18,1.18-1.18h0Z"/>
        <path class="cls-27" d="m325.22,329.84h3.53c.65,0,1.18.52,1.18,1.18v3.53c0,.65-.52,1.18-1.18,1.18h-3.53c-.65,0-1.18-.53-1.18-1.18v-3.53c0-.65.52-1.18,1.18-1.18h0Z"/>
        <path class="cls-27" d="m337.29,329.84h3.54c.64,0,1.18.52,1.18,1.18v3.53c0,.65-.53,1.18-1.18,1.18h-3.54c-.64,0-1.18-.53-1.18-1.18v-3.53c0-.65.53-1.18,1.18-1.18h0Z"/>
        <path class="cls-27" d="m349.36,329.84h3.53c.65,0,1.18.52,1.18,1.18v3.53c0,.65-.52,1.18-1.18,1.18h-3.53c-.65,0-1.18-.53-1.18-1.18v-3.53c0-.65.53-1.18,1.18-1.18h0Z"/>
      </g>
      <g>
        <path class="cls-27" d="m333.4,9.43h3.54c.64,0,1.18.52,1.18,1.18v3.53c0,.65-.53,1.18-1.18,1.18h-3.54c-.64,0-1.18-.52-1.18-1.18v-3.53c0-.65.53-1.18,1.18-1.18h0Z"/>
        <path class="cls-27" d="m345.47,9.43h3.53c.65,0,1.18.52,1.18,1.18v3.53c0,.65-.53,1.18-1.18,1.18h-3.53c-.65,0-1.18-.52-1.18-1.18v-3.53c0-.65.52-1.18,1.18-1.18h0Z"/>
        <path class="cls-27" d="m357.54,9.43h3.53c.65,0,1.19.52,1.19,1.18v3.53c0,.65-.53,1.18-1.19,1.18h-3.53c-.64,0-1.18-.52-1.18-1.18v-3.53c0-.65.53-1.18,1.18-1.18h0Z"/>
        <path class="cls-27" d="m369.6,9.43h3.54c.64,0,1.18.52,1.18,1.18v3.53c0,.65-.53,1.18-1.18,1.18h-3.54c-.64,0-1.18-.52-1.18-1.18v-3.53c0-.65.53-1.18,1.18-1.18h0Z"/>
      </g>
      <g>
        <path class="cls-27" d="m502.83,227.15h3.53c.64,0,1.18.52,1.18,1.18v3.53c0,.64-.53,1.18-1.18,1.18h-3.53c-.65,0-1.18-.53-1.18-1.18v-3.53c0-.65.52-1.18,1.18-1.18h0Z"/>
        <path class="cls-27" d="m514.89,227.15h3.54c.64,0,1.18.52,1.18,1.18v3.53c0,.64-.53,1.18-1.18,1.18h-3.54c-.64,0-1.18-.53-1.18-1.18v-3.53c0-.65.53-1.18,1.18-1.18h0Z"/>
        <path class="cls-27" d="m526.96,227.15h3.54c.64,0,1.18.52,1.18,1.18v3.53c0,.64-.53,1.18-1.18,1.18h-3.54c-.65,0-1.18-.53-1.18-1.18v-3.53c0-.65.53-1.18,1.18-1.18h0Z"/>
        <path class="cls-27" d="m539.03,227.15h3.53c.65,0,1.18.52,1.18,1.18v3.53c0,.64-.53,1.18-1.18,1.18h-3.53c-.64,0-1.18-.53-1.18-1.18v-3.53c0-.65.53-1.18,1.18-1.18h0Z"/>
      </g>
      <g>
        <path class="cls-19" d="m91.28,348.96c-.02-7.11.76-15.29,2.75-24.63.02-.07.03-.14.05-.21.09-.38.39-1.1,1.14-.89,1.01.27,9.31,4.94,17.06,12.83,7.75,7.89,7.63-3.98.89-8.65-6.72-4.67-13.6-6.64-15.66-8.42-2.07-1.79-1.7-3.83-1.7-3.83h0c1.61-9.04,2.81-18.31,3.65-27.44h0s.39-2,2.28.33c1.9,2.34,9.23,10.47,14.94,11,5.71.54.48-8.51-7.58-12.95-8.06-4.44-9.05-5.38-8.97-6.46h0c.52-7.2.82-14.23.93-20.93h0s.33-1.2,1.39-.33c1.06.88,9.08,10.05,13.36,9.08,4.28-.98.12-8.79-6.7-11.53-6.82-2.74-8-3.56-8.01-4.58h0c-.07-19.83-1.82-35.8-4.46-42.59-2.74-7.08,14.67,8.93,30.76,35.05,1.38,2.38,1.29,3.74.4,6.63-.96,3.09-2.02,10.06.51,8.44,2.52-1.62,2.87-7.75,3.07-7.86.15-.09.27,0,.31.05,2.64,4.67,5.17,9.59,7.52,14.7,2.42,5.74-.82,9.65-5.32,15.25-4.67,5.8-3.83,11.97,1.13,9.38,4.96-2.58,7.27-14.65,7.69-14.97.38-.29.65.14.7.23,3.28,8.45,5.9,17.29,7.49,26.26.34,4.47-3.31,8.17-7.13,14.2-3.85,6.09-.89,9.76,2.15,8.92,3.03-.84,5.08-8.25,5.75-8.73.61-.45.8-.07.82,0,.34,8.7-.47,17.41-2.82,25.91-2.06,7.46-4.22,13.84-6.45,19.28h-39.41l-12.53-12.53Z"/>
        <path class="cls-11" d="m137.07,361.49c-5.17-68.99-22.89-128.75-22.98-129.05-.25-.82-1.11-1.3-1.93-1.06-.82.24-1.3,1.11-1.06,1.93.09.3,17.71,59.7,22.88,128.18h3.08Z"/>
        <path class="cls-16" d="m169.57,266.62c29.88-17.7,38.14,19.13,32.08,35.82-4.49,12.35-20.41,39.4-31.63,59.05h-41.69c5.41-41.29,19.24-81.84,41.23-94.87h0Z"/>
        <path class="cls-25" d="m146.49,361.49c15.21-48.27,38.5-88.2,38.62-88.41.34-.59,1.21-.89,1.92-.66.72.23,1.02.9.68,1.5-.12.21-23.2,39.78-38.34,87.57h-2.88Z"/>
        <path class="cls-27" d="m41.53,245.5c9.21-34.83,41.69-15.76,55.64,14.01,7.87,16.8,21.51,61.14,36.86,101.97h-38.97l-11.58-6.5c-26.95-50.4-45.62-95.57-41.94-109.48h0Z"/>
        <path class="cls-18" d="m104.54,353.12c-29.63-56.19-45.07-110.76-45.15-111.03-.22-.77.22-1.57.99-1.79.77-.22,1.58.22,1.79.99.09.3,17.06,60.23,49.44,118.9l-7.08-7.07Z"/>
      </g>
      <g>
        <rect class="cls-20" x="555.81" y="251.39" width="37.06" height="11.23"/>
        <rect class="cls-20" x="539.6" y="264.87" width="37.07" height="11.23"/>
        <path class="cls-2" d="m578.43,264.87h23.45c.66,3.66,1.07,7.41,1.21,11.23h-24.66v-11.23Z"/>
        <rect class="cls-20" x="555.81" y="278.34" width="37.06" height="11.23"/>
        <path class="cls-2" d="m594.64,278.34h8.49c0,.21,0,.41,0,.62h0c0,3.6-.24,7.14-.71,10.62h-7.79v-11.23Z"/>
        <path class="cls-2" d="m578.43,291.82h23.66c-.63,3.84-1.54,7.59-2.71,11.23h-20.94v-11.23Z"/>
        <path class="cls-5" d="m516.28,303.74c0-.34.28-.63.63-.63s.63.28.63.63v2.81c0,.34-.29.63-.63.63s-.63-.28-.63-.63v-2.81Zm-4.25,2.28c-.25-.24-.25-.64,0-.88s.64-.24.88,0l1.98,1.99c.24.24.24.63,0,.88-.25.24-.64.24-.88,0l-1.98-1.99Zm-1.4,4.63c-.34,0-.63-.29-.63-.63s.28-.63.63-.63h2.81c.34,0,.63.28.63.63s-.28.63-.63.63h-2.81Zm2.28,4.25c-.25.25-.64.25-.88,0-.25-.24-.25-.63,0-.88l1.98-1.98c.24-.24.64-.24.88,0,.24.24.24.64,0,.88l-1.98,1.98Zm4.62,1.4c0,.34-.29.62-.63.62s-.63-.28-.63-.62v-2.81c0-.34.28-.62.63-.62s.63.28.63.62v2.81Zm4.25-2.29c.25.25.25.64,0,.88-.24.25-.63.25-.88,0l-1.99-1.98c-.24-.25-.24-.64,0-.88.25-.24.64-.24.88,0l1.98,1.98Zm1.4-4.62c.34,0,.62.28.62.63s-.28.63-.62.63h-2.81c-.34,0-.62-.29-.62-.63s.28-.63.62-.63h2.81Zm-2.28-4.26c.24-.24.64-.24.88,0,.25.25.25.64,0,.88l-1.98,1.99c-.24.24-.63.24-.88,0-.24-.25-.24-.64,0-.88l1.99-1.99Z"/>
        <path class="cls-19" d="m583.14,246.54c8.62,27.98,11.84,43.19,16.47,55.77,2.3-7.39,3.54-15.23,3.54-23.36h0v-40.15c0-73-30.64-26.75-20.01,7.74h0Z"/>
        <path class="cls-19" d="m476.29,353.02c-6.72-8.97-13.58-20.81-17.68-35.3-7.14-25.21,22.15,2.72,45.26,35.3h-27.58Z"/>
        <path class="cls-19" d="m516.57,353.02c-7.21-12.2-14.37-28.24-15.5-45.13-2.37-35.54-3.05-46.71-9.82-52.47-5.8-4.94,64.21-3.88,93.57,74.05-8.71,10.46-20.05,18.66-32.98,23.55h-35.27Z"/>
        <path class="cls-11" d="m501.28,254.18c26.51,24.11,47.36,59.77,62.64,93.04-.73.43-1.47.85-2.21,1.25-15.66-34.17-37.21-70.85-64.7-94.7,1.26.06,2.7.2,4.27.41h0Z"/>
        <path class="cls-2" d="m576.49,215.14c5.85,14.4,14.47,46.7,24.66,81.46-4.15,18.1-14.58,33.89-28.83,44.94-24.7-35.26-46.2-75.32-54.24-107.08-16.17-63.92,34.13-79.16,58.4-19.31h0Z"/>
        <path class="cls-21" d="m586.55,327.3c-34.19-59.79-50.12-129.95-50.19-130.25-.16-.69.27-1.38.96-1.53.69-.16,1.37.27,1.54.95.07.3,15.78,69.46,49.35,128.62-.54.74-1.09,1.48-1.65,2.2h0Z"/>
        <path class="cls-21" d="m553.52,352.36c-1.26-5.8-3.23-12.07-6.24-18.39-11.39-23.92-39.88-33.23-47.99-29.59-6.62,2.98-19.96,21.43-10,48.65h62.55c.57-.21,1.12-.43,1.68-.66h0Z"/>
        <path class="cls-10" d="m537,353.02c1.45-3.91,4.45-12.49,4.84-17.68.04-.4-.27-.76-.67-.78-.4-.04-.75.27-.78.67-.36,4.83-3.11,12.82-4.59,16.85-3.33-6.55-7.39-13.42-12.33-20.37,2.6-10.04,2.3-17.47,2.3-17.49-.02-.4-.35-.71-.76-.7-.4.02-.71.35-.7.76,0,.03.27,6.69-1.95,15.9-5.61-7.69-12.3-15.46-20.29-22.97-.58-.55-1.51-.52-2.06.07-.55.58-.51,1.5.07,2.05,3.9,3.66,7.47,7.38,10.76,11.12-2.95-.54-7.46-1.11-11.94-.66-.39.04-.69.39-.65.8.04.4.4.69.8.64,5.38-.53,10.84.46,13.35,1.01,5.06,5.92,9.4,11.87,13.13,17.71-5.2-.5-17.98-1.34-30.38.94-.39.08-.65.46-.58.85.08.39.45.65.85.58,13.25-2.44,26.97-1.25,31.1-.8,2.44,3.91,4.6,7.76,6.52,11.51h3.97Z"/>
      </g>
      <g>
        <g>
          <path class="cls-17" d="m485.85,48.26h4.02c.74,0,1.34.6,1.34,1.34v4.01c0,.74-.6,1.34-1.34,1.34h-4.02c-.74,0-1.34-.6-1.34-1.34v-4.01c0-.74.6-1.34,1.34-1.34h0Z"/>
          <path class="cls-17" d="m499.57,48.26h4.01c.74,0,1.34.6,1.34,1.34v4.01c0,.74-.6,1.34-1.34,1.34h-4.01c-.74,0-1.34-.6-1.34-1.34v-4.01c0-.74.6-1.34,1.34-1.34h0Z"/>
          <path class="cls-17" d="m513.28,48.26h4.02c.74,0,1.34.6,1.34,1.34v4.01c0,.74-.6,1.34-1.34,1.34h-4.02c-.73,0-1.33-.6-1.33-1.34v-4.01c0-.74.6-1.34,1.33-1.34h0Z"/>
          <path class="cls-17" d="m527,48.26h4.02c.73,0,1.33.6,1.33,1.34v4.01c0,.74-.6,1.34-1.33,1.34h-4.02c-.74,0-1.34-.6-1.34-1.34v-4.01c0-.74.6-1.34,1.34-1.34h0Z"/>
        </g>
        <path class="cls-13" d="m588.52,41.7c0-.39.32-.71.71-.71s.71.32.71.71v3.19c0,.39-.32.7-.71.7s-.71-.32-.71-.7v-3.19Zm-4.83,2.59c-.28-.28-.28-.73,0-1,.27-.28.73-.28,1,0l2.26,2.26c.28.27.28.72,0,1.01-.28.27-.73.27-1,0l-2.26-2.26Zm-1.59,5.25c-.39,0-.71-.32-.71-.7s.32-.71.71-.71h3.2c.39,0,.7.32.7.71s-.32.7-.7.7h-3.2Zm2.59,4.84c-.28.27-.73.27-1,0-.28-.27-.28-.73,0-1l2.26-2.26c.27-.28.72-.28,1,0,.28.27.28.73,0,1l-2.26,2.26Zm5.26,1.59c0,.39-.32.7-.71.7s-.71-.32-.71-.7v-3.2c0-.39.32-.71.71-.71s.71.32.71.71v3.2Zm4.83-2.59c.27.27.27.73,0,1-.27.27-.73.27-1,0l-2.26-2.26c-.27-.28-.27-.73,0-1,.28-.28.73-.28,1,0l2.26,2.26Zm1.59-5.26c.4,0,.71.32.71.71s-.32.7-.71.7h-3.19c-.39,0-.7-.32-.7-.7s.32-.71.7-.71h3.19Zm-2.59-4.83c.27-.28.73-.28,1,0,.27.27.27.72,0,1l-2.26,2.26c-.27.27-.73.27-1,0-.27-.28-.27-.73,0-1.01l2.26-2.26Z"/>
      </g>
      <path class="cls-13" d="m36.55,167.84c0-.4.32-.71.71-.71s.7.32.7.71v3.19c0,.39-.32.7-.7.7s-.71-.32-.71-.7v-3.19Zm-4.83,2.59c-.28-.28-.28-.73,0-1.01.27-.27.72-.27,1,0l2.25,2.26c.28.27.28.72,0,1-.28.27-.72.27-1,0l-2.26-2.26Zm-1.59,5.26c-.4,0-.71-.32-.71-.71s.32-.71.71-.71h3.19c.39,0,.7.32.7.71s-.32.71-.7.71h-3.19Zm2.59,4.83c-.28.28-.73.28-1,0-.28-.28-.28-.73,0-1.01l2.26-2.26c.27-.27.72-.27,1,0,.28.27.28.73,0,1l-2.25,2.26Zm5.25,1.59c0,.39-.32.71-.7.71s-.71-.32-.71-.71v-3.19c0-.39.32-.71.71-.71s.7.33.7.71v3.19Zm4.84-2.59c.28.27.28.73,0,1.01-.28.28-.73.28-1,0l-2.26-2.26c-.27-.28-.27-.73,0-1,.28-.27.73-.27,1,0l2.26,2.26Zm1.59-5.25c.39,0,.7.32.7.71s-.32.71-.7.71h-3.19c-.39,0-.71-.32-.71-.71s.32-.71.71-.71h3.19Zm-2.59-4.83c.27-.27.72-.27,1,0,.28.27.28.73,0,1.01l-2.26,2.26c-.27.27-.73.27-1,0-.27-.28-.27-.73,0-1l2.26-2.26Z"/>
      <path class="cls-19" d="m8.01,353.75h622.03c4.41,0,8.02,3.6,8.02,8.01h0c0,4.41-3.61,8.02-8.02,8.02h-27.04c-2.45,0-4.45,2-4.45,4.45h0c0,2.44,2,4.45,4.45,4.45h9.89c3.06,0,5.57,2.5,5.57,5.57h0c0,3.06-2.5,5.56-5.57,5.56H26.05c-3.07,0-5.57-2.5-5.57-5.56h0c0-3.06,2.5-5.57,5.57-5.57h7.78c2.45,0,4.45-2.01,4.45-4.45h0c0-2.45-2-4.45-4.45-4.45H8.01c-4.41,0-8.01-3.61-8.01-8.02h0c0-4.41,3.61-8.01,8.01-8.01h0Zm4.17,36.06h0c-2.93,0-5.34-2.4-5.34-5.34v-.44c0-2.94,2.41-5.34,5.34-5.34h0c2.94,0,5.34,2.4,5.34,5.34v.44c0,2.95-2.4,5.34-5.34,5.34h0Z"/>
    </g>
  </g>
</svg>