<svg width="120" height="44" viewBox="0 0 120 44" fill="none" xmlns="http://www.w3.org/2000/svg">
<path d="M52.3805 23.8464C51.4534 23.8464 50.7059 23.6725 50.1439 23.3191C49.5818 22.9656 49.1704 22.5079 48.9097 21.9342C48.6489 21.3606 48.5215 20.758 48.5215 20.1148V0.871948H51.6794V18.5562C51.6794 19.3847 51.7315 19.9873 51.8358 20.3756C51.9401 20.7638 52.1487 21.0129 52.4558 21.123C52.7629 21.2331 53.2207 21.2911 53.8233 21.2911L53.4582 23.8464H52.3689H52.3805Z" fill="#0055B8"/>
<path d="M61.7557 23.8463C60.4172 23.8463 59.3105 23.5798 58.4471 23.0467C57.578 22.5136 56.9348 21.7372 56.5118 20.7174C56.0888 19.6976 55.8745 18.4634 55.8745 17.0148V8.6131H59.0323V16.5803C59.0323 18.081 59.2873 19.2167 59.7972 19.9815C60.3071 20.7464 61.1415 21.1288 62.3003 21.1288C63.1347 21.1288 63.8822 20.926 64.5312 20.5262C65.1801 20.1206 65.661 19.5064 65.9739 18.6836L65.4582 20.3466V8.61889H68.6161V23.5508H65.7422L65.3481 20.7695L66.1014 21.4938C65.6668 22.2181 65.0816 22.7918 64.3399 23.2147C63.5983 23.6377 62.7349 23.8521 61.7499 23.8521L61.7557 23.8463Z" fill="#0055B8"/>
<path d="M72.226 23.545V8.61308H74.8102L75.2332 11.18L74.3988 10.6179C75.1753 9.85306 75.9865 9.27942 76.8324 8.897C77.6784 8.51457 78.6055 8.32336 79.6137 8.32336C80.3786 8.32336 81.0855 8.44504 81.7286 8.67682C82.3718 8.91438 82.9454 9.29681 83.4437 9.81829C83.9421 10.3398 84.3419 11.0351 84.6432 11.9042L83.8262 11.6145C84.2897 10.5889 84.985 9.77773 85.9063 9.1983C86.8276 8.61308 87.9865 8.32336 89.3771 8.32336C90.675 8.32336 91.7586 8.57831 92.6161 9.08821C93.4795 9.59811 94.1226 10.3456 94.5456 11.3248C94.9686 12.304 95.183 13.5151 95.183 14.9463V23.545H92.0251V15.0795C92.0251 13.6773 91.7759 12.6517 91.2776 12.0027C90.7793 11.3538 89.9623 11.0293 88.8209 11.0293C88.1082 11.0293 87.5171 11.1452 87.0536 11.3712C86.5901 11.5971 86.2308 11.9042 85.9701 12.2925C85.7151 12.6807 85.5355 13.1095 85.4312 13.5846C85.3269 14.0597 85.2805 14.5406 85.2805 15.0332V23.545H82.1226V15.3982C82.1226 14.2973 81.9952 13.4339 81.746 12.7966C81.4969 12.1592 81.126 11.7072 80.6451 11.4349C80.1642 11.1626 79.579 11.0293 78.8894 11.0293C77.945 11.0293 77.1222 11.2437 76.4326 11.6667C75.7431 12.0897 75.2332 12.727 74.8971 13.573L75.3781 11.8637V23.545H72.2202H72.226Z" fill="#0055B8"/>
<path d="M98.6306 5.71014V2.38422H101.789V5.71014H98.6306ZM98.6306 23.545V8.61309H101.789V23.545H98.6306Z" fill="#0055B8"/>
<path d="M105.404 23.5451V8.61315H108.11L108.487 11.4408L107.519 10.6875C108.336 9.84154 109.188 9.23893 110.074 8.87389C110.961 8.50885 111.888 8.32922 112.856 8.32922C114.924 8.32922 116.425 8.9608 117.358 10.224C118.296 11.4871 118.766 13.1675 118.766 15.265V23.5451H115.608V15.3983C115.608 13.8975 115.341 12.7908 114.808 12.0897C114.275 11.3886 113.371 11.0294 112.102 11.0294C111.164 11.0294 110.341 11.2438 109.628 11.6725C108.915 12.1013 108.4 12.7387 108.081 13.5847L108.562 11.8464V23.5451H105.404Z" fill="#0055B8"/>
<path d="M69.7518 39.7634C69.3172 39.7634 68.8769 39.7286 68.4423 39.6648C68.0077 39.6011 67.6021 39.5142 67.2313 39.4099C66.8604 39.3056 66.5534 39.1955 66.3042 39.0796L66.5012 37.5557C66.7735 37.689 67.098 37.8223 67.4862 37.9613C67.8744 38.1004 68.2859 38.2221 68.732 38.3148C69.1782 38.4075 69.6301 38.4596 70.0879 38.4596C70.7658 38.4596 71.3047 38.338 71.7045 38.0888C72.1043 37.8396 72.3013 37.4514 72.3013 36.9241C72.3013 36.5301 72.2028 36.1999 72 35.9507C71.7972 35.7015 71.4959 35.4814 71.0903 35.3017C70.6847 35.1221 70.1806 34.9425 69.5722 34.7571C68.9927 34.589 68.4597 34.3862 67.9729 34.1487C67.4862 33.9169 67.098 33.604 66.8025 33.21C66.507 32.816 66.3621 32.2945 66.3621 31.6397C66.3621 31.0835 66.507 30.591 66.7967 30.1622C67.0864 29.7334 67.5094 29.3973 68.0715 29.154C68.6335 28.9106 69.3172 28.7947 70.1342 28.7947C70.8295 28.7947 71.4611 28.8701 72.0406 29.0207C72.62 29.1714 73.1009 29.3394 73.4775 29.519L73.3269 31.0429C72.7533 30.7011 72.2086 30.4577 71.6871 30.3128C71.1656 30.168 70.6267 30.0927 70.0705 30.0927C69.4505 30.0927 68.9406 30.2085 68.535 30.4403C68.1294 30.6721 67.9266 31.0487 67.9266 31.5702C67.9266 31.9237 68.0193 32.2076 68.1989 32.4336C68.3786 32.6595 68.6509 32.845 69.0043 33.0072C69.3578 33.1694 69.804 33.3259 70.337 33.4881C71.0729 33.7083 71.6987 33.9633 72.226 34.2472C72.7533 34.5311 73.1589 34.8788 73.437 35.2959C73.7151 35.7131 73.86 36.223 73.86 36.8372C73.86 37.2892 73.773 37.6948 73.605 38.0598C73.437 38.4191 73.1762 38.732 72.8344 38.9869C72.4925 39.2419 72.0637 39.4389 71.548 39.5721C71.0323 39.7054 70.4297 39.7749 69.746 39.7749L69.7518 39.7634Z" fill="#011E41"/>
<path d="M75.8069 43.1994L77.5104 39.2245L74.4394 32.1728H75.9459L78.2521 37.6542L80.3322 32.1728H81.8387L77.3192 43.1994H75.8127H75.8069Z" fill="#011E41"/>
<path d="M84.9502 39.7053C84.2955 39.7053 83.7566 39.63 83.3278 39.4736C82.8991 39.3171 82.5978 39.1781 82.4181 39.0622L82.5862 37.7527C82.7484 37.8917 83.0323 38.054 83.4379 38.2336C83.8435 38.4132 84.3302 38.5059 84.8923 38.5059C85.3674 38.5059 85.7325 38.4248 85.9874 38.2626C86.2424 38.1003 86.3698 37.8743 86.3698 37.5846C86.3698 37.3297 86.2887 37.1211 86.1265 36.9646C85.9642 36.8082 85.7672 36.6807 85.5413 36.588C85.3153 36.4953 85.0951 36.42 84.8981 36.3678C84.562 36.2751 84.2144 36.165 83.8551 36.026C83.4959 35.8869 83.1946 35.6783 82.9454 35.406C82.7021 35.1278 82.5746 34.7454 82.5746 34.2471C82.5746 33.8705 82.6673 33.5112 82.8469 33.1752C83.0265 32.8391 83.322 32.561 83.7276 32.3524C84.1332 32.1438 84.6721 32.0337 85.3443 32.0337C85.8368 32.0337 86.2366 32.0858 86.5437 32.1901C86.8508 32.2944 87.1173 32.4045 87.3433 32.5204L87.1753 33.7546C86.9609 33.575 86.7059 33.4185 86.422 33.2968C86.1381 33.1694 85.7846 33.1056 85.3674 33.1056C84.9502 33.1056 84.6026 33.1868 84.336 33.3432C84.0695 33.4997 83.9362 33.7546 83.9362 34.1023C83.9362 34.4499 84.0811 34.6933 84.3592 34.8381C84.6432 34.983 85.0719 35.1452 85.6513 35.3191C85.831 35.3712 86.0396 35.4407 86.2829 35.5392C86.5205 35.632 86.7523 35.7652 86.9782 35.9217C87.2042 36.0839 87.3896 36.2925 87.5403 36.5532C87.6909 36.814 87.7605 37.1327 87.7605 37.5209C87.7605 37.8454 87.6851 38.1814 87.5287 38.5175C87.3723 38.8536 87.0941 39.1433 86.6827 39.3751C86.2771 39.6068 85.6977 39.7227 84.9444 39.7227L84.9502 39.7053Z" fill="#011E41"/>
<path d="M91.6369 39.7054C91.1676 39.7054 90.7967 39.6184 90.5128 39.4504C90.2289 39.2824 90.0261 39.0622 89.8986 38.7899C89.7711 38.5233 89.7074 38.2394 89.7074 37.9439V33.2273H88.4442L88.5659 32.1728H89.7132V30.3476L91.069 30.2143V32.1728H93.0101V33.2273H91.069V37.1153C91.069 37.5846 91.098 37.9265 91.1502 38.1409C91.2081 38.3495 91.3414 38.4828 91.5616 38.5407C91.7817 38.5987 92.1352 38.6218 92.6219 38.6218H92.9696L92.8653 39.7054H91.6427H91.6369Z" fill="#011E41"/>
<path d="M97.7093 39.7053C96.8402 39.7053 96.1101 39.5257 95.5191 39.1723C94.928 38.813 94.4761 38.3437 94.1748 37.7527C93.8735 37.1616 93.717 36.5127 93.717 35.8058C93.717 35.0989 93.8561 34.4905 94.14 33.9168C94.4239 33.3432 94.8353 32.8854 95.3742 32.5436C95.9131 32.2017 96.5678 32.0279 97.3269 32.0279C97.9411 32.0279 98.4857 32.1496 98.9667 32.3929C99.4476 32.6363 99.8242 32.9898 100.097 33.4533C100.369 33.9168 100.508 34.4789 100.508 35.1452C100.508 35.2495 100.508 35.3654 100.496 35.4871C100.491 35.6088 100.473 35.7362 100.45 35.8695H95.1019C95.1656 36.5532 95.3278 37.0863 95.5886 37.4687C95.8493 37.8512 96.1796 38.1177 96.5736 38.2742C96.9676 38.4306 97.4022 38.5059 97.8715 38.5059C98.2134 38.5059 98.5669 38.4712 98.9435 38.4016C99.3201 38.3321 99.6678 38.222 99.9981 38.0713L100.178 39.1433C99.8938 39.2708 99.5403 39.3982 99.1289 39.5257C98.7175 39.6532 98.2424 39.7169 97.7035 39.7169L97.7093 39.7053ZM95.2236 34.9308H99.1115C99.1115 34.5832 99.0478 34.2819 98.9145 34.0269C98.7813 33.772 98.5843 33.575 98.3177 33.4359C98.0512 33.2968 97.7151 33.2273 97.3037 33.2273C96.7011 33.2273 96.2375 33.378 95.9131 33.6735C95.5886 33.969 95.3568 34.392 95.2236 34.925V34.9308Z" fill="#011E41"/>
<path d="M101.881 39.5547V32.1727H102.936L103.208 33.5866L102.698 33.3432C103.162 32.8449 103.608 32.503 104.048 32.306C104.489 32.109 104.946 32.0163 105.427 32.0163C105.787 32.0163 106.134 32.0742 106.47 32.1959C106.806 32.3118 107.108 32.5204 107.374 32.8159C107.641 33.1114 107.855 33.517 108.017 34.0385L107.641 33.8705C107.861 33.2968 108.203 32.8449 108.655 32.5146C109.112 32.1843 109.727 32.0163 110.503 32.0163C111.123 32.0163 111.639 32.1322 112.062 32.3582C112.485 32.5841 112.803 32.9376 113.012 33.4069C113.226 33.8763 113.331 34.4731 113.331 35.1974V39.5489H111.975V35.209C111.975 34.5136 111.842 34.0095 111.569 33.6966C111.297 33.3838 110.857 33.2215 110.242 33.2215C109.808 33.2215 109.466 33.291 109.205 33.4185C108.944 33.546 108.747 33.7256 108.614 33.9342C108.481 34.1428 108.394 34.3688 108.348 34.6063C108.307 34.8439 108.284 35.0641 108.284 35.2669V39.5431H106.928V35.4755C106.928 34.8729 106.853 34.4093 106.708 34.0791C106.563 33.7546 106.36 33.5286 106.099 33.4011C105.839 33.2737 105.537 33.2099 105.196 33.2099C104.697 33.2099 104.257 33.32 103.863 33.5402C103.469 33.7604 103.208 34.108 103.069 34.5832L103.237 33.8473V39.5431H101.881V39.5547Z" fill="#011E41"/>
<path d="M117.19 39.7053C116.535 39.7053 115.996 39.63 115.567 39.4736C115.139 39.3171 114.837 39.1781 114.658 39.0622L114.826 37.7527C114.988 37.8917 115.272 38.054 115.677 38.2336C116.083 38.4132 116.57 38.5059 117.132 38.5059C117.607 38.5059 117.972 38.4248 118.227 38.2626C118.482 38.1003 118.609 37.8743 118.609 37.5846C118.609 37.3297 118.528 37.1211 118.366 36.9646C118.204 36.8082 118.007 36.6807 117.781 36.588C117.555 36.4953 117.335 36.42 117.138 36.3678C116.802 36.2751 116.454 36.165 116.095 36.026C115.735 35.8869 115.434 35.6783 115.185 35.406C114.942 35.1278 114.814 34.7454 114.814 34.2471C114.814 33.8705 114.907 33.5112 115.086 33.1752C115.266 32.8391 115.562 32.561 115.967 32.3524C116.373 32.1438 116.912 32.0337 117.584 32.0337C118.076 32.0337 118.476 32.0858 118.783 32.1901C119.09 32.2944 119.357 32.4045 119.583 32.5204L119.415 33.7546C119.2 33.575 118.945 33.4185 118.661 33.2968C118.378 33.1694 118.024 33.1056 117.607 33.1056C117.19 33.1056 116.842 33.1868 116.576 33.3432C116.309 33.4997 116.176 33.7546 116.176 34.1023C116.176 34.4499 116.321 34.6933 116.599 34.8381C116.883 34.983 117.311 35.1452 117.891 35.3191C118.07 35.3712 118.279 35.4407 118.522 35.5392C118.76 35.632 118.992 35.7652 119.218 35.9217C119.444 36.0839 119.629 36.2925 119.78 36.5532C119.93 36.814 120 37.1327 120 37.5209C120 37.8454 119.925 38.1814 119.768 38.5175C119.612 38.8536 119.334 39.1433 118.922 39.3751C118.517 39.6068 117.937 39.7227 117.184 39.7227L117.19 39.7053Z" fill="#011E41"/>
<path d="M12.6664 39.9545C9.23033 39.9545 6.32738 38.7203 3.78368 36.1824C1.23419 33.6329 0 30.73 0 27.2939C0 22.9077 1.88894 20.7464 3.71415 18.6546C5.20328 16.9511 6.61131 15.3345 7.09224 12.3678C7.64849 8.94918 6.45487 4.82364 5.73637 2.36106C5.63787 2.02499 5.55095 1.72369 5.48142 1.45715L7.71801 0.842957C7.78755 1.09791 7.87446 1.39342 7.96716 1.7121C8.73781 4.36589 10.0183 8.80433 9.38098 12.7387C8.78996 16.3601 7.0227 18.3881 5.45824 20.1785C3.7721 22.108 2.31772 23.7768 2.31772 27.2939C2.31772 30.1216 3.30277 32.4219 5.41189 34.5368C7.53261 36.6575 9.83293 37.6368 12.6606 37.6368C16.1777 37.6368 17.8465 36.1824 19.776 34.4963C21.5664 32.9318 23.5944 31.1645 27.2158 30.5735C31.1502 29.9361 35.5886 31.2225 38.2424 31.9873C38.5669 32.08 38.8566 32.1669 39.1115 32.2365L38.4973 34.4731C38.2308 34.3978 37.9295 34.3108 37.5934 34.2181C35.1309 33.5054 30.9995 32.3118 27.5867 32.8623C24.62 33.3432 23.0092 34.7512 21.2999 36.2403C19.2081 38.0656 17.0468 39.9545 12.6606 39.9545H12.6664Z" fill="#011E41"/>
<path d="M39.6157 32.5262C37.4949 30.4576 33.5432 26.6102 28.0155 26.0945C25.7846 25.8917 24.3535 26.054 22.1806 26.2973C20.8015 26.4538 19.0806 26.6508 16.5891 26.8188C15.8706 26.8652 14.6944 26.8188 13.3675 26.5986C13.1415 25.2717 13.0951 24.0955 13.1473 23.377C13.3153 20.8854 13.5123 19.1645 13.6688 17.7855C13.9121 15.6126 14.0744 14.1814 13.8716 11.9506C13.3617 6.42287 9.50847 2.47116 7.4399 0.350447C7.00533 -0.0957143 6.29842 -0.118892 5.83487 0.298298C4.45003 1.53828 -0.0695203 6.13316 0.00580562 13.0979C0.0869258 19.9526 4.57751 26.5001 10.4587 28.3253L11.3568 28.6035L11.635 29.5016C13.4602 35.377 20.0077 39.8734 26.8624 39.9545C26.9203 39.9545 26.9783 39.9545 27.0362 39.9545C33.9025 39.9545 38.4336 35.4987 39.662 34.1254C40.0792 33.6619 40.0502 32.955 39.6099 32.5204L39.6157 32.5262ZM2.32933 13.0689C2.27718 8.08004 4.98312 4.48758 6.58814 2.80144C8.50605 4.83524 11.1888 8.06846 11.5654 12.165C11.7451 14.1583 11.6118 15.3577 11.3626 17.5306C11.2062 18.9328 11.0034 20.6827 10.8296 23.2263C10.8064 23.5856 10.7658 24.6112 10.9396 26.0482C6.15935 24.4316 2.39886 18.7879 2.32933 13.0747V13.0689ZM26.8972 37.6368C21.184 37.5672 15.5403 33.8067 13.9237 29.0264C15.3549 29.2003 16.3863 29.1597 16.7455 29.1365C19.2892 28.9627 21.0333 28.7657 22.4413 28.6035C24.6142 28.3601 25.8078 28.221 27.8011 28.4007C31.8976 28.7773 35.1309 31.46 37.1647 33.378C35.4785 34.9772 31.8976 37.6889 26.8972 37.6368Z" fill="#0055B8"/>
</svg>
