<svg fill="#0055B8" id="Layer_1" enable-background="new 0 0 512 512" height="512" viewBox="0 0 512 512" width="512" xmlns="http://www.w3.org/2000/svg"><path d="m210.2 46.5c4.8-22.2 26.7-36.3 49-31.5 22.2 4.8 36.3 26.7 31.5 49-4.8 22.2-26.7 36.4-49 31.5-22.2-4.9-36.3-26.8-31.5-49zm25.5-14.1c-20.2 13-14.7 44.3 9 49.4 14.6 3.2 29.1-6.1 32.3-20.8s-6.1-29.1-20.8-32.3c-7.4-1.7-14.7-.1-20.5 3.7zm167.4 345.4c2.4-11.1 9.1-20.2 17.9-25.9 19.1-12.3 44.6-6.7 56.9 12.3 12.3 19.1 6.7 44.6-12.3 56.9-19.1 12.3-44.6 6.7-56.9-12.3-5.6-8.9-8-19.9-5.6-31zm25.5-14.2c-20.2 13-14.7 44.3 9 49.4 14.7 3.2 29.1-6 32.3-20.8 3.2-14.5-6.1-29.1-20.8-32.3-7.3-1.6-14.6-.1-20.5 3.7zm-411.4 14.2c2.4-11.1 9.1-20.2 17.9-25.9 19.1-12.3 44.6-6.7 56.9 12.3 12.3 19.1 6.7 44.6-12.3 56.9-19.1 12.3-44.6 6.7-56.9-12.3-5.6-8.9-8-19.9-5.6-31zm25.6-14.2c-20.3 13-14.7 44.3 9 49.4 14.6 3.2 29-6 32.3-20.8 3.2-14.5-6.1-29.1-20.8-32.3-7.4-1.6-14.7-.1-20.5 3.7zm186.5-85.6c-3.9 0-7-3.1-7-7s3.1-7 7-7h14.1v-21.1c0-3.9 3.1-7 7-7s7 3.1 7 7v28.1c0 3.9-3.1 7-7 7zm14.1-63.4c0-3.9 3.1-7 7-7s7 3.1 7 7v7.8c0 3.9-3.1 7-7 7s-7-3.1-7-7zm63.3 49.4c3.9 0 7 3.1 7 7s-3.1 7-7 7h-7.8c-3.9 0-7-3.1-7-7s3.1-7 7-7zm-112.6 13.9c-3.9 0-7-3.1-7-7s3.1-7 7-7h7.8c3.9 0 7 3.1 7 7s-3.1 7-7 7zm63.3 49.4c0 3.9-3.1 7-7 7s-7-3.1-7-7v-7.8c0-3.9 3.1-7 7-7s7 3.1 7 7zm-7-140.3c46.4 0 84 37.6 84 83.9 0 46.4-37.6 83.9-84 83.9-46.3 0-83.9-37.6-83.9-83.9s37.6-83.9 83.9-83.9zm49.5 34.5c-27.3-27.3-71.6-27.3-98.9 0s-27.3 71.6 0 98.9 71.6 27.3 98.9 0 27.3-71.6 0-98.9zm-71.8-103.3h44.6c3.9 0 7 3.1 7 7v23.4c12.9 3.1 25.3 8.2 36.5 15.1l16.6-16.5c2.7-2.7 7.1-2.7 9.9 0l31.5 31.5c2.7 2.7 2.7 7.1 0 9.9l-16.6 16.5c6.9 11.3 12.1 23.6 15.2 36.6h23.4c3.9 0 7 3.1 7 7v44.6c0 4-3.2 7.2-7.6 7h-22.8c-3.1 13-8.2 25.3-15.2 36.6l16.6 16.5c2.7 2.7 2.7 7.2 0 9.9l-31.5 31.5c-2.7 2.7-7.2 2.7-9.9 0l-16.6-16.5c-11.3 6.9-23.6 12-36.5 15.1v23.4c0 3.9-3.1 7-7 7h-44.6c-3.9 0-7-3.1-7-7v-23.4c-12.9-3.1-25.3-8.2-36.5-15.1l-16.6 16.5c-2.7 2.7-7.2 2.7-9.9 0l-31.5-31.5c-2.7-2.7-2.7-7.2 0-9.9l16.6-16.5c-6.9-11.3-12.1-23.6-15.2-36.6h-23.4c-3.9 0-7-3.1-7-7v-44.6c0-3.9 3.1-7 7-7h23.4c3.1-13 8.2-25.3 15.2-36.6l-16.6-16.5c-2.7-2.7-2.7-7.2 0-9.9l31.5-31.5c2.7-2.7 7.2-2.7 9.9 0l16.6 16.5c11.3-6.9 23.6-12 36.6-15.1v-23.4c0-3.9 3.1-7 6.9-7zm37.6 14h-30.6v21.6c.2 3.5-2.2 6.6-5.7 7.3-7.6 1.4-14.9 3.6-21.8 6.5s-13.5 6.4-19.7 10.6c-2.7 2.1-6.7 1.9-9.2-.6l-15.6-15.6-21.6 21.6 15.6 15.6c2.3 2.3 2.7 6.1.8 8.9-4.3 6.3-7.9 13-10.8 20-2.8 6.8-5 13.9-6.4 21.4-.4 3.5-3.3 6.2-6.9 6.2h-22v30.6h22c3.3 0 6.2 2.3 6.9 5.7 1.4 7.6 3.7 14.9 6.5 21.8 2.9 6.9 6.4 13.5 10.6 19.7 2.1 2.7 2 6.7-.6 9.2l-15.6 15.6 21.6 21.6 15.6-15.6c2.3-2.3 6-2.7 8.9-.8 6.3 4.3 13 7.9 20 10.8 6.8 2.8 13.9 5 21.3 6.4 3.5.4 6.2 3.4 6.2 6.9v22h30.6v-22c0-3.3 2.4-6.2 5.7-6.9 7.6-1.4 14.9-3.6 21.8-6.5s13.5-6.4 19.7-10.6c2.7-2.2 6.7-2 9.2.6l15.6 15.6 21.6-21.6-15.6-15.6c-2.4-2.3-2.7-6.1-.9-8.9 8.6-12.6 14.5-26.8 17.4-41.9.6-3.2 3.4-5.7 6.9-5.7h22v-30.6h-22c-3.3 0-6.2-2.3-6.9-5.7-1.4-7.6-3.7-14.9-6.5-21.8-2.9-6.9-6.4-13.5-10.6-19.7-2.1-2.7-2-6.7.6-9.2l15.6-15.6-21.6-21.5-15.6 15.6c-2.3 2.3-6 2.7-8.9.8-6.3-4.3-13-7.9-20-10.8-6.8-2.8-13.9-5-21.4-6.4-3.5-.4-6.2-3.4-6.2-6.9zm67-49.5c-3.5-1.5-5.2-5.6-3.7-9.1 1.5-3.6 5.6-5.2 9.1-3.7 51 21.5 91.8 61.1 114.9 110.1 15 31.8 22.3 66.8 21.2 102l8.5-14.7c1.9-3.3 6.2-4.5 9.5-2.5 3.3 1.9 4.5 6.2 2.6 9.5l-24.2 41.9c-2.9 5-10.1 4.5-12.4-.7l-19.5-44.3c-1.6-3.5.1-7.7 3.6-9.2 3.5-1.6 7.7 0 9.2 3.6l8.7 19.8c1.6-34.3-5.2-68.5-19.8-99.5-21.7-46-59.9-83-107.7-103.2zm-190.1 396.6c1.9 3.3.8 7.6-2.6 9.5-3.3 1.9-7.6.8-9.5-2.6l-24.2-41.9c-2.8-5 1.2-11 6.8-10.4l48.1 5.3c3.9.4 6.6 3.8 6.2 7.7-.4 3.8-3.8 6.6-7.7 6.2l-21.5-2.4c37.8 24.3 80.4 35 122.1 33.1 43.2-1.9 85.4-17.1 120.1-44.4 3-2.4 7.4-1.9 9.8 1.2 2.4 3 1.9 7.4-1.2 9.8-37 29.1-82 45.4-128.2 47.4-43.3 1.9-87.5-8.8-126.9-33.2zm-13.5-400.5c-3.9 0-7-3.1-7-7 0-3.8 3.1-7 7-7l48.4.1c5.8 0 9 6.5 5.6 11.1l-28.6 39c-2.3 3.1-6.6 3.8-9.8 1.5-3.1-2.3-3.8-6.7-1.5-9.8l12.8-17.5c-77.2 39.7-122 123.3-112 209.8.4 3.9-2.3 7.3-6.2 7.7-3.8.5-7.3-2.3-7.7-6.2-10.4-90.7 35.6-178.6 115.9-221.7z"/></svg>