<?xml version="1.0" encoding="UTF-8"?>
<!-- Generator: Adobe Illustrator 26.0.3, SVG Export Plug-In . SVG Version: 6.00 Build 0)  -->
<svg  fill="#0055B8" xmlns="http://www.w3.org/2000/svg" xmlns:xlink="http://www.w3.org/1999/xlink" version="1.1" id="Capa_1" x="0px" y="0px" viewBox="0 0 512 512" style="enable-background:new 0 0 512 512;" xml:space="preserve" width="512" height="512">
<g>
	<g>
		<path d="M386.384,195.373l0.872-1.743l-14.772-7.388l-0.872,1.745c-3.148,6.297-9.477,10.208-16.516,10.208    s-13.368-3.911-16.516-10.209l-0.872-1.743l-14.772,7.388l0.871,1.742c5.963,11.928,17.953,19.337,31.289,19.337    S380.422,207.3,386.384,195.373z"/>
		<rect x="346.839" y="148.645" width="16.516" height="33.032"/>
		<circle cx="322.065" cy="156.903" r="8.258"/>
		<circle cx="123.871" cy="272.516" r="8.258"/>
		<circle cx="156.903" cy="272.516" r="8.258"/>
		<circle cx="90.839" cy="272.516" r="8.258"/>
		<circle cx="388.129" cy="156.903" r="8.258"/>
		<path d="M449.41,261.485l-61.281-12.256v-3.38c21.414-6.931,37.158-25.526,40.585-47.656h0.705    c17.644,0,32.102-13.906,32.989-31.334l9.034-22.587c4.993-12.482,7.525-25.628,7.525-39.071C478.968,47.193,431.775,0,373.766,0    h-37.34c-46.53,0-86.095,30.368-99.933,72.323C216.899,29.684,173.789,0,123.871,0C55.569,0,0,55.569,0,123.871    s55.569,123.871,123.871,123.871c57.157,0,105.388-38.917,119.61-91.643l4.305,10.76c0.887,17.429,15.344,31.334,32.989,31.334    h0.705c3.427,22.131,19.17,40.726,40.585,47.656v3.38l-60.548,12.109c-24.48,4.896-44.469,20.994-55.07,42.274    c-4.386-3.928-10.173-6.323-16.511-6.323H90.839c-13.661,0-24.774,11.114-24.774,24.774v165.161    c0,13.66,11.113,24.774,24.774,24.774h346.149c18.742,0,35.162-12.659,39.931-30.782l32.517-123.569    c1.701-6.465,2.564-13.131,2.564-19.815C512,300.849,485.677,268.74,449.41,261.485z M342.554,286.071l-16.887,8.443    l-13.628-26.436l14.798-2.96L342.554,286.071z M353.514,330.323h3.165l21.235,99.097h-45.635L353.514,330.323z M358.251,313.806    h-6.308l-5.586-11.171l8.74-4.371l8.74,4.37L358.251,313.806z M367.64,286.072l15.715-20.953l14.815,2.963l-13.64,26.435    L367.64,286.072z M429.419,181.677v-33.032c9.107,0,16.516,7.41,16.516,16.516S438.526,181.677,429.419,181.677z M336.427,16.516    h37.34c48.9,0,88.684,39.784,88.684,88.685c0,11.333-2.134,22.414-6.343,32.936l-2.03,5.076    c-6.054-6.794-14.862-11.084-24.659-11.084v-1.42c9.611-3.409,16.516-12.588,16.516-23.354v-8.258h-16.516v8.258    c0,4.553-3.705,8.258-8.258,8.258c-4.553,0-8.258-3.705-8.258-8.258v-8.258h-16.516v8.258c0,4.553-3.705,8.258-8.258,8.258    c-4.553,0-8.258-3.705-8.258-8.258V91.841c0-14.213-11.563-25.777-25.777-25.777c-5.673,0-11.068,1.821-15.514,5.186    c-4.447-3.365-9.84-5.186-15.514-5.186c-14.213,0-25.777,11.563-25.777,25.777v15.514c0,4.553-3.705,8.258-8.258,8.258    c-4.553,0-8.258-3.705-8.258-8.258v-8.258h-16.516v8.258c0,10.765,6.905,19.945,16.516,23.354v1.42    c-9.796,0-18.604,4.29-24.659,11.085l-2.03-5.077c-4.209-10.523-6.343-21.604-6.343-32.937    C247.742,56.3,287.526,16.516,336.427,16.516z M193.943,182.265l-11.678,11.678l11.417,11.417    c-16.824,14.434-38.149,23.764-61.551,25.551V214.71h-16.516v16.201c-23.403-1.789-44.728-11.118-61.551-25.551l11.417-11.417    l-11.678-11.678l-11.417,11.417c-14.436-16.825-23.765-38.149-25.554-61.553h16.201v-16.516H16.831    C18.62,92.21,27.949,70.885,42.382,54.061l11.417,11.417L65.477,53.8L54.06,42.383C70.885,27.948,92.21,18.62,115.613,16.831    v16.201h16.516V16.831c23.403,1.789,44.728,11.118,61.551,25.551l-11.417,11.417l11.678,11.678l11.417-11.417    c14.435,16.825,23.764,38.149,25.553,61.553H214.71v16.516h16.201c-1.789,23.403-11.118,44.728-25.551,61.551L193.943,182.265z     M264.258,165.161c0-9.107,7.41-16.516,16.516-16.516v33.032C271.668,181.677,264.258,174.268,264.258,165.161z M297.29,189.118    v-58.409c9.611-3.409,16.516-12.588,16.516-23.354V91.841c0-5.106,4.154-9.26,9.26-9.26c2.473,0,4.799,0.963,6.548,2.712    l8.966,8.966l8.966-8.966c1.749-1.749,4.074-2.712,6.548-2.712c5.106,0,9.26,4.154,9.26,9.26v15.514    c0,13.661,11.113,24.774,24.774,24.774c6.34,0,12.13-2.397,16.516-6.329c2.383,2.137,5.182,3.817,8.258,4.907v58.409    c0,20.476-14.573,38.252-34.652,42.268l-6.638,1.329v20.534l-16.516,22.021l-16.516-22.021v-20.534l-6.638-1.327    C311.864,227.37,297.29,209.594,297.29,189.118z M264.755,277.535l30.439-6.088l23.267,45.135l13.122-6.561l6.572,13.146    l-22.766,106.252H257.95l-28.469-14.235c-2.986-1.492-6.33-2.281-9.668-2.281c-1.761,0-3.464,0.234-5.103,0.634v-74.956    C214.71,309.009,235.757,283.334,264.755,277.535z M166.577,495.484H90.839c-4.553,0-8.258-3.705-8.258-8.258V322.065    c0-4.553,3.705-8.258,8.258-8.258h99.097c4.553,0,8.258,3.705,8.258,8.258v107.355h-8.258c-13.661,0-24.774,11.114-24.774,24.774    v33.032C165.161,490.12,165.66,492.9,166.577,495.484z M181.677,487.226v-33.032c0-4.553,3.705-8.258,8.258-8.258h24.774v-11.413    c0-2.815,2.29-5.103,5.103-5.103c0.789,0,1.577,0.187,2.282,0.538l25.646,12.824v52.703h-57.806    C185.382,495.484,181.677,491.779,181.677,487.226z M493.464,353.445l-32.518,123.569c-2.861,10.876-12.713,18.47-23.958,18.47    h-172.73v-49.548h136.966l14.098,14.098L427,448.354l-13.08-13.08l31.698-110.94l-15.881-4.538l-31.321,109.623h-3.611    l-22.769-106.252l6.573-13.146l13.119,6.56l23.287-45.13l31.155,6.231c28.575,5.715,49.314,31.013,49.314,60.152    C495.484,343.1,494.805,348.353,493.464,353.445z"/>
		<path d="M140.387,363.355c-13.661,0-24.774,11.114-24.774,24.774c0,13.66,11.113,24.774,24.774,24.774    c13.661,0,24.774-11.114,24.774-24.774C165.161,374.469,154.048,363.355,140.387,363.355z M140.387,396.387    c-4.553,0-8.258-3.705-8.258-8.258c0-4.553,3.705-8.258,8.258-8.258c4.553,0,8.258,3.705,8.258,8.258    C148.645,392.682,144.94,396.387,140.387,396.387z"/>
		<path d="M167.58,68.483l-33.034,33.034c-0.783-0.376-1.591-0.708-2.417-1V49.548h-16.516v50.969    c-9.611,3.409-16.516,12.588-16.516,23.354c0,13.661,11.113,24.774,24.774,24.774s24.774-11.113,24.774-24.774    c0-3.82-0.87-7.441-2.421-10.675l33.034-33.034L167.58,68.483z M123.871,132.129c-4.553,0-8.258-3.705-8.258-8.258    s3.705-8.258,8.258-8.258s8.258,3.705,8.258,8.258S128.424,132.129,123.871,132.129z"/>
	</g>
</g>















</svg>
