<svg xmlns="http://www.w3.org/2000/svg" width="221.404" height="224.097" viewBox="0 0 221.404 224.097">
  <g id="address_icon" transform="translate(46.05 49.472)">
    <g id="BG_Shape" data-name="BG Shape" transform="matrix(0.966, -0.259, 0.259, 0.966, 98.776, -49.585)" fill="#e7eefa">
      <path d="M -45.71584320068359 185.3986206054688 C -92.19960784912109 185.3986206054688 -130.7923736572266 156.8454742431641 -144.0355224609375 112.6560668945312 C -149.551513671875 94.25032806396484 -143.23046875 70.34391784667969 -127.1266708374023 48.70635986328125 C -111.0189361572266 27.06350708007812 -89.18687438964844 13.61868286132812 -70.15034484863281 13.61868286132812 C -64.77928924560547 13.61868286132812 -59.62890243530273 14.65038967132568 -54.84228515625 16.68515396118164 C -29.53169822692871 27.44447708129883 -21.52784538269043 41.77680206298828 -13.05405044555664 56.95068359375 C -7.843432903289795 66.28121185302734 -2.455403327941895 75.92945098876953 7.63412618637085 86.01895141601562 C 21.92644882202148 100.3113021850586 25.95724296569824 123.2592163085938 17.90303802490234 144.4815063476562 C 8.828714370727539 168.3917999267578 -12.23458003997803 183.6056823730469 -38.4412841796875 185.1787109375 C -40.89652252197266 185.3260650634766 -43.32651901245117 185.3986206054688 -45.71584320068359 185.3986206054688 Z" stroke="none"/>
      <path d="M -70.15032958984375 19.61869812011719 C -106.7049102783203 19.61869812011719 -149.0440063476562 75.04341888427734 -138.2880706787109 110.9336013793945 C -126.2252883911133 151.1844940185547 -89.92198181152344 182.2579193115234 -38.80078887939453 179.1894989013672 C 12.32045745849609 176.1210327148438 30.71700286865234 117.5871047973633 3.391456604003906 90.26160430908203 C -23.93403625488281 62.93610382080078 -18.74432373046875 38.54971313476562 -57.18954086303711 22.20695495605469 C -61.35459899902344 20.43643188476562 -65.70893859863281 19.61869812011719 -70.15032958984375 19.61869812011719 M -70.15032958984375 7.61871337890625 C -63.96814727783203 7.61871337890625 -58.02803802490234 8.811309814453125 -52.49500274658203 11.16334533691406 C -25.29447174072266 22.72605895996094 -16.40872192382812 38.63760375976562 -7.815536499023438 54.02528381347656 C -2.804718017578125 62.99803161621094 2.376670837402344 72.2762451171875 11.87674713134766 81.77631378173828 C 27.83585357666016 97.73542022705078 32.40320587158203 123.1842803955078 23.51267242431641 146.6103820800781 C 13.72452545166016 172.4015350341797 -9.8770751953125 189.4749908447266 -38.081787109375 191.1679229736328 C -40.65843200683594 191.3225708007812 -43.20843505859375 191.3986358642578 -45.71578979492188 191.3986358642578 C -94.91229248046875 191.3986358642578 -135.7610778808594 161.1664276123047 -149.7829742431641 114.3784942626953 C -155.8407592773438 94.16506195068359 -149.1704711914062 68.27556610107422 -131.9399719238281 45.12413024902344 C -114.4614334106445 21.63941955566406 -91.36250305175781 7.61871337890625 -70.15032958984375 7.61871337890625 Z" stroke="none" fill="#fbfcff"/>
    </g>
    <g id="address_1_" data-name="address(1)" transform="translate(-5.715 -17.514)">
      <path id="Path_2984" data-name="Path 2984" d="M308.749,260a2.749,2.749,0,1,0,2.749,2.749A2.75,2.75,0,0,0,308.749,260Zm0,0" transform="translate(-221.888 -188.533)" fill="#0055b8"/>
      <path id="Path_2985" data-name="Path 2985" d="M28.084,101.644.6,136.278a2.749,2.749,0,0,0,2.153,4.457H137.987a2.749,2.749,0,0,0,2.153-4.457l-27.487-34.634a2.748,2.748,0,0,0-2.153-1.04H86.422l20.557-32.242a43.98,43.98,0,1,0-73.22,0L54.315,100.6H30.237a2.749,2.749,0,0,0-2.153,1.04ZM17.821,123.418h16.62l-9.38,11.82H8.44Zm40-17.317,7.535,11.82H45.823L55.2,106.1Zm25.1,0h2.617l9.38,11.82H75.382Zm16.36,17.317,9.38,11.82H32.079l9.381-11.82Zm16.4,11.82-9.381-11.82h16.621l9.38,11.82Zm2.877-17.317h-16.62L92.552,106.1h16.621ZM38.348,65.334a38.482,38.482,0,1,1,64.043,0c-.012.016-.021.032-.032.048-1.8,2.831-30.6,47.994-31.99,50.174L38.379,65.382c-.01-.016-.02-.032-.031-.048ZM48.185,106.1l-9.38,11.82H22.184l9.381-11.82Zm0,0" transform="translate(0)" fill="#0055b8"/>
      <path id="Path_2986" data-name="Path 2986" d="M183.487,114.975A27.487,27.487,0,1,0,156,87.487,27.49,27.49,0,0,0,183.487,114.975Zm0-49.477a21.99,21.99,0,1,1-21.99,21.99A22.014,22.014,0,0,1,183.487,65.5Zm0,0" transform="translate(-113.119 -43.508)" fill="#0055b8"/>
      <path id="Path_2987" data-name="Path 2987" d="M260.324,293.083a2.749,2.749,0,0,0-3.773.935l-10.16,16.855a2.749,2.749,0,0,0,4.708,2.838l10.16-16.855A2.748,2.748,0,0,0,260.324,293.083Zm0,0" transform="translate(-178.378 -212.236)" fill="#0055b8"/>
    </g>
  </g>
</svg>
