<svg xmlns="http://www.w3.org/2000/svg" width="140.735" height="140.736" viewBox="0 0 140.735 140.736">
  <g id="address_1_" data-name="address(1)" transform="translate(-0.001 0)">
    <path id="Path_2984" data-name="Path 2984" d="M308.749,260a2.749,2.749,0,1,0,2.749,2.749A2.75,2.75,0,0,0,308.749,260Zm0,0" transform="translate(-221.888 -188.533)" fill="#0055b8"/>
    <path id="Path_2985" data-name="Path 2985" d="M28.084,101.644.6,136.278a2.749,2.749,0,0,0,2.153,4.457H137.987a2.749,2.749,0,0,0,2.153-4.457l-27.487-34.634a2.748,2.748,0,0,0-2.153-1.04H86.422l20.557-32.242a43.98,43.98,0,1,0-73.22,0L54.315,100.6H30.237a2.749,2.749,0,0,0-2.153,1.04ZM17.821,123.418h16.62l-9.38,11.82H8.44Zm40-17.317,7.535,11.82H45.823L55.2,106.1Zm25.1,0h2.617l9.38,11.82H75.382Zm16.36,17.317,9.38,11.82H32.079l9.381-11.82Zm16.4,11.82-9.381-11.82h16.621l9.38,11.82Zm2.877-17.317h-16.62L92.552,106.1h16.621ZM38.348,65.334a38.482,38.482,0,1,1,64.043,0c-.012.016-.021.032-.032.048-1.8,2.831-30.6,47.994-31.99,50.174L38.379,65.382c-.01-.016-.02-.032-.031-.048ZM48.185,106.1l-9.38,11.82H22.184l9.381-11.82Zm0,0" transform="translate(0)" fill="#0055b8"/>
    <path id="Path_2986" data-name="Path 2986" d="M183.487,114.975A27.487,27.487,0,1,0,156,87.487,27.49,27.49,0,0,0,183.487,114.975Zm0-49.477a21.99,21.99,0,1,1-21.99,21.99A22.014,22.014,0,0,1,183.487,65.5Zm0,0" transform="translate(-113.119 -43.508)" fill="#0055b8"/>
    <path id="Path_2987" data-name="Path 2987" d="M260.324,293.083a2.749,2.749,0,0,0-3.773.935l-10.16,16.855a2.749,2.749,0,0,0,4.708,2.838l10.16-16.855A2.748,2.748,0,0,0,260.324,293.083Zm0,0" transform="translate(-178.378 -212.236)" fill="#0055b8"/>
  </g>
</svg>
