<svg xmlns="http://www.w3.org/2000/svg" xmlns:xlink="http://www.w3.org/1999/xlink" width="221.404" height="224.097" viewBox="0 0 221.404 224.097">
  <defs>
    <clipPath id="clip-path">
      <path id="path3228" d="M0-682.665H140.994v140.994H0Z" transform="translate(0 682.665)" fill="#0055b8" stroke="#0055b8" stroke-width="1"/>
    </clipPath>
  </defs>
  <g id="email_icon" transform="translate(46.05 47.472)">
    <g id="BG_Shape" data-name="BG Shape" transform="matrix(0.966, -0.259, 0.259, 0.966, 98.776, -47.585)" fill="#e7eefa">
      <path d="M -45.71584320068359 185.3986206054688 C -92.19960784912109 185.3986206054688 -130.7923736572266 156.8454742431641 -144.0355224609375 112.6560668945312 C -149.551513671875 94.25032806396484 -143.23046875 70.34391784667969 -127.1266708374023 48.70635986328125 C -111.0189361572266 27.06350708007812 -89.18687438964844 13.61868286132812 -70.15034484863281 13.61868286132812 C -64.77928924560547 13.61868286132812 -59.62890243530273 14.65038967132568 -54.84228515625 16.68515396118164 C -29.53169822692871 27.44447708129883 -21.52784538269043 41.77680206298828 -13.05405044555664 56.95068359375 C -7.843432903289795 66.28121185302734 -2.455403327941895 75.92945098876953 7.63412618637085 86.01895141601562 C 21.92644882202148 100.3113021850586 25.95724296569824 123.2592163085938 17.90303802490234 144.4815063476562 C 8.828714370727539 168.3917999267578 -12.23458003997803 183.6056823730469 -38.4412841796875 185.1787109375 C -40.89652252197266 185.3260650634766 -43.32651901245117 185.3986206054688 -45.71584320068359 185.3986206054688 Z" stroke="none"/>
      <path d="M -70.15032958984375 19.61869812011719 C -106.7049102783203 19.61869812011719 -149.0440063476562 75.04341888427734 -138.2880706787109 110.9336013793945 C -126.2252883911133 151.1844940185547 -89.92198181152344 182.2579193115234 -38.80078887939453 179.1894989013672 C 12.32045745849609 176.1210327148438 30.71700286865234 117.5871047973633 3.391456604003906 90.26160430908203 C -23.93403625488281 62.93610382080078 -18.74432373046875 38.54971313476562 -57.18954086303711 22.20695495605469 C -61.35459899902344 20.43643188476562 -65.70893859863281 19.61869812011719 -70.15032958984375 19.61869812011719 M -70.15032958984375 7.61871337890625 C -63.96814727783203 7.61871337890625 -58.02803802490234 8.811309814453125 -52.49500274658203 11.16334533691406 C -25.29447174072266 22.72605895996094 -16.40872192382812 38.63760375976562 -7.815536499023438 54.02528381347656 C -2.804718017578125 62.99803161621094 2.376670837402344 72.2762451171875 11.87674713134766 81.77631378173828 C 27.83585357666016 97.73542022705078 32.40320587158203 123.1842803955078 23.51267242431641 146.6103820800781 C 13.72452545166016 172.4015350341797 -9.8770751953125 189.4749908447266 -38.081787109375 191.1679229736328 C -40.65843200683594 191.3225708007812 -43.20843505859375 191.3986358642578 -45.71578979492188 191.3986358642578 C -94.91229248046875 191.3986358642578 -135.7610778808594 161.1664276123047 -149.7829742431641 114.3784942626953 C -155.8407592773438 94.16506195068359 -149.1704711914062 68.27556610107422 -131.9399719238281 45.12413024902344 C -114.4614334106445 21.63941955566406 -91.36250305175781 7.61871337890625 -70.15032958984375 7.61871337890625 Z" stroke="none" fill="#fbfcff"/>
    </g>
    <g id="g3222" transform="translate(-4.366 674.26)">
      <g id="g3224" transform="translate(0 -682.665)">
        <g id="g3226" clip-path="url(#clip-path)">
          <g id="g3232" transform="translate(45.262 -0.003)">
            <path id="path3234" d="M-185.959-82.807a2.059,2.059,0,0,1-1.447-.591l-18.609-18.264a4.694,4.694,0,0,0-6.288.056L-230.851-83.4a2.065,2.065,0,0,1-2.921-.027,2.065,2.065,0,0,1,.027-2.921l18.609-18.264a8.845,8.845,0,0,1,11.955-.056l18.669,18.32a2.065,2.065,0,0,1,.027,2.921A2.059,2.059,0,0,1-185.959-82.807Z" transform="translate(234.363 106.964)" fill="#0055b8" stroke="#0055b8" stroke-linecap="round" stroke-width="1"/>
          </g>
          <g id="g3236" transform="translate(118.193 54.697)">
            <path id="path3238" d="M-50.233,2.851a2.059,2.059,0,0,1-1.462-.606,2.065,2.065,0,0,1,0-2.921L-42.956-9.4a2.065,2.065,0,0,1,2.921,0,2.065,2.065,0,0,1,0,2.921l-8.736,8.721A2.059,2.059,0,0,1-50.233,2.851Z" transform="translate(52.299 10)" fill="#0055b8" stroke="#0055b8" stroke-linecap="round" stroke-width="1"/>
          </g>
          <g id="g3240" transform="translate(78.962 102.579)">
            <path id="path3242" d="M42.091,21.622a2.056,2.056,0,0,1-.993-.256L-8.931-6.126a2.065,2.065,0,0,1-.815-2.8,2.065,2.065,0,0,1,2.8-.815L43.088,17.746a2.066,2.066,0,0,1-1,3.876Z" transform="translate(10.002 10.002)" fill="#0055b8" stroke="#0055b8" stroke-linecap="round" stroke-width="1"/>
          </g>
          <g id="g3244" transform="translate(9.934 54.697)">
            <path id="path3246" d="M-41.5-39.373a2.059,2.059,0,0,1-1.459-.6L-51.692-48.7a2.065,2.065,0,0,1,0-2.921,2.065,2.065,0,0,1,2.921,0l8.736,8.721a2.065,2.065,0,0,1,0,2.921A2.059,2.059,0,0,1-41.5-39.373Z" transform="translate(52.299 52.224)" fill="#0055b8" stroke="#0055b8" stroke-linecap="round" stroke-width="1"/>
          </g>
          <g id="g3248" transform="translate(7.871 102.579)">
            <path id="path3250" d="M-250.164,21.622a2.065,2.065,0,0,1-1.812-1.071,2.065,2.065,0,0,1,.815-2.8l50.029-27.492a2.065,2.065,0,0,1,2.8.815,2.065,2.065,0,0,1-.815,2.8l-50.029,27.492A2.056,2.056,0,0,1-250.164,21.622Z" transform="translate(252.232 10.002)" fill="#0055b8" stroke="#0055b8" stroke-linecap="round" stroke-width="1"/>
          </g>
          <g id="g3252" transform="translate(99.916 46.123)">
            <path id="path3254" d="M14.349-354.476H-7.935A2.065,2.065,0,0,1-10-356.541a2.065,2.065,0,0,1,2.065-2.065H14.349a4.732,4.732,0,0,0,4.726-4.726v-70.461a4.848,4.848,0,0,0-1.443-3.439L8.9-445.808a2.065,2.065,0,0,1-.027-2.921,2.065,2.065,0,0,1,2.921-.027l8.736,8.574a9,9,0,0,1,2.681,6.387v70.461A8.867,8.867,0,0,1,14.349-354.476Z" transform="translate(10 449.347)" fill="#0055b8" stroke="#0055b8" stroke-linecap="round" stroke-width="1"/>
          </g>
          <g id="g3256" transform="translate(7.872 92.18)">
            <path id="path3258" d="M75.108,38.814H-1.143A8.867,8.867,0,0,1-10,29.957V-7.935A2.065,2.065,0,0,1-7.935-10,2.065,2.065,0,0,1-5.869-7.935V29.957a4.732,4.732,0,0,0,4.726,4.726H75.108a2.065,2.065,0,0,1,0,4.131Z" transform="translate(10 10)" fill="#0055b8" stroke="#0055b8" stroke-linecap="round" stroke-width="1"/>
          </g>
          <g id="g3260" transform="translate(7.872 46.123)">
            <path id="path3262" d="M-60.217,31.186a2.065,2.065,0,0,1-2.065-2.065V5.553A9,9,0,0,1-59.6-.834l8.736-8.574a2.065,2.065,0,0,1,2.921.027,2.065,2.065,0,0,1-.027,2.921l-8.736,8.574a4.848,4.848,0,0,0-1.443,3.439V29.121A2.065,2.065,0,0,1-60.217,31.186Z" transform="translate(62.283 10)" fill="#0055b8" stroke="#0055b8" stroke-linecap="round" stroke-width="1"/>
          </g>
          <g id="g3264" transform="translate(18.67 20.023)">
            <path id="path3266" d="M-450.577,19.635a2.064,2.064,0,0,1-1.46-.6L-491.267-20.13a2.065,2.065,0,0,1-.606-1.462V-58.1a8.96,8.96,0,0,1,8.95-8.95h85.754a8.96,8.96,0,0,1,8.95,8.95v4.9a2.065,2.065,0,0,1-2.065,2.065A2.065,2.065,0,0,1-392.35-53.2v-4.9a4.825,4.825,0,0,0-4.819-4.819h-85.754a4.825,4.825,0,0,0-4.819,4.819v35.654l37.528,37.462,5.9-3.243a8.813,8.813,0,0,1,8.531,0l5.9,3.243,37.528-37.462V-44.412a2.065,2.065,0,0,1,2.065-2.065,2.065,2.065,0,0,1,2.065,2.065v22.82a2.065,2.065,0,0,1-.606,1.462l-39.231,39.161a2.065,2.065,0,0,1-2.454.348l-7.26-3.989a4.7,4.7,0,0,0-4.552,0l-7.26,3.99A2.061,2.061,0,0,1-450.577,19.635Z" transform="translate(491.873 67.052)" fill="#0055b8" stroke="#0055b8" stroke-linecap="round" stroke-width="1"/>
          </g>
          <g id="g3268" transform="translate(59.841 45.305)">
            <path id="path3270" d="M-73.16-54.272c5.4,0,9.312,4.714,9.312,11.209,0,6.573-4.178,11.723-9.512,11.723-5.354,0-9.711-5.233-9.711-11.665C-83.07-50.058-78.032-54.272-73.16-54.272Zm-.2,18.8c2.967,0,5.381-3.406,5.381-7.592,0-4.168-2.131-7.078-5.182-7.078-2.841,0-5.779,2.669-5.779,7.136C-78.94-38.352-76.043-35.471-73.36-35.471Z" transform="translate(83.07 54.272)" fill="#0055b8" stroke="#0055b8" stroke-linecap="round" stroke-width="1"/>
          </g>
          <g id="g3272" transform="translate(49.806 35.952)">
            <path id="path3274" d="M-77.986-149.942h-.058A20.936,20.936,0,0,1-97.6-165.474,20.788,20.788,0,0,1-83.785-190.58a20.666,20.666,0,0,1,16.016,1.414,20.661,20.661,0,0,1,10.227,12.4,18.683,18.683,0,0,1-1.029,12.4,9.132,9.132,0,0,1-8.45,6.018,5.887,5.887,0,0,1-4.178-1.795,6.96,6.96,0,0,1-2-4.917l.081-16.445a2.065,2.065,0,0,1,2.076-2.055,2.065,2.065,0,0,1,2.055,2.076l-.081,16.445a2.841,2.841,0,0,0,.794,1.983,1.83,1.83,0,0,0,1.25.578,5.014,5.014,0,0,0,4.612-3.414c1.466-3.688,1.734-6.6.894-9.748a16.528,16.528,0,0,0-8.179-9.876,16.565,16.565,0,0,0-12.838-1.133A16.66,16.66,0,0,0-93.6-166.525,16.783,16.783,0,0,0-77.93-154.072a2.065,2.065,0,0,1,2.007,2.122A2.065,2.065,0,0,1-77.986-149.942Z" transform="translate(98.287 191.574)" fill="#0055b8" stroke="#0055b8" stroke-linecap="round" stroke-width="1"/>
          </g>
          <g id="g3276" transform="translate(85.536 49.292)">
            <path id="path3278" d="M-12.637,5.174a2.06,2.06,0,0,1-.763-.147,2.065,2.065,0,0,1-1.156-2.682c1.467-3.688,1.734-6.6.894-9.749A2.065,2.065,0,0,1-12.2-9.932,2.065,2.065,0,0,1-9.671-8.469c1.072,4.017.749,7.823-1.047,12.34A2.066,2.066,0,0,1-12.637,5.174Z" transform="translate(14.703 10.002)" fill="#0055b8" stroke="#0055b8" stroke-linecap="round" stroke-width="1"/>
          </g>
        </g>
      </g>
    </g>
  </g>
</svg>
