<svg xmlns="http://www.w3.org/2000/svg" xmlns:xlink="http://www.w3.org/1999/xlink" width="140.994" height="140.994" viewBox="0 0 140.994 140.994">
  <defs>
    <clipPath id="clip-path">
      <path id="path3228" d="M0-682.665H140.994v140.994H0Z" transform="translate(0 682.665)" fill="#0055b8" stroke="#0055b8" stroke-width="1"/>
    </clipPath>
  </defs>
  <g id="g3222" transform="translate(0 682.665)">
    <g id="g3224" transform="translate(0 -682.665)">
      <g id="g3226" clip-path="url(#clip-path)">
        <g id="g3232" transform="translate(45.262 -0.003)">
          <path id="path3234" d="M-185.959-82.807a2.059,2.059,0,0,1-1.447-.591l-18.609-18.264a4.694,4.694,0,0,0-6.288.056L-230.851-83.4a2.065,2.065,0,0,1-2.921-.027,2.065,2.065,0,0,1,.027-2.921l18.609-18.264a8.845,8.845,0,0,1,11.955-.056l18.669,18.32a2.065,2.065,0,0,1,.027,2.921A2.059,2.059,0,0,1-185.959-82.807Z" transform="translate(234.363 106.964)" fill="#0055b8" stroke="#0055b8" stroke-linecap="round" stroke-width="1"/>
        </g>
        <g id="g3236" transform="translate(118.193 54.697)">
          <path id="path3238" d="M-50.233,2.851a2.059,2.059,0,0,1-1.462-.606,2.065,2.065,0,0,1,0-2.921L-42.956-9.4a2.065,2.065,0,0,1,2.921,0,2.065,2.065,0,0,1,0,2.921l-8.736,8.721A2.059,2.059,0,0,1-50.233,2.851Z" transform="translate(52.299 10)" fill="#0055b8" stroke="#0055b8" stroke-linecap="round" stroke-width="1"/>
        </g>
        <g id="g3240" transform="translate(78.962 102.579)">
          <path id="path3242" d="M42.091,21.622a2.056,2.056,0,0,1-.993-.256L-8.931-6.126a2.065,2.065,0,0,1-.815-2.8,2.065,2.065,0,0,1,2.8-.815L43.088,17.746a2.066,2.066,0,0,1-1,3.876Z" transform="translate(10.002 10.002)" fill="#0055b8" stroke="#0055b8" stroke-linecap="round" stroke-width="1"/>
        </g>
        <g id="g3244" transform="translate(9.934 54.697)">
          <path id="path3246" d="M-41.5-39.373a2.059,2.059,0,0,1-1.459-.6L-51.692-48.7a2.065,2.065,0,0,1,0-2.921,2.065,2.065,0,0,1,2.921,0l8.736,8.721a2.065,2.065,0,0,1,0,2.921A2.059,2.059,0,0,1-41.5-39.373Z" transform="translate(52.299 52.224)" fill="#0055b8" stroke="#0055b8" stroke-linecap="round" stroke-width="1"/>
        </g>
        <g id="g3248" transform="translate(7.871 102.579)">
          <path id="path3250" d="M-250.164,21.622a2.065,2.065,0,0,1-1.812-1.071,2.065,2.065,0,0,1,.815-2.8l50.029-27.492a2.065,2.065,0,0,1,2.8.815,2.065,2.065,0,0,1-.815,2.8l-50.029,27.492A2.056,2.056,0,0,1-250.164,21.622Z" transform="translate(252.232 10.002)" fill="#0055b8" stroke="#0055b8" stroke-linecap="round" stroke-width="1"/>
        </g>
        <g id="g3252" transform="translate(99.916 46.123)">
          <path id="path3254" d="M14.349-354.476H-7.935A2.065,2.065,0,0,1-10-356.541a2.065,2.065,0,0,1,2.065-2.065H14.349a4.732,4.732,0,0,0,4.726-4.726v-70.461a4.848,4.848,0,0,0-1.443-3.439L8.9-445.808a2.065,2.065,0,0,1-.027-2.921,2.065,2.065,0,0,1,2.921-.027l8.736,8.574a9,9,0,0,1,2.681,6.387v70.461A8.867,8.867,0,0,1,14.349-354.476Z" transform="translate(10 449.347)" fill="#0055b8" stroke="#0055b8" stroke-linecap="round" stroke-width="1"/>
        </g>
        <g id="g3256" transform="translate(7.872 92.18)">
          <path id="path3258" d="M75.108,38.814H-1.143A8.867,8.867,0,0,1-10,29.957V-7.935A2.065,2.065,0,0,1-7.935-10,2.065,2.065,0,0,1-5.869-7.935V29.957a4.732,4.732,0,0,0,4.726,4.726H75.108a2.065,2.065,0,0,1,0,4.131Z" transform="translate(10 10)" fill="#0055b8" stroke="#0055b8" stroke-linecap="round" stroke-width="1"/>
        </g>
        <g id="g3260" transform="translate(7.872 46.123)">
          <path id="path3262" d="M-60.217,31.186a2.065,2.065,0,0,1-2.065-2.065V5.553A9,9,0,0,1-59.6-.834l8.736-8.574a2.065,2.065,0,0,1,2.921.027,2.065,2.065,0,0,1-.027,2.921l-8.736,8.574a4.848,4.848,0,0,0-1.443,3.439V29.121A2.065,2.065,0,0,1-60.217,31.186Z" transform="translate(62.283 10)" fill="#0055b8" stroke="#0055b8" stroke-linecap="round" stroke-width="1"/>
        </g>
        <g id="g3264" transform="translate(18.67 20.023)">
          <path id="path3266" d="M-450.577,19.635a2.064,2.064,0,0,1-1.46-.6L-491.267-20.13a2.065,2.065,0,0,1-.606-1.462V-58.1a8.96,8.96,0,0,1,8.95-8.95h85.754a8.96,8.96,0,0,1,8.95,8.95v4.9a2.065,2.065,0,0,1-2.065,2.065A2.065,2.065,0,0,1-392.35-53.2v-4.9a4.825,4.825,0,0,0-4.819-4.819h-85.754a4.825,4.825,0,0,0-4.819,4.819v35.654l37.528,37.462,5.9-3.243a8.813,8.813,0,0,1,8.531,0l5.9,3.243,37.528-37.462V-44.412a2.065,2.065,0,0,1,2.065-2.065,2.065,2.065,0,0,1,2.065,2.065v22.82a2.065,2.065,0,0,1-.606,1.462l-39.231,39.161a2.065,2.065,0,0,1-2.454.348l-7.26-3.989a4.7,4.7,0,0,0-4.552,0l-7.26,3.99A2.061,2.061,0,0,1-450.577,19.635Z" transform="translate(491.873 67.052)" fill="#0055b8" stroke="#0055b8" stroke-linecap="round" stroke-width="1"/>
        </g>
        <g id="g3268" transform="translate(59.841 45.305)">
          <path id="path3270" d="M-73.16-54.272c5.4,0,9.312,4.714,9.312,11.209,0,6.573-4.178,11.723-9.512,11.723-5.354,0-9.711-5.233-9.711-11.665C-83.07-50.058-78.032-54.272-73.16-54.272Zm-.2,18.8c2.967,0,5.381-3.406,5.381-7.592,0-4.168-2.131-7.078-5.182-7.078-2.841,0-5.779,2.669-5.779,7.136C-78.94-38.352-76.043-35.471-73.36-35.471Z" transform="translate(83.07 54.272)" fill="#0055b8" stroke="#0055b8" stroke-linecap="round" stroke-width="1"/>
        </g>
        <g id="g3272" transform="translate(49.806 35.952)">
          <path id="path3274" d="M-77.986-149.942h-.058A20.936,20.936,0,0,1-97.6-165.474,20.788,20.788,0,0,1-83.785-190.58a20.666,20.666,0,0,1,16.016,1.414,20.661,20.661,0,0,1,10.227,12.4,18.683,18.683,0,0,1-1.029,12.4,9.132,9.132,0,0,1-8.45,6.018,5.887,5.887,0,0,1-4.178-1.795,6.96,6.96,0,0,1-2-4.917l.081-16.445a2.065,2.065,0,0,1,2.076-2.055,2.065,2.065,0,0,1,2.055,2.076l-.081,16.445a2.841,2.841,0,0,0,.794,1.983,1.83,1.83,0,0,0,1.25.578,5.014,5.014,0,0,0,4.612-3.414c1.466-3.688,1.734-6.6.894-9.748a16.528,16.528,0,0,0-8.179-9.876,16.565,16.565,0,0,0-12.838-1.133A16.66,16.66,0,0,0-93.6-166.525,16.783,16.783,0,0,0-77.93-154.072a2.065,2.065,0,0,1,2.007,2.122A2.065,2.065,0,0,1-77.986-149.942Z" transform="translate(98.287 191.574)" fill="#0055b8" stroke="#0055b8" stroke-linecap="round" stroke-width="1"/>
        </g>
        <g id="g3276" transform="translate(85.536 49.292)">
          <path id="path3278" d="M-12.637,5.174a2.06,2.06,0,0,1-.763-.147,2.065,2.065,0,0,1-1.156-2.682c1.467-3.688,1.734-6.6.894-9.749A2.065,2.065,0,0,1-12.2-9.932,2.065,2.065,0,0,1-9.671-8.469c1.072,4.017.749,7.823-1.047,12.34A2.066,2.066,0,0,1-12.637,5.174Z" transform="translate(14.703 10.002)" fill="#0055b8" stroke="#0055b8" stroke-linecap="round" stroke-width="1"/>
        </g>
      </g>
    </g>
  </g>
</svg>
