<svg xmlns="http://www.w3.org/2000/svg" width="221.404" height="224.097" viewBox="0 0 221.404 224.097">
  <g id="phone_icon" transform="translate(46.05 47.472)">
    <g id="BG_Shape" data-name="BG Shape" transform="matrix(0.966, -0.259, 0.259, 0.966, 98.776, -47.585)" fill="#e7eefa">
      <path d="M -45.71584320068359 185.3986206054688 C -92.19960784912109 185.3986206054688 -130.7923736572266 156.8454742431641 -144.0355224609375 112.6560668945312 C -149.551513671875 94.25032806396484 -143.23046875 70.34391784667969 -127.1266708374023 48.70635986328125 C -111.0189361572266 27.06350708007812 -89.18687438964844 13.61868286132812 -70.15034484863281 13.61868286132812 C -64.77928924560547 13.61868286132812 -59.62890243530273 14.65038967132568 -54.84228515625 16.68515396118164 C -29.53169822692871 27.44447708129883 -21.52784538269043 41.77680206298828 -13.05405044555664 56.95068359375 C -7.843432903289795 66.28121185302734 -2.455403327941895 75.92945098876953 7.63412618637085 86.01895141601562 C 21.92644882202148 100.3113021850586 25.95724296569824 123.2592163085938 17.90303802490234 144.4815063476562 C 8.828714370727539 168.3917999267578 -12.23458003997803 183.6056823730469 -38.4412841796875 185.1787109375 C -40.89652252197266 185.3260650634766 -43.32651901245117 185.3986206054688 -45.71584320068359 185.3986206054688 Z" stroke="none"/>
      <path d="M -70.15032958984375 19.61869812011719 C -106.7049102783203 19.61869812011719 -149.0440063476562 75.04341888427734 -138.2880706787109 110.9336013793945 C -126.2252883911133 151.1844940185547 -89.92198181152344 182.2579193115234 -38.80078887939453 179.1894989013672 C 12.32045745849609 176.1210327148438 30.71700286865234 117.5871047973633 3.391456604003906 90.26160430908203 C -23.93403625488281 62.93610382080078 -18.74432373046875 38.54971313476562 -57.18954086303711 22.20695495605469 C -61.35459899902344 20.43643188476562 -65.70893859863281 19.61869812011719 -70.15032958984375 19.61869812011719 M -70.15032958984375 7.61871337890625 C -63.96814727783203 7.61871337890625 -58.02803802490234 8.811309814453125 -52.49500274658203 11.16334533691406 C -25.29447174072266 22.72605895996094 -16.40872192382812 38.63760375976562 -7.815536499023438 54.02528381347656 C -2.804718017578125 62.99803161621094 2.376670837402344 72.2762451171875 11.87674713134766 81.77631378173828 C 27.83585357666016 97.73542022705078 32.40320587158203 123.1842803955078 23.51267242431641 146.6103820800781 C 13.72452545166016 172.4015350341797 -9.8770751953125 189.4749908447266 -38.081787109375 191.1679229736328 C -40.65843200683594 191.3225708007812 -43.20843505859375 191.3986358642578 -45.71578979492188 191.3986358642578 C -94.91229248046875 191.3986358642578 -135.7610778808594 161.1664276123047 -149.7829742431641 114.3784942626953 C -155.8407592773438 94.16506195068359 -149.1704711914062 68.27556610107422 -131.9399719238281 45.12413024902344 C -114.4614334106445 21.63941955566406 -91.36250305175781 7.61871337890625 -70.15032958984375 7.61871337890625 Z" stroke="none" fill="#fbfcff"/>
    </g>
    <g id="phone-call_1_" data-name="phone-call(1)" transform="translate(-15.411 -8.968)">
      <path id="Path_2988" data-name="Path 2988" d="M305.39,40H259.746A13.765,13.765,0,0,0,246,53.748v25.3a13.766,13.766,0,0,0,13.749,13.749h24.2V100.8a2.75,2.75,0,0,0,4.691,1.948l9.991-9.954h6.766a13.765,13.765,0,0,0,13.748-13.749v-25.3A13.764,13.764,0,0,0,305.39,40Zm8.249,39.045a8.259,8.259,0,0,1-8.249,8.25h-7.9a2.751,2.751,0,0,0-1.941.8l-6.105,6.083V90.045a2.749,2.749,0,0,0-2.75-2.75H259.746a8.259,8.259,0,0,1-8.249-8.25v-25.3a8.258,8.258,0,0,1,8.249-8.249H305.39a8.258,8.258,0,0,1,8.249,8.249Zm0,0" transform="translate(-178.356 -29.002)" fill="#0055b8"/>
      <path id="Path_2989" data-name="Path 2989" d="M124.011,87.247a20.036,20.036,0,0,0-28.3,0l-7.344,7.342a7.686,7.686,0,0,1-10.412.469A254.327,254.327,0,0,1,45.723,62.831a7.686,7.686,0,0,1,.469-10.412l7.344-7.344a20.038,20.038,0,0,0,0-28.3L42.627,5.861a20.016,20.016,0,0,0-28.3,0A48.905,48.905,0,0,0,9.005,68.724a264.79,264.79,0,0,0,63.052,63.052,48.97,48.97,0,0,0,28.3,9.006c1.366,0,2.738-.057,4.107-.173a48.964,48.964,0,0,0,30.459-14.15,20.013,20.013,0,0,0,0-28.3ZM75.238,127.29A259.3,259.3,0,0,1,13.492,65.544,43.3,43.3,0,0,1,18.211,9.75a14.515,14.515,0,0,1,20.527,0L49.647,20.66a14.513,14.513,0,0,1,0,20.526l-.453.454L31.272,23.719a2.75,2.75,0,0,0-3.888,3.889L45.3,45.528l-3,3a13.161,13.161,0,0,0-.8,17.826A259.82,259.82,0,0,0,74.427,99.281a13.161,13.161,0,0,0,17.826-.8l3-3,31.13,31.13a43.283,43.283,0,0,1-51.146.682Zm55.793-4.72c-.155.155-.311.306-.467.458-.053-.062-.106-.124-.165-.183L99.142,91.59l.454-.454a14.513,14.513,0,0,1,20.526,0l10.91,10.91a14.513,14.513,0,0,1,0,20.526Zm0,0" transform="translate(0)" fill="#0055b8"/>
      <path id="Path_2990" data-name="Path 2990" d="M72.054,55.98A2.75,2.75,0,1,0,74,56.786,2.76,2.76,0,0,0,72.054,55.98Zm0,0" transform="translate(-50.249 -40.588)" fill="#0055b8"/>
      <path id="Path_2991" data-name="Path 2991" d="M162.922,323.83c-5.633-5.012-11.1-10.344-16.248-15.847a2.749,2.749,0,1,0-4.016,3.756c5.263,5.627,10.85,11.077,16.608,16.2a2.75,2.75,0,1,0,3.656-4.108Zm0,0" transform="translate(-102.895 -222.666)" fill="#0055b8"/>
      <path id="Path_2992" data-name="Path 2992" d="M120.5,278.747a2.75,2.75,0,1,0-4.147,3.612l.033.039a2.725,2.725,0,0,0,2.067.944,2.754,2.754,0,0,0,2.075-4.563Zm0,0" transform="translate(-83.876 -201.414)" fill="#0055b8"/>
      <path id="Path_2993" data-name="Path 2993" d="M420.25,126a2.75,2.75,0,1,0,1.944.806A2.772,2.772,0,0,0,420.25,126Zm0,0" transform="translate(-302.702 -91.354)" fill="#0055b8"/>
      <path id="Path_2994" data-name="Path 2994" d="M371.809,126a2.75,2.75,0,1,0,1.944.806A2.771,2.771,0,0,0,371.809,126Zm0,0" transform="translate(-267.581 -91.354)" fill="#0055b8"/>
      <path id="Path_2995" data-name="Path 2995" d="M323.379,126a2.75,2.75,0,1,0,1.944.806A2.766,2.766,0,0,0,323.379,126Zm0,0" transform="translate(-232.467 -91.354)" fill="#0055b8"/>
    </g>
  </g>
</svg>
