<svg xmlns="http://www.w3.org/2000/svg" width="140.783" height="140.783" viewBox="0 0 140.783 140.783">
  <g id="phone-call_1_" data-name="phone-call(1)" transform="translate(0.001 0)">
    <path id="Path_2988" data-name="Path 2988" d="M305.39,40H259.746A13.765,13.765,0,0,0,246,53.748v25.3a13.766,13.766,0,0,0,13.749,13.749h24.2V100.8a2.75,2.75,0,0,0,4.691,1.948l9.991-9.954h6.766a13.765,13.765,0,0,0,13.748-13.749v-25.3A13.764,13.764,0,0,0,305.39,40Zm8.249,39.045a8.259,8.259,0,0,1-8.249,8.25h-7.9a2.751,2.751,0,0,0-1.941.8l-6.105,6.083V90.045a2.749,2.749,0,0,0-2.75-2.75H259.746a8.259,8.259,0,0,1-8.249-8.25v-25.3a8.258,8.258,0,0,1,8.249-8.249H305.39a8.258,8.258,0,0,1,8.249,8.249Zm0,0" transform="translate(-178.356 -29.002)" fill="#0055b8"/>
    <path id="Path_2989" data-name="Path 2989" d="M124.011,87.247a20.036,20.036,0,0,0-28.3,0l-7.344,7.342a7.686,7.686,0,0,1-10.412.469A254.327,254.327,0,0,1,45.723,62.831a7.686,7.686,0,0,1,.469-10.412l7.344-7.344a20.038,20.038,0,0,0,0-28.3L42.627,5.861a20.016,20.016,0,0,0-28.3,0A48.905,48.905,0,0,0,9.005,68.724a264.79,264.79,0,0,0,63.052,63.052,48.97,48.97,0,0,0,28.3,9.006c1.366,0,2.738-.057,4.107-.173a48.964,48.964,0,0,0,30.459-14.15,20.013,20.013,0,0,0,0-28.3ZM75.238,127.29A259.3,259.3,0,0,1,13.492,65.544,43.3,43.3,0,0,1,18.211,9.75a14.515,14.515,0,0,1,20.527,0L49.647,20.66a14.513,14.513,0,0,1,0,20.526l-.453.454L31.272,23.719a2.75,2.75,0,0,0-3.888,3.889L45.3,45.528l-3,3a13.161,13.161,0,0,0-.8,17.826A259.82,259.82,0,0,0,74.427,99.281a13.161,13.161,0,0,0,17.826-.8l3-3,31.13,31.13a43.283,43.283,0,0,1-51.146.682Zm55.793-4.72c-.155.155-.311.306-.467.458-.053-.062-.106-.124-.165-.183L99.142,91.59l.454-.454a14.513,14.513,0,0,1,20.526,0l10.91,10.91a14.513,14.513,0,0,1,0,20.526Zm0,0" transform="translate(0)" fill="#0055b8"/>
    <path id="Path_2990" data-name="Path 2990" d="M72.054,55.98A2.75,2.75,0,1,0,74,56.786,2.76,2.76,0,0,0,72.054,55.98Zm0,0" transform="translate(-50.249 -40.588)" fill="#0055b8"/>
    <path id="Path_2991" data-name="Path 2991" d="M162.922,323.83c-5.633-5.012-11.1-10.344-16.248-15.847a2.749,2.749,0,1,0-4.016,3.756c5.263,5.627,10.85,11.077,16.608,16.2a2.75,2.75,0,1,0,3.656-4.108Zm0,0" transform="translate(-102.895 -222.666)" fill="#0055b8"/>
    <path id="Path_2992" data-name="Path 2992" d="M120.5,278.747a2.75,2.75,0,1,0-4.147,3.612l.033.039a2.725,2.725,0,0,0,2.067.944,2.754,2.754,0,0,0,2.075-4.563Zm0,0" transform="translate(-83.876 -201.414)" fill="#0055b8"/>
    <path id="Path_2993" data-name="Path 2993" d="M420.25,126a2.75,2.75,0,1,0,1.944.806A2.772,2.772,0,0,0,420.25,126Zm0,0" transform="translate(-302.702 -91.354)" fill="#0055b8"/>
    <path id="Path_2994" data-name="Path 2994" d="M371.809,126a2.75,2.75,0,1,0,1.944.806A2.771,2.771,0,0,0,371.809,126Zm0,0" transform="translate(-267.581 -91.354)" fill="#0055b8"/>
    <path id="Path_2995" data-name="Path 2995" d="M323.379,126a2.75,2.75,0,1,0,1.944.806A2.766,2.766,0,0,0,323.379,126Zm0,0" transform="translate(-232.467 -91.354)" fill="#0055b8"/>
  </g>
</svg>
