<svg id="calendar_icon" xmlns="http://www.w3.org/2000/svg" width="18" height="18" viewBox="0 0 18 18">
  <path id="Path_3294" data-name="Path 3294" d="M0,0H1.5V1.5H0Z" transform="translate(8 8)" fill="#8ca7c6"/>
  <path id="Path_3285" data-name="Path 3285" d="M15.891,1.406h-.844V0H13.641V1.406H4.359V0H2.953V1.406H2.109A2.112,2.112,0,0,0,0,3.516V15.891A2.112,2.112,0,0,0,2.109,18H9.343a6.2,6.2,0,0,1-1.254-1.406H2.109a.7.7,0,0,1-.7-.7V6.609H16.594v1.48A6.2,6.2,0,0,1,18,9.343V3.516A2.112,2.112,0,0,0,15.891,1.406Zm.7,3.8H1.406V3.516a.7.7,0,0,1,.7-.7h.844V4.219H4.359V2.813h9.281V4.219h1.406V2.813h.844a.7.7,0,0,1,.7.7Z" fill="#8ca7c6"/>
  <path id="Path_3286" data-name="Path 3286" d="M246.746,242a4.746,4.746,0,1,0,4.746,4.746A4.751,4.751,0,0,0,246.746,242Zm0,8.086a3.34,3.34,0,1,1,3.34-3.34A3.344,3.344,0,0,1,246.746,250.086Z" transform="translate(-233.492 -233.492)" fill="#8ca7c6"/>
  <path id="Path_3287" data-name="Path 3287" d="M357.406,310H356v3.059h2.6v-1.406h-1.2Z" transform="translate(-344.047 -298.529)" fill="#8ca7c6"/>
  <path id="Path_3293" data-name="Path 3293" d="M0,0H1.5V1.5H0Z" transform="translate(5 11)" fill="#8ca7c6"/>
  <path id="Path_3292" data-name="Path 3292" d="M0,0H1.5V1.5H0Z" transform="translate(2 11)" fill="#8ca7c6"/>
  <path id="Path_3291" data-name="Path 3291" d="M0,0H1.5V1.5H0Z" transform="translate(2 8)" fill="#8ca7c6"/>
  <path id="Path_3288" data-name="Path 3288" d="M0,0H1.5V1.5H0Z" transform="translate(2 14)" fill="#8ca7c6"/>
  <path id="Path_3290" data-name="Path 3290" d="M0,0H1.5V1.5H0Z" transform="translate(5 8)" fill="#8ca7c6"/>
  <path id="Path_3289" data-name="Path 3289" d="M0,0H1.5V1.5H0Z" transform="translate(5 14)" fill="#8ca7c6"/>
</svg>
