<svg xmlns="http://www.w3.org/2000/svg" width="18" height="17.98" viewBox="0 0 18 17.98">
  <g id="job_type_icon" data-name="job type_icon" transform="translate(-9.336 -9.361)">
    <path id="Path_3295" data-name="Path 3295" d="M30.425,17.563a.4.4,0,0,0,.4-.4v-.635a.4.4,0,0,0-.794,0v.635A.4.4,0,0,0,30.425,17.563Z" transform="translate(-12.475 -4.083)" fill="#8ca7c6"/>
    <path id="Path_3296" data-name="Path 3296" d="M20.783,21.331a.4.4,0,1,0,.562-.562l-.449-.449a.4.4,0,0,0-.562.562Z" transform="translate(-6.56 -6.538)" fill="#8ca7c6"/>
    <path id="Path_3297" data-name="Path 3297" d="M17.191,30.02h-.635a.4.4,0,0,0,0,.794h.635a.4.4,0,0,0,0-.794Z" transform="translate(-4.113 -12.455)" fill="#8ca7c6"/>
    <path id="Path_3298" data-name="Path 3298" d="M20.795,38.816l-.449.449a.4.4,0,1,0,.562.562l.449-.449a.4.4,0,1,0-.562-.562Z" transform="translate(-6.568 -17.688)" fill="#8ca7c6"/>
    <path id="Path_3299" data-name="Path 3299" d="M30.442,42.291a.4.4,0,0,0-.4.4v.635a.4.4,0,0,0,.794,0v-.635A.4.4,0,0,0,30.442,42.291Z" transform="translate(-12.485 -19.853)" fill="#8ca7c6"/>
    <path id="Path_3300" data-name="Path 3300" d="M42.712,30.8h.635a.4.4,0,1,0,0-.794h-.635a.4.4,0,1,0,0,.794Z" transform="translate(-19.883 -12.445)" fill="#8ca7c6"/>
    <path id="Path_3301" data-name="Path 3301" d="M39.11,21.436a.4.4,0,0,0,.281-.116l.449-.449a.4.4,0,0,0-.562-.562l-.449.449a.4.4,0,0,0,.281.678Z" transform="translate(-17.711 -6.53)" fill="#8ca7c6"/>
    <path id="Path_3302" data-name="Path 3302" d="M27.43,23.8V21.587a.4.4,0,0,0-.794,0V23.8a1.35,1.35,0,0,0-.955,1.286,1.333,1.333,0,0,0,.162.629l-1.33,1.33a.4.4,0,1,0,.562.562l1.33-1.33a1.336,1.336,0,0,0,.629.162,1.349,1.349,0,0,0,.4-2.639Zm-.4,1.845a.558.558,0,1,1,.558-.558A.559.559,0,0,1,27.033,25.648Z" transform="translate(-9.08 -7.132)" fill="#8ca7c6"/>
    <path id="Path_3303" data-name="Path 3303" d="M26.23,20.325a8.5,8.5,0,0,0,.333-2.351,8.637,8.637,0,1,0-6.234,8.268,4.182,4.182,0,0,0,5.9-5.917Zm-16.1-2.351a7.819,7.819,0,1,1,15.638,0,7.748,7.748,0,0,1-.2,1.764,4.2,4.2,0,0,0-.726-.415,7.024,7.024,0,1,0-6.892,5.671,6.871,6.871,0,0,0,1.374-.138,4.157,4.157,0,0,0,.417.725,7.82,7.82,0,0,1-9.61-7.607Zm8.827,5.178a4.185,4.185,0,0,0,.112.947,6.107,6.107,0,0,1-1.12.1,6.231,6.231,0,1,1,6.133-5.13,4.177,4.177,0,0,0-5.124,4.08Zm4.189,3.4a3.395,3.395,0,1,1,3.395-3.395A3.4,3.4,0,0,1,23.147,26.547Z" transform="translate(0 0)" fill="#8ca7c6"/>
    <path id="Path_3304" data-name="Path 3304" d="M42.5,39.445h-.587v-.428a.812.812,0,0,0-.811-.811H39.994a.812.812,0,0,0-.811.811v.428H38.6a.4.4,0,0,0-.4.4v2.284a.4.4,0,0,0,.4.4h3.9a.4.4,0,0,0,.4-.4V39.842A.4.4,0,0,0,42.5,39.445ZM39.994,39l1.124.016v.428H39.986ZM42.1,41.729H38.994v-1.49H42.1Z" transform="translate(-17.401 -17.39)" fill="#8ca7c6"/>
  </g>
</svg>
