<svg xmlns="http://www.w3.org/2000/svg" width="193.266" height="128.001" viewBox="0 0 193.266 128.001">
  <path id="asp.net" d="M112.062,174.812a48.4,48.4,0,0,1,.469,8.21v30.634h-8.444V183.35a22.759,22.759,0,0,0-.985-7.717,8.119,8.119,0,0,0-3.5-4.082,11.133,11.133,0,0,0-5.888-1.525,13.682,13.682,0,0,0-9.312,3.425q-3.917,3.425-3.917,12.995v27.209H72.046V163.834h7.6v7.084q5.489-8.21,15.856-8.21a20.8,20.8,0,0,1,8.28,1.618,13.022,13.022,0,0,1,5.653,4.246A16.308,16.308,0,0,1,112.062,174.812Zm81.7,39.15a31.322,31.322,0,0,1-6.38.75,14.442,14.442,0,0,1-7.131-1.454,8.146,8.146,0,0,1-3.565-3.823q-1.032-2.367-1.032-9.969V169.383H157.324c.042.045.089.083.131.128q6.334,6.8,6.334,19.14,0,.75-.047,2.251H126.586q.469,8.21,4.644,12.573a13.824,13.824,0,0,0,10.415,4.363,12.919,12.919,0,0,0,7.928-2.439q3.284-2.439,5.208-7.787l8.726,1.079a21.29,21.29,0,0,1-7.647,11.869q-5.583,4.223-14.262,4.222-10.931,0-17.334-6.732t-6.4-18.883q0-12.573,6.474-19.516t16.795-6.943q1.248,0,2.441.106h32.087V152.006h8.4v10.809h8.491v6.568h-8.491v30.553a14.726,14.726,0,0,0,.446,4.644,3.514,3.514,0,0,0,1.455,1.642,5.616,5.616,0,0,0,2.885.61,27.477,27.477,0,0,0,3.706-.329Zm-38.891-30q-.563-6.286-3.19-9.43a12.941,12.941,0,0,0-10.462-4.879,13.415,13.415,0,0,0-9.781,3.894,15.412,15.412,0,0,0-4.386,10.415ZM60.023,203.512a5.193,5.193,0,0,0-3.888,1.647,5.751,5.751,0,0,0,0,7.95,5.184,5.184,0,0,0,3.888,1.674,5.635,5.635,0,0,0,0-11.271Zm54.147-48.5Q107.6,157.9,97.61,157.9q-17.546,0-24.3-6.756c-.019-.019-.036-.039-.055-.057l2.119,5.64H53.119l-3.442-11.353H25.552L22.2,156.728H.5L26.349,87.954H49.53L66.8,133.9l19.085-1.2a15.424,15.424,0,0,0,2.674,7.506q3.284,4.176,9.383,4.175,4.55,0,7.014-2.135a6.4,6.4,0,0,0,2.463-4.949,6.312,6.312,0,0,0-2.346-4.785q-2.346-2.112-10.884-3.988-13.98-3.142-19.938-8.35a16.794,16.794,0,0,1-6-13.277,18.03,18.03,0,0,1,3.073-10.016,20.386,20.386,0,0,1,9.242-7.412q6.169-2.7,16.912-2.7,13.183,0,20.1,4.9t8.233,15.6l-20.032,1.173q-.8-4.645-3.354-6.756a10.772,10.772,0,0,0-7.06-2.111,8.521,8.521,0,0,0-5.583,1.571,4.816,4.816,0,0,0-1.876,3.823,3.826,3.826,0,0,0,1.548,2.955q1.5,1.362,7.131,2.533,13.933,3,19.961,6.075a20.985,20.985,0,0,1,8.773,7.623,18.728,18.728,0,0,1,2.088,4.947V87.954h35.325q11.54,0,17.287,5.489t5.747,15.622q0,10.414-6.263,16.279t-19.117,5.864H148.746v25.521H127.4v-16.97a22.133,22.133,0,0,1-3,6.79A22.9,22.9,0,0,1,114.17,155.016Zm34.575-37.741h5.208q6.145,0,8.632-2.135a6.877,6.877,0,0,0,2.486-5.465,7.638,7.638,0,0,0-2.158-5.489q-2.158-2.252-8.116-2.252h-6.052v15.341ZM45.269,130.5l-7.591-24.723L30.166,130.5Z" transform="translate(-0.5 -86.781)"/>
</svg>
