<svg id="c_" data-name="c#" xmlns="http://www.w3.org/2000/svg" width="113.889" height="128.001" viewBox="0 0 113.889 128.001">
  <path id="Path_3225" data-name="Path 3225" d="M113.883,37.632a11.3,11.3,0,0,0-1.392-5.686,10.871,10.871,0,0,0-4.12-4.014Q85.628,14.818,62.875,1.723a11.169,11.169,0,0,0-12.1.12C44.736,5.4,14.522,22.712,5.519,27.927a10.517,10.517,0,0,0-5.513,9.7Q0,64,0,90.372A11.342,11.342,0,0,0,1.331,95.95a10.836,10.836,0,0,0,4.182,4.124c9,5.215,39.222,22.524,45.256,26.084a11.171,11.171,0,0,0,12.107.12q22.736-13.127,45.5-26.21a10.84,10.84,0,0,0,4.182-4.123,11.358,11.358,0,0,0,1.331-5.578s0-35.153-.006-52.735" transform="translate(0 0)" fill="#a179dc"/>
  <path id="Path_3226" data-name="Path 3226" d="M58.775,143.241,2.988,175.362a10.836,10.836,0,0,0,4.182,4.124c9,5.215,39.222,22.524,45.256,26.084a11.171,11.171,0,0,0,12.107.12q22.736-13.127,45.5-26.21a10.84,10.84,0,0,0,4.182-4.123Z" transform="translate(-1.657 -79.412)" fill="#280068"/>
  <path id="Path_3227" data-name="Path 3227" d="M184.946,77.378a11.3,11.3,0,0,0-1.392-5.686l-55.372,31.883,55.439,32.116a11.368,11.368,0,0,0,1.331-5.578s0-35.153-.006-52.735" transform="translate(-71.064 -39.746)" fill="#390091"/>
  <g id="Group_1450" data-name="Group 1450" transform="translate(14.908 21.668)">
    <path id="Path_3228" data-name="Path 3228" d="M190.688,116.294v6h6v-6h3v6h6v3h-6v6h6v3h-6v6h-3v-6h-6v6h-3v-6h-6v-3h6v-6h-6v-3h6v-6Zm6,9.006h-6v6h6Z" transform="translate(-115.632 -86.14)" fill="#fff"/>
    <path id="Path_3229" data-name="Path 3229" d="M75.789,48.625a42.317,42.317,0,0,1,36.656,21.147l-.071-.122L93.948,80.259a21.068,21.068,0,0,0-17.919-10.38h-.241a21.08,21.08,0,1,0,18.369,31.416l-.088.154,18.4,10.658A42.319,42.319,0,0,1,76.26,133.288l-.471,0a42.333,42.333,0,0,1,0-84.665Z" transform="translate(-33.456 -48.625)" fill="#fff"/>
  </g>
</svg>
