<svg xmlns="http://www.w3.org/2000/svg" width="91.29" height="128.001" viewBox="0 0 91.29 128.001">
  <g id="CSS" transform="translate(0 -0.818)">
    <path id="Path_3269" data-name="Path 3269" d="M68.37.856C73.98.787,79.589.835,85.2.832c.013,1.755.04,3.51-.024,5.265-3.887-.027-7.771,0-11.655.024-.027,2.548-.077,5.1-.053,7.645,3.9.024,7.8.061,11.7.045.045,1.442.029,2.89-.013,4.335-5.594-.037-11.187-.021-16.781-.016C68.389,12.372,68.4,6.616,68.37.856Z" transform="translate(-50.107)"/>
    <path id="Path_3270" data-name="Path 3270" d="M138.785.838c5.679-.011,11.358-.045,17.04.019-.021,1.659-.005,3.315-.005,4.974q-6.2-.02-12.4.053.008.978,0,1.955c4.127.067,8.251.075,12.376.1.016,3.4.008,6.8.029,10.2q-8.523-.016-17.045.021c-.029-1.373-.032-2.743.008-4.116,3.937.011,7.877.016,11.815-.016.024-.884.035-1.771.032-2.655-3.956,0-7.915.013-11.871-.013C138.763,7.85,138.763,4.343,138.785.838Z" transform="translate(-101.692)"/>
    <path id="Path_3271" data-name="Path 3271" d="M209.582,1H226.59c.024,1.667.048,3.334-.005,5-4.151,0-8.3.021-12.453.029.011.681.027,1.362.061,2.043,4.127-.019,8.254.032,12.379.075.037,3.384.064,6.769.016,10.153q-8.523-.024-17.045.011c-.035-1.368-.045-2.741.013-4.108q5.894.044,11.794-.013c.011-.887.029-1.774.021-2.658-3.945.037-7.894.016-11.842,0C209.529,8.023,209.555,4.51,209.582,1Z" transform="translate(-153.548 -0.133)"/>
    <path id="Path_3272" data-name="Path 3272" d="M0,92.452q45.646,0,91.29,0c-1.675,18.926-3.323,37.851-5.067,56.772q-1.555,18.139-3.232,36.27c-6.494,1.72-12.923,3.681-19.415,5.409-5.962,1.75-11.972,3.334-17.937,5.07h-.176c-5.676-1.688-11.409-3.173-17.085-4.862-6.7-1.806-13.34-3.82-20.042-5.618-.873-9.058-1.662-18.122-2.439-27.185-1.467-16.746-3.061-33.481-4.472-50.23C.935,103.038.585,97.981,0,92.951v-.5m45.788,7.466c-.064,3.636.048,7.274-.064,10.907-10.439-.037-20.881-.008-31.32,0,.179,3.529.652,7.033,1.138,10.533,9.713.361,19.439-.013,29.151.278-8.5,3.812-17.1,7.4-25.633,11.134a11.517,11.517,0,0,0-2.169,1.047c.072,3.876.7,7.731.972,11.6,5.177-.019,10.351-.1,15.528-.11,4.148-.021,8.3.061,12.448-.029-.2,6.374.061,12.755-.134,19.129-2.791-.414-5.548-1.036-8.329-1.531-2.193-.478-4.44-.727-6.6-1.354-.307-3.059-.521-6.128-.793-9.189a6.914,6.914,0,0,0-1.934-.184c-3.136.019-6.275-.011-9.413.037a174.948,174.948,0,0,0,1.736,17.59c3.093.807,6.192,1.6,9.28,2.439,4.731,1.288,9.52,2.359,14.259,3.625a5.987,5.987,0,0,0,1.718.28c.315,3.871.072,7.765.131,11.647a23.755,23.755,0,0,0,3.222-.772c8.97-2.436,17.929-4.918,26.894-7.378.446-3.526.654-7.076,1.007-10.61q1.4-16.116,2.85-32.228c1.146-12.288,2.137-24.589,3.291-36.876C70.609,99.912,58.2,99.878,45.788,99.918Z" transform="translate(0 -67.153)" fill="#0170ba"/>
    <path id="Path_3273" data-name="Path 3273" d="M170.97,120.355c12.411-.04,24.821-.005,37.234-.016-1.154,12.288-2.145,24.589-3.291,36.876q-1.466,16.112-2.85,32.228c-.353,3.534-.561,7.084-1.007,10.61-8.965,2.46-17.924,4.942-26.894,7.378a23.753,23.753,0,0,1-3.222.772c-.059-3.881.184-7.776-.131-11.647l.323-.064c8.342-2.094,16.628-4.4,24.952-6.569,1.052-11.807,2.22-23.608,2.96-35.439-7.079.037-14.16.016-21.239.045-1.031.005-2.062,0-3.088-.075,3.809-1.961,7.816-3.515,11.727-5.265,3.753-1.7,7.552-3.3,11.318-4.966a10.485,10.485,0,0,0,2.14-1.109,17.626,17.626,0,0,0,.337-2.829c.216-2.992.6-5.968.745-8.962-10.025-.08-20.05-.011-30.078-.064C171.018,127.629,170.906,123.991,170.97,120.355Z" transform="translate(-125.183 -87.592)" fill="#29a9df"/>
    <path id="Path_3274" data-name="Path 3274" d="M171.234,290.143c4.84-.083,9.683.048,14.526.016-.27,4.95-.681,9.892-.938,14.841-2.968.97-5.981,1.79-8.973,2.687a34.874,34.874,0,0,0-4.749,1.584C171.3,302.9,171.036,296.517,171.234,290.143Z" transform="translate(-125.395 -212.02)" fill="#29a9df"/>
    <path id="Path_3275" data-name="Path 3275" d="M53.92,161.192c10.439-.011,20.881-.04,31.32,0,.136,11.486-.035,22.973.115,34.454-4.148.091-8.3.008-12.448.029-5.177.008-10.351.091-15.528.11-.275-3.868-.9-7.723-.972-11.6a11.515,11.515,0,0,1,2.169-1.047C67.111,179.4,75.712,175.815,84.209,172c-9.713-.291-19.439.083-29.151-.278C54.572,168.226,54.1,164.721,53.92,161.192Z" transform="translate(-39.517 -117.519)" fill="#cfcfcf"/>
    <path id="Path_3276" data-name="Path 3276" d="M69.76,315.977c3.139-.048,6.277-.019,9.413-.037a6.915,6.915,0,0,1,1.934.184c.272,3.061.486,6.13.793,9.189,2.161.628,4.408.876,6.6,1.354,2.781.494,5.537,1.117,8.329,1.531.267,3.879-.2,7.784.246,11.649l-.323.064a5.988,5.988,0,0,1-1.718-.28c-4.739-1.266-9.528-2.337-14.259-3.625-3.088-.841-6.187-1.632-9.28-2.439A174.947,174.947,0,0,1,69.76,315.977Z" transform="translate(-51.125 -230.945)" fill="#cfcfcf"/>
    <path id="Path_3277" data-name="Path 3277" d="M171.119,161.24c10.028.053,20.053-.016,30.078.064-.144,2.994-.529,5.97-.745,8.962a17.628,17.628,0,0,1-.337,2.829,10.484,10.484,0,0,1-2.14,1.109c-3.766,1.67-7.565,3.264-11.318,4.966-3.911,1.75-7.918,3.3-11.727,5.265,1.026.075,2.057.08,3.088.075,7.079-.029,14.16-.008,21.239-.045-.74,11.831-1.907,23.632-2.96,35.439-8.324,2.169-16.61,4.474-24.952,6.569-.446-3.865.021-7.771-.246-11.649a34.876,34.876,0,0,1,4.749-1.584c2.992-.9,6-1.718,8.973-2.687.256-4.95.668-9.892.938-14.841-4.843.032-9.686-.1-14.526-.016C171.084,184.213,171.255,172.726,171.119,161.24Z" transform="translate(-125.395 -117.568)" fill="#fff"/>
  </g>
</svg>
