<svg xmlns="http://www.w3.org/2000/svg" xmlns:xlink="http://www.w3.org/1999/xlink" width="300.01" height="71.021" viewBox="0 0 300.01 71.021">
  <defs>
    <linearGradient id="linear-gradient" x1="0.5" y1="-0.195" x2="0.5" y2="1.296" gradientUnits="objectBoundingBox">
      <stop offset="0" stop-color="#0994dc"/>
      <stop offset="0.35" stop-color="#66cef5"/>
      <stop offset="0.846" stop-color="#127bca"/>
      <stop offset="1" stop-color="#127bca"/>
    </linearGradient>
    <linearGradient id="linear-gradient-2" x1="0.5" y1="-0.195" x2="0.5" y2="1.296" gradientUnits="objectBoundingBox">
      <stop offset="0" stop-color="#0e76bc"/>
      <stop offset="0.36" stop-color="#36aee8"/>
      <stop offset="0.846" stop-color="#00adef"/>
      <stop offset="1" stop-color="#00adef"/>
    </linearGradient>
    <linearGradient id="linear-gradient-3" x1="0.5" y1="1.109" x2="0.5" y2="-0.062" gradientUnits="objectBoundingBox">
      <stop offset="0" stop-color="#1c63b7"/>
      <stop offset="0.5" stop-color="#33bdf2"/>
      <stop offset="1" stop-color="#33bdf2" stop-opacity="0.42"/>
    </linearGradient>
    <linearGradient id="linear-gradient-4" x1="0.5" y1="-0.195" x2="0.5" y2="1.296" gradientUnits="objectBoundingBox">
      <stop offset="0" stop-color="#166ab8"/>
      <stop offset="0.4" stop-color="#36aee8"/>
      <stop offset="0.846" stop-color="#0798dd"/>
      <stop offset="1" stop-color="#0798dd"/>
    </linearGradient>
    <linearGradient id="linear-gradient-5" x1="0.5" y1="-0.195" x2="0.5" y2="1.296" gradientUnits="objectBoundingBox">
      <stop offset="0" stop-color="#124379"/>
      <stop offset="0.39" stop-color="#1487cb"/>
      <stop offset="0.78" stop-color="#165197"/>
      <stop offset="1" stop-color="#165197"/>
    </linearGradient>
    <linearGradient id="linear-gradient-6" y1="0.5" x2="1" y2="0.5" gradientUnits="objectBoundingBox">
      <stop offset="0" stop-color="#33bdf2" stop-opacity="0.698"/>
      <stop offset="1" stop-color="#1dacd8"/>
    </linearGradient>
    <linearGradient id="linear-gradient-7" x1="0.5" y1="0.947" x2="0.5" y2="-0.03" gradientUnits="objectBoundingBox">
      <stop offset="0" stop-color="#136ab4"/>
      <stop offset="0.6" stop-color="#59caf5" stop-opacity="0.549"/>
      <stop offset="1" stop-color="#59caf5" stop-opacity="0.235"/>
    </linearGradient>
    <linearGradient id="linear-gradient-8" y1="0.5" x2="1" y2="0.5" gradientUnits="objectBoundingBox">
      <stop offset="0" stop-color="#05a1e6" stop-opacity="0.247"/>
      <stop offset="1" stop-color="#05a1e6"/>
    </linearGradient>
    <linearGradient id="linear-gradient-9" x1="0.5" y1="1.243" x2="0.5" y2="-0.094" gradientUnits="objectBoundingBox">
      <stop offset="0" stop-color="#318ed5"/>
      <stop offset="1" stop-color="#38a7e4"/>
    </linearGradient>
    <linearGradient id="linear-gradient-10" x1="0.5" y1="0.912" x2="0.5" y2="-0.768" gradientUnits="objectBoundingBox">
      <stop offset="0" stop-color="#05a1e6"/>
      <stop offset="1" stop-color="#05a1e6" stop-opacity="0.549"/>
    </linearGradient>
    <linearGradient id="linear-gradient-11" x1="0.5" y1="1" x2="0.5" gradientUnits="objectBoundingBox">
      <stop offset="0" stop-color="#1959a6"/>
      <stop offset="0.5" stop-color="#05a1e6"/>
      <stop offset="0.918" stop-color="#7ec5ea"/>
      <stop offset="1" stop-color="#7ec5ea"/>
    </linearGradient>
    <linearGradient id="linear-gradient-12" x1="0.598" y1="0.946" x2="0.385" y2="0.058" gradientUnits="objectBoundingBox">
      <stop offset="0" stop-color="#165096"/>
      <stop offset="1" stop-color="#0d82ca"/>
    </linearGradient>
    <linearGradient id="linear-gradient-13" x1="0.5" y1="0.77" x2="0.5" y2="-0.033" gradientUnits="objectBoundingBox">
      <stop offset="0" stop-color="#05a1e6"/>
      <stop offset="0.874" stop-color="#0495d6"/>
      <stop offset="1" stop-color="#0495d6"/>
    </linearGradient>
    <linearGradient id="linear-gradient-14" x1="0.653" y1="-0.042" x2="0.343" y2="1.058" gradientUnits="objectBoundingBox">
      <stop offset="0" stop-color="#38a7e4" stop-opacity="0.329"/>
      <stop offset="0.962" stop-color="#0e88d3"/>
      <stop offset="1" stop-color="#0e88d3"/>
    </linearGradient>
    <linearGradient id="linear-gradient-15" x1="0.5" y1="-0.003" x2="0.5" y2="1.019" gradientUnits="objectBoundingBox">
      <stop offset="0" stop-color="#168cd4"/>
      <stop offset="0.5" stop-color="#1c87cc"/>
      <stop offset="1" stop-color="#154b8d"/>
    </linearGradient>
    <linearGradient id="linear-gradient-16" x1="0.167" y1="-1.056" x2="0.878" y2="1.198" gradientUnits="objectBoundingBox">
      <stop offset="0" stop-color="#97d6ee"/>
      <stop offset="0.703" stop-color="#55c1ea"/>
      <stop offset="1" stop-color="#55c1ea"/>
    </linearGradient>
    <linearGradient id="linear-gradient-17" x1="0.069" y1="0.937" x2="0.758" y2="-0.168" gradientUnits="objectBoundingBox">
      <stop offset="0" stop-color="#7accec"/>
      <stop offset="1" stop-color="#3fb7ed"/>
    </linearGradient>
    <linearGradient id="linear-gradient-18" x1="0.5" y1="0.064" x2="0.5" y2="1.28" gradientUnits="objectBoundingBox">
      <stop offset="0" stop-color="#1da7e7"/>
      <stop offset="1" stop-color="#37abe7" stop-opacity="0"/>
    </linearGradient>
  </defs>
  <g id="Dotnet_Logo_SVG" data-name="Dotnet Logo_SVG" transform="translate(-0.919)">
    <g id="Group_4" data-name="Group 4" transform="translate(192.733 0)">
      <path id="Path_220" data-name="Path 220" d="M184.361,9.53a.644.644,0,0,0-.2-.529,1.266,1.266,0,0,0-.779-.187h-.525v1.442h.633c.585,0,.874-.243.874-.726Zm.818,3.006h-.721L184,11.521c-.233-.508-.483-.763-.755-.763h-.389v1.777h-.594V8.307h1.191a1.765,1.765,0,0,1,1.2.354,1.015,1.015,0,0,1,.347.8,1.04,1.04,0,0,1-.284.739,1.427,1.427,0,0,1-.79.416v.018c.236.055.471.314.7.781l.557,1.125Zm1.317-2.073a2.823,2.823,0,0,0-.85-2.091,2.928,2.928,0,0,0-5.017,2.091,2.934,2.934,0,1,0,5.867,0Zm.4-.018a3.153,3.153,0,0,1-.966,2.348,3.477,3.477,0,0,1-4.751.028,3.162,3.162,0,0,1-.94-2.35,3.191,3.191,0,0,1,.957-2.345,3.458,3.458,0,0,1,4.728-.044,3.135,3.135,0,0,1,.972,2.364Z" transform="translate(-78.7 -3.505)"/>
      <path id="Path_221" data-name="Path 221" d="M18.35,20.39H16.3V8.66c0-.927.061-2.054.17-3.385h-.046A11.1,11.1,0,0,1,15.9,6.967L9.944,20.39h-1L2.977,7.064a9.74,9.74,0,0,1-.522-1.789H2.411c.063.7.1,1.835.1,3.408V20.39H.533V2.923h2.7L8.6,15.1a15.754,15.754,0,0,1,.793,2.091h.085c.349-.954.626-1.671.836-2.142L15.783,2.923h2.565V20.39Z" transform="translate(-0.533 -1.658)"/>
      <path id="Path_222" data-name="Path 222" d="M41.476,19.8H39.485V7.327h1.992V19.8Zm.344-16.945a1.247,1.247,0,0,1-.386.927,1.267,1.267,0,0,1-.929.379,1.288,1.288,0,0,1-.92-.365,1.245,1.245,0,0,1-.379-.941,1.239,1.239,0,0,1,.379-.917,1.34,1.34,0,0,1,1.848,0,1.234,1.234,0,0,1,.386.917Z" transform="translate(-17.355 -1.069)"/>
      <path id="Path_223" data-name="Path 223" d="M58.055,23.422a6.412,6.412,0,0,1-3.418.878,5.624,5.624,0,0,1-4.328-1.779A6.3,6.3,0,0,1,48.7,18.063a6.953,6.953,0,0,1,1.763-4.954,6.147,6.147,0,0,1,4.73-1.888,6.367,6.367,0,0,1,2.886.633V13.9a5.062,5.062,0,0,0-2.972-.978A4,4,0,0,0,52,14.255a5.15,5.15,0,0,0-1.257,3.628A4.947,4.947,0,0,0,51.9,21.33,3.967,3.967,0,0,0,54.986,22.6a5.036,5.036,0,0,0,3.069-1.072v1.9Z" transform="translate(-21.485 -5.267)"/>
      <path id="Path_224" data-name="Path 224" d="M77.108,13.616a2.669,2.669,0,0,0-3.57.693,5.469,5.469,0,0,0-.938,3.4v6.359h-2V11.591h2v2.572h.048A4.38,4.38,0,0,1,74,12.056a2.989,2.989,0,0,1,1.911-.682,3.238,3.238,0,0,1,1.2.17v2.07Z" transform="translate(-31.011 -5.334)"/>
      <path id="Path_225" data-name="Path 225" d="M93.934,17.783a5.451,5.451,0,0,0-1.082-3.653,3.685,3.685,0,0,0-2.937-1.206,3.848,3.848,0,0,0-2.981,1.22,5.294,5.294,0,0,0-1.181,3.688,5.042,5.042,0,0,0,1.13,3.5,3.863,3.863,0,0,0,3.032,1.262,3.647,3.647,0,0,0,3.006-1.278,5.47,5.47,0,0,0,1.013-3.533m2.047-.07a6.726,6.726,0,0,1-1.68,4.781,5.907,5.907,0,0,1-4.534,1.8,5.731,5.731,0,0,1-4.455-1.8A6.5,6.5,0,0,1,83.7,17.9a6.691,6.691,0,0,1,1.828-5.031,6.2,6.2,0,0,1,4.527-1.657,5.606,5.606,0,0,1,4.361,1.729,6.881,6.881,0,0,1,1.562,4.767" transform="translate(-36.71 -5.266)"/>
      <path id="Path_226" data-name="Path 226" d="M117.057,20.661a3.243,3.243,0,0,1-1.146,2.542,5.025,5.025,0,0,1-3.422,1.1,6.119,6.119,0,0,1-3.094-.751V21.4a5.017,5.017,0,0,0,3.242,1.195q2.371,0,2.373-1.742a1.54,1.54,0,0,0-.524-1.2,8.306,8.306,0,0,0-2.047-1.146,6.567,6.567,0,0,1-2.228-1.414,3.216,3.216,0,0,1-.793-2.253,3.24,3.24,0,0,1,1.232-2.583,4.756,4.756,0,0,1,3.168-1.033,5.919,5.919,0,0,1,2.667.585v2.01a4.706,4.706,0,0,0-2.831-.89,2.451,2.451,0,0,0-1.588.485,1.556,1.556,0,0,0-.6,1.257,1.669,1.669,0,0,0,.5,1.289,6.945,6.945,0,0,0,1.872,1.035,7.208,7.208,0,0,1,2.3,1.382,3.076,3.076,0,0,1,.915,2.288" transform="translate(-47.885 -5.266)"/>
      <path id="Path_227" data-name="Path 227" d="M136.675,17.783a5.439,5.439,0,0,0-1.084-3.653,3.68,3.68,0,0,0-2.934-1.206,3.864,3.864,0,0,0-2.986,1.22,5.3,5.3,0,0,0-1.176,3.688,5.074,5.074,0,0,0,1.123,3.5,3.9,3.9,0,0,0,3.039,1.262,3.645,3.645,0,0,0,3.006-1.278,5.473,5.473,0,0,0,1.012-3.533m2.052-.07a6.722,6.722,0,0,1-1.687,4.781,5.891,5.891,0,0,1-4.529,1.8,5.732,5.732,0,0,1-4.457-1.8,6.494,6.494,0,0,1-1.608-4.589,6.715,6.715,0,0,1,1.826-5.031,6.206,6.206,0,0,1,4.531-1.657,5.592,5.592,0,0,1,4.356,1.729,6.87,6.87,0,0,1,1.569,4.767" transform="translate(-55.301 -5.266)"/>
      <path id="Path_228" data-name="Path 228" d="M157.949,2.7a2.68,2.68,0,0,0-1.326-.328c-1.4,0-2.091.88-2.091,2.644V6.942h2.923V8.633h-2.923V19.415h-2V8.633h-2.121V6.942h2.121V4.92a4.136,4.136,0,0,1,1.276-3.226A3.825,3.825,0,0,1,156.5.684,3.9,3.9,0,0,1,157.949.9V2.7Z" transform="translate(-65.726 -0.684)"/>
      <path id="Path_229" data-name="Path 229" d="M172.094,21.266a3.768,3.768,0,0,1-1.876.4q-3.266,0-3.265-3.681V10.611h-2.14V8.917h2.14V5.874c.638-.2,1.3-.421,2-.647v3.69h3.14v1.694h-3.14V17.65a2.853,2.853,0,0,0,.423,1.781,1.723,1.723,0,0,0,1.426.534,2.117,2.117,0,0,0,1.292-.4v1.7Z" transform="translate(-71.989 -2.66)"/>
    </g>
    <g id="Group_5" data-name="Group 5" transform="translate(177.784 24.488)">
      <path id="Path_230" data-name="Path 230" d="M7.932,73.469a3.487,3.487,0,0,1-1.054,2.537,3.461,3.461,0,0,1-2.556,1.07,3.323,3.323,0,0,1-2.491-1.07,3.685,3.685,0,0,1,0-5.093A3.333,3.333,0,0,1,4.322,69.86a3.45,3.45,0,0,1,2.556,1.068,3.493,3.493,0,0,1,1.054,2.542" transform="translate(-0.81 -30.543)"/>
      <path id="Path_231" data-name="Path 231" d="M64.133,46.076H57.622L33.985,9.573A16.747,16.747,0,0,1,32.552,6.7h-.194a47.55,47.55,0,0,1,.254,6.29V46.076H27.244V.279h6.967l22.93,35.928c.913,1.426,1.537,2.447,1.853,3.062h.128a48.248,48.248,0,0,1-.323-6.734V.279h5.335v45.8Z" transform="translate(-12.308 -0.278)"/>
      <path id="Path_232" data-name="Path 232" d="M134.751,46.076H110.478V.279H133.7V5.132H115.842V20.367h16.545v4.855H115.842v16h18.909v4.855Z" transform="translate(-48.512 -0.278)"/>
      <path id="Path_233" data-name="Path 233" d="M194.134,5.131H180.942V46.076h-5.366V5.131H162.359V.276h31.775V5.131Z" transform="translate(-71.079 -0.276)"/>
    </g>
    <g id="Group_6" data-name="Group 6" transform="translate(0.919 0)">
      <path id="Path_234" data-name="Path 234" d="M88.5,19.681c6.377,19.5,8.792,54.285,27.439,54.285h0a22.956,22.956,0,0,0,4.294-.413h0c-16.95-3.952-18.959-38.359-29.3-56.178h0c-.811.737-1.616,1.505-2.43,2.305" transform="translate(-27.047 -5.286)" fill="url(#linear-gradient)"/>
      <path id="Path_235" data-name="Path 235" d="M91.992,16.564c10.343,17.818,12.352,52.225,29.3,56.178h0a26.963,26.963,0,0,0,4-1.081h0c-15.214-7.455-19.42-40.866-31.166-56.952h0q-1.067.888-2.14,1.855" transform="translate(-28.11 -4.475)" fill="url(#linear-gradient-2)"/>
      <path id="Path_236" data-name="Path 236" d="M106.517,2.145a23.034,23.034,0,0,0-4.3.413,32.9,32.9,0,0,0-11.47,4.794,28.47,28.47,0,0,1,3,3.534,41.2,41.2,0,0,1,11.724-7.119,26.116,26.116,0,0,1,4.373-1.215,13.471,13.471,0,0,0-3.335-.407" transform="translate(-27.732 -0.653)" fill="#14559a"/>
      <path id="Path_237" data-name="Path 237" d="M145.148,60.979q2.335-1.856,4.678-4.1c-6.479-19.409-8.8-54.692-27.575-54.692a22.232,22.232,0,0,0-4.049.376c17.1,4.254,19.3,41.467,26.946,58.417" transform="translate(-36.084 -0.665)" fill="url(#linear-gradient-3)"/>
      <path id="Path_238" data-name="Path 238" d="M116.745,2.551a13.485,13.485,0,0,0-3.335-.407l7.384.027a21.976,21.976,0,0,0-4.049.379" transform="translate(-34.626 -0.652)" fill="#3092c4"/>
      <path id="Path_239" data-name="Path 239" d="M151.41,91.612a27.821,27.821,0,0,1-2.117-2.288,38.837,38.837,0,0,1-9.433,5.036,14.534,14.534,0,0,0,3.517,1.2,14.908,14.908,0,0,0,3,.3,19.651,19.651,0,0,0,8.645-1.548,16.409,16.409,0,0,1-3.608-2.695" transform="translate(-42.673 -27.175)" fill="#1969bc"/>
      <path id="Path_240" data-name="Path 240" d="M111.917,3.947c15.319,8.013,16.651,44.3,28.875,59.031h0c.82-.577,1.631-1.189,2.441-1.835h0c-7.651-16.95-9.84-54.166-26.94-58.417h0a26.483,26.483,0,0,0-4.376,1.221" transform="translate(-34.172 -0.829)" fill="url(#linear-gradient-4)"/>
      <path id="Path_241" data-name="Path 241" d="M95.067,11.6c11.746,16.085,15.952,49.5,31.166,56.952h0a38.837,38.837,0,0,0,9.433-5.036h0C123.442,48.779,122.11,12.494,106.791,4.481h0A41.11,41.11,0,0,0,95.067,11.6" transform="translate(-29.045 -1.363)" fill="url(#linear-gradient-5)"/>
      <path id="Path_242" data-name="Path 242" d="M75.077,17.942a175.136,175.136,0,0,0-6,16.777,124.79,124.79,0,0,1,13.51-16.307A48.98,48.98,0,0,0,80.6,13.2a67.333,67.333,0,0,0-5.52,4.738" transform="translate(-21.14 -4.017)" fill="url(#linear-gradient-6)"/>
      <path id="Path_243" data-name="Path 243" d="M87.266,11.479c-.541.387-1.084.783-1.63,1.2a49.055,49.055,0,0,1,1.992,5.207c.814-.8,1.622-1.568,2.43-2.3a32.262,32.262,0,0,0-2.791-4.1" transform="translate(-26.176 -3.492)" fill="#2b74b1"/>
      <path id="Path_244" data-name="Path 244" d="M89.907,9.629c-.643.407-1.283.837-1.929,1.286a32.416,32.416,0,0,1,2.794,4.106c.714-.646,1.428-1.269,2.14-1.858a28.47,28.47,0,0,0-3-3.534" transform="translate(-26.889 -2.93)" fill="#125a9e"/>
      <path id="Path_245" data-name="Path 245" d="M220.978.008c-8.664,33.414-26.761,60.252-41.933,67.018h-.029c-.276.125-.549.239-.819.35a.753.753,0,0,1-.1.039c-.079.032-.154.057-.233.089a.618.618,0,0,1-.105.043c-.128.046-.253.084-.378.134-.054.023-.105.037-.157.055a1.912,1.912,0,0,1-.188.062c-.057.023-.117.039-.182.064s-.111.032-.162.055c-.111.032-.213.059-.324.1a.612.612,0,0,0-.136.037c-.069.023-.145.039-.22.059a.664.664,0,0,1-.147.041c-.077.023-.162.043-.239.062l-.29.064a6.179,6.179,0,0,0,2.171.381C191.892,68.657,206.4,42.875,230.4,0h-9.424Z" transform="translate(-53.465 0)" fill="url(#linear-gradient-7)"/>
      <path id="Path_246" data-name="Path 246" d="M44.994,3.5c.009,0,.02-.023.026-.023a.029.029,0,0,0,.034-.023h.018c.08-.027.154-.059.233-.089a.042.042,0,0,0,.046-.023c.02,0,.04-.023.06-.025.085-.027.171-.059.25-.089h.014c.191-.057.367-.127.552-.193.026,0,.051-.023.082-.023.077-.025.157-.052.236-.071a.465.465,0,0,1,.108-.034c.082-.025.162-.052.239-.071.034,0,.066-.023.091-.025.265-.073.526-.141.791-.2.037,0,.068-.023.108-.025a1.516,1.516,0,0,1,.231-.046.4.4,0,0,1,.114-.034c.077-.023.151-.025.233-.043h.054c.159-.032.322-.059.481-.089h.1a2.027,2.027,0,0,1,.222-.039c.042,0,.085-.023.125-.023a1.639,1.639,0,0,0,.213-.032.227.227,0,0,0,.117-.023c.168-.023.341-.032.518-.046-.5-.048-1.01-.08-1.531-.08-16.2,0-38.524,30.062-48.58,68.993H2.114c3.218-5.739,6.109-11.168,8.753-16.264C17.909,27.279,32.253,8.473,45,3.491" transform="translate(-0.177 -0.646)" fill="url(#linear-gradient-8)"/>
      <path id="Path_247" data-name="Path 247" d="M77.7,16.831a67.291,67.291,0,0,1,5.52-4.737A26.075,26.075,0,0,0,81.9,9.552,31.126,31.126,0,0,0,77.7,16.831" transform="translate(-23.761 -2.906)" fill="#0d82ca"/>
      <path id="Path_248" data-name="Path 248" d="M79.522,4.376A13.82,13.82,0,0,1,82.4,7.947c.273-.336.549-.646.837-.936a16.244,16.244,0,0,0-3.915-2.74,1.781,1.781,0,0,0,.173.082s.023.023.032.023" transform="translate(-24.254 -1.299)" fill="#0d82ca"/>
      <path id="Path_249" data-name="Path 249" d="M15.54,55.456C30.314,26.987,37.314,8.97,49.668,4.092h0C36.929,9.078,22.583,27.883,15.54,55.456" transform="translate(-4.851 -1.245)" fill="url(#linear-gradient-9)"/>
      <path id="Path_250" data-name="Path 250" d="M84.577,8.208c-.287.293-.56.6-.837.936a26.429,26.429,0,0,1,1.318,2.541c.546-.418,1.09-.814,1.63-1.2a22.177,22.177,0,0,0-2.111-2.276" transform="translate(-25.599 -2.497)" fill="#127bca"/>
      <path id="Path_251" data-name="Path 251" d="M24.662,83.767h0a1.841,1.841,0,0,1-.267.032h-.051c-.077,0-.157.023-.228.023h-.037c-.185.022-.367.022-.544.036h-.057c14.953-.418,21.788-7.9,25.179-18.763,2.578-8.232,4.7-15.166,6.55-20.985A297.327,297.327,0,0,0,36.328,75.2c-3.05,5.674-7.688,8.044-11.666,8.551" transform="translate(-7.266 -13.42)" fill="url(#linear-gradient-10)"/>
      <path id="Path_252" data-name="Path 252" d="M25.18,76.428h0c3.978-.507,8.616-2.874,11.666-8.551h0A298.6,298.6,0,0,1,55.723,36.782h0a174.716,174.716,0,0,1,6-16.777h0C49.249,31.876,36.729,51.615,25.18,76.422" transform="translate(-7.783 -6.086)" fill="url(#linear-gradient-11)"/>
      <path id="Path_253" data-name="Path 253" d="M11.712,77.916C9.069,83.012,6.178,88.441,2.96,94.18H8.6a137.775,137.775,0,0,1,3.116-16.262" transform="translate(-1.023 -23.704)" fill="#05a1e6"/>
      <path id="Path_254" data-name="Path 254" d="M53.087,2.318c-.046,0-.08.023-.12.023h0a.979.979,0,0,1-.211.03h0a.248.248,0,0,0-.125.023h0a2.163,2.163,0,0,1-.222.039h0a.145.145,0,0,0-.1.023h0c-.162.027-.322.057-.481.084h-.054a1.888,1.888,0,0,1-.233.046h0a.4.4,0,0,1-.117.032h0a2.165,2.165,0,0,1-.228.046h0a.218.218,0,0,1-.108.025h0c-.265.064-.526.132-.791.2h0c-.028,0-.057.023-.091.027h0l-.239.071h0a.33.33,0,0,1-.108.032h0c-.08.023-.159.046-.236.071h0c-.031,0-.057.023-.085.023h0c-.182.068-.361.137-.549.194h0c-.08.025-.165.057-.25.086h0a.527.527,0,0,1-.105.043h0c-.08.025-.159.057-.233.087h0a.392.392,0,0,1-.077.037h0C35.972,8.437,28.972,26.455,14.2,54.924h0a137.15,137.15,0,0,0-3.116,16.262h.791c2.228,0,2.857-.023,5.421-.023h2.484c.176-.022.359-.022.544-.037h.034c.077,0,.154-.022.228-.022h.054c.082,0,.176-.022.267-.032h0c11.55-24.807,24.07-44.545,36.541-56.417h0a31.235,31.235,0,0,1,4.2-7.276h0A13.777,13.777,0,0,0,58.778,3.8h0s-.029,0-.031-.023h0c-.06-.025-.116-.055-.176-.084h0c-.06-.032-.111-.057-.173-.089h0a1.883,1.883,0,0,1-.171-.082h0a1.58,1.58,0,0,1-.2-.084h0c-.054-.023-.1-.046-.157-.068h0c-.111-.043-.222-.089-.327-.137h0c-.048-.023-.094-.034-.139-.052h0c-.077-.028-.165-.064-.245-.1h0a.836.836,0,0,0-.131-.043h0c-.117-.039-.231-.08-.339-.116h-.028c-.131-.043-.259-.075-.393-.112h0a.167.167,0,0,0-.088-.027h0c-.117-.032-.219-.064-.33-.093h0c-.028,0-.054-.023-.077-.023h0c-.267-.071-.543-.127-.822-.18h0c-.029,0-.057-.023-.085-.023h0c-.12-.023-.236-.043-.356-.057h0a.093.093,0,0,0-.071-.023h0c-.142-.023-.282-.039-.421-.055h-.074c-.114-.023-.219-.025-.324-.037h0c-.179.023-.35.032-.518.048" transform="translate(-3.495 -0.7)" fill="url(#linear-gradient-12)"/>
      <path id="Path_255" data-name="Path 255" d="M189.169,19.156c-2.842,9.105-5.145,16.617-7.148,22.8h0c7.8-10.733,15.482-24.235,22.8-39.816h0c-8.534,2.68-13.087,8.815-15.651,17.018" transform="translate(-55.5 -0.65)" fill="url(#linear-gradient-13)"/>
      <path id="Path_256" data-name="Path 256" d="M181.857,66.461c-.4.2-.8.4-1.189.569C195.84,60.263,213.937,33.425,222.6.011h-1.756c-19.907,35.559-26.308,59.364-38.988,66.449" transform="translate(-55.088 -0.003)" fill="url(#linear-gradient-14)"/>
      <path id="Path_257" data-name="Path 257" d="M166.772,81.53c3.3-4.029,5.99-10.878,9.661-22.166A110.95,110.95,0,0,1,163.67,74.257c0,.023,0,.023-.022.037a38.836,38.836,0,0,0,3.116,7.236" transform="translate(-49.91 -18.061)" fill="#079ae1"/>
      <path id="Path_258" data-name="Path 258" d="M166.162,91.223a13.518,13.518,0,0,1-3.637,3.19c-.29.168-.583.327-.882.472a12.784,12.784,0,0,0,4.629,1.46h0c.25.025.5.048.757.066h.046a2.017,2.017,0,0,1,.364.023h1.234a.3.3,0,0,0,.139-.023,1.127,1.127,0,0,0,.273-.023h.135c.093,0,.2-.023.3-.032h.022c.03,0,.062-.023.091-.023.105-.023.214-.032.316-.048h.094c.115-.023.236-.037.356-.059h.056c.239-.046.472-.091.709-.15-1.958-.717-3.6-2.407-5.008-4.814" transform="translate(-49.3 -27.753)" fill="#1969bc"/>
      <path id="Path_259" data-name="Path 259" d="M127.936,98.058a22.748,22.748,0,0,0,4.294-.415,26.605,26.605,0,0,0,4-1.079,14.556,14.556,0,0,0,3.514,1.2,14.939,14.939,0,0,0,3,.3Z" transform="translate(-39.045 -29.378)" fill="#1e5cb3"/>
      <path id="Path_260" data-name="Path 260" d="M149.219,98.034a19.638,19.638,0,0,0,8.642-1.548,12.789,12.789,0,0,0,4.629,1.46h0c.25.025.5.048.757.066h.046a2.022,2.022,0,0,1,.364.023H149.219Z" transform="translate(-45.517 -29.354)" fill="#1e5cb3"/>
      <path id="Path_261" data-name="Path 261" d="M170.6,98.547h.811a.3.3,0,0,0,.139-.023,1.169,1.169,0,0,0,.276-.023h.134c.093,0,.2-.023.293-.032h.025c.03,0,.059-.023.089-.023.1-.023.214-.032.315-.048a.16.16,0,0,0,.1-.023c.116-.023.237-.034.356-.057h.056c.239-.046.472-.091.708-.15h0a6.186,6.186,0,0,0,2.171.381l-5.469.023Z" transform="translate(-52.024 -29.866)" fill="#1d60b5"/>
      <path id="Path_262" data-name="Path 262" d="M160.547,80.813V80.79q-2.343,2.241-4.678,4.1c-.814.646-1.625,1.258-2.444,1.835a27.617,27.617,0,0,0,2.117,2.288,16.4,16.4,0,0,0,3.608,2.695c.3-.146.592-.3.879-.472a13.506,13.506,0,0,0,3.64-3.19,38.888,38.888,0,0,1-3.116-7.236" transform="translate(-46.8 -24.579)" fill="#175fab"/>
      <path id="Path_263" data-name="Path 263" d="M211.469.011h-8.836c-.478.023-.942.039-1.4.068h0c-.216.464-.438.928-.652,1.394h0c-7.315,15.581-15,29.083-22.8,39.816h0c-3.668,11.288-6.359,18.137-9.66,22.166h0c1.411,2.407,3.053,4.1,5,4.817h0a.913.913,0,0,1,.154-.034h.032c.034,0,.071-.023.108-.023h0c.079-.023.165-.037.245-.061h0a1.215,1.215,0,0,1,.145-.041h0c.074-.023.151-.039.219-.057h0a.526.526,0,0,1,.136-.039h0c.114-.037.216-.064.325-.1h0a.93.93,0,0,1,.162-.055h0c.063-.023.125-.039.182-.066h0c.065-.023.131-.034.188-.059h0c.051-.023.105-.037.153-.057h0c.128-.046.253-.084.381-.134h0c.035,0,.069-.032.106-.039h0c.077-.032.157-.057.233-.091h0a.292.292,0,0,1,.1-.037h0c.268-.112.543-.225.82-.35h.029c.393-.173.791-.367,1.187-.569h0c12.682-7.085,19.084-30.89,38.991-66.449h-5.56Z" transform="translate(-51.271 -0.003)" fill="url(#linear-gradient-15)"/>
      <path id="Path_264" data-name="Path 264" d="M72.2,2.249a.137.137,0,0,1,.091.023.731.731,0,0,1,.231.025H72.6c.139.023.279.034.421.055a.086.086,0,0,1,.071.023c.117.023.236.041.356.059.026,0,.06.023.088.023.273.055.552.112.82.182.025,0,.051.023.074.023.114.027.216.061.33.093.034,0,.06.023.091.028.134.034.259.068.39.112.006,0,.013,0,.029.023.111.034.225.077.341.116a.647.647,0,0,0,.131.043c.08.034.168.068.245.1a.5.5,0,0,1,.139.048c.105.048.216.091.324.137.057.023.105.048.159.068a1.4,1.4,0,0,0,.2.084l.173.082c.06.032.117.057.174.089a16.328,16.328,0,0,1,3.915,2.74,12.711,12.711,0,0,1,1.389-1.261A15.287,15.287,0,0,0,73.4,2.231c-.4,0-.8.023-1.2.052" transform="translate(-22.088 -0.679)" fill="#7dcbec"/>
      <path id="Path_265" data-name="Path 265" d="M84.943,7.657a22.169,22.169,0,0,1,2.111,2.276c.646-.45,1.286-.882,1.929-1.286A20.35,20.35,0,0,0,86.329,6.4a12.428,12.428,0,0,0-1.386,1.261" transform="translate(-25.965 -1.946)" fill="#5ec5ed"/>
      <path id="Path_266" data-name="Path 266" d="M71.529-6.318c.4-.034.8-.048,1.2-.048a15.3,15.3,0,0,1,9.054,2.928C84.561-5.63,87.918-6.4,92.582-6.4H70c.521,0,1.03.031,1.531.077" transform="translate(-21.418 7.888)" fill="url(#linear-gradient-16)"/>
      <path id="Path_267" data-name="Path 267" d="M97.735-9.63c-4.663,0-8.021.765-10.8,2.956a20.515,20.515,0,0,1,2.652,2.251,32.92,32.92,0,0,1,11.473-4.8,23.281,23.281,0,0,1,4.294-.41Z" transform="translate(-26.572 11.123)" fill="url(#linear-gradient-17)"/>
      <path id="Path_268" data-name="Path 268" d="M176.442,41.35c2.006-6.186,4.3-13.695,7.15-22.8,2.567-8.206,7.111-14.341,15.644-17.018.225-.458.438-.931.658-1.394-13.911.834-20.413,7.91-23.685,18.39-5.722,18.3-9.188,30.156-12.526,37.713A111.2,111.2,0,0,0,176.442,41.35" transform="translate(-49.921 -0.041)" fill="url(#linear-gradient-18)"/>
      <path id="Path_269" data-name="Path 269" d="M209.693,91.451h-1.577v4.9h-.643v-4.9h-1.582v-.583h3.8v.583Z" transform="translate(-62.762 -27.645)"/>
      <path id="Path_270" data-name="Path 270" d="M218.189,96.35h-.64V92.668c0-.29.022-.646.052-1.064h0a3.754,3.754,0,0,1-.17.535l-1.867,4.211h-.313l-1.872-4.18a3.064,3.064,0,0,1-.168-.566h-.022c.022.221.03.578.03,1.073V96.35H212.6V90.867h.848l1.682,3.827a4.968,4.968,0,0,1,.248.657h.024c.112-.3.2-.526.265-.674l1.716-3.81h.808V96.35Z" transform="translate(-64.804 -27.645)"/>
    </g>
  </g>
</svg>
