<svg xmlns="http://www.w3.org/2000/svg" width="90.701" height="128.001" viewBox="0 0 90.701 128.001">
  <g id="HTML" transform="translate(-74.6)">
    <path id="Path_3264" data-name="Path 3264" d="M108.4,0h5.75V5.7h5.3V0h5.75V17.25h-5.75V11.5H114.2v5.75h-5.8m24.4-11.5h-5.075V0H143.65V5.75h-5.1v11.5H132.8M146.175,0H152.2l3.7,6.075L159.6,0h6.025V17.25h-5.75V8.7l-4.025,6.2-4.025-6.2v8.55h-5.65M168.475,0h5.75V11.55h8.15v5.7h-13.9" transform="translate(-25.35)"/>
    <path id="Path_3265" data-name="Path 3265" d="M82.85,193.2,74.6,100.6h90.7l-8.25,92.551-37.175,10.3" transform="translate(0 -75.45)" fill="#e44d26"/>
    <path id="Path_3266" data-name="Path 3266" d="M256,218.376V131h37.075L286,210" transform="translate(-136.05 -98.25)" fill="#f16529"/>
    <path id="Path_3267" data-name="Path 3267" d="M142,176.3h28.5v11.35H154.45l1.05,11.625h15V210.6H145.1m.5,5.7H157l.8,9.075,12.7,3.4v11.85l-23.3-6.5" transform="translate(-50.55 -132.225)" fill="#ebebeb"/>
    <path id="Path_3268" data-name="Path 3268" d="M284.25,176.3H255.8v11.35h27.4m-1.025,11.625H255.8v11.35h14l-1.325,14.75-12.675,3.4v11.8l23.25-6.45" transform="translate(-135.9 -132.225)" fill="#fff"/>
  </g>
</svg>
