<svg xmlns="http://www.w3.org/2000/svg" width="300" height="73.482" viewBox="0 0 300 73.482">
  <g id="jquery" transform="translate(0)">
    <path id="Path_3250" data-name="Path 3250" d="M221.407,35.2v0l-1.921,6.807Zm9.878,14.777-2.116-.013Zm-.544,10.165h0l-12.68.046ZM233.4,49.993l-2.117-.013Zm-1.547,9.288,2.208-8.424-2.208,8.425Zm46.685-38.792-4.114,19.343Zm-10.577,0-3.123,14.45,3.123-14.451Z" transform="translate(-93.121 -8.749)" fill="#131b28"/>
    <path id="Path_3251" data-name="Path 3251" d="M292.89,18.971h-8.8a1.158,1.158,0,0,0-1.077.869l-3.123,14.451-3.124,14.452a1.154,1.154,0,0,1-1.075.867h-6.228c-6.161,0-5.449-4.262-4.187-10.1l.038-.176.138-.736.026-.139.281-1.5.3-1.606c.092-.484.23-1.192.322-1.636l1.42-6.938,1.421-6.938a.7.7,0,0,0-.71-.871h-9.031a1.148,1.148,0,0,0-1.071.87l-1.942,9.213-1.942,9.211a.059.059,0,0,0,0,.014l-.18.856c-2.236,10.211-1.643,19.949,10.513,20.254.2.006.352.007.352.007H284.29a1.151,1.151,0,0,0,1.074-.87l4.114-19.341,4.115-19.343a.693.693,0,0,0-.7-.871Zm35.1,30.739a.7.7,0,0,1,.71.87l-.854,4.176m-.853,4.177.854-4.178-.855,4.18Zm-1.071.879h0c-2.59.021-10.371.08-16.219.08C316.824,59.892,325.921,59.813,325.921,59.813ZM304.458,44.332c-.007-.457.513-1.245,1-1.245l-1.1-.018C303.866,48.049,304.458,44.332,304.458,44.332Z" transform="translate(-108.179 -8.101)" fill="#131b28"/>
    <path id="Path_3252" data-name="Path 3252" d="M247.273,59.814h0Zm17.481-10.179a.7.7,0,0,1,.71.87l-.854,4.176-.139.681M251.438,59.8h0Zm-2.16.007h0Zm-.659,0h0Zm-.67,0h0Zm1.2,0h0ZM251.4,59.8l-2.123.007C249.981,59.81,250.693,59.807,251.4,59.8ZM262.691,59.735Zm1.066-.875.716-3.5-.716,3.5Zm-15.344.953h0Zm-1.312,0h0Zm.665,0h0Zm-128.7-15.453,1.367-6.058-1.563,6.925-1.5,7.054L118.68,46.1C118.781,45.62,118.953,44.838,119.061,44.361Zm16.358-25.568h-9.662a1.17,1.17,0,0,0-1.086.866l-.917,4.044-.916,4.046a.68.68,0,0,0,.692.866h9.737a1.158,1.158,0,0,0,1.079-.867l.885-4.044.886-4.041h0a.686.686,0,0,0-.7-.867Zm-2.1,13.453h0l-2.834,13.11,2.834-13.109ZM105.247,75.686s4.871.062,7.966.062c-2.351,0-6.237-.043-7.97-.064Zm16.547-43.442L120.426,38.3Z" transform="translate(-44.943 -8.025)" fill="#131b28"/>
    <path id="Path_3253" data-name="Path 3253" d="M132.093,35.358h-9.739a1.167,1.167,0,0,0-1.084.867L119.9,42.284l-1.367,6.058c-.108.477-.28,1.259-.381,1.737l-1.314,6.184-1.313,6.184q-.194.866-.469,1.71s-1.819,5.413-4.878,5.352L109.8,69.5l-2.647-.049h0a1.158,1.158,0,0,0-1.091.847l-1.01,4.246-1.009,4.243a.681.681,0,0,0,.679.874c1.734.021,5.619.064,7.971.064,7.64,0,11.667-4.233,14.249-16.414l3.021-13.979,2.834-13.111A.687.687,0,0,0,132.093,35.358ZM270.434,63.3a.691.691,0,0,1-.7-.871l7.326-34.315m3.558,34.314,2.963-14.646Z" transform="translate(-44.418 -12.006)" fill="#131b28"/>
    <path id="Path_3254" data-name="Path 3254" d="M393.336,62.447a3.779,3.779,0,0,1,.079-1.3l3.477-16.288-3.663,17.157a.691.691,0,0,0,.7.87h.89c-.489,0-1.427-.2-1.485-.435Zm10.2.239a4.61,4.61,0,0,1-1.373.2h.89a1.135,1.135,0,0,0,1.065-.871l.176-.87C404.194,61.619,403.8,62.578,403.534,62.687Zm2.063-8,1.307-6.464a.074.074,0,0,1,0,.013ZM434.5,30l.4,1.667a.674.674,0,0,1-.684.866M404.291,61.141l1.3-6.453ZM434.1,28.288,434.5,30ZM406.9,48.224c.1-.478.258-1.254.36-1.727l1.4-6.544-1.582,7.412Zm-6.228-21.089c-.1.462-.222,1.045-.3,1.431l-3.477,16.289L400.558,27.7Z" transform="translate(-167.916 -11.588)" fill="#131b28"/>
    <path id="Path_3255" data-name="Path 3255" d="M434.979,28.253l-.4-1.667-.4-1.708-.2-.865c-.791-3.073-3.113-4.847-8.155-4.847l-7.85-.009-7.229-.009h-8.134a1.146,1.146,0,0,0-1.072.869h0l-.36,1.7-.424,2.007-.119.562-3.663,17.158-3.477,16.288a3.8,3.8,0,0,0-.079,1.3c.059.239,1,.435,1.485.435h7.339a4.6,4.6,0,0,0,1.373-.2c.266-.108.66-1.067.757-1.546l1.3-6.453,1.306-6.452,0-.013.174-.859,1.582-7.412,1.4-6.547a1.152,1.152,0,0,1,1.072-.866l23.09-.011A.673.673,0,0,0,434.979,28.253Z" transform="translate(-167.99 -8.177)" fill="#131b28"/>
    <path id="Path_3256" data-name="Path 3256" d="M365.594,5c-.489,0-1.288.006-1.777.006h-7.391a1.891,1.891,0,0,0-1.391.733L338.693,29.681c-.276.4-.591.344-.7-.131l-1.2-5.275a1.169,1.169,0,0,0-1.086-.866H325.2a.635.635,0,0,0-.645.853l4.708,16.492a3.9,3.9,0,0,1,.023,1.715l-2.052,7.982a.657.657,0,0,0,.668.862h10.383a1.209,1.209,0,0,0,1.109-.862l2.053-7.982A5.3,5.3,0,0,1,342.2,40.9L368.733,5.685c.295-.39.135-.708-.353-.7L365.594,5ZM282.125,25.654v-.01a1.07,1.07,0,0,1-1.038.919h-13.32a.573.573,0,0,1-.627-.7.135.135,0,0,1,.012-.031l-.009,0a.378.378,0,0,1,.007-.045l.061-.227c1.273-3.382,3.863-5.6,8.734-5.6,5.483,0,6.553,2.68,6.181,5.691Zm-3.908-15.375c-17.1,0-21.149,10.378-23.422,20.852-2.273,10.676-2.077,20.658,15.615,20.658h2.8c.7,0,1.411,0,2.123-.007h.035c4.673-.018,9.359-.054,11.256-.069a1.152,1.152,0,0,0,1.061-.873l.716-3.5.139-.681.855-4.175a.7.7,0,0,0-.71-.871H272.783c-6.326,0-8.2-1.681-7.512-6.623H290.7l0,0c.006,0,.012,0,.017,0a1.05,1.05,0,0,0,.926-.656.906.906,0,0,0,.061-.222l0,0c3.775-14.24,2.692-23.831-13.481-23.831h0ZM197.407,25.6l-.241.852v0l-1.92,6.8-1.919,6.8a1.244,1.244,0,0,1-1.13.854H182.034c-7.707,0-9.585-6.028-7.707-14.921,1.876-9.1,5.556-14.749,13.143-15.322,10.367-.782,12.441,6.51,9.937,14.927Zm6.969,14.793s4.791-11.633,5.88-18.353C211.739,13.045,207.236,0,189.84,0c-17.3,0-24.806,12.454-27.672,25.994-2.865,13.637.889,25.6,18.087,25.5l13.567-.05L206.5,51.4a1.227,1.227,0,0,0,1.112-.863l2.208-8.425a.658.658,0,0,0-.664-.865l-2.117-.012-2.116-.013a.543.543,0,0,1-.6-.629.861.861,0,0,1,.052-.2h0Z" transform="translate(-68.88)" fill="#131b28"/>
    <path id="Path_3257" data-name="Path 3257" d="M385.051,56.473a.583.583,0,1,1-.583-.583A.583.583,0,0,1,385.051,56.473Z" transform="translate(-163.933 -23.867)" fill="#131b28"/>
    <path id="Path_3258" data-name="Path 3258" d="M3.426,26.985C-1.35,33.85-.756,42.78,2.892,50.073c.087.175.178.347.268.519.057.109.111.221.171.328.034.064.071.128.107.189.062.116.126.227.19.34.113.2.229.4.348.6.066.109.131.218.2.327.131.213.266.422.4.633.057.089.113.179.172.266q.285.425.585.845l.017.022c.032.045.066.088.1.132.174.239.352.476.533.709.066.085.133.171.2.256q.335.42.681.831t.7.8a.3.3,0,0,1,.026.029q.716.777,1.48,1.508c.077.073.152.147.228.217q.381.36.776.705c.044.039.089.076.133.113.227.2.46.394.693.586.1.077.192.153.288.229q.286.229.579.452l.309.235q.322.236.649.466c.08.057.156.113.237.167.022.015.042.032.065.046.207.143.419.28.63.417.091.06.181.123.273.182.324.206.654.409.987.6.09.052.182.1.273.154.245.142.491.28.741.416.135.073.274.141.41.211.176.092.351.186.531.276L17,63.94c.072.035.144.068.217.1q.505.243,1.018.469.486.211.98.407c.079.033.159.063.238.094q.517.2,1.041.383c.341.119.685.229,1.031.337l.249.074a9.983,9.983,0,0,0,1.064.3C45.931,70.321,52.64,52.23,52.64,52.23,47.005,59.571,37,61.506,27.527,59.351c-.359-.081-.707-.193-1.058-.3q-.645-.192-1.282-.411l-.14-.05q-.451-.16-.9-.333l-.252-.1q-.488-.193-.969-.4c-.065-.028-.129-.058-.194-.085q-.53-.24-1.054-.494c-.213-.1-.422-.214-.633-.322-.14-.074-.283-.144-.422-.221q-.383-.206-.758-.425c-.084-.048-.171-.093-.256-.143q-.5-.295-.988-.605c-.089-.057-.178-.118-.266-.178q-.355-.228-.7-.467c-.077-.052-.151-.108-.227-.159-.223-.158-.444-.318-.664-.48-.1-.074-.2-.149-.295-.223q-.437-.336-.867-.682-.377-.309-.746-.629l-.083-.069q-.4-.351-.784-.713c-.075-.072-.148-.141-.221-.213q-.287-.272-.564-.553c-.074-.074-.148-.147-.221-.221q-.352-.361-.692-.732l-.034-.036q-.358-.393-.7-.8c-.062-.074-.123-.146-.184-.218q-.257-.309-.5-.625-.094-.114-.185-.23c-.2-.258-.393-.515-.583-.776-5.261-7.176-7.151-17.074-2.947-25.2" transform="translate(0 -9.505)" fill="#0868ac"/>
    <path id="Path_3259" data-name="Path 3259" d="M29.919,17.448c-3.453,4.97-3.266,11.623-.572,16.879a21.97,21.97,0,0,0,1.528,2.55,12.136,12.136,0,0,0,1.778,2.22c.249.274.509.541.775.8.067.069.136.134.2.2.258.25.52.5.792.736.011.009.021.019.032.028s.006,0,.008.007c.3.263.61.516.925.765.07.053.139.109.21.164.315.242.637.48.967.706l.028.021c.146.1.294.194.442.291.07.046.138.1.209.138.235.151.474.3.717.439l.1.059c.209.12.421.239.634.354.074.042.15.078.226.117.147.077.294.155.443.229.022.011.045.021.067.031.3.15.611.294.924.431.067.03.136.056.2.084.251.107.5.21.758.308.108.041.217.08.324.119.231.085.463.164.7.242.106.034.209.068.315.1a7.714,7.714,0,0,0,1.006.291C61.492,48.72,65.609,34.99,65.609,34.99c-3.712,5.345-10.9,7.895-18.567,5.9q-.663-.174-1.313-.39-.518-.167-1.026-.363-.383-.147-.76-.307c-.068-.029-.138-.056-.2-.087q-.47-.2-.93-.432c-.158-.077-.312-.158-.466-.238l-.269-.139q-.3-.162-.59-.333c-.046-.026-.095-.052-.142-.08q-.362-.212-.714-.437c-.073-.046-.143-.1-.215-.144q-.233-.151-.464-.307-.49-.341-.964-.7l-.217-.171a21.5,21.5,0,0,1-7.283-10.379,16.105,16.105,0,0,1,1.257-12.921" transform="translate(-11.669 -5.75)" fill="#0868ac"/>
    <path id="Path_3260" data-name="Path 3260" d="M52.321,11.309A10.394,10.394,0,0,0,51.5,21.336,14.122,14.122,0,0,0,59.6,28.911c.147.055.294.1.442.154.065.019.129.042.2.061a5.541,5.541,0,0,0,.635.183c9.846,1.9,12.517-5.052,13.228-6.076C71.765,26.6,67.833,27.41,63.009,26.24q-.592-.152-1.167-.36a14.12,14.12,0,0,1-3.816-2.059c-4.317-3.275-7-9.523-4.181-14.612M163.216,69.668l-2.838,6.464h-3.134l.257-5.873-2.307,5.873H152.16l-.08-6.464.335-1.6h2.149l-.414,6.385,2.385-6.385h3l-.217,6.464,2.365-6.464h1.872Zm4.945,1.914c.276-1.262.2-1.5-.453-1.5h-.986l-.631,2.957-.966,3.092h-1.832l1.5-7.015.218-1.026h1.675l.217.473a4.4,4.4,0,0,1,1.911-.571c2.011,0,1.853,1.516,1.419,3.587Zm5.953-4.516c-.807,0-1.32-.236-1.123-1.221a1.438,1.438,0,0,1,1.635-1.223c.79,0,1.321.237,1.1,1.223A1.425,1.425,0,0,1,174.114,67.067Zm-.867,9.067h-1.814l.355-3.153.631-2.916-1.261-.277.354-1.714h3.449l-1.714,8.06Zm7.863-6.35-2.266.277-.651,3.074c-.178.848-.178,1.085.572,1.085h1.517l-.316,1.615a10.606,10.606,0,0,1-1.97.414c-2.326,0-2.306-1.281-1.891-3.193l.631-3.015-1.262-.275.374-1.715h1.321l.749-2.031h1.793l-.434,2.031h2.208l-.375,1.733Zm4.71.1a1.712,1.712,0,0,0-1.832,1.538l3.035-.256C187.159,70.5,187.021,69.886,185.819,69.886Zm-2.127,3c-.139.987.235,1.321,1.5,1.321h3.172l-.315,1.5a15.353,15.353,0,0,1-3.33.532c-3.528,0-3.568-1.989-3.114-4.118.453-2.089,1.26-4.157,4.67-4.157,3.292,0,3.45,1.99,2.641,4.926h-5.221Zm12.452,3.25h-1.812l.355-3.153,1.281-5.991-1.263-.3.375-1.715h3.45Zm6.549-6.246a1.712,1.712,0,0,0-1.833,1.538l3.036-.256C204.032,70.5,203.894,69.886,202.693,69.886Zm-2.129,3c-.138.987.237,1.321,1.5,1.321h3.174l-.316,1.5a15.369,15.369,0,0,1-3.331.532c-3.528,0-3.567-1.989-3.113-4.118.454-2.089,1.262-4.157,4.671-4.157,3.291,0,3.449,1.99,2.641,4.926Zm13.537-2.9S211.8,70,211.164,70c-1.341,0-1.478.413-1.576.846l-.08.394,4.258.316a11.741,11.741,0,0,1-.158,2.128c-.256,1.281-1.577,2.581-3.961,2.581a17.6,17.6,0,0,1-3.095-.452l.335-1.557h2.937c1.3,0,1.479-.356,1.558-.709l.1-.512-4.178-.316a6.723,6.723,0,0,1,.059-2.088c.316-1.42,1.615-2.641,4-2.641a18.356,18.356,0,0,1,3.094.432Zm7.924,0S219.72,70,219.088,70c-1.34,0-1.478.413-1.576.846l-.08.394,4.258.316a11.744,11.744,0,0,1-.158,2.128c-.256,1.281-1.577,2.581-3.961,2.581a17.607,17.607,0,0,1-3.094-.452l.335-1.557h2.936c1.3,0,1.478-.356,1.558-.709l.1-.512-4.179-.316a6.744,6.744,0,0,1,.059-2.088c.316-1.42,1.616-2.641,4-2.641a18.355,18.355,0,0,1,3.093.432Zm2.481,7.431H222.93l.059-1.183c-.572-.037-.867-.451-.729-1.143a1.428,1.428,0,0,1,1.636-1.221c.788,0,1.319.236,1.1,1.221Zm10.542-7.351c-1.181,0-1.6.709-1.872,2.01s-.2,2.069.985,2.069H235.8l.907-4.079Zm2.7,5.024-.218,1.045-1.654-.02-.237-.512a8.008,8.008,0,0,1-2.443.629c-2.523,0-2.642-2.068-2.189-4.157.453-2.129,1.439-4.139,3.942-4.139a7.614,7.614,0,0,1,2.129.453l1-3.409H239.9Zm6.524-5.1c-1.537,0-2.031.866-2.306,2.127-.256,1.281-.137,2.149,1.379,2.149,1.577,0,2.051-.847,2.326-2.149.277-1.223.2-2.127-1.4-2.127Zm-1.34,6.267c-3.252,0-3.509-2.029-3.075-4.139.454-2.108,1.6-4.118,4.849-4.118,3.232,0,3.528,2.01,3.073,4.118C247.328,74.26,246.184,76.251,242.933,76.251Zm18.448-.119.355-3.114.178-.887c.256-1.181.414-2.049-.828-2.049h-.965a7.679,7.679,0,0,1-.237,2.029l-.847,4.02H257.2l.355-3.114.177-.887c.257-1.181.414-2.049-.826-2.049h-.79l-1.3,6.05H252.71l1.715-8.059h1.655l.256.492a5.376,5.376,0,0,1,2.031-.592,1.463,1.463,0,0,1,1.38.709,5.994,5.994,0,0,1,2.326-.709c2.52,0,2.443,2.049,1.989,4.14l-.847,4.02h-1.833Zm8.377-6.148c-1.538,0-2.031.866-2.306,2.127-.256,1.281-.137,2.149,1.379,2.149,1.576,0,2.051-.847,2.326-2.149.275-1.223.2-2.127-1.4-2.127Zm-1.34,6.267c-3.253,0-3.508-2.029-3.074-4.139.453-2.108,1.6-4.118,4.848-4.118,3.233,0,3.528,2.01,3.074,4.118C272.813,74.26,271.669,76.251,268.418,76.251Zm10.324-4.668c.275-1.262.2-1.5-.453-1.5H277.3l-.631,2.957-.967,3.092h-1.832l1.5-7.015.217-1.026h1.675l.216.473a4.4,4.4,0,0,1,1.913-.571c2.009,0,1.851,1.516,1.418,3.587h-2.068Zm7.059-1.7a1.712,1.712,0,0,0-1.832,1.538L287,71.167c.138-.67,0-1.282-1.2-1.282Zm-2.129,3c-.137.987.237,1.321,1.5,1.321h3.173l-.315,1.5a15.36,15.36,0,0,1-3.33.532c-3.528,0-3.567-1.989-3.116-4.118.454-2.089,1.263-4.157,4.671-4.157,3.291,0,3.45,1.99,2.641,4.926Zm6.993,3.371c-.828,0-1.34-.236-1.122-1.2.2-.988.807-1.223,1.635-1.223.768,0,1.3.235,1.1,1.223A1.446,1.446,0,0,1,290.665,76.252Z" transform="translate(-21.603 -3.933)" fill="#0868ac"/>
  </g>
</svg>
