<svg xmlns="http://www.w3.org/2000/svg" width="151.874" height="128" viewBox="0 0 151.874 128">
  <g id="rest-api" transform="translate(0 -19.883)">
    <path id="Path_3230" data-name="Path 3230" d="M132.822,76.745A46.272,46.272,0,0,0,41.16,73.357H35.883A33.075,33.075,0,0,0,2.81,106.43h0A33.074,33.074,0,0,0,35.883,139.5h82.354a33.073,33.073,0,0,0,33.071-33.073h0A33.072,33.072,0,0,0,132.822,76.745Z" transform="translate(-1.123 -6.008)" fill="#69e3ff"/>
    <path id="Path_3231" data-name="Path 3231" d="M123.266,57.057h0a3.035,3.035,0,0,0,0-5.606,3.542,3.542,0,0,1-1.917-4.628l2.311-5.573a3.55,3.55,0,0,1,4.634-1.917,3.029,3.029,0,0,0,3.958-3.958,3.542,3.542,0,0,1,1.917-4.628l5.573-2.311a3.554,3.554,0,0,1,4.634,1.917,3.035,3.035,0,0,0,5.606,0,3.542,3.542,0,0,1,4.628-1.917l5.573,2.311a3.542,3.542,0,0,1,1.917,4.628,3.029,3.029,0,0,0,3.958,3.958,3.542,3.542,0,0,1,4.628,1.917L173,46.824a3.542,3.542,0,0,1-1.917,4.628,3.035,3.035,0,0,0,0,5.606A3.552,3.552,0,0,1,173,61.692l-2.311,5.573a3.542,3.542,0,0,1-4.628,1.917A3.029,3.029,0,0,0,162.1,73.14a3.552,3.552,0,0,1-1.917,4.634l-5.573,2.311a3.508,3.508,0,0,1-1.359.269,3.633,3.633,0,0,1-1.359-.269,3.518,3.518,0,0,1-1.917-1.917,2.969,2.969,0,0,0-2.8-1.871h0a2.974,2.974,0,0,0-2.8,1.871,3.552,3.552,0,0,1-4.634,1.917l-5.573-2.311a3.552,3.552,0,0,1-1.917-4.634,3.029,3.029,0,0,0-3.958-3.958,3.553,3.553,0,0,1-4.628-1.923l-2.311-5.573A3.545,3.545,0,0,1,123.266,57.057Zm23.914,6.984a9.787,9.787,0,1,0-9.787-9.787A9.8,9.8,0,0,0,147.18,64.042Z" transform="translate(-51.649 -6.59)" fill="#f9f9f9"/>
    <path id="Path_3232" data-name="Path 3232" d="M109.209,155.935H97.621a1.687,1.687,0,0,1-1.687-1.687V131.338a1.687,1.687,0,0,1,1.687-1.687h11.588a1.687,1.687,0,1,1,0,3.375h-9.9V152.56h9.9a1.687,1.687,0,1,1,0,3.375Z" transform="translate(-38.323 -43.849)"/>
    <path id="Path_3233" data-name="Path 3233" d="M105.7,152.1H97.621a1.687,1.687,0,1,1,0-3.375H105.7a1.687,1.687,0,1,1,0,3.375Z" transform="translate(-38.323 -51.468)"/>
    <path id="Path_3234" data-name="Path 3234" d="M65.839,144.48H57.952a1.687,1.687,0,0,1-1.687-1.687V131.338a1.687,1.687,0,0,1,1.687-1.687h7.887a6.075,6.075,0,0,1,6.068,6.068v2.695A6.075,6.075,0,0,1,65.839,144.48Zm-6.2-3.375h6.2a2.7,2.7,0,0,0,2.693-2.693v-2.695a2.7,2.7,0,0,0-2.693-2.693h-6.2Z" transform="translate(-22.476 -43.849)"/>
    <path id="Path_3235" data-name="Path 3235" d="M70.22,163.555a1.687,1.687,0,0,1-1.687-1.687v-7.074a2.7,2.7,0,0,0-2.693-2.693h-6.2v9.767a1.687,1.687,0,1,1-3.375,0V150.412a1.687,1.687,0,0,1,1.687-1.687h7.887a6.075,6.075,0,0,1,6.068,6.068v7.074A1.687,1.687,0,0,1,70.22,163.555Z" transform="translate(-22.476 -51.468)"/>
    <path id="Path_3236" data-name="Path 3236" d="M183.09,133.026H168.638a1.687,1.687,0,1,1,0-3.375H183.09a1.687,1.687,0,0,1,0,3.375Z" transform="translate(-66.692 -43.849)"/>
    <path id="Path_3237" data-name="Path 3237" d="M180.668,155.935a1.686,1.686,0,0,1-1.687-1.687V131.338a1.687,1.687,0,0,1,3.375,0v22.909A1.686,1.686,0,0,1,180.668,155.935Z" transform="translate(-71.497 -43.849)"/>
    <path id="Path_3238" data-name="Path 3238" d="M139.7,155.937H137.58a6.237,6.237,0,0,1-6.316-6.139,1.687,1.687,0,1,1,3.375,0,2.86,2.86,0,0,0,2.941,2.764H139.7a3.1,3.1,0,0,0,3.186-3v-2.081a3.1,3.1,0,0,0-3.186-3h-1.878a6.477,6.477,0,0,1-6.563-6.374V136.03a6.477,6.477,0,0,1,6.563-6.374h2.125a6.236,6.236,0,0,1,6.315,6.137,1.687,1.687,0,1,1-3.375,0,2.859,2.859,0,0,0-2.94-2.762h-2.125a3.1,3.1,0,0,0-3.188,3v2.081a3.1,3.1,0,0,0,3.188,3H139.7a6.476,6.476,0,0,1,6.561,6.374v2.081A6.477,6.477,0,0,1,139.7,155.937Z" transform="translate(-52.436 -43.851)"/>
    <path id="Path_3239" data-name="Path 3239" d="M95.466,215.542a1.687,1.687,0,0,1-1.687-1.687v-17.97a3.257,3.257,0,0,0-3.252-3.253h-4.34a3.256,3.256,0,0,0-3.252,3.253v17.968a1.687,1.687,0,1,1-3.375,0V195.885a6.635,6.635,0,0,1,6.627-6.628h4.34a6.634,6.634,0,0,1,6.627,6.628v17.968A1.688,1.688,0,0,1,95.466,215.542Z" transform="translate(-31.782 -67.659)"/>
    <path id="Path_3240" data-name="Path 3240" d="M95.465,211.708H81.244a1.687,1.687,0,1,1,0-3.375h14.22a1.687,1.687,0,1,1,0,3.375Z" transform="translate(-31.781 -75.28)"/>
    <path id="Path_3241" data-name="Path 3241" d="M164.642,215.543a1.686,1.686,0,0,1-1.687-1.687V190.947a1.687,1.687,0,0,1,3.375,0v22.909A1.687,1.687,0,0,1,164.642,215.543Z" transform="translate(-65.096 -67.661)"/>
    <path id="Path_3242" data-name="Path 3242" d="M133.506,205.484H125.12a1.687,1.687,0,0,1-1.687-1.687v-12.85a1.687,1.687,0,0,1,1.687-1.687h8.387a6.159,6.159,0,0,1,6.151,6.153v3.922A6.161,6.161,0,0,1,133.506,205.484Zm-6.7-3.375h6.7a2.78,2.78,0,0,0,2.776-2.778V195.41a2.78,2.78,0,0,0-2.776-2.778h-6.7Z" transform="translate(-49.307 -67.661)"/>
    <path id="Path_3243" data-name="Path 3243" d="M125.117,224.091a1.687,1.687,0,0,1-1.687-1.687V212.345a1.687,1.687,0,1,1,3.375,0V222.4A1.687,1.687,0,0,1,125.117,224.091Z" transform="translate(-49.306 -76.209)"/>
    <path id="Path_3244" data-name="Path 3244" d="M193.894,159.047a1.687,1.687,0,1,1,0-3.375,31.385,31.385,0,0,0,13.842-59.553,1.685,1.685,0,0,1-.935-1.353,44.381,44.381,0,0,0-3.193-12.8,1.688,1.688,0,0,1,3.118-1.294,47.78,47.78,0,0,1,3.336,12.849,34.76,34.76,0,0,1-16.17,65.53Z" transform="translate(-76.781 -23.866)"/>
    <path id="Path_3245" data-name="Path 3245" d="M34.761,144.725a34.759,34.759,0,1,1,0-69.518h3.874a48.019,48.019,0,0,1,21.63-31.176,1.687,1.687,0,0,1,1.789,2.862A44.636,44.636,0,0,0,41.7,77.179a1.689,1.689,0,0,1-1.664,1.4H34.761a31.385,31.385,0,1,0,0,62.769,1.687,1.687,0,1,1,0,3.373Z" transform="translate(0 -9.544)"/>
    <path id="Path_3246" data-name="Path 3246" d="M152.128,80.915a5.24,5.24,0,0,1-2-.4,5.178,5.178,0,0,1-2.829-2.829,1.34,1.34,0,0,0-2.481,0,5.24,5.24,0,0,1-6.833,2.829L132.4,78.2a5.237,5.237,0,0,1-2.829-6.833,1.347,1.347,0,0,0-1.759-1.759,5.256,5.256,0,0,1-6.84-2.829l-2.311-5.573a5.235,5.235,0,0,1,2.829-6.833h0a1.342,1.342,0,0,0,.007-2.481,5.23,5.23,0,0,1-2.829-6.833l2.311-5.573a5.245,5.245,0,0,1,6.84-2.829A1.347,1.347,0,0,0,129.58,34.9a5.23,5.23,0,0,1,2.829-6.833l5.573-2.311a5.25,5.25,0,0,1,6.84,2.829,1.344,1.344,0,0,0,2.481,0,5.236,5.236,0,0,1,6.84-2.836l5.573,2.311a5.231,5.231,0,0,1,2.836,2.829,5.167,5.167,0,0,1,0,4,1.345,1.345,0,0,0,1.753,1.759,5.236,5.236,0,0,1,6.84,2.836l2.3,5.573a5.166,5.166,0,0,1,0,4,5.222,5.222,0,0,1-2.836,2.836,1.342,1.342,0,0,0,.007,2.481,5.24,5.24,0,0,1,2.829,6.84L171.139,66.8a5.157,5.157,0,0,1-2.829,2.829,5.225,5.225,0,0,1-4,0,1.34,1.34,0,0,0-1.753,1.753,5.235,5.235,0,0,1-2.829,6.833l-5.573,2.311A5.406,5.406,0,0,1,152.128,80.915Zm-6.072-7.437a4.655,4.655,0,0,1,4.359,2.915,1.858,1.858,0,0,0,2.429,1l5.573-2.311a1.862,1.862,0,0,0,1-2.429,4.721,4.721,0,0,1,6.164-6.17,1.858,1.858,0,0,0,2.429-1l2.311-5.573a1.854,1.854,0,0,0-1-2.422,4.716,4.716,0,0,1,0-8.717,1.858,1.858,0,0,0,1-2.429l-2.311-5.573a1.858,1.858,0,0,0-2.429-1,4.716,4.716,0,0,1-6.164-6.164,1.858,1.858,0,0,0-1-2.429l-5.573-2.311a1.848,1.848,0,0,0-1.424,0,1.818,1.818,0,0,0-1,1,4.719,4.719,0,0,1-8.717.007,1.862,1.862,0,0,0-2.429-1l-5.573,2.3a1.858,1.858,0,0,0-1,2.429,4.721,4.721,0,0,1-6.17,6.164,1.861,1.861,0,0,0-2.429,1l-2.311,5.573a1.854,1.854,0,0,0,1,2.422,4.721,4.721,0,0,1,0,8.724l-.643-1.556.643,1.556a1.861,1.861,0,0,0-1,2.429l2.311,5.573a1.864,1.864,0,0,0,2.429,1,4.719,4.719,0,0,1,6.164,6.164,1.862,1.862,0,0,0,1,2.429l5.573,2.311a1.862,1.862,0,0,0,2.429-1A4.663,4.663,0,0,1,146.056,73.478Zm0-8.875a11.474,11.474,0,1,1,11.474-11.474A11.486,11.486,0,0,1,146.056,64.6Zm0-19.575a8.1,8.1,0,1,0,8.1,8.1A8.109,8.109,0,0,0,146.056,45.028Z" transform="translate(-50.525 -5.464)"/>
  </g>
</svg>
