<svg xmlns="http://www.w3.org/2000/svg" width="300" height="113.998" viewBox="0 0 300 113.998">
  <g id="signalr_logo" data-name="signalr logo" transform="translate(-54 -6346)">
    <path id="signalr-logo" d="M235.225,111.113l6.394-15.554h13.987a10.456,10.456,0,0,0,10.418-8.735,10.332,10.332,0,0,0-10.188-11.877H209.461l25.764-25.764V59.265H255.76c12.266,0,24.083,9.88,25.844,22.02a25.76,25.76,0,0,1-24.43,29.656l21.085,21.085a56.995,56.995,0,1,0-32.491,10.2,54.94,54.94,0,0,0,17.8-2.938Z" transform="translate(-134.727 6317.775)" fill="#59b4d9"/>
    <path id="text" d="M14.716-2.846A16.627,16.627,0,0,1,8.362-4,10.357,10.357,0,0,1,3.873-7.4,9.309,9.309,0,0,1,2.1-12.837h8.38a4.066,4.066,0,0,0,1.243,2.74,4,4,0,0,0,2.763.944,4.321,4.321,0,0,0,2.763-.806,2.7,2.7,0,0,0,1.013-2.233,2.643,2.643,0,0,0-.806-1.98,6.5,6.5,0,0,0-1.98-1.289,31.848,31.848,0,0,0-3.338-1.151,36.348,36.348,0,0,1-5.111-1.934A9.443,9.443,0,0,1,3.619-21.4a7.954,7.954,0,0,1-1.427-4.927A8.472,8.472,0,0,1,5.461-33.4a13.434,13.434,0,0,1,8.518-2.555A13.589,13.589,0,0,1,22.59-33.4a9.148,9.148,0,0,1,3.5,7.114H17.571a3.332,3.332,0,0,0-1.151-2.463,4.055,4.055,0,0,0-2.717-.9,3.386,3.386,0,0,0-2.3.76,2.74,2.74,0,0,0-.875,2.187A2.711,2.711,0,0,0,12-24.257a24.153,24.153,0,0,0,4.6,1.888,42.582,42.582,0,0,1,5.088,2.026,9.686,9.686,0,0,1,3.384,2.809A7.519,7.519,0,0,1,26.5-12.791a9.306,9.306,0,0,1-1.4,5.019,9.836,9.836,0,0,1-4.075,3.592A13.95,13.95,0,0,1,14.716-2.846ZM35.3-31.532a4.772,4.772,0,0,1-3.384-1.22A3.954,3.954,0,0,1,30.6-35.768a4.005,4.005,0,0,1,1.312-3.062A4.772,4.772,0,0,1,35.3-40.05a4.709,4.709,0,0,1,3.338,1.22,4.005,4.005,0,0,1,1.312,3.062,3.954,3.954,0,0,1-1.312,3.016A4.709,4.709,0,0,1,35.3-31.532Zm3.914,2.671V-3.168H31.339V-28.861Zm15.471-.368a9.887,9.887,0,0,1,4.766,1.105,8.141,8.141,0,0,1,3.154,2.9v-3.638h7.874V-3.214a14.451,14.451,0,0,1-1.4,6.423A10.7,10.7,0,0,1,64.79,7.791a13.852,13.852,0,0,1-7.16,1.7A14.892,14.892,0,0,1,48.375,6.8,10.167,10.167,0,0,1,44.323-.5H52.1a3.725,3.725,0,0,0,1.75,2.325,6.377,6.377,0,0,0,3.407.852,5.356,5.356,0,0,0,3.891-1.4A6.024,6.024,0,0,0,62.6-3.214V-6.852a8.733,8.733,0,0,1-3.177,2.924A9.592,9.592,0,0,1,54.683-2.8a10.527,10.527,0,0,1-5.756-1.635,11.3,11.3,0,0,1-4.075-4.651,15.5,15.5,0,0,1-1.5-6.976,15.356,15.356,0,0,1,1.5-6.953,11.162,11.162,0,0,1,4.075-4.6A10.638,10.638,0,0,1,54.683-29.229ZM62.6-16.015a6.438,6.438,0,0,0-1.635-4.651,5.311,5.311,0,0,0-3.983-1.7A5.346,5.346,0,0,0,53-20.688a6.356,6.356,0,0,0-1.635,4.628A6.52,6.52,0,0,0,53-11.387,5.277,5.277,0,0,0,56.986-9.66a5.311,5.311,0,0,0,3.983-1.7A6.438,6.438,0,0,0,62.6-16.015ZM91.842-29.137a9.324,9.324,0,0,1,7.206,2.924q2.694,2.924,2.694,8.035V-3.168H93.914V-17.12a5.639,5.639,0,0,0-1.335-4.006,4.682,4.682,0,0,0-3.592-1.427A4.682,4.682,0,0,0,85.4-21.126,5.639,5.639,0,0,0,84.06-17.12V-3.168H76.186V-28.861H84.06v3.407a8.307,8.307,0,0,1,3.223-2.694A10.247,10.247,0,0,1,91.842-29.137Zm13.813,13.077a15.356,15.356,0,0,1,1.5-6.953,11.162,11.162,0,0,1,4.075-4.6,10.639,10.639,0,0,1,5.756-1.612,9.887,9.887,0,0,1,4.766,1.105,8.141,8.141,0,0,1,3.154,2.9v-3.638h7.874V-3.168H124.9V-6.806a8.5,8.5,0,0,1-3.2,2.9A9.887,9.887,0,0,1,116.936-2.8a10.447,10.447,0,0,1-5.71-1.635,11.3,11.3,0,0,1-4.075-4.651A15.5,15.5,0,0,1,105.655-16.061Zm19.247.046a6.438,6.438,0,0,0-1.635-4.651,5.311,5.311,0,0,0-3.983-1.7,5.346,5.346,0,0,0-3.983,1.681,6.356,6.356,0,0,0-1.635,4.628,6.52,6.52,0,0,0,1.635,4.674,5.277,5.277,0,0,0,3.983,1.727,5.311,5.311,0,0,0,3.983-1.7A6.438,6.438,0,0,0,124.9-16.015Zm21.457-21.227V-3.168h-7.874V-37.241Zm13.583,12.662a10.386,10.386,0,0,1,3.453-3.338,8.9,8.9,0,0,1,4.6-1.22V-20.8h-2.164a6.634,6.634,0,0,0-4.42,1.266q-1.473,1.266-1.473,4.443V-3.168h-7.874V-28.861h7.874Z" transform="translate(186 6418)"/>
  </g>
</svg>
