<svg xmlns="http://www.w3.org/2000/svg" xmlns:xlink="http://www.w3.org/1999/xlink" width="300" height="82.518" viewBox="0 0 300 82.518">
  <defs>
    <clipPath id="clip-path">
      <path id="Path_3201" data-name="Path 3201" d="M748,100h67.66v51.456H748Zm0,0" transform="translate(-748 -100)"/>
    </clipPath>
    <clipPath id="clip-path-2">
      <path id="Path_3203" data-name="Path 3203" d="M500,65h73.926v62.328H500Zm0,0" transform="translate(-500 -65)"/>
    </clipPath>
    <clipPath id="clip-path-3">
      <path id="Path_3205" data-name="Path 3205" d="M262,113h71.441v47.418H262Zm0,0" transform="translate(-262 -113)"/>
    </clipPath>
    <clipPath id="clip-path-4">
      <path id="Path_3207" data-name="Path 3207" d="M26,109H96.509v48.661H26Zm0,0" transform="translate(-26 -109)"/>
    </clipPath>
  </defs>
  <g id="cuda" transform="translate(0)">
    <g id="Group_1445" data-name="Group 1445" transform="translate(232.34 31.061)" clip-path="url(#clip-path)">
      <path id="Path_3200" data-name="Path 3200" d="M815.762,127.146c0-5.848.006-11.7-.012-17.542,0-.49,0-1.181-.3-1.433a15.124,15.124,0,0,0-2.922-1.995c-5.518-2.805-11.546-4.087-17.561-4.919-9.032-1.251-18.159-.892-27.25-.178-1.181.093-1.59.591-1.573,1.773.046,3.2-.012,6.407-.033,9.611-.01,1.473.526,1.93,2.034,1.717a14.683,14.683,0,0,1,1.839-.255c5.019-.064,10.038-.2,15.054-.115a27.649,27.649,0,0,1,11.782,2.32,2.684,2.684,0,0,1,1.742,2.76c-.034,5.374-.085,10.75.013,16.123.032,1.7-.541,2.765-2.152,3.037-2.532.426-5.095.671-7.643,1.009-5.534.734-11.055.223-16.566-.253a8.092,8.092,0,0,1-3.316-1.115c-1.433-.853-3.117-1.75-2.548-3.937.563-2.161,2.535-2.235,4.14-2.317,8.006-.414,16.023-.729,24.01.354,1.273.172,1.876-.353,1.869-1.6-.015-2.947-.02-5.895-.084-8.84-.024-1.146-.389-2.214-1.671-2.5a51.117,51.117,0,0,0-6.238-1.216c-7-.684-14-.857-20.964.526-4.708.934-9.448,1.719-14.129,2.773-4.844,1.09-4.918,1.194-5.023,6.165-.119,5.585-.055,11.175-.03,16.762.006,1.439.5,2.669,2.068,3.088,2.745.732,5.494,1.45,8.251,2.137,8.237,2.052,16.658,2.454,25.087,2.671,2.259.058,4.532-.455,6.795-.421,6.173.093,12.12-1.239,18.051-2.679,1.951-.473,3.853-1.156,5.761-1.8a2.2,2.2,0,0,0,1.549-2.475c-.08-5.743-.035-11.487-.033-17.231" transform="translate(-748.134 -100.297)" fill="#1c1c1b"/>
    </g>
    <g id="Group_1446" data-name="Group 1446" transform="translate(155.307 20.19)" clip-path="url(#clip-path-2)">
      <path id="Path_3202" data-name="Path 3202" d="M572.829,99.379c-.036-10.288.556-20.578.9-30.866.04-1.238-.313-2.128-1.634-2.423-5.182-1.154-10.333-1.46-15.459.349-1.053.371-1.281.887-1.172,1.952.467,4.572.991,9.146,1.2,13.733.207,4.643.1,9.3.061,13.955-.046,4.8-.205,9.6-.273,14.4a2.647,2.647,0,0,1-2.438,2.888c-2.685.45-5.364,1-8.07,1.253a67.786,67.786,0,0,1-24.16-1.644c-1.739-.467-2.424-1.189-2.456-3.026-.027-1.655.051-3.312.034-4.969-.037-3.6.579-4.412,4.076-5.265a10.463,10.463,0,0,1,1.066-.205c5.093-.69,10.078-1.717,15.366-.85,4.307.706,8.566,1.123,12.422,3.356,1.133.658,1.716.238,1.7-1.109-.01-1.136-.058-2.273-.05-3.408.022-2.742.079-5.484.1-8.228.006-.973-.182-1.834-1.3-2.213a54.882,54.882,0,0,0-17.26-2.507,82.65,82.65,0,0,0-21.215,2.067c-3.7.933-7.483,1.564-11.219,2.368-1.9.41-2.4,1.076-2.4,3.013q-.006,6.9,0,13.813h.153q0,7.138,0,14.276a2.543,2.543,0,0,0,2.158,2.647c2.7.683,5.408,1.329,8.112,1.989,7.94,1.94,16.077,2.212,24.17,2.622,4.838.246,9.711-.332,14.571-.4A83.153,83.153,0,0,0,571.03,123.5a19.583,19.583,0,0,0,2.178-.817c.954-.393,1.171-1.092,1.089-2.121-.559-7.059-1.443-14.122-1.468-21.186" transform="translate(-500.44 -65.106)" fill="#1c1c1b"/>
    </g>
    <g id="Group_1447" data-name="Group 1447" transform="translate(81.381 35.099)" clip-path="url(#clip-path-3)">
      <path id="Path_3204" data-name="Path 3204" d="M333.4,116.251a2.108,2.108,0,0,0-1.781-2.2,32.075,32.075,0,0,0-14.461-.246c-3.4.632-3.465.739-3.5,4.224v.311q.053,8.849.107,17.7c.012,2.122.048,4.244.031,6.365-.01,1.337-.205,2.82-1.586,3.289a31.974,31.974,0,0,1-7.488,1.9c-3.794.314-7.638,0-11.456.1a19.2,19.2,0,0,1-8.524-1.978,3.311,3.311,0,0,1-2.219-3.469c.053-4.243.018-8.487.018-12.73h-.162c0-4.346-.008-8.693.006-13.039a2.2,2.2,0,0,0-1.924-2.545,45.324,45.324,0,0,0-16.045.021c-1.517.256-2.3,1.042-1.981,2.7a10.7,10.7,0,0,1,.046,2.013q-.045,17.228-.109,34.455a2.04,2.04,0,0,0,1.492,2.249c2.525.759,5.028,1.645,7.6,2.181a168.676,168.676,0,0,0,18.722,2.533c8.172.763,16.209.059,24.264-.815,3.481-.377,6.906-1.3,10.347-2.017,2.178-.455,4.354-.938,6.5-1.518,1.126-.3,2.368-.664,2.355-2.24-.036-4.862-.084-9.724-.115-14.584q-.075-11.328-.138-22.654" transform="translate(-262.25 -113.072)" fill="#1c1c1b"/>
    </g>
    <g id="Group_1448" data-name="Group 1448" transform="translate(8.076 33.857)" clip-path="url(#clip-path-4)">
      <path id="Path_3206" data-name="Path 3206" d="M95.032,138.784c-1.2.552-2.412,1.092-3.64,1.586-8.233,3.306-16.7,5.438-25.668,5.074-5.887-.071-11.763-.23-17.244-2.9-2.075-1.013-3.3-2.436-3.291-4.762.006-2.572.2-5.144.167-7.716a3.32,3.32,0,0,1,1.733-3.043,20.243,20.243,0,0,1,8.755-2.93,103.021,103.021,0,0,1,13.6-.916c8.355.041,16.8-.474,24.871,2.538,1.02.38,1.569-.257,1.561-1.3-.02-3.3-.118-6.608-.061-9.909.024-1.4-.417-2.123-1.844-2.3-3.948-.478-7.882-1.1-11.836-1.5-4.98-.51-9.98-1.252-14.96-1.183a169.712,169.712,0,0,0-19.615,1.445A59.558,59.558,0,0,0,28.839,116.3a2.225,2.225,0,0,0-1.091,1.313c-.352,1.662-.474,3.371-.777,5.045-1.1,6.13-.682,12.268-.127,18.4.22,2.417.541,4.825.86,7.232a5.017,5.017,0,0,0,3.129,4.415,62.669,62.669,0,0,0,19.377,4.634,105.112,105.112,0,0,0,17.789.2,124,124,0,0,0,26.946-4.851c.6-.188,1.41-.978,1.426-1.51.118-3.875.076-7.755.038-11.633-.01-.9-.534-1.149-1.376-.762" transform="translate(-26.194 -109.356)" fill="#1c1c1b"/>
    </g>
    <path id="Path_3208" data-name="Path 3208" d="M16.1,31.288c2.162-1.023,2.36-.984,1.858-3.374q-1.534-7.285-3.147-14.555c-.854-3.829-1.771-7.645-2.672-11.465A2.3,2.3,0,0,0,9.618,0C7.167.905,4.651,1.672,2.286,2.764.574,3.554-.47,5.056.21,7.091c1.043,3.126,2.031,6.288,3.352,9.3,1.764,4.021,3.992,7.841,5.7,11.882,1.217,2.875,3.982,4.368,6.835,3.017" transform="translate(0)" fill="#1c1c1b"/>
  </g>
</svg>
