<svg id="instagram-logo" xmlns="http://www.w3.org/2000/svg" width="56" height="56" viewBox="0 0 56 56">
  <path id="Path_367" data-name="Path 367" d="M40.546,0H15.454A15.471,15.471,0,0,0,0,15.454V40.546A15.471,15.471,0,0,0,15.454,56H40.546A15.472,15.472,0,0,0,56,40.546V15.454A15.471,15.471,0,0,0,40.546,0ZM51.032,40.546A10.5,10.5,0,0,1,40.546,51.031H15.454A10.5,10.5,0,0,1,4.969,40.546V15.454A10.5,10.5,0,0,1,15.454,4.969H40.546A10.5,10.5,0,0,1,51.031,15.454V40.546Z" fill="#a2cdff"/>
  <path id="Path_368" data-name="Path 368" d="M55.4,40.97A14.429,14.429,0,1,0,69.828,55.4,14.446,14.446,0,0,0,55.4,40.97Zm0,23.89A9.461,9.461,0,1,1,64.859,55.4,9.472,9.472,0,0,1,55.4,64.86Z" transform="translate(-27.398 -27.399)" fill="#a2cdff"/>
  <path id="Path_369" data-name="Path 369" d="M122.565,28.251a3.642,3.642,0,1,0,2.577,1.067A3.658,3.658,0,0,0,122.565,28.251Z" transform="translate(-79.53 -18.893)" fill="#a2cdff"/>
</svg>
