<svg xmlns="http://www.w3.org/2000/svg" width="56.097" height="56" viewBox="0 0 56.097 56">
  <g id="linkedin-logo" transform="translate(0 -0.08)">
    <path id="Path_364" data-name="Path 364" d="M6.772.08a6.77,6.77,0,1,0,6.767,6.768A6.772,6.772,0,0,0,6.772.08Z" fill="#a2cdff"/>
    <path id="Path_365" data-name="Path 365" d="M1.538,30.926H13.216V68.5H1.538Z" transform="translate(-0.607 -12.417)" fill="#a2cdff"/>
    <path id="Path_366" data-name="Path 366" d="M55.325,29.383a12.271,12.271,0,0,0-11.048,6.068H44.12V30.317H32.92V67.888H44.587V49.3c0-4.9.933-9.646,7.008-9.646,5.988,0,6.068,5.6,6.068,9.96V67.887H69.332V47.28c0-10.115-2.183-17.9-14.007-17.9Z" transform="translate(-13.236 -11.808)" fill="#a2cdff"/>
  </g>
</svg>
