<svg xmlns="http://www.w3.org/2000/svg" width="77.494" height="56" viewBox="0 0 77.494 56">
  <path id="youtube" d="M38.742,56.5h-.021c-2.338-.016-23.01-.2-28.867-1.788A11.977,11.977,0,0,1,1.427,46.29C-.105,40.536-.008,29.46,0,28.575c-.01-.88-.109-12.049,1.42-17.849l0-.017A12.23,12.23,0,0,1,9.845,2.232l.031-.008C15.666.7,36.378.516,38.721.5h.042C41.108.516,61.834.7,67.637,2.29A11.974,11.974,0,0,1,76.055,10.7c1.59,5.8,1.443,17,1.427,17.942.011.931.1,11.908-1.42,17.69,0,.006,0,.011,0,.017a11.979,11.979,0,0,1-8.432,8.423l-.017,0c-5.79,1.521-26.5,1.707-28.845,1.724h-.021ZM7.275,12.279C5.929,17.4,6.056,28.425,6.057,28.536v.08c-.04,3.058.1,11.913,1.218,16.107a5.9,5.9,0,0,0,4.156,4.143c4.321,1.169,21.158,1.537,27.311,1.58,6.169-.043,23.031-.4,27.32-1.523a5.907,5.907,0,0,0,4.147-4.142c1.118-4.256,1.258-13.068,1.217-16.106,0-.032,0-.064,0-.1.056-3.094-.054-12.053-1.213-16.281a.1.1,0,0,1,0-.012,5.908,5.908,0,0,0-4.159-4.152C61.774,6.964,44.911,6.6,38.742,6.554c-6.165.043-23.01.4-27.312,1.521a6.072,6.072,0,0,0-4.155,4.2Zm65.86,33.282h0Zm-42.108-4.8V16.24L52.216,28.5Zm0,0" transform="translate(0.002 -0.5)" fill="#a2cdff"/>
</svg>
