<?xml version="1.0" encoding="utf-8"?>
<!-- Generator: Adobe Illustrator 27.7.0, SVG Export Plug-In . SVG Version: 6.00 Build 0)  -->
<svg version="1.1" id="Layer_1" xmlns="http://www.w3.org/2000/svg" xmlns:xlink="http://www.w3.org/1999/xlink" x="0px" y="0px"
	 viewBox="0 0 300 84.5" style="enable-background:new 0 0 300 84.5;" xml:space="preserve">
<style type="text/css">
	.st0{fill:#90002B;}
	.st1{fill:#A70236;}
	.st2{fill:#D31048;}
	.st3{fill:#FFFFFE;}
	.st4{fill:#2C2A26;}
	.st5{fill:#858581;}
</style>
<path class="st0" d="M84.5,42.2L42.2,0L27.5,20.8L0,42.2L26.6,60l15.6,24.5L84.5,42.2z"/>
<path class="st1" d="M42.2,0l0,42.2l42.2,0L42.2,0z"/>
<path class="st2" d="M0,42.2h42.2l0-42.2L0,42.2z"/>
<path class="st1" d="M42.2,84.5l0-42.2H0L42.2,84.5z"/>
<path class="st3" d="M45.3,13.6l-3,2.7l-3-2.7l3,3L45.3,13.6z M48.3,16.6l-6,5.4l-6-5.4l6,6L48.3,16.6z M51.3,19.6l-9.1,7.6l-9-7.6
	l9,9.1L51.3,19.6z M54.3,22.6L42.2,33.5L30.2,22.6l12.1,13.6L54.3,22.6z M60.3,30.2L48.3,42.2l12.1,12.1l-9.7-12.1L60.3,30.2z
	 M54.3,42.2l9.1,9.1l-7.5-9.1l7.5-9.1L54.3,42.2z M61.8,42.2l6,6l-5.4-6l5.4-6L61.8,42.2z M67.9,42.2l3,3l-2.7-3l2.7-3L67.9,42.2z
	 M36.2,42.2L24.1,30.2l9.7,12.1l-9.7,12.1L36.2,42.2z M30.2,42.2l-9.1-9l7.5,9.1l-7.5,9.1L30.2,42.2z M24.1,42.2l-6-6l5.4,6.1
	l-5.4,6L24.1,42.2z M18.1,42.2l-3-3l2.7,3l-2.7,3L18.1,42.2z M57.3,57.3l-13-15.1l13-15.1L42.2,40.1L27.2,27.1l12.9,15.1L27.2,57.3
	l15.1-13L57.3,57.3z M45.3,69.4l-3-3l-3,3l3-2.7L45.3,69.4z M48.3,66.4l-6-6l-6,6l6-5.4L48.3,66.4z M51.3,63.3l-9.1-9.1l-9,9.1
	l9-7.6L51.3,63.3z M54.3,60.3L42.2,46.8L30.2,60.3l12.1-10.9L54.3,60.3z"/>
<path class="st4" d="M300,36.5c0-4.9-3.8-7.1-6.9-8.8c-2.3-1.3-4.2-2.4-4.2-4.2c0-1.5,1.4-2.5,3.5-2.5c2,0,3.9,0.8,5.6,2.5l1,0.9
	v-5.8l-0.3-0.2c-1.9-1.2-4-1.9-6.1-1.9c-5.1,0-8.4,2.9-8.4,7.4c0,4.1,3.4,6.1,6.4,8c2.5,1.5,4.7,2.8,4.7,5c0,1-1,2.6-3.6,2.6
	c-2.3,0-4.5-1.2-6.3-3.5l-1-1.3v6.6l0.2,0.2c2.3,1.7,4.7,2.5,7.6,2.5C296.7,44,300,40.9,300,36.5L300,36.5z M282,43.7v-4.5h-11.6
	V16.9h-4.9v26.8L282,43.7z M262,43.7v-4.5h-11.6V16.9h-4.9v26.8L262,43.7z M233.9,43.7h4.9V16.9h-4.9V43.7z M209.7,43.7V32.6h13.3
	v11.2h4.9V16.9h-4.9v11.1h-13.3V16.9h-4.9v26.8L209.7,43.7z M187.3,43.7h4.9V16.9h-4.3l-8.3,10.2l-8.3-10.2H167v26.8h4.9V24.8
	l7.1,8.9h1.2l7.1-8.9L187.3,43.7z M151.9,39.2V16.9H147v26.8h16.5v-4.5L151.9,39.2z M131.2,24.5l3.2,7.2h-6.2L131.2,24.5z M123,43.7
	l3.2-7.5h10.2l3.4,7.5h5.1l-12-26.9h-3.4L118,43.7H123z M110.9,28.2h-3.6v-6.8h3.8c3.3,0,3.8,2.1,3.8,3.3
	C114.8,26.9,113.4,28.2,110.9,28.2L110.9,28.2z M111,16.9h-8.6v26.8h4.9V32.6h3.3c6.8,0,9.3-4,9.3-7.7C119.8,21,117.5,16.9,111,16.9
	L111,16.9z"/>
<path class="st5" d="M296.8,60.2c-1.1-0.6-2-1.1-2-1.9c0-0.7,0.7-1.1,1.6-1.1c0.9,0,1.8,0.4,2.6,1.2l0.5,0.5V56l-0.1-0.1
	c-0.9-0.6-1.9-0.9-2.8-0.9c-2.4,0-4,1.4-4,3.5c0,1.9,1.6,2.9,3,3.7c1.2,0.7,2.2,1.3,2.2,2.3c0,0.5-0.5,1.2-1.7,1.2
	c-1.1,0-2.1-0.6-2.9-1.6l-0.5-0.7v3.2l0.1,0.1c1.1,0.8,2.2,1.2,3.5,1.2c2.1,0,3.7-1.5,3.7-3.5C300,62,298.2,61,296.8,60.2
	L296.8,60.2z M275.2,55.2v2.1h4.2v10.4h2.3V57.3h4.2v-2.1H275.2z M264.9,55.2v8.8l-7.7-8.8h-1.8v12.5h2.2V59l7.6,8.7h1.9V55.2H264.9
	z M241.5,65.6v-3.1h4.9v-2.1h-4.9v-3h5.1v-2.1h-7.4v12.5h7.6v-2.1L241.5,65.6z M229,55.2l-3.9,4.7l-3.9-4.7h-2.1v12.5h2.3v-8.8
	l3.3,4.1h0.6l3.3-4.1v8.8h2.3V55.2H229z M207.8,60.4h-1.7v-3.1h1.7c1.5,0,1.8,1,1.8,1.5C209.7,59.8,209,60.4,207.8,60.4L207.8,60.4z
	 M207.9,55.2h-4.1v12.5h2.3v-5.2h1.5c3.2,0,4.4-1.9,4.4-3.6C212,57.1,210.9,55.2,207.9,55.2L207.9,55.2z M189.6,65.7
	c-2.5,0-4.4-1.8-4.4-4.3c0-2.5,1.8-4.3,4.4-4.3c2.6,0,4.4,1.8,4.4,4.3C194,63.9,192.2,65.7,189.6,65.7z M189.6,55
	c-3.9,0-6.8,2.8-6.8,6.4c0,3.7,2.9,6.4,6.7,6.4c4.5,0,6.8-3.2,6.8-6.4C196.4,57.7,193.5,55,189.6,55L189.6,55z M171,65.6V55.2h-2.3
	v12.5h7.8v-2.1L171,65.6z M155.5,65.6v-3.1h4.9v-2.1h-4.9v-3h5.1v-2.1h-7.4v12.5h7.6v-2.1L155.5,65.6z M144.6,55.2l-3.4,8l-3.4-8
	h-2.4l5.5,12.7h0.7l5.3-12.7H144.6z M124.4,65.6v-3.1h4.9v-2.1h-4.9v-3h5.1v-2.1H122v12.5h7.6v-2.1L124.4,65.6z M111.7,61.4
	c0,1.5-1,4.1-4.5,4.1h-2.5v-8.3h2.4C110.5,57.3,111.7,59.4,111.7,61.4L111.7,61.4z M107.4,55.2h-5v12.5h5c4.3,0,6.7-3.2,6.7-6.3
	C114.1,58.4,112,55.2,107.4,55.2L107.4,55.2z"/>
</svg>
