<svg fill="#0055B8" id="Layer_1" enable-background="new 0 0 512 512" height="512" viewBox="0 0 512 512" width="512" xmlns="http://www.w3.org/2000/svg"><path d="m456.044 263c3.003 9.829 12.157 17 22.956 17 13.233 0 24-10.767 24-24s-10.767-24-24-24c-10.799 0-19.952 7.171-22.956 17h-32.925v-92.605h55.881c3.866 0 7-3.134 7-7v-43.742c9.829-3.003 17-12.157 17-22.956 0-13.233-10.767-24-24-24s-24 10.767-24 24c0 10.799 7.171 19.953 17 22.956v36.742h-48.881v-5.226c0-26.626-21.662-48.289-48.289-48.289h-5.226v-48.88h36.742c3.003 9.829 12.157 17 22.956 17 13.233 0 24-10.767 24-24s-10.767-24-24-24c-10.799 0-19.953 7.171-22.956 17h-43.742c-3.866 0-7 3.134-7 7v55.88h-92.604v-29.117c9.829-3.003 17-12.157 17-22.956 0-13.233-10.767-24-24-24s-24 10.767-24 24c0 10.799 7.171 19.953 17 22.956v29.117h-92.605v-55.88c0-3.866-3.134-7-7-7h-43.741c-3.004-9.829-12.158-17-22.957-17-13.233 0-24 10.767-24 24s10.767 24 24 24c10.799 0 19.953-7.171 22.956-17h36.741v48.88h-5.226c-26.626 0-48.288 21.663-48.288 48.289v5.226h-48.88v-36.742c9.829-3.003 17-12.157 17-22.956 0-13.233-10.767-24-24-24s-24 10.767-24 24c0 10.799 7.171 19.953 17 22.956v43.742c0 3.866 3.134 7 7 7h55.881v92.605h-32.925c-3.003-9.829-12.157-17-22.956-17-13.233 0-24 10.767-24 24s10.767 24 24 24c10.799 0 19.953-7.171 22.956-17h32.925v92.605h-55.881c-3.866 0-7 3.134-7 7v43.742c-9.829 3.003-17 12.157-17 22.956 0 13.233 10.767 24 24 24s24-10.767 24-24c0-10.799-7.171-19.953-17-22.956v-36.742h48.881v5.226c0 26.626 21.662 48.289 48.288 48.289h5.227v48.88h-36.742c-3.003-9.829-12.157-17-22.956-17-13.233 0-24 10.767-24 24s10.767 24 24 24c10.799 0 19.953-7.171 22.956-17h43.742c3.866 0 7-3.134 7-7v-55.88h92.604v32.924c-9.829 3.003-17 12.157-17 22.956 0 13.233 10.767 24 24 24s24-10.767 24-24c0-10.799-7.171-19.953-17-22.956v-32.924h92.604v55.88c0 3.866 3.134 7 7 7h43.742c3.003 9.829 12.157 17 22.956 17 13.233 0 24-10.767 24-24s-10.767-24-24-24c-10.799 0-19.953 7.171-22.956 17h-36.742v-48.88h5.226c26.627 0 48.289-21.663 48.289-48.289v-5.226h48.881v36.742c-9.829 3.003-17 12.157-17 22.956 0 13.233 10.767 24 24 24s24-10.767 24-24c0-10.799-7.171-19.953-17-22.956v-43.742c0-3.866-3.134-7-7-7h-55.881v-92.605zm22.956-17c5.514 0 10 4.486 10 10s-4.486 10-10 10-10-4.486-10-10 4.486-10 10-10zm-10-163.303c0-5.514 4.486-10 10-10s10 4.486 10 10-4.486 10-10 10-10-4.486-10-10zm-39.697-59.697c5.514 0 10 4.486 10 10s-4.486 10-10 10-10-4.486-10-10 4.486-10 10-10zm-183.303 13.807c0-5.514 4.486-10 10-10s10 4.486 10 10-4.486 10-10 10-10-4.486-10-10zm-163.303 6.193c-5.514 0-10-4.486-10-10s4.486-10 10-10 10 4.486 10 10-4.486 10-10 10zm-59.697 39.697c0-5.514 4.486-10 10-10s10 4.486 10 10-4.486 10-10 10-10-4.486-10-10zm10 183.303c-5.514 0-10-4.486-10-10s4.486-10 10-10 10 4.486 10 10-4.486 10-10 10zm10 163.303c0 5.514-4.486 10-10 10s-10-4.486-10-10 4.486-10 10-10 10 4.486 10 10zm39.697 59.697c-5.514 0-10-4.486-10-10s4.486-10 10-10 10 4.486 10 10-4.486 10-10 10zm183.303-10c0 5.514-4.486 10-10 10s-10-4.486-10-10 4.486-10 10-10 10 4.486 10 10zm163.303-10c5.514 0 10 4.486 10 10s-4.486 10-10 10-10-4.486-10-10 4.486-10 10-10zm59.697-39.697c0 5.514-4.486 10-10 10s-10-4.486-10-10 4.486-10 10-10 10 4.486 10 10zm-79.881-54.472c0 18.907-15.382 34.289-34.289 34.289h-237.661c-18.906 0-34.288-15.382-34.288-34.289v-237.662c0-18.907 15.382-34.289 34.288-34.289h237.661c18.907 0 34.289 15.382 34.289 34.289zm-45.665-144.886c-9.075 0-14.747-5.888-17.03-11.399-2.282-5.511-2.436-13.686 3.981-20.103 2.749-2.749 4.264-6.404 4.264-10.292s-1.515-7.543-4.263-10.292l-16.265-16.265c-5.675-5.674-14.908-5.676-20.585 0-6.416 6.418-14.593 6.263-20.103 3.981-5.511-2.283-11.399-7.955-11.399-17.03 0-8.025-6.529-14.555-14.555-14.555h-23c-8.025 0-14.555 6.529-14.555 14.555 0 9.075-5.889 14.747-11.399 17.03-5.509 2.284-13.685 2.437-20.103-3.981-5.676-5.676-14.909-5.674-20.585 0l-16.264 16.264c-2.749 2.749-4.264 6.404-4.264 10.292s1.515 7.543 4.263 10.292c6.418 6.417 6.265 14.592 3.982 20.103s-7.955 11.399-17.03 11.399c-8.025 0-14.555 6.529-14.555 14.555v23.001c0 8.025 6.529 14.554 14.555 14.554 9.075 0 14.747 5.888 17.029 11.399 2.283 5.511 2.437 13.687-3.98 20.103-2.749 2.749-4.264 6.404-4.264 10.292s1.515 7.543 4.263 10.292l16.266 16.265c5.674 5.675 14.908 5.673 20.584 0 6.427-6.428 14.604-6.281 20.11-4 5.507 2.281 11.392 7.958 11.392 17.049 0 8.025 6.529 14.554 14.555 14.554h23c8.025 0 14.555-6.529 14.555-14.554 0-9.075 5.889-14.748 11.399-17.03 5.509-2.282 13.685-2.436 20.104 3.982 5.675 5.675 14.909 5.673 20.584 0l16.265-16.265c2.748-2.749 4.263-6.404 4.263-10.292 0-3.889-1.515-7.544-4.263-10.292-6.418-6.417-6.265-14.593-3.981-20.104 2.282-5.511 7.954-11.399 17.029-11.399 8.025 0 14.555-6.529 14.555-14.554v-23c0-8.026-6.53-14.555-14.555-14.555zm.555 37.555c0 .306-.249.554-.555.554-13.362 0-24.844 7.679-29.964 20.041-5.121 12.363-2.433 25.913 7.017 35.362.04.04.162.162.162.391 0 .23-.122.353-.163.393l-16.264 16.264c-.217.216-.57.217-.785 0-9.45-9.449-23.001-12.137-35.36-7.017-12.362 5.121-20.042 16.603-20.042 29.965 0 .306-.249.554-.555.554h-23c-.306 0-.555-.249-.555-.554 0-13.375-7.677-24.864-20.034-29.983-4.142-1.715-8.415-2.553-12.626-2.553-8.354 0-16.453 3.3-22.741 9.587-.216.216-.569.217-.785 0l-16.265-16.265c-.041-.04-.163-.163-.163-.393 0-.229.122-.351.163-.392 9.448-9.449 12.137-22.999 7.016-35.361-5.12-12.362-16.602-20.041-29.964-20.041-.306 0-.555-.249-.555-.554v-22.998c0-.306.249-.555.555-.555 13.362 0 24.844-7.679 29.964-20.042 5.121-12.362 2.433-25.911-7.017-35.36-.04-.04-.162-.162-.162-.392s.122-.352.163-.393l16.265-16.265c.04-.04.162-.162.392-.162s.353.122.393.162c9.449 9.449 22.999 12.137 35.361 7.017 12.361-5.121 20.041-16.602 20.041-29.964 0-.306.249-.555.555-.555h23c.306 0 .555.249.555.555 0 13.362 7.68 24.844 20.041 29.964 12.363 5.121 25.912 2.433 35.361-7.017.04-.04.162-.162.393-.162.229 0 .352.122.392.162l16.266 16.265c.04.04.162.162.162.392s-.122.352-.163.393c-9.448 9.449-12.137 22.998-7.016 35.36 5.12 12.362 16.602 20.042 29.964 20.042.306 0 .555.249.555.555v23zm-108.009-74.703c-34.85 0-63.202 28.353-63.202 63.203s28.352 63.203 63.202 63.203c34.851 0 63.203-28.353 63.203-63.203s-28.352-63.203-63.203-63.203zm0 112.406c-27.13 0-49.202-22.072-49.202-49.203 0-27.13 22.072-49.203 49.202-49.203 27.131 0 49.203 22.072 49.203 49.203s-22.072 49.203-49.203 49.203z"/></svg>