<svg xmlns="http://www.w3.org/2000/svg" width="128" height="135.2" viewBox="0 0 128 135.2">
  <path id="CRM" d="M140.453,52.547H131.8a54.062,54.062,0,0,0-6.792-16.387l6.12-6.12a2.121,2.121,0,0,0,0-3l-14.6-14.6a2.121,2.121,0,0,0-3,0l-6.12,6.12a54.064,54.064,0,0,0-16.387-6.792V3.115A2.121,2.121,0,0,0,88.9.994H68.248a2.121,2.121,0,0,0-2.121,2.121v8.65A54.043,54.043,0,0,0,49.74,18.557l-6.12-6.12a2.121,2.121,0,0,0-3,0l-14.6,14.6a2.121,2.121,0,0,0,0,3l6.12,6.121a54.054,54.054,0,0,0-6.792,16.387H16.695a2.121,2.121,0,0,0-2.121,2.121V75.32a2.121,2.121,0,0,0,2.121,2.121h8.05l-5.519,27.7a4.227,4.227,0,0,0,3.315,4.964l10.553,2.1a4.242,4.242,0,0,0,.83.082A4.222,4.222,0,0,0,38,109.12l24.691,24.691a8.149,8.149,0,0,0,13.583-3.471l3.152,3.152A8.148,8.148,0,0,0,93.017,130a8.143,8.143,0,0,0,13.5-6.147q0-.2-.009-.39a8.132,8.132,0,0,0,6.156-2.374,8.232,8.232,0,0,0,2.049-8.064l4.339-4.338.042.209a4.218,4.218,0,0,0,4.964,3.315l10.553-2.1a4.227,4.227,0,0,0,3.315-4.964l-5.519-27.7h8.05a2.121,2.121,0,0,0,2.121-2.121V54.668a2.121,2.121,0,0,0-2.121-2.121ZM33.9,108.046,23.39,105.952l8.193-41.124L42.1,66.922Zm80.3-45.28a4.18,4.18,0,0,0-2.3,1.31,16.292,16.292,0,0,0-7.1-6.332,9.749,9.749,0,1,0-16.534-7c0,.191.007.379.018.567a16.28,16.28,0,0,0-2.935-1.752,9.752,9.752,0,1,0-13.562,0,16.264,16.264,0,0,0-2.935,1.752c.011-.188.018-.377.018-.567a9.752,9.752,0,1,0-16.537,6.993,16.227,16.227,0,0,0-7.094,6.337,4.181,4.181,0,0,0-2.3-1.312l-1.98-.394a37.7,37.7,0,0,1,75.22,0ZM53.614,50.748a5.51,5.51,0,1,1,5.514,5.51h-.007a5.516,5.516,0,0,1-5.506-5.51Zm5.51,9.752h.006a12.072,12.072,0,0,1,10.06,5.5l-.012.01H49.043a11.972,11.972,0,0,1,10.076-5.5Zm14.251,2-.914.763a16.387,16.387,0,0,0-4.565-4.4,12.01,12.01,0,0,1,10.671-6.544h.011a12.01,12.01,0,0,1,10.668,6.536,16.34,16.34,0,0,0-3.193,2.7A10.869,10.869,0,0,0,73.376,62.5Zm-.312-19.935a5.51,5.51,0,1,1,5.514,5.51H78.57A5.516,5.516,0,0,1,73.064,42.565ZM98.027,56.258h-.007a5.51,5.51,0,1,1,.007,0ZM98.019,60.5h.01a12.005,12.005,0,0,1,11.3,7.985c-5.509,1.459-12.016,1.381-19.829-4.4A12,12,0,0,1,98.019,60.5Zm11.642,57.589a3.914,3.914,0,0,1-5.522.006l0,0,0,0L86.18,100.135a2.121,2.121,0,0,0-3,3l17.953,17.953.006.006a3.909,3.909,0,0,1-5.534,5.522l-18.97-18.97a2.121,2.121,0,1,0-3,3l14.317,14.317,0,0a3.909,3.909,0,0,1-5.528,5.528L67.091,115.155a2.121,2.121,0,0,0-3,3l7.129,7.129a3.909,3.909,0,0,1-5.528,5.528L39.008,104.127l6.75-33.882H64.1l-4.873,4.069a7.634,7.634,0,0,0-2.861,7.607l4.292,19.669a2.121,2.121,0,0,0,2.58,1.607c11.683-2.879,12.432-11.4,13.094-18.922q.062-.711.128-1.428c.872-.1,3.846.757,8.2,4.709l25.815,26.191a3.949,3.949,0,0,1-.81,4.341Zm2.577-8.591-24.6-24.96c-.027-.027-.054-.053-.082-.079-5.1-4.645-9.739-6.669-12.735-5.55a3.942,3.942,0,0,0-2.565,3.361c0,.016,0,.033-.006.05-.05.53-.1,1.058-.143,1.584-.608,6.906-1.061,12.061-7.794,14.543l-3.8-17.429a3.507,3.507,0,0,1,1.435-3.447l14.15-11.814c2.579-2.153,6.215-2.027,9.049.31,10.7,8.832,19.693,8.282,26.635,6.128l6.274,31.49Zm11.007-1.451-8.2-41.124,10.517-2.1,8.193,41.124ZM138.332,73.2h-6.775l-1.837-9.221a4.227,4.227,0,0,0-4.965-3.315l-4.382.873a41.943,41.943,0,0,0-83.6,0l-4.383-.873a4.226,4.226,0,0,0-4.965,3.315L25.589,73.2H18.815V56.789h8.242a2.121,2.121,0,0,0,2.08-1.706,49.917,49.917,0,0,1,7.475-18.034,2.121,2.121,0,0,0-.264-2.677L30.516,28.54l11.6-11.6,5.83,5.831a2.122,2.122,0,0,0,2.677.264,49.907,49.907,0,0,1,18.034-7.475,2.121,2.121,0,0,0,1.706-2.08V5.235H86.779v8.241a2.121,2.121,0,0,0,1.706,2.08,49.919,49.919,0,0,1,18.035,7.475,2.12,2.12,0,0,0,2.677-.264l5.831-5.831,11.6,11.6-5.831,5.83a2.122,2.122,0,0,0-.264,2.677,49.912,49.912,0,0,1,7.475,18.035,2.121,2.121,0,0,0,2.08,1.706h8.241Z" transform="translate(-14.574 -0.994)" fill="#0055b8"/>
</svg>
