<svg xmlns="http://www.w3.org/2000/svg" width="132.5" height="132.5" viewBox="0 0 132.5 132.5">
  <g id="ERP" transform="translate(-7.75 674.914)">
    <path id="path4458" d="M-82.675-25.96a.858.858,0,0,0-1.105.091L-96.161-13.487a.858.858,0,0,0-.092,1.105l6.206,8.688a.425.425,0,0,1,.04.424q-.478,1.048-.885,2.134a.426.426,0,0,1-.329.271L-101.751.891a.858.858,0,0,0-.717.846V19.247a.858.858,0,0,0,.717.846l10.53,1.755a.426.426,0,0,1,.329.272q.406,1.085.885,2.134a.425.425,0,0,1-.04.424l-6.206,8.688a.858.858,0,0,0,.092,1.105L-83.78,46.853a.858.858,0,0,0,1.105.091l8.688-6.206a.425.425,0,0,1,.425-.04q1.048.479,2.134.885a.427.427,0,0,1,.272.328L-69.4,52.442a.858.858,0,0,0,.846.717h17.51a.858.858,0,0,0,.846-.717l1.755-10.531a.426.426,0,0,1,.272-.328q1.085-.406,2.134-.885a.425.425,0,0,1,.424.04l8.688,6.206a.858.858,0,0,0,1.105-.091L-23.44,34.471a.858.858,0,0,0,.092-1.105l-6.206-8.688a.425.425,0,0,1-.04-.424q.478-1.048.885-2.134a.426.426,0,0,1,.329-.272l10.53-1.755a.858.858,0,0,0,.717-.846V1.737a.858.858,0,0,0-.717-.846L-28.381-.864a.426.426,0,0,1-.329-.271q-.406-1.086-.885-2.134a.425.425,0,0,1,.04-.424l6.206-8.688a.858.858,0,0,0-.092-1.105L-35.821-25.869a.858.858,0,0,0-1.105-.091l-8.688,6.206a.426.426,0,0,1-.424.04q-1.048-.478-2.134-.885a.425.425,0,0,1-.272-.328L-50.2-31.458a.858.858,0,0,0-.846-.717h-17.51a.858.858,0,0,0-.846.717l-1.755,10.531a.426.426,0,0,1-.272.328q-1.086.406-2.134.885a.427.427,0,0,1-.425-.04l-1.439-1.028" transform="translate(133.802 -619.156)" fill="none" stroke="#0055b8" stroke-linecap="round" stroke-linejoin="round" stroke-miterlimit="10" stroke-width="4.5"/>
    <path id="path4462" d="M-44.556-22.277a5.333,5.333,0,0,1-5.333,5.333,5.333,5.333,0,0,1-5.333-5.333,5.333,5.333,0,0,1,5.333-5.333A5.333,5.333,0,0,1-44.556-22.277Z" transform="translate(81.224 -645.054)" fill="none" stroke="#0055b8" stroke-linecap="round" stroke-linejoin="round" stroke-miterlimit="10" stroke-width="4.5"/>
    <path id="path4466" d="M-44.555-22.277a5.333,5.333,0,0,1-5.333,5.333,5.333,5.333,0,0,1-5.333-5.333,5.333,5.333,0,0,1,5.333-5.333A5.333,5.333,0,0,1-44.555-22.277Z" transform="translate(123.888 -645.054)" fill="none" stroke="#0055b8" stroke-linecap="round" stroke-linejoin="round" stroke-miterlimit="10" stroke-width="4.5"/>
    <path id="path4470" d="M0,0V10.667l12.5,12.5" transform="translate(31.335 -661.998)" fill="none" stroke="#0055b8" stroke-linecap="round" stroke-linejoin="round" stroke-miterlimit="10" stroke-width="4.5"/>
    <path id="path4474" d="M0-22.277a5.333,5.333,0,0,0,5.334,5.333,5.333,5.333,0,0,0,5.333-5.333,5.333,5.333,0,0,0-5.333-5.333A5.333,5.333,0,0,0,0-22.277Z" transform="translate(111.335 -645.054)" fill="none" stroke="#0055b8" stroke-linecap="round" stroke-linejoin="round" stroke-miterlimit="10" stroke-width="4.5"/>
    <path id="path4478" d="M-52.2,0V10.667l-12.5,12.5" transform="translate(168.867 -661.998)" fill="none" stroke="#0055b8" stroke-linecap="round" stroke-linejoin="round" stroke-miterlimit="10" stroke-width="4.5"/>
    <path id="path4482" d="M0,0V10.667" transform="translate(74 -661.998)" fill="none" stroke="#0055b8" stroke-linecap="round" stroke-linejoin="round" stroke-miterlimit="10" stroke-width="4.5"/>
    <path id="path4486" d="M-44.556-22.277a5.333,5.333,0,0,0-5.333-5.333,5.333,5.333,0,0,0-5.333,5.333,5.333,5.333,0,0,0,5.333,5.334A5.333,5.333,0,0,0-44.556-22.277Z" transform="translate(81.224 -527.72)" fill="none" stroke="#0055b8" stroke-linecap="round" stroke-linejoin="round" stroke-miterlimit="10" stroke-width="4.5"/>
    <path id="path4490" d="M-44.555-22.277a5.333,5.333,0,0,0-5.333-5.333,5.333,5.333,0,0,0-5.333,5.333,5.333,5.333,0,0,0,5.333,5.334A5.333,5.333,0,0,0-44.555-22.277Z" transform="translate(123.888 -527.72)" fill="none" stroke="#0055b8" stroke-linecap="round" stroke-linejoin="round" stroke-miterlimit="10" stroke-width="4.5"/>
    <path id="path4494" d="M0-96.755v-10.667l12.5-12.5" transform="translate(31.335 -458.576)" fill="none" stroke="#0055b8" stroke-linecap="round" stroke-linejoin="round" stroke-miterlimit="10" stroke-width="4.5"/>
    <path id="path4498" d="M0-22.277a5.333,5.333,0,0,1,5.334-5.333,5.333,5.333,0,0,1,5.333,5.333,5.333,5.333,0,0,1-5.333,5.334A5.333,5.333,0,0,1,0-22.277Z" transform="translate(111.335 -527.72)" fill="none" stroke="#0055b8" stroke-linecap="round" stroke-linejoin="round" stroke-miterlimit="10" stroke-width="4.5"/>
    <path id="path4502" d="M-52.2-96.755v-10.667l-12.5-12.5" transform="translate(168.867 -458.576)" fill="none" stroke="#0055b8" stroke-linecap="round" stroke-linejoin="round" stroke-miterlimit="10" stroke-width="4.5"/>
    <path id="path4506" d="M0-44.556V-55.223" transform="translate(74 -510.775)" fill="none" stroke="#0055b8" stroke-linecap="round" stroke-linejoin="round" stroke-miterlimit="10" stroke-width="4.5"/>
    <path id="path4510" d="M-22.277,0a5.333,5.333,0,0,1,5.334,5.334,5.333,5.333,0,0,1-5.334,5.333,5.333,5.333,0,0,1-5.333-5.333A5.333,5.333,0,0,1-22.277,0Z" transform="translate(37.611 -613.998)" fill="none" stroke="#0055b8" stroke-linecap="round" stroke-linejoin="round" stroke-miterlimit="10" stroke-width="4.5"/>
    <path id="path4514" d="M-44.555,0H-55.221" transform="translate(75.888 -608.664)" fill="none" stroke="#0055b8" stroke-linecap="round" stroke-linejoin="round" stroke-miterlimit="10" stroke-width="4.5"/>
    <path id="path4518" d="M-22.278,0a5.333,5.333,0,0,0-5.334,5.334,5.333,5.333,0,0,0,5.334,5.333,5.333,5.333,0,0,0,5.333-5.333A5.333,5.333,0,0,0-22.278,0Z" transform="translate(154.945 -613.998)" fill="none" stroke="#0055b8" stroke-linecap="round" stroke-linejoin="round" stroke-miterlimit="10" stroke-width="4.5"/>
    <path id="path4522" d="M-44.555,0H-55.221" transform="translate(171.888 -608.664)" fill="none" stroke="#0055b8" stroke-linecap="round" stroke-linejoin="round" stroke-miterlimit="10" stroke-width="4.5"/>
    <path id="path4526" d="M0-30.45a24.889,24.889,0,0,1,35.2,0" transform="translate(56.402 -595.813)" fill="none" stroke="#0055b8" stroke-linecap="round" stroke-linejoin="round" stroke-miterlimit="10" stroke-width="4.5"/>
    <path id="path4530" d="M-87.121-29.56a24.848,24.848,0,0,1-20.857-7.077" transform="translate(164.381 -554.428)" fill="none" stroke="#0055b8" stroke-linecap="round" stroke-linejoin="round" stroke-miterlimit="10" stroke-width="4.5"/>
    <path id="path4534" d="M-24.122,0A24.883,24.883,0,0,1-29.9,4.309" transform="translate(115.723 -591.065)" fill="none" stroke="#0055b8" stroke-linecap="round" stroke-linejoin="round" stroke-miterlimit="10" stroke-width="4.5"/>
    <path id="path4538" d="M0-31.287v-7.49H8.988" transform="translate(52.568 -577.377)" fill="none" stroke="#0055b8" stroke-linecap="round" stroke-linejoin="round" stroke-miterlimit="10" stroke-width="4.5"/>
    <path id="path4542" d="M-37.543-31.286h-8.988v-7.49h8.988" transform="translate(99.098 -569.888)" fill="none" stroke="#0055b8" stroke-linecap="round" stroke-linejoin="round" stroke-miterlimit="10" stroke-width="4.5"/>
    <path id="path4546" d="M-21.9-31.287h-5.243v-7.49H-21.9a3.745,3.745,0,0,1,3.745,3.745A3.745,3.745,0,0,1-21.9-31.287Z" transform="translate(96.363 -577.377)" fill="none" stroke="#0055b8" stroke-linecap="round" stroke-linejoin="round" stroke-miterlimit="10" stroke-width="4.5"/>
    <path id="path4550" d="M0,0A3.745,3.745,0,0,1,3.745,3.745V7.49" transform="translate(74.463 -608.664)" fill="none" stroke="#0055b8" stroke-linecap="round" stroke-linejoin="round" stroke-miterlimit="10" stroke-width="4.5"/>
    <path id="path4554" d="M0-31.286v-7.49" transform="translate(69.221 -569.888)" fill="none" stroke="#0055b8" stroke-linecap="round" stroke-linejoin="round" stroke-miterlimit="10" stroke-width="4.5"/>
    <path id="path4558" d="M-21.9-31.287h-5.243v-7.49H-21.9a3.745,3.745,0,0,1,3.745,3.745A3.745,3.745,0,0,1-21.9-31.287Z" transform="translate(113.587 -577.377)" fill="none" stroke="#0055b8" stroke-linecap="round" stroke-linejoin="round" stroke-miterlimit="10" stroke-width="4.5"/>
    <path id="path4562" d="M0-31.286v-7.49" transform="translate(86.445 -569.888)" fill="none" stroke="#0055b8" stroke-linecap="round" stroke-linejoin="round" stroke-miterlimit="10" stroke-width="4.5"/>
  </g>
</svg>
