<svg fill="#0055B8" id="line" viewBox="0 0 64 64" xmlns="http://www.w3.org/2000/svg"><path d="m29.26514 25.90625c3.97607 0 7.21045-3.22412 7.21045-7.1875-.37772-9.52794-14.04403-9.52576-14.42042.00007.00001 3.9633 3.23439 7.18743 7.20997 7.18743zm0-12.375c2.87305 0 5.21045 2.32715 5.21045 5.1875-.24432 6.86528-10.17701 6.86401-10.42042-.00009 0-2.86027 2.33741-5.18741 5.20997-5.18741z"/><path d="m46.32617 33.31689c-3.97559 0-7.20996 3.22412-7.20996 7.1875.37784 9.52818 14.04354 9.5255 14.41993-.00007-.00001-3.9633-3.23439-7.18743-7.20997-7.18743zm0 12.375c-2.87305 0-5.20996-2.32715-5.20996-5.1875.24412-6.86559 10.17684-6.86382 10.41993.00009 0 2.86027-2.33692 5.18741-5.20997 5.18741z"/><path d="m15.72656 22.53076 3.45947 5.97021c.2373.40918.72852.59619 1.17725.44873l2.93115-.96289c.29248.18701.59473.36084.90479.52002l.62744 3.00732c.09668.46338.50537.79541.979.79541h6.91895c.47363 0 .88184-.33203.97852-.79541l.62891-3.00732c.30957-.15918.61133-.33301.9043-.52002l2.93066.96289c.45312.14795.94043-.04004 1.17773-.44873l3.45898-5.97021c.23828-.41113.1543-.93262-.2002-1.24854l-2.29395-2.04102c.01808-.34603.01807-.6989 0-1.04492l2.29395-2.04053c.35449-.31543.43848-.8374.2002-1.24854l-3.45898-5.97021c-.2373-.4082-.72461-.5957-1.17773-.44873l-2.93066.96289c-.29199-.18701-.59473-.36084-.9043-.52051l-.62891-3.00732c-.09668-.46338-.50488-.79541-.97852-.79541h-6.91895c-.47363 0-.88232.33203-.979.79541l-.62744 3.00732c-.31055.15967-.61279.3335-.90479.52051l-2.93115-.96289c-.44922-.14795-.94043.03955-1.17725.44873l-3.45947 5.97021c-.23828.41113-.1543.93311.20068 1.24854l2.29395 2.04004c-.00928.17334-.00928.87256 0 1.0459l-2.29395 2.04053c-.35498.31543-.43896.8374-.20068 1.24854zm4.19287-2.12305c.51749-.42885.51666-2.94946-.00002-3.37792.00002 0-2.0532-1.82618-2.0532-1.82618l2.64355-4.56201 2.625.8623c.29932.09668.63037.04834.89014-.13428.60782-.58535 1.78766-.65475 2.03182-1.54971-.00008-.00009.56193-2.69199.56193-2.69199h5.29346l.56201 2.69189c.06494.31104.27393.57275.56299.70459.82296.2385 1.45987 1.21319 2.35933.97961.00004-.00012 2.62406-.86242 2.62406-.86242l2.64355 4.5625-2.05273 1.82568c-.51576.42913-.51494 2.94918.00002 3.37792-.00002 0 2.05271 1.82618 2.05271 1.82618l-2.64355 4.5625-2.62402-.8623c-.89908-.22935-1.53813.73833-2.35942.97888-.28902.13196-.498.39368-.56294.70471l-.56201 2.69189h-5.29346l-.56201-2.69189c-.06494-.31104-.27393-.57275-.56299-.70459-.82177-.23754-1.46098-1.21332-2.35885-.97912-.00004.00012-2.62504.86242-2.62504.86242l-2.64355-4.5625 2.05322-1.82617z"/><path d="m20.01514 35.80908c-3.36377 0-6.10059 2.72852-6.10059 6.08203.2862 8.05043 11.9168 8.04785 12.20167-.0001 0-3.35342-2.73682-6.08193-6.10108-6.08193zm0 10.16455c-5.41907-.17178-5.41826-7.99377.00009-8.16455 5.42003.17177 5.41833 7.99338-.00009 8.16455z"/><path d="m31.53174 38.60791-2.90771-5.01758c-.23682-.40918-.72754-.5957-1.17725-.44873l-2.3916.78564c-.20801-.13086-.42236-.25391-.64111-.36865l-.51221-2.45312c-.09668-.46387-.50537-.7959-.979-.7959h-5.81494c-.47363 0-.88184.33203-.979.79541l-.51221 2.45361c-.21924.11523-.43359.23828-.64111.36865l-2.39209-.78564c-.44922-.14746-.94043.04004-1.17725.44873l-2.90723 5.01758c-.23828.41113-.1543.93311.20068 1.24854l1.87061 1.66406c-.011.24468-.01099.49653 0 .74121l-1.87061 1.66455c-.35498.31543-.43896.8374-.20068 1.24854l2.90723 5.01758c.2373.40869.72852.59521 1.17725.44873l2.39209-.78564c.20752.13037.42188.25342.64111.36865l.51221 2.45312c.09717.46338.50537.79541.979.79541h5.81494c.47363 0 .88232-.33203.979-.79541l.51221-2.45312c.21875-.11475.43311-.23779.64111-.36865l2.3916.78564c.44922.146.94043-.03906 1.17725-.44873l2.90771-5.01758c.23828-.41113.1543-.93311-.20068-1.24854l-1.87109-1.66455c.00537-.12256.00537-.61816 0-.74121l1.87109-1.66406c.35498-.31543.43896-.8374.20068-1.24854zm-3.76803 4.82177s1.62838 1.44825 1.62838 1.44825l-2.0918 3.60986-2.08301-.68457c-.80731-.24246-1.37299.603-2.09866.82951-.28903.13191-.49802.39363-.56296.70467l-.4458 2.13525h-4.18945l-.4458-2.13525c-.18827-.81777-1.22571-.89583-1.77046-1.39948-.2603-.18451-.59087-.23285-.89067-.1347l-2.0835.68457-2.09131-3.60986 1.62793-1.44824c.47859-.38899.47722-2.68873-.00003-3.07714.00003 0-1.62789-1.44825-1.62789-1.44825l2.09131-3.60938 2.0835.68457c.80623.24078 1.37164-.60152 2.09866-.82951.28854-.1324.49753-.39412.56247-.70467l.4458-2.13574h4.18945l.4458 2.13525c.18879.81951 1.22387.89458 1.77143 1.40046.25835.18304.58892.23138.89019.13421l2.08301-.68457 2.0918 3.60938-1.62842 1.44824c-.47857.38886-.47724 2.68859.00003 3.07714z"/><path d="m57.37109 41.02686c.01811-.34529.01805-.70038 0-1.04541l2.29395-2.04053c.35449-.31543.43848-.8374.2002-1.24854l-3.45898-5.97021c-.23633-.40869-.72852-.59668-1.17676-.44873l-2.93262.96289c-.29102-.18652-.59277-.36035-.90332-.52002l-.62891-3.00781c-.09668-.46338-.50488-.79541-.97852-.79541h-6.91895c-.47363 0-.88184.33203-.97852.79541l-.62891 3.00781c-.30957.15918-.61133.33301-.9043.52002l-2.93066-.96289c-.45117-.14795-.94043.04004-1.17773.44873l-3.45898 5.97021c-.23828.41113-.1543.93262.20068 1.24854l2.29346 2.04102c-.01806.34516-.01809.69928 0 1.04443l-2.29346 2.04102c-.35498.31592-.43896.8374-.20068 1.24854l3.45898 5.97021c.2373.4082.72656.5957 1.17773.44873l2.93066-.96289c.29199.18701.59473.36084.9043.52051l.62891 3.00732c.09668.46338.50488.79541.97852.79541h6.91895c.47363 0 .88184-.33203.97852-.79541l.62891-3.00781c.31055-.15967.6123-.3335.90332-.52002l2.93262.96289c.44824.14697.94043-.04053 1.17676-.44873l3.45898-5.97021c.23828-.41113.1543-.93311-.2002-1.24854zm-2.28906 7.55469-2.62598-.8623c-.89789-.23148-1.53172.73744-2.35747.97888-.28902.13196-.498.39368-.56245.70471l-.5625 2.69238h-5.29395l-.5625-2.69238c-.06445-.31104-.27344-.57275-.56348-.70508-.82284-.23856-1.4567-1.20916-2.35836-.97863-.00004.00012-2.62406.86242-2.62406.86242l-2.64355-4.5625 2.05273-1.82617c.51569-.42916.515-2.94847-.00002-3.37744.00002 0-2.05271-1.82618-2.05271-1.82618l2.64355-4.5625 2.62402.8623c.90019.23109 1.53704-.73902 2.35942-.97888.28902-.13196.498-.39368.56245-.70471l.5625-2.69238h5.29395l.5625 2.69238c.06445.31055.27344.57227.56152.70459.82758.24046 1.45826 1.21089 2.35836.97912.00004-.00012 2.62602-.86242 2.62602-.86242l2.64355 4.5625-2.05371 1.82617c-.51668.42916-.51557 2.94887.00002 3.37744-.00002 0 2.05369 1.82618 2.05369 1.82618l-2.64355 4.5625z"/><path d="m39.78223 6.81299c5.24489 3.01966 7.38241 10.06589 4.6415 15.45462-.56804 1.16899 1.21078 2.05605 1.797.87784 3.20302-6.29312.70801-14.52492-5.41518-18.05116-1.13965-.64985-2.14278 1.02419-1.02332 1.7187z"/><path d="m9.50537 33.30859c1.29736-1.29346 2.82764-2.24902 4.54834-2.84033.52246-.17969.7998-.74854.62061-1.271-.69938-2.11767-5.71702 1.74485-6.58057 2.69426-3.46142 3.44783-4.86669 8.53083-3.66796 13.26521.11475.45264.52148.75439.96875.75439.64073.00684 1.13636-.62356.96972-1.24561-1.02587-4.05322.17726-8.40478 3.14112-11.35693z"/><path d="m49.90332 55.87061c-5.42227 2.68433-12.50299.56837-15.499-4.69151-.68223-1.1167-2.37507-.1281-1.72217 1.01772 3.49329 6.14214 11.771 8.60995 18.08252 5.47835 1.17433-.58461.33584-2.35293-.86135-1.80456z"/></svg>