<svg id="Bottom_Curves" data-name="Bottom Curves" xmlns="http://www.w3.org/2000/svg" width="1920" height="120" viewBox="0 0 1920 120">
  <path id="Path_17" data-name="Path 17" d="M1920,1099.1H0v35.68s92.66,84.32,179.276,84.32c97.421,0,250.676-93.834,328.724-93.834,104.641,0,218.295,87.219,335.333,87.219,103.763,0,207.332-87.219,354.667-87.219,252.675,0,235.332,71.36,430,71.36,187.338,0,292-74.928,292-74.928Z" transform="translate(0 -1099.104)" fill="#011E41"/>
  <path id="Path_18" data-name="Path 18" d="M1920,1114.1H0v23.284S92.66,1214.1,179.276,1214.1C276.7,1214.1,429.952,1133.9,508,1133.9c104.641,0,218.295,73.733,335.333,73.733,103.763,0,207.332-70.24,354.667-70.24,252.675,0,235.332,54.717,430,54.717,187.338,0,292-61.7,292-61.7Z" transform="translate(0 -1114.104)" fill="#005cc8"/>
</svg>
