<svg xmlns="http://www.w3.org/2000/svg" xmlns:xlink="http://www.w3.org/1999/xlink" width="268" height="55" viewBox="0 0 268 55">
  <defs>
    <clipPath id="clip-path">
      <rect width="268" height="55" fill="none"/>
    </clipPath>
  </defs>
  <g id="Dots" transform="translate(527 -507)" opacity="0.04">
    <g id="Repeat_Grid_1" data-name="Repeat Grid 1" transform="translate(-527 507)" clip-path="url(#clip-path)">
      <g transform="translate(527 -507)">
        <path id="Path_370" data-name="Path 370" d="M6,0A6,6,0,1,1,0,6,6,6,0,0,1,6,0Z" transform="translate(-527 507)" fill="#0055b8"/>
        <path id="Path_371" data-name="Path 371" d="M6,0A6,6,0,1,1,0,6,6,6,0,0,1,6,0Z" transform="translate(-509 507)" fill="#0055b8"/>
        <path id="Path_372" data-name="Path 372" d="M6,0A6,6,0,1,1,0,6,6,6,0,0,1,6,0Z" transform="translate(-491 507)" fill="#0055b8"/>
        <path id="Path_373" data-name="Path 373" d="M6,0A6,6,0,1,1,0,6,6,6,0,0,1,6,0Z" transform="translate(-473 507)" fill="#0055b8"/>
        <path id="Path_374" data-name="Path 374" d="M6,0A6,6,0,1,1,0,6,6,6,0,0,1,6,0Z" transform="translate(-455 507)" fill="#0055b8"/>
        <path id="Path_375" data-name="Path 375" d="M6,0A6,6,0,1,1,0,6,6,6,0,0,1,6,0Z" transform="translate(-437 507)" fill="#0055b8"/>
        <path id="Path_376" data-name="Path 376" d="M6,0A6,6,0,1,1,0,6,6,6,0,0,1,6,0Z" transform="translate(-419 507)" fill="#0055b8"/>
        <path id="Path_377" data-name="Path 377" d="M6,0A6,6,0,1,1,0,6,6,6,0,0,1,6,0Z" transform="translate(-401 507)" fill="#0055b8"/>
        <path id="Path_378" data-name="Path 378" d="M6,0A6,6,0,1,1,0,6,6,6,0,0,1,6,0Z" transform="translate(-383 507)" fill="#0055b8"/>
        <path id="Path_379" data-name="Path 379" d="M6,0A6,6,0,1,1,0,6,6,6,0,0,1,6,0Z" transform="translate(-365 507)" fill="#0055b8"/>
        <path id="Path_389" data-name="Path 389" d="M6,0A6,6,0,1,1,0,6,6,6,0,0,1,6,0Z" transform="translate(-527 525)" fill="#0055b8"/>
        <path id="Path_388" data-name="Path 388" d="M6,0A6,6,0,1,1,0,6,6,6,0,0,1,6,0Z" transform="translate(-509 525)" fill="#0055b8"/>
        <path id="Path_387" data-name="Path 387" d="M6,0A6,6,0,1,1,0,6,6,6,0,0,1,6,0Z" transform="translate(-491 525)" fill="#0055b8"/>
        <path id="Path_386" data-name="Path 386" d="M6,0A6,6,0,1,1,0,6,6,6,0,0,1,6,0Z" transform="translate(-473 525)" fill="#0055b8"/>
        <path id="Path_385" data-name="Path 385" d="M6,0A6,6,0,1,1,0,6,6,6,0,0,1,6,0Z" transform="translate(-455 525)" fill="#0055b8"/>
        <path id="Path_384" data-name="Path 384" d="M6,0A6,6,0,1,1,0,6,6,6,0,0,1,6,0Z" transform="translate(-437 525)" fill="#0055b8"/>
        <path id="Path_383" data-name="Path 383" d="M6,0A6,6,0,1,1,0,6,6,6,0,0,1,6,0Z" transform="translate(-419 525)" fill="#0055b8"/>
        <path id="Path_382" data-name="Path 382" d="M6,0A6,6,0,1,1,0,6,6,6,0,0,1,6,0Z" transform="translate(-401 525)" fill="#0055b8"/>
        <path id="Path_381" data-name="Path 381" d="M6,0A6,6,0,1,1,0,6,6,6,0,0,1,6,0Z" transform="translate(-383 525)" fill="#0055b8"/>
        <path id="Path_380" data-name="Path 380" d="M6,0A6,6,0,1,1,0,6,6,6,0,0,1,6,0Z" transform="translate(-365 525)" fill="#0055b8"/>
      </g>
      <g transform="translate(707 -507)">
        <path id="Path_370-2" data-name="Path 370" d="M6,0A6,6,0,1,1,0,6,6,6,0,0,1,6,0Z" transform="translate(-527 507)" fill="#0055b8"/>
        <path id="Path_371-2" data-name="Path 371" d="M6,0A6,6,0,1,1,0,6,6,6,0,0,1,6,0Z" transform="translate(-509 507)" fill="#0055b8"/>
        <path id="Path_372-2" data-name="Path 372" d="M6,0A6,6,0,1,1,0,6,6,6,0,0,1,6,0Z" transform="translate(-491 507)" fill="#0055b8"/>
        <path id="Path_373-2" data-name="Path 373" d="M6,0A6,6,0,1,1,0,6,6,6,0,0,1,6,0Z" transform="translate(-473 507)" fill="#0055b8"/>
        <path id="Path_374-2" data-name="Path 374" d="M6,0A6,6,0,1,1,0,6,6,6,0,0,1,6,0Z" transform="translate(-455 507)" fill="#0055b8"/>
        <path id="Path_375-2" data-name="Path 375" d="M6,0A6,6,0,1,1,0,6,6,6,0,0,1,6,0Z" transform="translate(-437 507)" fill="#0055b8"/>
        <path id="Path_376-2" data-name="Path 376" d="M6,0A6,6,0,1,1,0,6,6,6,0,0,1,6,0Z" transform="translate(-419 507)" fill="#0055b8"/>
        <path id="Path_377-2" data-name="Path 377" d="M6,0A6,6,0,1,1,0,6,6,6,0,0,1,6,0Z" transform="translate(-401 507)" fill="#0055b8"/>
        <path id="Path_378-2" data-name="Path 378" d="M6,0A6,6,0,1,1,0,6,6,6,0,0,1,6,0Z" transform="translate(-383 507)" fill="#0055b8"/>
        <path id="Path_379-2" data-name="Path 379" d="M6,0A6,6,0,1,1,0,6,6,6,0,0,1,6,0Z" transform="translate(-365 507)" fill="#0055b8"/>
        <path id="Path_389-2" data-name="Path 389" d="M6,0A6,6,0,1,1,0,6,6,6,0,0,1,6,0Z" transform="translate(-527 525)" fill="#0055b8"/>
        <path id="Path_388-2" data-name="Path 388" d="M6,0A6,6,0,1,1,0,6,6,6,0,0,1,6,0Z" transform="translate(-509 525)" fill="#0055b8"/>
        <path id="Path_387-2" data-name="Path 387" d="M6,0A6,6,0,1,1,0,6,6,6,0,0,1,6,0Z" transform="translate(-491 525)" fill="#0055b8"/>
        <path id="Path_386-2" data-name="Path 386" d="M6,0A6,6,0,1,1,0,6,6,6,0,0,1,6,0Z" transform="translate(-473 525)" fill="#0055b8"/>
        <path id="Path_385-2" data-name="Path 385" d="M6,0A6,6,0,1,1,0,6,6,6,0,0,1,6,0Z" transform="translate(-455 525)" fill="#0055b8"/>
        <path id="Path_384-2" data-name="Path 384" d="M6,0A6,6,0,1,1,0,6,6,6,0,0,1,6,0Z" transform="translate(-437 525)" fill="#0055b8"/>
        <path id="Path_383-2" data-name="Path 383" d="M6,0A6,6,0,1,1,0,6,6,6,0,0,1,6,0Z" transform="translate(-419 525)" fill="#0055b8"/>
        <path id="Path_382-2" data-name="Path 382" d="M6,0A6,6,0,1,1,0,6,6,6,0,0,1,6,0Z" transform="translate(-401 525)" fill="#0055b8"/>
        <path id="Path_381-2" data-name="Path 381" d="M6,0A6,6,0,1,1,0,6,6,6,0,0,1,6,0Z" transform="translate(-383 525)" fill="#0055b8"/>
        <path id="Path_380-2" data-name="Path 380" d="M6,0A6,6,0,1,1,0,6,6,6,0,0,1,6,0Z" transform="translate(-365 525)" fill="#0055b8"/>
      </g>
      <g transform="translate(527 -471)">
        <path id="Path_370-3" data-name="Path 370" d="M6,0A6,6,0,1,1,0,6,6,6,0,0,1,6,0Z" transform="translate(-527 507)" fill="#0055b8"/>
        <path id="Path_371-3" data-name="Path 371" d="M6,0A6,6,0,1,1,0,6,6,6,0,0,1,6,0Z" transform="translate(-509 507)" fill="#0055b8"/>
        <path id="Path_372-3" data-name="Path 372" d="M6,0A6,6,0,1,1,0,6,6,6,0,0,1,6,0Z" transform="translate(-491 507)" fill="#0055b8"/>
        <path id="Path_373-3" data-name="Path 373" d="M6,0A6,6,0,1,1,0,6,6,6,0,0,1,6,0Z" transform="translate(-473 507)" fill="#0055b8"/>
        <path id="Path_374-3" data-name="Path 374" d="M6,0A6,6,0,1,1,0,6,6,6,0,0,1,6,0Z" transform="translate(-455 507)" fill="#0055b8"/>
        <path id="Path_375-3" data-name="Path 375" d="M6,0A6,6,0,1,1,0,6,6,6,0,0,1,6,0Z" transform="translate(-437 507)" fill="#0055b8"/>
        <path id="Path_376-3" data-name="Path 376" d="M6,0A6,6,0,1,1,0,6,6,6,0,0,1,6,0Z" transform="translate(-419 507)" fill="#0055b8"/>
        <path id="Path_377-3" data-name="Path 377" d="M6,0A6,6,0,1,1,0,6,6,6,0,0,1,6,0Z" transform="translate(-401 507)" fill="#0055b8"/>
        <path id="Path_378-3" data-name="Path 378" d="M6,0A6,6,0,1,1,0,6,6,6,0,0,1,6,0Z" transform="translate(-383 507)" fill="#0055b8"/>
        <path id="Path_379-3" data-name="Path 379" d="M6,0A6,6,0,1,1,0,6,6,6,0,0,1,6,0Z" transform="translate(-365 507)" fill="#0055b8"/>
        <path id="Path_389-3" data-name="Path 389" d="M6,0A6,6,0,1,1,0,6,6,6,0,0,1,6,0Z" transform="translate(-527 525)" fill="#0055b8"/>
        <path id="Path_388-3" data-name="Path 388" d="M6,0A6,6,0,1,1,0,6,6,6,0,0,1,6,0Z" transform="translate(-509 525)" fill="#0055b8"/>
        <path id="Path_387-3" data-name="Path 387" d="M6,0A6,6,0,1,1,0,6,6,6,0,0,1,6,0Z" transform="translate(-491 525)" fill="#0055b8"/>
        <path id="Path_386-3" data-name="Path 386" d="M6,0A6,6,0,1,1,0,6,6,6,0,0,1,6,0Z" transform="translate(-473 525)" fill="#0055b8"/>
        <path id="Path_385-3" data-name="Path 385" d="M6,0A6,6,0,1,1,0,6,6,6,0,0,1,6,0Z" transform="translate(-455 525)" fill="#0055b8"/>
        <path id="Path_384-3" data-name="Path 384" d="M6,0A6,6,0,1,1,0,6,6,6,0,0,1,6,0Z" transform="translate(-437 525)" fill="#0055b8"/>
        <path id="Path_383-3" data-name="Path 383" d="M6,0A6,6,0,1,1,0,6,6,6,0,0,1,6,0Z" transform="translate(-419 525)" fill="#0055b8"/>
        <path id="Path_382-3" data-name="Path 382" d="M6,0A6,6,0,1,1,0,6,6,6,0,0,1,6,0Z" transform="translate(-401 525)" fill="#0055b8"/>
        <path id="Path_381-3" data-name="Path 381" d="M6,0A6,6,0,1,1,0,6,6,6,0,0,1,6,0Z" transform="translate(-383 525)" fill="#0055b8"/>
        <path id="Path_380-3" data-name="Path 380" d="M6,0A6,6,0,1,1,0,6,6,6,0,0,1,6,0Z" transform="translate(-365 525)" fill="#0055b8"/>
      </g>
      <g transform="translate(707 -471)">
        <path id="Path_370-4" data-name="Path 370" d="M6,0A6,6,0,1,1,0,6,6,6,0,0,1,6,0Z" transform="translate(-527 507)" fill="#0055b8"/>
        <path id="Path_371-4" data-name="Path 371" d="M6,0A6,6,0,1,1,0,6,6,6,0,0,1,6,0Z" transform="translate(-509 507)" fill="#0055b8"/>
        <path id="Path_372-4" data-name="Path 372" d="M6,0A6,6,0,1,1,0,6,6,6,0,0,1,6,0Z" transform="translate(-491 507)" fill="#0055b8"/>
        <path id="Path_373-4" data-name="Path 373" d="M6,0A6,6,0,1,1,0,6,6,6,0,0,1,6,0Z" transform="translate(-473 507)" fill="#0055b8"/>
        <path id="Path_374-4" data-name="Path 374" d="M6,0A6,6,0,1,1,0,6,6,6,0,0,1,6,0Z" transform="translate(-455 507)" fill="#0055b8"/>
        <path id="Path_375-4" data-name="Path 375" d="M6,0A6,6,0,1,1,0,6,6,6,0,0,1,6,0Z" transform="translate(-437 507)" fill="#0055b8"/>
        <path id="Path_376-4" data-name="Path 376" d="M6,0A6,6,0,1,1,0,6,6,6,0,0,1,6,0Z" transform="translate(-419 507)" fill="#0055b8"/>
        <path id="Path_377-4" data-name="Path 377" d="M6,0A6,6,0,1,1,0,6,6,6,0,0,1,6,0Z" transform="translate(-401 507)" fill="#0055b8"/>
        <path id="Path_378-4" data-name="Path 378" d="M6,0A6,6,0,1,1,0,6,6,6,0,0,1,6,0Z" transform="translate(-383 507)" fill="#0055b8"/>
        <path id="Path_379-4" data-name="Path 379" d="M6,0A6,6,0,1,1,0,6,6,6,0,0,1,6,0Z" transform="translate(-365 507)" fill="#0055b8"/>
        <path id="Path_389-4" data-name="Path 389" d="M6,0A6,6,0,1,1,0,6,6,6,0,0,1,6,0Z" transform="translate(-527 525)" fill="#0055b8"/>
        <path id="Path_388-4" data-name="Path 388" d="M6,0A6,6,0,1,1,0,6,6,6,0,0,1,6,0Z" transform="translate(-509 525)" fill="#0055b8"/>
        <path id="Path_387-4" data-name="Path 387" d="M6,0A6,6,0,1,1,0,6,6,6,0,0,1,6,0Z" transform="translate(-491 525)" fill="#0055b8"/>
        <path id="Path_386-4" data-name="Path 386" d="M6,0A6,6,0,1,1,0,6,6,6,0,0,1,6,0Z" transform="translate(-473 525)" fill="#0055b8"/>
        <path id="Path_385-4" data-name="Path 385" d="M6,0A6,6,0,1,1,0,6,6,6,0,0,1,6,0Z" transform="translate(-455 525)" fill="#0055b8"/>
        <path id="Path_384-4" data-name="Path 384" d="M6,0A6,6,0,1,1,0,6,6,6,0,0,1,6,0Z" transform="translate(-437 525)" fill="#0055b8"/>
        <path id="Path_383-4" data-name="Path 383" d="M6,0A6,6,0,1,1,0,6,6,6,0,0,1,6,0Z" transform="translate(-419 525)" fill="#0055b8"/>
        <path id="Path_382-4" data-name="Path 382" d="M6,0A6,6,0,1,1,0,6,6,6,0,0,1,6,0Z" transform="translate(-401 525)" fill="#0055b8"/>
        <path id="Path_381-4" data-name="Path 381" d="M6,0A6,6,0,1,1,0,6,6,6,0,0,1,6,0Z" transform="translate(-383 525)" fill="#0055b8"/>
        <path id="Path_380-4" data-name="Path 380" d="M6,0A6,6,0,1,1,0,6,6,6,0,0,1,6,0Z" transform="translate(-365 525)" fill="#0055b8"/>
      </g>
    </g>
  </g>
</svg>
