<?xml version="1.0" encoding="utf-8"?>
<!-- Generator: Adobe Illustrator 27.7.0, SVG Export Plug-In . SVG Version: 6.00 Build 0)  -->
<svg version="1.1"
	 id="Layer_1" xmlns:inkscape="http://www.inkscape.org/namespaces/inkscape" xmlns:rdf="http://www.w3.org/1999/02/22-rdf-syntax-ns#" xmlns:svg="http://www.w3.org/2000/svg" xmlns:sodipodi="http://sodipodi.sourceforge.net/DTD/sodipodi-0.dtd" xmlns:dc="http://purl.org/dc/elements/1.1/" xmlns:cc="http://creativecommons.org/ns#"
	 xmlns="http://www.w3.org/2000/svg" xmlns:xlink="http://www.w3.org/1999/xlink" x="0px" y="0px" viewBox="0 0 159.6 128"
	 style="enable-background:new 0 0 159.6 128;" xml:space="preserve">
<style type="text/css">
	.st0{fill:#004E9F;}
	.st1{fill:#E3000D;}
</style>
<path id="path7-1" inkscape:connector-curvature="0" class="st0" d="M32.5,118.8c-2.1,0-3.6,1-3.6,3c0,1.9,1.3,3.2,3.3,3.2
	c1.3,0,2.6-0.7,3.4-1.8v-2.7C35.6,119.7,34.5,118.8,32.5,118.8 M77.2,118.4c0.1,3.5,2.3,6,6.2,6c2.3,0,4.1-1.3,4.7-2.1
	c0.3,0.2,0.6,0.6,0.6,1.3c0,1.7-2.1,4.2-7,4.2c-4.9,0-8.9-3.9-8.9-9.1c0-5.7,3.7-9.7,9.2-9.7c5,0,7.3,3.7,7.3,6.8
	c0,0.9-0.2,1.8-0.6,2.5L77.2,118.4L77.2,118.4z M84.1,116.1c0.8,0,0.8-0.5,0.8-1.1c0-1.8-1.5-3.6-3.7-3.6c-2.9,0-4,2.4-4.1,4.6
	L84.1,116.1L84.1,116.1z M130.5,118.1c0,4.3,0.6,6.5,3.4,6.5c3,0,3.8-2.7,3.8-5.1v-4.7c0-1.6-0.8-2.2-2.5-2c-0.7-1.8,1.7-3,3-3.2
	c0.4-0.1,0.8-0.1,1.2-0.1c1.9,0,2.6,1.2,2.6,3c0,0.7-0.1,1.8-0.1,6.8c0,2.1,0,3.2,0,3.5c0,1.6,0.7,2.4,2.5,2.3
	c0.7,1.8-1.7,2.7-3,2.9c-0.4,0.1-0.8,0.1-1.1,0.1c-1.8,0-2.2-1.2-2.5-2.9c-0.3,0.3-0.5,0.6-1,1c-1.2,1.1-2.7,1.8-4.5,1.8
	c-1.9,0-3.5-0.7-4.5-1.9c-1.6-1.9-1.6-4.3-1.6-7.8v-3.4c0-1.6-0.8-2.2-2.5-2c-0.7-1.8,1.7-3,3-3.2c0.4-0.1,0.8-0.1,1.2-0.1
	c1.9,0,2.6,1.2,2.6,3L130.5,118.1L130.5,118.1z M122.2,118.4c0-5.6-3.8-9.3-9.2-9.3c-4.9,0-9.3,3.8-9.3,9.3c0,5.6,4.1,9.4,9.1,9.4
	C118.2,127.8,122.2,124,122.2,118.4 M39.7,123.3c0,1.4,0.9,1.9,2.5,2.1c-0.1,1.6-1.2,2.3-2.6,2.4c-1.5,0.1-3-0.6-3.6-2.2
	c-0.7,0.6-2.7,2.2-5.4,2.2c-3.6,0-6.4-2.4-6.4-5.8c0-3.5,3.1-5.6,7.4-5.6c1.5,0,3,0.3,3.9,0.8V115c0-2.1-0.9-3.4-3.3-3.4
	c-0.5,0-1.6,0.1-2.4,0.5c0.1,0.3,0.2,0.7,0.2,1c0,1.3-0.8,2.3-2.2,2.3c-1.2,0-2.1-1-2.1-2.2c0-2.3,2.9-4,6.9-4
	c3.2,0,5.1,0.8,6.1,2.1c0.9,1.2,1,2.9,1,5.5L39.7,123.3L39.7,123.3z M117.5,118.7c0,4.3-1.8,6.6-4.4,6.6c-2.3,0-4.5-2.3-4.5-7.4
	c0-3.9,1.6-6.4,4.3-6.4C115.5,111.5,117.5,114.2,117.5,118.7 M52.7,112.2c0.1,1.1,1.1,1.9,2.2,1.9c1.4,0,2.3-1.3,2.3-2.5
	c0-1.7-1.4-2.6-2.8-2.6c-1.6,0-3.3,1.2-4.2,3l-0.1,0c-0.3-1.6-1.1-2.8-2.6-2.8c-0.4,0-0.8,0.1-1.2,0.2c-1.3,0.4-3.3,1.4-2.5,3.2
	c1.8-0.4,2.5,0.3,2.5,1.9v7.6c0,1.5-0.2,2.2-0.7,2.6c-0.5,0.4-1,0.5-1.3,0.6c-0.8,1.6,0.7,2.2,4.4,2.2c3.6,0,4.9-0.5,4.1-2.2
	c-0.3-0.1-1.2-0.2-1.7-0.6c-0.5-0.4-0.8-1.1-0.8-2.6v-4.6C50.2,113.5,51.8,112.4,52.7,112.2 M97.9,109.6h4.7
	c0.6,1.3-0.2,2.4-1.2,2.5c-0.3,0-0.7,0-1,0c-0.9,0-1.7-0.1-2.3-0.1v10.2c0,1.5,0.3,2.2,0.8,2.6c0.5,0.4,1.6,0.5,2,0.6
	c0.8,1.6-1,2.2-4.7,2.2c-3.6,0-5.2-0.5-4.4-2.2c0.3-0.1,0.9-0.2,1.3-0.6c0.5-0.4,0.7-1.1,0.7-2.6V112l-2.8-0.1
	c-0.6-1.3,0.2-2.3,1.3-2.3h1.4v-1.3c0-2.7,0.5-4.1,1.1-5.1c1-1.6,2.8-2.7,5.5-2.7c3.5,0,6.2,1.6,6.2,4c0,1.1-0.7,2.3-2.2,2.3
	c-1.1,0-2.2-1-2.2-2.1c0-0.5,0.2-1,0.5-1.3c-0.4-0.5-1.2-0.7-2-0.7c-2.3,0-2.8,1.7-2.8,3.8L97.9,109.6L97.9,109.6z M67.7,112.2
	c0.1,1.1,1.1,1.9,2.2,1.9c1.4,0,2.3-1.3,2.3-2.5c0-1.7-1.4-2.6-2.8-2.6c-1.6,0-3.3,1.2-4.2,3l-0.1,0c-0.3-1.6-1.1-2.8-2.6-2.8
	c-0.4,0-0.8,0.1-1.2,0.2c-1.3,0.4-3.3,1.4-2.5,3.2c1.8-0.4,2.5,0.3,2.5,1.9v7.6c0,1.5-0.2,2.2-0.7,2.6c-0.5,0.4-1,0.5-1.3,0.6
	c-0.8,1.6,0.7,2.2,4.4,2.2c3.6,0,4.9-0.5,4.1-2.2c-0.3-0.1-1.2-0.2-1.7-0.6c-0.5-0.4-0.8-1.1-0.8-2.6v-4.6
	C65.2,113.5,66.7,112.4,67.7,112.2 M155.1,112.2c0.1,1.1,1.1,1.9,2.2,1.9c1.4,0,2.2-1.3,2.2-2.5c0-1.7-1.4-2.6-2.8-2.6
	c-1.6,0-3.2,1.2-4.2,3l-0.1,0c-0.3-1.6-1.1-2.8-2.6-2.8c-0.4,0-0.8,0.1-1.2,0.2c-1.3,0.4-3.2,1.4-2.5,3.2c1.8-0.4,2.5,0.3,2.5,1.9
	v7.6c0,1.5-0.2,2.2-0.7,2.6c-0.5,0.4-1,0.5-1.3,0.6c-0.8,1.6,0.7,2.2,4.4,2.2c3.6,0,4.9-0.5,4.1-2.2c-0.3-0.1-1.2-0.2-1.7-0.6
	c-0.5-0.4-0.7-1.1-0.7-2.6v-4.6C152.7,113.5,154.1,112.4,155.1,112.2"/>
<path id="path11-4" inkscape:connector-curvature="0" class="st0" d="M0,114.8c0,8.3,5.7,13.2,11.9,13.2c5.6,0,9.5-3.9,9.5-7.2
	c0-1.7-1.1-3-2.5-3c-1.4,0-2.7,1-2.7,2.7c0,1.1,0.6,1.7,1,2.2c-0.8,1.5-2.4,2.7-4.9,2.7c-4.1,0-7.1-4.3-7.1-10.5
	c0-6.2,2.9-10.5,7-10.5c2.5,0,4.1,1.2,4.9,2.7c-0.4,0.5-1,1.1-1,2.2c0,1.7,1.2,2.7,2.7,2.7c1.4,0,2.5-1.3,2.5-3
	c0-3.3-3.9-7.2-9.5-7.2C5.6,101.5,0,106.9,0,114.8"/>
<path id="path15-9" inkscape:connector-curvature="0" class="st1" d="M53.8,2.9L19,36.6c-1.7,1.5-2.9,3.2-2.9,5.7
	c0,2.5,1.1,4.2,2.9,5.7l34.9,33.7c0.2,0.2,0.4,0.3,0.6,0.3c0.3,0,0.6-0.3,0.5-0.7c0-0.2-0.1-0.4-0.3-0.7
	c-8.2-10.2-14.1-21.8-14.1-38.3c0-16.5,6-28.4,14.1-38.6C54.9,3.6,55,3.4,55,3.2c0-0.4-0.2-0.7-0.5-0.7C54.2,2.5,54,2.6,53.8,2.9"/>
<path id="path17-4" inkscape:connector-curvature="0" class="st0" d="M80.6,0c-13.6,0-19,19.3-19,42.4c0,23.1,5.3,42.1,19,42.1
	c8.2,0,15.2-4.8,15.2-8.7c0-0.9-0.3-1.7-1.1-2.4c-3.9-3.8-5.4-7.5-5.4-10.8c0-6.3,5.5-11,10.5-11c6.9,0,11,5.5,11,12.5
	c0,6.7-2.9,12.3-6,16.7c-0.1,0.2-0.2,0.4-0.2,0.6c0,0.4,0.2,0.6,0.5,0.6c0.2,0,0.4-0.1,0.6-0.3L140.8,48c1.7-1.5,2.9-3.2,2.9-5.7
	c0-2.5-1.1-4.2-2.9-5.7L105.9,2.9c-0.2-0.2-0.5-0.3-0.6-0.3c-0.3,0-0.5,0.3-0.5,0.6c0,0.2,0.1,0.4,0.2,0.6c3.1,4.5,6,10,6,16.7
	c0,7.1-4.1,12.5-11,12.5c-5,0-10.5-4.7-10.5-11c0-3.3,1.5-7.1,5.4-10.8c0.7-0.7,1.1-1.5,1.1-2.4C95.8,4.8,88.8,0,80.6,0"/>
</svg>
