<svg xmlns="http://www.w3.org/2000/svg" width="221.404" height="224.098" viewBox="0 0 221.404 224.098">
  <g id="BG_Shape" data-name="BG Shape" transform="matrix(0.966, -0.259, 0.259, 0.966, 144.825, -0.113)" fill="#e7eefa">
    <path d="M -45.71584320068359 185.3986206054688 C -92.19960784912109 185.3986206054688 -130.7923736572266 156.8454742431641 -144.0355224609375 112.6560668945312 C -149.551513671875 94.25032806396484 -143.23046875 70.34391784667969 -127.1266708374023 48.70635986328125 C -111.0189361572266 27.06350708007812 -89.18687438964844 13.61868286132812 -70.15034484863281 13.61868286132812 C -64.77928924560547 13.61868286132812 -59.62890243530273 14.65038967132568 -54.84228515625 16.68515396118164 C -29.53169822692871 27.44447708129883 -21.52784538269043 41.77680206298828 -13.05405044555664 56.95068359375 C -7.843432903289795 66.28121185302734 -2.455403327941895 75.92945098876953 7.63412618637085 86.01895141601562 C 21.92644882202148 100.3113021850586 25.95724296569824 123.2592163085938 17.90303802490234 144.4815063476562 C 8.828714370727539 168.3917999267578 -12.23458003997803 183.6056823730469 -38.4412841796875 185.1787109375 C -40.89652252197266 185.3260650634766 -43.32651901245117 185.3986206054688 -45.71584320068359 185.3986206054688 Z" stroke="none"/>
    <path d="M -70.15032958984375 19.61869812011719 C -106.7049102783203 19.61869812011719 -149.0440063476562 75.04341888427734 -138.2880706787109 110.9336013793945 C -126.2252883911133 151.1844940185547 -89.92198181152344 182.2579193115234 -38.80078887939453 179.1894989013672 C 12.32045745849609 176.1210327148438 30.71700286865234 117.5871047973633 3.391456604003906 90.26160430908203 C -23.93403625488281 62.93610382080078 -18.74432373046875 38.54971313476562 -57.18954086303711 22.20695495605469 C -61.35459899902344 20.43643188476562 -65.70893859863281 19.61869812011719 -70.15032958984375 19.61869812011719 M -70.15032958984375 7.61871337890625 C -63.96814727783203 7.61871337890625 -58.02803802490234 8.811309814453125 -52.49500274658203 11.16334533691406 C -25.29447174072266 22.72605895996094 -16.40872192382812 38.63760375976562 -7.815536499023438 54.02528381347656 C -2.804718017578125 62.99803161621094 2.376670837402344 72.2762451171875 11.87674713134766 81.77631378173828 C 27.83585357666016 97.73542022705078 32.40320587158203 123.1842803955078 23.51267242431641 146.6103820800781 C 13.72452545166016 172.4015350341797 -9.8770751953125 189.4749908447266 -38.081787109375 191.1679229736328 C -40.65843200683594 191.3225708007812 -43.20843505859375 191.3986358642578 -45.71578979492188 191.3986358642578 C -94.91229248046875 191.3986358642578 -135.7610778808594 161.1664276123047 -149.7829742431641 114.3784942626953 C -155.8407592773438 94.16506195068359 -149.1704711914062 68.27556610107422 -131.9399719238281 45.12413024902344 C -114.4614334106445 21.63941955566406 -91.36250305175781 7.61871337890625 -70.15032958984375 7.61871337890625 Z" stroke="none" fill="#fbfcff"/>
  </g>
</svg>
