<svg xmlns="http://www.w3.org/2000/svg" width="1920" height="120" viewBox="0 0 1920 120">
  <g id="Top_Curves" data-name="Top Curves" transform="translate(0 -1080)">
    <path id="Path_17" data-name="Path 17" d="M0,1219.1H1920v-35.68s-92.66-84.32-179.276-84.32c-97.421,0-250.676,93.834-328.724,93.834-104.641,0-218.295-87.219-335.333-87.219-103.763,0-207.332,87.219-354.667,87.219-252.675,0-235.332-71.36-430-71.36-187.338,0-292,74.928-292,74.928C0,1208.77,0,1219.1,0,1219.1Z" transform="translate(0 -19.104)" fill="#011E41"/>
    <path id="Path_18" data-name="Path 18" d="M0,1214.1H1920V1190.82s-92.66-76.716-179.276-76.716c-97.421,0-250.676,80.209-328.724,80.209-104.641,0-218.295-73.733-335.333-73.733-103.763,0-207.332,70.24-354.667,70.24-252.675,0-235.332-54.717-430-54.717-187.338,0-292,61.7-292,61.7C0,1209.81,0,1214.1,0,1214.1Z" transform="translate(0 -14.104)" fill="#e8f1fe"/>
  </g>
</svg>
