<svg xmlns="http://www.w3.org/2000/svg" width="115.719" height="128.006" viewBox="0 0 115.719 128.006">
  <g id="CRM" transform="translate(7.675 -4.088)">
    <path id="Path_3305" data-name="Path 3305" d="M93.311,9c8.147.095,12.738,10.355,6.973,16.117L80.787,44.6l-9.17,6.057L45,9ZM12.476,47.858a9.193,9.193,0,0,0,0,13l19.517,19.51a9.2,9.2,0,0,0,13.014,0l-3.476-8.883L21.858,50.659l-9.385-2.805Z" transform="translate(5.182 -4.912)" fill="#985184"/>
    <path id="Path_3306" data-name="Path 3306" d="M2.578,25.117C-3.187,19.355,1.407,9.095,9.554,9H57.86L93.643,44.6a9.193,9.193,0,0,1,0,13.007L70.869,80.366a9.2,9.2,0,0,1-13.009,0Z" transform="translate(-7.675 -4.912)" fill="#1ad3bb"/>
    <path id="Path_3307" data-name="Path 3307" d="M43.476,80.368a9.193,9.193,0,0,0,0-13.007L23.957,47.856a9.2,9.2,0,0,0-13.014,0ZM26.4,25.909,43.476,9,64.621,29.973a13.808,13.808,0,0,0-19.517,0l-7.32,7.313A8.048,8.048,0,0,1,26.4,25.909Z" transform="translate(6.707 -4.912)" fill="#005e7a"/>
    <path id="Path_3334" data-name="Path 3334" d="M-32.07-6.248q0,.721-.043,1.226a5.938,5.938,0,0,1-.13.865,2.456,2.456,0,0,1-.231.62,3.031,3.031,0,0,1-.462.591,5.864,5.864,0,0,1-1.226.851,14.426,14.426,0,0,1-2.221,1,19.3,19.3,0,0,1-3,.793,19.757,19.757,0,0,1-3.649.317,19.221,19.221,0,0,1-6.923-1.183A13.672,13.672,0,0,1-55.2-4.705a15.8,15.8,0,0,1-3.317-5.87,26.325,26.325,0,0,1-1.154-8.192,25.946,25.946,0,0,1,1.269-8.451,17.6,17.6,0,0,1,3.548-6.2,14.849,14.849,0,0,1,5.466-3.807,18.454,18.454,0,0,1,7.024-1.3,16.908,16.908,0,0,1,3,.26,18.311,18.311,0,0,1,2.668.678,13.367,13.367,0,0,1,2.207.966,6.611,6.611,0,0,1,1.37.937,3.238,3.238,0,0,1,.534.649,2.418,2.418,0,0,1,.231.663,7.371,7.371,0,0,1,.13.952q.043.548.043,1.356,0,.865-.058,1.471a3.794,3.794,0,0,1-.2.981,1.346,1.346,0,0,1-.346.548.689.689,0,0,1-.462.173,2,2,0,0,1-1.1-.5,17.854,17.854,0,0,0-1.716-1.125,13.968,13.968,0,0,0-2.509-1.125,10.65,10.65,0,0,0-3.476-.5,8.461,8.461,0,0,0-3.966.909,8.5,8.5,0,0,0-2.971,2.6,12.184,12.184,0,0,0-1.86,4.082,21.078,21.078,0,0,0-.635,5.394,21.175,21.175,0,0,0,.678,5.7,11,11,0,0,0,1.933,3.966,7.82,7.82,0,0,0,3.029,2.322,10,10,0,0,0,3.995.764,11.387,11.387,0,0,0,3.49-.476A14.683,14.683,0,0,0-35.835-7.95q1.053-.577,1.731-1.038a2.146,2.146,0,0,1,1.053-.462.82.82,0,0,1,.462.115.867.867,0,0,1,.288.462,4.519,4.519,0,0,1,.173.966Q-32.071-7.287-32.07-6.248Zm36.1,4.673a1.123,1.123,0,0,1-.115.534.921.921,0,0,1-.548.361,5.44,5.44,0,0,1-1.269.2q-.836.058-2.279.058-1.211,0-1.933-.058A4.277,4.277,0,0,1-3.258-.7a1.235,1.235,0,0,1-.591-.4,2.258,2.258,0,0,1-.288-.591l-3.346-8.336q-.606-1.413-1.183-2.509A8.006,8.006,0,0,0-9.95-14.368a4.685,4.685,0,0,0-1.63-1.111,5.64,5.64,0,0,0-2.135-.375h-2.365v14.22a.8.8,0,0,1-.187.519,1.316,1.316,0,0,1-.62.375,6.052,6.052,0,0,1-1.154.231,16.034,16.034,0,0,1-1.846.087,16.111,16.111,0,0,1-1.832-.087,6.076,6.076,0,0,1-1.168-.231,1.216,1.216,0,0,1-.606-.375.844.844,0,0,1-.173-.519V-35.526a2.306,2.306,0,0,1,.649-1.832,2.358,2.358,0,0,1,1.6-.562h9.663q1.471,0,2.423.058t1.731.144a15.724,15.724,0,0,1,4.053,1.1A9.715,9.715,0,0,1-.489-34.588,8.462,8.462,0,0,1,1.43-31.617a10.867,10.867,0,0,1,.663,3.937,11.563,11.563,0,0,1-.476,3.418,8.763,8.763,0,0,1-1.4,2.755A9.2,9.2,0,0,1-2.061-19.4a12.335,12.335,0,0,1-3.086,1.442,8.6,8.6,0,0,1,1.572.981,8.3,8.3,0,0,1,1.385,1.4A13.451,13.451,0,0,1-.964-13.7,24.164,24.164,0,0,1,.16-11.325L3.3-3.97q.433,1.1.577,1.6A3.094,3.094,0,0,1,4.026-1.575ZM-5.753-26.9a5.538,5.538,0,0,0-.836-3.115A4.548,4.548,0,0,0-9.329-31.8a10.512,10.512,0,0,0-1.312-.231,18.429,18.429,0,0,0-2.034-.087h-3.4v10.586h3.865a9.256,9.256,0,0,0,2.827-.389,5.645,5.645,0,0,0,2.019-1.1,4.483,4.483,0,0,0,1.211-1.687A5.708,5.708,0,0,0-5.753-26.9Zm61.8,25.268a.9.9,0,0,1-.159.519,1.117,1.117,0,0,1-.577.375A5.673,5.673,0,0,1,54.2-.508a14.649,14.649,0,0,1-1.76.087,14.349,14.349,0,0,1-1.731-.087,5.35,5.35,0,0,1-1.1-.231,1.205,1.205,0,0,1-.577-.375.844.844,0,0,1-.173-.519V-32.007H48.8L37.987-1.662a1.4,1.4,0,0,1-.375.62,1.833,1.833,0,0,1-.707.389,4.753,4.753,0,0,1-1.139.187q-.692.043-1.673.043A16.489,16.489,0,0,1,32.42-.494a5.033,5.033,0,0,1-1.139-.231,2.125,2.125,0,0,1-.707-.389,1.115,1.115,0,0,1-.346-.548L19.786-32.007h-.058V-1.633a.9.9,0,0,1-.159.519,1.124,1.124,0,0,1-.591.375,6,6,0,0,1-1.111.231,14.278,14.278,0,0,1-1.745.087,14.349,14.349,0,0,1-1.731-.087,5.672,5.672,0,0,1-1.111-.231,1.117,1.117,0,0,1-.577-.375.9.9,0,0,1-.159-.519V-34.891a3.046,3.046,0,0,1,.779-2.25A2.807,2.807,0,0,1,15.4-37.92h4.961a10.415,10.415,0,0,1,2.279.216,4.415,4.415,0,0,1,1.644.721,4.089,4.089,0,0,1,1.154,1.327,9.519,9.519,0,0,1,.808,2.034l8.076,22.239h.115L42.8-33.564a11.749,11.749,0,0,1,.822-2.048,4.77,4.77,0,0,1,1.038-1.356,3.433,3.433,0,0,1,1.4-.736,7.282,7.282,0,0,1,1.875-.216h5.105a3.978,3.978,0,0,1,1.341.2,2.283,2.283,0,0,1,.923.591,2.58,2.58,0,0,1,.548.952,4.053,4.053,0,0,1,.187,1.284Z" transform="translate(52 132.083)" fill="#444"/>
  </g>
</svg>
