<svg xmlns="http://www.w3.org/2000/svg" width="204.018" height="128.003" viewBox="0 0 204.018 128.003">
  <g id="employees" transform="translate(40.58 -10)">
    <path id="Path_3325" data-name="Path 3325" d="M52.951,26.475A18.475,18.475,0,1,1,34.475,8,18.475,18.475,0,0,1,52.951,26.475Z" transform="translate(26.815 2)" fill="#985184"/>
    <path id="Path_3326" data-name="Path 3326" d="M20.423,28.211A8.211,8.211,0,1,1,12.211,20,8.211,8.211,0,0,1,20.423,28.211Z" transform="translate(14.182 14.634)" fill="#fbb945"/>
    <path id="Path_3327" data-name="Path 3327" d="M54.423,28.211A8.211,8.211,0,1,1,46.211,20,8.211,8.211,0,0,1,54.423,28.211Z" transform="translate(49.978 14.634)" fill="#1ad3bb"/>
    <path id="Path_3328" data-name="Path 3328" d="M51.321,30H8.211A8.211,8.211,0,0,0,0,38.211v8.211a8.211,8.211,0,0,0,8.211,8.211H51.321Z" transform="translate(9.97 25.162)" fill="#fbb945"/>
    <path id="Path_3329" data-name="Path 3329" d="M68.109,30H25V54.634H68.109a8.211,8.211,0,0,0,8.211-8.211V38.211A8.211,8.211,0,0,0,68.109,30Z" transform="translate(36.291 25.162)" fill="#1ad3bb"/>
    <path id="Path_3330" data-name="Path 3330" d="M12,30H40.74A24.635,24.635,0,0,1,65.374,54.634H36.634A24.635,24.635,0,0,1,12,30Z" transform="translate(22.604 25.162)" fill="#985184"/>
    <path id="Path_3343" data-name="Path 3343" d="M-91.213-4.693a8.9,8.9,0,0,1-.057,1.1,2.839,2.839,0,0,1-.17.716.914.914,0,0,1-.284.4.62.62,0,0,1-.375.125H-106.87a1.858,1.858,0,0,1-1.261-.443,1.817,1.817,0,0,1-.511-1.443V-29.871a1.817,1.817,0,0,1,.511-1.443,1.858,1.858,0,0,1,1.261-.443h14.68a.61.61,0,0,1,.364.114.873.873,0,0,1,.273.4,3.028,3.028,0,0,1,.17.727,9.131,9.131,0,0,1,.057,1.125,8.675,8.675,0,0,1-.057,1.079,2.838,2.838,0,0,1-.17.716.967.967,0,0,1-.273.4.572.572,0,0,1-.364.125h-10.5V-19.9H-93.8a.62.62,0,0,1,.375.125.919.919,0,0,1,.284.386,2.659,2.659,0,0,1,.17.7,8.677,8.677,0,0,1,.057,1.079,8.62,8.62,0,0,1-.057,1.091,2.639,2.639,0,0,1-.17.693.833.833,0,0,1-.284.375.662.662,0,0,1-.375.114h-8.885v8.294H-92.1a.62.62,0,0,1,.375.125.914.914,0,0,1,.284.4,2.839,2.839,0,0,1,.17.716A8.9,8.9,0,0,1-91.213-4.693Zm37.177,1.568a.618.618,0,0,1-.136.4,1,1,0,0,1-.454.284,3.84,3.84,0,0,1-.864.17,13.829,13.829,0,0,1-1.386.057q-.864,0-1.409-.057a4.054,4.054,0,0,1-.875-.17.921.921,0,0,1-.454-.284.654.654,0,0,1-.125-.4V-15.146a8.332,8.332,0,0,0-.193-1.863,4.373,4.373,0,0,0-.591-1.443,2.8,2.8,0,0,0-1-.932,2.965,2.965,0,0,0-1.443-.329,3.42,3.42,0,0,0-2.068.8A13.8,13.8,0,0,0-67.307-16.6V-3.125a.618.618,0,0,1-.136.4,1,1,0,0,1-.466.284,4.054,4.054,0,0,1-.875.17,13.545,13.545,0,0,1-1.363.057,13.829,13.829,0,0,1-1.386-.057,4.054,4.054,0,0,1-.875-.17,1,1,0,0,1-.466-.284.618.618,0,0,1-.136-.4V-15.146a8.332,8.332,0,0,0-.193-1.863,4.531,4.531,0,0,0-.579-1.443,2.679,2.679,0,0,0-1-.932,2.981,2.981,0,0,0-1.432-.329,3.445,3.445,0,0,0-2.091.8,13.22,13.22,0,0,0-2.25,2.318V-3.125a.618.618,0,0,1-.136.4,1,1,0,0,1-.466.284,4.054,4.054,0,0,1-.875.17,13.828,13.828,0,0,1-1.386.057A13.829,13.829,0,0,1-84.8-2.273a4.054,4.054,0,0,1-.875-.17,1,1,0,0,1-.466-.284.618.618,0,0,1-.136-.4v-20.27a.7.7,0,0,1,.114-.4.833.833,0,0,1,.409-.284,3.263,3.263,0,0,1,.761-.17,9.956,9.956,0,0,1,1.17-.057,10.506,10.506,0,0,1,1.2.057,2.731,2.731,0,0,1,.739.17.833.833,0,0,1,.375.284.7.7,0,0,1,.114.4v2.341a13.4,13.4,0,0,1,3.352-2.727,7.2,7.2,0,0,1,3.488-.909,8.908,8.908,0,0,1,2.25.261,6.418,6.418,0,0,1,1.784.75,5.6,5.6,0,0,1,1.352,1.17,6.8,6.8,0,0,1,.954,1.523,17.157,17.157,0,0,1,1.784-1.682,10.493,10.493,0,0,1,1.727-1.148,7.9,7.9,0,0,1,1.7-.659,7.051,7.051,0,0,1,1.738-.216,7.679,7.679,0,0,1,3.409.682,5.975,5.975,0,0,1,2.238,1.852A7.453,7.453,0,0,1-54.4-19.418a14.652,14.652,0,0,1,.364,3.318Zm26.019-10.43A18.908,18.908,0,0,1-28.6-8.681,11,11,0,0,1-30.29-4.988a7.506,7.506,0,0,1-2.772,2.341,8.471,8.471,0,0,1-3.795.818A7.229,7.229,0,0,1-38.482-2a6.255,6.255,0,0,1-1.432-.523A8.872,8.872,0,0,1-41.288-3.4,16.261,16.261,0,0,1-42.7-4.625V4.919a.665.665,0,0,1-.136.409,1.018,1.018,0,0,1-.466.307,3.9,3.9,0,0,1-.875.193A11.541,11.541,0,0,1-45.56,5.9a11.541,11.541,0,0,1-1.386-.068,3.9,3.9,0,0,1-.875-.193,1.018,1.018,0,0,1-.466-.307.665.665,0,0,1-.136-.409V-23.395a.7.7,0,0,1,.114-.4.831.831,0,0,1,.4-.284,3.067,3.067,0,0,1,.75-.17,9.956,9.956,0,0,1,1.17-.057,9.717,9.717,0,0,1,1.148.057,3.067,3.067,0,0,1,.75.17.831.831,0,0,1,.4.284.7.7,0,0,1,.114.4v2.386a20.589,20.589,0,0,1,1.738-1.6,10.514,10.514,0,0,1,1.738-1.159,7.9,7.9,0,0,1,1.829-.693,8.564,8.564,0,0,1,2.011-.227,7.68,7.68,0,0,1,3.795.875,7.178,7.178,0,0,1,2.556,2.4,10.8,10.8,0,0,1,1.443,3.545A19.659,19.659,0,0,1-28.017-13.555Zm-5.954.409a15.555,15.555,0,0,0-.193-2.488,7.355,7.355,0,0,0-.659-2.125,4.044,4.044,0,0,0-1.227-1.488,3.128,3.128,0,0,0-1.9-.557,3.823,3.823,0,0,0-1.125.17,4.368,4.368,0,0,0-1.136.557,7.951,7.951,0,0,0-1.193,1,14.274,14.274,0,0,0-1.3,1.523v6.681a13.355,13.355,0,0,0,2.3,2.352,3.706,3.706,0,0,0,2.272.829,3.146,3.146,0,0,0,1.9-.568,4.394,4.394,0,0,0,1.284-1.488,7.5,7.5,0,0,0,.739-2.079A11.467,11.467,0,0,0-33.971-13.146ZM-17.723-3.125a.618.618,0,0,1-.136.4,1,1,0,0,1-.466.284,4.054,4.054,0,0,1-.875.17,13.829,13.829,0,0,1-1.386.057,13.829,13.829,0,0,1-1.386-.057,4.054,4.054,0,0,1-.875-.17,1,1,0,0,1-.466-.284.618.618,0,0,1-.136-.4V-33.007a.665.665,0,0,1,.136-.409,1.018,1.018,0,0,1,.466-.307,3.9,3.9,0,0,1,.875-.193,11.542,11.542,0,0,1,1.386-.068,11.542,11.542,0,0,1,1.386.068,3.9,3.9,0,0,1,.875.193,1.018,1.018,0,0,1,.466.307.665.665,0,0,1,.136.409Zm26.2-10.339A15.489,15.489,0,0,1,7.8-8.738,9.975,9.975,0,0,1,5.728-5.057,9.2,9.2,0,0,1,2.251-2.67a13.04,13.04,0,0,1-4.886.841,13.382,13.382,0,0,1-4.7-.75,8.462,8.462,0,0,1-3.318-2.182A8.965,8.965,0,0,1-12.61-8.283a16.4,16.4,0,0,1-.636-4.772,15.362,15.362,0,0,1,.693-4.738,9.982,9.982,0,0,1,2.079-3.681,9.275,9.275,0,0,1,3.465-2.375,12.952,12.952,0,0,1,4.874-.841,13.643,13.643,0,0,1,4.727.739A8.264,8.264,0,0,1,5.9-21.781a9.042,9.042,0,0,1,1.943,3.522A16.483,16.483,0,0,1,8.478-13.464Zm-5.886.227A14.878,14.878,0,0,0,2.354-16a6.5,6.5,0,0,0-.807-2.193A4.034,4.034,0,0,0,.036-19.645a4.854,4.854,0,0,0-2.375-.523,5.021,5.021,0,0,0-2.227.466,4,4,0,0,0-1.568,1.363,6.522,6.522,0,0,0-.92,2.159,12.21,12.21,0,0,0-.307,2.875,14.221,14.221,0,0,0,.25,2.761A6.833,6.833,0,0,0-6.3-8.352,3.845,3.845,0,0,0-4.793-6.909,4.958,4.958,0,0,0-2.43-6.4,5.076,5.076,0,0,0-.18-6.863,4.03,4.03,0,0,0,1.388-8.215,6.233,6.233,0,0,0,2.3-10.363,12.66,12.66,0,0,0,2.592-13.237ZM24.476-2.352,22.021,4.829a1.478,1.478,0,0,1-1.113.818,10.675,10.675,0,0,1-2.659.25,10.536,10.536,0,0,1-1.454-.08,2.031,2.031,0,0,1-.818-.261.6.6,0,0,1-.3-.454,1.463,1.463,0,0,1,.136-.659l2.7-6.795a1.545,1.545,0,0,1-.534-.42,1.96,1.96,0,0,1-.352-.6L10.659-22.009a3.85,3.85,0,0,1-.3-1.216.83.83,0,0,1,.273-.659,1.791,1.791,0,0,1,.92-.33,12.884,12.884,0,0,1,1.716-.091q.977,0,1.545.034a2.734,2.734,0,0,1,.886.17.963.963,0,0,1,.477.42,4.236,4.236,0,0,1,.318.807L21.271-9.306h.068L25.7-23.145a1.542,1.542,0,0,1,.352-.784,1.478,1.478,0,0,1,.716-.284,11.321,11.321,0,0,1,1.75-.091,12.024,12.024,0,0,1,1.625.091,1.942,1.942,0,0,1,.954.341.82.82,0,0,1,.307.67,3.315,3.315,0,0,1-.182.989Zm28.5-11.5a2.2,2.2,0,0,1-.466,1.545,1.669,1.669,0,0,1-1.284.5H38.883a8.423,8.423,0,0,0,.307,2.352,4.487,4.487,0,0,0,.977,1.8,4.257,4.257,0,0,0,1.727,1.125,7.4,7.4,0,0,0,2.534.386,14.255,14.255,0,0,0,2.636-.216,17.48,17.48,0,0,0,1.966-.477q.829-.261,1.375-.477a2.551,2.551,0,0,1,.886-.216.668.668,0,0,1,.341.08.592.592,0,0,1,.227.284,1.9,1.9,0,0,1,.125.579q.034.375.034.943,0,.5-.023.852a5.357,5.357,0,0,1-.068.6,1.443,1.443,0,0,1-.136.42,1.576,1.576,0,0,1-.239.33,2.762,2.762,0,0,1-.807.432,12.77,12.77,0,0,1-1.682.534,23,23,0,0,1-2.341.454A19.452,19.452,0,0,1,43.9-1.83a14.919,14.919,0,0,1-4.738-.682,8.436,8.436,0,0,1-3.4-2.068,8.6,8.6,0,0,1-2.034-3.5,16.432,16.432,0,0,1-.67-4.954,15.744,15.744,0,0,1,.7-4.874,10.219,10.219,0,0,1,2.045-3.681,8.794,8.794,0,0,1,3.261-2.307,11.22,11.22,0,0,1,4.329-.8,11.336,11.336,0,0,1,4.352.75,7.85,7.85,0,0,1,2.966,2.079,8.388,8.388,0,0,1,1.7,3.147,13.707,13.707,0,0,1,.545,3.954Zm-5.545-1.636a5.878,5.878,0,0,0-.966-3.784,3.736,3.736,0,0,0-3.193-1.375,4.146,4.146,0,0,0-1.9.409,3.885,3.885,0,0,0-1.341,1.1,5.026,5.026,0,0,0-.818,1.636,8.15,8.15,0,0,0-.329,2.011ZM76.4-13.851a2.2,2.2,0,0,1-.466,1.545,1.669,1.669,0,0,1-1.284.5H62.311a8.423,8.423,0,0,0,.307,2.352,4.487,4.487,0,0,0,.977,1.8,4.257,4.257,0,0,0,1.727,1.125,7.4,7.4,0,0,0,2.534.386,14.255,14.255,0,0,0,2.636-.216,17.48,17.48,0,0,0,1.966-.477q.829-.261,1.375-.477a2.551,2.551,0,0,1,.886-.216.668.668,0,0,1,.341.08.592.592,0,0,1,.227.284,1.9,1.9,0,0,1,.125.579q.034.375.034.943,0,.5-.023.852a5.358,5.358,0,0,1-.068.6,1.443,1.443,0,0,1-.136.42,1.576,1.576,0,0,1-.239.33,2.762,2.762,0,0,1-.807.432,12.77,12.77,0,0,1-1.682.534,23,23,0,0,1-2.341.454,19.452,19.452,0,0,1-2.818.193A14.919,14.919,0,0,1,62.6-2.511a8.436,8.436,0,0,1-3.4-2.068,8.6,8.6,0,0,1-2.034-3.5,16.432,16.432,0,0,1-.67-4.954,15.745,15.745,0,0,1,.7-4.874,10.219,10.219,0,0,1,2.045-3.681A8.794,8.794,0,0,1,62.5-23.895a11.22,11.22,0,0,1,4.329-.8,11.336,11.336,0,0,1,4.352.75,7.85,7.85,0,0,1,2.966,2.079,8.388,8.388,0,0,1,1.7,3.147A13.707,13.707,0,0,1,76.4-14.76Zm-5.545-1.636a5.878,5.878,0,0,0-.966-3.784A3.736,3.736,0,0,0,66.7-20.645a4.146,4.146,0,0,0-1.9.409,3.885,3.885,0,0,0-1.341,1.1,5.026,5.026,0,0,0-.818,1.636,8.15,8.15,0,0,0-.329,2.011ZM95.375-8.851a6.822,6.822,0,0,1-.648,3.045A6.06,6.06,0,0,1,92.9-3.6a8.244,8.244,0,0,1-2.8,1.329,13.176,13.176,0,0,1-3.5.443A13.334,13.334,0,0,1,84.433-2a13.131,13.131,0,0,1-1.852-.432,9.686,9.686,0,0,1-1.363-.534,3.359,3.359,0,0,1-.8-.511,1.584,1.584,0,0,1-.386-.75A6.273,6.273,0,0,1,79.9-5.738a9.733,9.733,0,0,1,.045-1.057,2.7,2.7,0,0,1,.136-.636.6.6,0,0,1,.227-.318.668.668,0,0,1,.341-.08,1.7,1.7,0,0,1,.739.284q.489.284,1.216.625a12.9,12.9,0,0,0,1.693.636,7.494,7.494,0,0,0,2.193.3,5.4,5.4,0,0,0,1.375-.159A3.465,3.465,0,0,0,88.91-6.6a1.928,1.928,0,0,0,.67-.75A2.307,2.307,0,0,0,89.808-8.4a1.735,1.735,0,0,0-.42-1.17,3.734,3.734,0,0,0-1.113-.852,12.793,12.793,0,0,0-1.568-.682q-.875-.318-1.8-.7a16.442,16.442,0,0,1-1.8-.886,6.848,6.848,0,0,1-1.568-1.227,5.579,5.579,0,0,1-1.113-1.75,6.445,6.445,0,0,1-.42-2.454,6.229,6.229,0,0,1,.568-2.67,5.807,5.807,0,0,1,1.636-2.079,7.751,7.751,0,0,1,2.6-1.341,11.566,11.566,0,0,1,3.443-.477,12.319,12.319,0,0,1,1.852.136,13.533,13.533,0,0,1,1.625.341,7.758,7.758,0,0,1,1.227.443,4.048,4.048,0,0,1,.716.409,1.134,1.134,0,0,1,.307.341,1.441,1.441,0,0,1,.136.409q.045.239.08.591t.034.875q0,.614-.034,1a2.616,2.616,0,0,1-.114.614.545.545,0,0,1-.216.307.62.62,0,0,1-.318.08,1.551,1.551,0,0,1-.636-.239,11.5,11.5,0,0,0-1.079-.511,12.747,12.747,0,0,0-1.5-.511,7.218,7.218,0,0,0-1.943-.239,5.006,5.006,0,0,0-1.341.159,2.55,2.55,0,0,0-.932.454,1.912,1.912,0,0,0-.545.693,2.025,2.025,0,0,0-.182.852,1.7,1.7,0,0,0,.432,1.182,3.961,3.961,0,0,0,1.136.841,12.892,12.892,0,0,0,1.6.682q.9.318,1.818.693a16.631,16.631,0,0,1,1.818.875,6.873,6.873,0,0,1,1.6,1.227,5.666,5.666,0,0,1,1.136,1.738A6.078,6.078,0,0,1,95.375-8.851Z" transform="translate(68.063 132.107)" fill="#444"/>
  </g>
</svg>
