<svg xmlns="http://www.w3.org/2000/svg" width="255.749" height="128" viewBox="0 0 255.749 128">
  <g id="manufacturing" transform="translate(55.5 11)">
    <path id="Path_3317" data-name="Path 3317" d="M83.966,20.181a2.138,2.138,0,0,0-2.981-2l-59.7,26.446a2.188,2.188,0,0,0-1.284,2V66.992a2.158,2.158,0,0,0,2.132,2.181H75.437a8.623,8.623,0,0,0,8.529-8.719Z" transform="translate(34.102 -7.678)" fill="#fbb945"/>
    <path id="Path_3318" data-name="Path 3318" d="M78.231,15.171A2.135,2.135,0,0,0,75.3,13.162L11.331,39.589A2.168,2.168,0,0,0,10,41.6V72.666a2.151,2.151,0,0,0,2.132,2.168H69.7a8.6,8.6,0,0,0,8.529-8.674Z" transform="translate(22.779 -13.339)" fill="#fc868b"/>
    <path id="Path_3319" data-name="Path 3319" d="M66.909,21.01,21.284,41.219a2.182,2.182,0,0,0-1.284,2V63.586a2.157,2.157,0,0,0,2.132,2.179H58.38a8.6,8.6,0,0,0,8.529-8.674Z" transform="translate(34.102 -4.27)" fill="#f86126"/>
    <path id="Path_3320" data-name="Path 3320" d="M68.231,10.164a2.136,2.136,0,0,0-2.934-2L1.331,34.523a2.164,2.164,0,0,0-1.33,2V78.333A2.148,2.148,0,0,0,2.132,80.5H59.7a8.59,8.59,0,0,0,8.529-8.653Z" transform="translate(11.458 -19)" fill="#1ad3bb"/>
    <path id="Path_3321" data-name="Path 3321" d="M56.909,16.639,11.331,35.469A2.168,2.168,0,0,0,10,37.479V68.546a2.151,2.151,0,0,0,2.132,2.168H48.38a8.59,8.59,0,0,0,8.529-8.653V16.641Z" transform="translate(22.779 -9.219)" fill="#1a6f66"/>
    <path id="Path_3340" data-name="Path 3340" d="M-115.284-5.181a.64.64,0,0,1-.113.371.8.8,0,0,1-.412.268,4.053,4.053,0,0,1-.793.165,10.466,10.466,0,0,1-1.257.062,10.252,10.252,0,0,1-1.236-.062,3.822,3.822,0,0,1-.783-.165.861.861,0,0,1-.412-.268.6.6,0,0,1-.124-.371v-21.7h-.041L-128.185-5.2a1,1,0,0,1-.268.443,1.309,1.309,0,0,1-.5.278,3.4,3.4,0,0,1-.814.134q-.495.031-1.2.031a11.781,11.781,0,0,1-1.2-.052,3.6,3.6,0,0,1-.814-.165,1.518,1.518,0,0,1-.5-.278.8.8,0,0,1-.247-.392l-7.46-21.68h-.041v21.7a.64.64,0,0,1-.113.371.8.8,0,0,1-.422.268,4.286,4.286,0,0,1-.793.165,10.2,10.2,0,0,1-1.247.062,10.252,10.252,0,0,1-1.237-.062,4.052,4.052,0,0,1-.793-.165.8.8,0,0,1-.412-.268.639.639,0,0,1-.113-.371V-28.943a2.176,2.176,0,0,1,.556-1.607,2.005,2.005,0,0,1,1.484-.556h3.545a7.441,7.441,0,0,1,1.628.155,3.155,3.155,0,0,1,1.175.515,2.921,2.921,0,0,1,.824.948,6.8,6.8,0,0,1,.577,1.453l5.77,15.889h.082l5.976-15.848a8.4,8.4,0,0,1,.587-1.463,3.408,3.408,0,0,1,.742-.969,2.452,2.452,0,0,1,1-.526,5.2,5.2,0,0,1,1.34-.155h3.648a2.843,2.843,0,0,1,.958.144,1.631,1.631,0,0,1,.659.422,1.843,1.843,0,0,1,.392.68,2.9,2.9,0,0,1,.134.917Zm21.165.1a.549.549,0,0,1-.206.453,1.413,1.413,0,0,1-.649.237,8.8,8.8,0,0,1-1.309.072,8.929,8.929,0,0,1-1.35-.072,1.161,1.161,0,0,1-.6-.237.592.592,0,0,1-.175-.453V-6.541a8.357,8.357,0,0,1-2.586,1.9,7.514,7.514,0,0,1-3.225.68,9.023,9.023,0,0,1-2.689-.381A6.057,6.057,0,0,1-109.03-5.48a5.1,5.1,0,0,1-1.391-1.865,6.345,6.345,0,0,1-.495-2.6,5.878,5.878,0,0,1,.629-2.792,5.112,5.112,0,0,1,1.875-1.958,9.337,9.337,0,0,1,3.1-1.144A22.162,22.162,0,0,1-101-16.207h1.793V-17.32a5.847,5.847,0,0,0-.175-1.515,2.525,2.525,0,0,0-.577-1.082,2.382,2.382,0,0,0-1.072-.639,5.717,5.717,0,0,0-1.659-.206,8.529,8.529,0,0,0-2.318.289,13.3,13.3,0,0,0-1.8.639q-.783.35-1.309.639a1.914,1.914,0,0,1-.855.289.614.614,0,0,1-.4-.144,1.052,1.052,0,0,1-.289-.412,2.848,2.848,0,0,1-.175-.659,5.574,5.574,0,0,1-.062-.866,3.926,3.926,0,0,1,.1-1.01,1.555,1.555,0,0,1,.392-.67,3.852,3.852,0,0,1,1.01-.659,11.862,11.862,0,0,1,1.69-.67,15.624,15.624,0,0,1,2.112-.5,13.964,13.964,0,0,1,2.36-.2,14.092,14.092,0,0,1,3.7.422,6.238,6.238,0,0,1,2.525,1.3,5.045,5.045,0,0,1,1.443,2.257,10.545,10.545,0,0,1,.453,3.277Zm-5.09-7.872h-1.978a10.631,10.631,0,0,0-2.143.185,4.11,4.11,0,0,0-1.443.556,2.293,2.293,0,0,0-.814.9,2.705,2.705,0,0,0-.258,1.206,2.318,2.318,0,0,0,.732,1.814,2.923,2.923,0,0,0,2.03.659,3.8,3.8,0,0,0,2.009-.556A8.334,8.334,0,0,0-99.21-9.818ZM-71.389-5.14a.56.56,0,0,1-.124.361.906.906,0,0,1-.412.258,3.509,3.509,0,0,1-.793.155q-.5.052-1.247.052-.763,0-1.267-.052a3.509,3.509,0,0,1-.793-.155.906.906,0,0,1-.412-.258.56.56,0,0,1-.124-.361V-15.63a8.846,8.846,0,0,0-.2-2.1,4.144,4.144,0,0,0-.567-1.309,2.525,2.525,0,0,0-.958-.845,2.984,2.984,0,0,0-1.37-.3,3.434,3.434,0,0,0-2,.721,10.8,10.8,0,0,0-2.1,2.1V-5.14a.56.56,0,0,1-.124.361.909.909,0,0,1-.422.258,3.676,3.676,0,0,1-.793.155,12.541,12.541,0,0,1-1.257.052,12.541,12.541,0,0,1-1.257-.052,3.676,3.676,0,0,1-.793-.155.909.909,0,0,1-.422-.258.56.56,0,0,1-.124-.361V-23.523a.635.635,0,0,1,.1-.361.755.755,0,0,1,.371-.258,2.959,2.959,0,0,1,.69-.155,9.027,9.027,0,0,1,1.061-.052,9.527,9.527,0,0,1,1.092.052,2.477,2.477,0,0,1,.67.155.756.756,0,0,1,.34.258.635.635,0,0,1,.1.361V-21.4a11.671,11.671,0,0,1,3.1-2.473,7,7,0,0,1,3.287-.824,7.275,7.275,0,0,1,3.163.618,5.537,5.537,0,0,1,2.081,1.68,6.819,6.819,0,0,1,1.144,2.483,14.48,14.48,0,0,1,.35,3.421Zm22.525,0a.635.635,0,0,1-.1.361.754.754,0,0,1-.361.258,2.781,2.781,0,0,1-.68.155,9.028,9.028,0,0,1-1.061.052,9.474,9.474,0,0,1-1.1-.052,2.613,2.613,0,0,1-.67-.155.754.754,0,0,1-.35-.258.635.635,0,0,1-.1-.361V-7.263A11.671,11.671,0,0,1-56.4-4.79a6.964,6.964,0,0,1-3.266.824,7.329,7.329,0,0,1-3.184-.618,5.5,5.5,0,0,1-2.081-1.69,6.8,6.8,0,0,1-1.133-2.483,15.306,15.306,0,0,1-.34-3.514V-23.523a.593.593,0,0,1,.113-.361.835.835,0,0,1,.412-.258,3.7,3.7,0,0,1,.8-.155q.5-.052,1.247-.052a12.541,12.541,0,0,1,1.257.052,3.676,3.676,0,0,1,.793.155.909.909,0,0,1,.422.258.56.56,0,0,1,.124.361v10.387a9.93,9.93,0,0,0,.185,2.205,3.854,3.854,0,0,0,.567,1.309,2.607,2.607,0,0,0,.969.845,2.984,2.984,0,0,0,1.37.3A3.39,3.39,0,0,0-56.149-9.2a11.88,11.88,0,0,0,2.133-2.1V-23.523a.593.593,0,0,1,.113-.361.835.835,0,0,1,.412-.258A3.676,3.676,0,0,1-52.7-24.3a12.54,12.54,0,0,1,1.257-.052,12.541,12.541,0,0,1,1.257.052,3.483,3.483,0,0,1,.783.155.906.906,0,0,1,.412.258.56.56,0,0,1,.124.361Zm16.3-25.389a8.828,8.828,0,0,1-.041.958,2.109,2.109,0,0,1-.124.556.608.608,0,0,1-.185.268.387.387,0,0,1-.227.072.848.848,0,0,1-.319-.072q-.175-.072-.433-.155a5.967,5.967,0,0,0-.608-.155,4.134,4.134,0,0,0-.824-.072,2.387,2.387,0,0,0-.958.175,1.583,1.583,0,0,0-.67.556,2.614,2.614,0,0,0-.392.989,7.645,7.645,0,0,0-.124,1.494v1.69h3.359a.6.6,0,0,1,.34.1.756.756,0,0,1,.258.34,2.432,2.432,0,0,1,.155.649,8.332,8.332,0,0,1,.052,1.01,4.514,4.514,0,0,1-.206,1.618q-.206.484-.6.484h-3.359V-5.14a.56.56,0,0,1-.124.361A.906.906,0,0,1-38-4.522a3.537,3.537,0,0,1-.8.155q-.515.052-1.257.052t-1.247-.052a3.7,3.7,0,0,1-.8-.155.835.835,0,0,1-.412-.258.593.593,0,0,1-.113-.361V-20.019h-2.308q-.392,0-.587-.484a4.735,4.735,0,0,1-.2-1.618,8.332,8.332,0,0,1,.052-1.01,2.794,2.794,0,0,1,.144-.649.7.7,0,0,1,.247-.34.635.635,0,0,1,.361-.1h2.288v-1.546a13.008,13.008,0,0,1,.371-3.287A5.9,5.9,0,0,1-41.1-31.405a4.911,4.911,0,0,1,2.02-1.412,8.018,8.018,0,0,1,2.9-.474,8.344,8.344,0,0,1,1.525.134,7.008,7.008,0,0,1,1.133.289,1.812,1.812,0,0,1,.556.289.975.975,0,0,1,.237.392,2.842,2.842,0,0,1,.134.659Q-32.563-31.127-32.563-30.53ZM-15.314-5.078a.549.549,0,0,1-.206.453,1.413,1.413,0,0,1-.649.237,8.8,8.8,0,0,1-1.309.072,8.929,8.929,0,0,1-1.35-.072,1.161,1.161,0,0,1-.6-.237.592.592,0,0,1-.175-.453V-6.541a8.357,8.357,0,0,1-2.586,1.9,7.514,7.514,0,0,1-3.225.68A9.023,9.023,0,0,1-28.1-4.347,6.057,6.057,0,0,1-30.224-5.48a5.1,5.1,0,0,1-1.391-1.865,6.345,6.345,0,0,1-.495-2.6,5.878,5.878,0,0,1,.629-2.792,5.112,5.112,0,0,1,1.875-1.958,9.337,9.337,0,0,1,3.1-1.144,22.162,22.162,0,0,1,4.307-.371H-20.4V-17.32a5.847,5.847,0,0,0-.175-1.515,2.525,2.525,0,0,0-.577-1.082,2.382,2.382,0,0,0-1.072-.639,5.717,5.717,0,0,0-1.659-.206,8.529,8.529,0,0,0-2.318.289,13.3,13.3,0,0,0-1.8.639q-.783.35-1.309.639a1.914,1.914,0,0,1-.855.289.614.614,0,0,1-.4-.144,1.052,1.052,0,0,1-.289-.412,2.848,2.848,0,0,1-.175-.659,5.571,5.571,0,0,1-.062-.866A3.925,3.925,0,0,1-31-22a1.555,1.555,0,0,1,.392-.67,3.852,3.852,0,0,1,1.01-.659,11.863,11.863,0,0,1,1.69-.67,15.624,15.624,0,0,1,2.112-.5,13.964,13.964,0,0,1,2.36-.2,14.092,14.092,0,0,1,3.7.422,6.238,6.238,0,0,1,2.525,1.3,5.045,5.045,0,0,1,1.443,2.257,10.545,10.545,0,0,1,.453,3.277Zm-5.09-7.872h-1.978a10.63,10.63,0,0,0-2.143.185,4.11,4.11,0,0,0-1.443.556,2.293,2.293,0,0,0-.814.9,2.705,2.705,0,0,0-.258,1.206,2.318,2.318,0,0,0,.732,1.814,2.923,2.923,0,0,0,2.03.659,3.8,3.8,0,0,0,2.009-.556A8.334,8.334,0,0,0-20.4-9.818ZM3.77-8.066q0,.536-.031.9a5.243,5.243,0,0,1-.082.608,1.87,1.87,0,0,1-.124.4,1.492,1.492,0,0,1-.319.392,4.534,4.534,0,0,1-.845.577,8.339,8.339,0,0,1-1.36.608,11.014,11.014,0,0,1-1.659.433A10.178,10.178,0,0,1-2.5-3.986a10.012,10.012,0,0,1-3.761-.659A7.058,7.058,0,0,1-9.007-6.593a8.563,8.563,0,0,1-1.68-3.143,14.536,14.536,0,0,1-.567-4.245,14.723,14.723,0,0,1,.69-4.771A9.121,9.121,0,0,1-8.636-22.08,7.686,7.686,0,0,1-5.71-24.038,10.411,10.411,0,0,1-2-24.677a9.025,9.025,0,0,1,1.618.144,9.361,9.361,0,0,1,1.484.392,7.956,7.956,0,0,1,1.236.556,3.78,3.78,0,0,1,.773.536,2.158,2.158,0,0,1,.319.381,1.3,1.3,0,0,1,.144.4,5.241,5.241,0,0,1,.082.608q.031.361.031.876a4.758,4.758,0,0,1-.206,1.68q-.206.484-.536.484a1.27,1.27,0,0,1-.742-.289q-.392-.289-.927-.639A6.917,6.917,0,0,0,0-20.184a4.889,4.889,0,0,0-1.772-.289,3.523,3.523,0,0,0-3.091,1.556,8.046,8.046,0,0,0-1.072,4.565,11.448,11.448,0,0,0,.268,2.617,5.575,5.575,0,0,0,.793,1.9A3.345,3.345,0,0,0-3.557-8.7a4.213,4.213,0,0,0,1.844.381A4.817,4.817,0,0,0,.132-8.633a7.509,7.509,0,0,0,1.35-.711q.577-.392.969-.711a1.147,1.147,0,0,1,.659-.319.467.467,0,0,1,.309.1.729.729,0,0,1,.2.381,4.681,4.681,0,0,1,.113.711Q3.77-8.747,3.77-8.066ZM18.4-6.954a6.488,6.488,0,0,1-.113,1.391,1.5,1.5,0,0,1-.3.68,1.629,1.629,0,0,1-.546.35,5.116,5.116,0,0,1-.845.268,8.816,8.816,0,0,1-1.051.175,10.539,10.539,0,0,1-1.144.062,8.221,8.221,0,0,1-2.679-.392A4.451,4.451,0,0,1,9.849-5.624,5.019,5.019,0,0,1,8.757-7.675a10.809,10.809,0,0,1-.35-2.926v-9.418H6.2q-.392,0-.6-.484A4.514,4.514,0,0,1,5.4-22.121a8.332,8.332,0,0,1,.052-1.01A2.432,2.432,0,0,1,5.6-23.78a.756.756,0,0,1,.258-.34.635.635,0,0,1,.361-.1H8.407v-4.1A.64.64,0,0,1,8.52-28.7a.85.85,0,0,1,.412-.278,3.27,3.27,0,0,1,.8-.165q.5-.052,1.247-.052.763,0,1.267.052a3.107,3.107,0,0,1,.793.165.923.923,0,0,1,.412.278.6.6,0,0,1,.124.371v4.1h4a.635.635,0,0,1,.361.1.756.756,0,0,1,.258.34,2.432,2.432,0,0,1,.155.649,8.333,8.333,0,0,1,.052,1.01A4.514,4.514,0,0,1,18.2-20.5q-.206.484-.6.484H13.579v8.635a4.3,4.3,0,0,0,.474,2.257,1.838,1.838,0,0,0,1.69.752,3.484,3.484,0,0,0,.742-.072,4.722,4.722,0,0,0,.587-.165q.258-.093.433-.165a.848.848,0,0,1,.319-.072.435.435,0,0,1,.237.072.485.485,0,0,1,.175.289,4.474,4.474,0,0,1,.113.587A7.122,7.122,0,0,1,18.4-6.954ZM39.587-5.14a.635.635,0,0,1-.1.361.753.753,0,0,1-.361.258,2.781,2.781,0,0,1-.68.155,9.028,9.028,0,0,1-1.061.052,9.474,9.474,0,0,1-1.1-.052,2.613,2.613,0,0,1-.67-.155.754.754,0,0,1-.35-.258.635.635,0,0,1-.1-.361V-7.263a11.671,11.671,0,0,1-3.1,2.473,6.964,6.964,0,0,1-3.266.824A7.329,7.329,0,0,1,25.6-4.584a5.5,5.5,0,0,1-2.081-1.69,6.8,6.8,0,0,1-1.133-2.483,15.306,15.306,0,0,1-.34-3.514V-23.523a.593.593,0,0,1,.113-.361.835.835,0,0,1,.412-.258,3.7,3.7,0,0,1,.8-.155q.5-.052,1.247-.052a12.541,12.541,0,0,1,1.257.052,3.676,3.676,0,0,1,.793.155.909.909,0,0,1,.422.258.56.56,0,0,1,.124.361v10.387a9.93,9.93,0,0,0,.185,2.205,3.854,3.854,0,0,0,.567,1.309,2.607,2.607,0,0,0,.969.845,2.984,2.984,0,0,0,1.37.3A3.39,3.39,0,0,0,32.3-9.2a11.88,11.88,0,0,0,2.133-2.1V-23.523a.593.593,0,0,1,.113-.361.835.835,0,0,1,.412-.258,3.676,3.676,0,0,1,.793-.155,12.54,12.54,0,0,1,1.257-.052,12.541,12.541,0,0,1,1.257.052,3.483,3.483,0,0,1,.783.155.906.906,0,0,1,.412.258.56.56,0,0,1,.124.361ZM56.609-21.812q0,.742-.041,1.216a3.741,3.741,0,0,1-.124.742.726.726,0,0,1-.216.371.541.541,0,0,1-.34.1,1.137,1.137,0,0,1-.371-.072q-.206-.072-.464-.155t-.567-.155a2.993,2.993,0,0,0-.68-.072,2.292,2.292,0,0,0-.866.175,3.651,3.651,0,0,0-.9.546,6.657,6.657,0,0,0-.969.989A16.1,16.1,0,0,0,49.994-16.6V-5.14a.56.56,0,0,1-.124.361.909.909,0,0,1-.422.258,3.676,3.676,0,0,1-.793.155,12.541,12.541,0,0,1-1.257.052,12.541,12.541,0,0,1-1.257-.052,3.676,3.676,0,0,1-.793-.155.909.909,0,0,1-.422-.258A.56.56,0,0,1,44.8-5.14V-23.523a.635.635,0,0,1,.1-.361.755.755,0,0,1,.371-.258,2.959,2.959,0,0,1,.69-.155,9.027,9.027,0,0,1,1.061-.052,9.527,9.527,0,0,1,1.092.052,2.477,2.477,0,0,1,.67.155.756.756,0,0,1,.34.258.635.635,0,0,1,.1.361v2.288a14.663,14.663,0,0,1,1.36-1.7A7.691,7.691,0,0,1,51.808-24a3.826,3.826,0,0,1,1.154-.546,4.444,4.444,0,0,1,1.154-.155q.268,0,.577.031a5.6,5.6,0,0,1,.639.1,4.23,4.23,0,0,1,.577.165,1.141,1.141,0,0,1,.361.2.64.64,0,0,1,.165.227,1.787,1.787,0,0,1,.093.34,5.048,5.048,0,0,1,.062.649Q56.609-22.554,56.609-21.812ZM65-5.14a.56.56,0,0,1-.124.361.909.909,0,0,1-.422.258,3.676,3.676,0,0,1-.793.155,12.541,12.541,0,0,1-1.257.052,12.541,12.541,0,0,1-1.257-.052,3.676,3.676,0,0,1-.793-.155.909.909,0,0,1-.422-.258A.56.56,0,0,1,59.8-5.14V-23.481a.56.56,0,0,1,.124-.361.974.974,0,0,1,.422-.268,3.536,3.536,0,0,1,.793-.175,10.468,10.468,0,0,1,1.257-.062,10.469,10.469,0,0,1,1.257.062,3.536,3.536,0,0,1,.793.175.974.974,0,0,1,.422.268.56.56,0,0,1,.124.361Zm.392-24.606a2.908,2.908,0,0,1-.639,2.164,3.518,3.518,0,0,1-2.37.6,3.515,3.515,0,0,1-2.36-.577,2.821,2.821,0,0,1-.608-2.081,2.978,2.978,0,0,1,.629-2.174,3.47,3.47,0,0,1,2.38-.608,3.474,3.474,0,0,1,2.349.587A2.829,2.829,0,0,1,65.388-29.746ZM87.728-5.14a.56.56,0,0,1-.124.361.906.906,0,0,1-.412.258,3.509,3.509,0,0,1-.793.155q-.5.052-1.247.052-.763,0-1.267-.052a3.509,3.509,0,0,1-.793-.155.906.906,0,0,1-.412-.258.56.56,0,0,1-.124-.361V-15.63a8.846,8.846,0,0,0-.2-2.1,4.144,4.144,0,0,0-.567-1.309,2.525,2.525,0,0,0-.958-.845,2.984,2.984,0,0,0-1.37-.3,3.434,3.434,0,0,0-2,.721,10.8,10.8,0,0,0-2.1,2.1V-5.14a.56.56,0,0,1-.124.361.909.909,0,0,1-.422.258,3.676,3.676,0,0,1-.793.155,12.541,12.541,0,0,1-1.257.052,12.541,12.541,0,0,1-1.257-.052,3.676,3.676,0,0,1-.793-.155.909.909,0,0,1-.422-.258.56.56,0,0,1-.124-.361V-23.523a.635.635,0,0,1,.1-.361.755.755,0,0,1,.371-.258,2.959,2.959,0,0,1,.69-.155,9.027,9.027,0,0,1,1.061-.052,9.527,9.527,0,0,1,1.092.052,2.477,2.477,0,0,1,.67.155.756.756,0,0,1,.34.258.635.635,0,0,1,.1.361V-21.4a11.671,11.671,0,0,1,3.1-2.473,7,7,0,0,1,3.287-.824,7.275,7.275,0,0,1,3.163.618,5.537,5.537,0,0,1,2.081,1.68,6.819,6.819,0,0,1,1.144,2.483,14.479,14.479,0,0,1,.35,3.421Zm21.659-17.1a3.566,3.566,0,0,1-.227,1.463q-.227.474-.556.474H106.44a2.937,2.937,0,0,1,.649,1.123,4.374,4.374,0,0,1,.2,1.309,7.17,7.17,0,0,1-.536,2.854,5.672,5.672,0,0,1-1.535,2.1,6.78,6.78,0,0,1-2.411,1.3,10.464,10.464,0,0,1-3.143.443,6.474,6.474,0,0,1-1.69-.216,4.275,4.275,0,0,1-1.236-.5,3,3,0,0,0-.443.639,1.738,1.738,0,0,0-.2.824,1.162,1.162,0,0,0,.526.979,2.679,2.679,0,0,0,1.473.422l4.472.165a10.857,10.857,0,0,1,2.792.443,5.976,5.976,0,0,1,2.061,1.072A4.627,4.627,0,0,1,108.7-5.7a5.245,5.245,0,0,1,.443,2.205,5.7,5.7,0,0,1-.6,2.566,5.814,5.814,0,0,1-1.793,2.092,9.272,9.272,0,0,1-3,1.4,15.414,15.414,0,0,1-4.214.515,18.644,18.644,0,0,1-4.008-.371,8.794,8.794,0,0,1-2.72-1.03A4.178,4.178,0,0,1,91.262.1,4.236,4.236,0,0,1,90.778-1.9a4.741,4.741,0,0,1,.175-1.3,4.882,4.882,0,0,1,.515-1.185A6.085,6.085,0,0,1,92.3-5.47a9,9,0,0,1,1.133-.989,3.446,3.446,0,0,1-1.37-1.288,3.423,3.423,0,0,1-.484-1.783,4.477,4.477,0,0,1,.556-2.215,7.068,7.068,0,0,1,1.443-1.8,5.457,5.457,0,0,1-1.154-1.731,6.4,6.4,0,0,1-.433-2.514,6.972,6.972,0,0,1,.567-2.875,6.083,6.083,0,0,1,1.577-2.143,6.975,6.975,0,0,1,2.411-1.34,9.8,9.8,0,0,1,3.091-.464,12.881,12.881,0,0,1,1.659.1,10.98,10.98,0,0,1,1.473.289H108.6q.35,0,.567.453A3.84,3.84,0,0,1,109.387-22.245ZM102.731-17.9a3.12,3.12,0,0,0-.824-2.308,3.149,3.149,0,0,0-2.329-.824,3.259,3.259,0,0,0-1.34.258,2.688,2.688,0,0,0-.958.7,2.9,2.9,0,0,0-.567,1.03,4.048,4.048,0,0,0-.185,1.226,2.972,2.972,0,0,0,.824,2.215,3.114,3.114,0,0,0,2.288.814,3.435,3.435,0,0,0,1.36-.247,2.641,2.641,0,0,0,.958-.68,2.955,2.955,0,0,0,.577-1A3.6,3.6,0,0,0,102.731-17.9Zm1.216,14.673a1.606,1.606,0,0,0-.742-1.422,3.872,3.872,0,0,0-2.04-.536l-3.689-.1a5.4,5.4,0,0,0-.855.752,4.6,4.6,0,0,0-.515.69,2.045,2.045,0,0,0-.258.639,3.25,3.25,0,0,0-.062.639A1.69,1.69,0,0,0,96.826-1a6.532,6.532,0,0,0,2.937.536A7.088,7.088,0,0,0,101.741-.7a3.814,3.814,0,0,0,1.3-.629,2.251,2.251,0,0,0,.7-.876A2.579,2.579,0,0,0,103.946-3.224Z" transform="translate(90.862 113.917)" fill="#444"/>
  </g>
</svg>
