<svg xmlns="http://www.w3.org/2000/svg" width="229.407" height="127.999" viewBox="0 0 229.407 127.999">
  <g id="point-of-sales" transform="translate(44.857 -19.788)">
    <path id="Path_3308" data-name="Path 3308" d="M14.078,8,6,72.624H19.892a15,15,0,0,0,29.916,0h.044a13.848,13.848,0,1,0,27.7,0h.044a15,15,0,0,0,29.916,0h.044V70.316l-.1-.63q-.053-.447-.134-.891l-.053-.272-.046-.231L98.451,15.716A9.232,9.232,0,0,0,89.346,8Z" transform="translate(20.195 11.788)" fill="#985184"/>
    <path id="Path_3309" data-name="Path 3309" d="M32.312,8,27.7,72.624a13.848,13.848,0,1,1-27.7,0V70.316L8.064,15.88A9.232,9.232,0,0,1,17.2,8ZM80.78,8,85.4,72.624a13.848,13.848,0,1,1-27.7,0V8Z" transform="translate(12.346 11.788)" fill="#fbb945"/>
    <path id="Path_3310" data-name="Path 3310" d="M27.7,36A13.848,13.848,0,1,1,0,36Zm57.7,0a13.848,13.848,0,1,1-27.7,0Z" transform="translate(12.346 48.412)" fill="#f78613"/>
    <path id="Path_3311" data-name="Path 3311" d="M12.02,36a15,15,0,0,0,29.914,0Zm57.7,0a15,15,0,0,0,29.914,0Z" transform="translate(28.068 48.412)" fill="#712258"/>
    <path id="Path_3338" data-name="Path 3338" d="M-66.3-10.585a10.168,10.168,0,0,1-.676,3.838,7.405,7.405,0,0,1-1.969,2.814,8.678,8.678,0,0,1-3.172,1.74,14.676,14.676,0,0,1-4.425.6h-2.148V6.617a.553.553,0,0,1-.129.358.907.907,0,0,1-.428.259,4.172,4.172,0,0,1-.8.159,11.054,11.054,0,0,1-1.273.06,11.107,11.107,0,0,1-1.263-.06,4.189,4.189,0,0,1-.805-.159.838.838,0,0,1-.418-.259.582.582,0,0,1-.119-.358V-16.531a1.857,1.857,0,0,1,.487-1.4,1.775,1.775,0,0,1,1.283-.467h6.065q.915,0,1.74.07a18.344,18.344,0,0,1,1.979.3,8.743,8.743,0,0,1,2.337.845,6.949,6.949,0,0,1,2.018,1.561,6.509,6.509,0,0,1,1.273,2.207A8.62,8.62,0,0,1-66.3-10.585Zm-5.469.378a4.62,4.62,0,0,0-.477-2.227,3.3,3.3,0,0,0-1.173-1.293,3.888,3.888,0,0,0-1.462-.527,11.169,11.169,0,0,0-1.581-.109h-2.227v8.73h2.347a5.677,5.677,0,0,0,2.1-.338,3.588,3.588,0,0,0,1.382-.945,4.09,4.09,0,0,0,.815-1.452A5.848,5.848,0,0,0-71.77-10.207Zm26.508,7.815a13.555,13.555,0,0,1-.6,4.136,8.729,8.729,0,0,1-1.81,3.222,8.047,8.047,0,0,1-3.043,2.088,11.412,11.412,0,0,1-4.276.736A11.711,11.711,0,0,1-59.1,7.134a7.406,7.406,0,0,1-2.9-1.909,7.845,7.845,0,0,1-1.71-3.082,14.347,14.347,0,0,1-.557-4.176,13.444,13.444,0,0,1,.607-4.146A8.735,8.735,0,0,1-61.847-9.4a8.116,8.116,0,0,1,3.033-2.078,11.334,11.334,0,0,1,4.266-.736,11.939,11.939,0,0,1,4.136.646,7.232,7.232,0,0,1,2.893,1.9,7.912,7.912,0,0,1,1.7,3.082A14.424,14.424,0,0,1-45.262-2.391Zm-5.151.2a13.021,13.021,0,0,0-.209-2.416,5.684,5.684,0,0,0-.706-1.919A3.53,3.53,0,0,0-52.65-7.8a4.248,4.248,0,0,0-2.078-.457,4.394,4.394,0,0,0-1.949.408,3.5,3.5,0,0,0-1.372,1.193,5.708,5.708,0,0,0-.805,1.889,10.685,10.685,0,0,0-.268,2.516A12.445,12.445,0,0,0-58.9.164,5.98,5.98,0,0,0-58.2,2.083a3.365,3.365,0,0,0,1.322,1.263,4.339,4.339,0,0,0,2.068.447,4.442,4.442,0,0,0,1.969-.408A3.526,3.526,0,0,0-51.467,2.2a5.454,5.454,0,0,0,.8-1.879A11.079,11.079,0,0,0-50.413-2.193Zm14.119,8.849A.541.541,0,0,1-36.413,7a.877.877,0,0,1-.408.249,3.548,3.548,0,0,1-.766.149,12.1,12.1,0,0,1-1.213.05,12.1,12.1,0,0,1-1.213-.05,3.548,3.548,0,0,1-.766-.149A.877.877,0,0,1-41.185,7a.541.541,0,0,1-.119-.348v-17.7a.541.541,0,0,1,.119-.348.94.94,0,0,1,.408-.259,3.412,3.412,0,0,1,.766-.169,10.1,10.1,0,0,1,1.213-.06,10.1,10.1,0,0,1,1.213.06,3.412,3.412,0,0,1,.766.169.94.94,0,0,1,.408.259.541.541,0,0,1,.119.348Zm.378-23.744A2.806,2.806,0,0,1-36.532-15a3.4,3.4,0,0,1-2.287.577,3.392,3.392,0,0,1-2.277-.557,2.723,2.723,0,0,1-.587-2.009,2.874,2.874,0,0,1,.607-2.1,3.349,3.349,0,0,1,2.3-.587,3.352,3.352,0,0,1,2.267.567A2.73,2.73,0,0,1-35.916-17.087ZM-14.359,6.657A.541.541,0,0,1-14.478,7a.874.874,0,0,1-.4.249,3.386,3.386,0,0,1-.766.149q-.487.05-1.2.05-.736,0-1.223-.05a3.386,3.386,0,0,1-.766-.149.874.874,0,0,1-.4-.249.541.541,0,0,1-.119-.348V-3.465a8.536,8.536,0,0,0-.189-2.028,4,4,0,0,0-.547-1.263,2.436,2.436,0,0,0-.925-.815,2.879,2.879,0,0,0-1.322-.288,3.314,3.314,0,0,0-1.929.7,10.419,10.419,0,0,0-2.028,2.028V6.657A.541.541,0,0,1-26.41,7a.877.877,0,0,1-.408.249,3.548,3.548,0,0,1-.766.149,12.1,12.1,0,0,1-1.213.05,12.1,12.1,0,0,1-1.213-.05,3.548,3.548,0,0,1-.766-.149A.877.877,0,0,1-31.183,7a.541.541,0,0,1-.119-.348V-11.082a.613.613,0,0,1,.1-.348.729.729,0,0,1,.358-.249,2.856,2.856,0,0,1,.666-.149,8.713,8.713,0,0,1,1.024-.05,9.194,9.194,0,0,1,1.054.05,2.39,2.39,0,0,1,.646.149.729.729,0,0,1,.328.249.613.613,0,0,1,.1.348v2.048a11.262,11.262,0,0,1,2.993-2.386,6.758,6.758,0,0,1,3.172-.8,7.02,7.02,0,0,1,3.053.6A5.343,5.343,0,0,1-15.8-10a6.58,6.58,0,0,1,1.1,2.4,13.972,13.972,0,0,1,.338,3.3ZM.675,4.907A6.261,6.261,0,0,1,.566,6.249a1.448,1.448,0,0,1-.288.656,1.572,1.572,0,0,1-.527.338,4.937,4.937,0,0,1-.815.259,8.507,8.507,0,0,1-1.014.169,10.17,10.17,0,0,1-1.1.06,7.933,7.933,0,0,1-2.585-.378,4.3,4.3,0,0,1-1.81-1.163A4.843,4.843,0,0,1-8.632,4.211,10.431,10.431,0,0,1-8.97,1.387V-7.7H-11.1q-.378,0-.577-.467a4.356,4.356,0,0,1-.2-1.561,8.04,8.04,0,0,1,.05-.974,2.347,2.347,0,0,1,.149-.626.729.729,0,0,1,.249-.328.613.613,0,0,1,.348-.1H-8.97v-3.957a.617.617,0,0,1,.109-.358.82.82,0,0,1,.4-.268,3.155,3.155,0,0,1,.776-.159q.487-.05,1.2-.05.736,0,1.223.05a3,3,0,0,1,.766.159.891.891,0,0,1,.4.268.582.582,0,0,1,.119.358v3.957H-.12a.613.613,0,0,1,.348.1.729.729,0,0,1,.249.328,2.347,2.347,0,0,1,.149.626,8.04,8.04,0,0,1,.05.974,4.356,4.356,0,0,1-.2,1.561Q.277-7.7-.1-7.7H-3.978V.631a4.146,4.146,0,0,0,.457,2.178,1.774,1.774,0,0,0,1.631.726,3.362,3.362,0,0,0,.716-.07,4.557,4.557,0,0,0,.567-.159q.249-.089.418-.159a.818.818,0,0,1,.308-.07.42.42,0,0,1,.229.07.468.468,0,0,1,.169.278,4.317,4.317,0,0,1,.109.567A6.872,6.872,0,0,1,.675,4.907ZM36.947-5.832a19.043,19.043,0,0,1-.8,5.727,11.544,11.544,0,0,1-2.366,4.285A10.182,10.182,0,0,1,29.9,6.866a14.386,14.386,0,0,1-5.359.925A15.821,15.821,0,0,1,19.3,7a9.084,9.084,0,0,1-3.729-2.4,10.259,10.259,0,0,1-2.237-4.1,20.6,20.6,0,0,1-.746-5.886,18.46,18.46,0,0,1,.8-5.618,11.474,11.474,0,0,1,2.366-4.246,10.33,10.33,0,0,1,3.888-2.685,14.308,14.308,0,0,1,5.379-.935,15.734,15.734,0,0,1,5.16.776A9.077,9.077,0,0,1,33.915-15.7a10.4,10.4,0,0,1,2.267,4.067A19.563,19.563,0,0,1,36.947-5.832Zm-5.489.278a19.665,19.665,0,0,0-.318-3.689,7.931,7.931,0,0,0-1.084-2.844,5.173,5.173,0,0,0-2.038-1.83,6.991,6.991,0,0,0-3.182-.646,6.506,6.506,0,0,0-3.222.726A5.925,5.925,0,0,0,19.527-11.9,8.011,8.011,0,0,0,18.4-9.063a17.263,17.263,0,0,0-.328,3.43,20.468,20.468,0,0,0,.318,3.788,8.16,8.16,0,0,0,1.074,2.874A4.935,4.935,0,0,0,21.5,2.849a7.231,7.231,0,0,0,3.2.626,6.58,6.58,0,0,0,3.222-.716A5.777,5.777,0,0,0,30.007.81a8.218,8.218,0,0,0,1.124-2.874A17.778,17.778,0,0,0,31.459-5.553Zm20.284-12.29a8.519,8.519,0,0,1-.04.925,2.036,2.036,0,0,1-.119.537.586.586,0,0,1-.179.259.373.373,0,0,1-.219.07.818.818,0,0,1-.308-.07q-.169-.07-.418-.149a5.758,5.758,0,0,0-.587-.149,3.989,3.989,0,0,0-.8-.07,2.3,2.3,0,0,0-.925.169,1.528,1.528,0,0,0-.646.537,2.523,2.523,0,0,0-.378.955,7.378,7.378,0,0,0-.119,1.442v1.631h3.241a.579.579,0,0,1,.328.1.729.729,0,0,1,.249.328,2.347,2.347,0,0,1,.149.626,8.043,8.043,0,0,1,.05.974,4.356,4.356,0,0,1-.2,1.561q-.2.467-.577.467H47.01V6.657A.541.541,0,0,1,46.891,7a.874.874,0,0,1-.4.249,3.413,3.413,0,0,1-.776.149q-.5.05-1.213.05T43.3,7.4a3.572,3.572,0,0,1-.776-.149.806.806,0,0,1-.4-.249.573.573,0,0,1-.109-.348V-7.7H39.791q-.378,0-.567-.467a4.569,4.569,0,0,1-.189-1.561,8.042,8.042,0,0,1,.05-.974,2.7,2.7,0,0,1,.139-.626.673.673,0,0,1,.239-.328.613.613,0,0,1,.348-.1h2.207v-1.491a12.553,12.553,0,0,1,.358-3.172A5.692,5.692,0,0,1,43.5-18.688a4.739,4.739,0,0,1,1.949-1.362,7.737,7.737,0,0,1,2.794-.457,8.052,8.052,0,0,1,1.472.129,6.763,6.763,0,0,1,1.094.278,1.748,1.748,0,0,1,.537.278.941.941,0,0,1,.229.378,2.742,2.742,0,0,1,.129.636Q51.743-18.42,51.743-17.843ZM78.689-.383a7.949,7.949,0,0,1-.756,3.56,7.377,7.377,0,0,1-2.048,2.555,8.925,8.925,0,0,1-3.023,1.541,12.856,12.856,0,0,1-3.7.517,13.184,13.184,0,0,1-2.476-.219,14.066,14.066,0,0,1-2.018-.527A8.838,8.838,0,0,1,63.207,6.4a4.224,4.224,0,0,1-.845-.6,1.491,1.491,0,0,1-.368-.746,6.814,6.814,0,0,1-.109-1.4q0-.616.04-1.034a2.986,2.986,0,0,1,.129-.676.741.741,0,0,1,.239-.368.573.573,0,0,1,.348-.109,1.651,1.651,0,0,1,.786.328,13.856,13.856,0,0,0,1.3.726,11.779,11.779,0,0,0,1.9.726,8.991,8.991,0,0,0,2.555.328,5.9,5.9,0,0,0,1.71-.229A3.825,3.825,0,0,0,72.176,2.7a2.739,2.739,0,0,0,.805-1.034A3.3,3.3,0,0,0,73.26.293a2.4,2.4,0,0,0-.477-1.5,4.734,4.734,0,0,0-1.243-1.114,12.881,12.881,0,0,0-1.74-.915q-.974-.428-2.008-.9a18.347,18.347,0,0,1-2.009-1.084,8.139,8.139,0,0,1-1.74-1.452,6.841,6.841,0,0,1-1.243-2,7.216,7.216,0,0,1-.477-2.764,7.311,7.311,0,0,1,.686-3.251,6.669,6.669,0,0,1,1.849-2.327A7.87,7.87,0,0,1,67.6-18.4a12,12,0,0,1,3.351-.457,12.145,12.145,0,0,1,1.83.139,12.494,12.494,0,0,1,1.71.378A9.549,9.549,0,0,1,75.9-17.8a3.3,3.3,0,0,1,.815.5,1.43,1.43,0,0,1,.268.338,1.6,1.6,0,0,1,.119.368,3.811,3.811,0,0,1,.07.577q.02.348.02.865,0,.577-.03.974a3.634,3.634,0,0,1-.1.656.78.78,0,0,1-.2.378.493.493,0,0,1-.348.119,1.661,1.661,0,0,1-.7-.278q-.477-.278-1.173-.607a11.168,11.168,0,0,0-1.611-.6,7.112,7.112,0,0,0-2.009-.268,4.794,4.794,0,0,0-1.491.209A3.083,3.083,0,0,0,68.477-14a2.277,2.277,0,0,0-.636.885,2.893,2.893,0,0,0-.209,1.094,2.408,2.408,0,0,0,.467,1.482,4.485,4.485,0,0,0,1.253,1.114,13.478,13.478,0,0,0,1.78.915q.994.428,2.028.9a19.937,19.937,0,0,1,2.028,1.084,8.145,8.145,0,0,1,1.77,1.452,6.763,6.763,0,0,1,1.253,1.989A6.965,6.965,0,0,1,78.689-.383ZM97.5,6.716a.53.53,0,0,1-.2.437,1.363,1.363,0,0,1-.626.229,8.49,8.49,0,0,1-1.263.07,8.616,8.616,0,0,1-1.3-.07,1.121,1.121,0,0,1-.577-.229.572.572,0,0,1-.169-.437V5.3a8.064,8.064,0,0,1-2.5,1.83,7.251,7.251,0,0,1-3.112.656,8.707,8.707,0,0,1-2.6-.368,5.844,5.844,0,0,1-2.048-1.094,4.921,4.921,0,0,1-1.342-1.8,6.122,6.122,0,0,1-.477-2.506A5.672,5.672,0,0,1,81.9-.671a4.933,4.933,0,0,1,1.81-1.889,9.009,9.009,0,0,1,2.993-1.1,21.386,21.386,0,0,1,4.156-.358h1.73V-5.1a5.642,5.642,0,0,0-.169-1.462A2.437,2.437,0,0,0,91.863-7.6a2.3,2.3,0,0,0-1.034-.616,5.516,5.516,0,0,0-1.6-.2,8.23,8.23,0,0,0-2.237.278,12.83,12.83,0,0,0-1.74.616q-.756.338-1.263.616a1.847,1.847,0,0,1-.825.278.593.593,0,0,1-.388-.139,1.015,1.015,0,0,1-.278-.4,2.749,2.749,0,0,1-.169-.636,5.377,5.377,0,0,1-.06-.835,3.787,3.787,0,0,1,.1-.974,1.5,1.5,0,0,1,.378-.646,3.717,3.717,0,0,1,.974-.636,11.446,11.446,0,0,1,1.631-.646,15.077,15.077,0,0,1,2.038-.487,13.475,13.475,0,0,1,2.277-.189,13.6,13.6,0,0,1,3.57.408,6.02,6.02,0,0,1,2.436,1.253,4.869,4.869,0,0,1,1.392,2.178A10.175,10.175,0,0,1,97.5-5.215ZM92.589-.88H90.68A10.258,10.258,0,0,0,88.612-.7a3.966,3.966,0,0,0-1.392.537A2.213,2.213,0,0,0,86.434.7a2.61,2.61,0,0,0-.249,1.163,2.237,2.237,0,0,0,.706,1.75,2.821,2.821,0,0,0,1.959.636,3.668,3.668,0,0,0,1.939-.537,8.042,8.042,0,0,0,1.8-1.571ZM107.5,6.657a.541.541,0,0,1-.119.348.877.877,0,0,1-.408.249,3.548,3.548,0,0,1-.766.149,12.1,12.1,0,0,1-1.213.05,12.1,12.1,0,0,1-1.213-.05,3.548,3.548,0,0,1-.766-.149A.877.877,0,0,1,102.612,7a.541.541,0,0,1-.119-.348v-26.15a.582.582,0,0,1,.119-.358.891.891,0,0,1,.408-.268,3.412,3.412,0,0,1,.766-.169,10.1,10.1,0,0,1,1.213-.06,10.1,10.1,0,0,1,1.213.06,3.412,3.412,0,0,1,.766.169.891.891,0,0,1,.408.268.582.582,0,0,1,.119.358ZM128.881-2.73a1.929,1.929,0,0,1-.408,1.352,1.46,1.46,0,0,1-1.124.437h-10.8a7.371,7.371,0,0,0,.268,2.058,3.926,3.926,0,0,0,.855,1.571,3.725,3.725,0,0,0,1.511.984,6.473,6.473,0,0,0,2.217.338,12.475,12.475,0,0,0,2.307-.189,15.3,15.3,0,0,0,1.72-.418q.726-.229,1.2-.418a2.233,2.233,0,0,1,.776-.189.584.584,0,0,1,.3.07.518.518,0,0,1,.2.249,1.663,1.663,0,0,1,.109.507q.03.328.03.825,0,.437-.02.746a4.694,4.694,0,0,1-.06.527,1.262,1.262,0,0,1-.119.368,1.38,1.38,0,0,1-.209.288,2.417,2.417,0,0,1-.706.378,11.174,11.174,0,0,1-1.472.467,20.131,20.131,0,0,1-2.048.4,17.023,17.023,0,0,1-2.466.169,13.056,13.056,0,0,1-4.146-.6,7.382,7.382,0,0,1-2.973-1.81,7.528,7.528,0,0,1-1.78-3.062,14.38,14.38,0,0,1-.587-4.335,13.779,13.779,0,0,1,.616-4.266,8.943,8.943,0,0,1,1.79-3.222,7.7,7.7,0,0,1,2.854-2.018,9.818,9.818,0,0,1,3.788-.7,9.92,9.92,0,0,1,3.808.656,6.87,6.87,0,0,1,2.6,1.82A7.341,7.341,0,0,1,128.4-6.985a12,12,0,0,1,.477,3.46Zm-4.852-1.432a5.144,5.144,0,0,0-.845-3.311,3.27,3.27,0,0,0-2.794-1.2,3.628,3.628,0,0,0-1.66.358,3.4,3.4,0,0,0-1.173.964,4.4,4.4,0,0,0-.716,1.432,7.133,7.133,0,0,0-.288,1.76Zm21.457,5.807a5.97,5.97,0,0,1-.567,2.665,5.3,5.3,0,0,1-1.6,1.929A7.215,7.215,0,0,1,140.873,7.4a11.531,11.531,0,0,1-3.062.388,11.669,11.669,0,0,1-1.9-.149,11.492,11.492,0,0,1-1.621-.378A8.477,8.477,0,0,1,133.1,6.8a2.94,2.94,0,0,1-.7-.447,1.386,1.386,0,0,1-.338-.656,5.489,5.489,0,0,1-.119-1.322,8.513,8.513,0,0,1,.04-.925,2.359,2.359,0,0,1,.119-.557.522.522,0,0,1,.2-.278.584.584,0,0,1,.3-.07,1.484,1.484,0,0,1,.646.249q.428.249,1.064.547a11.293,11.293,0,0,0,1.482.557,6.558,6.558,0,0,0,1.919.259,4.724,4.724,0,0,0,1.2-.139,3.032,3.032,0,0,0,.915-.4,1.687,1.687,0,0,0,.587-.656,2.019,2.019,0,0,0,.2-.915,1.518,1.518,0,0,0-.368-1.024,3.268,3.268,0,0,0-.974-.746,11.2,11.2,0,0,0-1.372-.6q-.766-.278-1.571-.616a14.389,14.389,0,0,1-1.571-.776,5.992,5.992,0,0,1-1.372-1.074,4.883,4.883,0,0,1-.974-1.531,5.64,5.64,0,0,1-.368-2.148,5.451,5.451,0,0,1,.5-2.337,5.082,5.082,0,0,1,1.432-1.82,6.783,6.783,0,0,1,2.277-1.173,10.122,10.122,0,0,1,3.013-.418,10.78,10.78,0,0,1,1.621.119,11.844,11.844,0,0,1,1.422.3,6.79,6.79,0,0,1,1.074.388,3.542,3.542,0,0,1,.626.358.992.992,0,0,1,.268.3,1.259,1.259,0,0,1,.119.358q.04.209.07.517t.03.766q0,.537-.03.875a2.287,2.287,0,0,1-.1.537.477.477,0,0,1-.189.268.542.542,0,0,1-.278.07,1.357,1.357,0,0,1-.557-.209,10.058,10.058,0,0,0-.945-.447,11.156,11.156,0,0,0-1.312-.447,6.317,6.317,0,0,0-1.7-.209,4.381,4.381,0,0,0-1.173.139,2.231,2.231,0,0,0-.815.4,1.674,1.674,0,0,0-.477.607,1.772,1.772,0,0,0-.159.746,1.484,1.484,0,0,0,.378,1.034,3.466,3.466,0,0,0,.994.736,11.282,11.282,0,0,0,1.4.6q.785.278,1.591.607a14.558,14.558,0,0,1,1.591.766,6.015,6.015,0,0,1,1.4,1.074,4.959,4.959,0,0,1,.994,1.521A5.319,5.319,0,0,1,145.486,1.645Z" transform="translate(39.063 139.996)" fill="#444"/>
  </g>
</svg>
