<svg xmlns="http://www.w3.org/2000/svg" width="185.073" height="128.002" viewBox="0 0 185.073 128.002">
  <g id="purchase" transform="translate(26.588 12.96)">
    <path id="Path_3322" data-name="Path 3322" d="M0,12H100.039V64.02a8,8,0,0,1-8,8H0Z" transform="translate(15.016 -16.957)" fill="#985184"/>
    <path id="Path_3323" data-name="Path 3323" d="M8,34.01a8,8,0,0,1-8-8V16A8,8,0,0,1,8,8h92.036V26.007a8,8,0,0,1-8,8Z" transform="translate(15.016 -20.96)" fill="#1ad3bb"/>
    <path id="Path_3324" data-name="Path 3324" d="M0,16H100.039v8a8,8,0,0,1-8,8H8a8,8,0,0,1-8-8Z" transform="translate(15.016 -12.954)" fill="#005e7a"/>
    <path id="Path_3342" data-name="Path 3342" d="M-68.67-21.838a12.649,12.649,0,0,1-.841,4.775,9.212,9.212,0,0,1-2.449,3.5A10.8,10.8,0,0,1-75.906-11.4a18.257,18.257,0,0,1-5.5.742h-2.672V-.438a.688.688,0,0,1-.161.445,1.129,1.129,0,0,1-.532.322,5.19,5.19,0,0,1-.99.2A13.752,13.752,0,0,1-87.348.6,13.818,13.818,0,0,1-88.918.527a5.211,5.211,0,0,1-1-.2,1.043,1.043,0,0,1-.52-.322.724.724,0,0,1-.148-.445v-28.8a2.31,2.31,0,0,1,.606-1.744,2.209,2.209,0,0,1,1.6-.581h7.545q1.138,0,2.165.087a22.819,22.819,0,0,1,2.462.371,10.877,10.877,0,0,1,2.907,1.051A8.644,8.644,0,0,1-70.8-28.109a8.1,8.1,0,0,1,1.583,2.746A10.724,10.724,0,0,1-68.67-21.838Zm-6.8.47a5.747,5.747,0,0,0-.594-2.771,4.1,4.1,0,0,0-1.46-1.608,4.837,4.837,0,0,0-1.818-.656,13.9,13.9,0,0,0-1.967-.136h-2.771v10.86h2.919a7.062,7.062,0,0,0,2.61-.421,4.464,4.464,0,0,0,1.719-1.175,5.089,5.089,0,0,0,1.014-1.806A7.275,7.275,0,0,0-75.473-21.367ZM-43.065-.389a.762.762,0,0,1-.124.433.9.9,0,0,1-.433.309,3.339,3.339,0,0,1-.816.186A10.838,10.838,0,0,1-45.712.6,11.373,11.373,0,0,1-47.035.539a3.137,3.137,0,0,1-.8-.186A.9.9,0,0,1-48.26.044a.762.762,0,0,1-.124-.433V-2.937A14.011,14.011,0,0,1-52.107.032a8.359,8.359,0,0,1-3.921.99A8.8,8.8,0,0,1-59.85.279a6.6,6.6,0,0,1-2.5-2.029A8.157,8.157,0,0,1-63.709-4.73a18.374,18.374,0,0,1-.408-4.218V-22.456a.712.712,0,0,1,.136-.433,1,1,0,0,1,.495-.309,4.443,4.443,0,0,1,.965-.186q.606-.062,1.5-.062a15.056,15.056,0,0,1,1.509.062,4.413,4.413,0,0,1,.952.186,1.091,1.091,0,0,1,.507.309.673.673,0,0,1,.148.433V-9.988a11.92,11.92,0,0,0,.223,2.647,4.627,4.627,0,0,0,.68,1.571,3.129,3.129,0,0,0,1.163,1.014A3.582,3.582,0,0,0-54.2-4.4a4.069,4.069,0,0,0,2.387-.866,14.261,14.261,0,0,0,2.56-2.523v-14.67a.712.712,0,0,1,.136-.433,1,1,0,0,1,.495-.309,4.413,4.413,0,0,1,.952-.186,15.055,15.055,0,0,1,1.509-.062,15.055,15.055,0,0,1,1.509.062,4.181,4.181,0,0,1,.94.186,1.088,1.088,0,0,1,.495.309.673.673,0,0,1,.148.433ZM-22.63-20.4q0,.891-.049,1.46a4.489,4.489,0,0,1-.148.891.872.872,0,0,1-.26.445.65.65,0,0,1-.408.124,1.364,1.364,0,0,1-.445-.087q-.247-.087-.557-.186t-.68-.186a3.594,3.594,0,0,0-.816-.087,2.751,2.751,0,0,0-1.039.21,4.383,4.383,0,0,0-1.076.656,7.991,7.991,0,0,0-1.163,1.187,19.319,19.319,0,0,0-1.3,1.831V-.389a.673.673,0,0,1-.148.433,1.091,1.091,0,0,1-.507.309,4.413,4.413,0,0,1-.952.186A15.055,15.055,0,0,1-33.689.6,15.055,15.055,0,0,1-35.2.539,4.413,4.413,0,0,1-36.15.353a1.091,1.091,0,0,1-.507-.309.673.673,0,0,1-.148-.433V-22.456a.762.762,0,0,1,.124-.433.907.907,0,0,1,.445-.309,3.553,3.553,0,0,1,.829-.186,10.838,10.838,0,0,1,1.274-.062,11.437,11.437,0,0,1,1.311.062,2.973,2.973,0,0,1,.8.186.907.907,0,0,1,.408.309.762.762,0,0,1,.124.433v2.746a17.6,17.6,0,0,1,1.633-2.041,9.233,9.233,0,0,1,1.46-1.274,4.593,4.593,0,0,1,1.385-.656,5.335,5.335,0,0,1,1.385-.186q.322,0,.693.037a6.722,6.722,0,0,1,.767.124,5.079,5.079,0,0,1,.693.2,1.37,1.37,0,0,1,.433.235.768.768,0,0,1,.2.272,2.144,2.144,0,0,1,.111.408,6.06,6.06,0,0,1,.074.779Q-22.63-21.293-22.63-20.4ZM-2.814-3.9q0,.643-.037,1.076a6.293,6.293,0,0,1-.1.73,2.244,2.244,0,0,1-.148.482,1.791,1.791,0,0,1-.383.47A5.443,5.443,0,0,1-4.5-.451a10.011,10.011,0,0,1-1.633.73A13.222,13.222,0,0,1-8.121.8a12.218,12.218,0,0,1-2.214.2A12.019,12.019,0,0,1-14.85.2a8.472,8.472,0,0,1-3.3-2.338,10.28,10.28,0,0,1-2.016-3.773,17.45,17.45,0,0,1-.68-5.1,17.674,17.674,0,0,1,.829-5.727,10.949,10.949,0,0,1,2.313-4,9.226,9.226,0,0,1,3.513-2.35,12.5,12.5,0,0,1,4.453-.767,10.834,10.834,0,0,1,1.942.173,11.238,11.238,0,0,1,1.781.47,9.551,9.551,0,0,1,1.484.668,4.538,4.538,0,0,1,.928.643,2.591,2.591,0,0,1,.383.458,1.56,1.56,0,0,1,.173.482,6.292,6.292,0,0,1,.1.73q.037.433.037,1.051a5.712,5.712,0,0,1-.247,2.016q-.247.581-.643.581a1.524,1.524,0,0,1-.891-.346q-.47-.346-1.113-.767a8.3,8.3,0,0,0-1.534-.767,5.869,5.869,0,0,0-2.128-.346,4.229,4.229,0,0,0-3.711,1.868,9.658,9.658,0,0,0-1.286,5.48,13.743,13.743,0,0,0,.322,3.142,6.692,6.692,0,0,0,.952,2.276,4.015,4.015,0,0,0,1.583,1.373A5.057,5.057,0,0,0-9.395-4.2a5.782,5.782,0,0,0,2.214-.383,9.014,9.014,0,0,0,1.62-.853q.693-.47,1.163-.853a1.377,1.377,0,0,1,.792-.383.56.56,0,0,1,.371.124A.875.875,0,0,1-3-6.091a5.62,5.62,0,0,1,.136.853Q-2.814-4.718-2.814-3.9ZM22.766-.389a.673.673,0,0,1-.148.433,1.088,1.088,0,0,1-.495.309,4.213,4.213,0,0,1-.952.186Q20.564.6,19.674.6q-.915,0-1.521-.062A4.213,4.213,0,0,1,17.2.353,1.088,1.088,0,0,1,16.7.044a.673.673,0,0,1-.148-.433V-12.981a10.619,10.619,0,0,0-.235-2.523,4.974,4.974,0,0,0-.68-1.571,3.031,3.031,0,0,0-1.15-1.014,3.582,3.582,0,0,0-1.645-.359,4.123,4.123,0,0,0-2.4.866,12.961,12.961,0,0,0-2.523,2.523V-.389a.673.673,0,0,1-.148.433,1.091,1.091,0,0,1-.507.309,4.413,4.413,0,0,1-.952.186A15.055,15.055,0,0,1,4.805.6,15.055,15.055,0,0,1,3.3.539,4.413,4.413,0,0,1,2.344.353,1.091,1.091,0,0,1,1.837.044a.673.673,0,0,1-.148-.433V-32.921a.724.724,0,0,1,.148-.445,1.108,1.108,0,0,1,.507-.334,4.245,4.245,0,0,1,.952-.21,12.565,12.565,0,0,1,1.509-.074,12.565,12.565,0,0,1,1.509.074,4.245,4.245,0,0,1,.952.21,1.108,1.108,0,0,1,.507.334.724.724,0,0,1,.148.445v12.2A11.912,11.912,0,0,1,11.2-23.087a8.128,8.128,0,0,1,3.476-.779,8.733,8.733,0,0,1,3.8.742,6.6,6.6,0,0,1,2.5,2.029,8.3,8.3,0,0,1,1.373,3.006,17.794,17.794,0,0,1,.421,4.169Zm24.912.074a.659.659,0,0,1-.247.544,1.7,1.7,0,0,1-.779.284A10.562,10.562,0,0,1,45.08.6,10.719,10.719,0,0,1,43.46.514,1.394,1.394,0,0,1,42.743.23a.711.711,0,0,1-.21-.544V-2.071A10.032,10.032,0,0,1,39.428.2a9.02,9.02,0,0,1-3.872.816A10.831,10.831,0,0,1,32.328.564,7.271,7.271,0,0,1,29.779-.8a6.122,6.122,0,0,1-1.67-2.239,7.617,7.617,0,0,1-.594-3.117,7.056,7.056,0,0,1,.755-3.352,6.137,6.137,0,0,1,2.251-2.35,11.208,11.208,0,0,1,3.723-1.373,26.6,26.6,0,0,1,5.17-.445h2.152V-15.01a7.019,7.019,0,0,0-.21-1.818,3.032,3.032,0,0,0-.693-1.3,2.859,2.859,0,0,0-1.286-.767,6.863,6.863,0,0,0-1.991-.247,10.238,10.238,0,0,0-2.783.346,15.96,15.96,0,0,0-2.165.767q-.94.421-1.571.767a2.3,2.3,0,0,1-1.027.346.737.737,0,0,1-.482-.173,1.263,1.263,0,0,1-.346-.495,3.419,3.419,0,0,1-.21-.792,6.688,6.688,0,0,1-.074-1.039,4.712,4.712,0,0,1,.124-1.212,1.867,1.867,0,0,1,.47-.8,4.624,4.624,0,0,1,1.212-.792,14.241,14.241,0,0,1,2.029-.8,18.757,18.757,0,0,1,2.536-.606,16.763,16.763,0,0,1,2.833-.235,16.917,16.917,0,0,1,4.441.507A7.489,7.489,0,0,1,45.4-21.8a6.057,6.057,0,0,1,1.732,2.709,12.658,12.658,0,0,1,.544,3.934Zm-6.111-9.45H39.193a12.761,12.761,0,0,0-2.573.223,4.933,4.933,0,0,0-1.732.668A2.752,2.752,0,0,0,33.911-7.8,3.247,3.247,0,0,0,33.6-6.351a2.782,2.782,0,0,0,.878,2.177,3.509,3.509,0,0,0,2.437.792,4.563,4.563,0,0,0,2.412-.668A10,10,0,0,0,41.568-6ZM69.424-6.623a7.427,7.427,0,0,1-.705,3.315,6.6,6.6,0,0,1-1.991,2.4A8.975,8.975,0,0,1,63.684.539a14.345,14.345,0,0,1-3.81.482A14.516,14.516,0,0,1,57.512.836,14.3,14.3,0,0,1,55.5.366a10.546,10.546,0,0,1-1.484-.581,3.657,3.657,0,0,1-.866-.557,1.724,1.724,0,0,1-.421-.816,6.829,6.829,0,0,1-.148-1.645,10.6,10.6,0,0,1,.049-1.15,2.937,2.937,0,0,1,.148-.693.65.65,0,0,1,.247-.346.727.727,0,0,1,.371-.087,1.846,1.846,0,0,1,.8.309q.532.309,1.324.68a14.048,14.048,0,0,0,1.843.693,8.158,8.158,0,0,0,2.387.322,5.877,5.877,0,0,0,1.5-.173,3.772,3.772,0,0,0,1.138-.495,2.1,2.1,0,0,0,.73-.816,2.512,2.512,0,0,0,.247-1.138A1.888,1.888,0,0,0,62.9-7.4a4.065,4.065,0,0,0-1.212-.928,13.927,13.927,0,0,0-1.707-.742q-.952-.346-1.954-.767a17.9,17.9,0,0,1-1.954-.965A7.455,7.455,0,0,1,54.37-12.14a6.074,6.074,0,0,1-1.212-1.9,7.016,7.016,0,0,1-.458-2.672,6.781,6.781,0,0,1,.618-2.907A6.322,6.322,0,0,1,55.1-21.887a8.438,8.438,0,0,1,2.833-1.46,12.592,12.592,0,0,1,3.748-.52,13.411,13.411,0,0,1,2.016.148,14.733,14.733,0,0,1,1.769.371,8.445,8.445,0,0,1,1.336.482,4.407,4.407,0,0,1,.779.445,1.235,1.235,0,0,1,.334.371,1.569,1.569,0,0,1,.148.445q.049.26.087.643t.037.952q0,.668-.037,1.089a2.847,2.847,0,0,1-.124.668.593.593,0,0,1-.235.334.675.675,0,0,1-.346.087,1.688,1.688,0,0,1-.693-.26,12.514,12.514,0,0,0-1.175-.557,13.877,13.877,0,0,0-1.633-.557,7.858,7.858,0,0,0-2.115-.26,5.45,5.45,0,0,0-1.46.173,2.776,2.776,0,0,0-1.014.495,2.082,2.082,0,0,0-.594.755,2.2,2.2,0,0,0-.2.928,1.846,1.846,0,0,0,.47,1.286,4.312,4.312,0,0,0,1.237.915,14.035,14.035,0,0,0,1.744.742q.977.346,1.979.755a18.106,18.106,0,0,1,1.979.952,7.483,7.483,0,0,1,1.744,1.336,6.168,6.168,0,0,1,1.237,1.893A6.617,6.617,0,0,1,69.424-6.623Zm25.061-5.443a2.4,2.4,0,0,1-.507,1.682,1.817,1.817,0,0,1-1.4.544H79.146a9.169,9.169,0,0,0,.334,2.56,4.884,4.884,0,0,0,1.064,1.954A4.634,4.634,0,0,0,82.424-4.1a8.053,8.053,0,0,0,2.758.421,15.52,15.52,0,0,0,2.87-.235,19.03,19.03,0,0,0,2.14-.52q.9-.284,1.5-.52a2.777,2.777,0,0,1,.965-.235.727.727,0,0,1,.371.087.644.644,0,0,1,.247.309,2.068,2.068,0,0,1,.136.631q.037.408.037,1.027,0,.544-.025.928a5.827,5.827,0,0,1-.074.656,1.571,1.571,0,0,1-.148.458,1.715,1.715,0,0,1-.26.359,3.007,3.007,0,0,1-.878.47,13.9,13.9,0,0,1-1.831.581,25.043,25.043,0,0,1-2.548.495,21.177,21.177,0,0,1-3.068.21A16.242,16.242,0,0,1,79.455.279a9.184,9.184,0,0,1-3.7-2.251,9.365,9.365,0,0,1-2.214-3.81,17.89,17.89,0,0,1-.73-5.393,17.141,17.141,0,0,1,.767-5.307,11.125,11.125,0,0,1,2.227-4.008A9.574,9.574,0,0,1,79.356-23a12.214,12.214,0,0,1,4.713-.866,12.341,12.341,0,0,1,4.738.816,8.547,8.547,0,0,1,3.228,2.264,9.132,9.132,0,0,1,1.855,3.426,14.922,14.922,0,0,1,.594,4.3Zm-6.036-1.781A6.4,6.4,0,0,0,87.4-17.966a4.067,4.067,0,0,0-3.476-1.5,4.513,4.513,0,0,0-2.066.445,4.23,4.23,0,0,0-1.46,1.2,5.472,5.472,0,0,0-.891,1.781,8.873,8.873,0,0,0-.359,2.189Z" transform="translate(64 114.021)" fill="#444"/>
  </g>
</svg>
