<svg xmlns="http://www.w3.org/2000/svg" width="219.998" height="128.004" viewBox="0 0 219.998 128.004">
  <g id="recruitment" transform="translate(60.195 -4.667)">
    <path id="Path_3331" data-name="Path 3331" d="M45.4,31.7A13.7,13.7,0,1,1,31.7,18,13.7,13.7,0,0,1,45.4,31.7Z" transform="translate(18.216 14.067)" fill="#985184"/>
    <path id="Path_3332" data-name="Path 3332" d="M45.1,86.2A41.1,41.1,0,1,1,74.165,74.165L61.708,61.708A23.485,23.485,0,1,0,45.1,68.587Z" transform="translate(4.815 0.667)" fill="#1ad3bb"/>
    <path id="Path_3333" data-name="Path 3333" d="M33.617,40.232a23.4,23.4,0,0,1-16.333-6.609A17.615,17.615,0,0,0,33.617,57.847H59.061A17.615,17.615,0,0,0,41.446,40.232Z" transform="translate(16.299 29.021)" fill="#985184" fill-rule="evenodd"/>
    <path id="Path_3345" data-name="Path 3345" d="M-104.772-4.987a.828.828,0,0,1-.085.394.679.679,0,0,1-.4.266,4.013,4.013,0,0,1-.936.149q-.617.043-1.681.043-.894,0-1.425-.043a3.155,3.155,0,0,1-.84-.16.911.911,0,0,1-.436-.3,1.666,1.666,0,0,1-.213-.436l-2.468-6.148q-.447-1.042-.872-1.851a5.9,5.9,0,0,0-.947-1.351,3.455,3.455,0,0,0-1.2-.819,4.16,4.16,0,0,0-1.574-.277H-119.6V-5.03a.592.592,0,0,1-.138.383.971.971,0,0,1-.457.277,4.463,4.463,0,0,1-.851.17,11.826,11.826,0,0,1-1.362.064,11.883,11.883,0,0,1-1.351-.064,4.481,4.481,0,0,1-.862-.17.9.9,0,0,1-.447-.277.622.622,0,0,1-.128-.383v-25a1.7,1.7,0,0,1,.479-1.351,1.739,1.739,0,0,1,1.181-.415h7.127q1.085,0,1.787.043t1.276.106a11.6,11.6,0,0,1,2.989.808,7.166,7.166,0,0,1,2.255,1.5,6.242,6.242,0,0,1,1.415,2.191,8.015,8.015,0,0,1,.489,2.9,8.529,8.529,0,0,1-.351,2.521,6.463,6.463,0,0,1-1.032,2.032,6.787,6.787,0,0,1-1.681,1.553,9.1,9.1,0,0,1-2.276,1.064,6.34,6.34,0,0,1,1.159.723,6.123,6.123,0,0,1,1.021,1.032,9.921,9.921,0,0,1,.9,1.383,17.819,17.819,0,0,1,.83,1.755l2.319,5.425q.319.808.425,1.181A2.282,2.282,0,0,1-104.772-4.987Zm-7.212-18.679a4.085,4.085,0,0,0-.617-2.3,3.355,3.355,0,0,0-2.021-1.319,7.754,7.754,0,0,0-.968-.17,13.593,13.593,0,0,0-1.5-.064h-2.51v7.808h2.851A6.827,6.827,0,0,0-114.665-20a4.164,4.164,0,0,0,1.489-.808,3.307,3.307,0,0,0,.894-1.245A4.21,4.21,0,0,0-111.984-23.666Zm27.891,8.637a2.064,2.064,0,0,1-.436,1.447,1.562,1.562,0,0,1-1.2.468H-97.283a7.885,7.885,0,0,0,.287,2.2,4.2,4.2,0,0,0,.915,1.681,3.985,3.985,0,0,0,1.617,1.053,6.925,6.925,0,0,0,2.372.362,13.346,13.346,0,0,0,2.468-.2,16.364,16.364,0,0,0,1.84-.447q.777-.245,1.287-.447a2.388,2.388,0,0,1,.83-.2.625.625,0,0,1,.319.074.554.554,0,0,1,.213.266,1.779,1.779,0,0,1,.117.542q.032.351.032.883,0,.468-.021.8a5.013,5.013,0,0,1-.064.564,1.351,1.351,0,0,1-.128.394,1.475,1.475,0,0,1-.223.308,2.586,2.586,0,0,1-.755.4,11.955,11.955,0,0,1-1.574.5,21.537,21.537,0,0,1-2.191.425,18.211,18.211,0,0,1-2.638.181,13.967,13.967,0,0,1-4.436-.638A7.9,7.9,0,0,1-100.2-6.349a8.054,8.054,0,0,1-1.9-3.276,15.384,15.384,0,0,1-.628-4.638,14.74,14.74,0,0,1,.66-4.563,9.567,9.567,0,0,1,1.915-3.446A8.233,8.233,0,0,1-97.1-24.432a10.5,10.5,0,0,1,4.053-.745,10.613,10.613,0,0,1,4.074.7A7.35,7.35,0,0,1-86.2-22.528a7.853,7.853,0,0,1,1.6,2.946,12.833,12.833,0,0,1,.511,3.7Zm-5.191-1.532a5.5,5.5,0,0,0-.9-3.542,3.5,3.5,0,0,0-2.989-1.287,3.881,3.881,0,0,0-1.776.383,3.637,3.637,0,0,0-1.255,1.032,4.706,4.706,0,0,0-.766,1.532,7.631,7.631,0,0,0-.308,1.883Zm23.955,8.552q0,.553-.032.925a5.412,5.412,0,0,1-.085.628,1.931,1.931,0,0,1-.128.415,1.54,1.54,0,0,1-.33.4,4.68,4.68,0,0,1-.872.6,8.609,8.609,0,0,1-1.4.628,11.371,11.371,0,0,1-1.713.447,10.506,10.506,0,0,1-1.9.17,10.336,10.336,0,0,1-3.883-.681,7.286,7.286,0,0,1-2.84-2.01,8.84,8.84,0,0,1-1.734-3.244,15.006,15.006,0,0,1-.585-4.383,15.2,15.2,0,0,1,.713-4.925,9.416,9.416,0,0,1,1.989-3.436A7.934,7.934,0,0,1-75.115-24.5a10.747,10.747,0,0,1,3.829-.66,9.317,9.317,0,0,1,1.67.149,9.664,9.664,0,0,1,1.532.4,8.213,8.213,0,0,1,1.276.574,3.9,3.9,0,0,1,.8.553,2.228,2.228,0,0,1,.33.394,1.341,1.341,0,0,1,.149.415,5.412,5.412,0,0,1,.085.628q.032.372.032.9a4.912,4.912,0,0,1-.213,1.734q-.213.5-.553.5a1.311,1.311,0,0,1-.766-.3q-.4-.3-.957-.66a7.141,7.141,0,0,0-1.319-.66,5.047,5.047,0,0,0-1.83-.3,3.637,3.637,0,0,0-3.191,1.606A8.306,8.306,0,0,0-75.35-14.5a11.818,11.818,0,0,0,.277,2.7,5.754,5.754,0,0,0,.819,1.957,3.453,3.453,0,0,0,1.362,1.181,4.349,4.349,0,0,0,1.9.394,4.972,4.972,0,0,0,1.9-.33,7.752,7.752,0,0,0,1.393-.734q.6-.4,1-.734a1.184,1.184,0,0,1,.681-.33.482.482,0,0,1,.319.106.753.753,0,0,1,.2.394,4.834,4.834,0,0,1,.117.734Q-65.329-8.71-65.329-8.008ZM-49.267-22.2q0,.766-.043,1.255a3.86,3.86,0,0,1-.128.766.75.75,0,0,1-.223.383.559.559,0,0,1-.351.106,1.173,1.173,0,0,1-.383-.074q-.213-.074-.479-.16t-.585-.16a3.09,3.09,0,0,0-.7-.074,2.366,2.366,0,0,0-.894.181,3.769,3.769,0,0,0-.925.564,6.872,6.872,0,0,0-1,1.021A16.615,16.615,0,0,0-56.1-16.816V-4.987a.578.578,0,0,1-.128.372.938.938,0,0,1-.436.266,3.8,3.8,0,0,1-.819.16,12.946,12.946,0,0,1-1.3.053,12.946,12.946,0,0,1-1.3-.053,3.8,3.8,0,0,1-.819-.16.938.938,0,0,1-.436-.266.578.578,0,0,1-.128-.372V-23.964a.655.655,0,0,1,.106-.372.78.78,0,0,1,.383-.266,3.055,3.055,0,0,1,.713-.16,9.32,9.32,0,0,1,1.1-.053,9.836,9.836,0,0,1,1.128.053,2.557,2.557,0,0,1,.691.16.78.78,0,0,1,.351.266.655.655,0,0,1,.106.372V-21.6a15.137,15.137,0,0,1,1.4-1.755,7.94,7.94,0,0,1,1.255-1.1,3.949,3.949,0,0,1,1.191-.564,4.587,4.587,0,0,1,1.191-.16q.277,0,.6.032a5.78,5.78,0,0,1,.66.106,4.367,4.367,0,0,1,.6.17,1.179,1.179,0,0,1,.372.2.66.66,0,0,1,.17.234,1.843,1.843,0,0,1,.1.351,5.212,5.212,0,0,1,.064.67Q-49.267-22.964-49.267-22.2Zm21.3,17.211a.655.655,0,0,1-.106.372.778.778,0,0,1-.372.266,2.871,2.871,0,0,1-.7.16,9.32,9.32,0,0,1-1.1.053,9.781,9.781,0,0,1-1.138-.053,2.7,2.7,0,0,1-.691-.16.778.778,0,0,1-.362-.266.655.655,0,0,1-.106-.372V-7.178a12.048,12.048,0,0,1-3.2,2.553,7.189,7.189,0,0,1-3.372.851,7.566,7.566,0,0,1-3.287-.638,5.674,5.674,0,0,1-2.149-1.744,7.015,7.015,0,0,1-1.17-2.564,15.8,15.8,0,0,1-.351-3.627V-23.964a.613.613,0,0,1,.117-.372.862.862,0,0,1,.425-.266,3.821,3.821,0,0,1,.83-.16q.521-.053,1.287-.053a12.947,12.947,0,0,1,1.3.053,3.8,3.8,0,0,1,.819.16.938.938,0,0,1,.436.266.578.578,0,0,1,.128.372v10.722a10.251,10.251,0,0,0,.191,2.276,3.979,3.979,0,0,0,.585,1.351,2.691,2.691,0,0,0,1,.872,3.08,3.08,0,0,0,1.415.308,3.5,3.5,0,0,0,2.053-.745,12.264,12.264,0,0,0,2.2-2.17V-23.964a.613.613,0,0,1,.117-.372.862.862,0,0,1,.425-.266,3.8,3.8,0,0,1,.819-.16,12.947,12.947,0,0,1,1.3-.053,12.947,12.947,0,0,1,1.3.053,3.6,3.6,0,0,1,.808.16.935.935,0,0,1,.425.266.578.578,0,0,1,.128.372Zm10.744,0a.578.578,0,0,1-.128.372.938.938,0,0,1-.436.266,3.8,3.8,0,0,1-.819.16,12.946,12.946,0,0,1-1.3.053,12.946,12.946,0,0,1-1.3-.053,3.8,3.8,0,0,1-.819-.16.938.938,0,0,1-.436-.266.578.578,0,0,1-.128-.372V-23.921a.578.578,0,0,1,.128-.372,1.006,1.006,0,0,1,.436-.277,3.65,3.65,0,0,1,.819-.181,10.806,10.806,0,0,1,1.3-.064,10.806,10.806,0,0,1,1.3.064,3.65,3.65,0,0,1,.819.181,1.006,1.006,0,0,1,.436.277.578.578,0,0,1,.128.372Zm.4-25.4a3,3,0,0,1-.66,2.234,3.632,3.632,0,0,1-2.447.617,3.629,3.629,0,0,1-2.436-.6,2.913,2.913,0,0,1-.628-2.149,3.075,3.075,0,0,1,.649-2.244,3.582,3.582,0,0,1,2.457-.628,3.586,3.586,0,0,1,2.425.606A2.92,2.92,0,0,1-16.824-30.389ZM-.655-6.859A6.7,6.7,0,0,1-.772-5.423a1.55,1.55,0,0,1-.308.7,1.682,1.682,0,0,1-.564.362,5.281,5.281,0,0,1-.872.277A9.1,9.1,0,0,1-3.6-3.9a10.88,10.88,0,0,1-1.181.064,8.487,8.487,0,0,1-2.766-.4A4.6,4.6,0,0,1-9.484-5.487,5.181,5.181,0,0,1-10.612-7.6a11.159,11.159,0,0,1-.362-3.021v-9.722H-13.25q-.4,0-.617-.5a4.66,4.66,0,0,1-.213-1.67,8.6,8.6,0,0,1,.053-1.042,2.511,2.511,0,0,1,.16-.67.78.78,0,0,1,.266-.351.655.655,0,0,1,.372-.106h2.255v-4.234a.66.66,0,0,1,.117-.383.877.877,0,0,1,.425-.287,3.375,3.375,0,0,1,.83-.17q.521-.053,1.287-.053.787,0,1.308.053a3.207,3.207,0,0,1,.819.17.953.953,0,0,1,.425.287.622.622,0,0,1,.128.383v4.234h4.127a.655.655,0,0,1,.372.106.78.78,0,0,1,.266.351,2.511,2.511,0,0,1,.16.67,8.6,8.6,0,0,1,.053,1.042,4.66,4.66,0,0,1-.213,1.67q-.213.5-.617.5H-5.633v8.914A4.435,4.435,0,0,0-5.144-9.1,1.9,1.9,0,0,0-3.4-8.327,3.6,3.6,0,0,0-2.634-8.4a4.875,4.875,0,0,0,.606-.17q.266-.1.447-.17a.875.875,0,0,1,.33-.074.449.449,0,0,1,.245.074.5.5,0,0,1,.181.3,4.619,4.619,0,0,1,.117.606A7.352,7.352,0,0,1-.655-6.859ZM33.4-4.987a.578.578,0,0,1-.128.372.935.935,0,0,1-.425.266,3.6,3.6,0,0,1-.808.16,12.946,12.946,0,0,1-1.3.053q-.808,0-1.319-.053a3.8,3.8,0,0,1-.819-.16.862.862,0,0,1-.425-.266.613.613,0,0,1-.117-.372V-16.241a7.8,7.8,0,0,0-.181-1.744,4.094,4.094,0,0,0-.553-1.351,2.619,2.619,0,0,0-.936-.872,2.776,2.776,0,0,0-1.351-.308,3.2,3.2,0,0,0-1.936.745,12.92,12.92,0,0,0-2.127,2.17V-4.987a.578.578,0,0,1-.128.372.938.938,0,0,1-.436.266,3.8,3.8,0,0,1-.819.16,12.681,12.681,0,0,1-1.276.053,12.946,12.946,0,0,1-1.3-.053,3.8,3.8,0,0,1-.819-.16.938.938,0,0,1-.436-.266.578.578,0,0,1-.128-.372V-16.241a7.8,7.8,0,0,0-.181-1.744,4.243,4.243,0,0,0-.542-1.351,2.508,2.508,0,0,0-.936-.872,2.791,2.791,0,0,0-1.34-.308,3.226,3.226,0,0,0-1.957.745A12.377,12.377,0,0,0,8.578-17.6V-4.987a.578.578,0,0,1-.128.372.938.938,0,0,1-.436.266,3.8,3.8,0,0,1-.819.16,12.946,12.946,0,0,1-1.3.053,12.946,12.946,0,0,1-1.3-.053,3.8,3.8,0,0,1-.819-.16.938.938,0,0,1-.436-.266.578.578,0,0,1-.128-.372V-23.964a.655.655,0,0,1,.106-.372.78.78,0,0,1,.383-.266,3.055,3.055,0,0,1,.713-.16,9.32,9.32,0,0,1,1.1-.053,9.836,9.836,0,0,1,1.128.053,2.557,2.557,0,0,1,.691.16.78.78,0,0,1,.351.266.655.655,0,0,1,.106.372v2.191a12.548,12.548,0,0,1,3.138-2.553,6.74,6.74,0,0,1,3.266-.851,8.339,8.339,0,0,1,2.106.245,6.009,6.009,0,0,1,1.67.7,5.243,5.243,0,0,1,1.266,1.1,6.364,6.364,0,0,1,.894,1.425,16.062,16.062,0,0,1,1.67-1.574,9.823,9.823,0,0,1,1.617-1.074,7.4,7.4,0,0,1,1.6-.617,6.6,6.6,0,0,1,1.627-.2,7.189,7.189,0,0,1,3.191.638,5.594,5.594,0,0,1,2.1,1.734,6.978,6.978,0,0,1,1.138,2.564,13.717,13.717,0,0,1,.34,3.106ZM56.19-15.029a2.064,2.064,0,0,1-.436,1.447,1.562,1.562,0,0,1-1.2.468H43a7.885,7.885,0,0,0,.287,2.2A4.2,4.2,0,0,0,44.2-9.231a3.985,3.985,0,0,0,1.617,1.053,6.925,6.925,0,0,0,2.372.362,13.346,13.346,0,0,0,2.468-.2,16.365,16.365,0,0,0,1.84-.447q.777-.245,1.287-.447a2.388,2.388,0,0,1,.83-.2.625.625,0,0,1,.319.074.554.554,0,0,1,.213.266,1.779,1.779,0,0,1,.117.542q.032.351.032.883,0,.468-.021.8a5.016,5.016,0,0,1-.064.564,1.351,1.351,0,0,1-.128.394,1.476,1.476,0,0,1-.223.308,2.586,2.586,0,0,1-.755.4,11.955,11.955,0,0,1-1.574.5,21.536,21.536,0,0,1-2.191.425,18.211,18.211,0,0,1-2.638.181,13.967,13.967,0,0,1-4.436-.638,7.9,7.9,0,0,1-3.181-1.936,8.054,8.054,0,0,1-1.9-3.276,15.384,15.384,0,0,1-.628-4.638,14.74,14.74,0,0,1,.66-4.563,9.567,9.567,0,0,1,1.915-3.446,8.233,8.233,0,0,1,3.053-2.159,10.5,10.5,0,0,1,4.053-.745,10.613,10.613,0,0,1,4.074.7,7.35,7.35,0,0,1,2.776,1.947,7.853,7.853,0,0,1,1.6,2.946,12.832,12.832,0,0,1,.511,3.7ZM51-16.56a5.5,5.5,0,0,0-.9-3.542,3.5,3.5,0,0,0-2.989-1.287,3.881,3.881,0,0,0-1.776.383,3.637,3.637,0,0,0-1.255,1.032,4.706,4.706,0,0,0-.766,1.532A7.63,7.63,0,0,0,43-16.56ZM78.719-4.987a.578.578,0,0,1-.128.372.935.935,0,0,1-.425.266,3.623,3.623,0,0,1-.819.16q-.521.053-1.287.053-.787,0-1.308-.053a3.623,3.623,0,0,1-.819-.16.935.935,0,0,1-.425-.266.578.578,0,0,1-.128-.372V-15.816a9.132,9.132,0,0,0-.2-2.17,4.278,4.278,0,0,0-.585-1.351,2.606,2.606,0,0,0-.989-.872,3.08,3.08,0,0,0-1.415-.308,3.546,3.546,0,0,0-2.064.745,11.146,11.146,0,0,0-2.17,2.17V-4.987a.578.578,0,0,1-.128.372.939.939,0,0,1-.436.266,3.8,3.8,0,0,1-.819.16,12.946,12.946,0,0,1-1.3.053,12.946,12.946,0,0,1-1.3-.053,3.8,3.8,0,0,1-.819-.16.938.938,0,0,1-.436-.266.578.578,0,0,1-.128-.372V-23.964a.655.655,0,0,1,.106-.372.78.78,0,0,1,.383-.266,3.055,3.055,0,0,1,.713-.16,9.32,9.32,0,0,1,1.1-.053,9.835,9.835,0,0,1,1.128.053,2.557,2.557,0,0,1,.691.16.78.78,0,0,1,.351.266.655.655,0,0,1,.106.372v2.191a12.049,12.049,0,0,1,3.2-2.553,7.23,7.23,0,0,1,3.393-.851,7.51,7.51,0,0,1,3.266.638A5.716,5.716,0,0,1,77.177-22.8a7.04,7.04,0,0,1,1.181,2.564,14.948,14.948,0,0,1,.362,3.532ZM94.8-6.859a6.7,6.7,0,0,1-.117,1.436,1.55,1.55,0,0,1-.308.7,1.682,1.682,0,0,1-.564.362,5.281,5.281,0,0,1-.872.277,9.1,9.1,0,0,1-1.085.181,10.88,10.88,0,0,1-1.181.064,8.487,8.487,0,0,1-2.766-.4,4.6,4.6,0,0,1-1.936-1.245A5.182,5.182,0,0,1,84.846-7.6a11.159,11.159,0,0,1-.362-3.021v-9.722H82.208q-.4,0-.617-.5a4.66,4.66,0,0,1-.213-1.67,8.6,8.6,0,0,1,.053-1.042,2.511,2.511,0,0,1,.16-.67.78.78,0,0,1,.266-.351.655.655,0,0,1,.372-.106h2.255v-4.234A.66.66,0,0,1,84.6-29.3a.877.877,0,0,1,.425-.287,3.375,3.375,0,0,1,.83-.17q.521-.053,1.287-.053.787,0,1.308.053a3.207,3.207,0,0,1,.819.17.953.953,0,0,1,.425.287.622.622,0,0,1,.128.383v4.234h4.127a.655.655,0,0,1,.372.106.78.78,0,0,1,.266.351,2.511,2.511,0,0,1,.16.67,8.6,8.6,0,0,1,.053,1.042,4.66,4.66,0,0,1-.213,1.67q-.213.5-.617.5H89.825v8.914a4.435,4.435,0,0,0,.489,2.33,1.9,1.9,0,0,0,1.744.777,3.6,3.6,0,0,0,.766-.074,4.876,4.876,0,0,0,.606-.17q.266-.1.447-.17a.875.875,0,0,1,.33-.074.449.449,0,0,1,.245.074.5.5,0,0,1,.181.3,4.619,4.619,0,0,1,.117.606A7.352,7.352,0,0,1,94.8-6.859Z" transform="translate(65 136.445)" fill="#444"/>
  </g>
</svg>
