<svg xmlns="http://www.w3.org/2000/svg" width="123.164" height="127.674" viewBox="0 0 123.164 127.674">
  <g id="sales" transform="translate(4.582 -4)">
    <path id="Path_3312" data-name="Path 3312" d="M4,27.381A6.381,6.381,0,0,1,10.381,21H21.548V60.881H4Z" transform="translate(20 10.119)" fill="#985184"/>
    <path id="Path_3313" data-name="Path 3313" d="M26,10.381A6.537,6.537,0,0,1,32.684,4H57.9V64.619A6.537,6.537,0,0,1,51.221,71H26Z" transform="translate(33.095)" fill="#fbb945"/>
    <path id="Path_3314" data-name="Path 3314" d="M15,19.488A6.588,6.588,0,0,1,21.684,13H46.9V59.155a6.588,6.588,0,0,1-6.684,6.488H15Z" transform="translate(26.547 5.357)" fill="#fc868b"/>
    <path id="Path_3315" data-name="Path 3315" d="M26,65.643h7.673a6.588,6.588,0,0,0,6.684-6.488V13H26Z" transform="translate(33.095 5.357)" fill="#f86126"/>
    <path id="Path_3316" data-name="Path 3316" d="M15,60.881l7.968,0a6.389,6.389,0,0,0,6.389-6.386V21H15Z" transform="translate(26.547 10.119)" fill="#962b48"/>
    <path id="Path_3339" data-name="Path 3339" d="M-36.826-11.367a11.711,11.711,0,0,1-1.113,5.244,10.867,10.867,0,0,1-3.018,3.765A13.149,13.149,0,0,1-45.41-.088a18.941,18.941,0,0,1-5.449.762A19.424,19.424,0,0,1-54.507.352,20.723,20.723,0,0,1-57.48-.425a13.021,13.021,0,0,1-2.153-.952,6.223,6.223,0,0,1-1.245-.879,2.2,2.2,0,0,1-.542-1.1,10.038,10.038,0,0,1-.161-2.065q0-.908.059-1.523a4.4,4.4,0,0,1,.19-1,1.092,1.092,0,0,1,.352-.542.844.844,0,0,1,.513-.161,2.432,2.432,0,0,1,1.157.483A20.412,20.412,0,0,0-57.393-7.09a17.353,17.353,0,0,0,2.8,1.069,13.245,13.245,0,0,0,3.765.483,8.693,8.693,0,0,0,2.52-.337,5.635,5.635,0,0,0,1.89-.952A4.034,4.034,0,0,0-45.234-8.35a4.856,4.856,0,0,0,.41-2.021,3.543,3.543,0,0,0-.7-2.212,6.974,6.974,0,0,0-1.831-1.641,18.979,18.979,0,0,0-2.563-1.348q-1.436-.63-2.959-1.333a27.029,27.029,0,0,1-2.959-1.6A11.991,11.991,0,0,1-58.4-20.64a10.079,10.079,0,0,1-1.831-2.944,10.63,10.63,0,0,1-.7-4.072,10.771,10.771,0,0,1,1.011-4.79A9.825,9.825,0,0,1-57.2-35.874a11.6,11.6,0,0,1,4.043-2.036,17.681,17.681,0,0,1,4.937-.674,17.891,17.891,0,0,1,2.7.205,18.407,18.407,0,0,1,2.52.557,14.069,14.069,0,0,1,2.08.791,4.864,4.864,0,0,1,1.2.732,2.107,2.107,0,0,1,.4.5,2.353,2.353,0,0,1,.176.542,5.613,5.613,0,0,1,.1.85q.029.513.029,1.274,0,.85-.044,1.436a5.351,5.351,0,0,1-.146.967,1.15,1.15,0,0,1-.293.557A.726.726,0,0,1-40.02-30a2.447,2.447,0,0,1-1.025-.41q-.7-.41-1.729-.894a16.452,16.452,0,0,0-2.373-.879,10.477,10.477,0,0,0-2.959-.4,7.062,7.062,0,0,0-2.2.308,4.542,4.542,0,0,0-1.567.85,3.355,3.355,0,0,0-.937,1.3,4.262,4.262,0,0,0-.308,1.611,3.548,3.548,0,0,0,.688,2.183,6.607,6.607,0,0,0,1.846,1.641,19.858,19.858,0,0,0,2.622,1.348q1.465.63,2.988,1.333a29.371,29.371,0,0,1,2.988,1.6,12,12,0,0,1,2.607,2.139,9.963,9.963,0,0,1,1.846,2.93A10.261,10.261,0,0,1-36.826-11.367ZM-9.111-.908A.78.78,0,0,1-9.4-.264a2.009,2.009,0,0,1-.923.337,12.508,12.508,0,0,1-1.86.1,12.693,12.693,0,0,1-1.919-.1,1.651,1.651,0,0,1-.85-.337.842.842,0,0,1-.249-.645v-2.08a11.88,11.88,0,0,1-3.677,2.7,10.682,10.682,0,0,1-4.585.967A12.827,12.827,0,0,1-27.29.132a8.61,8.61,0,0,1-3.018-1.611,7.25,7.25,0,0,1-1.978-2.651,9.02,9.02,0,0,1-.7-3.691,8.356,8.356,0,0,1,.894-3.97,7.267,7.267,0,0,1,2.666-2.783A13.273,13.273,0,0,1-25.02-16.2a31.506,31.506,0,0,1,6.123-.527h2.549v-1.582a8.312,8.312,0,0,0-.249-2.153A3.59,3.59,0,0,0-17.417-22a3.386,3.386,0,0,0-1.523-.908A8.127,8.127,0,0,0-21.3-23.2a12.125,12.125,0,0,0-3.3.41,18.9,18.9,0,0,0-2.563.908q-1.113.5-1.86.908a2.721,2.721,0,0,1-1.216.41.873.873,0,0,1-.571-.205,1.5,1.5,0,0,1-.41-.586,4.049,4.049,0,0,1-.249-.937,7.921,7.921,0,0,1-.088-1.23,5.58,5.58,0,0,1,.146-1.436,2.211,2.211,0,0,1,.557-.952,5.477,5.477,0,0,1,1.436-.937,16.864,16.864,0,0,1,2.4-.952,22.212,22.212,0,0,1,3-.718,19.852,19.852,0,0,1,3.354-.278,20.034,20.034,0,0,1,5.259.6,8.868,8.868,0,0,1,3.589,1.846,7.173,7.173,0,0,1,2.051,3.208,14.99,14.99,0,0,1,.645,4.658ZM-16.348-12.1H-19.16a15.112,15.112,0,0,0-3.047.264,5.842,5.842,0,0,0-2.051.791,3.259,3.259,0,0,0-1.157,1.274,3.846,3.846,0,0,0-.366,1.714,3.3,3.3,0,0,0,1.04,2.578,4.155,4.155,0,0,0,2.886.938A5.4,5.4,0,0,0-19-5.332a11.847,11.847,0,0,0,2.651-2.314ZM5.625-1a.8.8,0,0,1-.176.513,1.292,1.292,0,0,1-.6.366A5.226,5.226,0,0,1,3.721.1,17.828,17.828,0,0,1,1.934.176,17.828,17.828,0,0,1,.146.1,5.226,5.226,0,0,1-.981-.117a1.292,1.292,0,0,1-.6-.366A.8.8,0,0,1-1.758-1V-39.521a.857.857,0,0,1,.176-.527,1.313,1.313,0,0,1,.6-.4,5.027,5.027,0,0,1,1.128-.249,14.879,14.879,0,0,1,1.787-.088,14.879,14.879,0,0,1,1.787.088,5.027,5.027,0,0,1,1.128.249,1.313,1.313,0,0,1,.6.4.857.857,0,0,1,.176.527ZM37.119-14.824a2.842,2.842,0,0,1-.6,1.992,2.152,2.152,0,0,1-1.655.645H18.955a10.859,10.859,0,0,0,.4,3.032,5.784,5.784,0,0,0,1.26,2.314,5.488,5.488,0,0,0,2.227,1.45,9.536,9.536,0,0,0,3.267.5,18.379,18.379,0,0,0,3.4-.278,22.536,22.536,0,0,0,2.534-.615q1.069-.337,1.772-.615a3.289,3.289,0,0,1,1.143-.278.861.861,0,0,1,.439.1.763.763,0,0,1,.293.366,2.45,2.45,0,0,1,.161.747q.044.483.044,1.216,0,.645-.029,1.1a6.907,6.907,0,0,1-.088.776,1.86,1.86,0,0,1-.176.542,2.032,2.032,0,0,1-.308.425,3.561,3.561,0,0,1-1.04.557,16.464,16.464,0,0,1-2.168.688,29.657,29.657,0,0,1-3.018.586A25.079,25.079,0,0,1,25.43.674a19.234,19.234,0,0,1-6.108-.879,10.876,10.876,0,0,1-4.38-2.666,11.091,11.091,0,0,1-2.622-4.512,21.185,21.185,0,0,1-.864-6.387,20.3,20.3,0,0,1,.908-6.284A13.175,13.175,0,0,1,15-24.8a11.338,11.338,0,0,1,4.2-2.974A14.465,14.465,0,0,1,24.785-28.8a14.615,14.615,0,0,1,5.61.967,10.121,10.121,0,0,1,3.823,2.681,10.815,10.815,0,0,1,2.2,4.058,17.672,17.672,0,0,1,.7,5.1Zm-7.148-2.109a7.578,7.578,0,0,0-1.245-4.878,4.817,4.817,0,0,0-4.116-1.772,5.345,5.345,0,0,0-2.446.527,5.009,5.009,0,0,0-1.729,1.421,6.48,6.48,0,0,0-1.055,2.109,10.508,10.508,0,0,0-.425,2.593ZM61.582-8.379a8.8,8.8,0,0,1-.835,3.926,7.813,7.813,0,0,1-2.358,2.842A10.629,10.629,0,0,1,54.785.1a16.988,16.988,0,0,1-4.512.571,17.191,17.191,0,0,1-2.8-.22A16.93,16.93,0,0,1,45.088-.1,12.489,12.489,0,0,1,43.33-.791,4.331,4.331,0,0,1,42.3-1.45a2.042,2.042,0,0,1-.5-.967,8.087,8.087,0,0,1-.176-1.948,12.55,12.55,0,0,1,.059-1.362,3.479,3.479,0,0,1,.176-.82.77.77,0,0,1,.293-.41.861.861,0,0,1,.439-.1,2.186,2.186,0,0,1,.952.366q.63.366,1.567.806a16.636,16.636,0,0,0,2.183.82,9.661,9.661,0,0,0,2.827.381A6.96,6.96,0,0,0,51.9-4.893a4.467,4.467,0,0,0,1.348-.586,2.486,2.486,0,0,0,.864-.967A2.975,2.975,0,0,0,54.4-7.793,2.236,2.236,0,0,0,53.862-9.3a4.814,4.814,0,0,0-1.436-1.1,16.493,16.493,0,0,0-2.021-.879q-1.128-.41-2.314-.908a21.2,21.2,0,0,1-2.314-1.143,8.829,8.829,0,0,1-2.021-1.582,7.193,7.193,0,0,1-1.436-2.256,8.309,8.309,0,0,1-.542-3.164,8.03,8.03,0,0,1,.732-3.442,7.487,7.487,0,0,1,2.109-2.681,9.993,9.993,0,0,1,3.354-1.729,14.912,14.912,0,0,1,4.438-.615,15.882,15.882,0,0,1,2.388.176,17.447,17.447,0,0,1,2.095.439,10,10,0,0,1,1.582.571,5.219,5.219,0,0,1,.923.527,1.462,1.462,0,0,1,.4.439,1.857,1.857,0,0,1,.176.527q.059.308.1.762t.044,1.128q0,.791-.044,1.289a3.372,3.372,0,0,1-.146.791.7.7,0,0,1-.278.4.8.8,0,0,1-.41.1,2,2,0,0,1-.82-.308,14.821,14.821,0,0,0-1.392-.659,16.434,16.434,0,0,0-1.934-.659,9.306,9.306,0,0,0-2.5-.308,6.454,6.454,0,0,0-1.729.205,3.287,3.287,0,0,0-1.2.586,2.465,2.465,0,0,0-.7.894,2.611,2.611,0,0,0-.234,1.1,2.187,2.187,0,0,0,.557,1.523,5.106,5.106,0,0,0,1.465,1.084,16.621,16.621,0,0,0,2.065.879q1.157.41,2.344.894A21.441,21.441,0,0,1,57.5-15.293a8.861,8.861,0,0,1,2.065,1.582,7.305,7.305,0,0,1,1.465,2.241A7.836,7.836,0,0,1,61.582-8.379Z" transform="translate(57 131)" fill="#444"/>
  </g>
</svg>
