<svg xmlns="http://www.w3.org/2000/svg" width="127.995" height="137.853" viewBox="0 0 127.995 137.853">
  <g id="ai-brain" transform="translate(-5.221 -3.145)">
    <path id="Path_117" data-name="Path 117" d="M55.544,141A18.438,18.438,0,0,1,44.7,137.463c-6.951-5.04-8.049-11.3-7.428-15.549-4.49-.669-7.882-2.508-10.1-5.494-2.914-3.893-2.986-8.718-2.675-11.56-5.255-1.481-8.79-4.2-10.533-8.073-2.293-5.088-.74-10.772.573-14.044C8.682,80.234,4,73.26,5.505,63.276,6.8,54.725,13.578,50.951,18,49.375c-2.436-3.822-4.18-9.984-.74-17.46,3.893-8.5,12.444-10.6,16.7-11.107.239-5.111,2.7-12.731,11.107-16.122a21.441,21.441,0,0,1,15.286-.263A16.989,16.989,0,0,1,71.571,20.617V128.171a2.352,2.352,0,0,1-.525,1.5,14.541,14.541,0,0,1-7.619,9.458A17.161,17.161,0,0,1,55.544,141ZM36.269,25.418c-.645,0-10.915.143-14.737,8.479-4.275,9.339,1.911,14.737,2.174,14.976a2.43,2.43,0,0,1,.764,2.484,2.39,2.39,0,0,1-1.935,1.72c-.454.072-11.011,1.815-12.372,10.939-1.457,9.721,4.013,14.235,8.049,14.9a2.39,2.39,0,0,1,1.672,3.559c-.048.072-3.989,7.118-1.6,12.4,1.314,2.914,4.467,4.9,9.363,5.876a2.4,2.4,0,0,1,1.553,1.075,2.333,2.333,0,0,1,.287,1.863c-.024.048-1.457,5.971,1.5,9.912,1.791,2.389,4.968,3.678,9.411,3.822a2.441,2.441,0,0,1,1.959,1.123,2.351,2.351,0,0,1,.143,2.245c-.119.263-2.962,7.022,5.016,12.8a13.521,13.521,0,0,0,13.758,1.266,10.1,10.1,0,0,0,5.541-9.506V20.617a12.179,12.179,0,0,0-8.049-11.68,16.829,16.829,0,0,0-11.99.167c-9,3.631-8.121,13.256-8.073,13.662a2.347,2.347,0,0,1-.621,1.863,2.39,2.39,0,0,1-1.767.788h-.048Z" fill="#0055b8"/>
    <path id="Path_118" data-name="Path 118" d="M31.238,33.577a2.4,2.4,0,0,1-1.887-.908c-6.33-8-14.642-5.756-14.976-5.661a2.392,2.392,0,0,1-1.361-4.586c.478-.143,11.7-3.32,20.087,7.285a2.368,2.368,0,0,1-.406,3.344,2.189,2.189,0,0,1-1.457.525Z" transform="translate(8.47 25.997)" fill="#0055b8"/>
    <path id="Path_119" data-name="Path 119" d="M15.8,53.875h-.215a2.372,2.372,0,0,1-2.174-2.532c.024-.406.86-9.817,14.713-11.035a2.34,2.34,0,0,1,2.58,2.174,2.369,2.369,0,0,1-2.174,2.58c-9.65.836-10.342,6.4-10.366,6.64A2.4,2.4,0,0,1,15.8,53.875Z" transform="translate(11.367 51.582)" fill="#0055b8"/>
    <path id="Path_120" data-name="Path 120" d="M29.882,40.959a18.521,18.521,0,0,1-13.232-5.3,2.384,2.384,0,1,1,3.535-3.2c.239.263,5.685,5.947,15.478,2.771a2.387,2.387,0,1,1,1.481,4.538,23.468,23.468,0,0,1-7.261,1.194Z" transform="translate(15.01 39.609)" fill="#0055b8"/>
    <path id="Path_121" data-name="Path 121" d="M34.722,23.508a2.4,2.4,0,0,1-2.15-1.314c-3.941-7.858-12.3-6.951-12.659-6.9a2.4,2.4,0,0,1-.6-4.753,17.6,17.6,0,0,1,17.532,9.506,2.412,2.412,0,0,1-2.126,3.463Z" transform="translate(16.691 10.126)" fill="#0055b8"/>
    <path id="Path_122" data-name="Path 122" d="M41.984,43.749A2.4,2.4,0,0,1,39.6,41.36c0-16.743-11.943-17.173-12.444-17.173a2.389,2.389,0,1,1,.1-4.777c.167,0,17.126.6,17.126,21.95a2.38,2.38,0,0,1-2.389,2.389Z" transform="translate(27.199 22.584)" fill="#0055b8"/>
    <path id="Path_123" data-name="Path 123" d="M45.654,61.831a2.383,2.383,0,0,1-2.365-2.15,10.8,10.8,0,0,0-4.06-6.9c-3.248-2.484-8.049-3.224-14.283-2.221a2.4,2.4,0,0,1-.764-4.729c7.643-1.242,13.71-.143,18.033,3.224a15.653,15.653,0,0,1,5.828,10.175,2.4,2.4,0,0,1-2.174,2.6h-.215Z" transform="translate(23.529 58.578)" fill="#0055b8"/>
    <path id="Path_124" data-name="Path 124" d="M35.071,63.395a2.3,2.3,0,0,1-1.481-.525c-8.933-7.094-7.667-22.237-7.619-22.882a2.385,2.385,0,1,1,4.753.406c0,.143-1.075,13.232,5.828,18.7a2.413,2.413,0,0,1,.382,3.368A2.34,2.34,0,0,1,35.071,63.395Z" transform="translate(28.69 48.129)" fill="#0055b8"/>
    <path id="Path_125" data-name="Path 125" d="M11.876,45.835a2.34,2.34,0,0,1-1.242-.358,2.4,2.4,0,0,1-.788-3.3,50.636,50.636,0,0,0,4.681-10.1,2.387,2.387,0,0,1,4.562,1.409,53.475,53.475,0,0,1-5.183,11.2,2.39,2.39,0,0,1-2.03,1.146Z" transform="translate(5.93 37.838)" fill="#0055b8"/>
    <path id="Path_126" data-name="Path 126" d="M20.96,36.118a2.354,2.354,0,0,1-1.744-.764c-.239-.263-6.043-6.807-.908-16.528a2.388,2.388,0,0,1,4.228,2.221c-3.511,6.688.072,10.939.239,11.107a2.427,2.427,0,0,1-.191,3.368,2.621,2.621,0,0,1-1.624.6Z" transform="translate(15.237 19.992)" fill="#0055b8"/>
    <path id="Path_127" data-name="Path 127" d="M47.027,141a17.393,17.393,0,0,1-7.882-1.863,14.541,14.541,0,0,1-7.619-9.458,2.352,2.352,0,0,1-.525-1.5V20.664A17.307,17.307,0,0,1,43.277,4.112a21.271,21.271,0,0,1,14.307.573C65.968,8.077,68.452,15.7,68.691,20.807c4.228.525,12.8,2.6,16.7,11.107,3.439,7.476,1.7,13.662-.74,17.46,4.443,1.576,11.2,5.374,12.492,13.9,1.5,9.984-3.177,16.958-9.029,19.466,1.314,3.272,2.866,8.957.549,14.044-1.744,3.869-5.279,6.568-10.533,8.073.287,2.842.239,7.667-2.675,11.56-2.221,2.986-5.637,4.825-10.127,5.494.621,4.252-.478,10.509-7.428,15.549A18.509,18.509,0,0,1,47.027,141Zm-11.25-15.6a10.121,10.121,0,0,0,5.541,9.506,13.517,13.517,0,0,0,13.758-1.266c7.978-5.78,5.135-12.54,4.992-12.826a2.405,2.405,0,0,1,2.1-3.368c4.466-.143,7.643-1.457,9.435-3.846,2.914-3.917,1.5-9.841,1.481-9.888a2.318,2.318,0,0,1,.287-1.863,2.4,2.4,0,0,1,1.553-1.075c4.9-1,8.049-2.962,9.363-5.876,2.389-5.279-1.576-12.325-1.6-12.4a2.39,2.39,0,0,1,1.672-3.559c4.037-.669,9.506-5.207,8.025-14.9C91,54.915,80.442,53.172,79.988,53.1a2.359,2.359,0,0,1-1.935-1.72,2.4,2.4,0,0,1,.788-2.484c.263-.215,6.449-5.613,2.174-14.952-3.869-8.455-14.379-8.5-14.761-8.479a2.352,2.352,0,0,1-1.768-.788,2.417,2.417,0,0,1-.6-1.863c.048-.406.908-10.032-8.073-13.662a16.515,16.515,0,0,0-11.154-.43,12.411,12.411,0,0,0-8.885,11.943Z" transform="translate(35.794 0.001)" fill="#0055b8"/>
    <path id="Path_128" data-name="Path 128" d="M52.4,45.564H33.389a2.389,2.389,0,0,1,0-4.777H50.013V24.259a2.389,2.389,0,0,1,4.777,0V43.175A2.38,2.38,0,0,1,52.4,45.564Z" transform="translate(35.794 26)" fill="#0055b8"/>
    <path id="Path_129" data-name="Path 129" d="M45.056,34.062A8.766,8.766,0,1,1,53.822,25.3,8.772,8.772,0,0,1,45.056,34.062Zm0-12.779a3.989,3.989,0,1,0,3.989,3.989A4,4,0,0,0,45.056,21.283Z" transform="translate(43.139 18.585)" fill="#0055b8"/>
    <path id="Path_130" data-name="Path 130" d="M54.376,43.812a8.766,8.766,0,1,1,8.766-8.766A8.772,8.772,0,0,1,54.376,43.812Zm0-12.779a3.989,3.989,0,1,0,3.989,3.989A4,4,0,0,0,54.376,31.033Z" transform="translate(56.08 32.123)" fill="#0055b8"/>
    <path id="Path_131" data-name="Path 131" d="M42.736,61.692A8.766,8.766,0,1,1,51.5,52.926,8.772,8.772,0,0,1,42.736,61.692Zm0-12.779A3.989,3.989,0,1,0,46.725,52.9,4,4,0,0,0,42.736,48.913Z" transform="translate(39.918 56.95)" fill="#0055b8"/>
    <path id="Path_132" data-name="Path 132" d="M52.983,33.727H44.409a2.389,2.389,0,0,1,0-4.777h8.575a2.389,2.389,0,0,1,0,4.777Z" transform="translate(51.096 35.831)" fill="#0055b8"/>
    <path id="Path_133" data-name="Path 133" d="M43.746,25.652a8.766,8.766,0,1,1,8.766-8.766A8.772,8.772,0,0,1,43.746,25.652Zm0-12.779a3.989,3.989,0,1,0,3.989,3.989A4,4,0,0,0,43.746,12.873Z" transform="translate(41.321 6.908)" fill="#0055b8"/>
    <path id="Path_134" data-name="Path 134" d="M42.895,15.557H33.389a2.389,2.389,0,0,1,0-4.777h9.506a2.389,2.389,0,1,1,0,4.777Z" transform="translate(35.794 10.601)" fill="#0055b8"/>
    <path id="Path_135" data-name="Path 135" d="M52.876,53.182a8.766,8.766,0,1,1,8.766-8.766,8.772,8.772,0,0,1-8.766,8.766Zm0-12.755a3.989,3.989,0,1,0,3.989,3.989A4,4,0,0,0,52.876,40.427Z" transform="translate(53.998 45.134)" fill="#0055b8"/>
    <path id="Path_136" data-name="Path 136" d="M56.871,43.1H39.029a2.389,2.389,0,0,1,0-4.777H56.871a2.389,2.389,0,1,1,0,4.777Z" transform="translate(43.625 48.841)" fill="#0055b8"/>
    <path id="Path_137" data-name="Path 137" d="M46.86,62.423a2.4,2.4,0,0,1-2.389-2.389V39.207H33.389a2.389,2.389,0,1,1,0-4.777H46.86a2.4,2.4,0,0,1,2.389,2.389V60.035A2.4,2.4,0,0,1,46.86,62.423Z" transform="translate(35.794 43.439)" fill="#0055b8"/>
    <path id="Path_138" data-name="Path 138" d="M53.856,21.657H47.479a2.389,2.389,0,0,1,0-4.777h6.377a2.389,2.389,0,0,1,0,4.777Z" transform="translate(55.358 19.071)" fill="#0055b8"/>
  </g>
</svg>
