<svg id="Awards_Icon" xmlns="http://www.w3.org/2000/svg" width="164.011" height="150.122" viewBox="0 0 164.011 150.122">
  <path id="Shape" d="M156.327,91.906a187.9,187.9,0,0,1-26.846-2.982,54.678,54.678,0,1,0-97.846,0,187.9,187.9,0,0,1-26.86,2.982,4.1,4.1,0,0,0-2.46,7.247l12.115,10.095L7.7,127.226a4.1,4.1,0,0,0,3.811,5.546,3.872,3.872,0,0,0,.5-.03,183.475,183.475,0,0,0,53.074-15.679,53.973,53.973,0,0,0,30.933,0,183.491,183.491,0,0,0,53.071,15.679,4.479,4.479,0,0,0,.5.03,4.1,4.1,0,0,0,3.827-5.544l-6.741-17.981,12.115-10.095a4.1,4.1,0,0,0-2.46-7.247ZM13.615,127.016l6.159-16.423a98.438,98.438,0,0,0,13.6-2.652,2.734,2.734,0,0,0-1.43-5.276,93.489,93.489,0,0,1-13.736,2.611L8.522,97.2a190.551,190.551,0,0,0,25.941-3.261,54.968,54.968,0,0,0,23.383,20.384A179.64,179.64,0,0,1,13.615,127.016Zm17.732-62.36a49.2,49.2,0,1,1,49.2,49.2A49.2,49.2,0,0,1,31.347,64.656Zm111.544,40.62a93.486,93.486,0,0,1-13.736-2.611,2.734,2.734,0,0,0-1.43,5.276,98.845,98.845,0,0,0,13.6,2.652l6.159,16.423a179.642,179.642,0,0,1-44.231-12.689,54.968,54.968,0,0,0,23.383-20.384A190.553,190.553,0,0,0,152.579,97.2Z" transform="translate(1.455 17.35)" fill="#fff"/>
  <path id="Shape-2" data-name="Shape" d="M78.069,64.7,96.187,46.791a2.734,2.734,0,0,0-1.523-4.647L69.647,38.457,58.464,15.462a2.843,2.843,0,0,0-4.92,0L42.35,38.457,17.333,42.144a2.734,2.734,0,0,0-1.523,4.647L33.936,64.7l-4.283,25.3a2.734,2.734,0,0,0,3.983,2.867L56,80.952,78.37,92.873a2.728,2.728,0,0,0,3.977-2.867ZM57.294,75.441a2.753,2.753,0,0,0-2.575,0L35.975,85.432,39.564,64.22a2.734,2.734,0,0,0-.774-2.4L23.552,46.759l21.024-3.1a2.734,2.734,0,0,0,2.061-1.509L56,22.9l9.368,19.244a2.734,2.734,0,0,0,2.061,1.509l21.024,3.1L73.225,61.815a2.734,2.734,0,0,0-.774,2.4l3.589,21.218Z" transform="translate(26.002 24.346)" fill="#fff"/>
  <path id="Shape-3" data-name="Shape" d="M41.926,4.817l-3.144,7.572a2.734,2.734,0,0,0,5.052,2.094l3.144-7.572a2.734,2.734,0,1,0-5.052-2.094Z" transform="translate(66.868 5.425)" fill="#fff"/>
  <path id="Shape-4" data-name="Shape" d="M52.31,25.21a2.733,2.733,0,0,0,3.573,1.479l7.575-3.154a2.734,2.734,0,0,0-2.1-5.049l-7.572,3.146A2.734,2.734,0,0,0,52.31,25.21Z" transform="translate(90.314 31.682)" fill="#fff"/>
  <path id="Shape-5" data-name="Shape" d="M19.97,3.334a2.734,2.734,0,0,0-1.479,3.573l3.144,7.572a2.734,2.734,0,0,0,2.526,1.687,2.772,2.772,0,0,0,1.047-.208,2.734,2.734,0,0,0,1.479-3.573L23.524,4.813A2.734,2.734,0,0,0,19.97,3.334Z" transform="translate(31.693 5.429)" fill="#fff"/>
  <path id="Shape-6" data-name="Shape" d="M4.814,23.535l7.575,3.146a2.734,2.734,0,0,0,2.1-5.049L6.913,18.486a2.734,2.734,0,0,0-2.1,5.049Z" transform="translate(5.426 31.682)" fill="#fff"/>
  <path id="Shape-7" data-name="Shape" d="M29,2.734V16.4a2.734,2.734,0,1,0,5.467,0V2.734a2.734,2.734,0,1,0-5.467,0Z" transform="translate(50.272)" fill="#fff"/>
  <path id="Shape-8" data-name="Shape" d="M56.457,9.347,46.794,19.01a2.734,2.734,0,1,0,3.865,3.865l9.66-9.666a2.734,2.734,0,1,0-3.862-3.862Z" transform="translate(79.672 14.673)" fill="#fff"/>
  <path id="Shape-9" data-name="Shape" d="M9.295,9.294a2.734,2.734,0,0,0,0,3.865l9.663,9.663a2.734,2.734,0,0,0,3.865-3.865L13.157,9.294a2.734,2.734,0,0,0-3.862,0Z" transform="translate(14.725 14.726)" fill="#fff"/>
  <path id="Shape-10" data-name="Shape" d="M16.4,34.467A2.734,2.734,0,1,0,16.4,29H2.734a2.734,2.734,0,1,0,0,5.467Z" transform="translate(0 50.272)" fill="#fff"/>
  <path id="Shape-11" data-name="Shape" d="M69.4,29H55.734a2.734,2.734,0,0,0,0,5.467H69.4A2.734,2.734,0,0,0,69.4,29Z" transform="translate(91.877 50.272)" fill="#fff"/>
</svg>
