<svg xmlns="http://www.w3.org/2000/svg" width="128.003" height="155.176" viewBox="0 0 128.003 155.176">
  <g id="Group_21" data-name="Group 21" transform="translate(-1280.638 -4024.224)">
    <path id="Path_157" data-name="Path 157" d="M163.238,206.822H59.794a12.293,12.293,0,0,1-12.279-12.279V142.886a12.293,12.293,0,0,1,12.279-12.279H163.239a12.293,12.293,0,0,1,12.279,12.279v51.656A12.294,12.294,0,0,1,163.238,206.822ZM59.794,136.747a6.147,6.147,0,0,0-6.14,6.14v51.656a6.147,6.147,0,0,0,6.14,6.14H163.239a6.147,6.147,0,0,0,6.14-6.14V142.886a6.147,6.147,0,0,0-6.14-6.14Z" transform="translate(1233.123 3933.097)" fill="#0055b8"/>
    <path id="Path_158" data-name="Path 158" d="M127.518,205.108a3.06,3.06,0,0,1-2.166-.895,7.545,7.545,0,0,1,0-10.684,3.07,3.07,0,0,1,4.333,4.35,1.406,1.406,0,0,0,0,1.984,3.07,3.07,0,0,1-2.166,5.245Z" transform="translate(1180.717 3888.725)" fill="#0055b8"/>
    <path id="Path_159" data-name="Path 159" d="M100.954,197.139a3.059,3.059,0,0,1-2.172-.9,16.513,16.513,0,0,1,0-23.347,3.07,3.07,0,0,1,4.344,4.339,10.374,10.374,0,0,0,0,14.669,3.069,3.069,0,0,1-2.172,5.239Z" transform="translate(1200.943 3903.031)" fill="#0055b8"/>
    <path id="Path_160" data-name="Path 160" d="M364.049,187.453H347.026a3.07,3.07,0,0,1-3.07-3.07V173.632a3.07,3.07,0,0,1,3.07-3.07h17.023a3.07,3.07,0,0,1,3.07,3.07v10.751A3.07,3.07,0,0,1,364.049,187.453Zm-13.953-6.14h10.883V176.7H350.1Z" transform="translate(1027.684 3906.022)" fill="#0055b8"/>
    <path id="Path_189" data-name="Path 189" d="M3,0H23a3,3,0,0,1,0,6H3A3,3,0,0,1,3,0Z" transform="translate(1369 4101)" fill="#0055b8"/>
    <path id="Path_188" data-name="Path 188" d="M3,0H19a3,3,0,0,1,0,6H3A3,3,0,0,1,3,0Z" transform="translate(1342 4101)" fill="#0055b8"/>
    <path id="Path_161" data-name="Path 161" d="M90.246,316.665c-4.413-.081-3.743-6.864.6-6.079C94.4,311.2,93.852,316.754,90.246,316.665Z" transform="translate(1205.589 3807.026)" fill="#0055b8"/>
    <path id="Path_162" data-name="Path 162" d="M129.982,316.665c-3.606.088-4.154-5.463-.6-6.079C133.726,309.8,134.393,316.588,129.982,316.665Z" transform="translate(1178.052 3807.026)" fill="#0055b8"/>
    <path id="Path_163" data-name="Path 163" d="M169.737,316.665c-4.412-.078-3.743-6.864.6-6.079C173.891,311.2,173.343,316.754,169.737,316.665Z" transform="translate(1150.5 3807.026)" fill="#0055b8"/>
    <path id="Path_164" data-name="Path 164" d="M209.48,316.666c-4.408-.082-3.744-6.861.6-6.079C213.638,311.2,213.087,316.758,209.48,316.666Z" transform="translate(1122.956 3807.025)" fill="#0055b8"/>
    <path id="Path_165" data-name="Path 165" d="M249.23,316.665c-4.41-.079-3.741-6.864.6-6.079C253.385,311.2,252.837,316.753,249.23,316.665Z" transform="translate(1095.408 3807.026)" fill="#0055b8"/>
    <path id="Path_166" data-name="Path 166" d="M288.975,316.666c-4.41-.079-3.747-6.86.6-6.079C293.129,311.2,292.581,316.754,288.975,316.666Z" transform="translate(1067.867 3807.025)" fill="#0055b8"/>
    <path id="Path_167" data-name="Path 167" d="M328.712,316.665c-3.607.089-4.155-5.463-.6-6.079C332.454,309.8,333.121,316.588,328.712,316.665Z" transform="translate(1040.329 3807.026)" fill="#0055b8"/>
    <path id="Path_168" data-name="Path 168" d="M368.467,316.665c-4.412-.078-3.743-6.864.6-6.079C372.62,311.2,372.073,316.753,368.467,316.665Z" transform="translate(1012.777 3807.026)" fill="#0055b8"/>
    <path id="Path_169" data-name="Path 169" d="M408.2,316.665c-3.606.088-4.154-5.463-.6-6.079C411.946,309.8,412.614,316.588,408.2,316.665Z" transform="translate(985.241 3807.026)" fill="#0055b8"/>
    <path id="Path_170" data-name="Path 170" d="M100.786,74.575a3.07,3.07,0,0,1-3.07-3.07V60.519H76.13a3.07,3.07,0,0,1-3.07-3.07v-12.6a3.07,3.07,0,1,1,6.14,0v9.528h21.587a3.07,3.07,0,0,1,3.07,3.07V71.506A3.07,3.07,0,0,1,100.786,74.575Z" transform="translate(1215.42 3995.268)" fill="#0055b8"/>
    <path id="Path_171" data-name="Path 171" d="M61.653,18.965a9.483,9.483,0,1,1,9.482-9.482A9.493,9.493,0,0,1,61.653,18.965Zm0-12.825A3.343,3.343,0,1,0,65,9.483,3.347,3.347,0,0,0,61.653,6.14Z" transform="translate(1229.897 4024.224)" fill="#0055b8"/>
    <path id="Path_172" data-name="Path 172" d="M341.691,74.575a3.07,3.07,0,0,1-3.07-3.07V57.449a3.07,3.07,0,0,1,3.07-3.07h21.587V44.852a3.07,3.07,0,0,1,6.14,0v12.6a3.07,3.07,0,0,1-3.07,3.07H344.761V71.506A3.07,3.07,0,0,1,341.691,74.575Z" transform="translate(1031.381 3995.268)" fill="#0055b8"/>
    <path id="Path_173" data-name="Path 173" d="M407.533,18.965a9.483,9.483,0,1,1,9.483-9.482A9.493,9.493,0,0,1,407.533,18.965Zm0-12.825a3.343,3.343,0,1,0,3.343,3.343A3.347,3.347,0,0,0,407.533,6.14Z" transform="translate(990.196 4024.224)" fill="#0055b8"/>
    <path id="Path_174" data-name="Path 174" d="M200.737,119.834a3.07,3.07,0,0,1-3.07-3.07v-6.606a3.07,3.07,0,1,1,6.14,0v6.606A3.07,3.07,0,0,1,200.737,119.834Z" transform="translate(1129.065 3950.01)" fill="#0055b8"/>
    <path id="Path_175" data-name="Path 175" d="M200.9,71.185c-4.412-.077-3.743-6.865.6-6.078C205.05,65.722,204.5,71.274,200.9,71.185Z" transform="translate(1128.906 3979.148)" fill="#0055b8"/>
    <path id="Path_176" data-name="Path 176" d="M297.4,119.834a3.07,3.07,0,0,1-3.07-3.07v-6.606a3.07,3.07,0,0,1,6.14,0v6.606A3.07,3.07,0,0,1,297.4,119.834Z" transform="translate(1062.073 3950.01)" fill="#0055b8"/>
    <path id="Path_177" data-name="Path 177" d="M297.553,71.185c-3.606.089-4.154-5.464-.6-6.078C301.3,64.322,301.963,71.109,297.553,71.185Z" transform="translate(1061.923 3979.148)" fill="#0055b8"/>
    <path id="Path_178" data-name="Path 178" d="M249.07,90.7a3.07,3.07,0,0,1-3.07-3.07V68.122a3.07,3.07,0,1,1,6.14,0v19.51A3.07,3.07,0,0,1,249.07,90.7Z" transform="translate(1095.569 3979.142)" fill="#0055b8"/>
    <path id="Path_179" data-name="Path 179" d="M76.13,396.186a3.07,3.07,0,0,1-3.07-3.07v-12.6a3.07,3.07,0,0,1,3.07-3.07H97.717V366.463a3.07,3.07,0,1,1,6.14,0V380.52a3.07,3.07,0,0,1-3.07,3.07H79.2v9.527A3.07,3.07,0,0,1,76.13,396.186Z" transform="translate(1215.42 3770.386)" fill="#0055b8"/>
    <path id="Path_180" data-name="Path 180" d="M61.653,469.185a9.483,9.483,0,1,1,9.482-9.483A9.493,9.493,0,0,1,61.653,469.185Zm0-12.825A3.343,3.343,0,1,0,65,459.7,3.347,3.347,0,0,0,61.653,456.36Z" transform="translate(1229.897 3710.214)" fill="#0055b8"/>
    <path id="Path_181" data-name="Path 181" d="M366.347,396.186a3.07,3.07,0,0,1-3.07-3.07v-9.527H341.691a3.07,3.07,0,0,1-3.07-3.07V366.463a3.07,3.07,0,1,1,6.14,0V377.45h21.587a3.07,3.07,0,0,1,3.07,3.07v12.6A3.07,3.07,0,0,1,366.347,396.186Z" transform="translate(1031.381 3770.386)" fill="#0055b8"/>
    <path id="Path_182" data-name="Path 182" d="M407.533,469.185a9.483,9.483,0,1,1,9.483-9.483A9.494,9.494,0,0,1,407.533,469.185Zm0-12.825a3.343,3.343,0,1,0,3.343,3.343A3.347,3.347,0,0,0,407.533,456.36Z" transform="translate(990.196 3710.214)" fill="#0055b8"/>
    <path id="Path_183" data-name="Path 183" d="M200.737,376.138a3.07,3.07,0,0,1-3.07-3.07v-6.606a3.07,3.07,0,1,1,6.14,0v6.606A3.07,3.07,0,0,1,200.737,376.138Z" transform="translate(1129.065 3770.387)" fill="#0055b8"/>
    <path id="Path_184" data-name="Path 184" d="M200.888,433.079c-3.608.084-4.157-5.458-.6-6.082C204.627,426.214,205.3,432.993,200.888,433.079Z" transform="translate(1128.915 3726.351)" fill="#0055b8"/>
    <path id="Path_185" data-name="Path 185" d="M297.4,376.138a3.07,3.07,0,0,1-3.07-3.07v-6.606a3.07,3.07,0,1,1,6.14,0v6.606A3.07,3.07,0,0,1,297.4,376.138Z" transform="translate(1062.073 3770.387)" fill="#0055b8"/>
    <path id="Path_186" data-name="Path 186" d="M297.552,433.079c-3.607.082-4.154-5.46-.6-6.082C301.3,426.216,301.964,433,297.552,433.079Z" transform="translate(1061.923 3726.351)" fill="#0055b8"/>
    <path id="Path_187" data-name="Path 187" d="M249.07,389.042a3.07,3.07,0,0,1-3.07-3.07v-19.51a3.07,3.07,0,1,1,6.14,0v19.51A3.07,3.07,0,0,1,249.07,389.042Z" transform="translate(1095.569 3770.387)" fill="#0055b8"/>
  </g>
</svg>
