<svg xmlns="http://www.w3.org/2000/svg" width="164" height="162.475" viewBox="0 0 164 162.475">
  <g id="Clients_Icon" transform="translate(-1 -1.279)">
    <path id="Path_71" data-name="Path 71" d="M28.6,51.886a2.734,2.734,0,0,1-2.733-2.733v-9.9a2.716,2.716,0,0,1,1.082-2.176,10.851,10.851,0,0,0,4.384-8.7v-8.2a10.933,10.933,0,1,0-21.867,0v8.2a10.851,10.851,0,0,0,4.384,8.7,2.726,2.726,0,0,1,1.082,2.181v9.9a2.733,2.733,0,1,1-5.467-.005v-8.61A16.215,16.215,0,0,1,4,28.379v-8.2a16.4,16.4,0,0,1,32.8,0v8.2a16.224,16.224,0,0,1-5.467,12.163v8.61A2.734,2.734,0,0,1,28.6,51.886Z" transform="translate(13.4 11.167)" fill="#fff"/>
    <path id="Path_72" data-name="Path 72" d="M9.733,26.639a2.731,2.731,0,0,1-.541-5.407,10.986,10.986,0,0,0,8.725-10.72,2.733,2.733,0,1,1,5.467,0,16.46,16.46,0,0,1-13.1,16.067,2.71,2.71,0,0,1-.552.06Z" transform="translate(26.817 29.033)" fill="#fff"/>
    <path id="Path_73" data-name="Path 73" d="M20.977,21.428A2.68,2.68,0,0,1,19.9,21.2L9.655,16.8a2.733,2.733,0,0,1,2.154-5.024l10.245,4.4a2.735,2.735,0,0,1-1.077,5.248Z" transform="translate(31.268 45.911)" fill="#fff"/>
    <path id="Path_74" data-name="Path 74" d="M17.4,54.558a2.693,2.693,0,0,1-1.132-.246L5.805,49.556A8.232,8.232,0,0,1,1,42.088V34.511A19.038,19.038,0,0,1,12.557,16.963l11.956-5.188a2.732,2.732,0,1,1,2.176,5.013L14.721,21.982a13.6,13.6,0,0,0-8.255,12.53v7.577a2.749,2.749,0,0,0,1.6,2.493l10.463,4.756A2.733,2.733,0,0,1,17.4,54.558Z" transform="translate(0 45.87)" fill="#fff"/>
    <path id="Path_75" data-name="Path 75" d="M31,25.154a23.8,23.8,0,0,1-15.05-5.423,2.729,2.729,0,1,1,3.428-4.248,18.051,18.051,0,0,0,11.945,4.2,10.933,10.933,0,0,0-21.856.492V22.2A2.733,2.733,0,0,1,4,22.2V20.179a16.4,16.4,0,0,1,32.8,0v1.913a2.737,2.737,0,0,1-2.3,2.7,21.85,21.85,0,0,1-3.5.361Z" transform="translate(13.4 11.167)" fill="#fff"/>
    <path id="Path_76" data-name="Path 76" d="M46.6,51.881a2.734,2.734,0,0,1-2.733-2.733v-9.9a2.716,2.716,0,0,1,1.082-2.176,10.851,10.851,0,0,0,4.384-8.7v-8.2a10.933,10.933,0,0,0-21.867,0v8.2a10.851,10.851,0,0,0,4.384,8.7,2.726,2.726,0,0,1,1.082,2.181v9.9a2.733,2.733,0,1,1-5.467,0v-8.61A16.215,16.215,0,0,1,22,28.38v-8.2a16.4,16.4,0,0,1,32.8,0v8.2a16.224,16.224,0,0,1-5.467,12.163v8.61A2.733,2.733,0,0,1,46.6,51.881Z" transform="translate(93.8 11.171)" fill="#fff"/>
    <path id="Path_77" data-name="Path 77" d="M27.733,26.639a2.731,2.731,0,0,1-.541-5.407,10.986,10.986,0,0,0,8.725-10.72,2.733,2.733,0,1,1,5.467,0,16.46,16.46,0,0,1-13.1,16.067,2.71,2.71,0,0,1-.552.06Z" transform="translate(107.217 29.033)" fill="#fff"/>
    <path id="Path_78" data-name="Path 78" d="M24.005,21.081a2.735,2.735,0,0,1-1.077-5.248l9.441-4.056A2.733,2.733,0,0,1,34.523,16.8l-9.441,4.056A2.661,2.661,0,0,1,24.005,21.081Z" transform="translate(90.554 45.913)" fill="#fff"/>
    <path id="Path_79" data-name="Path 79" d="M36.933,54.56A2.733,2.733,0,0,1,35.8,49.34l10.463-4.756a2.743,2.743,0,0,0,1.6-2.493V34.514A13.586,13.586,0,0,0,39.628,22l-11.983-5.2a2.732,2.732,0,1,1,2.176-5.013l11.967,5.193A19.032,19.032,0,0,1,53.333,34.514v7.577a8.232,8.232,0,0,1-4.805,7.467L38.065,54.314a2.779,2.779,0,0,1-1.132.246Z" transform="translate(111.667 45.868)" fill="#fff"/>
    <path id="Path_80" data-name="Path 80" d="M34.66,15.6c-7.774,0-15.864-2.739-20.325-6.751a2.731,2.731,0,1,1,3.652-4.062c5.39,4.843,18.3,7.375,25.7,3.406a2.733,2.733,0,0,1,2.586,4.816A24.818,24.818,0,0,1,34.66,15.6Z" transform="translate(55.501 12.549)" fill="#fff"/>
    <path id="Path_81" data-name="Path 81" d="M28.39,27.151c-9.069,0-13.8-7.074-15.033-10.819A2.731,2.731,0,0,1,18.539,14.6c.115.328,2.537,7.074,9.851,7.074,7.375,0,9.971-6.954,10.086-7.249a2.734,2.734,0,0,1,5.155,1.82c-.159.448-3.936,10.9-15.241,10.9Z" transform="translate(54.572 50.661)" fill="#fff"/>
    <path id="Path_82" data-name="Path 82" d="M61.233,58.135A2.734,2.734,0,0,1,58.5,55.4V53.876A19.112,19.112,0,0,0,45.785,35.847l-22.8-8.091A8.183,8.183,0,0,1,17.5,20.037V13.313a2.733,2.733,0,1,1,5.467,0v6.724A2.723,2.723,0,0,0,24.8,22.6l22.807,8.1A24.578,24.578,0,0,1,63.967,53.876v1.531a2.73,2.73,0,0,1-2.733,2.728Z" transform="translate(73.7 41.544)" fill="#fff"/>
    <path id="Path_83" data-name="Path 83" d="M8.733,58.139A2.734,2.734,0,0,1,6,55.406V53.93A24.67,24.67,0,0,1,22.411,30.691L45.163,22.71A2.727,2.727,0,0,0,47,20.146V13.312a2.733,2.733,0,1,1,5.467,0v6.833a8.2,8.2,0,0,1-5.494,7.724L24.237,35.846A19.185,19.185,0,0,0,11.467,53.93v1.476A2.731,2.731,0,0,1,8.733,58.139Z" transform="translate(22.333 41.54)" fill="#fff"/>
    <path id="Path_84" data-name="Path 84" d="M33.867,61.412a2.733,2.733,0,0,1,0-5.467c5.674,0,16.4-5.139,16.4-24.6v-8.2a16.4,16.4,0,0,0-32.8,0v8.2c0,9.425,2.52,16.635,7.282,20.85a2.732,2.732,0,0,1-3.619,4.095C16.964,52.606,12,45.291,12,31.346v-8.2a21.867,21.867,0,0,1,43.733,0v8.2c0,23.785-14.3,30.067-21.867,30.067Z" transform="translate(49.133)" fill="#fff"/>
    <path id="Path_85" data-name="Path 85" d="M32.666,66.728a2.732,2.732,0,0,1-1.208-5.182l13.519-6.7a2.733,2.733,0,0,1,2.422,0l8.834,4.379L54.8,49.475a2.73,2.73,0,0,1,.754-2.307l6.9-7.057-9.731-1.656a2.749,2.749,0,0,1-1.963-1.427l-4.57-8.736-4.576,8.736a2.749,2.749,0,0,1-1.963,1.427l-9.725,1.656,6.9,7.057a2.733,2.733,0,0,1-3.909,3.821L22.372,40.2a2.731,2.731,0,0,1,1.5-4.6l13.535-2.307,6.369-12.158a2.734,2.734,0,0,1,4.843,0l6.363,12.158L68.522,35.6a2.731,2.731,0,0,1,1.5,4.6l-9.6,9.813,2,13.579a2.748,2.748,0,0,1-1.1,2.608,2.709,2.709,0,0,1-2.821.235l-12.3-6.1-12.305,6.1a2.684,2.684,0,0,1-1.225.29Z" transform="translate(91.979 82.151)" fill="#fff"/>
    <path id="Path_86" data-name="Path 86" d="M23.384,75.571a2.731,2.731,0,0,1-2.706-3.132l2.394-16.307L11.548,44.345a2.731,2.731,0,0,1,1.5-4.6L29.3,36.976l7.642-14.6a2.849,2.849,0,0,1,4.849,0l7.642,14.6L65.7,39.742a2.731,2.731,0,0,1,1.5,4.6L55.664,56.131l2.4,16.307a2.748,2.748,0,0,1-1.1,2.608,2.709,2.709,0,0,1-2.821.235l-14.776-7.32L24.6,75.281a2.715,2.715,0,0,1-1.214.29ZM19.1,44.252l8.823,9.025a2.752,2.752,0,0,1,.754,2.307l-1.837,12.48,11.311-5.6a2.7,2.7,0,0,1,2.422,0l11.305,5.6-1.837-12.48a2.73,2.73,0,0,1,.754-2.307l8.829-9.025L47.18,42.131A2.749,2.749,0,0,1,45.218,40.7L39.368,29.525,33.519,40.7a2.749,2.749,0,0,1-1.963,1.427Z" transform="translate(43.632 88.183)" fill="#fff"/>
    <path id="Path_87" data-name="Path 87" d="M39.612,66.724a2.76,2.76,0,0,1-1.214-.284l-12.3-6.1-12.305,6.1A2.737,2.737,0,0,1,9.874,63.6l2-13.579L2.269,40.2a2.731,2.731,0,0,1,1.5-4.6l13.541-2.307,6.369-12.158a2.734,2.734,0,0,1,4.843,0l6.363,12.158L48.419,35.6a2.731,2.731,0,0,1,1.5,4.6L39.372,50.985a2.733,2.733,0,0,1-3.909-3.821l6.9-7.057L32.637,38.45a2.739,2.739,0,0,1-1.963-1.427L26.1,28.287l-4.576,8.736a2.749,2.749,0,0,1-1.963,1.427L9.835,40.106l6.9,7.057a2.752,2.752,0,0,1,.754,2.307l-1.438,9.753,8.84-4.379a2.733,2.733,0,0,1,2.422,0l13.514,6.7A2.735,2.735,0,0,1,42.072,65.2a2.77,2.77,0,0,1-2.46,1.52Z" transform="translate(2.185 82.155)" fill="#fff"/>
  </g>
</svg>
