<svg xmlns="http://www.w3.org/2000/svg" width="128.438" height="128" viewBox="0 0 128.438 128">
  <path id="Path_153" data-name="Path 153" d="M95.968,116.613H89.774a2.067,2.067,0,0,1-2.065-2.065V83.581h8.258v8.258h24.774V71.194H95.968v8.258H81.516a2.067,2.067,0,0,1-2.065-2.065V62.935h37.161a12.388,12.388,0,0,0,2.065-24.6v-.171a20.478,20.478,0,0,0-10.323-17.8V14l-2.727-.991,1.23-2.628L98.972,2.5,96.343,3.727,95.35,1H84.2l-.989,2.727L80.581,2.5,76.272,6.805a26.561,26.561,0,0,0-9.208-1.676A26.873,26.873,0,0,0,40.3,30.023a16.431,16.431,0,0,0-14.363,18.6A24.794,24.794,0,0,0,11.323,71.194V81.537a10.984,10.984,0,0,1-4.393,8.442,10.25,10.25,0,0,0-1.866,14.1A14.365,14.365,0,0,0,1,114.08S-1.629,129,6,129H66.194c7.181,0,5-14.92,5-14.92a14.365,14.365,0,0,0-4.063-10,10.249,10.249,0,0,0-1.866-14.1,10.987,10.987,0,0,1-4.393-8.442V71.194a24.613,24.613,0,0,0-1.445-8.258h15.9V77.387a6.2,6.2,0,0,0,6.194,6.194h2.065v30.968a6.2,6.2,0,0,0,6.194,6.194h6.194V129H129V108.355H95.968Zm4.129-41.29h16.516V87.71H100.1ZM81.454,7.464l2.479,1.16L86.157,7.7l.935-2.572h5.364l.619,1.7.438.923,2.1.873L98.1,7.464l3.795,3.793-1.156,2.473.919,2.232,2.572.937v5.366l-1.7.617-.915.421-.877,2.129,1.156,2.473L98.1,31.7l-2.479-1.16-2.223.923-.937,2.572H87.092l-.619-1.7-.438-.923-2.1-.873L81.452,31.7,77.658,27.9l1.156-2.473L77.895,23.2l-2.572-.937V16.9l1.7-.617.915-.421.877-2.129-1.156-2.473ZM5.129,114.08a10.277,10.277,0,0,1,8-10.058l12.338-2.847,5.923,23.7H17.516V112.484H13.387v12.387H5.129ZM36.1,93.7A21.753,21.753,0,0,1,23.71,74.051v-2.37a5.367,5.367,0,0,1,1.844-4.067,23.032,23.032,0,0,0,15.172,5.644H47.7a.786.786,0,0,1,.785.793A21.751,21.751,0,0,1,36.1,93.7Zm-.813,4.164.813.349.813-.349a26.05,26.05,0,0,0,3.47-1.809,6.123,6.123,0,0,0,2.446,3.72l-2.147,8.578H31.516l-2.145-8.58a6.133,6.133,0,0,0,2.444-3.718,26.152,26.152,0,0,0,3.468,1.809Zm4.364,14.619-3.1,12.387h-.908l-3.1-12.387Zm27.417,12.387H58.806V112.484H54.677v12.387H40.8l5.925-23.694,12.335,2.847a10.273,10.273,0,0,1,8,10.056ZM62.679,93.2A6.168,6.168,0,0,1,65,98.032a6,6,0,0,1-1.14,3.51A14.5,14.5,0,0,0,59.991,100L45.953,96.758a2.053,2.053,0,0,1-1.6-2.011V93.005a25.873,25.873,0,0,0,8.258-18.963A4.917,4.917,0,0,0,47.7,69.129H40.725A18.952,18.952,0,0,1,27.234,63.54l-1.053-1.053-1.332.665a9.491,9.491,0,0,0-5.269,8.529v2.37a25.865,25.865,0,0,0,8.258,18.954v1.742a2.053,2.053,0,0,1-1.6,2.011L12.2,100a14.638,14.638,0,0,0-3.869,1.544,6,6,0,0,1-1.14-3.51A6.168,6.168,0,0,1,9.514,93.2a15.088,15.088,0,0,0,5.938-11.662V71.194a20.645,20.645,0,1,1,41.29,0V81.537A15.088,15.088,0,0,0,62.679,93.2ZM36.1,46.419a24.647,24.647,0,0,0-6.146.8c-.017-.268-.047-.535-.047-.8A12.4,12.4,0,0,1,42.29,34.032h2.065V31.968a22.737,22.737,0,0,1,22.71-22.71A22.352,22.352,0,0,1,73,10.082l-.3.3,1.23,2.628L71.194,14v11.15l2.727.991-1.23,2.628,7.886,7.886L83.2,35.432l.993,2.729H95.35l.989-2.727,2.628,1.228,7.886-7.886-1.23-2.628,2.577-.935a16.353,16.353,0,0,1,6.348,12.949,16.536,16.536,0,0,1-.111,1.848l-.256,2.294h2.308l.25-.012a8.259,8.259,0,0,1-.126,16.516H57.518A24.764,24.764,0,0,0,36.1,46.419Zm64,66.065h24.774v12.387H100.1Z" transform="translate(-0.562 -1)" fill="#0055b8"/>
</svg>
