<svg xmlns="http://www.w3.org/2000/svg" width="128" height="128" viewBox="0 0 128 128">
  <g id="Group_21" data-name="Group 21" transform="translate(-309 -4072)">
    <path id="Path_139" data-name="Path 139" d="M69.129,35H7.194A6.2,6.2,0,0,0,1,41.194V78.355a6.2,6.2,0,0,0,6.194,6.194H25.774v4.129H19.581v4.129H56.742V88.677H50.548V84.548H69.129a6.2,6.2,0,0,0,6.194-6.194V41.194A6.2,6.2,0,0,0,69.129,35ZM7.194,39.129H69.129a2.067,2.067,0,0,1,2.065,2.065V68.032H5.129V41.194A2.067,2.067,0,0,1,7.194,39.129ZM46.419,88.677H29.9V84.548H46.419Zm22.71-8.258H7.194a2.067,2.067,0,0,1-2.065-2.065V72.161H71.194v6.194A2.067,2.067,0,0,1,69.129,80.419Z" transform="translate(308 4107.193)" fill="#0055b8"/>
    <path id="Path_140" data-name="Path 140" d="M45.774,39H21V59.645H45.774ZM41.645,55.516s-12.387,3.1-16.516,0,0-12.387,0-12.387H41.645Z" transform="translate(329.29 4111.452)" fill="#0055b8"/>
    <path id="Path_141" data-name="Path 141" d="M5,39H9.129v4.129H5Z" transform="translate(312.258 4111.452)" fill="#0055b8"/>
    <path id="Path_142" data-name="Path 142" d="M9,39H29.645v4.129H9Z" transform="translate(316.516 4111.452)" fill="#0055b8"/>
    <path id="Path_143" data-name="Path 143" d="M5,43H33.9v4.129H5Z" transform="translate(312.258 4115.71)" fill="#0055b8"/>
    <path id="Path_144" data-name="Path 144" d="M5,47H33.9v4.129H5Z" transform="translate(312.258 4119.968)" fill="#0055b8"/>
    <path id="Path_145" data-name="Path 145" d="M47,51h4.129v4.129H47Z" transform="translate(356.968 4124.226)" fill="#0055b8"/>
    <path id="Path_146" data-name="Path 146" d="M43,51h4.129v4.129H43Z" transform="translate(352.71 4124.226)" fill="#0055b8"/>
    <path id="Path_147" data-name="Path 147" d="M47,39h4.129v4.129H47Z" transform="translate(356.968 4111.452)" fill="#0055b8"/>
    <path id="Path_148" data-name="Path 148" d="M43,39h4.129v4.129H43Z" transform="translate(352.71 4111.452)" fill="#0055b8"/>
    <path id="Path_149" data-name="Path 149" d="M123.677,60.871V52.613a6.2,6.2,0,0,0-6.194-6.194H100.968V23.71a6.2,6.2,0,0,0-6.194-6.194H55.334a10.226,10.226,0,0,0-11.45-8.159,14.461,14.461,0,0,0-26.219,0A10.317,10.317,0,1,0,16.323,29.9H28.71V38.31a14.356,14.356,0,0,0-11.045,8.209,10.317,10.317,0,1,0-1.342,20.546h28.9a10.317,10.317,0,1,0-1.342-20.546A14.345,14.345,0,0,0,32.839,38.31V29.9H45.226A10.342,10.342,0,0,0,55.34,21.645H94.774a2.067,2.067,0,0,1,2.065,2.065v22.71H80.323a6.2,6.2,0,0,0-6.194,6.194v8.258a6.2,6.2,0,0,0,6.194,6.194v4.129a6.2,6.2,0,0,0-6.194,6.194v8.258a6.2,6.2,0,0,0,6.194,6.194v4.129a6.2,6.2,0,0,0-6.194,6.194v8.258a6.2,6.2,0,0,0,6.194,6.194h37.161a6.2,6.2,0,0,0,6.194-6.194v-8.258a6.2,6.2,0,0,0-6.194-6.194V91.839a6.2,6.2,0,0,0,6.194-6.194V77.387a6.2,6.2,0,0,0-6.194-6.194V67.065A6.2,6.2,0,0,0,123.677,60.871ZM40.636,49.557l.626,2.023,2.007-.675a6.045,6.045,0,0,1,1.957-.357,6.194,6.194,0,0,1,0,12.387h-28.9a6.194,6.194,0,0,1,0-12.387,6.1,6.1,0,0,1,1.957.355l2.007.677.626-2.021a10.325,10.325,0,0,1,19.724,0Zm4.589-23.783h-28.9a6.194,6.194,0,0,1,0-12.387,6.1,6.1,0,0,1,1.957.355l2.007.677.626-2.021a10.325,10.325,0,0,1,19.724,0l.626,2.023,2.007-.675a6.045,6.045,0,0,1,1.957-.357,6.194,6.194,0,1,1,0,12.387Zm33.032,35.1V52.613a2.067,2.067,0,0,1,2.065-2.065h37.161a2.067,2.067,0,0,1,2.065,2.065v8.258a2.067,2.067,0,0,1-2.065,2.065H80.323A2.067,2.067,0,0,1,78.258,60.871Zm41.29,41.29v8.258a2.067,2.067,0,0,1-2.065,2.065H80.323a2.067,2.067,0,0,1-2.065-2.065v-8.258a2.067,2.067,0,0,1,2.065-2.065h37.161A2.067,2.067,0,0,1,119.548,102.161Zm-6.194-6.194h-28.9V91.839h28.9Zm6.194-18.581v8.258a2.067,2.067,0,0,1-2.065,2.065H80.323a2.067,2.067,0,0,1-2.065-2.065V77.387a2.067,2.067,0,0,1,2.065-2.065h37.161A2.067,2.067,0,0,1,119.548,77.387Zm-6.194-6.194h-28.9V67.065h28.9Z" transform="translate(313.323 4071)" fill="#0055b8"/>
    <path id="Path_150" data-name="Path 150" d="M43,27h4.129v4.129H43Z" transform="translate(352.71 4098.678)" fill="#0055b8"/>
    <path id="Path_151" data-name="Path 151" d="M47,27h4.129v4.129H47Z" transform="translate(356.968 4098.678)" fill="#0055b8"/>
  </g>
</svg>
