<svg xmlns="http://www.w3.org/2000/svg" width="128" height="128" viewBox="0 0 128 128">
  <path id="Path_98" data-name="Path 98" d="M129,31.481V20.07l-5.419-1.482q-.266-.709-.59-1.412l2.787-4.887-8.068-8.066-4.883,2.789c-.467-.215-.939-.413-1.414-.59L109.93,1H98.522L97.039,6.419c-.475.178-.948.376-1.414.59L90.742,4.221l-8.068,8.066,2.787,4.887c-.215.469-.413.939-.59,1.412l-5.419,1.482v1.577h-28.9V1H1V42.29H9.258V66.078A18.571,18.571,0,0,0,1,81.516v.4A18.654,18.654,0,0,0,5.071,93.523l4.187,5.234v3.4a10.323,10.323,0,0,0,20.437,2.065h14.08l-3.1,12.387H34.032a6.2,6.2,0,0,0-6.194,6.194V129h74.323v-6.194a6.2,6.2,0,0,0-6.194-6.194H89.322l-3.1-12.387h24.194a10.342,10.342,0,0,0,10.114-8.258h2.273A6.2,6.2,0,0,0,129,89.774V73.258a6.2,6.2,0,0,0-6.194-6.194h-2.065V44.295l5.035-5.035-2.787-4.887c.215-.469.413-.939.59-1.412ZM108.355,64.145l-3.879-3.881a4.985,4.985,0,0,0-8.508,3.526v3.274H93.9a6.2,6.2,0,0,0-6.194,6.194V83.581H38.083c.05-.553.078-1.109.078-1.666v-.4A18.6,18.6,0,0,0,21.645,63.057V42.29h28.9V34.032H85.319c.05.114.091.227.142.341L82.674,39.26l8.068,8.066,4.883-2.789c.467.215.939.413,1.414.59l1.482,5.421h9.833ZM46.419,36.171,33.306,26.633a10.364,10.364,0,0,0,.727-.859L46.419,9.258ZM30.729,23.3a6.2,6.2,0,0,1-9.91,0L7.191,5.129H44.355ZM17.516,25.776a10.365,10.365,0,0,0,.727.859L5.129,36.171V9.258ZM21.86,29.11a10.06,10.06,0,0,0,7.829,0l12.447,9.051H9.413Zm57.592-3.336V29.9h-28.9V25.774ZM13.387,42.29h4.129V63.057a18.449,18.449,0,0,0-4.129.962ZM8.3,90.943a14.507,14.507,0,0,1-3.167-9.028v-.4a14.452,14.452,0,1,1,28.9,0v.4a14.507,14.507,0,0,1-3.167,9.028l-4.018,5.025h-5.2V87.33a6.194,6.194,0,1,0-4.129,0v8.638h-5.2Zm9.22-9.427a2.065,2.065,0,1,1,2.065,2.065A2.067,2.067,0,0,1,17.516,81.516Zm2.065,26.839a6.2,6.2,0,0,1-6.194-6.194V100.1H25.774v2.065A6.2,6.2,0,0,1,19.581,108.355Zm78.452,14.452v2.065H31.968v-2.065a2.067,2.067,0,0,1,2.065-2.065H95.968A2.067,2.067,0,0,1,98.032,122.806Zm-12.967-6.194H44.935l3.1-12.387H81.968ZM110.419,100.1H29.9v-1.34l4.187-5.231a18.578,18.578,0,0,0,3.128-5.814H87.71v2.065A6.2,6.2,0,0,0,93.9,95.97h22.33A6.186,6.186,0,0,1,110.419,100.1Zm14.452-26.839V89.774a2.067,2.067,0,0,1-2.065,2.065H93.9a2.067,2.067,0,0,1-2.065-2.065V73.258A2.067,2.067,0,0,1,93.9,71.194H100.1v-7.4a.888.888,0,0,1,1.46-.6l8.008,8.008h13.242a2.067,2.067,0,0,1,2.065,2.065Zm-12.387-6.194V44.681c.114-.05.229-.091.343-.142l3.786,2.162V67.065Zm7.86-37.5-.334,1.082a16.529,16.529,0,0,1-1.181,2.83l-.529,1,2.331,4.086-3.613,3.611-4.086-2.333-1,.533a16.367,16.367,0,0,1-2.826,1.181l-1.084.332-1.239,4.53h-5.108l-1.239-4.527-1.084-.332a16.531,16.531,0,0,1-2.826-1.181l-1-.533-4.086,2.333-3.613-3.611,2.331-4.086-.529-1a16.528,16.528,0,0,1-1.181-2.83l-.334-1.082-4.527-1.243V23.22l4.527-1.241.334-1.082a16.528,16.528,0,0,1,1.181-2.83l.529-1L87.821,12.98,91.434,9.37,95.52,11.7l1-.533a16.367,16.367,0,0,1,2.826-1.181l1.084-.332,1.239-4.527h5.108l1.239,4.527,1.084.332a16.531,16.531,0,0,1,2.826,1.181l1,.533,4.086-2.333,3.613,3.611L118.3,17.066l.529,1a16.528,16.528,0,0,1,1.181,2.83l.334,1.082,4.527,1.243v5.106Z" transform="translate(-1 -1)" fill="#0055b8"/>
</svg>
