<svg xmlns="http://www.w3.org/2000/svg" width="164.002" height="143.461" viewBox="0 0 164.002 143.461">
  <g id="employees_icon" transform="translate(0 -32.063)">
    <path id="Path_19" data-name="Path 19" d="M290.872,361.686h-8.99a2.4,2.4,0,1,0,0,4.8h8.99a2.4,2.4,0,0,0,0-4.8Z" transform="translate(-189.957 -224.039)" fill="#fff"/>
    <path id="Path_20" data-name="Path 20" d="M303.858,111.93l-13.082-5.046-6.67-6.67a2.391,2.391,0,0,0-1.544-.7V94.21a24.776,24.776,0,0,0,6.284-12.378,6.874,6.874,0,0,0,1.685-.134,7.11,7.11,0,0,0,5.517-7.051V72.9a7.2,7.2,0,0,0-2.116-5.11c2.121-11.538.374-20.94-5.076-27.234-5.271-6.087-13.764-9-24.559-8.412a32.177,32.177,0,0,0-18.452,6.807,12.658,12.658,0,0,0-4.944,1.68c-2.668,1.6-5.849,4.964-5.849,11.893a59.992,59.992,0,0,0,1.666,13.955,7.121,7.121,0,0,0-3.913,6.448v1.725a7.11,7.11,0,0,0,5.516,7.051,6.859,6.859,0,0,0,1.685.134,24.778,24.778,0,0,0,6.284,12.378v5.307a2.391,2.391,0,0,0-1.544.7l-6.67,6.67-13.082,5.046a15.908,15.908,0,0,0-3.213,1.682,2.4,2.4,0,1,0,2.7,3.974,11.115,11.115,0,0,1,2.242-1.173l12.141-4.683,9.283,13.925a6.873,6.873,0,0,0,5.059,3.038c.23.023.459.034.687.034a6.857,6.857,0,0,0,3.381-.895l-1.992,45.187a2.4,2.4,0,0,0,2.294,2.506l.108,0a2.4,2.4,0,0,0,2.4-2.3l1.849-41.943h4.987l1.849,41.943a2.4,2.4,0,0,0,2.4,2.3l.108,0a2.4,2.4,0,0,0,2.294-2.506l-1.992-45.187a6.856,6.856,0,0,0,3.381.895c.228,0,.458-.011.687-.034a6.873,6.873,0,0,0,5.059-3.038l9.283-13.925,12.141,4.683a11.058,11.058,0,0,1,4.321,3.012l-8.306,8.306a15.784,15.784,0,0,0-4.654,11.235v34.159a2.4,2.4,0,0,0,4.8,0V138.965a11.011,11.011,0,0,1,3.246-7.837l7.29-7.29a11.071,11.071,0,0,1,.383,3.358l-1.861,45.83a2.4,2.4,0,0,0,2.3,2.5l.1,0a2.4,2.4,0,0,0,2.4-2.3l1.861-45.832A15.883,15.883,0,0,0,303.858,111.93ZM244.709,80.842a4.677,4.677,0,0,0-4.865-3.812,2.061,2.061,0,0,1-.559-.038,2.33,2.33,0,0,1-1.676-2.344V72.922a2.277,2.277,0,0,1,1.7-2.285,2.088,2.088,0,0,1,2.056.787,3.351,3.351,0,0,0,4.6.723A17.442,17.442,0,0,0,249.9,68.3a2.4,2.4,0,0,0-3.856-2.867,12.754,12.754,0,0,1-1.871,2.022,6.872,6.872,0,0,0-2.605-1.391,55.252,55.252,0,0,1-1.716-13.54c0-3.679,1.134-6.265,3.371-7.684a7.8,7.8,0,0,1,3.591-1.152,2.425,2.425,0,0,0,1.658-.664,27.062,27.062,0,0,1,16.078-6.083c9.258-.5,16.4,1.837,20.668,6.76,4.3,4.962,5.728,12.579,4.175,22.113a10.413,10.413,0,0,0-2.049.143l-2.257-5.42a2.4,2.4,0,0,0-2.826-1.4c-.223.058-22.409,5.682-31.711-5.9a2.4,2.4,0,1,0-3.746,3.009c9.5,11.827,28.348,9.254,34.623,8l1.745,4.191a3.949,3.949,0,0,0,4.563,2.34,5.185,5.185,0,0,1,1.8-.132,2.267,2.267,0,0,1,1.7,2.255v1.752a2.329,2.329,0,0,1-1.676,2.344,2.036,2.036,0,0,1-.559.038,4.68,4.68,0,0,0-4.865,3.813,20.048,20.048,0,0,1-39.434,0Zm10.657,42.466a2.093,2.093,0,0,1-3.221-.319l-9.352-14.027,3.761-3.761,14.357,12.562Zm6.778,3.173.145-3.3,2.136-2.136,2.136,2.136.145,3.3Zm2.282-12.028L251.1,102.789v-4.6a24.863,24.863,0,0,0,26.662,0v4.6Zm12.281,8.536a2.093,2.093,0,0,1-3.221.319l-5.545-5.545L282.3,105.2l3.761,3.761Z" transform="translate(-150.026 -0.002)" fill="#fff"/>
    <path id="Path_21" data-name="Path 21" d="M76.186,124.518,64.456,119.4l-6.412-6.412a2.388,2.388,0,0,0-1.544-.7V108.51A24.813,24.813,0,0,0,67.278,92.356a6.9,6.9,0,0,0,1.9-.181,7.15,7.15,0,0,0,5.305-7V83.419A7.162,7.162,0,0,0,71.4,77.511a27.166,27.166,0,0,0,.831-6.656A28.01,28.01,0,0,0,58.742,47.1c-.086-8.307-7.177-15.04-15.884-15.04S27.061,38.8,26.974,47.1A28.011,28.011,0,0,0,13.485,70.856a27.166,27.166,0,0,0,.826,6.636,7.179,7.179,0,0,0-3.073,5.953V85.17a7.15,7.15,0,0,0,5.305,7,6.889,6.889,0,0,0,1.9.181,24.813,24.813,0,0,0,10.78,16.154v3.779a2.388,2.388,0,0,0-1.544.7L21.262,119.4l-11.73,5.12A15.988,15.988,0,0,0,.014,139.752l1.419,33.471a2.4,2.4,0,0,0,2.4,2.3l.1,0a2.4,2.4,0,0,0,2.3-2.5L4.815,139.549a11.062,11.062,0,0,1,1.523-6.05l6.305,7.567a13.355,13.355,0,0,1,3.09,8.534v23.523a2.4,2.4,0,0,0,4.8,0V149.6a18.17,18.17,0,0,0-4.2-11.61l-6.7-8.044a10.89,10.89,0,0,1,1.823-1.023l10.223-4.463L28.9,136.186a4.65,4.65,0,0,0,6.977,1.1l4.578-3.906v39.744a2.4,2.4,0,0,0,4.8,0V133.378l4.578,3.906a4.644,4.644,0,0,0,3.016,1.113,4.693,4.693,0,0,0,.725-.057,4.644,4.644,0,0,0,3.236-2.154l7.224-11.727,10.223,4.463a10.9,10.9,0,0,1,1.823,1.023l-6.7,8.044a18.17,18.17,0,0,0-4.2,11.61v23.523a2.4,2.4,0,0,0,4.8,0V149.6a13.357,13.357,0,0,1,3.09-8.534l6.305-7.567a11.062,11.062,0,0,1,1.523,6.05L79.485,173.02a2.4,2.4,0,0,0,2.3,2.5l.1,0a2.4,2.4,0,0,0,2.4-2.3L85.7,139.753A15.989,15.989,0,0,0,76.186,124.518ZM42.859,36.868a11.007,11.007,0,0,1,10.7,7.678,30.466,30.466,0,0,0-21.4,0A11.007,11.007,0,0,1,42.859,36.868Zm-19.717,54.5a4.679,4.679,0,0,0-4.865-3.813,2.076,2.076,0,0,1-.628-.053,2.346,2.346,0,0,1-1.607-2.329V83.445a2.277,2.277,0,0,1,1.7-2.285,2.088,2.088,0,0,1,2.055.787,3.35,3.35,0,0,0,4.6.723,17.427,17.427,0,0,0,3.888-3.783A2.4,2.4,0,0,0,24.444,76a12.736,12.736,0,0,1-1.833,1.971,6.883,6.883,0,0,0-3.625-1.6,22.374,22.374,0,0,1-.7-5.521c0-12.927,11.021-23.445,24.569-23.445S67.428,57.928,67.428,70.856a22.365,22.365,0,0,1-.693,5.511,11.02,11.02,0,0,0-1.87.308L63.059,75.19a4.612,4.612,0,0,0-3.206-1.051c-3.531.209-21.616.686-30.894-10.418A2.4,2.4,0,1,0,25.273,66.8c4.576,5.476,11.288,9.18,19.948,11.007A58.8,58.8,0,0,0,60.056,78.94l2.818,2.317a2.4,2.4,0,0,0,2.731.222,5.3,5.3,0,0,1,2.367-.315,2.266,2.266,0,0,1,1.7,2.255V85.17A2.346,2.346,0,0,1,68.069,87.5a2.054,2.054,0,0,1-.628.053,4.684,4.684,0,0,0-4.865,3.813,20.048,20.048,0,0,1-39.434,0ZM32.9,133.512l-7.226-11.729,3.7-3.7,9.948,9.948Zm9.962-8.74-8.836-8.836v-4.97a24.836,24.836,0,0,0,17.671,0v4.97Zm9.962,8.74L46.4,128.03l9.948-9.948,3.7,3.7Z" transform="translate(0)" fill="#fff"/>
    <path id="Path_22" data-name="Path 22" d="M86.329,394.766H79.586a2.4,2.4,0,1,0,0,4.8h6.743a2.4,2.4,0,1,0,0-4.8Z" transform="translate(-52.46 -246.523)" fill="#fff"/>
  </g>
</svg>
