<svg xmlns="http://www.w3.org/2000/svg" width="24" height="23.016" viewBox="0 0 24 23.016">
  <path id="Home_icon_SVG" data-name="Home icon_SVG" d="M23.728,21.082,13.959,11.25l-.039-.037a2.81,2.81,0,0,0-3.749-.008l-.039.037L.275,21.079A.938.938,0,0,0,1.6,22.406l.744-.743v8.095a3.754,3.754,0,0,0,3.75,3.75H9.469a.937.937,0,0,0,.937-.937V24.93h3.281v7.641a.937.937,0,0,0,.938.938h3.281a3.754,3.754,0,0,0,3.75-3.75.937.937,0,1,0-1.875,0,1.877,1.877,0,0,1-1.875,1.875H15.563V23.993a.937.937,0,0,0-.937-.937H9.469a.937.937,0,0,0-.937.938v7.641H6.094a1.877,1.877,0,0,1-1.875-1.875V19.821q0-.014,0-.028l7.217-7.2a.937.937,0,0,1,1.216,0l7.13,7.177v5.3a.937.937,0,1,0,1.875,0V21.658l.741.746a.937.937,0,0,0,1.33-1.322Z" transform="translate(0 -10.492)" fill="#0055b8"/>
</svg>
