<svg id="product_icon" xmlns="http://www.w3.org/2000/svg" width="164.002" height="164.002" viewBox="0 0 164.002 164.002">
  <path id="Path_24" data-name="Path 24" d="M176.132,288h-98.5L67.054,309.162h9.571v47.614H177.142V309.162h9.571Zm-3.27,5.29,5.29,10.581h-41.7l-5.29-10.581Zm-91.957,0h41.7l-5.29,10.581h-41.7Zm90.947,58.194H129.529V332.968h-5.29v18.516H81.916V309.162h38.668l3.655-7.312v23.183h5.29V301.85l3.655,7.312h38.668Zm0,0" transform="translate(-44.883 -192.773)" fill="#fff"/>
  <path id="Path_25" data-name="Path 25" d="M128,416h15.871v5.29H128Zm0,0" transform="translate(-85.677 -278.45)" fill="#fff"/>
  <path id="Path_26" data-name="Path 26" d="M128,448h15.871v5.29H128Zm0,0" transform="translate(-85.677 -299.869)" fill="#fff"/>
  <path id="Path_27" data-name="Path 27" d="M192,448h5.29v5.29H192Zm0,0" transform="translate(-128.515 -299.869)" fill="#fff"/>
  <path id="Path_28" data-name="Path 28" d="M195.976,50.573l12.216-3.114,12.216,3.111.957-13.117,6.489-11.084L216.377,21.4l-8.185-10.12L200,21.4l-11.477,4.967,6.489,11.084ZM203.3,25.737l4.891-6.045,4.891,6.047,7.189,3.114-4.092,6.99-.588,8.044L208.192,42l-7.4,1.883-.588-8.044-4.092-6.991Zm0,0" transform="translate(-126.191 -7.551)" fill="#fff"/>
  <path id="Path_29" data-name="Path 29" d="M48.144,114.874l3.844-6.563-6.809-2.95-4.917-6.081-4.917,6.078-6.809,2.95,3.844,6.563.568,7.827,7.314-1.86,7.317,1.862ZM42.96,113.26l-.2,2.754-2.5-.634-2.494.634-.2-2.754-1.447-2.473,2.521-1.091,1.624-2,1.621,2.006L44.4,110.79Zm0,0" transform="translate(-19.1 -66.454)" fill="#fff"/>
  <path id="Path_30" data-name="Path 30" d="M416.144,114.874l3.844-6.563-6.809-2.95-4.917-6.081-4.917,6.078-6.809,2.95,3.844,6.563.568,7.827,7.314-1.86,7.317,1.862Zm-5.184-1.615-.2,2.754-2.5-.634-2.494.634-.2-2.754-1.447-2.473,2.521-1.091,1.621-2,1.621,2.006,2.521,1.093Zm0,0" transform="translate(-265.421 -66.454)" fill="#fff"/>
  <path id="Path_31" data-name="Path 31" d="M95.624,156.647a58.662,58.662,0,0,1,13.293,12.189l10.477,13.092L117.227,164.6a33.975,33.975,0,0,0-13.26-22.848l-2.534-1.9-7.753,15.5Zm7.624-8.6a28.71,28.71,0,0,1,8.547,15.962,64.049,64.049,0,0,0-11.311-10.434Zm0,0" transform="translate(-62.705 -93.607)" fill="#fff"/>
  <path id="Path_32" data-name="Path 32" d="M326.718,164.59l-2.167,17.332,10.477-13.094a58.716,58.716,0,0,1,13.293-12.189l1.941-1.3-7.753-15.5-2.534,1.905a33.966,33.966,0,0,0-13.257,22.846Zm16.743-11.017a63.864,63.864,0,0,0-11.311,10.434,28.726,28.726,0,0,1,8.547-15.962Zm0,0" transform="translate(-217.238 -93.602)" fill="#fff"/>
  <path id="Path_33" data-name="Path 33" d="M280,172.186h5.29V161.1a54.506,54.506,0,0,1,12.615-34.837l-4.066-3.387A59.824,59.824,0,0,0,280,161.1Zm0,0" transform="translate(-187.418 -82.249)" fill="#fff"/>
  <path id="Path_34" data-name="Path 34" d="M336,96h5.29v5.29H336Zm0,0" transform="translate(-224.902 -64.258)" fill="#fff"/>
  <path id="Path_35" data-name="Path 35" d="M360,64h5.29v5.29H360Zm0,0" transform="translate(-240.966 -42.838)" fill="#fff"/>
  <path id="Path_36" data-name="Path 36" d="M174.468,172.185h5.29V161.1a59.831,59.831,0,0,0-13.837-38.224l-4.066,3.387A54.518,54.518,0,0,1,174.468,161.1Zm0,0" transform="translate(-108.338 -82.249)" fill="#fff"/>
  <path id="Path_37" data-name="Path 37" d="M144,96h5.29v5.29H144Zm0,0" transform="translate(-96.386 -64.258)" fill="#fff"/>
  <path id="Path_38" data-name="Path 38" d="M120,64h5.29v5.29H120Zm0,0" transform="translate(-80.322 -42.838)" fill="#fff"/>
  <path id="Path_39" data-name="Path 39" d="M240,136h5.29v5.29H240Zm0,0" transform="translate(-160.644 -91.032)" fill="#fff"/>
  <path id="Path_40" data-name="Path 40" d="M240,168h5.29v34.388H240Zm0,0" transform="translate(-160.644 -112.451)" fill="#fff"/>
  <path id="Path_41" data-name="Path 41" d="M464,216h5.29v5.29H464Zm0,0" transform="translate(-310.579 -144.58)" fill="#fff"/>
  <path id="Path_42" data-name="Path 42" d="M464,248h5.29v5.29H464Zm0,0" transform="translate(-310.579 -165.999)" fill="#fff"/>
  <path id="Path_43" data-name="Path 43" d="M480,232h5.29v5.29H480Zm0,0" transform="translate(-321.288 -155.289)" fill="#fff"/>
  <path id="Path_44" data-name="Path 44" d="M448,232h5.29v5.29H448Zm0,0" transform="translate(-299.869 -155.289)" fill="#fff"/>
  <path id="Path_45" data-name="Path 45" d="M440,0h5.29V5.29H440Zm0,0" transform="translate(-294.514)" fill="#fff"/>
  <path id="Path_46" data-name="Path 46" d="M440,32h5.29v5.29H440Zm0,0" transform="translate(-294.514 -21.419)" fill="#fff"/>
  <path id="Path_47" data-name="Path 47" d="M456,16h5.29v5.29H456Zm0,0" transform="translate(-305.224 -10.71)" fill="#fff"/>
  <path id="Path_48" data-name="Path 48" d="M424,16h5.29v5.29H424Zm0,0" transform="translate(-283.805 -10.71)" fill="#fff"/>
  <path id="Path_49" data-name="Path 49" d="M16,248h5.29v5.29H16Zm0,0" transform="translate(-10.71 -165.999)" fill="#fff"/>
  <path id="Path_50" data-name="Path 50" d="M16,280h5.29v5.29H16Zm0,0" transform="translate(-10.71 -187.418)" fill="#fff"/>
  <path id="Path_51" data-name="Path 51" d="M32,264h5.29v5.29H32Zm0,0" transform="translate(-21.419 -176.708)" fill="#fff"/>
  <path id="Path_52" data-name="Path 52" d="M0,264H5.29v5.29H0Zm0,0" transform="translate(0 -176.708)" fill="#fff"/>
  <path id="Path_53" data-name="Path 53" d="M16,0h5.29V5.29H16Zm0,0" transform="translate(-10.71)" fill="#fff"/>
  <path id="Path_54" data-name="Path 54" d="M16,32h5.29v5.29H16Zm0,0" transform="translate(-10.71 -21.419)" fill="#fff"/>
  <path id="Path_55" data-name="Path 55" d="M32,16h5.29v5.29H32Zm0,0" transform="translate(-21.419 -10.71)" fill="#fff"/>
  <path id="Path_56" data-name="Path 56" d="M0,16H5.29v5.29H0Zm0,0" transform="translate(0 -10.71)" fill="#fff"/>
</svg>
