<svg xmlns="http://www.w3.org/2000/svg" width="164.002" height="163.364" viewBox="0 0 164.002 163.364">
  <path id="project_icon" d="M32.615,102.171V29.762h0v-9.4q0-.273-.014-.543c0-.04-.006-.08-.009-.12-.009-.141-.018-.282-.032-.422,0-.031-.008-.062-.012-.094-.016-.148-.034-.3-.057-.443,0-.018-.006-.034-.009-.052-.025-.161-.054-.321-.086-.48v0a10.565,10.565,0,0,0-1.607-3.815c-.02-.03-.042-.059-.062-.089-.074-.108-.149-.215-.228-.321s-.16-.207-.241-.309c-.023-.029-.045-.059-.069-.088a10.8,10.8,0,0,0-1.5-1.5c-.032-.027-.066-.051-.1-.078-.1-.079-.2-.158-.3-.233s-.215-.155-.324-.23c-.028-.02-.056-.041-.085-.06a10.565,10.565,0,0,0-3.806-1.6l-.013,0c-.154-.031-.309-.059-.465-.083l-.067-.012c-.138-.021-.277-.038-.417-.053-.04,0-.08-.011-.121-.015-.125-.013-.251-.021-.378-.029-.055,0-.109-.009-.164-.012-.129-.006-.258-.008-.388-.01-.051,0-.1,0-.153,0H18.7A10.71,10.71,0,0,0,8,20.362v81.809a2.646,2.646,0,0,0,.354,1.323l9.663,16.736a2.645,2.645,0,0,0,4.581,0l9.663-16.736a2.649,2.649,0,0,0,.354-1.323Zm-5.29-69.765V99.526H13.29V32.407ZM13.29,27.116V20.362A5.413,5.413,0,0,1,18.7,14.955h3.221c.032,0,.063,0,.095,0,.15,0,.3.008.448.023.071.007.14.021.21.031.107.015.216.028.321.049.079.016.156.039.234.059s.188.044.279.072.184.065.275.1c.072.027.146.05.217.079.126.053.248.113.369.176.032.016.065.03.1.047a5.5,5.5,0,0,1,2.222,2.222c.02.036.035.075.054.111.06.117.118.234.169.355.031.075.057.154.085.231s.066.172.094.261.052.2.076.3c.018.072.04.143.054.216.023.116.038.234.054.352.008.06.021.118.026.179.018.179.027.36.027.544v6.754H13.29Zm7.017,86.5-5.081-8.8H25.388Zm97.3-8.482a2.645,2.645,0,0,1-2.645,2.645H97.6a2.645,2.645,0,1,1,0-5.29H114.96A2.645,2.645,0,0,1,117.605,105.135Zm15.629-20a2.645,2.645,0,0,1-2.645,2.645H73.625a2.645,2.645,0,0,1,0-5.29h56.965A2.645,2.645,0,0,1,133.235,85.137Zm-72.2-42.159h70.077a2.645,2.645,0,1,1,0,5.29H61.037a2.645,2.645,0,0,1,0-5.29Zm86.7,12.644a2.645,2.645,0,0,1-2.645,2.645H61.037a2.645,2.645,0,0,1,0-5.29h84.054A2.645,2.645,0,0,1,147.736,55.622Zm-73.8-26.665a2.645,2.645,0,0,1,2.645-2.645h5.29a2.645,2.645,0,1,1,0,5.29h-5.29A2.645,2.645,0,0,1,73.936,28.957Zm-21.162,0a2.645,2.645,0,0,1,2.645-2.645h5.29a2.645,2.645,0,1,1,0,5.29H55.42A2.645,2.645,0,0,1,52.775,28.957Zm84.645,0a2.645,2.645,0,0,1,2.645-2.645h5.29a2.645,2.645,0,1,1,0,5.29h-5.29A2.645,2.645,0,0,1,137.42,28.957Zm-42.323,0a2.645,2.645,0,0,1,2.645-2.645h5.29a2.645,2.645,0,0,1,0,5.29h-5.29A2.645,2.645,0,0,1,95.1,28.957Zm21.162,0a2.645,2.645,0,0,1,2.645-2.645h5.29a2.645,2.645,0,1,1,0,5.29H118.9A2.645,2.645,0,0,1,116.259,28.957Zm3.293,39.309H61.037a2.645,2.645,0,0,1,0-5.29h58.515a2.645,2.645,0,1,1,0,5.29Zm5.179,26.87a2.645,2.645,0,0,1-2.645,2.645H82.129a2.645,2.645,0,1,1,0-5.29h39.957A2.645,2.645,0,0,1,124.731,95.136ZM63.456,112.214A20.225,20.225,0,1,0,83.682,132.44,20.248,20.248,0,0,0,63.456,112.214Zm0,35.161A14.935,14.935,0,1,1,78.391,132.44a14.952,14.952,0,0,1-14.935,14.935ZM170.312,52.689a2.645,2.645,0,0,0-2.911.686l-4.08,4.481V11.608a2.645,2.645,0,0,0-2.645-2.645H38.37a2.645,2.645,0,0,0-2.645,2.645v92.151L31.686,107.8a2.645,2.645,0,0,0-.547,2.944l2.134,4.805a34.344,34.344,0,0,0-3.107,7.5l-4.9,1.887a2.645,2.645,0,0,0-1.695,2.469v10.08a2.645,2.645,0,0,0,1.695,2.469l4.9,1.887a34.364,34.364,0,0,0,3.108,7.5l-2.134,4.8a2.645,2.645,0,0,0,.547,2.944l7.128,7.128a2.644,2.644,0,0,0,2.944.547l4.806-2.135a34.377,34.377,0,0,0,7.495,3.107l1.888,4.9a2.644,2.644,0,0,0,2.469,1.695H68.5a2.645,2.645,0,0,0,2.469-1.695l1.887-4.9a34.347,34.347,0,0,0,7.5-3.108l4.8,2.134a2.644,2.644,0,0,0,2.944-.547l2.9-2.9h69.679a2.645,2.645,0,0,0,2.645-2.645v-8.58h6.036A2.645,2.645,0,0,0,172,147.439V55.156a2.645,2.645,0,0,0-1.69-2.467ZM158.031,14.253V63.667l-55.967,61.471a2.616,2.616,0,0,0-.414-.207l-4.9-1.887a34.342,34.342,0,0,0-3.108-7.5l2.134-4.8a2.645,2.645,0,0,0-.547-2.944L88.1,100.67a2.645,2.645,0,0,0-2.944-.547l-4.806,2.135a34.368,34.368,0,0,0-7.495-3.107l-1.888-4.9A2.644,2.644,0,0,0,68.5,92.551H58.416a2.645,2.645,0,0,0-2.469,1.695l-1.888,4.9a34.348,34.348,0,0,0-7.494,3.107l-4.806-2.135a2.646,2.646,0,0,0-.743-.205V14.253Zm-72.39,144.93-4.386-1.948a2.645,2.645,0,0,0-2.461.165,29.1,29.1,0,0,1-8.535,3.538,2.645,2.645,0,0,0-1.856,1.623l-1.723,4.475H60.232l-1.723-4.477a2.645,2.645,0,0,0-1.856-1.623A29.1,29.1,0,0,1,48.12,157.4a2.645,2.645,0,0,0-2.46-.165l-4.388,1.949-4.56-4.56,1.949-4.386a2.646,2.646,0,0,0-.165-2.461,29.092,29.092,0,0,1-3.538-8.535,2.645,2.645,0,0,0-1.623-1.856l-4.475-1.722v-6.448l4.476-1.723a2.645,2.645,0,0,0,1.623-1.856A29.091,29.091,0,0,1,38.5,117.1a2.646,2.646,0,0,0,.165-2.461l-1.949-4.388,4.56-4.56,4.388,1.949a2.646,2.646,0,0,0,2.461-.165,29.091,29.091,0,0,1,8.532-3.538,2.645,2.645,0,0,0,1.856-1.623l1.723-4.477H66.68l1.723,4.477a2.645,2.645,0,0,0,1.856,1.623,29.1,29.1,0,0,1,8.533,3.538,2.648,2.648,0,0,0,2.461.165l4.388-1.949,4.559,4.56-1.949,4.386a2.646,2.646,0,0,0,.165,2.461,29.073,29.073,0,0,1,3.538,8.535,2.646,2.646,0,0,0,1.623,1.857l4.475,1.722v.326L83.379,145.659a2.645,2.645,0,0,0,1.956,4.426h2.86c.019.051.034.1.056.151l1.949,4.388Zm72.39-3.164H95.87a2.641,2.641,0,0,0-.1-1.883l-1.8-4.052h64.058Zm-66.71-11.225,75.391-82.8v6.252h-2.1a2.645,2.645,0,1,0,0,5.29h2.1V78.39h-6.126a2.645,2.645,0,1,0,0,5.29h6.126v4.858h-2.1a2.645,2.645,0,1,0,0,5.29h2.1v4.858h-6.126a2.645,2.645,0,1,0,0,5.29h6.126v4.858h-2.1a2.645,2.645,0,1,0,0,5.29h2.1v4.858h-6.126a2.645,2.645,0,1,0,0,5.29h6.126v4.858h-2.1a2.645,2.645,0,1,0,0,5.29h2.1v10.374H91.321Zm61.638-49.366a2.645,2.645,0,0,0-2.916.711l-29.712,33.321a2.645,2.645,0,0,0,1.974,4.406h29.712a2.645,2.645,0,0,0,2.645-2.645V97.9a2.645,2.645,0,0,0-1.7-2.472Zm-3.587,33.147H128.208l21.164-23.735Z" transform="translate(-8 -8.963)" fill="#fff"/>
</svg>
