<svg xmlns="http://www.w3.org/2000/svg" width="164.001" height="175.704" viewBox="0 0 164.001 175.704">
  <g id="Solutions_icon" transform="translate(-4 -2.004)">
    <path id="Path_68" data-name="Path 68" d="M56.858,47.571a8.786,8.786,0,1,0-8.786-8.786A8.786,8.786,0,0,0,56.858,47.571Zm0-11.714a2.929,2.929,0,1,1-2.929,2.929A2.929,2.929,0,0,1,56.858,35.857Z" transform="translate(84.996 53.992)" fill="#fff"/>
    <path id="Path_69" data-name="Path 69" d="M166.535,96.878l-4.252-2.454c.047-.553.07-1.1.07-1.649s-.023-1.1-.07-1.649l4.252-2.448a2.929,2.929,0,0,0,1.072-4L161.75,74.53a2.929,2.929,0,0,0-4-1.081l-4.261,2.46a20.357,20.357,0,0,0-2.849-1.64v-4.92a2.929,2.929,0,0,0-2.929-2.929H136a2.929,2.929,0,0,0-2.929,2.929v4.923a19.913,19.913,0,0,0-2.85,1.64l-4.261-2.46a2.929,2.929,0,0,0-4,1.075L116.1,84.672a2.929,2.929,0,0,0,1.075,4l4.255,2.454c-.05.556-.073,1.107-.073,1.649s.023,1.092.073,1.649l-4.255,2.454a2.93,2.93,0,1,0,2.929,5.075l5.951-3.435a2.929,2.929,0,0,0,1.414-3.066,14.189,14.189,0,0,1,0-5.353,2.929,2.929,0,0,0-1.414-3.066l-3.415-1.971,2.929-5.072,3.418,1.974a2.929,2.929,0,0,0,3.368-.313,14.643,14.643,0,0,1,4.624-2.665,2.929,2.929,0,0,0,1.95-2.759V72.278h5.857v3.951a2.929,2.929,0,0,0,1.95,2.759,14.549,14.549,0,0,1,4.621,2.665,2.929,2.929,0,0,0,3.371.313l3.418-1.974,2.929,5.072-3.415,1.971a2.929,2.929,0,0,0-1.417,3.066,14.03,14.03,0,0,1,0,5.353,2.929,2.929,0,0,0,1.417,3.066l3.415,1.971-2.929,5.072-3.418-1.974a2.929,2.929,0,0,0-3.371.313,14.549,14.549,0,0,1-4.621,2.665,2.929,2.929,0,0,0-1.95,2.759v3.951h-5.857v-3.951a2.929,2.929,0,1,0-5.857,0v2.852l-3.057,3.054c-.269-.12-.542-.234-.814-.343v-4.542a2.929,2.929,0,0,0-2.929-2.929H110.16a2.929,2.929,0,0,0-2.929,2.929v4.542c-.272.108-.545.223-.814.343l-3.221-3.221a2.929,2.929,0,0,0-4.141,0l-7.518,7.518a8.814,8.814,0,0,0-2.609-.4v-5.2a52.9,52.9,0,0,0,20.5-41.662,2.929,2.929,0,0,0-2.929-2.929H90.258a11.6,11.6,0,0,0,.676-10.411l5.409,1.447a2.929,2.929,0,0,0,3.587-2.068l.586-2.2a2.929,2.929,0,0,0-.372-2.343,5.857,5.857,0,1,1,7.526,2.018,2.929,2.929,0,0,0-1.5,1.851l-.586,2.2a2.929,2.929,0,0,0,2.071,3.587l19.8,5.3a2.85,2.85,0,0,0,.761.1,2.929,2.929,0,0,0,2.826-2.17,52.612,52.612,0,0,0-3.807-37.169A2.929,2.929,0,1,0,122,32.113,46.825,46.825,0,0,1,126.054,62.3l-12.769-3.423a11.582,11.582,0,0,0,3.057-5.242,11.71,11.71,0,1,0-22.6,0l-10.03-2.686L87.5,36.8a2.929,2.929,0,0,0-2.07-3.587l-2.2-.586A2.905,2.905,0,0,0,80.886,33a5.842,5.842,0,1,1-1.658-10.543A5.772,5.772,0,0,1,82.9,25.474a2.929,2.929,0,0,0,1.848,1.494l2.2.586a2.929,2.929,0,0,0,3.59-2.07L95.078,8.6a46.538,46.538,0,0,1,20.9,14.262,2.93,2.93,0,1,0,4.487-3.769A52.357,52.357,0,0,0,93.787,2.1,2.929,2.929,0,0,0,90.2,4.174l-4.22,15.682A11.714,11.714,0,1,0,80.746,39.4l-3.418,12.76a11.629,11.629,0,0,0-7.3,17.191H59.643V54.707a2.929,2.929,0,0,0-2.929-2.929H54.436a2.929,2.929,0,0,0-2.176.966,5.781,5.781,0,0,1-4.331,1.962,5.857,5.857,0,0,1,0-11.714,5.781,5.781,0,0,1,4.331,1.962,2.929,2.929,0,0,0,2.176.966h2.278a2.929,2.929,0,0,0,2.929-2.929v-20.5a2.929,2.929,0,0,0-2.929-2.929A52.685,52.685,0,0,0,22.409,32.3a2.929,2.929,0,0,0,3.807,4.443A46.872,46.872,0,0,1,53.786,25.512V38.734a11.591,11.591,0,0,0-5.857-1.6,11.714,11.714,0,1,0,0,23.428,11.591,11.591,0,0,0,5.857-1.6V69.349H39.143a2.929,2.929,0,0,0-2.929,2.929v2.278a2.929,2.929,0,0,0,.966,2.176,5.781,5.781,0,0,1,1.962,4.331,5.857,5.857,0,0,1-11.714,0,5.781,5.781,0,0,1,1.962-4.331,2.929,2.929,0,0,0,.966-2.176V72.278a2.929,2.929,0,0,0-2.929-2.929H9.948A46.488,46.488,0,0,1,18.76,44.881a2.929,2.929,0,0,0-4.747-3.432A52.319,52.319,0,0,0,4,72.278,52.9,52.9,0,0,0,24.5,113.94v5.2A8.748,8.748,0,0,0,18,133.778a8.748,8.748,0,0,0,6.5,14.643H74.286a2.929,2.929,0,1,0,0-5.857H24.5a2.929,2.929,0,0,1,0-5.857H74.286a2.929,2.929,0,0,0,0-5.857H24.5a2.929,2.929,0,0,1,0-5.857H86.908a2.87,2.87,0,0,0,.761,2.557l3.221,3.221c-.12.269-.234.542-.343.814H86a2.929,2.929,0,0,0-2.929,2.929v10.979a26.357,26.357,0,0,1-50.506,10.543,2.929,2.929,0,1,0-5.365,2.343,32.176,32.176,0,0,0,60.662-4.832h2.68c.108.272.223.545.343.814l-3.221,3.221a2.929,2.929,0,0,0,0,4.141l11.389,11.389a2.929,2.929,0,0,0,4.141,0l3.221-3.221c.269.12.542.234.814.343v4.545a2.929,2.929,0,0,0,2.929,2.929h5.128a2.929,2.929,0,0,0,0-5.857h-2.2v-3.672a2.929,2.929,0,0,0-2.05-2.794,23.774,23.774,0,0,1-3.874-1.619,2.911,2.911,0,0,0-3.426.524l-2.612,2.609-7.248-7.248,2.609-2.612a2.929,2.929,0,0,0,.524-3.426,23.772,23.772,0,0,1-1.619-3.874,2.929,2.929,0,0,0-2.794-2.05H88.928v-10.25H92.6a2.929,2.929,0,0,0,2.794-2.05,23.772,23.772,0,0,1,1.619-3.874,2.928,2.928,0,0,0-.524-3.426l-2.609-2.612,7.248-7.248,2.612,2.609a2.929,2.929,0,0,0,3.426.524,23.774,23.774,0,0,1,3.874-1.619,2.929,2.929,0,0,0,2.05-2.794v-3.667h10.25v3.672a2.929,2.929,0,0,0,2.05,2.794,23.771,23.771,0,0,1,3.874,1.619,2.929,2.929,0,0,0,3.426-.524l2.612-2.609,7.248,7.248-2.609,2.612a2.929,2.929,0,0,0-.524,3.426,23.775,23.775,0,0,1,1.62,3.874,2.929,2.929,0,0,0,2.794,2.05H147.5v10.25h-3.672a2.929,2.929,0,0,0-2.794,2.05,23.774,23.774,0,0,1-1.619,3.874,2.929,2.929,0,0,0,.524,3.426l2.609,2.612L135.3,166.9l-2.612-2.609a2.929,2.929,0,0,0-3.426-.524,23.773,23.773,0,0,1-3.874,1.62,2.929,2.929,0,0,0-2.05,2.794v6.6a2.929,2.929,0,0,0,5.857,0v-4.542c.272-.108.545-.223.814-.343l3.221,3.221a2.929,2.929,0,0,0,4.141,0l11.389-11.389a2.929,2.929,0,0,0,0-4.141l-3.221-3.221c.12-.269.234-.542.343-.814h4.548a2.929,2.929,0,0,0,2.929-2.929V134.513a2.929,2.929,0,0,0-2.929-2.929h-4.542c-.108-.272-.223-.545-.343-.814l3.221-3.221a2.929,2.929,0,0,0,0-4.141l-4.279-4.273h3.221a2.929,2.929,0,0,0,2.929-2.929v-4.923a20.359,20.359,0,0,0,2.85-1.64l4.261,2.46a2.961,2.961,0,0,0,2.223.293,2.929,2.929,0,0,0,1.778-1.365l5.857-10.145a2.929,2.929,0,0,0-1.069-4.009ZM59.643,119.135V105.822a11.591,11.591,0,0,0,5.857,1.6,11.714,11.714,0,0,0,0-23.429,11.591,11.591,0,0,0-5.857,1.6v-1.6a2.929,2.929,0,0,0-5.857,0v5.857a2.929,2.929,0,0,0,2.929,2.929h2.278a2.929,2.929,0,0,0,2.176-.966A5.781,5.781,0,0,1,65.5,89.849a5.857,5.857,0,1,1,0,11.714A5.781,5.781,0,0,1,61.168,99.6a2.929,2.929,0,0,0-2.176-.966H56.714a2.929,2.929,0,0,0-2.929,2.929v17.571H30.357v-6.657a2.929,2.929,0,0,0-1.2-2.366,47.068,47.068,0,0,1-19.2-34.906H23.17a11.591,11.591,0,0,0-1.6,5.857,11.714,11.714,0,0,0,23.429,0,11.591,11.591,0,0,0-1.6-5.857H74.286a2.929,2.929,0,0,0,2.929-2.929V70a2.929,2.929,0,0,0-.966-2.176,5.781,5.781,0,0,1-1.962-4.331,5.857,5.857,0,0,1,11.714,0,5.781,5.781,0,0,1-1.962,4.331A2.929,2.929,0,0,0,83.071,70v2.278A2.929,2.929,0,0,0,86,75.207h17.478a47.071,47.071,0,0,1-19.205,34.906,2.929,2.929,0,0,0-1.2,2.366v6.657Z" transform="translate(0 0)" fill="#fff"/>
    <path id="Path_70" data-name="Path 70" d="M54.71,49.858a11.659,11.659,0,0,1,4.255.832,2.929,2.929,0,1,0,2.141-5.45,17.677,17.677,0,1,0,9.937,9.937,2.929,2.929,0,1,0-5.45,2.141A11.7,11.7,0,1,1,54.71,49.858Z" transform="translate(63.504 80.991)" fill="#fff"/>
  </g>
</svg>
