<svg xmlns="http://www.w3.org/2000/svg" width="128" height="128.022" viewBox="0 0 128 128.022">
  <path id="technology" d="M90.324,92.2a1.778,1.778,0,0,0,1.434-1.744V83.141A1.778,1.778,0,0,0,90.324,81.4l-2.932-.578-1.45-3.5,1.664-2.482a1.778,1.778,0,0,0-.219-2.247l-5.176-5.176a1.778,1.778,0,0,0-2.247-.219l-2.482,1.664-3.5-1.45L73.4,64.477a1.778,1.778,0,0,0-1.744-1.434H64.341A1.778,1.778,0,0,0,62.6,64.477l-.578,2.932-3.5,1.45-2.482-1.664a1.778,1.778,0,0,0-2.247.219l-5.176,5.176a1.778,1.778,0,0,0-.219,2.247l1.664,2.482-1.45,3.5-2.932.578a1.778,1.778,0,0,0-1.434,1.744v7.319A1.778,1.778,0,0,0,45.676,92.2l2.932.578,1.45,3.5-1.664,2.482a1.778,1.778,0,0,0,.219,2.247l5.176,5.176a1.779,1.779,0,0,0,2.247.219l2.482-1.664,3.5,1.45.578,2.932a1.778,1.778,0,0,0,1.744,1.434H71.66a1.778,1.778,0,0,0,1.744-1.434l.578-2.932,3.5-1.45,2.482,1.664a1.778,1.778,0,0,0,2.247-.219l5.176-5.176a1.778,1.778,0,0,0,.219-2.247l-1.664-2.482,1.45-3.5,2.932-.578Zm-4.554-2.726a1.777,1.777,0,0,0-1.3,1.064L82.293,95.8a1.778,1.778,0,0,0,.166,1.67l1.381,2.059-3.109,3.109-2.059-1.381a1.776,1.776,0,0,0-1.67-.166l-5.26,2.179a1.777,1.777,0,0,0-1.064,1.3L70.2,107H65.8l-.479-2.432a1.777,1.777,0,0,0-1.064-1.3L59,101.094a1.776,1.776,0,0,0-1.67.166l-2.059,1.381L52.16,99.532l1.381-2.059a1.777,1.777,0,0,0,.166-1.67l-2.179-5.26a1.777,1.777,0,0,0-1.3-1.064L47.8,89V84.6l2.432-.479a1.777,1.777,0,0,0,1.3-1.064l2.179-5.26a1.778,1.778,0,0,0-.166-1.67L52.16,74.07l3.109-3.109,2.059,1.381a1.776,1.776,0,0,0,1.67.166l5.26-2.179a1.777,1.777,0,0,0,1.064-1.3L65.8,66.6h4.4l.479,2.432a1.777,1.777,0,0,0,1.064,1.3L77,72.508a1.778,1.778,0,0,0,1.67-.166l2.059-1.381L83.84,74.07l-1.381,2.059a1.777,1.777,0,0,0-.166,1.67l2.179,5.26a1.777,1.777,0,0,0,1.3,1.064L88.2,84.6V89ZM68,73.751A13.05,13.05,0,1,0,81.05,86.8,13.065,13.065,0,0,0,68,73.751ZM68,96.3A9.494,9.494,0,1,1,77.494,86.8,9.505,9.505,0,0,1,68,96.3Zm46.6-15.2H95.329a1.778,1.778,0,0,0,0,3.556h20a1.778,1.778,0,0,0,1.257-.521l6.03-6.03a6.341,6.341,0,1,0-2.514-2.514L114.6,81.1Zm11.066-11.333a2.781,2.781,0,1,1-2.781,2.781A2.784,2.784,0,0,1,125.663,69.767Zm-13.887,38.01V98.57A1.778,1.778,0,0,0,110,96.792H90.876a1.778,1.778,0,1,0,0,3.556h17.345v7.43a6.336,6.336,0,1,0,3.556,0ZM110,116.639a2.781,2.781,0,1,1,2.781-2.781A2.784,2.784,0,0,1,110,116.639Zm15.665-21.922a6.3,6.3,0,0,0-3.042.78l-6.031-6.03a1.778,1.778,0,0,0-1.257-.521h-20a1.778,1.778,0,1,0,0,3.556H114.6l5.51,5.51a6.335,6.335,0,1,0,5.556-3.294Zm0,9.117a2.781,2.781,0,1,1,2.781-2.781A2.784,2.784,0,0,1,125.663,103.835Zm-17.443-38.01v7.43H90.876a1.778,1.778,0,1,0,0,3.556H110a1.778,1.778,0,0,0,1.778-1.778V65.825a6.337,6.337,0,1,0-3.556,0ZM110,56.963a2.781,2.781,0,1,1-2.781,2.781A2.784,2.784,0,0,1,110,56.963ZM21.4,92.5H40.671a1.778,1.778,0,1,0,0-3.556h-20a1.777,1.777,0,0,0-1.257.521L13.379,95.5a6.341,6.341,0,1,0,2.514,2.514ZM10.337,103.835a2.781,2.781,0,1,1,2.781-2.781A2.784,2.784,0,0,1,10.337,103.835Zm17.443,3.943v-7.43H45.124a1.778,1.778,0,0,0,0-3.556H26a1.778,1.778,0,0,0-1.778,1.778v9.207a6.337,6.337,0,1,0,3.556,0ZM26,116.639a2.781,2.781,0,1,1,2.781-2.781A2.784,2.784,0,0,1,26,116.639ZM24.223,65.824v9.207A1.778,1.778,0,0,0,26,76.81H45.124a1.778,1.778,0,1,0,0-3.556H27.779v-7.43a6.337,6.337,0,1,0-3.556,0ZM26,56.962a2.781,2.781,0,1,1-2.781,2.781A2.784,2.784,0,0,1,26,56.962ZM10.336,78.884a6.3,6.3,0,0,0,3.042-.78l6.031,6.03a1.778,1.778,0,0,0,1.257.521h20a1.778,1.778,0,0,0,0-3.556H21.4l-5.51-5.51a6.335,6.335,0,1,0-5.556,3.294Zm0-9.117a2.781,2.781,0,1,1-2.781,2.781A2.784,2.784,0,0,1,10.336,69.767ZM36.124,37.93H38.29V55.883a3.251,3.251,0,0,0,3.247,3.247h7.734a3.251,3.251,0,0,0,3.247-3.247V37.93h2.166a2.966,2.966,0,0,0,2.205-4.95L47.609,22.666a2.967,2.967,0,0,0-4.411,0L33.918,32.98a2.966,2.966,0,0,0,2.205,4.95ZM45.4,25.53l7.958,8.844H50.741a1.778,1.778,0,0,0-1.778,1.778V55.576H41.845V36.152a1.778,1.778,0,0,0-1.778-1.778H37.447L45.4,25.53ZM58.719,20.2h2.166v35.68a3.251,3.251,0,0,0,3.247,3.247h7.734a3.251,3.251,0,0,0,3.247-3.247V20.2H77.28a2.966,2.966,0,0,0,2.205-4.95L70.2,4.938a2.967,2.967,0,0,0-4.41,0l-9.28,10.314a2.966,2.966,0,0,0,2.2,4.951ZM68,7.8l7.958,8.844H73.337a1.778,1.778,0,0,0-1.778,1.778v37.15H64.441V18.425a1.778,1.778,0,0,0-1.778-1.778H60.042L68,7.8ZM78.6,36.17a2.932,2.932,0,0,0,2.71,1.76h2.166V55.883a3.251,3.251,0,0,0,3.247,3.247h7.734a3.251,3.251,0,0,0,3.247-3.247V37.93h2.166a2.966,2.966,0,0,0,2.205-4.95L92.8,22.666a2.967,2.967,0,0,0-4.411,0L79.11,32.98a2.931,2.931,0,0,0-.5,3.191ZM90.6,25.53l7.958,8.844H95.933a1.778,1.778,0,0,0-1.778,1.778V55.575H87.037V36.152a1.778,1.778,0,0,0-1.778-1.778H82.638L90.6,25.53Zm.871,83.1a6.336,6.336,0,0,0-1.778,12.418v7.379H46.311v-7.379a6.337,6.337,0,1,0-3.556,0V130.2a1.778,1.778,0,0,0,1.778,1.778H91.467a1.778,1.778,0,0,0,1.778-1.778v-9.157a6.336,6.336,0,0,0-1.778-12.418Zm-49.715,6.337a2.781,2.781,0,1,1,2.781,2.781A2.784,2.784,0,0,1,41.752,114.962Zm49.715,2.781a2.781,2.781,0,1,1,2.781-2.781A2.784,2.784,0,0,1,91.467,117.743Z" transform="translate(-4 -3.956)" fill="#0055b8"/>
</svg>
