<?xml version="1.0" encoding="utf-8"?>
<!-- Generator: Adobe Illustrator 27.7.0, SVG Export Plug-In . SVG Version: 6.00 Build 0)  -->
<svg version="1.1" id="Layer_1" xmlns="http://www.w3.org/2000/svg" xmlns:xlink="http://www.w3.org/1999/xlink" x="0px" y="0px"
	 viewBox="0 0 300 64.3" style="enable-background:new 0 0 300 64.3;" xml:space="preserve">
<style type="text/css">
	.st0{fill-rule:evenodd;clip-rule:evenodd;fill:#009ADE;}
	.st1{fill-rule:evenodd;clip-rule:evenodd;fill:#93D500;}
	.st2{fill-rule:evenodd;clip-rule:evenodd;fill:#004A98;}
	.st3{fill-rule:evenodd;clip-rule:evenodd;fill:#1A1A18;}
</style>
<g>
	<g>
		<path class="st0" d="M24.3,64.3h-21c-1.8,0-3.3-1.5-3.3-3.3V3.3C0,1,1.7-0.4,4,0.1C15,2.5,26.7,10,35,20.9
			C26.4,32.2,21.4,47.2,24.3,64.3z"/>
		<path class="st1" d="M45.7,64.3h21c1.8,0,3.3-1.5,3.3-3.3V3.3c0-2.4-1.7-3.7-4-3.2C55,2.5,43.4,10,35,20.9
			C43.6,32.2,48.7,47.2,45.7,64.3z"/>
		<path class="st2" d="M24.3,64.3h21.4c2.9-17.1-2.1-32.1-10.7-43.4C26.4,32.2,21.4,47.2,24.3,64.3z"/>
	</g>
	<path class="st3" d="M229.2,46.3h-18.4V11.6h-9.6v34.7v3.1v4.8h28V46.3L229.2,46.3z M113.9,31.5l10.9-19.9h9.1l2.1,42.6h-9.7
		l-1.1-27.6l-8.7,16.3h-5.2L102,26.6l-1.1,27.6h-9.4l2.1-42.6h9.2L113.9,31.5L113.9,31.5z M155.1,23.1c9.8,0,14.8,7.2,14.8,15.7v2.9
		h-4.3h-1.8h-15.2l0,0c0,3.1,3.1,6.2,7.7,6.2c4.9,0,7.2-1.7,9.4-2.9l3.6,5.7c-4.2,3.3-9.5,4.4-13,4.4c-10.2,0-16.6-6.4-16.6-16.3
		C139.8,31.2,145.2,23.1,155.1,23.1L155.1,23.1z M161.5,35.9c0-3.1-2.9-5.7-6.4-5.7c-3.5,0-6.4,2.6-6.4,5.7H161.5L161.5,35.9z
		 M285.2,23.1c9.8,0,14.8,7.2,14.8,15.7v2.9h-4.3H294h-15.2l0,0c0,3.1,3.1,6.2,7.7,6.2c4.9,0,7.2-1.7,9.4-2.9l3.6,5.7
		c-4.2,3.3-9.5,4.4-13,4.4c-10.2,0-16.6-6.4-16.6-16.3C269.9,31.2,275.3,23.1,285.2,23.1L285.2,23.1z M291.5,35.9
		c0-3.1-2.9-5.7-6.4-5.7c-3.5,0-6.4,2.6-6.4,5.7H291.5L291.5,35.9z M177,41.5v2.2c0,5.8,2.6,11.4,11.5,11.4c3.9,0,6.8-1.5,9.3-3.4
		L194,46c-0.8,0.9-2.8,1.7-4.4,1.7c-1.9,0-3.5-1.5-3.5-4.2v-2.1V31.4h7.7v-7.3h-7.7v-7.9H177v7.9h-4.9v7.3h4.9V41.5L177,41.5z
		 M251.9,24.1H247v7.3h4.9v22.8h9.2V31.4h7v-7.3h-7v-1.6c0-3.4,2.4-4.7,4.3-4.7c1.6,0,3.4,0.7,4.3,1.6l3.8-5.8
		c-2.4-1.9-5.4-3.1-9.2-3.1c-7.5,0-12.3,5-12.3,12.1V24.1L251.9,24.1z M237.8,20.8c-2.9,0-5.2-2.3-5.2-5.2c0-2.9,2.3-5.2,5.2-5.2
		c2.9,0,5.2,2.3,5.2,5.2C243,18.4,240.6,20.8,237.8,20.8L237.8,20.8z M233.2,24.1h9.2v30.1h-9.2V24.1z"/>
</g>
</svg>
