<svg xmlns="http://www.w3.org/2000/svg" width="300.009" height="50.59" viewBox="0 0 300.009 50.59">
  <g id="Barclays_Logo_SVG" data-name="Barclays Logo_SVG" transform="translate(-0.001 -0.001)">
    <path id="Path_3106" data-name="Path 3106" d="M1116.072,87.477a10.309,10.309,0,0,0-8.825-5.116c-3.306,0-6.214,1.354-6.214,4.865,0,2.956,3.661,4.961,7.471,7.419,4.159,2.606,8.472,5.812,8.472,11.38,0,7.269-7.068,11.729-15.24,11.729a30.072,30.072,0,0,1-10.827-2.155l.65-9.676a11.661,11.661,0,0,0,10.727,6.918c4.062,0,7.068-1.954,7.068-5.364,0-2.908-2.458-4.711-5.463-6.515-6.318-3.809-10.325-6.87-10.325-12.382,0-8.274,6.916-11.03,14.084-11.03,4.158,0,6.768.753,9.423.753l-1,9.175m-35.038,8.67c-.906,1.505-2.053,3.557-2.76,5.064a55.7,55.7,0,0,0-.9,10.877c0,1.755.3,4.11,1.1,4.913H1068c1.852-1.754,2.607-12.529,2.508-15.939a82.616,82.616,0,0,0-6.218-15.19c-1.85-3.557-4.009-6.92-5.363-7.569,2.355-.2,5.363-.35,6.818-.35,2.6,0,3.309.35,4.915,3.86,2.5,5.666,4.357,9.923,5.461,13.083,2.658-4.162,4.512-7.018,6.918-10.928a6.514,6.514,0,0,0,1.1-3.309,4.012,4.012,0,0,0-.551-2.356h10.377c-2.005.451-11.03,14.639-12.933,17.845m-36.444-8.768-6.214,13.481H1048.5l-3.91-13.481m12.182,29.972c-3.311,0-3.559-.1-6.217-9.221l-.951-3.359c-1.6.751-4.463,1.1-9.023,1.1h-4.611l-.8,1.7c-1.152,2.56-2.706,5.562-2.706,7.672a6.1,6.1,0,0,0,.252,1.754h-27.371c1.555-1.754,2.057-7.418,2.808-17.7l.15-2.455c.4-5.866.706-10.377.653-13.533-.05-2.606-.3-4.262-1-5.013h10.579c-1.506,1.154-2.059,7.368-2.758,17.646l-.2,2.455c-.251,3.81-.751,7.719-.751,11.529,0,1.752.7,2.153,2.508,2.153,6.414,0,8.02-.15,10.925-2.105,1.8-3.309,3.862-7.471,5.864-11.781l2.711-5.764c2.555-5.414,5.059-10.93,5.059-11.981a5.463,5.463,0,0,0-.5-2.157h8.42s3.408,12.634,4.16,15.338l1.652,6.117c2.856,10.277,4.663,15.288,7.069,17.243-2.008.251-4.865.35-5.917.35m-68.221.4c-9.976,0-15.741-8.22-15.741-17.443,0-12.832,6.966-22.761,20.251-22.761,4.16,0,6.117.753,9.473.753l-1,9.876c-1.905-3.459-5.015-5.815-9.173-5.815-8.27,0-11.629,8.925-11.629,16.594,0,8.32,4.663,12.88,10.877,12.88,3.359,0,6.315-.9,11.28-4.36-2.005,6.418-6.668,10.277-14.336,10.277M953.965,83.016a29.712,29.712,0,0,0-3.008.1c-.3,1.654-.553,4.512-.9,9.121l-.2,2.71a9.462,9.462,0,0,0,1.757.153c4.81,0,8.12-2.911,8.12-7.319,0-3.011-2.105-4.765-5.764-4.765m13.983,35.641c-2.856,0-3.559-.453-4.51-1.757l-10.828-15.038c-.853-1.152-1.5-2.105-2.856-2.105H949.5l-.2,2.908c-.253,3.96-.4,7.121-.4,9.476.05,2.606.351,4.208,1.054,4.861H939.478c1.5-1.354,2.052-5.865,2.906-17.7l.151-2.455c.4-5.814.7-10.327.651-13.483-.052-2.758-.35-4.463-1.1-5.064h14.286c4.662,0,11.078.8,11.078,8.372,0,6.214-4.162,9.624-9.323,11.226a24.925,24.925,0,0,1,1.955,2.308l7.869,10.427c4.913,6.467,5.313,6.766,7.069,7.669-2.206.25-5.163.351-7.069.351M919.128,87.379l-6.27,13.481h10.176l-3.905-13.481m12.177,29.972c-3.306,0-3.557-.1-6.214-9.221l-.953-3.359c-1.607.751-4.463,1.1-9.025,1.1H910.5l-.8,1.7c-.8,1.807-2.758,5.517-2.708,7.672a6.327,6.327,0,0,0,.251,1.754h-9.273c2.656-2.656,6.015-8.822,10.677-18.8l2.708-5.764c2.455-5.213,5.063-11.128,5.063-11.981a5.383,5.383,0,0,0-.5-2.157h8.423s2.2,8.372,4.159,15.338l1.654,6.117c2.858,10.277,4.661,15.288,7.068,17.243-2.155.25-4.863.348-5.917.348M883.584,82.966a25.947,25.947,0,0,0-2.706.1c-.4,2.706-.653,5.313-.851,8.169,0,0-.151,2.455-.151,2.355h1c4.913,0,9.426-1.7,9.426-6.212,0-2.61-2.157-4.413-6.72-4.413M882.333,98.3h-2.756l-.4,5.714c-.2,2.508-.3,4.611-.351,7.118,0,.353,1.1,1.1,3.707,1.1,5.414,0,8.975-2.706,8.975-7.169,0-4.963-4.062-6.766-9.173-6.766m.6,18.7H869.4c1.705-1.505,2.157-7.369,2.908-17.7l.15-2.4c.4-5.865.7-10.377.653-13.533-.05-2.708-.351-4.463-1.1-5.064h15.138c3.609,0,10.828.2,10.828,7.719,0,5.013-4.663,8.12-8.923,9.226,6.016.6,10.527,3.507,10.527,9.723,0,6.716-6.317,12.031-16.642,12.031" transform="translate(-817.062 -72.881)" fill="#00aeef"/>
    <path id="Path_3107" data-name="Path 3107" d="M187.086,13101.947c-1.341,0-1.618.232-2.053.719-.179-.011-.358-.015-.537-.015a6.234,6.234,0,0,0-3.486.908,2.244,2.244,0,0,0-1.028,2.927s.39-.571,1.673-.571c.181,0,.38.02.593.038,1.773.21,3.085,1.142,2.925,3.606-.142,2.463-1.065,5.21-4.844,5.242,0,0-.487,0-1.006-.049a2.857,2.857,0,0,1-2.311-1.3,2.3,2.3,0,0,0,1.533-2.342,3.5,3.5,0,0,0-2.8-3,6.168,6.168,0,0,0-1.75-.234,7.039,7.039,0,0,0-5.6,2.734c-3.337,4.406-3.607,10.826-2.793,16.8s4.615,11.529,4.726,11.682c.081.1.153.162.235.162a.2.2,0,0,0,.131-.058,20.136,20.136,0,0,0,3.872-5.217c.716.57.342,1.783-.052,3.079a19.678,19.678,0,0,1-1.612,3.65c-.318.557-.743,1.2-.171,1.537a.426.426,0,0,0,.221.056c.735,0,2.464-1.282,4.394-3.855a29.737,29.737,0,0,0,3.256-5.465c.158.036.422.3.379,1.034a18.24,18.24,0,0,1-2.271,6.055,35.215,35.215,0,0,1-3.159,4.529c-.172.21-.026.341.085.427a37,37,0,0,0,6.605,4.636,30.1,30.1,0,0,0,6.58,2.866,29.656,29.656,0,0,0,6.575-2.852,35.578,35.578,0,0,0,6.6-4.662.261.261,0,0,0,.085-.427,35.206,35.206,0,0,1-3.145-4.52,17.921,17.921,0,0,1-2.278-6.046c-.031-.737.218-.982.369-1.043a29.61,29.61,0,0,0,3.267,5.465c1.939,2.577,3.652,3.855,4.391,3.855a.446.446,0,0,0,.229-.056c.554-.337.142-.99-.184-1.538a22.509,22.509,0,0,1-1.617-3.649c-.376-1.309-.766-2.521-.037-3.079a19.722,19.722,0,0,0,3.867,5.209.2.2,0,0,0,.142.065.3.3,0,0,0,.218-.153,30.711,30.711,0,0,0,4.736-11.69c.816-5.984.546-12.39-2.793-16.8a7.045,7.045,0,0,0-5.617-2.745,6.234,6.234,0,0,0-1.728.233c-1.662.5-2.8,1.712-2.79,3.012a2.289,2.289,0,0,0,1.528,2.342,2.843,2.843,0,0,1-2.332,1.294,7.748,7.748,0,0,1-.986.062,4.031,4.031,0,0,1-3.588-1.937c-1.032-1.445-1-4.423-1.057-5.414-.047-1.009-.263-3.269-1.322-4.19a5.891,5.891,0,0,0-3.946-1.327c-.118,0-.222,0-.321,0" transform="translate(-165.211 -13101.942)" fill="#00afe9"/>
  </g>
</svg>
