<svg id="Citibank_Logo_SVG" data-name="Citibank Logo_SVG" xmlns="http://www.w3.org/2000/svg" width="300.012" height="78.281" viewBox="0 0 300.012 78.281">
  <path id="Path_3108" data-name="Path 3108" d="M36.894,62.916l-.217.21c-3.493,3.559-7.537,5.445-11.7,5.445-8.7,0-15.009-6.524-15.009-15.526,0-8.986,6.313-15.519,15.009-15.519,4.166,0,8.21,1.894,11.7,5.463l.217.216,5.593-6.763-.15-.183c-4.651-5.5-10.232-8.172-17.093-8.172a25.943,25.943,0,0,0-17.714,6.5C2.6,39.107,0,45.489,0,53.045s2.6,13.95,7.53,18.476a25.856,25.856,0,0,0,17.714,6.5c6.861,0,12.442-2.674,17.093-8.173l.15-.171ZM48.138,77.1h9.88V28.87h-9.88ZM96.721,66.615a14.32,14.32,0,0,1-7.292,2.412c-3.192,0-4.635-1.685-4.635-5.438V38H94.857V28.914H84.794V13.906L75.11,19.089v9.825H66.756V38H75.11V65.222c0,7.418,4.394,12.485,10.952,12.616a15.572,15.572,0,0,0,8.769-2.209l.1-.071,2.379-9.3ZM104.9,77.1h9.887V28.87H104.9Zm167.47-66.585V56.527l3.078-4.791c0,.021,13.828-20.006,15.6-22.56h6.164C295.9,30.939,285.03,45.9,285.03,45.9s14.165,29.517,14.983,31.2H293.96c-.333-.689-12.5-26.449-12.5-26.449l-9.085,12.729V77.1h-5.639V13.738c.493-.283,4.312-2.472,5.639-3.22ZM226.05,34.89a14.951,14.951,0,0,1,12.8-6.746c10.632,0,16.267,6.781,16.267,19.613V77.1h-5.653V48.972c0-10.917-3.791-15.985-12-15.985-7.86,0-12.553,5.978-12.553,15.985V77.1H219.27V29.176h5.637v7.432Zm-34.66-6.746c10.941,0,16.26,5,16.26,15.3V77.1h-5.64V70.111l-1.1,1.21c-4.15,4.579-8.914,6.818-14.586,6.818-4.445,0-14.787-1.471-14.787-15.115,0-11.152,9.206-15.11,17.83-15.11a24.755,24.755,0,0,1,11.712,2.737l.928.514v-6.88c0-7.628-3.726-11.492-11.088-11.492a25.323,25.323,0,0,0-12.839,3.514c-.371-.852-1.674-3.733-2.037-4.555a33.393,33.393,0,0,1,15.343-3.607ZM177.07,62.554c0,7.164,3.712,11.113,10.456,11.113A17.41,17.41,0,0,0,201.9,66.023l.106-.169V55.347l-.313-.181c-3.6-2.052-7.286-2.88-12.7-2.88C181.533,52.285,177.07,56.123,177.07,62.554ZM133.526,10.518V36.156l1.092-1.2c4.153-4.587,8.75-6.816,14.036-6.816,10.577,0,16.648,8.816,16.648,24.192,0,15.674-6.9,25.8-17.571,25.8-5.2,0-9.367-2.018-13.107-6.344l-1.1-1.277V77.1H127.9V13.738c.479-.283,4.3-2.472,5.628-3.22Zm.134,29.814-.134.177V65.457l.1.153A16.259,16.259,0,0,0,147.2,73.3c8.329,0,12.552-7.021,12.552-20.864,0-12.367-4.678-19.451-12.834-19.451-4.944,0-9.4,2.47-13.257,7.344" transform="translate(0 0.143)" fill="#003b70"/>
  <path id="Path_3109" data-name="Path 3109" d="M120.153,20.454a48.054,48.054,0,0,0-78.676,0l-.463.659H52.4l.126-.137a38.82,38.82,0,0,1,56.569,0l.126.137h11.385Z" transform="translate(0.556)" fill="#d9261c" fill-rule="evenodd"/>
</svg>
