<?xml version="1.0" encoding="utf-8"?>
<!-- Generator: Adobe Illustrator 27.7.0, SVG Export Plug-In . SVG Version: 6.00 Build 0)  -->
<svg version="1.1" id="Layer_1" xmlns="http://www.w3.org/2000/svg" xmlns:xlink="http://www.w3.org/1999/xlink" x="0px" y="0px"
	 viewBox="0 0 153 128" style="enable-background:new 0 0 153 128;" xml:space="preserve">
<style type="text/css">
	.st0{fill:#1B3E6F;}
	.st1{fill:#31BCB0;}
</style>
<path class="st0" d="M108.5,107.3v0.5c0,5.7,0,11.4,0,17.1c0,0.2,0,0.4,0,0.6c0,0.2,0,0.3-0.1,0.5c-0.3,0.8-1,1.1-2.2,0.9
	c-0.8-0.1-1.3-0.5-1.3-1.3c0-0.2,0-0.5,0-0.7c0-8,0-15.9,0-23.9c0-0.4,0-0.8,0.1-1.1c0.2-0.6,0.7-0.8,1.3-0.5
	c0.3,0.2,0.6,0.4,0.8,0.7c5.8,5.9,11.6,11.8,17.4,17.8c0.1,0.1,0.2,0.2,0.4,0.3v-0.5c0-5.7,0-11.4,0-17.1c0-2.1,1.1-2.2,2.5-2
	c0.6,0.1,1,0.4,1.1,1c0.1,0.3,0.1,0.5,0.1,0.8c0,8.1,0,16.2,0,24.2c0,0.3,0,0.7-0.1,1c-0.2,0.6-0.7,0.8-1.3,0.5
	c-0.3-0.2-0.6-0.4-0.8-0.7c-5.8-6-11.6-11.9-17.3-17.9c-0.1-0.1-0.2-0.3-0.3-0.4C108.6,107.3,108.5,107.3,108.5,107.3"/>
<path class="st0" d="M152.9,125.3c0-0.3-0.1-0.6-0.3-0.8c-0.1-0.2-0.3-0.3-0.5-0.5c-3.7-3.7-7.4-7.4-11.1-11.1
	c-0.2-0.2-0.3-0.3-0.1-0.5c2.4-2.5,4.9-5,7.3-7.5c0.1-0.1,0.2-0.2,0.3-0.3c1-1,1.9-2,2.9-2.9c0.2-0.2,0.4-0.4,0.6-0.7
	c0.3-0.6,0.3-1.1-0.2-1.7c-0.7-0.8-1.3-1.1-2-0.8c-0.3,0.1-0.6,0.4-0.9,0.7c-1,1-1.9,2-2.9,3c-0.1,0.1-0.2,0.2-0.3,0.3
	c-1.2,1.2-2.4,2.4-3.5,3.7c-2.1,2.2-4.2,4.4-6.4,6.6c0-4,0-8,0-12.1c0-0.2,0-0.4,0-0.6c-0.1-0.7-0.4-1.1-1-1.3c-0.5-0.1-1-0.1-1.5,0
	c-0.7,0.2-1,0.7-1,1.8c0,8.2,0,16.4,0,24.6c0,0.3,0,0.5,0.1,0.8c0.2,0.7,0.6,1.1,1.4,1.1c1.1,0.1,1.8-0.2,2-0.9
	c0.1-0.2,0.1-0.4,0.1-0.6c0-0.2,0-0.4,0-0.5c0-2.4,0-4.8,0-7.3c0.7-0.7,1.4-1.4,2-2.1c0.2-0.2,0.3-0.3,0.5-0.5
	c3.8,3.8,7.5,7.7,11.3,11.5c0.2,0.2,0.3,0.3,0.5,0.5c0.3,0.2,0.5,0.3,0.9,0.3C151.8,127.4,153,126.2,152.9,125.3"/>
<path class="st0" d="M71.8,119.2c-0.2,2.6-1.8,4-4.4,4.1c-2.1,0.1-4.1,0-6.2,0c-0.3,0-0.3-0.1-0.3-0.3c0-1.5,0-3,0-4.5
	c0-1.5,0-3,0-4.5c0-0.3,0.1-0.4,0.4-0.4c1.8,0,3.6,0,5.4,0c0.6,0,1.1,0.1,1.7,0.3C70.9,114.7,72,116.7,71.8,119.2 M60.9,106.1
	c0-1.2,0-2.4,0-3.6c0-0.2-0.1-0.4,0.2-0.4c1.9,0.1,3.9-0.1,5.8,0.2c0.3,0,0.5,0.1,0.7,0.2c2,0.6,2.8,2.1,2.4,4.1
	c-0.2,1.1-0.7,2.1-1.7,2.8c-0.8,0.6-1.7,0.7-2.7,0.8c-1.5,0.1-3,0-4.5,0c-0.3,0-0.3-0.1-0.3-0.3C60.9,108.6,60.9,107.3,60.9,106.1
	 M71.5,112.2c-0.4-0.2-0.8-0.4-1.2-0.6c0.8-0.3,1.5-0.8,2-1.4c1.5-1.7,1.8-3.6,1.5-5.7c-0.5-3.1-3-5.4-6.1-5.7c-3-0.3-6-0.1-9-0.1
	c-0.7,0-1.1,0.5-1.3,1.1c-0.1,0.3-0.1,0.5-0.1,0.8c0,8.1,0,16.3,0,24.4c0,0.1,0,0.3,0,0.4c0,1,0.6,1.6,1.6,1.6c2.9,0,5.7,0,8.6,0
	c1.5,0,3-0.4,4.3-1.2c2.1-1.4,3.3-3.4,3.6-6C75.8,116.4,74.6,113.7,71.5,112.2"/>
<path class="st0" d="M92.9,115c-2.4,0-4.7,0-7.1,0c1.2-2.8,2.5-5.6,3.7-8.5c1.2,2.8,2.4,5.5,3.6,8.2C93.2,114.9,93.2,115,92.9,115
	 M101.4,124.6c-3.6-8.1-7.1-16.2-10.7-24.3c-0.1-0.3-0.3-0.6-0.5-0.9c-0.4-0.4-0.8-0.4-1.2,0c-0.3,0.3-0.4,0.6-0.6,0.9
	c-2.8,6.4-5.5,12.8-8.3,19.1c-0.8,1.8-1.5,3.5-2.3,5.3c-0.4,0.9-0.1,1.6,0.8,2c0.2,0.1,0.4,0.2,0.6,0.2c0.7,0.2,1.3,0,1.7-0.7
	c0.1-0.2,0.2-0.4,0.3-0.6c1-2.3,2-4.5,3-6.8c0.1-0.3,0.3-0.4,0.6-0.4c3.3,0,6.5,0,9.8,0c0.3,0,0.5,0.1,0.6,0.4
	c0.5,1.3,1.1,2.5,1.6,3.8c0.5,1.2,1,2.3,1.5,3.5c0.3,0.7,0.9,1,1.5,0.9c0.9-0.1,1.7-0.7,1.9-1.4c0-0.1,0-0.2,0-0.3
	C101.6,125.2,101.5,124.9,101.4,124.6"/>
<path class="st0" d="M18.8,101.1c0-0.3,0-0.7-0.1-1c-0.4-1.3-1.7-2.2-3.1-2.2H3.2c-1.7,0-3,1.2-3.2,2.9c0,0.1,0,0.2,0,0.3v23.5
	c0,0.1,0,0.2,0,0.4c0.2,1.6,1.6,2.8,3.2,2.8h12.4c1.8,0,3.2-1.4,3.2-3.2c0-1.8-1.4-3.2-3.2-3.2H6.4c0-1.9,0-3.7,0-5.4h9.2
	c1.8,0,3.2-1.4,3.2-3.2c0-1.8-1.4-3.2-3.2-3.2H6.4c0-1.7,0-3.4,0-5.2h9.2C17.4,104.3,18.8,102.9,18.8,101.1"/>
<path class="st0" d="M50.2,112.9c-0.1-1.5-1.1-2.5-2.7-2.5c-3.5,0-7.1,0-10.3,0c-0.1,0-0.2,0-0.3,0l-1,0h0c-1.8,0-3.2,1.4-3.2,3.2
	c0,1.2,0.6,2.3,1.7,2.8c0.1,0.1,0.2,0.1,0.3,0.2c0.1,0.1,0.3,0.1,0.4,0.1c0.3,0.1,0.6,0.1,0.9,0.1h0c2.7,0,5.1,0,7.3,0
	c-0.3,0.9-0.7,1.6-1.3,2.3c-2,2.2-4.7,3-7.8,2.4c-3.3-0.6-5.6-2.6-6.8-5.9c-1.5-4,0.5-8.9,4.4-10.8c3-1.4,5.9-1.3,9.1,0.4
	c1,0.5,1.8,1.3,2.6,2.1c0.1,0.1,0.3,0.3,0.4,0.4c0.6,0.5,1.3,0.8,2.1,0.8c1.8,0,3.2-1.4,3.2-3.2c0-0.8-0.3-1.6-0.8-2.1
	c-0.1-0.1-0.2-0.3-0.4-0.4c-3.3-3.5-7.4-5.2-12.1-5.2c0,0,0,0,0,0c-4.9,0-9,1.9-12,5.7c-2.3,2.9-3.5,6.6-3.3,10.4
	c0.2,3.7,1.8,7.3,4.4,10c2.2,2.2,4.9,3.7,7.9,4.3c1,0.2,2,0.3,3,0.3c2,0,4.1-0.4,6-1.2C47.8,124.2,50.3,118,50.2,112.9"/>
<path class="st1" d="M111.9,0.1c-9.2,0-17.8,3.1-24.6,8.2c-0.3,0.2-0.5,0.4-0.8,0.6c-1.1,1-1.9,2.5-1.9,4.2c0,3.1,2.5,5.7,5.7,5.7
	c1,0,2-0.3,2.8-0.7c0.5-0.3,0.9-0.6,1.3-1c1.8-1.3,3.8-2.4,5.9-3.3c3.7-1.5,7.6-2.3,11.6-2.3c4,0,7.9,0.8,11.6,2.3
	c3.5,1.5,6.7,3.6,9.5,6.4s4.9,5.9,6.4,9.5c1.5,3.7,2.3,7.6,2.3,11.6s-0.8,7.9-2.3,11.6c-1.5,3.5-3.6,6.7-6.4,9.5
	c-2.7,2.7-5.9,4.9-9.5,6.4c-3.7,1.5-7.6,2.3-11.6,2.3c-4,0-7.9-0.8-11.6-2.3c-3.5-1.5-6.7-3.6-9.5-6.4c-2.7-2.7-4.9-5.9-6.4-9.5
	c-0.5-1.2-0.9-2.4-1.3-3.6h24.2c3.4,0,6.1-2.7,6.1-6.1s-2.7-6.1-6.1-6.1H81.9c-0.6-6-2.5-11.6-5.4-16.5C69.3,8.2,56.2,0.1,41.1,0.1
	c-22.7,0-41,18.4-41,41c0,22.7,18.4,41,41,41c9.2,0,17.7-3,24.5-8.1c0.5-0.3,0.9-0.6,1.3-1c1-1,1.6-2.4,1.6-3.9
	c0-3.1-2.5-5.7-5.7-5.7c-1.1,0-2.2,0.3-3,0.9c-0.3,0.2-0.6,0.4-0.9,0.7c-1.9,1.4-4,2.6-6.2,3.6c-3.7,1.5-7.6,2.3-11.6,2.3
	s-7.9-0.8-11.6-2.3C26,67,22.8,64.9,20,62.2c-2.7-2.7-4.9-5.9-6.4-9.5c-1.5-3.7-2.3-7.6-2.3-11.6s0.8-7.9,2.3-11.6
	c1.5-3.5,3.6-6.7,6.4-9.5s5.9-4.9,9.5-6.4c3.7-1.5,7.6-2.3,11.6-2.3s7.9,0.8,11.6,2.3c3.5,1.5,6.7,3.6,9.5,6.4s4.9,5.9,6.4,9.5
	c1,2.3,1.7,4.8,2,7.3H45.4c-3.4,0-6.1,2.7-6.1,6.1s2.7,6.1,6.1,6.1h26.2c0.9,4.6,2.6,8.9,4.9,12.8c7.1,12.1,20.3,20.3,35.4,20.3
	c22.7,0,41-18.4,41-41C152.9,18.5,134.5,0.1,111.9,0.1"/>
</svg>
