<?xml version="1.0" encoding="utf-8"?>
<!-- Generator: Adobe Illustrator 27.7.0, SVG Export Plug-In . SVG Version: 6.00 Build 0)  -->
<svg version="1.1" id="Layer_1" xmlns="http://www.w3.org/2000/svg" xmlns:xlink="http://www.w3.org/1999/xlink" x="0px" y="0px"
	 viewBox="0 0 300 43.2" style="enable-background:new 0 0 300 43.2;" xml:space="preserve">
<style type="text/css">
	.st0{fill:#1B3E6F;}
	.st1{fill:#31BCB0;}
</style>
<path class="st0" d="M237.3,13.9v0.7c0,8,0,16.1,0,24.1c0,0.3,0,0.6,0,0.8c0,0.2-0.1,0.5-0.1,0.7c-0.4,1.1-1.4,1.5-3.1,1.3
	c-1.1-0.1-1.8-0.8-1.9-1.8c0-0.3-0.1-0.7-0.1-1c0-11.2,0-22.5,0-33.7c0-0.5,0-1.1,0.2-1.6c0.3-0.8,1-1.1,1.8-0.7
	c0.5,0.2,0.8,0.6,1.2,1c8.2,8.3,16.3,16.7,24.5,25c0.2,0.2,0.3,0.3,0.6,0.5v-0.7c0-8,0-16,0-24c0-2.9,1.5-3.1,3.5-2.8
	c0.8,0.1,1.4,0.6,1.6,1.5c0.1,0.4,0.1,0.8,0.1,1.1c0,11.4,0,22.8,0,34.2c0,0.5,0,0.9-0.2,1.4c-0.3,0.9-1,1.1-1.8,0.8
	c-0.5-0.2-0.8-0.6-1.2-1c-8.1-8.4-16.3-16.8-24.4-25.3c-0.2-0.2-0.3-0.4-0.4-0.5C237.4,13.8,237.3,13.8,237.3,13.9"/>
<path class="st0" d="M300,39.2c0-0.4-0.2-0.8-0.5-1.2c-0.2-0.3-0.4-0.5-0.6-0.7c-5.2-5.2-10.4-10.4-15.6-15.6
	c-0.3-0.3-0.4-0.5-0.2-0.7c3.4-3.5,6.8-7,10.3-10.5c0.2-0.2,0.3-0.3,0.4-0.5c1.3-1.4,2.7-2.8,4-4.1c0.3-0.3,0.6-0.6,0.8-0.9
	c0.5-0.8,0.4-1.6-0.3-2.5c-1-1.2-1.9-1.5-2.8-1.2c-0.5,0.2-0.9,0.6-1.2,0.9c-1.3,1.4-2.7,2.8-4,4.2c-0.2,0.1-0.3,0.3-0.4,0.4
	c-1.7,1.7-3.3,3.4-5,5.2c-3,3.1-6,6.2-9,9.3c0-5.7,0-11.3,0-17c0-0.3,0-0.6,0-0.9c-0.1-0.9-0.6-1.6-1.5-1.8c-0.7-0.2-1.4-0.2-2.1,0
	c-1,0.3-1.5,1-1.5,2.5c0,11.6,0,23.1,0,34.7c0,0.4,0,0.7,0.1,1.1c0.2,1,0.9,1.5,2,1.6c1.6,0.1,2.5-0.3,2.9-1.2
	c0.1-0.3,0.1-0.5,0.2-0.8c0-0.3,0-0.5,0-0.8c0-3.4,0-6.8,0-10.2c1-1,1.9-2,2.9-2.9c0.2-0.2,0.5-0.5,0.7-0.7
	c5.3,5.4,10.6,10.8,15.9,16.2c0.2,0.2,0.5,0.5,0.7,0.6c0.4,0.3,0.8,0.5,1.2,0.5C298.4,42.2,300.1,40.5,300,39.2"/>
<path class="st0" d="M185.6,30.6c-0.3,3.6-2.5,5.6-6.2,5.8c-2.9,0.1-5.8,0-8.7,0.1c-0.4,0-0.4-0.2-0.4-0.5c0-2.1,0-4.2,0-6.3
	c0-2.1,0-4.2,0-6.3c0-0.4,0.1-0.5,0.5-0.5c2.5,0,5.1,0,7.6,0.1c0.8,0,1.6,0.1,2.4,0.4C184.4,24.3,185.9,27.2,185.6,30.6 M170.3,12.2
	c0-1.7,0-3.4,0-5.1c0-0.2-0.1-0.5,0.3-0.5c2.7,0.1,5.5-0.2,8.2,0.2c0.4,0.1,0.7,0.1,1.1,0.2c2.8,0.9,4,2.9,3.4,5.7
	c-0.3,1.6-1,2.9-2.3,3.9c-1.1,0.9-2.5,1-3.8,1.1c-2.1,0.1-4.3,0-6.4,0c-0.4,0-0.5-0.1-0.4-0.5C170.3,15.6,170.3,13.9,170.3,12.2
	 M185.2,20.7c-0.5-0.3-1.1-0.5-1.7-0.8c1.1-0.5,2.1-1.1,2.9-2c2.1-2.3,2.6-5.1,2.1-8.1c-0.7-4.3-4.2-7.6-8.6-8.1
	c-4.2-0.4-8.5-0.2-12.7-0.2c-1,0-1.6,0.6-1.8,1.6c-0.1,0.4-0.1,0.8-0.1,1.1c0,11.5,0,22.9,0,34.4c0,0.2,0,0.4,0,0.6
	c0.1,1.5,0.8,2.2,2.3,2.2c4,0,8.1,0,12.1,0c2.2,0,4.3-0.5,6.1-1.7c3-2,4.6-4.8,5-8.4C191.2,26.7,189.6,22.9,185.2,20.7"/>
<path class="st0" d="M215.4,24.7c-3.3,0-6.7,0-10.1,0c1.7-4,3.5-7.9,5.2-12c1.7,3.9,3.4,7.7,5.1,11.5
	C215.7,24.5,215.8,24.7,215.4,24.7 M227.3,38.2c-5-11.4-10-22.8-15-34.2c-0.2-0.4-0.4-0.9-0.8-1.2c-0.6-0.5-1.2-0.5-1.8,0
	c-0.4,0.4-0.6,0.8-0.8,1.3c-3.9,9-7.8,18-11.7,27c-1.1,2.5-2.2,5-3.2,7.5c-0.6,1.3-0.2,2.3,1.1,2.9c0.3,0.1,0.5,0.2,0.8,0.3
	c1,0.3,1.9,0,2.4-0.9c0.1-0.3,0.3-0.5,0.4-0.8c1.4-3.2,2.8-6.4,4.2-9.6c0.2-0.4,0.4-0.5,0.8-0.5c4.6,0,9.2,0,13.8,0
	c0.5,0,0.7,0.2,0.8,0.6c0.8,1.8,1.5,3.6,2.3,5.4c0.7,1.6,1.4,3.3,2.1,4.9c0.4,0.9,1.2,1.3,2.1,1.2c1.3-0.2,2.5-1,2.6-1.9
	c0-0.1,0-0.3,0-0.4C227.6,39.1,227.5,38.6,227.3,38.2"/>
<path class="st0" d="M110.9,5.1c0-0.5-0.1-0.9-0.2-1.4c-0.6-1.9-2.3-3.2-4.3-3.2H88.9c-2.3,0-4.3,1.8-4.5,4.1c0,0.1,0,0.3,0,0.4
	v33.1c0,0.2,0,0.4,0,0.5c0.3,2.3,2.2,4,4.5,4h17.5c2.5,0,4.5-2,4.5-4.5c0-2.5-2-4.5-4.5-4.5H93.5c0-2.7,0-5.2,0-7.7h12.9
	c2.5,0,4.5-2,4.5-4.5c0-2.5-2-4.5-4.5-4.5H93.5c0-2.4,0-4.9,0-7.3h12.9C108.9,9.6,110.9,7.6,110.9,5.1"/>
<path class="st0" d="M155.1,21.8c-0.1-2.1-1.6-3.5-3.9-3.5c-5,0-10.1,0-14.6,0c-0.1,0-0.3,0-0.4,0l-1.4-0.1h0c-2.5,0-4.5,2-4.5,4.5
	c0,1.7,0.9,3.2,2.4,4c0.1,0.1,0.3,0.2,0.4,0.2c0.2,0.1,0.4,0.1,0.6,0.2c0.4,0.1,0.9,0.2,1.3,0.1h0.1c3.7,0,7.1,0,10.3,0
	c-0.4,1.2-1,2.3-1.8,3.2c-2.9,3-6.6,4.2-11,3.4c-4.7-0.8-7.9-3.6-9.6-8.3c-2.1-5.7,0.7-12.5,6.2-15.2c4.2-2,8.4-1.8,12.8,0.6
	c1.4,0.8,2.6,1.9,3.6,2.9c0.2,0.2,0.4,0.4,0.6,0.5c0.8,0.7,1.9,1.2,3,1.2c2.5,0,4.5-2,4.5-4.5c0-1.1-0.4-2.2-1.2-3
	c-0.2-0.2-0.3-0.4-0.5-0.6C147.2,2.5,141.5,0,134.8,0c0,0,0,0-0.1,0c-7,0-12.6,2.7-16.9,8c-3.3,4.1-4.9,9.3-4.6,14.6
	c0.3,5.3,2.5,10.3,6.2,14c3,3.1,6.9,5.2,11.1,6c1.4,0.3,2.8,0.4,4.2,0.4c2.9,0,5.7-0.6,8.4-1.7C151.8,37.7,155.3,28.9,155.1,21.8"/>
<path class="st1" d="M51.1,2.3C46.8,2.3,43,3.7,39.8,6c-0.1,0.1-0.2,0.2-0.3,0.3c-0.5,0.5-0.8,1.2-0.8,1.9c0,1.4,1.2,2.6,2.6,2.6
	c0.5,0,0.9-0.1,1.3-0.3c0.2-0.1,0.4-0.3,0.6-0.5c0.8-0.6,1.7-1.1,2.7-1.5c1.7-0.7,3.4-1.1,5.3-1.1c1.8,0,3.6,0.4,5.3,1.1
	c1.6,0.7,3.1,1.7,4.3,2.9s2.2,2.7,2.9,4.3c0.7,1.7,1.1,3.5,1.1,5.3c0,1.8-0.4,3.6-1.1,5.3c-0.7,1.6-1.7,3.1-2.9,4.3
	c-1.2,1.2-2.7,2.2-4.3,2.9c-1.7,0.7-3.5,1.1-5.3,1.1c-1.8,0-3.6-0.4-5.3-1.1c-1.6-0.7-3.1-1.7-4.3-2.9c-1.2-1.2-2.2-2.7-2.9-4.3
	c-0.2-0.5-0.4-1.1-0.6-1.7h11c1.5,0,2.8-1.3,2.8-2.8c0-1.5-1.3-2.8-2.8-2.8H37.4c-0.3-2.7-1.2-5.3-2.5-7.5C31.6,6,25.6,2.3,18.7,2.3
	C8.4,2.3,0,10.7,0,21c0,10.3,8.4,18.7,18.7,18.7c4.2,0,8.1-1.4,11.2-3.7c0.2-0.1,0.4-0.3,0.6-0.5c0.4-0.5,0.7-1.1,0.7-1.8
	c0-1.4-1.2-2.6-2.6-2.6c-0.5,0-1,0.1-1.4,0.4c-0.1,0.1-0.3,0.2-0.4,0.3C26,32.6,25,33.1,24,33.5c-1.7,0.7-3.4,1.1-5.3,1.1
	c-1.8,0-3.6-0.4-5.3-1.1c-1.6-0.7-3.1-1.7-4.3-2.9c-1.2-1.2-2.2-2.7-2.9-4.3c-0.7-1.7-1.1-3.4-1.1-5.3c0-1.8,0.4-3.6,1.1-5.3
	c0.7-1.6,1.7-3.1,2.9-4.3s2.7-2.2,4.3-2.9c1.7-0.7,3.4-1.1,5.3-1.1c1.8,0,3.6,0.4,5.3,1.1c1.6,0.7,3.1,1.7,4.3,2.9s2.2,2.7,2.9,4.3
	c0.5,1.1,0.8,2.2,0.9,3.3H20.7c-1.5,0-2.8,1.3-2.8,2.8c0,1.5,1.3,2.8,2.8,2.8h12c0.4,2.1,1.2,4.1,2.2,5.9c3.3,5.5,9.3,9.2,16.2,9.2
	c10.4,0,18.7-8.4,18.7-18.7C69.8,10.7,61.4,2.3,51.1,2.3"/>
</svg>
