<?xml version="1.0" encoding="utf-8"?>
<!-- Generator: Adobe Illustrator 27.7.0, SVG Export Plug-In . SVG Version: 6.00 Build 0)  -->
<svg version="1.1" id="Layer_1" xmlns="http://www.w3.org/2000/svg" xmlns:xlink="http://www.w3.org/1999/xlink" x="0px" y="0px"
	 viewBox="0 0 300 66" style="enable-background:new 0 0 300 66;" xml:space="preserve">
<style type="text/css">
	.st0{fill-rule:evenodd;clip-rule:evenodd;fill:#00456A;}
	.st1{fill-rule:evenodd;clip-rule:evenodd;fill:#8AC53B;}
	.st2{fill-rule:evenodd;clip-rule:evenodd;fill:#9CD33F;}
	.st3{fill-rule:evenodd;clip-rule:evenodd;fill:url(#SVGID_1_);}
	.st4{fill-rule:evenodd;clip-rule:evenodd;fill:#00AEEF;}
	.st5{fill-rule:evenodd;clip-rule:evenodd;fill:url(#SVGID_00000075124022746002391210000001713937180362283948_);}
</style>
<path class="st0" d="M68.5,33.9c0-0.5,0.1-0.9,0.4-1.1c0.2-0.2,0.6-0.4,1.1-0.4c0.5,0,0.9,0.1,1.1,0.4c0.2,0.2,0.4,0.6,0.4,1.1V41
	c0,1,0.2,1.8,0.7,2.3c0.4,0.5,1.1,0.7,2.1,0.7c1,0,1.7-0.2,2.1-0.7c0.4-0.5,0.7-1.2,0.7-2.3v-7.1c0-0.5,0.1-0.9,0.4-1.1
	c0.2-0.2,0.6-0.4,1.1-0.4c0.5,0,0.9,0.1,1.1,0.4c0.2,0.2,0.4,0.6,0.4,1.1v7.4c0,1.6-0.5,2.9-1.5,3.8s-2.4,1.3-4.2,1.3
	c-1.9,0-3.3-0.4-4.3-1.3c-1-0.9-1.5-2.1-1.5-3.8L68.5,33.9L68.5,33.9z M287.7,33.9c0-0.5,0.1-0.9,0.4-1.1c0.2-0.2,0.6-0.4,1.1-0.4
	s0.9,0.1,1.1,0.4c0.2,0.2,0.4,0.6,0.4,1.1v4.2l5.4-5.3c0.1-0.1,0.3-0.2,0.5-0.3c0.2-0.1,0.4-0.1,0.5-0.1c0.4,0,0.7,0.1,1,0.3
	c0.3,0.2,0.4,0.5,0.4,0.8c0,0.2,0,0.3-0.1,0.4c-0.1,0.1-0.1,0.2-0.2,0.3l-3.9,3.7l4.4,5.7l0,0c0.4,0.5,0.5,0.9,0.5,1.2
	c0,0.4-0.1,0.7-0.4,0.9c-0.2,0.2-0.6,0.4-1,0.4c-0.3,0-0.5-0.1-0.8-0.2c-0.2-0.1-0.4-0.3-0.6-0.5l-4.2-5.6l-1.5,1.4v3.4
	c0,0.5-0.1,0.9-0.4,1.1c-0.2,0.2-0.6,0.4-1.1,0.4c-0.5,0-0.9-0.1-1.1-0.4c-0.2-0.2-0.4-0.6-0.4-1.1L287.7,33.9L287.7,33.9z
	 M275.9,44.5c0,0.6-0.1,1-0.4,1.2c-0.2,0.3-0.6,0.4-1.1,0.4c-0.5,0-0.9-0.1-1.1-0.4c-0.2-0.3-0.3-0.7-0.3-1.2v-10
	c0-0.8,0.1-1.4,0.4-1.7c0.3-0.3,0.7-0.4,1.4-0.4c0.8,0,1.5,0.6,2.3,1.8c0.1,0.1,0.1,0.2,0.2,0.2l4.6,7.3V34c0-0.6,0.1-1,0.4-1.2
	c0.2-0.3,0.6-0.4,1.1-0.4c0.5,0,0.9,0.1,1.1,0.4c0.2,0.3,0.3,0.7,0.3,1.2v10.1c0,0.8-0.1,1.3-0.3,1.6c-0.2,0.3-0.7,0.5-1.2,0.5
	c-0.5,0-0.9-0.1-1.2-0.3c-0.3-0.2-0.7-0.6-1.1-1.2l-5-7.9L275.9,44.5L275.9,44.5z M264.7,35.3l-2,5.7h4L264.7,35.3z M261.3,45.2
	c-0.1,0.3-0.3,0.6-0.5,0.8c-0.2,0.2-0.5,0.2-0.9,0.2c-0.4,0-0.8-0.1-1-0.3c-0.3-0.2-0.4-0.5-0.4-0.9c0-0.1,0-0.2,0-0.4
	c0-0.1,0.1-0.2,0.1-0.4l3.9-10.4c0.2-0.6,0.5-1,0.8-1.2c0.3-0.2,0.7-0.3,1.4-0.3c0.6,0,1.1,0.1,1.4,0.2c0.3,0.2,0.5,0.5,0.8,1.1
	l4,10.5c0.1,0.1,0.1,0.2,0.1,0.4c0,0.1,0,0.2,0,0.4c0,0.4-0.1,0.7-0.4,0.9c-0.3,0.2-0.6,0.3-1,0.3c-0.4,0-0.7-0.1-0.9-0.2
	c-0.2-0.2-0.4-0.4-0.5-0.8l-0.7-1.9H262L261.3,45.2z M248.3,40.1v3.5h3.5c0.8,0,1.4-0.1,1.8-0.4c0.4-0.3,0.6-0.7,0.6-1.3
	c0-0.6-0.2-1.1-0.6-1.4c-0.4-0.3-1-0.4-1.8-0.4L248.3,40.1L248.3,40.1z M248.3,34.9v2.9h3.4c0.7,0,1.2-0.1,1.6-0.4
	c0.3-0.2,0.5-0.6,0.5-1.1c0-0.5-0.2-0.8-0.5-1.1c-0.3-0.2-0.9-0.3-1.6-0.3H248.3z M247.2,46c-0.7,0-1.1-0.2-1.4-0.4
	s-0.4-0.8-0.4-1.7v-9.2c0-0.8,0.1-1.4,0.4-1.7c0.3-0.3,0.7-0.4,1.4-0.4h4.9c1.5,0,2.6,0.3,3.3,0.9c0.8,0.6,1.1,1.4,1.1,2.5
	c0,0.7-0.1,1.2-0.4,1.7c-0.3,0.5-0.7,0.8-1.3,1.1c0.7,0.3,1.3,0.7,1.6,1.2c0.4,0.5,0.6,1.2,0.6,2c0,1.3-0.5,2.3-1.4,3
	c-0.9,0.7-2.2,1.1-3.9,1.1L247.2,46L247.2,46z M230.1,46c-0.7,0-1.1-0.2-1.4-0.4c-0.3-0.3-0.4-0.8-0.4-1.7v-10
	c0-0.5,0.1-0.8,0.4-1.1c0.2-0.3,0.6-0.4,1.1-0.4c0.5,0,0.9,0.1,1.1,0.4c0.2,0.2,0.4,0.6,0.4,1.1v9.7h5.4c0.6,0,1,0.1,1.3,0.3
	c0.3,0.2,0.5,0.5,0.5,0.9c0,0.4-0.1,0.8-0.4,1c-0.3,0.2-0.7,0.3-1.3,0.3L230.1,46L230.1,46z M220,35.3l-2,5.7h4L220,35.3z
	 M216.6,45.2c-0.1,0.3-0.3,0.6-0.5,0.8c-0.2,0.2-0.5,0.2-0.9,0.2c-0.4,0-0.8-0.1-1-0.3c-0.3-0.2-0.4-0.5-0.4-0.9c0-0.1,0-0.2,0-0.4
	c0-0.1,0.1-0.2,0.1-0.4l3.9-10.4c0.2-0.6,0.5-1,0.8-1.2c0.3-0.2,0.7-0.3,1.4-0.3c0.6,0,1.1,0.1,1.4,0.2c0.3,0.2,0.5,0.5,0.8,1.1
	l4,10.5c0.1,0.1,0.1,0.2,0.1,0.4c0,0.1,0,0.2,0,0.4c0,0.4-0.1,0.7-0.4,0.9c-0.3,0.2-0.6,0.3-1,0.3c-0.4,0-0.7-0.1-0.9-0.2
	c-0.2-0.2-0.4-0.4-0.5-0.8l-0.7-1.9h-5.5L216.6,45.2z M202.9,44.5c0,0.6-0.1,1-0.4,1.2s-0.6,0.4-1.1,0.4c-0.5,0-0.9-0.1-1.1-0.4
	c-0.2-0.3-0.3-0.7-0.3-1.2v-10c0-0.8,0.1-1.4,0.4-1.7c0.3-0.3,0.7-0.4,1.4-0.4c0.8,0,1.5,0.6,2.3,1.8c0.1,0.1,0.1,0.2,0.2,0.2
	l4.6,7.3V34c0-0.6,0.1-1,0.3-1.2c0.2-0.3,0.6-0.4,1.1-0.4s0.9,0.1,1.1,0.4c0.2,0.3,0.3,0.7,0.3,1.2v10.1c0,0.8-0.1,1.3-0.3,1.6
	c-0.2,0.3-0.7,0.5-1.2,0.5c-0.5,0-0.9-0.1-1.2-0.3c-0.3-0.2-0.7-0.6-1.1-1.2l-5-7.9L202.9,44.5L202.9,44.5z M190.7,34.6
	c-1.2,0-2.2,0.4-2.9,1.2c-0.7,0.8-1.1,2-1.1,3.4c0,1.5,0.3,2.6,1.1,3.4c0.7,0.8,1.7,1.2,2.9,1.2c1.3,0,2.2-0.4,3-1.2
	c0.7-0.8,1.1-2,1.1-3.4c0-1.5-0.3-2.6-1.1-3.4C193,35,192,34.6,190.7,34.6L190.7,34.6z M190.7,32.2c2.1,0,3.8,0.6,5.1,1.9
	c1.3,1.3,1.9,3,1.9,5.2c0,2.2-0.6,3.9-1.9,5.2c-1.3,1.3-3,1.9-5.1,1.9c-2.1,0-3.8-0.6-5.1-1.9s-1.9-3-1.9-5.2c0-2.2,0.6-3.9,1.9-5.2
	C186.9,32.9,188.6,32.2,190.7,32.2L190.7,32.2z M178.4,33.9c0-0.5,0.1-0.9,0.4-1.1c0.2-0.2,0.6-0.4,1.1-0.4c0.5,0,0.9,0.1,1.1,0.4
	c0.2,0.2,0.4,0.6,0.4,1.1v10.8c0,0.5-0.1,0.9-0.4,1.1c-0.2,0.2-0.6,0.4-1.1,0.4c-0.5,0-0.8-0.1-1.1-0.4c-0.2-0.2-0.4-0.6-0.4-1.1
	L178.4,33.9L178.4,33.9z M166.3,35c-0.5,0-0.8-0.1-1.1-0.3c-0.2-0.2-0.3-0.5-0.3-0.9s0.1-0.7,0.4-0.9c0.2-0.2,0.6-0.3,1.1-0.3h8.9
	c0.5,0,0.8,0.1,1.1,0.3c0.2,0.2,0.4,0.5,0.4,0.9c0,0.4-0.1,0.7-0.4,0.9c-0.2,0.2-0.6,0.3-1.1,0.3h-3v9.7c0,0.5-0.1,0.9-0.4,1.1
	c-0.2,0.2-0.6,0.4-1.1,0.4c-0.5,0-0.9-0.1-1.1-0.4c-0.2-0.2-0.4-0.6-0.4-1.1V35H166.3z M159.6,35.3l-2,5.7h4L159.6,35.3z
	 M156.2,45.2c-0.1,0.3-0.3,0.6-0.5,0.8c-0.2,0.2-0.5,0.2-0.9,0.2c-0.4,0-0.8-0.1-1-0.3c-0.3-0.2-0.4-0.5-0.4-0.9c0-0.1,0-0.2,0-0.4
	c0-0.1,0.1-0.2,0.1-0.4l3.9-10.4c0.2-0.6,0.5-1,0.8-1.2c0.3-0.2,0.7-0.3,1.4-0.3c0.6,0,1.1,0.1,1.4,0.2c0.3,0.2,0.5,0.5,0.8,1.1
	l4,10.5c0.1,0.1,0.1,0.2,0.1,0.4c0,0.1,0,0.2,0,0.4c0,0.4-0.1,0.7-0.4,0.9c-0.3,0.2-0.6,0.3-1,0.3c-0.4,0-0.7-0.1-0.9-0.2
	c-0.2-0.2-0.4-0.4-0.5-0.8l-0.7-1.9h-5.5L156.2,45.2z M142.5,44.5c0,0.6-0.1,1-0.4,1.2c-0.2,0.3-0.6,0.4-1.1,0.4
	c-0.5,0-0.9-0.1-1.1-0.4c-0.2-0.3-0.3-0.7-0.3-1.2v-10c0-0.8,0.1-1.4,0.4-1.7c0.3-0.3,0.7-0.4,1.4-0.4c0.8,0,1.5,0.6,2.3,1.8
	c0.1,0.1,0.1,0.2,0.2,0.2l4.6,7.3V34c0-0.6,0.1-1,0.3-1.2c0.2-0.3,0.6-0.4,1.1-0.4s0.9,0.1,1.1,0.4c0.2,0.3,0.3,0.7,0.3,1.2v10.1
	c0,0.8-0.1,1.3-0.4,1.6c-0.2,0.3-0.7,0.5-1.2,0.5c-0.5,0-0.9-0.1-1.2-0.3c-0.3-0.2-0.7-0.6-1.1-1.2l-5-7.9L142.5,44.5L142.5,44.5z
	 M122.2,44.5c0,0.6-0.1,1-0.4,1.2c-0.2,0.3-0.6,0.4-1.1,0.4c-0.5,0-0.9-0.1-1.1-0.4c-0.2-0.3-0.3-0.7-0.3-1.2v-10
	c0-0.8,0.1-1.4,0.4-1.7c0.3-0.3,0.7-0.4,1.4-0.4c0.8,0,1.5,0.6,2.3,1.8c0.1,0.1,0.1,0.2,0.2,0.2l4.6,7.3V34c0-0.6,0.1-1,0.4-1.2
	c0.2-0.3,0.6-0.4,1.1-0.4c0.5,0,0.9,0.1,1.1,0.4c0.2,0.3,0.3,0.7,0.3,1.2v10.1c0,0.8-0.1,1.3-0.3,1.6c-0.2,0.3-0.7,0.5-1.2,0.5
	c-0.5,0-0.9-0.1-1.2-0.3c-0.3-0.2-0.7-0.6-1.1-1.2l-5-7.9L122.2,44.5L122.2,44.5z M110,34.6c-1.2,0-2.2,0.4-2.9,1.2
	c-0.7,0.8-1.1,2-1.1,3.4c0,1.5,0.3,2.6,1.1,3.4c0.7,0.8,1.7,1.2,2.9,1.2c1.3,0,2.2-0.4,3-1.2c0.7-0.8,1.1-2,1.1-3.4
	c0-1.5-0.3-2.6-1.1-3.4C112.2,35,111.2,34.6,110,34.6L110,34.6z M110,32.2c2.1,0,3.8,0.6,5.1,1.9c1.3,1.3,1.9,3,1.9,5.2
	c0,2.2-0.6,3.9-1.9,5.2s-3,1.9-5.1,1.9c-2.1,0-3.8-0.6-5.1-1.9s-1.9-3-1.9-5.2c0-2.2,0.6-3.9,1.9-5.2
	C106.1,32.9,107.8,32.2,110,32.2L110,32.2z M97.6,33.9c0-0.5,0.1-0.9,0.4-1.1c0.2-0.2,0.6-0.4,1.1-0.4c0.5,0,0.9,0.1,1.1,0.4
	c0.2,0.2,0.4,0.6,0.4,1.1v10.8c0,0.5-0.1,0.9-0.4,1.1c-0.2,0.2-0.6,0.4-1.1,0.4c-0.5,0-0.8-0.1-1.1-0.4c-0.2-0.2-0.4-0.6-0.4-1.1
	L97.6,33.9L97.6,33.9z M85.7,44.5c0,0.6-0.1,1-0.4,1.2s-0.6,0.4-1.1,0.4c-0.5,0-0.9-0.1-1.1-0.4c-0.2-0.3-0.3-0.7-0.3-1.2v-10
	c0-0.8,0.1-1.4,0.4-1.7c0.3-0.3,0.7-0.4,1.4-0.4c0.8,0,1.5,0.6,2.3,1.8c0.1,0.1,0.1,0.2,0.2,0.2l4.6,7.3V34c0-0.6,0.1-1,0.3-1.2
	c0.2-0.3,0.6-0.4,1.1-0.4c0.5,0,0.9,0.1,1.1,0.4c0.2,0.3,0.3,0.7,0.3,1.2v10.1c0,0.8-0.1,1.3-0.4,1.6c-0.2,0.3-0.7,0.5-1.2,0.5
	c-0.5,0-0.9-0.1-1.2-0.3c-0.3-0.2-0.7-0.6-1.1-1.2l-5-7.9L85.7,44.5L85.7,44.5z"/>
<path class="st1" d="M236.6,55.7v-4.3h3.4v0.7h-2.5v0.9h2.3v0.7h-2.3V55h2.6v0.7L236.6,55.7L236.6,55.7z M243,54.1v-0.7h2v1.7
	c-0.2,0.2-0.5,0.3-0.8,0.5c-0.4,0.1-0.7,0.2-1.1,0.2c-0.5,0-0.9-0.1-1.3-0.3c-0.4-0.2-0.6-0.5-0.8-0.8c-0.2-0.3-0.3-0.7-0.3-1.1
	c0-0.4,0.1-0.8,0.3-1.2c0.2-0.3,0.5-0.6,0.9-0.8c0.3-0.1,0.7-0.2,1.1-0.2c0.6,0,1,0.1,1.3,0.3c0.3,0.2,0.5,0.5,0.6,0.9l-0.9,0.2
	c-0.1-0.2-0.2-0.4-0.4-0.5c-0.2-0.1-0.4-0.2-0.7-0.2c-0.4,0-0.7,0.1-1,0.4c-0.2,0.2-0.4,0.6-0.4,1.1c0,0.5,0.1,0.9,0.4,1.1
	c0.2,0.2,0.6,0.4,1,0.4c0.2,0,0.4,0,0.6-0.1c0.2-0.1,0.4-0.2,0.5-0.2v-0.5L243,54.1L243,54.1z M247.1,55.7v-1.8l-1.7-2.5h1.1
	l1.1,1.7l1.1-1.7h1.1l-1.7,2.5v1.8H247.1z M250.1,55.7v-4.3h1.5c0.6,0,0.9,0,1.1,0.1c0.3,0.1,0.5,0.2,0.7,0.4
	c0.2,0.2,0.3,0.5,0.3,0.8c0,0.3-0.1,0.5-0.2,0.7c-0.1,0.2-0.2,0.3-0.4,0.4s-0.3,0.2-0.5,0.2c-0.2,0-0.5,0.1-1,0.1h-0.6v1.6
	L250.1,55.7L250.1,55.7z M251.1,52.1v1.2h0.5c0.4,0,0.6,0,0.7-0.1c0.1,0,0.2-0.1,0.3-0.2c0.1-0.1,0.1-0.2,0.1-0.3
	c0-0.2,0-0.3-0.2-0.4c-0.1-0.1-0.2-0.2-0.4-0.2c-0.1,0-0.3,0-0.7,0L251.1,52.1L251.1,52.1z M255.5,55.7v-3.5h-1.4v-0.7h3.6v0.7h-1.4
	v3.5H255.5z"/>
<rect x="230.7" y="52.6" class="st1" width="2.5" height="0.7"/>
<rect x="68.2" y="52.2" class="st1" width="159" height="1.5"/>
<path class="st1" d="M283.6,53.2v-0.5c0-0.2-0.1-0.4-0.2-0.5c-0.1-0.1-0.2-0.1-0.3-0.1c-0.2,0-0.4,0.1-0.6,0.4
	c-0.2,0.2-0.2,0.5-0.2,0.7v0.4h0.8c0.1,0,0.2,0,0.3-0.1C283.5,53.4,283.6,53.3,283.6,53.2L283.6,53.2z M267,53c0-0.2,0-0.3,0.1-0.4
	c0.1-0.1,0.2-0.3,0.3-0.5l0.4-0.4v2h4.7V53c0-0.2,0-0.4,0.1-0.5c0-0.1,0.2-0.2,0.3-0.4l0.4-0.4v1.8l0.4-0.4c0.5-0.5,0.8-0.8,1.1-1
	c0.3-0.2,0.7-0.3,1-0.3c0.3,0,0.7,0.1,0.9,0.3c0.3,0.2,0.4,0.6,0.4,1v0.7h4.3c0.1,0,0.2,0,0.3-0.1c0.1-0.1,0.1-0.2,0.1-0.5v-0.1
	c0-0.4,0.2-0.7,0.4-1c0.3-0.2,0.6-0.3,0.9-0.3h1.2v2.6h-16.6c0,0.6-0.2,1-0.5,1.3c-0.3,0.3-0.7,0.4-1.2,0.4h-0.8v-0.4h0.4
	c0.3,0,0.6-0.1,0.9-0.3c0.3-0.2,0.4-0.6,0.4-1L267,53L267,53z M276.5,53.2V53c0-0.2-0.1-0.5-0.2-0.6c-0.1-0.2-0.3-0.3-0.4-0.3
	c-0.2,0-0.5,0.1-0.7,0.2c-0.3,0.2-0.6,0.5-1,0.8l-0.4,0.4h2.1C276.3,53.6,276.5,53.5,276.5,53.2L276.5,53.2z"/>
<rect x="288.3" y="52.6" class="st1" width="2.5" height="0.7"/>
<rect x="294.3" y="52.2" class="st1" width="5.7" height="1.5"/>
<g>
	<path class="st0" d="M148,14.8L148,14.8l0,5.5h-2.8v-2.8C145.3,16,146.5,14.8,148,14.8L148,14.8z M124.3,20.8L124.3,20.8
		c1.1-2.9,4.9-6,8.1-5.5c1.8,0.3,2.8,1.5,2.7,3.8c0,0.8,0.2,1.4,0.5,1.7L124.3,20.8L124.3,20.8z M87.6,14.9
		C87.6,14.9,87.6,14.9,87.6,14.9c0,0.2,0,0.4,0,0.7v5.3h18.4c-0.4-0.2-0.7-0.8-0.7-1.6v-5.3c1.1-0.2,1.9-0.1,2.4,0.3
		c0.5,0.4,0.4,0.7,0.4,1.3v5.3H120c0.8,0,1.4-0.7,1.4-1.4V8.2c0-0.7,0.6-1.3,1.3-1.3h0.3c0.7,0,1.3,0.6,1.3,1.3V18
		c2.2-3.4,5.5-4.5,8.9-3.9c2.8,0.4,4.7,2.2,4.7,4c0,1.7,0.9,3.9,2,5.2H84.8v-6.7c0-2.5-2-2.7-2.3-2v0.7v4.3c0,3-2.4,5.4-5.4,5.4
		h-3.5c-3,0-5.4-2.4-5.4-5.4v-5.1c0-0.7,0.6-1.3,1.3-1.3h0.3c0.7,0,1.3,0.6,1.3,1.3c0,2,0,3.9,0,5.9c0,1.9,1.6,3.4,3.6,3.4h1.2
		c2,0,3.6-1.5,3.6-3.4v-7.2h1.8c1.2,0,2.4,0,3.6,0C86.3,13.3,87.4,13.4,87.6,14.9L87.6,14.9z M106.8,9.5c0.7,0,1.3,0.6,1.3,1.3
		s-0.6,1.3-1.3,1.3s-1.3-0.6-1.3-1.3C105.6,10.1,106.1,9.5,106.8,9.5L106.8,9.5z M246,23.3V8.2c0-0.7-0.6-1.3-1.3-1.3h-0.3
		c-0.7,0-1.3,0.6-1.3,1.3v15.1H246z M226.2,9.5c0.7,0,1.3,0.6,1.3,1.3s-0.6,1.3-1.3,1.3c-0.7,0-1.3-0.6-1.3-1.3S225.5,9.5,226.2,9.5
		L226.2,9.5z M222.6,9.5c0.7,0,1.3,0.6,1.3,1.3s-0.6,1.3-1.3,1.3c-0.7,0-1.3-0.6-1.3-1.3C221.3,10.1,221.9,9.5,222.6,9.5L222.6,9.5z
		 M234.8,25.1c-1.2-0.1-2.3,1.9,0.5,2c0,0.3,0,0.3,0,0.6h-3.2v-0.6c0.4,0,0.4,0,0.8,0c-1-1.6,0.1-2.9,1.7-2.4
		C234.8,24.8,235.4,25.2,234.8,25.1L234.8,25.1z M175.2,15.3c1.1-0.1,2-0.2,2.7,0c1.8,0.4,2.8,1.5,2.7,3.8c0,0.8,0.2,1.4,0.5,1.7
		h-7.2c0,1.3,0.5,2.1,1.4,2.5h10.2c-1.1-1.2-2-3.5-2-5.2c0-1.8-1.9-3.7-4.7-4c-1.2-0.1-2.3,0-3.5,0L175.2,15.3L175.2,15.3z
		 M205.3,15.3c1.1-0.1,2-0.2,2.7,0c1.8,0.4,2.8,1.5,2.7,3.8c0,0.8,0.2,1.4,0.5,1.7H190c0.4-0.2,0.7-0.8,0.7-1.6c0-3.7,0-7.3,0-11
		c0-0.7-0.6-1.3-1.3-1.3h-0.3c-0.7,0-1.3,0.6-1.3,1.3c0,4.2,0,8.4,0,12.6v2.5h39.9v-7.8c0-0.6,0-0.9-0.4-1.3
		c-0.6-0.4-1.4-0.5-2.4-0.3v5.3c0.1,0.8,0.3,1.4,0.7,1.6h-11.4c-0.3-0.8-0.5-1.5-0.5-2.6c0-1.8-1.9-3.7-4.7-4c-1.2-0.1-2.3,0-3.5,0
		L205.3,15.3L205.3,15.3z M235.3,20.8V10.4c0-0.7-0.6-1.3-1.3-1.3h-0.3c-0.7,0-1.3,0.6-1.3,1.3v10.4h-1.8v2.5h10.2v-2.5l0,0
		c0-4.2,0-8.4,0-12.6c0-0.7-0.6-1.3-1.3-1.3h-0.3c-0.7,0-1.3,0.6-1.3,1.3c0,3.7,0,7.3,0,11c0.1,0.8,0.3,1.4,0.7,1.6H235.3z
		 M286.3,13.9c1.1-0.2,1.9-0.1,2.4,0.3c0.5,0.4,0.4,0.7,0.4,1.3v5.3h7.5c-0.4-0.2-0.7-0.8-0.7-1.6v-5.3c1.1-0.2,1.9-0.1,2.4,0.3
		c0.5,0.4,0.4,0.7,0.4,1.3v7.8c-14.4,0-28.7,0-43.1,0c-1.7,0-3-1.4-3-3.1V15c0-0.7,0.6-1.3,1.3-1.3h0.3c0.7,0,1.3,0.6,1.3,1.3
		c0,1.2,0,2.5,0,3.7c0,1.1,0.9,2,2,2h16c-0.4-0.2-0.7-0.8-0.7-1.6c0-3.7,0-7.3,0-11c0-0.7,0.6-1.3,1.3-1.3h0.3
		c0.7,0,1.3,0.6,1.3,1.3c0,4.2,0,8.4,0,12.6H287c-0.4-0.2-0.7-0.8-0.7-1.6L286.3,13.9L286.3,13.9z M297.5,24.3
		c0.7,0,1.3,0.6,1.3,1.3s-0.6,1.3-1.3,1.3s-1.3-0.6-1.3-1.3C296.2,24.9,296.8,24.3,297.5,24.3L297.5,24.3z M287.9,9.5
		c0.7,0,1.3,0.6,1.3,1.3s-0.6,1.3-1.3,1.3s-1.3-0.6-1.3-1.3S287.2,9.5,287.9,9.5L287.9,9.5z M265.4,9.4c-1.8-0.1-3.5,3,0.7,3.1
		c0,0.5,0,0.4,0,0.9h-5v-0.9c0.6,0,0.6,0,1.2,0c-1.5-2.5,0.1-4.5,2.7-3.7C265.4,8.9,266.3,9.5,265.4,9.4L265.4,9.4z M77.1,27
		c0.7,0,1.3,0.6,1.3,1.3c0,0.7-0.6,1.3-1.3,1.3s-1.3-0.6-1.3-1.3C75.8,27.5,76.4,27,77.1,27L77.1,27z M73.4,27
		c0.7,0,1.3,0.6,1.3,1.3c0,0.7-0.6,1.3-1.3,1.3s-1.3-0.6-1.3-1.3C72.2,27.5,72.7,27,73.4,27L73.4,27z M167.1,23.3V8.2
		c0-0.7-0.6-1.3-1.3-1.3h-0.3c-0.7,0-1.3,0.6-1.3,1.3v15.1H167.1z M148,23.3V26c0,0.8-0.7,1.5-1.4,1.5h-7.7v1.3h9
		c1.6,0,2.9-1.3,2.9-2.9v-2.6H162v-2.5c0-4.2,0-8.4,0-12.6c0-0.7-0.6-1.3-1.3-1.3h-0.3c-0.7,0-1.3,0.6-1.3,1.3c0,3.7,0,7.3,0,11
		c0.1,0.8,0.3,1.4,0.7,1.6h-9.2v-7.1h-3.6c-2.8,0-5,2.3-5,5c0,1.6,0,3.1,0,4.7L148,23.3L148,23.3z"/>
	<path class="st2" d="M11.6,1.7c0.4,1.2,0.7,2.4,1.1,3.6c15-1.5,24,9.5,24.8,32.9c0.2,7.4-0.2,14.8,2.3,22.2
		c2.8-0.4,5.4-1.2,8.2-2.7C64.9-3.1,29.7-2.7,11.6,1.7L11.6,1.7z"/>
	<linearGradient id="SVGID_1_" gradientUnits="userSpaceOnUse" x1="32.0333" y1="60.2293" x2="32.0333" y2="1.818989e-12">
		<stop  offset="0.5" style="stop-color:#8EC73F"/>
		<stop  offset="1" style="stop-color:#003314"/>
	</linearGradient>
	<path class="st3" d="M11.6,1.7c0.2,0.6,0.7,2.4,0.9,3c15.1-1.9,26.2,6.5,26.9,29.6c0.2,7.1,0.2,18.3,1.7,25.9
		c2.3-0.5,4.5-1.2,6.9-2.5C64.9-3.1,29.7-2.7,11.6,1.7L11.6,1.7z"/>
	<path class="st4" d="M40.9,64.1c-0.4-1.2-0.7-2.4-1.1-3.6c-15,1.5-24-9.5-24.8-32.9c-0.2-7.4,0.2-14.8-2.3-22.2
		C9.9,5.7,7.3,6.5,4.5,8.1C-12.4,68.9,22.8,68.5,40.9,64.1L40.9,64.1z"/>
	
		<linearGradient id="SVGID_00000039841201244501128470000008140701564796629131_" gradientUnits="userSpaceOnUse" x1="20.4343" y1="65.7923" x2="20.4343" y2="5.563">
		<stop  offset="0" style="stop-color:#00346B"/>
		<stop  offset="0.5" style="stop-color:#00AEEF"/>
	</linearGradient>
	<path style="fill-rule:evenodd;clip-rule:evenodd;fill:url(#SVGID_00000039841201244501128470000008140701564796629131_);" d="
		M40.9,64.1c-0.2-0.6-0.7-2.4-0.9-3C24.9,63,13.8,54.6,13,31.5c-0.2-7.1-0.2-18.3-1.7-25.9C9,6,6.8,6.8,4.5,8.1
		C-12.4,68.9,22.8,68.5,40.9,64.1L40.9,64.1z"/>
</g>
<path class="st0" d="M12.7,5.3c2.5,7.4,2.1,14.8,2.3,22.2c0.8,23.4,9.7,34.3,24.8,32.9c-2.5-7.4-2.1-14.8-2.3-22.2
	C36.7,14.8,27.7,3.9,12.7,5.3L12.7,5.3z"/>
</svg>
