<svg id="HSBC-Logo" xmlns="http://www.w3.org/2000/svg" width="300" height="80.817" viewBox="0 0 300 80.817">
  <path id="Path_3110" data-name="Path 3110" d="M42.6,0h80.722V80.722H42.6Z" transform="translate(-2.144)" fill="#fff"/>
  <path id="Path_3111" data-name="Path 3111" d="M121.178,80.817l40.361-40.361L121.178,0ZM40.456,0,80.817,40.456,121.178,0Zm0,0L0,40.456,40.456,80.817Zm80.722,80.817L80.817,40.456,40.456,80.817Z" fill="#db0011"/>
  <path id="Path_3112" data-name="Path 3112" d="M206.237,44.038H191.612V58.473H184.3V24.665h7.312V38.53h14.625V24.665h7.312V58.473h-7.312Zm24.976,15.1c-7.312,0-13.3-2.944-13.39-11.016h7.312c.095,3.609,2.184,5.793,6.173,5.793,2.944,0,6.363-1.519,6.363-4.843,0-2.659-2.279-3.419-6.078-4.558l-2.469-.665c-5.318-1.519-10.636-3.609-10.636-9.687,0-7.5,7.028-10.066,13.39-10.066,6.553,0,12.251,2.279,12.346,9.782h-7.312c-.285-3.039-2.089-4.843-5.508-4.843-2.754,0-5.413,1.425-5.413,4.463,0,2.469,2.279,3.229,7.028,4.748l2.849.855c5.793,1.8,9.5,3.8,9.5,9.5C245.269,56.194,237.861,59.138,231.214,59.138ZM249.447,24.76h11.776a31.263,31.263,0,0,1,6.648.38c4.084.95,7.217,3.609,7.217,8.167,0,4.368-2.754,6.553-6.743,7.6,4.558.855,7.977,3.134,7.977,8.167,0,7.692-7.6,9.4-13.485,9.4h-13.3Zm11.776,14.055c3.229,0,6.553-.665,6.553-4.558,0-3.514-3.039-4.463-6.078-4.463H256.57v9.022Zm.665,14.625c3.419,0,6.743-.76,6.743-4.938s-2.849-4.938-6.363-4.938h-5.793V53.44Zm33.428,5.7c-10.921,0-15.764-6.933-15.764-17.284S284.965,24,295.7,24c6.743,0,13.3,3.039,13.485,10.636h-7.6c-.38-3.419-2.659-5.128-5.888-5.128-6.648,0-8.642,7.123-8.642,12.536s1.994,11.681,8.357,11.681c3.324,0,5.793-1.8,6.268-5.223h7.6c-.76,7.787-6.933,10.636-13.96,10.636Z" transform="translate(-9.276 -1.208)"/>
</svg>
