<svg xmlns="http://www.w3.org/2000/svg" xmlns:xlink="http://www.w3.org/1999/xlink" width="300" height="80.729" viewBox="0 0 300 80.729">
  <defs>
    <clipPath id="clip-path">
      <path id="Path_3101" data-name="Path 3101" d="M352,7h58.413V72.887H352Zm0,0" transform="translate(-352 -7)"/>
    </clipPath>
    <clipPath id="clip-path-2">
      <path id="Path_3105" data-name="Path 3105" d="M19,63H76.651v37.493H19Zm0,0" transform="translate(-19 -63)"/>
    </clipPath>
  </defs>
  <g id="QNB-logo_SVG" transform="translate(0 -0.005)">
    <path id="Path_3097" data-name="Path 3097" d="M54.6,12.731c3.933-2.962,7.464-8.172,11.727-11.512A53.942,53.942,0,0,1,76.346,8.042c-6.059,6.759-12.6,12.81-19.4,19.614-2.681,2.681-5.437,8.016-11.086,6.182-2.155-.7-4.973-4.332-6.823-6.182C32.566,21.187,25.6,14.259,19.848,8.042A49.389,49.389,0,0,1,29.866,1.219C34.1,4.943,37.614,9.39,42.019,12.945c.389-3.115-.517-5.579,0-8.316C43.22-1.7,53.475-1.58,54.6,5.27c.381,2.316-.265,4.1,0,7.461" transform="translate(-6.226 0)" fill="#c60552" fill-rule="evenodd"/>
    <path id="Path_3098" data-name="Path 3098" d="M187.463,16.444C173.447,15.439,167.517,25.291,167,37.125c-.507,11.517,4.367,23.137,15.777,24.3a20.051,20.051,0,0,0,10.233-1.491c-.412-.989-1.871-1.981-3.2-3.2-.689-.635-3.657-2.625-3.625-3.413.024-.531,1.391-1.41,1.92-1.917.729-.7,1.678-1.29,2.131-1.708.778-.708,2.984-3.874,3.839-3.836.222.011,1.134,1.378,1.493,1.705,2.062,1.885,3.432,2.812,5.327,4.477,6.59-14.936,2.325-34.474-13.431-35.6m24.306,44.984c2.228,2.676,5.115,4.694,7.676,7.038-2.467,2.721-5.29,5.083-7.887,7.675-2.925-2.265-5.517-4.858-8.317-7.249-8.485,5.783-23.335,5.354-31.767,2.131-8.959-3.423-15.268-11.008-17.909-20.466-6.364-22.8,5.25-44.37,28.142-46.054,22.418-1.649,36.252,11.568,37.311,31.769.528,10.056-2.056,18.92-7.25,25.155" transform="translate(-47.627 -1.368)" fill="#072a5b" fill-rule="evenodd"/>
    <path id="Path_3099" data-name="Path 3099" d="M273.734,72.342V27.192c7.882,12.172,16.51,26.818,24.52,39.869.978,1.592,2.346,4.37,3.415,5.281h14.919V7.363H302.731c-.5,14.429-.072,29.777-.212,44.56-9.294-14.727-17.911-30.131-27.5-44.56H260.09a.583.583,0,0,0-.426.641V72.342" transform="translate(-81.45 -2.308)" fill="#072a5b" fill-rule="evenodd"/>
    <g id="Group_1427" data-name="Group 1427" transform="translate(241.587 4.806)" clip-path="url(#clip-path)">
      <path id="Path_3100" data-name="Path 3100" d="M366.827,44.6V60.8c8.738-.836,22.628,2.206,26.864-3.2a10.129,10.129,0,0,0,1.067-9.169c-3.081-7.306-17.866-3.483-27.716-4.477-.249.038-.233.338-.215.641m0-24.944V32.871c7.427-1.035,19.338,1.938,24.52-1.493a7.031,7.031,0,0,0,2.129-8.314c-2.853-6.807-17.328-3-26.435-4.051-.249.035-.233.338-.215.641M352.754,7.287c19.7,1.319,47.247-4.63,54.153,9.381,3.689,7.477.686,18.818-6.821,20.681,3.821,1.853,6.944,3.756,8.74,7.249,2.721,5.29,1.992,12.893-.212,17.268-7.408,14.71-35.089,9.839-56.072,10.662V7.928c-.019-.3-.035-.606.211-.641" transform="translate(-352.167 -7.038)" fill="#072a5b" fill-rule="evenodd"/>
    </g>
    <path id="Path_3102" data-name="Path 3102" d="M4.241,62.133C7.818,57.822,12.4,54.514,16.18,50.407H.617A39.017,39.017,0,0,1,.4,37.827H15.968C12.82,33.865,7.919,29.814,4.241,25.675a37.6,37.6,0,0,1,6.82-10.233c5.826,5.751,12.844,12.63,19.617,19.4,2.97,2.971,7.378,5.6,5.97,10.871-.651,2.432-4,5.067-5.97,7.038l-16.2,16.2c-.587.587-3,3.193-3.2,3.2-.973.024-3.185-3.732-3.837-4.689a51.665,51.665,0,0,1-3.2-5.33" transform="translate(0 -4.842)" fill="#072a5b" fill-rule="evenodd"/>
    <path id="Path_3103" data-name="Path 3103" d="M100.82,25.46c-3.644,4.461-8.118,8.086-11.938,12.367h15.563a35.644,35.644,0,0,1,0,12.579H89.094c2.9,3.85,8.716,7.772,11.512,11.727C99,66.069,96.445,69.055,94,72.152,87.92,66.385,81.279,59.433,74.81,52.964c-2.764-2.764-8.48-6.046-6.4-11.512.759-1.989,4-4.641,5.97-6.611,6.432-6.429,13.579-13.268,19.4-19.4,2.976,2.708,4.992,6.375,7.035,10.019" transform="translate(-21.319 -4.842)" fill="#072a5b" fill-rule="evenodd"/>
    <g id="Group_1428" data-name="Group 1428" transform="translate(13.04 43.24)" clip-path="url(#clip-path-2)">
      <path id="Path_3104" data-name="Path 3104" d="M76.346,89.871c-3.145,2.4-6.166,4.92-10.021,6.609-4.4-3.413-7.528-8.1-11.727-11.727v15.563a47.647,47.647,0,0,1-12.579,0V84.964c-3.925,2.968-8.225,8.547-12.15,11.515-3.917-1.63-6.938-4.15-10.021-6.609,5.531-6.231,12.429-12.644,18.761-18.976,2.721-2.721,6.365-8.96,11.938-6.609,2.145.9,4.847,4.206,6.823,6.182,6.493,6.491,12.882,12.836,18.976,19.4" transform="translate(-19.266 -63.241)" fill="#072a5b" fill-rule="evenodd"/>
    </g>
  </g>
</svg>
