<svg xmlns="http://www.w3.org/2000/svg" width="129.202" height="128" viewBox="0 0 129.202 128">
  <g id="icon" transform="translate(-1 -1.279)">
    <path id="Path_71" data-name="Path 71" d="M23.38,41.678a2.154,2.154,0,0,1-2.153-2.153v-7.8a2.14,2.14,0,0,1,.853-1.714,8.549,8.549,0,0,0,3.454-6.852V16.7a8.613,8.613,0,1,0-17.227,0v6.46a8.549,8.549,0,0,0,3.454,6.852,2.148,2.148,0,0,1,.853,1.718v7.8a2.153,2.153,0,1,1-4.307,0V32.742A12.774,12.774,0,0,1,4,23.159V16.7a12.92,12.92,0,1,1,25.84,0v6.46a12.781,12.781,0,0,1-4.307,9.582v6.783a2.154,2.154,0,0,1-2.153,2.153Z" transform="translate(9.92 8.267)" fill="#0055b8"/>
    <path id="Path_72" data-name="Path 72" d="M9.154,22.637a2.151,2.151,0,0,1-.426-4.259A8.655,8.655,0,0,0,15.6,9.932a2.153,2.153,0,1,1,4.307,0A12.967,12.967,0,0,1,9.589,22.59a2.135,2.135,0,0,1-.435.047Z" transform="translate(19.853 21.494)" fill="#0055b8"/>
    <path id="Path_73" data-name="Path 73" d="M18.223,19.333a2.111,2.111,0,0,1-.848-.177L9.3,15.69A2.153,2.153,0,0,1,11,11.732L19.072,15.2a2.155,2.155,0,0,1-.848,4.134Z" transform="translate(23.148 33.988)" fill="#0055b8"/>
    <path id="Path_74" data-name="Path 74" d="M13.92,45.432a2.121,2.121,0,0,1-.891-.194L4.786,41.491A6.485,6.485,0,0,1,1,35.608V29.639a15,15,0,0,1,9.1-13.825l9.419-4.087a2.153,2.153,0,1,1,1.714,3.949L11.81,19.768a10.716,10.716,0,0,0-6.5,9.871v5.969a2.166,2.166,0,0,0,1.262,1.964l8.243,3.747a2.153,2.153,0,0,1-.891,4.113Z" transform="translate(0 33.958)" fill="#0055b8"/>
    <path id="Path_75" data-name="Path 75" d="M25.271,20.618a18.747,18.747,0,0,1-11.856-4.272A2.15,2.15,0,1,1,16.115,13a14.221,14.221,0,0,0,9.41,3.312A8.614,8.614,0,0,0,8.307,16.7v1.593a2.153,2.153,0,0,1-4.307,0V16.7a12.92,12.92,0,1,1,25.84,0v1.507a2.156,2.156,0,0,1-1.813,2.128,17.214,17.214,0,0,1-2.756.284Z" transform="translate(9.92 8.267)" fill="#0055b8"/>
    <path id="Path_76" data-name="Path 76" d="M41.38,41.675a2.154,2.154,0,0,1-2.153-2.153v-7.8a2.14,2.14,0,0,1,.853-1.714,8.549,8.549,0,0,0,3.454-6.852V16.7a8.613,8.613,0,0,0-17.227,0v6.46a8.549,8.549,0,0,0,3.454,6.852,2.148,2.148,0,0,1,.853,1.718v7.8a2.153,2.153,0,0,1-4.307,0V32.743A12.774,12.774,0,0,1,22,23.16V16.7a12.92,12.92,0,0,1,25.84,0v6.46a12.781,12.781,0,0,1-4.307,9.582v6.783A2.153,2.153,0,0,1,41.38,41.675Z" transform="translate(69.441 8.27)" fill="#0055b8"/>
    <path id="Path_77" data-name="Path 77" d="M27.154,22.637a2.151,2.151,0,0,1-.426-4.259A8.655,8.655,0,0,0,33.6,9.932a2.153,2.153,0,1,1,4.307,0A12.967,12.967,0,0,1,27.589,22.59a2.135,2.135,0,0,1-.435.047Z" transform="translate(79.374 21.494)" fill="#0055b8"/>
    <path id="Path_78" data-name="Path 78" d="M23.426,19.061a2.155,2.155,0,0,1-.848-4.134l7.438-3.2a2.153,2.153,0,0,1,1.7,3.958l-7.438,3.2A2.1,2.1,0,0,1,23.426,19.061Z" transform="translate(67.038 33.99)" fill="#0055b8"/>
    <path id="Path_79" data-name="Path 79" d="M34.613,45.434a2.153,2.153,0,0,1-.891-4.113l8.243-3.747a2.161,2.161,0,0,0,1.262-1.964V29.641a10.7,10.7,0,0,0-6.49-9.862l-9.44-4.1a2.153,2.153,0,1,1,1.714-3.949l9.427,4.091a14.994,14.994,0,0,1,9.1,13.82V35.61a6.485,6.485,0,0,1-3.786,5.883L35.5,45.24a2.19,2.19,0,0,1-.891.194Z" transform="translate(82.669 33.956)" fill="#0055b8"/>
    <path id="Path_80" data-name="Path 80" d="M30.155,13.16c-6.124,0-12.5-2.158-16.012-5.319a2.152,2.152,0,1,1,2.877-3.2c4.246,3.816,14.419,5.81,20.246,2.683A2.153,2.153,0,0,1,39.3,11.119a19.552,19.552,0,0,1-9.147,2.041Z" transform="translate(41.088 9.29)" fill="#0055b8"/>
    <path id="Path_81" data-name="Path 81" d="M25.171,24.068a12.677,12.677,0,0,1-11.844-8.523,2.152,2.152,0,0,1,4.083-1.361c.09.258,2,5.573,7.761,5.573,5.81,0,7.855-5.478,7.946-5.711a2.154,2.154,0,0,1,4.061,1.434c-.125.353-3.1,8.588-12.007,8.588Z" transform="translate(40.4 37.505)" fill="#0055b8"/>
    <path id="Path_82" data-name="Path 82" d="M51.954,48.044A2.154,2.154,0,0,1,49.8,45.891v-1.2a15.057,15.057,0,0,0-10.017-14.2L21.82,24.112a6.446,6.446,0,0,1-4.32-6.081v-5.3a2.153,2.153,0,1,1,4.307,0v5.3a2.145,2.145,0,0,0,1.443,2.016l17.968,6.378a19.363,19.363,0,0,1,12.89,18.265V45.9a2.15,2.15,0,0,1-2.153,2.149Z" transform="translate(54.561 30.756)" fill="#0055b8"/>
    <path id="Path_83" data-name="Path 83" d="M8.153,48.048A2.154,2.154,0,0,1,6,45.894V44.731A19.435,19.435,0,0,1,18.929,26.423l17.925-6.288a2.149,2.149,0,0,0,1.447-2.02V12.732a2.153,2.153,0,1,1,4.307,0v5.383A6.461,6.461,0,0,1,38.279,24.2L20.367,30.485A15.114,15.114,0,0,0,10.307,44.731v1.163A2.151,2.151,0,0,1,8.153,48.048Z" transform="translate(16.534 30.753)" fill="#0055b8"/>
    <path id="Path_84" data-name="Path 84" d="M29.227,48.653a2.153,2.153,0,0,1,0-4.307c4.47,0,12.92-4.048,12.92-19.38v-6.46a12.92,12.92,0,0,0-25.84,0v6.46c0,7.425,1.985,13.105,5.737,16.426a2.153,2.153,0,0,1-2.851,3.226C15.911,41.715,12,35.952,12,24.966v-6.46a17.227,17.227,0,0,1,34.454,0v6.46c0,18.739-11.266,23.687-17.227,23.687Z" transform="translate(36.374)" fill="#0055b8"/>
    <path id="Path_85" data-name="Path 85" d="M30.316,56.743a2.152,2.152,0,0,1-.952-4.083l10.651-5.276a2.153,2.153,0,0,1,1.908,0l6.96,3.45L47.75,43.151a2.151,2.151,0,0,1,.594-1.817l5.439-5.56-7.666-1.3a2.166,2.166,0,0,1-1.546-1.124l-3.6-6.882-3.6,6.882a2.166,2.166,0,0,1-1.546,1.124l-7.662,1.3,5.435,5.56a2.153,2.153,0,1,1-3.079,3.01l-8.308-8.5a2.151,2.151,0,0,1,1.18-3.626L34.05,30.4l5.017-9.578a2.154,2.154,0,0,1,3.816,0L47.9,30.4l10.668,1.817a2.151,2.151,0,0,1,1.18,3.626l-7.567,7.731,1.576,10.7a2.165,2.165,0,0,1-.866,2.054,2.134,2.134,0,0,1-2.222.185l-9.69-4.8-9.694,4.8a2.114,2.114,0,0,1-.965.228Z" transform="translate(68.093 60.817)" fill="#0055b8"/>
    <path id="Path_86" data-name="Path 86" d="M20.707,64a2.151,2.151,0,0,1-2.132-2.468l1.886-12.847L11.383,39.4a2.151,2.151,0,0,1,1.18-3.626l12.808-2.179,6.021-11.5a2.244,2.244,0,0,1,3.82,0l6.021,11.5L54.041,35.77a2.151,2.151,0,0,1,1.18,3.626l-9.083,9.285,1.891,12.847a2.165,2.165,0,0,1-.866,2.054,2.134,2.134,0,0,1-2.222.185L33.3,58,21.663,63.768a2.139,2.139,0,0,1-.956.228ZM17.335,39.323l6.951,7.11a2.168,2.168,0,0,1,.594,1.817l-1.447,9.832,8.911-4.414a2.125,2.125,0,0,1,1.908,0l8.906,4.414-1.447-9.832a2.151,2.151,0,0,1,.594-1.817l6.955-7.11-9.806-1.671a2.166,2.166,0,0,1-1.546-1.124L33.3,27.721l-4.608,8.807a2.166,2.166,0,0,1-1.546,1.124Z" transform="translate(32.301 65.283)" fill="#0055b8"/>
    <path id="Path_87" data-name="Path 87" d="M31.523,56.74a2.175,2.175,0,0,1-.956-.224l-9.69-4.8L11.183,56.52a2.156,2.156,0,0,1-3.088-2.244l1.576-10.7L2.1,35.848a2.151,2.151,0,0,1,1.18-3.626L13.952,30.4l5.017-9.578a2.154,2.154,0,0,1,3.816,0L27.8,30.4l10.663,1.817a2.151,2.151,0,0,1,1.18,3.626l-8.308,8.493a2.153,2.153,0,0,1-3.079-3.01l5.435-5.56-7.662-1.3a2.158,2.158,0,0,1-1.546-1.124l-3.6-6.882-3.6,6.882a2.166,2.166,0,0,1-1.546,1.124l-7.666,1.3,5.439,5.56a2.168,2.168,0,0,1,.594,1.817l-1.133,7.683,6.964-3.45a2.153,2.153,0,0,1,1.908,0l10.646,5.276a2.155,2.155,0,0,1,.978,2.886,2.182,2.182,0,0,1-1.938,1.2Z" transform="translate(1.618 60.821)" fill="#0055b8"/>
  </g>
</svg>
