<svg id="icon" xmlns="http://www.w3.org/2000/svg" width="128.453" height="128.005" viewBox="0 0 128.453 128.005">
  <path id="Path_481" data-name="Path 481" d="M26.968,35.835l.217-.436-3.694-1.848-.217.438a4.617,4.617,0,0,1-8.258,0l-.217-.436L11.106,35.4l.217.436a8.747,8.747,0,0,0,15.646,0Z" transform="translate(10.207 33.655)" fill="#0055b8"/>
  <path id="Path_482" data-name="Path 482" d="M57.275,33.99a4.617,4.617,0,0,1-8.258,0l-.217-.436L45.106,35.4l.217.436a8.747,8.747,0,0,0,15.646,0l.217-.436-3.694-1.848Z" transform="translate(46.403 33.655)" fill="#0055b8"/>
  <path id="Path_483" data-name="Path 483" d="M114.685,86.953l-4.4-.979-1.03-4.125a14.471,14.471,0,0,0,7.43-10.653h.165a8.246,8.246,0,0,0,6.879-12.811l.877-3.512a16.769,16.769,0,0,0-16.269-20.84h-4.4a39.183,39.183,0,0,0-77.408.078A22.723,22.723,0,0,0,5.36,56.744V75.679a11.956,11.956,0,0,1-3.524,8.51L.783,85.242l.665,1.332a16.9,16.9,0,0,0,4.777,5.806,18.507,18.507,0,0,0-4.994,12.712v5.333a18.6,18.6,0,0,0,18.581,18.581H42.523a8.176,8.176,0,0,0,4.947-1.687,4.111,4.111,0,0,0,3.312,1.687h28.9A4.111,4.111,0,0,0,83,127.318a8.176,8.176,0,0,0,4.947,1.687h22.711a18.6,18.6,0,0,0,18.581-18.581v-5.333A18.47,18.47,0,0,0,114.685,86.953Zm-1.965-17.822A10.335,10.335,0,0,1,102.4,79.455H98.267A10.335,10.335,0,0,1,87.944,69.132V56.744a6.187,6.187,0,0,1,5.252-6.1,13.564,13.564,0,0,0,19.523,6.169Zm-8.1,22.876,3.952-1.976a33.7,33.7,0,0,1-.326,4.15Zm2.752,6.466a32.6,32.6,0,0,1-1.336,3.954l-1.412-4.234.526-1.053ZM99.756,100.1h1.152l2.459,7.375a33.232,33.232,0,0,1-3.035,4.007,33.233,33.233,0,0,1-3.035-4.007Zm-.692-5.089,1.268-.762,1.268.762-.479.96H99.543Zm1.268-5.477-5.853-2.928.832-3.33a14.376,14.376,0,0,0,2.957.308H102.4a14.52,14.52,0,0,0,2.956-.306l.832,3.33Zm-5.7,12.9a32.6,32.6,0,0,1-1.336-3.954l2.222-1.334.526,1.053ZM95.8,112.488H87.944a8.173,8.173,0,0,0-4.129,1.148V92.078a14.47,14.47,0,0,1,3.058-1.094L88,90.734a36.952,36.952,0,0,0,7.8,21.755ZM92.42,94.182a33.309,33.309,0,0,1-.326-4.15l3.952,1.976Zm24.428-27.114V58.809a4.129,4.129,0,0,1,0,8.258Zm-8.512-28.9A12.64,12.64,0,0,1,120.6,53.87l-.386,1.542a8.187,8.187,0,0,0-3.365-.733h-.388a6.131,6.131,0,0,0-.378-.851,13.682,13.682,0,0,0,1.658-2.508l.954-1.912L115,47.563l-.954,1.91A9.419,9.419,0,0,1,96.2,45.261V42.292H92.073v2.969c0,.46.025.915.068,1.363a10.346,10.346,0,0,0-8.118,8.056h-.209a8.2,8.2,0,0,0-3.138.628l-.921-4.6a3.884,3.884,0,0,1-.07-.725,3.673,3.673,0,0,1,2.042-3.3l1.794-.9.341-1.361a8.247,8.247,0,0,1,8.011-6.256ZM79.605,42.292c-.012.291-.017.582-.033.873a7.792,7.792,0,0,0-3.863,8.351L76.8,56.98c-.225.621-.454,1.239-.7,1.831H54.911V56.746a22.56,22.56,0,0,0-3.983-12.819c-.037-.541-.043-1.09-.064-1.635ZM50.866,38.163a48.228,48.228,0,0,1,3.528-16.517H76.073A48.277,48.277,0,0,1,79.6,38.163Zm4.045,30.55a49.126,49.126,0,0,0,4.707,6.155,34.741,34.741,0,0,1-4.707-1.117Zm1.4-5.775H74.163a44.4,44.4,0,0,1-8.936,11.737,44.227,44.227,0,0,1-8.919-11.737Zm20.34,4.026a8.253,8.253,0,0,0,5.43,4.042,34.784,34.784,0,0,1-11.221,3.859A49.175,49.175,0,0,0,76.649,66.964Zm3.037-4.026a4.133,4.133,0,0,1,4.129-4.129v8.258A4.133,4.133,0,0,1,79.686,62.938ZM95.02,21.646a34.877,34.877,0,0,1,4.736,12.388H91.875a12.325,12.325,0,0,0-8.184,3.134,52.521,52.521,0,0,0-3.159-15.522Zm-3.037-4.129H78.8A49.609,49.609,0,0,0,70.9,5.614,35,35,0,0,1,91.982,17.517ZM65.234,5.792A44.809,44.809,0,0,1,74.1,17.517H56.364a44.809,44.809,0,0,1,8.87-11.725ZM59.57,5.614a49.608,49.608,0,0,0-7.907,11.9H38.485A35,35,0,0,1,59.57,5.614ZM35.448,21.646H49.935a52.761,52.761,0,0,0-3.2,16.517h-1.52A22.562,22.562,0,0,0,32.2,34.034H30.709A34.919,34.919,0,0,1,35.448,21.646Zm7.075,103.23H19.812A14.462,14.462,0,0,1,5.525,112.488H14a6.185,6.185,0,0,0,5.814,4.129H42.523a4.129,4.129,0,0,1,0,8.258Zm4.129-11.24a8.173,8.173,0,0,0-4.129-1.148H19.812a2.068,2.068,0,0,1-2.065-2.065V100.1H13.619v8.258H5.36v-3.268A14.365,14.365,0,0,1,16.676,90.983l3.642-.809a47.874,47.874,0,0,0,8.165,17.359l1.652,2.2,1.652-2.2a47.874,47.874,0,0,0,8.165-17.359l3.64.809a14.487,14.487,0,0,1,3.06,1.094ZM25.114,83.278a14.521,14.521,0,0,0,2.957.306H32.2a14.521,14.521,0,0,0,2.957-.306l1.115,4.46c-.285,1.383-.644,2.752-1.063,4.1H25.063q-.632-2.028-1.063-4.1ZM17.748,69.132V56.744a6.2,6.2,0,0,1,6.194-6.194h.153a16.523,16.523,0,0,0,14.3,8.258h2.065a2.068,2.068,0,0,1,2.065,2.065v8.258A10.335,10.335,0,0,1,32.2,79.455H28.071A10.335,10.335,0,0,1,17.748,69.132ZM33.68,95.972a43.842,43.842,0,0,1-3.545,6.72,43.662,43.662,0,0,1-3.545-6.72Zm12.982-8.36a18.717,18.717,0,0,0-2.174-.659l-4.4-.979-1.03-4.125a14.462,14.462,0,0,0,7.6-12.718V60.873a6.2,6.2,0,0,0-6.194-6.194H38.394A12.4,12.4,0,0,1,26.006,42.292H21.877a16.527,16.527,0,0,0,.551,4.241,10.337,10.337,0,0,0-8.81,10.212V69.132a14.462,14.462,0,0,0,7.6,12.718l-1.03,4.125-4.4.979a18.692,18.692,0,0,0-6.3,2.684,12.777,12.777,0,0,1-3.658-3.708A16.045,16.045,0,0,0,9.489,75.679V56.744A18.6,18.6,0,0,1,28.071,38.163H32.2A18.6,18.6,0,0,1,50.781,56.744V75.679a16.068,16.068,0,0,0,2.071,7.905H50.781a4.127,4.127,0,0,0-4.119,4.028Zm4.119,37.264V87.713h28.9l0,33.007c0,.01,0,.019,0,.027s0,.017,0,.027v4.1Zm28.9-41.292h-21.8a11.925,11.925,0,0,1-2.721-5.44,39.282,39.282,0,0,0,29.6-3.894,14.523,14.523,0,0,0,6.642,7.6l-1.03,4.125-4.4.979a18.684,18.684,0,0,0-2.172.659,4.131,4.131,0,0,0-4.121-4.028Zm30.969,41.292H87.944a4.129,4.129,0,1,1,0-8.258h22.711a6.185,6.185,0,0,0,5.814-4.129h8.473A14.462,14.462,0,0,1,110.655,124.876Zm14.452-16.517h-8.258V100.1h-4.129v10.323a2.068,2.068,0,0,1-2.065,2.065h-5.793a36.952,36.952,0,0,0,7.8-21.755l1.125.25a14.365,14.365,0,0,1,11.316,14.107Z" transform="translate(-0.783 -1)" fill="#0055b8"/>
  <path id="Path_484" data-name="Path 484" d="M27,57H47.646v4.129H27Z" transform="translate(27.128 58.617)" fill="#0055b8"/>
  <path id="Path_485" data-name="Path 485" d="M27,53H39.388v4.129H27Z" transform="translate(27.128 54.359)" fill="#0055b8"/>
  <path id="Path_486" data-name="Path 486" d="M43.517,51.194a2.065,2.065,0,1,1-4.129,0,6.194,6.194,0,0,0-12.388,0v6.194h4.129V51.194a2.065,2.065,0,1,1,4.129,0,6.194,6.194,0,0,0,12.388,0V45H43.517Z" transform="translate(27.128 45.842)" fill="#0055b8"/>
</svg>
