<svg id="Layer_1" fill="#0055B8" enable-background="new 0 0 512 512" viewBox="0 0 512 512" xmlns="http://www.w3.org/2000/svg"><g><g><g><g><g><path d="m424.485 383.393h-336.97c-22.056 0-40-17.944-40-40v-174.786c0-22.056 17.944-40 40-40h336.971c22.056 0 40 17.944 40 40v174.785c-.001 22.056-17.945 40.001-40.001 40.001zm-336.97-234.786c-11.028 0-20 8.972-20 20v174.785c0 11.028 8.972 20 20 20h336.971c11.028 0 20-8.972 20-20v-174.785c0-11.028-8.972-20-20-20z"/></g><g><g><path d="m137.412 233.267c-2.553 0-5.105-.971-7.057-2.915-4.656-4.638-7.22-10.817-7.22-17.401s2.564-12.764 7.22-17.401c3.912-3.898 10.244-3.885 14.142.028 3.897 3.913 3.885 10.244-.028 14.142-.498.496-1.334 1.576-1.334 3.231s.836 2.735 1.334 3.231c3.913 3.898 3.925 10.229.028 14.142-1.954 1.962-4.52 2.943-7.085 2.943z"/></g><g><path d="m116.769 253.91c-2.562 0-5.123-.978-7.075-2.933-10.153-10.166-15.745-23.67-15.745-38.026s5.591-27.861 15.745-38.026c3.903-3.907 10.234-3.912 14.142-.008 3.907 3.903 3.912 10.234.008 14.142-6.381 6.389-9.895 14.874-9.895 23.893s3.514 17.504 9.895 23.893c3.903 3.908 3.899 10.239-.008 14.142-1.953 1.949-4.51 2.923-7.067 2.923z"/></g></g><g><path d="m409.409 225.585h-55.453c-5.522 0-10-4.477-10-10v-35.023c0-5.523 4.478-10 10-10h55.453c5.522 0 10 4.477 10 10v35.023c0 5.523-4.477 10-10 10zm-45.453-20h35.453v-15.023h-35.453z"/></g><g><g><path d="m97.02 330.53c-14.375-.263-12.192-22.359 1.95-19.801 11.582 2.006 9.798 20.091-1.95 19.801z"/></g><g><path d="m136.76 330.53c-11.748.288-13.533-17.797-1.949-19.801 14.144-2.557 16.318 19.55 1.949 19.801z"/></g><g><path d="m176.51 330.53c-14.371-.254-12.193-22.361 1.951-19.801 11.58 2.007 9.797 20.091-1.951 19.801z"/></g><g><path d="m216.25 330.53c-14.359-.266-12.195-22.349 1.961-19.801 11.583 2.009 9.788 20.101-1.961 19.801z"/></g><g><path d="m256 330.53c-14.364-.256-12.186-22.36 1.951-19.801 11.581 2.008 9.798 20.09-1.951 19.801z"/></g><g><path d="m295.75 330.53c-14.367-.258-12.206-22.347 1.951-19.801 11.581 2.009 9.795 20.089-1.951 19.801z"/></g><g><path d="m335.49 330.53c-11.749.289-13.534-17.796-1.949-19.801 14.139-2.56 16.311 19.552 1.949 19.801z"/></g><g><path d="m375.24 330.53c-14.371-.253-12.194-22.361 1.95-19.801 11.581 2.006 9.799 20.09-1.95 19.801z"/></g><g><path d="m414.979 330.53c-11.747.288-13.532-17.797-1.948-19.801 14.144-2.558 16.319 19.551 1.948 19.801z"/></g></g></g></g></g><g><g><g><path d="m163.378 148.607c-5.523 0-10-4.477-10-10v-35.79h-70.318c-5.523 0-10-4.477-10-10v-41.035c0-5.523 4.477-10 10-10s10 4.477 10 10v31.036h70.319c5.523 0 10 4.477 10 10v45.79c-.001 5.522-4.478 9.999-10.001 9.999z"/></g><g><path d="m83.06 61.779c-17.033 0-30.89-13.857-30.89-30.889 0-17.033 13.857-30.89 30.89-30.89 17.032 0 30.889 13.857 30.889 30.89 0 17.032-13.857 30.889-30.889 30.889zm0-41.779c-6.004 0-10.89 4.885-10.89 10.89s4.885 10.889 10.89 10.889 10.889-4.885 10.889-10.889-4.885-10.89-10.889-10.89z"/></g></g><g><g><path d="m348.621 148.607c-5.522 0-10-4.477-10-10v-45.79c0-5.523 4.478-10 10-10h70.319v-31.035c0-5.523 4.478-10 10-10s10 4.477 10 10v41.036c0 5.523-4.478 10-10 10h-70.319v35.79c0 5.522-4.477 9.999-10 9.999z"/></g><g><path d="m428.94 61.779c-17.032 0-30.89-13.857-30.89-30.889 0-17.033 13.857-30.89 30.89-30.89s30.89 13.857 30.89 30.89c0 17.032-13.857 30.889-30.89 30.889zm0-41.779c-6.005 0-10.89 4.885-10.89 10.89s4.885 10.889 10.89 10.889 10.89-4.885 10.89-10.889-4.885-10.89-10.89-10.89z"/></g></g><g><path d="m207.667 148.607c-5.523 0-10-4.477-10-10v-21.519c0-5.523 4.477-10 10-10s10 4.477 10 10v21.519c0 5.523-4.478 10-10 10z"/></g><g><path d="m207.67 85.05c-14.372-.251-12.193-22.362 1.95-19.8 11.581 2.005 9.798 20.091-1.95 19.8z"/></g><g><path d="m304.333 148.607c-5.522 0-10-4.477-10-10v-21.519c0-5.523 4.478-10 10-10s10 4.477 10 10v21.519c0 5.523-4.478 10-10 10z"/></g><g><path d="m304.33 85.05c-11.747.291-13.533-17.798-1.949-19.8 14.144-2.559 16.317 19.55 1.949 19.8z"/></g><g><path d="m256 148.607c-5.523 0-10-4.477-10-10v-63.555c0-5.523 4.477-10 10-10 5.522 0 10 4.477 10 10v63.555c0 5.523-4.478 10-10 10z"/></g></g><g><g><g><path d="m83.06 470.218c-5.523 0-10-4.478-10-10v-41.035c0-5.522 4.477-10 10-10h70.319v-35.79c0-5.522 4.477-10 10-10s10 4.478 10 10v45.79c0 5.522-4.477 10-10 10h-70.319v31.035c0 5.522-4.477 10-10 10z"/></g><g><path d="m83.06 512c-17.033 0-30.89-13.857-30.89-30.89s13.857-30.89 30.89-30.89c17.032 0 30.889 13.857 30.889 30.89s-13.857 30.89-30.889 30.89zm0-41.779c-6.004 0-10.89 4.885-10.89 10.89s4.885 10.889 10.89 10.889 10.889-4.885 10.889-10.89-4.885-10.889-10.889-10.889z"/></g></g><g><g><path d="m428.94 470.218c-5.522 0-10-4.478-10-10v-31.035h-70.319c-5.522 0-10-4.478-10-10v-45.79c0-5.522 4.478-10 10-10s10 4.478 10 10v35.79h70.319c5.522 0 10 4.478 10 10v41.035c0 5.522-4.477 10-10 10z"/></g><g><path d="m428.94 512c-17.032 0-30.89-13.857-30.89-30.89s13.857-30.89 30.89-30.89 30.89 13.857 30.89 30.89-13.857 30.89-30.89 30.89zm0-41.779c-6.005 0-10.89 4.885-10.89 10.89s4.886 10.889 10.89 10.889 10.89-4.885 10.89-10.89-4.885-10.889-10.89-10.889z"/></g></g><g><path d="m207.667 404.911c-5.523 0-10-4.478-10-10v-21.519c0-5.522 4.477-10 10-10s10 4.478 10 10v21.519c0 5.523-4.478 10-10 10z"/></g><g><path d="m207.67 446.95c-11.754.274-13.54-17.779-1.959-19.811 14.14-2.551 16.327 19.533 1.959 19.811z"/></g><g><path d="m304.333 404.911c-5.522 0-10-4.478-10-10v-21.519c0-5.522 4.478-10 10-10s10 4.478 10 10v21.519c0 5.523-4.478 10-10 10z"/></g><g><path d="m304.33 446.95c-11.75.266-13.531-17.787-1.949-19.811 14.142-2.545 16.32 19.539 1.949 19.811z"/></g><g><path d="m256 446.947c-5.523 0-10-4.478-10-10v-63.555c0-5.522 4.477-10 10-10 5.522 0 10 4.478 10 10v63.555c0 5.523-4.478 10-10 10z"/></g></g></g></svg>