<svg xmlns="http://www.w3.org/2000/svg" width="128" height="128" viewBox="0 0 128 128">
  <g id="XD-SVG-logo" transform="translate(-2 -2)">
    <path id="Path_2982" data-name="Path 2982" d="M2,48.324C2,32.109,2,24,5.156,17.808A28.953,28.953,0,0,1,17.808,5.156C24,2,32.109,2,48.324,2H83.676C99.891,2,108,2,114.192,5.156a28.953,28.953,0,0,1,12.653,12.653C130,24,130,32.109,130,48.324V83.676c0,16.215,0,24.322-3.156,30.515a28.953,28.953,0,0,1-12.653,12.653C108,130,99.891,130,83.676,130H48.324c-16.215,0-24.322,0-30.515-3.156A28.953,28.953,0,0,1,5.156,114.192C2,108,2,99.891,2,83.676Z" fill="#470137"/>
    <path id="Path_2983" data-name="Path 2983" d="M54.67,10.927,38.7,37.964l17.087,28.71c.355.651,0,.795-.515.795H43.078c-.859,0-1.46-.031-1.8-.619q-1.719-3.435-3.435-6.826t-3.649-6.913q-1.932-3.521-3.821-7.133c-1.146,2.349-2.42,4.7-3.649,7.045s-2.448,4.683-3.649,7-2.433,4.624-3.692,6.913c-.229.528-.631.583-1.2.583H6.413c-.462,0-.518-.347-.258-.759L22.727,38.845,6.584,10.839a.473.473,0,0,1,.429-.793H19.121a1.388,1.388,0,0,1,1.288.617q1.546,3.523,3.435,7.045t3.821,6.957c1.288,2.29,2.562,4.609,3.649,6.958q1.716-3.61,3.477-7.045T38.4,17.665q1.846-3.478,3.563-6.913a.909.909,0,0,1,1.03-.7H54.24C54.67,10.046,54.847,10.633,54.67,10.927Z" transform="translate(14.286 28.713)" fill="#ff61f6"/>
    <path id="Path_2984" data-name="Path 2984" d="M39.546,72.326c-7.573.118-15.5-3-19.492-9.908a24.289,24.289,0,0,1-2.919-12.462,23.458,23.458,0,0,1,2.919-11.537c5.018-8.97,15.127-12.331,24.73-11.449V9.621c0-.41.172-.616.515-.616H56.119a.466.466,0,0,1,.515.528V61.581c0,2.147.213,4.287.344,6.429a.931.931,0,0,1-.516.881A43.562,43.562,0,0,1,39.546,72.326Zm5.238-10.921V37.363A12.259,12.259,0,0,0,29.328,49.428C29.142,57.979,36.513,63.886,44.784,61.405Z" transform="translate(54.052 25)" fill="#ff61f6"/>
  </g>
</svg>
