<svg id="numpy" xmlns="http://www.w3.org/2000/svg" width="300" height="105.199" viewBox="0 0 300 105.199">
  <path id="Path_3187" data-name="Path 3187" d="M248.436,73.664a2.726,2.726,0,0,1,.767.213,2.641,2.641,0,0,1,.653.44,8.043,8.043,0,0,1,.705.767l19.647,24.835c-.08-.79-.133-1.567-.17-2.31s-.057-1.453-.057-2.116V73.583h8.458v41.358h-5a4.582,4.582,0,0,1-1.87-.341,4.009,4.009,0,0,1-1.477-1.25L250.589,88.739c.062.715.1,1.42.142,2.111s.062,1.339.062,1.945v22.17H242.33V73.583h5.05a8.146,8.146,0,0,1,1.055.08ZM292.345,85.5v18.677a5.139,5.139,0,0,0,.994,3.379,3.607,3.607,0,0,0,2.925,1.193,6.276,6.276,0,0,0,2.712-.6,10.115,10.115,0,0,0,2.456-1.676V85.5h8.8v29.435h-5.448a2.078,2.078,0,0,1-2.163-1.477l-.535-1.7a17.659,17.659,0,0,1-1.761,1.5,11.037,11.037,0,0,1-1.945,1.131,11.618,11.618,0,0,1-2.248.748,11.832,11.832,0,0,1-2.608.27,10.294,10.294,0,0,1-4.26-.838,8.837,8.837,0,0,1-3.138-2.338,10.262,10.262,0,0,1-1.931-3.55,14.673,14.673,0,0,1-.653-4.487V85.5Zm23.561,29.445V85.5h5.453a2.428,2.428,0,0,1,1.377.369,1.993,1.993,0,0,1,.781,1.108l.473,1.59a15.73,15.73,0,0,1,1.529-1.42,9.86,9.86,0,0,1,1.718-1.108,9.315,9.315,0,0,1,4.331-1.008,6.91,6.91,0,0,1,4.416,1.377,8.586,8.586,0,0,1,2.651,3.673,8.856,8.856,0,0,1,1.8-2.329,9.665,9.665,0,0,1,2.3-1.557,11.211,11.211,0,0,1,2.608-.88,13.551,13.551,0,0,1,2.745-.284,12.448,12.448,0,0,1,4.482.753,8.543,8.543,0,0,1,3.28,2.187,9.537,9.537,0,0,1,2,3.521,15.146,15.146,0,0,1,.682,4.733v18.705h-8.8V96.236q0-4.572-3.914-4.567a4,4,0,0,0-2.968,1.179,4.567,4.567,0,0,0-1.179,3.389v18.705h-8.789V96.236a5.036,5.036,0,0,0-.994-3.55,3.9,3.9,0,0,0-2.925-1.018,4.984,4.984,0,0,0-2.258.535,8.387,8.387,0,0,0-2,1.448v21.3Zm57.342-13.825v13.825h-9.594V73.583h14.587a24.073,24.073,0,0,1,7.511,1.027,14.432,14.432,0,0,1,5.164,2.84,11.057,11.057,0,0,1,3,4.288,14.5,14.5,0,0,1,.947,5.334,15.67,15.67,0,0,1-.994,5.68,11.4,11.4,0,0,1-3.039,4.43,14.2,14.2,0,0,1-5.178,2.878,23.618,23.618,0,0,1-7.407,1.055Zm0-7.237h4.993c2.5,0,4.3-.592,5.4-1.789a7.076,7.076,0,0,0,1.647-4.993,7.475,7.475,0,0,0-.426-2.584,5.259,5.259,0,0,0-1.292-2,5.874,5.874,0,0,0-2.187-1.292,9.8,9.8,0,0,0-3.138-.473h-4.993Zm38.66,28.7a3.167,3.167,0,0,1-.947,1.287,3.133,3.133,0,0,1-1.817.412h-6.6l5.68-11.918L396.474,85.5h7.777a2.485,2.485,0,0,1,1.59.473,2.438,2.438,0,0,1,.8,1.079l4.823,12.69a27.921,27.921,0,0,1,1.108,3.507c.189-.606.4-1.2.625-1.784s.445-1.183.653-1.789l4.373-12.633a2.13,2.13,0,0,1,.895-1.093,2.556,2.556,0,0,1,1.42-.44h7.1Z" transform="translate(-127.632 -38.752)" fill="#4d77cf"/>
  <path id="Path_3188" data-name="Path 3188" d="M10.49,22.132,28.542,31.2l18.814-9.821L29.782,12.5ZM54.726,44.345,36.645,35.267l18.772-9.826,18.426,9.305Zm27.3-13.712L63.563,21.318l16.467-8.681,18.933,9.495ZM37.975,8.416,55.54,17.271,71.879,8.548,54.835,0ZM79.2,94.895l-.019-23.268L58.555,81.94V105.2ZM58.555,50.72V73.752L79.172,63.5l-.024-23.022ZM86.348,91.326l-.014-23.24,17.626-8.894V82.541Zm-.033-54.407.014,23.069,17.631-8.96V28.148Z" transform="translate(-5.525)" fill="#4dabcf"/>
  <path id="Path_3189" data-name="Path 3189" d="M45.741,81.189l-13.906-7V104.41S14.824,68.22,13.253,64.969A3.466,3.466,0,0,0,12,63.975C8.936,62.375,0,57.85,0,57.85v53.4l12.363,6.626V89.955s16.826,32.337,17,32.692,1.855,3.758,3.663,4.956c2.4,1.6,12.7,7.791,12.7,7.791Z" transform="translate(0 -30.469)" fill="#4d77cf"/>
</svg>
