<svg xmlns="http://www.w3.org/2000/svg" width="299.997" height="107.096" viewBox="0 0 299.997 107.096">
  <g id="opencv" transform="translate(-2.585 -9.037)">
    <g id="Group_1444" data-name="Group 1444" transform="translate(2.585 9.037)">
      <path id="Path_3190" data-name="Path 3190" d="M5.282,38.983a24.672,24.672,0,1,1,24.672,0L22.526,26.117a9.815,9.815,0,1,0-9.815,0Z" transform="translate(43.716 7.056)" fill="#ff0101"/>
      <path id="Path_3191" data-name="Path 3191" d="M12.338,46.039a24.672,24.672,0,1,1,24.672,0L29.582,33.173a9.815,9.815,0,1,0-9.815,0Z" transform="translate(114.184 98.064) rotate(180)" fill="#0101ff"/>
      <path id="Path_3192" data-name="Path 3192" d="M12.339,46.042a24.674,24.674,0,1,1,24.674,0L29.584,33.175a9.816,9.816,0,1,0-9.816,0Z" transform="translate(24.675 107.096) rotate(-119.998)" fill="#01ff01"/>
    </g>
    <path id="Path_3193" data-name="Path 3193" d="M49.031,16.85a45.41,45.41,0,0,1,10.514.188c2.145.376,4.421.935,6.031,2.5,1.688,1.881,2.1,4.5,2.473,6.913a66.494,66.494,0,0,1,0,15.088c-.36,2.419-.712,5.085-2.311,7.074-1.747,1.774-4.3,2.279-6.719,2.653a47.421,47.421,0,0,1-10.549.188,15.231,15.231,0,0,1-6.88-2.016A6.653,6.653,0,0,1,39.1,45.721a34.284,34.284,0,0,1-1.209-9.192,61.167,61.167,0,0,1,.86-12.2c.43-1.873.951-3.932,2.534-5.179,2.231-1.618,5.061-2.008,7.73-2.285Zm.578,5.59a32.745,32.745,0,0,1,8.923.269c1.137.228,2.478.806,2.688,2.075.887,3.639.683,7.431.718,11.154-.108,2.647-.048,5.381-.935,7.915-.774,1.666-2.884,1.8-4.475,2.043-3.19.18-6.5.341-9.595-.6-1.424-.376-1.881-1.881-2.1-3.193a65.89,65.89,0,0,1-.323-11.514,23.1,23.1,0,0,1,.906-6.45c.887-1.344,2.72-1.492,4.193-1.715Zm31.252,6A11.494,11.494,0,0,1,88.075,27.1c2.284.2,4.827.973,6.053,3.08,1.462,2.645,1.545,5.768,1.648,8.716-.065,3.032-.121,6.2-1.344,9.017a5.939,5.939,0,0,1-4.117,3.279,13.4,13.4,0,0,1-8.251-.341,7.145,7.145,0,0,1-3.177-2.964V61.742H72.924V27.332h5.757l-.161,3.542a9.623,9.623,0,0,1,2.346-2.424Zm1.935,3.1a10.366,10.366,0,0,1,4.972.521,3.175,3.175,0,0,1,1.68,2.473,30.082,30.082,0,0,1,.269,7.923c-.183,1.591-.438,3.65-2.19,4.265a9.581,9.581,0,0,1-6.332-.07c-1.86-.806-2.078-3.037-2.258-4.784a23.821,23.821,0,0,1,.538-8.047,3.576,3.576,0,0,1,3.349-2.285Zm20.077-3.077c2.916-1.5,6.332-1.551,9.533-1.4,2.688.223,5.9.667,7.364,3.217,1.656,3.077,1.387,6.719,1.618,10.073H105.155c.188,1.742-.035,3.62.844,5.214.753,1.263,2.344,1.519,3.69,1.594,1.666.011,3.456.148,4.991-.626.879-.688.887-1.881.994-2.919h5.7c-.07,1.981-.323,4.2-1.916,5.6-2.419,2.142-5.805,2.365-8.861,2.424-2.7-.081-5.545-.215-7.961-1.545-1.954-1.156-2.58-3.494-2.921-5.644a36.717,36.717,0,0,1-.175-9.407c.3-2.459.968-5.375,3.333-6.63Zm3.494,3.776c1.621-.984,3.628-.787,5.445-.761,1.129.121,2.5.188,3.233,1.183.747,1.231.618,2.741.618,4.12-3.494.005-6.98.016-10.471,0,.054-1.537-.067-3.413,1.172-4.569Zm27.683-3.763a10.378,10.378,0,0,1,7.122-1.344A7.367,7.367,0,0,1,146.62,29.9a8.716,8.716,0,0,1,1.392,5.107l0,16.319h-5.663l-.008-15.435c-.054-1.123-.011-2.424-.86-3.29a4.687,4.687,0,0,0-3.575-1.156,6.365,6.365,0,0,0-4.349,1.306,5.162,5.162,0,0,0-1.591,4.018l-.005,14.559h-5.631v-24h5.537l-.188,4.209a7.673,7.673,0,0,1,2.349-3.059ZM158.185,17.92a33.065,33.065,0,0,1,9.676-1.309c3.15.016,6.445.046,9.388,1.344a5.641,5.641,0,0,1,3.037,3.494,20.785,20.785,0,0,1,.86,7.06c-2.169,0-4.338.005-6.5,0-.035-1.666.091-3.537-.941-4.953-1.075-1.067-2.677-1.064-4.031-1.228-2.822-.054-5.752-.234-8.453.739a2.767,2.767,0,0,0-1.674,2.22,35.3,35.3,0,0,0-.554,7.679,50.472,50.472,0,0,0,.712,10.283,3.026,3.026,0,0,0,2.467,2.266,27.67,27.67,0,0,0,8.076.4c1.4-.183,3.112-.277,3.994-1.564.941-1.537.806-3.427.734-5.152h6.566a23.173,23.173,0,0,1-1.064,8.122,5.2,5.2,0,0,1-2.956,3.01c-2.68,1.075-5.644,1.142-8.458,1.344a39.754,39.754,0,0,1-9.856-.793c-1.889-.492-3.951-1.36-4.83-3.236-1.118-2.483-1.322-5.246-1.613-7.918l-.309-10.6c.169-2.862.43-5.881,1.975-8.375a6.765,6.765,0,0,1,3.763-2.768Zm24.39-1,6.778.032L196.186,37.8l2.365,8.1,2.62-8.751,6.563-20.192,6.7-.04v.739L203.579,51.287c-3.36.067-6.719.081-10.079-.005L182.578,16.923Z" transform="translate(88.144 18.909)" fill="#050505" fill-rule="evenodd"/>
  </g>
</svg>
