<svg xmlns="http://www.w3.org/2000/svg" width="300.011" height="100.329" viewBox="0 0 300.011 100.329">
  <g id="pytorch" transform="translate(-5.543 -9.305)">
    <path id="Path_3174" data-name="Path 3174" d="M76.738,38.784l-7.28,7.292a31.15,31.15,0,1,1-44.062,0L44.822,26.649l2.433-2.775V9.305L17.765,38.784A41.457,41.457,0,1,0,76.4,97.411a40.948,40.948,0,0,0,.342-58.627Zm0,0" transform="translate(0 0)" fill="#ee4c2c"/>
    <path id="Path_3175" data-name="Path 3175" d="M30.082,19.142a5.552,5.552,0,1,1-5.552-5.552,5.554,5.554,0,0,1,5.552,5.552Zm0,0" transform="translate(37.638 12.004)" fill="#ee4c2c"/>
    <path id="Path_3176" data-name="Path 3176" d="M43.351,46.776h-5.7V61.447H33.387V19.806H43.8c11.033,0,16.245,5.36,16.245,13.127,0,9.147-6.474,13.724-16.72,13.869Zm.281-23.02H37.5V42.841l6-.167c7.885-.148,12.147-3.308,12.147-9.77,0-5.836-4.1-9.147-11.983-9.147ZM79.3,61.279,76.78,67.906c-2.836,7.413-5.7,9.622-9.938,9.622a14.458,14.458,0,0,1-6-1.426l1.262-3.771a9.7,9.7,0,0,0,4.737,1.262c2.365,0,4.1-1.262,6.311-7.128l2.053-5.36L63.383,30.972h4.41l9.626,25.244,9.459-25.244h4.262Zm26.019-37.36V61.61h-4.262V23.92H86.4V19.806h33.577v3.95H105.328Zm26.654,38.474c-8.524,0-14.834-6.311-14.834-16.093s6.474-16.249,15.12-16.249c8.508,0,14.671,6.311,14.671,16.1,0,9.771-6.474,16.249-14.983,16.249Zm.152-28.513c-6.463,0-10.721,5.2-10.721,12.3,0,7.413,4.421,12.462,10.881,12.462s10.721-5.2,10.721-12.3c0-7.425-4.421-12.458-10.884-12.458Zm25.4,27.73H153.42v-30.6l4.106-.791V36.69c2.045-3.95,5.045-6.474,8.995-6.474a11.178,11.178,0,0,1,5.361,1.426l-1.114,3.935a9.129,9.129,0,0,0-4.722-1.262c-3.163,0-6.147,2.376-8.672,7.885V61.61Zm30.589.787c-9.147,0-14.983-6.623-14.983-16.1,0-9.611,6.311-16.249,14.979-16.249a17.194,17.194,0,0,1,9.626,2.688l-1.1,3.787A15.154,15.154,0,0,0,188.114,34c-6.623,0-10.721,4.885-10.721,12.147,0,7.413,4.425,12.3,10.884,12.3a15.929,15.929,0,0,0,8.524-2.524l.787,3.787a17.474,17.474,0,0,1-9.474,2.673Zm35.166-.787V41.887c0-5.36-2.2-7.691-6.463-7.691a13.335,13.335,0,0,0-9.459,4.41V61.789h-4.114v-45.1l4.114-.787V35.131c3.152-3.148,7.25-4.885,10.561-4.885,6,0,9.622,3.787,9.622,10.409v20.97Zm0,0" transform="translate(78.011 18.472)" fill="#252525"/>
  </g>
</svg>
