<svg xmlns="http://www.w3.org/2000/svg" width="300" height="83.025" viewBox="0 0 300 83.025">
  <g id="tensorflow" transform="translate(-5.65 -14.96)">
    <path id="Path_3182" data-name="Path 3182" d="M39.276,59.658l11.207-6.5,11.041,6.5L50.483,66.023,39.276,59.8ZM5.65,40.424,50.505,14.96,83.85,33.918,72.809,53.152,50.533,40.421l-33.621,19.1Z" transform="translate(0)" fill="#f6bd3a"/>
    <path id="Path_3183" data-name="Path 3183" d="M32.126,77V64.267L43.167,57.9l11.207-6.365V64.267L43.333,70.632V83.363l-11.207,6.5Zm0-25.458L20.919,45.174,9.712,51.4V38.668l33.621-19.1V45.033ZM65.47,38.671V32.305l11.207-6.5.138,12.731-11.207,6.5Z" transform="translate(7.15 8.119)" fill="#eb8c23"/>
    <path id="Path_3184" data-name="Path 3184" d="M28.064,83.085V45.172l11.041-6.227.138,12.593L50.45,57.765V70.633L39.243,64.682V89.865ZM11.187,48.079,5.65,44.758V32.309l11.207,6.365V51.405ZM50.483,32.3V19.573L72.621,32.3l.138,12.731Z" transform="translate(0 8.12)" fill="#e35a2b"/>
    <path id="Path_3185" data-name="Path 3185" d="M51.477,29V58.255H46.334V29H36.342V23.95H61.461v5.043Zm27.01,10.627a14.465,14.465,0,0,1,.417,3.892L62.311,48.434c.13,1.242.094.737.483,1.62a7.4,7.4,0,0,0,1.469,2.208,5.46,5.46,0,0,0,1.932,1.27,6.054,6.054,0,0,0,2.252.414,7.808,7.808,0,0,0,2.962-.538,11.014,11.014,0,0,0,2.62-1.518l2.987,3.23a12.173,12.173,0,0,1-3.82,2.5,13.039,13.039,0,0,1-5.043.883,10.655,10.655,0,0,1-4.284-.881,9.8,9.8,0,0,1-3.55-2.595,12.653,12.653,0,0,1-2.4-4.212,17.066,17.066,0,0,1-.883-5.681,18.074,18.074,0,0,1,.834-5.777,12.747,12.747,0,0,1,2.3-4.187,9.606,9.606,0,0,1,3.55-2.57,11.621,11.621,0,0,1,4.579-.881,10.425,10.425,0,0,1,4.775,1.03,9.993,9.993,0,0,1,3.379,2.76,11.98,11.98,0,0,1,2.007,4.14Zm-4.822,1.159a5.932,5.932,0,0,0-1.176-2.631,4.306,4.306,0,0,0-1.836-1.4,6.959,6.959,0,0,0-2.669-.386c-1.656.075-3.588.657-4.5,1.932s-1.206,3.486-1.17,5.844ZM97.119,57.935V43.388c0-2.611-.469-4.417-1.4-5.485a4.84,4.84,0,0,0-3.864-1.568,4.738,4.738,0,0,0-3.92,1.711,7.568,7.568,0,0,0-1.372,4.847V57.927H81.5v-25.7h5.043v2.448a6.6,6.6,0,0,1,2.719-2.2A8.645,8.645,0,0,1,93,31.69a8.26,8.26,0,0,1,6.832,2.89c1.551,1.924,2.327,4.8,2.327,8.618v14.74H97.119Zm25.759-6.757a7.3,7.3,0,0,1-.809,3.6,6.625,6.625,0,0,1-2.131,2.327,9.309,9.309,0,0,1-3.036,1.27,16.562,16.562,0,0,1-3.649.392,15.6,15.6,0,0,1-5.264-.93,18.025,18.025,0,0,1-4.579-2.352l2.275-3.793a14.271,14.271,0,0,0,3.746,1.91,11.937,11.937,0,0,0,3.746.635q4.7,0,4.7-2.843a2.626,2.626,0,0,0-1.59-2.346,34.012,34.012,0,0,0-4.383-1.932,26.5,26.5,0,0,1-3.5-1.59,10.342,10.342,0,0,1-2.352-1.739,5.521,5.521,0,0,1-1.3-2.081,8.249,8.249,0,0,1-.392-2.669A6.952,6.952,0,0,1,105,36a5.935,5.935,0,0,1,1.811-2.2,8.322,8.322,0,0,1,2.76-1.325,13.151,13.151,0,0,1,3.525-.442,14.336,14.336,0,0,1,4.726.784,14.635,14.635,0,0,1,3.991,2.056l-2.167,3.848a11.912,11.912,0,0,0-3.183-1.664,10.81,10.81,0,0,0-3.478-.538,4.289,4.289,0,0,0-2.694.662,2.07,2.07,0,0,0-.834,1.689,2.1,2.1,0,0,0,.2.905,2.3,2.3,0,0,0,.734.828,8.281,8.281,0,0,0,1.444.905q1.162.579,2.374,1.052l3.771,1.593a11.759,11.759,0,0,1,2.719,1.714,6.045,6.045,0,0,1,1.64,2.228,7.91,7.91,0,0,1,.538,3.086Zm23.457-5.926a17.137,17.137,0,0,1-.883,5.706A12.026,12.026,0,0,1,143,55.216a10.462,10.462,0,0,1-3.671,2.644,11.384,11.384,0,0,1-4.6.905,10.389,10.389,0,0,1-8.079-3.674,12.857,12.857,0,0,1-2.374-4.212,16.55,16.55,0,0,1-.828-5.485,16.767,16.767,0,0,1,.883-5.631,12.722,12.722,0,0,1,2.424-4.237,9.992,9.992,0,0,1,3.624-2.644,11.362,11.362,0,0,1,4.527-.905,10.88,10.88,0,0,1,8.2,3.624,12.124,12.124,0,0,1,2.4,4.187,16.52,16.52,0,0,1,.828,5.46Zm-5.093.146A10.1,10.1,0,0,0,139.5,39.1a5.716,5.716,0,0,0-4.822-2.327,5.217,5.217,0,0,0-4.527,2.327,10.485,10.485,0,0,0-1.64,6.147q0,4.265,1.767,6.487a5.631,5.631,0,0,0,4.651,2.228,5.071,5.071,0,0,0,2.595-.685,6.515,6.515,0,0,0,2.007-1.836,8.529,8.529,0,0,0,1.272-2.719,12.277,12.277,0,0,0,.442-3.329Zm21.351-7.541a8.53,8.53,0,0,0-1.714-.685,7.946,7.946,0,0,0-2.153-.276,4.466,4.466,0,0,0-3.721,1.664,7.872,7.872,0,0,0-1.325,4.946V58.2h-5.043V32.488h5.043v2.448a7.161,7.161,0,0,1,5.877-2.987,9.954,9.954,0,0,1,2.567.271,5.825,5.825,0,0,1,1.786.809l-1.325,4.8Z" transform="translate(54.028 15.825)" fill="#ef6639"/>
    <path id="Path_3186" data-name="Path 3186" d="M88.427,29.9v8.963h9.843v5.043H88.427V59.135H83.285V24.855h22.083V29.9ZM106.2,59.132V26.08l5.043-2.644v35.7Zm30.805-12.974a17.208,17.208,0,0,1-.883,5.706,12.413,12.413,0,0,1-2.448,4.259A10.461,10.461,0,0,1,130,58.768a11.478,11.478,0,0,1-4.6.905A10.389,10.389,0,0,1,117.32,56a12.856,12.856,0,0,1-2.374-4.212,16.55,16.55,0,0,1-.828-5.485A16.767,16.767,0,0,1,115,40.671a12.722,12.722,0,0,1,2.424-4.237,10,10,0,0,1,3.624-2.644,11.361,11.361,0,0,1,4.527-.905,10.88,10.88,0,0,1,8.2,3.624,12.124,12.124,0,0,1,2.4,4.187,16.52,16.52,0,0,1,.828,5.46Zm-5.093.146a10.1,10.1,0,0,0-1.739-6.294,5.715,5.715,0,0,0-4.822-2.327,5.225,5.225,0,0,0-4.527,2.327,10.485,10.485,0,0,0-1.64,6.147q0,4.265,1.767,6.487a5.631,5.631,0,0,0,4.651,2.228,5.051,5.051,0,0,0,2.595-.685,6.514,6.514,0,0,0,2.007-1.836,8.5,8.5,0,0,0,1.27-2.719,12.4,12.4,0,0,0,.442-3.329Zm29.969,12.83h-4.306L154.1,46.162l-.759-3.009-.563-2.473-.563,2.5-.759,3.036-3.428,12.929h-4.306l-7.053-25.71h4.969l3.036,12.488.734,3.086.538,2.548.635-2.548.784-3.086,3.428-12.488h4.066l3.478,12.537.759,3.064.613,2.523.563-2.567.709-3.064,3.036-12.488h4.969Z" transform="translate(136.662 14.92)" fill="#a6a7a9"/>
  </g>
</svg>
