<svg xmlns="http://www.w3.org/2000/svg" width="129.876" height="126.872" viewBox="0 0 129.876 126.872">
  <g id="education" transform="translate(0.001 -2.052)">
    <path id="Path_3278" data-name="Path 3278" d="M125.816,117.122V98.111a6.073,6.073,0,0,0-2.029-11.8h-10.52a6.014,6.014,0,0,0,.374-2.029,6.078,6.078,0,0,0-4.059-5.714V74.133h6.455l-3.549-21.29a7.057,7.057,0,0,0-2.905-11.862V32.149L104.3,30.136s7.342-3.28,10.155-4.588,3.421-3.125-.812-5S72.535,3.962,69.753,2.849a12.417,12.417,0,0,0-8.754,0C57.94,3.861,25.34,16.872,19.67,19.21S16,26.3,19.124,27.423s13.346,5.47,13.346,5.47V57.9H24.352a16.217,16.217,0,0,0-9.459,29.4,21.306,21.306,0,0,0,6.415,41.624H123.787a6.073,6.073,0,0,0,2.029-11.8Zm-4.059-14.579H85.231V106.6h36.527v10.146H20.949a9.132,9.132,0,1,1,0-18.264H121.758ZM105.524,78.192H24.352a4.059,4.059,0,1,1,0-8.117h24.3A61.112,61.112,0,0,0,64.938,72.1a61.111,61.111,0,0,0,16.284-2.029H99.746l-.677,4.059h6.455ZM96.288,61.958H101.1l-.677,4.059H91.037a24.651,24.651,0,0,0,5.251-4.059Zm14.956,8.117h-7.383l2.555-15.334a5.682,5.682,0,0,0,2.273,0ZM110.6,47.753a3.044,3.044,0,1,1-3.044-3.044,3.044,3.044,0,0,1,3.044,3.044Zm-5.073-12.8v6.034a7.057,7.057,0,0,0-2.905,11.862l-.843,5.055H97.407V32.893l1.329-.532ZM64.938,5.294,110.206,23.4,98.7,28,65.66,15.417,64.216,19.21,93.138,30.229l-28.2,11.279L19.67,23.4ZM61,44c3.875,1.423,4.75,1.548,8.638,0s23.711-9.484,23.711-9.484V59.16c-1.818,1.885-9.831,8.886-28.41,8.886-18.6,0-26.609-7.017-28.41-8.884V34.516S57.124,42.578,61,44ZM12.177,74.133A12.189,12.189,0,0,1,24.352,61.958h9.235a24.651,24.651,0,0,0,5.251,4.059H24.352a8.117,8.117,0,1,0,0,16.234h83.2a2.029,2.029,0,0,1,0,4.059h-83.2A12.189,12.189,0,0,1,12.177,74.133Zm111.61,50.732H21.309a17.249,17.249,0,1,1,0-34.5H123.787a2.029,2.029,0,1,1,0,4.059H20.949a13.19,13.19,0,0,0,0,26.381H123.787a2.029,2.029,0,1,1,0,4.059Z" transform="translate(0)" fill="#0055b8"/>
    <path id="Path_3279" data-name="Path 3279" d="M0,0H56.82V4.059H0Z" transform="translate(20.294 108.631)" fill="#0055b8"/>
  </g>
</svg>
