<svg xmlns="http://www.w3.org/2000/svg" width="127.728" height="128.003" viewBox="0 0 127.728 128.003">
  <g id="icon" transform="translate(-0.549)">
    <path id="Path_3015" data-name="Path 3015" d="M112.61,41.84h-9.227V23.682a11.792,11.792,0,0,0-3.26-8.126L94.161,9.317C89.1,4.1,88.463,2.632,85.45,1.169A11.79,11.79,0,0,0,80.345,0H36.8A11.777,11.777,0,0,0,25.033,11.763V75.2H22.552a6.782,6.782,0,0,0-4.816,11.562,6.762,6.762,0,0,0-1.971,4.776,6.962,6.962,0,0,0,.133,1.342C1.172,94.377-4.695,112.6,6.083,122.5a16.992,16.992,0,0,0,12.261,4.492l33.465-.012a6.782,6.782,0,0,0,4.816-11.562,6.749,6.749,0,0,0,1.961-4.439h2.546v1.36A15.684,15.684,0,0,0,76.8,128H112.61a15.684,15.684,0,0,0,15.667-15.667V57.506A15.684,15.684,0,0,0,112.61,41.84ZM96.6,17.7s0,0,.005.005h0a.054.054,0,0,0,.01.012l0,0a.042.042,0,0,0,.015.015.035.035,0,0,1,.008.01s0,0,0,0,0,0,.007.007.007.007.01.01H86.59V7.111C94.488,15.458,96.268,17.341,96.6,17.7ZM22.552,79.221H51.809a2.765,2.765,0,1,1,0,5.53H22.552a2.765,2.765,0,1,1,0-5.53Zm0,9.551H51.809a2.765,2.765,0,1,1,0,5.53H31.6a16.378,16.378,0,0,0-2.546-.92,16.95,16.95,0,0,0-4.022-.591c-.395-.01-.789-.008-1.184.01H20.1a2.718,2.718,0,0,1-.309-1.264A2.77,2.77,0,0,1,22.552,88.772Zm32.022,12.316a2.768,2.768,0,0,1-2.765,2.765H40.556a16.915,16.915,0,0,0-3.413-5.53H51.809A2.77,2.77,0,0,1,54.574,101.088Zm-41.8-3.609A17.351,17.351,0,0,0,9.6,101.541H7.259A13.28,13.28,0,0,1,12.769,97.479ZM5.12,105.311H8.049a17.359,17.359,0,0,0-.548,3.014H4.407A13.213,13.213,0,0,1,5.12,105.311Zm.324,9.966a13.2,13.2,0,0,1-.945-3.182H7.571a15.174,15.174,0,0,0,.719,3.182Zm2.509,3.77c1.234,0,1.951,0,2.119-.005a16.981,16.981,0,0,0,2.7,3.273A13.284,13.284,0,0,1,7.953,119.047Zm17.157,4.175a13.328,13.328,0,0,1-13.9-12.756c-.505-11.74,13.518-18.5,22.347-10.4C42.265,108.06,36.967,122.734,25.11,123.222Zm26.7-.266H35.579a17.226,17.226,0,0,0,4.321-5.53H51.809a2.765,2.765,0,0,1,0,5.53Zm2.742-11.979a2.766,2.766,0,0,1-2.742,2.428H41.287a17.276,17.276,0,0,0,.244-5.53H51.809A2.767,2.767,0,0,1,54.551,110.976Zm6.58-4.022H57.5a6.672,6.672,0,0,0-.877-1.091,6.771,6.771,0,0,0,0-9.551,6.772,6.772,0,0,0,0-9.551A6.792,6.792,0,0,0,51.809,75.2H29.054V11.763A7.751,7.751,0,0,1,36.8,4.022H82.569V19.774a2.01,2.01,0,0,0,2.011,2.011H99.123c.42,1.629.161,1.091.239,20.055H76.8A15.684,15.684,0,0,0,61.131,57.506v49.448Zm63.376,5.382a11.909,11.909,0,0,1-11.9,11.9H76.8a11.911,11.911,0,0,1-11.9-11.9V57.506a11.911,11.911,0,0,1,11.9-11.9h35.812a11.909,11.909,0,0,1,11.9,11.9v54.83Z" fill="#0055b8"/>
    <path id="Path_3016" data-name="Path 3016" d="M322.632,199.538H287.086a6.329,6.329,0,0,0-6.329,6.329v6.9a6.329,6.329,0,0,0,6.329,6.329h6.839a1.885,1.885,0,0,0,0-3.77h-6.839a2.566,2.566,0,0,1-2.559-2.559v-6.9a2.566,2.566,0,0,1,2.559-2.559h35.546a2.561,2.561,0,0,1,2.559,2.559v6.9a2.561,2.561,0,0,1-2.559,2.559H302.054a1.885,1.885,0,0,0,0,3.77h20.578a6.336,6.336,0,0,0,6.329-6.329v-6.9A6.336,6.336,0,0,0,322.632,199.538Z" transform="translate(-210.155 -149.652)" fill="#0055b8"/>
    <path id="Path_3017" data-name="Path 3017" d="M291.145,358.428H284.7a3.951,3.951,0,0,0-3.946,3.946v6.44a3.951,3.951,0,0,0,3.946,3.946h6.442a3.95,3.95,0,0,0,3.946-3.946v-6.44A3.95,3.95,0,0,0,291.145,358.428Zm.176,10.386a.177.177,0,0,1-.176.176H284.7a.177.177,0,0,1-.176-.176v-6.44a.177.177,0,0,1,.176-.176h6.442a.177.177,0,0,1,.176.176Z" transform="translate(-210.155 -268.819)" fill="#0055b8"/>
    <path id="Path_3018" data-name="Path 3018" d="M427.442,291.068H421a3.95,3.95,0,0,0-3.946,3.946v6.44A3.95,3.95,0,0,0,421,305.4h6.44a3.95,3.95,0,0,0,3.946-3.946v-6.44A3.95,3.95,0,0,0,427.442,291.068Zm.176,10.386a.175.175,0,0,1-.176.176H421a.177.177,0,0,1-.176-.176c.078-6.372-.164-6.616.176-6.616h6.44a.175.175,0,0,1,.176.176Z" transform="translate(-312.378 -218.3)" fill="#0055b8"/>
    <path id="Path_3019" data-name="Path 3019" d="M291.145,291.068H284.7a3.951,3.951,0,0,0-3.946,3.946v6.44A3.951,3.951,0,0,0,284.7,305.4h6.442a3.95,3.95,0,0,0,3.946-3.946v-6.44A3.95,3.95,0,0,0,291.145,291.068Zm.176,10.386a.177.177,0,0,1-.176.176H284.7a.177.177,0,0,1-.176-.176v-6.44a.177.177,0,0,1,.176-.176h6.442a.177.177,0,0,1,.176.176Z" transform="translate(-210.155 -218.3)" fill="#0055b8"/>
    <path id="Path_3020" data-name="Path 3020" d="M294.078,423.821a3.944,3.944,0,0,0-2.953-1.33h-6.442a3.934,3.934,0,0,0-2.951,1.33c-1.37,1.536-.9,3.21-1,4.022v5.035a3.951,3.951,0,0,0,3.946,3.946h6.442a3.95,3.95,0,0,0,3.946-3.946v-5.035C294.981,427.048,295.441,425.356,294.078,423.821Zm-2.953,9.232c-6.364-.078-6.618.163-6.618-.176,0-6.819-.076-6.616.176-6.616h6.442c.309,0,.118.43.176,1.581C291.3,427.842,291.464,433.053,291.125,433.053Z" transform="translate(-210.135 -316.866)" fill="#0055b8"/>
    <path id="Path_3021" data-name="Path 3021" d="M426.44,358.428H422a4.953,4.953,0,0,0-4.947,4.947v20a5.407,5.407,0,0,0,5.4,5.4h3.534a5.405,5.405,0,0,0,5.4-5.4v-20A4.951,4.951,0,0,0,426.44,358.428Zm-.452,26.578h-3.534a1.632,1.632,0,0,1-1.629-1.631v-20A1.178,1.178,0,0,1,422,362.2h4.439a1.178,1.178,0,0,1,1.176,1.176v20h0A1.63,1.63,0,0,1,425.988,385.006Z" transform="translate(-312.377 -268.819)" fill="#0055b8"/>
    <path id="Path_3022" data-name="Path 3022" d="M170.692,180.223c-2.3-.844-3.959-1.454-3.959-3.584,0-1.941,1.289-2.925,3.831-2.925,2.7,0,3.425,1.188,4.375,1.188a1.81,1.81,0,0,0,1.607-1.857c0-1.571-2.562-2.349-4.852-2.555v-1.416a1.786,1.786,0,0,0-3.573,0v1.642a5.842,5.842,0,0,0-4.852,6.111c0,4.388,3.23,5.6,5.826,6.577,2.542.955,4.549,1.71,4.549,4.611,0,2.4-1.331,3.612-3.956,3.612-3.842,0-3.878-2.594-5.344-2.594a1.885,1.885,0,0,0-1.639,1.857c0,1.486,2.212,3.438,5.415,3.945V196.2a1.786,1.786,0,1,0,3.573,0V194.8c3.445-.648,5.415-3.178,5.415-6.971C177.109,182.581,173.551,181.274,170.692,180.223Z" transform="translate(-121.618 -125.465)" fill="#0055b8"/>
    <path id="Path_3023" data-name="Path 3023" d="M361.6,423.6a3.93,3.93,0,0,0-2.735-1.106h-6.442a3.944,3.944,0,0,0-2.953,1.33c-1.365,1.538-.9,3.21-.993,4.022v5.035a3.95,3.95,0,0,0,3.946,3.946h6.442a3.949,3.949,0,0,0,3.944-3.946v-6.442A3.932,3.932,0,0,0,361.6,423.6Zm-2.735,9.456c-6.364-.078-6.618.163-6.618-.176v-6.442a.176.176,0,0,1,.176-.173h6.442a.174.174,0,0,1,.174.173C358.967,432.814,359.2,433.053,358.869,433.053Z" transform="translate(-260.942 -316.866)" fill="#0055b8"/>
    <path id="Path_3024" data-name="Path 3024" d="M358.887,291.068h-6.442a3.95,3.95,0,0,0-3.946,3.946v6.44a3.949,3.949,0,0,0,3.946,3.946h6.442a3.887,3.887,0,0,0,1.435-.271,3.951,3.951,0,0,0,2.509-3.675v-6.44A3.951,3.951,0,0,0,358.887,291.068Zm0,10.562h-6.442a.177.177,0,0,1-.176-.176v-6.44c0-.339.234-.1,6.618-.176a.174.174,0,0,1,.173.176v6.44h0A.174.174,0,0,1,358.887,301.63Z" transform="translate(-260.961 -218.3)" fill="#0055b8"/>
    <path id="Path_3025" data-name="Path 3025" d="M360.322,358.7a3.886,3.886,0,0,0-1.435-.271h-6.442a3.95,3.95,0,0,0-3.946,3.946v6.44a3.95,3.95,0,0,0,3.946,3.946h6.442a3.949,3.949,0,0,0,3.944-3.946v-6.44A3.951,3.951,0,0,0,360.322,358.7Zm-1.262,10.114a.174.174,0,0,1-.173.176h-6.442a.177.177,0,0,1-.176-.176v-6.44a.177.177,0,0,1,.176-.176h6.442a.174.174,0,0,1,.173.176Z" transform="translate(-260.961 -268.819)" fill="#0055b8"/>
    <path id="Path_3026" data-name="Path 3026" d="M326.667,103.041h-4.735a1.885,1.885,0,1,0,0,3.77h4.735a1.885,1.885,0,0,0,0-3.77Z" transform="translate(-239.622 -77.28)" fill="#0055b8"/>
    <path id="Path_3027" data-name="Path 3027" d="M191.484,103.041H158.055a1.885,1.885,0,1,0,0,3.77h33.43a1.885,1.885,0,1,0,0-3.77Z" transform="translate(-116.715 -77.28)" fill="#0055b8"/>
    <path id="Path_3028" data-name="Path 3028" d="M164.047,140.472h-5.992a1.885,1.885,0,1,0,0,3.77h5.992a1.885,1.885,0,1,0,0-3.77Z" transform="translate(-116.715 -105.353)" fill="#0055b8"/>
    <path id="Path_3029" data-name="Path 3029" d="M244.357,140.472H212.184a1.885,1.885,0,0,0,0,3.77h32.173a1.885,1.885,0,1,0,0-3.77Z" transform="translate(-157.312 -105.353)" fill="#0055b8"/>
    <path id="Path_3030" data-name="Path 3030" d="M79.954,405.8c0-.474.174-.61.338-.7a3.24,3.24,0,0,1,2.733.185,2.155,2.155,0,0,0,1.02.31c1.859,0,3.33-3.455-1.112-4.219v-.119a1.91,1.91,0,0,0-3.821,0v.363a4.286,4.286,0,0,0-2.914,4.293c0,3.215,2.336,4.093,4.042,4.734,1.627.611,2.189.879,2.189,1.985,0,.692-.186,1.332-1.539,1.332-1.971,0-1.735-1.557-3.209-1.557a1.969,1.969,0,0,0-1.822,1.953c0,1.306,1.358,2.546,3.252,3.048v.143a1.91,1.91,0,1,0,3.821,0v-.193a4.723,4.723,0,0,0,3.252-4.838C86.185,406.791,79.954,407.651,79.954,405.8Z" transform="translate(-56.484 -299.508)" fill="#0055b8"/>
  </g>
</svg>
