<svg xmlns="http://www.w3.org/2000/svg" width="131.814" height="128.396" viewBox="0 0 131.814 128.396">
  <g id="icon" transform="translate(-5.6 -12.257)">
    <g id="Group_1426" data-name="Group 1426" transform="translate(42.45 49.206)">
      <g id="Group_1424" data-name="Group 1424" transform="translate(0 0)">
        <path id="Path_2992" data-name="Path 2992" d="M156.846,151.66a8.759,8.759,0,1,0-4.9,16.021c4.837,0,7.561-3.921,7.561-8.759h-5.24" transform="translate(-143.19 -150.164)" fill="none" stroke="#0055b8" stroke-linecap="round" stroke-linejoin="round" stroke-miterlimit="10" stroke-width="3.8"/>
      </g>
      <g id="Group_1425" data-name="Group 1425" transform="translate(45.657)">
        <path id="Path_2993" data-name="Path 2993" d="M320.447,150.163l5.989,17.254a.4.4,0,0,0,.747-.005l5.72-17.217" transform="translate(-320.447 -150.163)" fill="none" stroke="#0055b8" stroke-linecap="round" stroke-linejoin="round" stroke-miterlimit="10" stroke-width="3.8"/>
      </g>
      <g id="Ellipse_5" data-name="Ellipse 5" transform="translate(22.962)" fill="none" stroke="#0055b8" stroke-linecap="round" stroke-linejoin="round" stroke-miterlimit="10" stroke-width="3.8">
        <circle cx="8.759" cy="8.759" r="8.759" stroke="none"/>
        <circle cx="8.759" cy="8.759" r="6.859" fill="none"/>
      </g>
    </g>
    <path id="Path_2994" data-name="Path 2994" d="M166.4,117.639h14.093a3.2,3.2,0,0,1,3.2,3.2v27.867a3.2,3.2,0,0,1-3.2,3.2H110.077a3.2,3.2,0,0,1-3.2-3.2V120.842a3.2,3.2,0,0,1,3.2-3.2H157.37" transform="translate(-73.778 -76.81)" fill="none" stroke="#0055b8" stroke-linecap="round" stroke-linejoin="round" stroke-miterlimit="10" stroke-width="3.8"/>
    <path id="Path_2995" data-name="Path 2995" d="M50.772,193.7H31.31v-9.538H50.772" transform="translate(-17.677 -126.201)" fill="none" stroke="#0055b8" stroke-linecap="round" stroke-linejoin="round" stroke-miterlimit="10" stroke-width="3.8"/>
    <path id="Path_2996" data-name="Path 2996" d="M405.12,184.166h19.462V193.7H405.12" transform="translate(-295.204 -126.201)" fill="none" stroke="#0055b8" stroke-linecap="round" stroke-linejoin="round" stroke-miterlimit="10" stroke-width="3.8"/>
    <path id="Path_2997" data-name="Path 2997" d="M31.313,230.214v47.5H43.091V221.192H31.313" transform="translate(-17.679 -153.69)" fill="none" stroke="#0055b8" stroke-linecap="round" stroke-linejoin="round" stroke-miterlimit="10" stroke-width="3.8"/>
    <path id="Path_2998" data-name="Path 2998" d="M177.639,250.7v48.921H165.86V250.7" transform="translate(-117.571 -175.595)" fill="none" stroke="#0055b8" stroke-linecap="round" stroke-linejoin="round" stroke-miterlimit="10" stroke-width="3.8"/>
    <path id="Path_2999" data-name="Path 2999" d="M312.186,250.7v48.921H300.41V250.7" transform="translate(-217.464 -175.595)" fill="none" stroke="#0055b8" stroke-linecap="round" stroke-linejoin="round" stroke-miterlimit="10" stroke-width="3.8"/>
    <g id="Path_3006" data-name="Path 3006" transform="translate(117.601 67.502)" fill="none" stroke-linecap="round">
      <path d="M0,0H11.778V56.519H0Z" stroke="none"/>
      <path d="M 3.799996376037598 3.799999237060547 L 3.799996376037598 52.71937561035156 L 7.978329658508301 52.71937561035156 L 7.978329658508301 3.799999237060547 L 3.799996376037598 3.799999237060547 M -3.814697265625e-06 0 L 11.77832984924316 0 L 11.77832984924316 56.51937484741211 L -3.814697265625e-06 56.51937484741211 L -3.814697265625e-06 0 Z" stroke="none" fill="#0055b8"/>
    </g>
    <path id="Path_3000" data-name="Path 3000" d="M405.12,158.923h23.9a1.7,1.7,0,0,0,1.7-1.7v-5.358a1.7,1.7,0,0,0-1.7-1.7h-23.9" transform="translate(-295.204 -100.959)" fill="none" stroke="#0055b8" stroke-linecap="round" stroke-linejoin="round" stroke-miterlimit="10" stroke-width="3.8"/>
    <path id="Path_3001" data-name="Path 3001" d="M33.1,150.166H9.2a1.7,1.7,0,0,0-1.7,1.7v5.358a1.7,1.7,0,0,0,1.7,1.7H33.1" transform="translate(0 -100.959)" fill="none" stroke="#0055b8" stroke-linecap="round" stroke-linejoin="round" stroke-miterlimit="10" stroke-width="3.8"/>
    <path id="Path_3002" data-name="Path 3002" d="M50.772,49.207H31.31V42.472a7.148,7.148,0,0,1,4.412-6.6l51.3-21.258a5.64,5.64,0,0,1,4.314,0l51.3,21.258a7.148,7.148,0,0,1,4.412,6.6v6.736H127.594" transform="translate(-17.677)" fill="none" stroke="#0055b8" stroke-linecap="round" stroke-linejoin="round" stroke-miterlimit="10" stroke-width="3.8"/>
    <path id="Path_3007" data-name="Path 3007" d="M6.235,0,0,6.235" transform="translate(68.389 25.528)" fill="none" stroke="#0055b8" stroke-linecap="round" stroke-width="3.8"/>
    <path id="Path_3003" data-name="Path 3003" d="M31.313,447.987v-7.366H147.058v7.366" transform="translate(-17.679 -316.6)" fill="none" stroke="#0055b8" stroke-linecap="round" stroke-linejoin="round" stroke-miterlimit="10" stroke-width="3.8"/>
    <path id="Path_3004" data-name="Path 3004" d="M110.763,469.22h23.05a1.7,1.7,0,0,1,1.7,1.7v3.964a1.7,1.7,0,0,1-1.7,1.7H9.2a1.7,1.7,0,0,1-1.7-1.7v-3.964a1.7,1.7,0,0,1,1.7-1.7h92.512" transform="translate(0 -337.833)" fill="none" stroke="#0055b8" stroke-linecap="round" stroke-linejoin="round" stroke-miterlimit="10" stroke-width="3.8"/>
    <g id="Path_3005" data-name="Path 3005" transform="translate(-151.52 -218.222)" fill="none" stroke-linecap="round" stroke-linejoin="round" stroke-miterlimit="10">
      <path d="M234.45,342.243H211.588V318.613a5.184,5.184,0,0,1,1.881-4l6.571-5.432a4.684,4.684,0,0,1,5.972,0l6.559,5.43a5.184,5.184,0,0,1,1.878,3.993Z" stroke="none"/>
      <path d="M 230.6497344970703 338.442626953125 L 230.6497344970703 318.6112365722656 C 230.6497344970703 318.1975708007812 230.4669494628906 317.8089904785156 230.1482391357422 317.5451354980469 L 223.5888214111328 312.1147155761719 C 223.3862152099609 311.9469299316406 223.1705322265625 311.9117126464844 223.0252685546875 311.9117126464844 C 222.8800659179688 311.9117126464844 222.6643981933594 311.9468994140625 222.4616546630859 312.114501953125 L 215.8900909423828 317.5468139648438 C 215.5710144042969 317.810546875 215.3880157470703 318.1992797851562 215.3880157470703 318.6133117675781 L 215.3880157470703 338.442626953125 L 230.6497344970703 338.442626953125 M 234.4497375488281 342.2426147460938 L 211.5880126953125 342.2426147460938 L 211.5880126953125 318.6133117675781 C 211.5880126953125 317.067626953125 212.2778015136719 315.6025390625 213.4690856933594 314.6178588867188 L 220.0405426025391 309.1856384277344 C 221.7737579345703 307.7530212402344 224.2804870605469 307.7537841796875 226.0123901367188 309.1878967285156 L 232.5715026855469 314.6180725097656 C 233.760986328125 315.6028137207031 234.4497375488281 317.0668640136719 234.4497375488281 318.6112365722656 L 234.4497375488281 342.2426147460938 Z" stroke="none" fill="#0055b8"/>
    </g>
    <path id="Path_3014" data-name="Path 3014" d="M0,0V4.74" transform="translate(106.246 83.139)" fill="none" stroke="#0055b8" stroke-linecap="round" stroke-width="3.8"/>
    <path id="Path_3013" data-name="Path 3013" d="M0,0V4.74" transform="translate(106.246 96.426)" fill="none" stroke="#0055b8" stroke-linecap="round" stroke-width="3.8"/>
    <path id="Path_3012" data-name="Path 3012" d="M0,0V4.74" transform="translate(106.246 109.713)" fill="none" stroke="#0055b8" stroke-linecap="round" stroke-width="3.8"/>
    <path id="Path_3011" data-name="Path 3011" d="M0,0V4.74" transform="translate(37.096 83.139)" fill="none" stroke="#0055b8" stroke-linecap="round" stroke-width="3.8"/>
    <path id="Path_3010" data-name="Path 3010" d="M0,0V4.74" transform="translate(37.096 96.426)" fill="none" stroke="#0055b8" stroke-linecap="round" stroke-width="3.8"/>
    <path id="Path_3009" data-name="Path 3009" d="M0,0V4.74" transform="translate(37.096 109.713)" fill="none" stroke="#0055b8" stroke-linecap="round" stroke-width="3.8"/>
    <path id="Path_3008" data-name="Path 3008" d="M0,0V22.855" transform="translate(71.507 101.165)" fill="none" stroke="#0055b8" stroke-linecap="round" stroke-width="3.8"/>
  </g>
</svg>
