<svg xmlns="http://www.w3.org/2000/svg" width="127.766" height="128.009" viewBox="0 0 127.766 128.009">
  <g id="icon" transform="translate(-1 -0.882)">
    <path id="Path_3031" data-name="Path 3031" d="M45.121,38.85h4.121V34.43a5.86,5.86,0,0,0,.87-10.844L46.1,21.577a1.759,1.759,0,0,1,.785-3.334h.6A1.763,1.763,0,0,1,49.243,20v.3h4.121V20a5.871,5.871,0,0,0-4.121-5.583V10H45.121v4.42a5.86,5.86,0,0,0-.87,10.844l4.016,2.009a1.759,1.759,0,0,1-.785,3.334h-.6a1.763,1.763,0,0,1-1.762-1.76V26.486H41v2.362a5.871,5.871,0,0,0,4.121,5.583Z" transform="translate(42.429 9.672)" fill="#0055b8"/>
    <path id="Path_3032" data-name="Path 3032" d="M55.668,54.672a13.711,13.711,0,0,0,4.859-.88c11.818-4.455,17.809-9.012,17.809-13.545,0-6.3-3.985-28.286-4.157-29.219l-.305-1.692H69.281A22.4,22.4,0,0,1,56.812,5.56L55.668,4.8l-1.144.762A22.394,22.394,0,0,1,42.057,9.336H37.464l-.3,1.692C36.985,11.961,33,33.951,33,40.247c0,4.534,5.991,9.09,17.807,13.545a13.731,13.731,0,0,0,4.861.88ZM37.121,40.247c0-4.964,2.84-21.44,3.786-26.79h1.15A26.493,26.493,0,0,0,55.668,9.711a26.493,26.493,0,0,0,13.611,3.746h1.15c.946,5.35,3.786,21.825,3.786,26.79,0,1.916-4.738,5.766-15.142,9.69a9.785,9.785,0,0,1-6.813,0C41.859,46.013,37.121,42.163,37.121,40.247Z" transform="translate(33.944 4.154)" fill="#0055b8"/>
    <path id="Path_3033" data-name="Path 3033" d="M122.583,62.947H103.841c11.328-5.29,16.682-11.264,16.682-18.547,0-6.77-3.571-26.755-4.288-30.695l-1.539-8.459H107.07A37.139,37.139,0,0,1,90.535,1.342l-.923-.46-.921.462a37.18,37.18,0,0,1-16.537,3.9H64.528l-1.539,8.461C62.272,17.646,58.7,37.631,58.7,44.4c0,7.283,5.354,13.259,16.682,18.547H56.64a6.19,6.19,0,0,0-6.182,6.182V71.19H29.85V50.583a4.121,4.121,0,0,1,8.243,0h4.121a4.121,4.121,0,1,1,8.243,0h4.121V42.34A26.79,26.79,0,1,0,1,42.34v8.243H5.121a4.121,4.121,0,0,1,8.243,0h4.121a4.121,4.121,0,1,1,8.243,0V71.19H7.182A6.19,6.19,0,0,0,1,77.372v4.121a6.174,6.174,0,0,0,4.121,5.8v34.594c0,3.327.369,7,5.879,7H118.378c6.291,0,6.267-3.67,6.267-7V79.054a6.174,6.174,0,0,0,4.121-5.8V69.129A6.19,6.19,0,0,0,122.583,62.947ZM62.822,44.4c0-4.975,2.275-19.245,4.22-29.955l.923-5.078h4.187A41.338,41.338,0,0,0,89.612,5.475,41.338,41.338,0,0,0,107.07,9.368h4.187l.923,5.076c1.945,10.712,4.22,24.982,4.22,29.957,0,6.609-6.506,12.138-20.48,17.4a18.081,18.081,0,0,1-12.628,0C69.328,56.538,62.822,51.009,62.822,44.4ZM50.458,42.34v1.107A8.147,8.147,0,0,0,42,43.6c-.94-11.555-5.047-18.942-8.422-23.154A22.689,22.689,0,0,1,50.458,42.34Zm-41.215,0a8.18,8.18,0,0,0-4.121,1.107V42.34A22.689,22.689,0,0,1,22,20.449c-3.375,4.21-7.483,11.6-8.422,23.154A8.168,8.168,0,0,0,9.243,42.34Zm12.364,0a8.14,8.14,0,0,0-3.862,1.006c1.282-13.85,7.439-20.77,10.044-23.093,2.6,2.325,8.762,9.242,10.044,23.093A8.056,8.056,0,0,0,27.79,45.188,8.188,8.188,0,0,0,21.607,42.34ZM42.215,112.4H54.579v12.364H42.215Zm-4.121,12.364H25.729V112.4H38.093ZM54.579,100.04H19.547V95.919H54.579ZM5.121,77.372a2.063,2.063,0,0,1,2.061-2.061H50.837a6.176,6.176,0,0,0,3.742,3.742v4.5H7.182a2.063,2.063,0,0,1-2.061-2.061Zm4.121,10.3H54.579V91.8H15.425v12.364H54.579v4.121H21.607v16.486H9.243Zm94.794,37.093H91.672V104.162h12.364Zm-16.486,0H75.187V104.162H87.551Zm20.607,0V100.04H71.065v24.729H58.7V79.433h61.822v45.336Zm16.486-51.518a2.063,2.063,0,0,1-2.061,2.061H56.64a2.063,2.063,0,0,1-2.061-2.061V69.129a2.063,2.063,0,0,1,2.061-2.061h65.944a2.063,2.063,0,0,1,2.061,2.061Z" transform="translate(0 0)" fill="#0055b8"/>
    <path id="Path_3034" data-name="Path 3034" d="M32,53.364H81.458V41H32Zm4.121-8.243H77.336v4.121H36.121Z" transform="translate(32.883 42.555)" fill="#0055b8"/>
  </g>
</svg>
