<svg xmlns="http://www.w3.org/2000/svg" width="125" height="127.996" viewBox="0 0 125 127.996">
  <path id="Real-Estate-loan" d="M154.159,117.462c-.023-.036-.045-.07-.066-.106a4.462,4.462,0,0,0-6.088-1.631l-26.23,15.143c-2.451,1.41-4.158,2.722-7.673,2.722a12.249,12.249,0,0,1-2.257-.216,8.551,8.551,0,0,1-7.122,3.809H82.964a1.94,1.94,0,0,1,0-3.879h21.759a4.7,4.7,0,1,0,0-9.4H82.964a1.916,1.916,0,0,1-.5-.065c-8.52-2.29-15.136-.222-23.037,1.257V148.29c3.891.275,7.726.626,11.922,1.1,2.9.322,5.934.832,9.15,1.373,7.433,1.247,15.118,2.534,21.524,1.587,5.736-.845,12.965-3.386,20.907-7.35a58.711,58.711,0,0,0,11.532-7.318L152.227,123.6C154.127,122.1,155.541,119.536,154.159,117.462ZM55.547,151.2V138.216a1.949,1.949,0,0,1-.092-.59V122.59a1.59,1.59,0,0,0-1.5-1.061H45.7a1.591,1.591,0,0,0-1.589,1.588V151.2a1.592,1.592,0,0,0,1.589,1.59h8.259a1.591,1.591,0,0,0,1.589-1.59Zm-17.6-78.285h17.3a8.863,8.863,0,0,0-17.3,0Zm17.8-6.925H83.061a8.874,8.874,0,0,1,8.864,8.863v45.174h-8.71c-8.031-2.087-14.4-.786-21.135.59-.9.183-1.817.369-2.747.551V74.851a12.7,12.7,0,0,0-3.6-8.864Zm26.31-3.878h1.014a12.65,12.65,0,0,1,6.171,1.6l22.94-22.941a5.7,5.7,0,0,1,8.044,0l29.453,29.455a3.105,3.105,0,0,0,4.392-4.391l-30.174-30.1a10.963,10.963,0,0,0-15.474.01Zm31.256,66.5a8.592,8.592,0,0,0-5.124-7.852v-9.828a8.014,8.014,0,1,1,16.028,0v14.058l-4.373,2.526c-2.372,1.371-3.781,2.484-6.6,2.154A8.583,8.583,0,0,0,113.3,128.605ZM142.361,68.4V114.5l-14.274,8.241v-11.82a11.893,11.893,0,1,0-23.786,0v9.1H95.8V74.851a12.693,12.693,0,0,0-3.486-8.742l22.6-22.6a1.81,1.81,0,0,1,2.558,0Zm15.061,46.963c2.569,3.922.551,8.636-2.786,11.282L136.87,140.719a62.965,62.965,0,0,1-12.209,7.746c-8.423,4.2-15.849,6.8-22.072,7.719-9.969,1.471-21.679-1.827-31.673-2.945-4.076-.456-7.807-.8-11.583-1.069a5.472,5.472,0,0,1-5.376,4.494H45.7a5.475,5.475,0,0,1-5.468-5.468V123.117A5.473,5.473,0,0,1,45.7,117.65h8.259a5.51,5.51,0,0,1,1.5.213V76.79H35.788a1.938,1.938,0,0,1-1.939-1.94A12.756,12.756,0,0,1,46.591,62.11H76.562L105.67,33a14.852,14.852,0,0,1,20.956-.015l30.176,30.1a6.984,6.984,0,0,1-9.875,9.88l-.687-.688v39.994a8.345,8.345,0,0,1,11.182,3.09ZM109.573,66.414V69.63h-3.218V66.414Zm3.879-.856v4.929a3.028,3.028,0,0,1-3.023,3.023H105.5a3.028,3.028,0,0,1-3.023-3.023V65.557a3.025,3.025,0,0,1,3.023-3.021h4.929A3.025,3.025,0,0,1,113.452,65.557Zm9.363,4.072V66.414h3.218V69.63Zm-3.879.856V65.557a3.025,3.025,0,0,1,3.023-3.021h4.928a3.026,3.026,0,0,1,3.024,3.021v4.929a3.028,3.028,0,0,1-3.024,3.023h-4.927a3.028,3.028,0,0,1-3.023-3.023Zm3.879,15.6h3.218V82.873h-3.218Zm-3.879.856a3.025,3.025,0,0,0,3.023,3.023h4.928a3.026,3.026,0,0,0,3.024-3.023V82.016a3.028,3.028,0,0,0-3.024-3.023h-4.927a3.027,3.027,0,0,0-3.023,3.023v4.929Zm-9.363-4.072h-3.218v3.216h3.218Zm3.879-.856a3.028,3.028,0,0,0-3.023-3.023H105.5a3.028,3.028,0,0,0-3.023,3.023v4.929a3.026,3.026,0,0,0,3.023,3.023h4.929a3.026,3.026,0,0,0,3.023-3.023ZM78.706,90.144c-2.355,1.01-5.58.353-7.783-.672a1.939,1.939,0,1,0-1.637,3.517A16.28,16.28,0,0,0,74.179,94.4v.618a1.939,1.939,0,1,0,3.879,0v-.659c3.561-.636,5.8-2.765,6.009-5.592a1.846,1.846,0,0,0,0-.253c-.228-3.749-4.061-5.77-7.916-5.78-2.885-.008-5.868-2.031-2.544-3.53,2.28-1.028,5.651-.322,7.646.649a1.939,1.939,0,1,0,1.7-3.487,15.272,15.272,0,0,0-4.894-1.415v-.626a1.939,1.939,0,1,0-3.879,0v.673a9.356,9.356,0,0,0-2.1.64c-3.016,1.288-3.742,3.415-3.821,4.977,0,.051,0,.106,0,.157.1,3.707,4.1,5.863,7.917,5.839C79.112,86.58,82,88.672,78.706,90.144ZM66.815,113.591h18.21a1.939,1.939,0,1,0,0-3.878H66.815a1.939,1.939,0,1,0,0,3.878Zm-1.939-9.476a1.94,1.94,0,0,0,1.939,1.94h18.21a1.94,1.94,0,0,0,0-3.879H66.815A1.94,1.94,0,0,0,64.876,104.114Z" transform="translate(-33.849 -28.669)" fill="#0055b8" fill-rule="evenodd"/>
</svg>
