<svg xmlns="http://www.w3.org/2000/svg" width="128" height="128" viewBox="0 0 128 128">
  <g id="icon" transform="translate(-1 -1)">
    <path id="Path_3040" data-name="Path 3040" d="M62.516,19H46V31.387H62.516Zm-4.129,8.258H50.129V23.129h8.258Z" transform="translate(47.903 19.161)" fill="#0055b8"/>
    <path id="Path_3041" data-name="Path 3041" d="M118.677,54.677V33.652a6.185,6.185,0,0,0,4.129-5.814V23.71L116.084,1H63.464L56.829,23.117l-.087,4.722a6.185,6.185,0,0,0,4.129,5.814V54.677H42.92a22.71,22.71,0,1,0-26.034,0H11.323A10.334,10.334,0,0,0,1,65v53.677A10.334,10.334,0,0,0,11.323,129H118.677A10.334,10.334,0,0,0,129,118.677V65A10.334,10.334,0,0,0,118.677,54.677ZM116.613,29.9H104.226a2.067,2.067,0,0,1-2.065-2.065V25.774h16.516v2.065A2.067,2.067,0,0,1,116.613,29.9ZM98.032,27.839A2.067,2.067,0,0,1,95.968,29.9H83.581a2.067,2.067,0,0,1-2.065-2.065V25.774H98.032Zm-20.645,0A2.067,2.067,0,0,1,75.323,29.9H62.935a2.067,2.067,0,0,1-2.065-2.065V25.774H77.387Zm4.346-6.194L83.385,5.129H96.164l1.66,16.516Zm36.234,0h-16L100.314,5.129h12.7ZM66.536,5.129h12.7L77.591,21.645H61.581ZM65,34.032H75.323a6.154,6.154,0,0,0,4.129-1.61,6.144,6.144,0,0,0,4.129,1.61H95.968a6.154,6.154,0,0,0,4.129-1.61,6.144,6.144,0,0,0,4.129,1.61h10.323V54.677H89.774V38.161H69.129V54.677H65ZM85.645,54.677H73.258V42.29H85.645ZM11.323,36.1A18.581,18.581,0,1,1,29.9,54.677,18.6,18.6,0,0,1,11.323,36.1Zm113.548,82.581a6.2,6.2,0,0,1-6.194,6.194H11.323a6.2,6.2,0,0,1-6.194-6.194V65a6.2,6.2,0,0,1,6.194-6.194H118.677A6.2,6.2,0,0,1,124.871,65Z" transform="translate(0)" fill="#0055b8"/>
    <path id="Path_3042" data-name="Path 3042" d="M99.839,31H13.129A4.133,4.133,0,0,0,9,35.129V84.677a4.133,4.133,0,0,0,4.129,4.129h86.71a4.133,4.133,0,0,0,4.129-4.129V35.129A4.133,4.133,0,0,0,99.839,31Zm0,53.677H13.129V35.129l86.71,0Z" transform="translate(8.516 31.935)" fill="#0055b8"/>
    <path id="Path_3043" data-name="Path 3043" d="M57,40h4.129V60.645H57Z" transform="translate(59.613 41.516)" fill="#0055b8"/>
    <path id="Path_3044" data-name="Path 3044" d="M5,48H9.129v4.129H5Z" transform="translate(4.258 50.032)" fill="#0055b8"/>
    <path id="Path_3045" data-name="Path 3045" d="M5,40H9.129V52.387H5Z" transform="translate(4.258 41.516)" fill="#0055b8"/>
    <path id="Path_3046" data-name="Path 3046" d="M19.194,47.387h7.647l2.426,16.974A6.19,6.19,0,1,0,37.774,70.1a6.124,6.124,0,0,0-.38-2.065H50.543a6.075,6.075,0,0,0-.382,2.065,6.194,6.194,0,1,0,8.766-5.618l3.543-12.4.078-4.695H31.013L30,40.316A6.226,6.226,0,0,0,23.872,35H19.194a6.194,6.194,0,1,0,0,12.387ZM33.645,70.1a2.065,2.065,0,1,1-2.065-2.065A2.065,2.065,0,0,1,33.645,70.1Zm22.71,2.065A2.065,2.065,0,1,1,58.419,70.1,2.065,2.065,0,0,1,56.355,72.161Zm1.982-20.645L54.8,63.9H33.371L31.6,51.516ZM19.194,39.129h4.678A2.072,2.072,0,0,1,25.914,40.9l.337,2.358H19.194a2.065,2.065,0,0,1,0-4.129Z" transform="translate(12.774 36.194)" fill="#0055b8"/>
    <path id="Path_3047" data-name="Path 3047" d="M21.323,19.258a2.067,2.067,0,0,1,2.065,2.065h4.129a6.2,6.2,0,0,0-6.194-6.194V11H17.194v4.129H11v6.194a6.2,6.2,0,0,0,6.194,6.194h4.129a2.067,2.067,0,0,1,2.065,2.065v2.065H17.194a2.067,2.067,0,0,1-2.065-2.065H11a6.2,6.2,0,0,0,6.194,6.194V39.9h4.129V35.774h6.194V29.581a6.2,6.2,0,0,0-6.194-6.194H17.194a2.067,2.067,0,0,1-2.065-2.065V19.258Z" transform="translate(10.645 10.645)" fill="#0055b8"/>
    <path id="Path_3048" data-name="Path 3048" d="M63.774,35H39V59.774H63.774ZM59.645,55.645H43.129V39.129H59.645Z" transform="translate(40.452 36.194)" fill="#0055b8"/>
    <path id="Path_3049" data-name="Path 3049" d="M49,49h4.129V61.387H49Z" transform="translate(51.097 51.097)" fill="#0055b8"/>
    <path id="Path_3050" data-name="Path 3050" d="M45,49h4.129V61.387H45Z" transform="translate(46.839 51.097)" fill="#0055b8"/>
    <path id="Path_3051" data-name="Path 3051" d="M41,49h4.129V61.387H41Z" transform="translate(42.581 51.097)" fill="#0055b8"/>
  </g>
</svg>
