<svg xmlns="http://www.w3.org/2000/svg" width="128" height="121.919" viewBox="0 0 128 121.919">
  <g id="icon" transform="translate(0 -12.162)">
    <path id="Path_3035" data-name="Path 3035" d="M124.654,20.985h-11.39q.149-2.535.207-5.1a3.644,3.644,0,0,0-3.643-3.722h-62.9a3.644,3.644,0,0,0-3.643,3.721q.054,2.569.206,5.1H32.1a3.351,3.351,0,0,0-3.346,3.347c0,10.31,2.832,20.045,7.973,27.411A33.659,33.659,0,0,0,40.4,56.168c-.475-.017-.951-.029-1.431-.029a38.971,38.971,0,1,0,17.536,73.768h46.254a3.128,3.128,0,0,0,3.125-3.125v-3.916a3.128,3.128,0,0,0-3.125-3.125H98.656v-4.869a1.875,1.875,0,1,0-3.75,0v4.869H69.149q.465-.569.909-1.156.241-.309.476-.627h18.76a2.628,2.628,0,0,0,2.625-2.625V106.9a2.628,2.628,0,0,0-2.625-2.625H76.853q.293-1.213.511-2.454H94.906v5.806a1.875,1.875,0,1,0,3.75,0v-6.431a3.128,3.128,0,0,0-3.125-3.125h-4.1V93.91a3.5,3.5,0,0,0-3.491-3.491H84.79V86.26H87.2a3.122,3.122,0,0,0,3.118-3.118V77.136c4.347-2.944,8.338-7.517,11.767-13.561,6.839-.841,13.186-5.018,17.94-11.832,5.141-7.365,7.973-17.1,7.973-27.41A3.35,3.35,0,0,0,124.654,20.985ZM44.643,32.209a107.839,107.839,0,0,0,4.051,17.549,29.439,29.439,0,0,1-2.762-3.422c-2.29-3.28-4.23-8.52-5.247-14.127ZM39.8,49.6c-4.64-6.647-7.225-15.463-7.3-24.861H43.765q.165,1.876.379,3.724H39.934a3.118,3.118,0,0,0-3.076,3.628c1.063,6.408,3.306,12.537,6,16.4a24.208,24.208,0,0,0,8.284,7.868q.437,1.038.9,2.044a38.572,38.572,0,0,0-4.574-1.321A26.666,26.666,0,0,1,39.8,49.6Zm-.831,10.293a35.139,35.139,0,0,1,9.054,1.182l-9.054,6.578L29.917,61.07A35.148,35.148,0,0,1,38.972,59.889ZM25.564,62.542,37.1,70.922v2.2a1.875,1.875,0,0,0,3.75,0v-2.2l11.532-8.379A35.418,35.418,0,0,1,67.217,74.092L62.989,87.1l-9.668,2.864L40.846,80.9v-.532a1.875,1.875,0,0,0-3.75,0V80.9L24.514,90.046l-9.23-2.423L10.839,73.942A35.417,35.417,0,0,1,25.564,62.542ZM69.838,78.161A34.976,34.976,0,0,1,74.15,93.386L66.66,87.944ZM50.7,92.7l-4.48,13.787h-14.5L27.244,92.7l11.728-8.521ZM8.208,77.978,11.542,88.24,3.765,94.106A34.986,34.986,0,0,1,8.208,77.978ZM9.651,114.6a35,35,0,0,1-5.744-16.18l10.019-7.279,9.7,2.546,4.735,14.575L23.584,114.6Zm2.881,3.75H23.126l3.118,9.6A35.365,35.365,0,0,1,12.531,118.352ZM47.42,129.3a35.276,35.276,0,0,1-16.784.028l-4.054-12.477,4.985-6.619H46.621l5.107,5.81Zm4.4-1.4,3.3-10.147H65.922A35.381,35.381,0,0,1,51.817,127.906Zm50.319-4.415v2.666H62.5a39.311,39.311,0,0,0,3.151-2.666Zm-33.456-9.482H54.93l-5.266-5.991,4.694-14.445,9.71-2.877,10.008,7.272A34.988,34.988,0,0,1,68.681,114.009Zm19.489-5.989v6.188H72.932a38.8,38.8,0,0,0,2.811-6.188ZM76.929,86.26H81.04v4.16H77.659A38.776,38.776,0,0,0,76.929,86.26Zm10.747,7.91v3.9H77.831q.11-1.464.112-2.956,0-.472-.012-.941ZM86.57,82.51H75.851a38.786,38.786,0,0,0-1.843-4.453H86.57V82.51Zm13.513-23.125C96.552,66.319,92.355,71.376,87.8,74.307H71.911a39.26,39.26,0,0,0-14.5-13.523c-.249-.458-.5-.923-.738-1.4C50.82,47.891,47.4,32.457,47.036,15.912h62.684a123.9,123.9,0,0,1-2.184,20.852,1.875,1.875,0,1,0,3.681.715q.505-2.6.9-5.27h3.954c-1.017,5.609-2.958,10.847-5.247,14.127a29.412,29.412,0,0,1-2.76,3.42q.619-1.9,1.175-3.88a1.875,1.875,0,1,0-3.612-1.009A78.934,78.934,0,0,1,100.083,59.384ZM116.951,49.6c-3.488,5-7.893,8.356-12.655,9.712.454-.96.89-1.949,1.315-2.957a24.2,24.2,0,0,0,8.286-7.869c2.693-3.859,4.936-9.987,6-16.4a3.117,3.117,0,0,0-3.076-3.626h-4.215q.216-1.85.383-3.724h11.26C124.176,34.134,121.592,42.95,116.951,49.6Z" fill="#0055b8"/>
    <path id="Path_3036" data-name="Path 3036" d="M262.4,71.516a17.038,17.038,0,1,0,17.038,17.038A17.057,17.057,0,0,0,262.4,71.516Zm0,30.326a13.288,13.288,0,1,1,13.288-13.287A13.3,13.3,0,0,1,262.4,101.842Z" transform="translate(-184.019 -44.516)" fill="#0055b8"/>
    <path id="Path_3037" data-name="Path 3037" d="M294.438,101.98h-5.024a.934.934,0,0,1-.933-.932v-.591a.934.934,0,0,1,.933-.932h5.762a1.875,1.875,0,0,0,0-3.75H293.8V94.4a1.875,1.875,0,1,0-3.75,0v1.375h-.637a4.688,4.688,0,0,0-4.683,4.682v.591a4.688,4.688,0,0,0,4.683,4.682h5.024a.933.933,0,0,1,.932.932v.591a.933.933,0,0,1-.932.932h-6.945a1.875,1.875,0,1,0,0,3.75h2.558v1.524a1.875,1.875,0,1,0,3.75,0v-1.524h.637a4.687,4.687,0,0,0,4.682-4.682v-.591A4.688,4.688,0,0,0,294.438,101.98Z" transform="translate(-213.548 -60.271)" fill="#0055b8"/>
    <path id="Path_3038" data-name="Path 3038" d="M398.281,252.769c-3.425-1.42-4.215-2.21-5.633-5.636a2.642,2.642,0,0,0-4.882,0c-1.419,3.427-2.209,4.218-5.633,5.637a2.642,2.642,0,0,0,0,4.882c3.425,1.42,4.215,2.21,5.635,5.639a2.642,2.642,0,0,0,4.881,0c1.419-3.427,2.209-4.218,5.632-5.637a2.642,2.642,0,0,0,0-4.883Zm-8.075,6.887a9.973,9.973,0,0,0-4.445-4.446,9.971,9.971,0,0,0,4.445-4.446,9.972,9.972,0,0,0,4.444,4.446A9.973,9.973,0,0,0,390.206,259.656Z" transform="translate(-285.376 -175.003)" fill="#0055b8"/>
    <path id="Path_3039" data-name="Path 3039" d="M57.373,59.727c-2.68-1.111-3.251-1.682-4.361-4.363a2.5,2.5,0,0,0-4.611,0c-1.11,2.682-1.681,3.253-4.361,4.364a2.5,2.5,0,0,0,0,4.611c2.68,1.111,3.251,1.682,4.362,4.366a2.5,2.5,0,0,0,4.61,0c1.11-2.682,1.681-3.253,4.361-4.364a2.5,2.5,0,0,0,0-4.611ZM50.706,64.9a7.993,7.993,0,0,0-2.864-2.865,7.994,7.994,0,0,0,2.864-2.865,8,8,0,0,0,2.865,2.865A8,8,0,0,0,50.706,64.9Z" transform="translate(-31.875 -31.245)" fill="#0055b8"/>
  </g>
</svg>
