<svg xmlns="http://www.w3.org/2000/svg" width="128" height="128" viewBox="0 0 128 128">
  <g id="icon" transform="translate(-1 -1)">
    <path id="Path_3052" data-name="Path 3052" d="M45,57h4.129v4.129H45Z" transform="translate(46.839 59.613)" fill="#0055b8"/>
    <path id="Path_3053" data-name="Path 3053" d="M45,53h4.129v4.129H45Z" transform="translate(46.839 55.355)" fill="#0055b8"/>
    <path id="Path_3054" data-name="Path 3054" d="M45,49h4.129v4.129H45Z" transform="translate(46.839 51.097)" fill="#0055b8"/>
    <path id="Path_3055" data-name="Path 3055" d="M41,53h4.129v4.129H41Z" transform="translate(42.581 55.355)" fill="#0055b8"/>
    <path id="Path_3056" data-name="Path 3056" d="M41,49h4.129v4.129H41Z" transform="translate(42.581 51.097)" fill="#0055b8"/>
    <path id="Path_3057" data-name="Path 3057" d="M41,57h4.129v4.129H41Z" transform="translate(42.581 59.613)" fill="#0055b8"/>
    <path id="Path_3058" data-name="Path 3058" d="M53,41h4.129v4.129H53Z" transform="translate(55.355 42.581)" fill="#0055b8"/>
    <path id="Path_3059" data-name="Path 3059" d="M57,41h4.129v4.129H57Z" transform="translate(59.613 42.581)" fill="#0055b8"/>
    <path id="Path_3060" data-name="Path 3060" d="M49,41h4.129v4.129H49Z" transform="translate(51.097 42.581)" fill="#0055b8"/>
    <path id="Path_3061" data-name="Path 3061" d="M53,45h4.129v4.129H53Z" transform="translate(55.355 46.839)" fill="#0055b8"/>
    <path id="Path_3062" data-name="Path 3062" d="M57,45h4.129v4.129H57Z" transform="translate(59.613 46.839)" fill="#0055b8"/>
    <path id="Path_3063" data-name="Path 3063" d="M53,49h4.129v4.129H53Z" transform="translate(55.355 51.097)" fill="#0055b8"/>
    <path id="Path_3064" data-name="Path 3064" d="M57,49h4.129v4.129H57Z" transform="translate(59.613 51.097)" fill="#0055b8"/>
    <path id="Path_3065" data-name="Path 3065" d="M53,53h4.129v4.129H53Z" transform="translate(55.355 55.355)" fill="#0055b8"/>
    <path id="Path_3066" data-name="Path 3066" d="M57,53h4.129v4.129H57Z" transform="translate(59.613 55.355)" fill="#0055b8"/>
    <path id="Path_3067" data-name="Path 3067" d="M57,57h4.129v4.129H57Z" transform="translate(59.613 59.613)" fill="#0055b8"/>
    <path id="Path_3068" data-name="Path 3068" d="M53,57h4.129v4.129H53Z" transform="translate(55.355 59.613)" fill="#0055b8"/>
    <path id="Path_3069" data-name="Path 3069" d="M91.839,61.222V91.839H87.514l-4.129-41.29H78.944L74.8,36.033l6.386,2.129H87.71V21.645H81.182L71.6,24.839l-.913-3.194H67.065V13.007a6.194,6.194,0,1,0-4.129,0v8.638H59.314L58.4,24.839l-9.583-3.194H42.29V38.161h6.528L55.2,36.033,51.054,50.548H46.613l-4.129,41.29H38.161V61.222L1,54.254V129H129V54.254ZM65,5.129a2.065,2.065,0,1,1-2.065,2.065A2.067,2.067,0,0,1,65,5.129Zm59.871,54.1v4.057l-28.9,5.419V64.649ZM100.1,124.871H79.452v-28.9H100.1Zm-49.548,0H29.9v-28.9H50.548Zm24.774-4.629L69.1,116.613l6.225-3.629Zm0-12.042L65,114.222,54.677,108.2v-5.886L65,96.292l10.323,6.022Zm-20.645,4.783,6.225,3.629-6.225,3.629ZM65,119l10.058,5.867H54.944ZM75.323,91.839v5.7L69.1,93.9l13.675-7.977.593,5.913ZM65,68.8,54.94,62.935H75.058Zm15.626-4.333,1.429,14.282L69.1,71.194ZM60.9,71.194,47.945,78.752l1.429-14.282ZM65,73.584l15.366,8.964L65,91.513,49.634,82.548Zm16.851-47.81h1.73v8.258h-1.73l-8.429-2.81-.687-2.409Zm-33.7,8.258h-1.73V25.774h1.73l9.117,3.039-.687,2.409Zm14.278-8.258h5.145L74.65,50.548H55.35Zm17.22,28.9.413,4.129H49.939l.413-4.129ZM47.229,85.926,60.9,93.9l-6.227,3.631v-5.7H46.636Zm-13.2-21.277v4.057l-28.9-5.419V59.23Zm-28.9,2.839,28.9,5.419V91.839H25.774v33.032H5.129Zm99.1,57.383V91.839H95.968V72.907l28.9-5.419v57.383Z" transform="translate(0 0)" fill="#0055b8"/>
    <path id="Path_3070" data-name="Path 3070" d="M17,57h4.129v4.129H17Z" transform="translate(17.032 59.613)" fill="#0055b8"/>
    <path id="Path_3071" data-name="Path 3071" d="M17,53h4.129v4.129H17Z" transform="translate(17.032 55.355)" fill="#0055b8"/>
    <path id="Path_3072" data-name="Path 3072" d="M17,49h4.129v4.129H17Z" transform="translate(17.032 51.097)" fill="#0055b8"/>
    <path id="Path_3073" data-name="Path 3073" d="M21,53h4.129v4.129H21Z" transform="translate(21.29 55.355)" fill="#0055b8"/>
    <path id="Path_3074" data-name="Path 3074" d="M21,49h4.129v4.129H21Z" transform="translate(21.29 51.097)" fill="#0055b8"/>
    <path id="Path_3075" data-name="Path 3075" d="M21,57h4.129v4.129H21Z" transform="translate(21.29 59.613)" fill="#0055b8"/>
    <path id="Path_3076" data-name="Path 3076" d="M9,41h4.129v4.129H9Z" transform="translate(8.516 42.581)" fill="#0055b8"/>
    <path id="Path_3077" data-name="Path 3077" d="M5,41H9.129v4.129H5Z" transform="translate(4.258 42.581)" fill="#0055b8"/>
    <path id="Path_3078" data-name="Path 3078" d="M13,41h4.129v4.129H13Z" transform="translate(12.774 42.581)" fill="#0055b8"/>
    <path id="Path_3079" data-name="Path 3079" d="M53,37h4.129v4.129H53Z" transform="translate(55.355 38.323)" fill="#0055b8"/>
    <path id="Path_3080" data-name="Path 3080" d="M49,37h4.129v4.129H49Z" transform="translate(51.097 38.323)" fill="#0055b8"/>
    <path id="Path_3081" data-name="Path 3081" d="M57,37h4.129v4.129H57Z" transform="translate(59.613 38.323)" fill="#0055b8"/>
    <path id="Path_3082" data-name="Path 3082" d="M9,37h4.129v4.129H9Z" transform="translate(8.516 38.323)" fill="#0055b8"/>
    <path id="Path_3083" data-name="Path 3083" d="M5,37H9.129v4.129H5Z" transform="translate(4.258 38.323)" fill="#0055b8"/>
    <path id="Path_3084" data-name="Path 3084" d="M13,37h4.129v4.129H13Z" transform="translate(12.774 38.323)" fill="#0055b8"/>
    <path id="Path_3085" data-name="Path 3085" d="M9,45h4.129v4.129H9Z" transform="translate(8.516 46.839)" fill="#0055b8"/>
    <path id="Path_3086" data-name="Path 3086" d="M5,45H9.129v4.129H5Z" transform="translate(4.258 46.839)" fill="#0055b8"/>
    <path id="Path_3087" data-name="Path 3087" d="M9,49h4.129v4.129H9Z" transform="translate(8.516 51.097)" fill="#0055b8"/>
    <path id="Path_3088" data-name="Path 3088" d="M5,49H9.129v4.129H5Z" transform="translate(4.258 51.097)" fill="#0055b8"/>
    <path id="Path_3089" data-name="Path 3089" d="M5,53H9.129v4.129H5Z" transform="translate(4.258 55.355)" fill="#0055b8"/>
    <path id="Path_3090" data-name="Path 3090" d="M9,53h4.129v4.129H9Z" transform="translate(8.516 55.355)" fill="#0055b8"/>
    <path id="Path_3091" data-name="Path 3091" d="M5,57H9.129v4.129H5Z" transform="translate(4.258 59.613)" fill="#0055b8"/>
    <path id="Path_3092" data-name="Path 3092" d="M9,57h4.129v4.129H9Z" transform="translate(8.516 59.613)" fill="#0055b8"/>
    <path id="Path_3093" data-name="Path 3093" d="M49.04,26.063a10.336,10.336,0,0,0,0-14.6l-2.919,2.919a6.2,6.2,0,0,1,0,8.76Z" transform="translate(48.032 11.14)" fill="#0055b8"/>
    <path id="Path_3094" data-name="Path 3094" d="M48.95,31.994l2.919,2.919a18.6,18.6,0,0,0,0-26.277L48.95,11.555A14.467,14.467,0,0,1,48.95,31.994Z" transform="translate(51.044 8.129)" fill="#0055b8"/>
    <path id="Path_3095" data-name="Path 3095" d="M18.021,26.063l2.919-2.919a6.2,6.2,0,0,1,0-8.76l-2.919-2.919A10.336,10.336,0,0,0,18.021,26.063Z" transform="translate(14.907 11.14)" fill="#0055b8"/>
    <path id="Path_3096" data-name="Path 3096" d="M19.357,31.993a14.468,14.468,0,0,1,0-20.437L16.438,8.637a18.6,18.6,0,0,0,0,26.277Z" transform="translate(10.65 8.13)" fill="#0055b8"/>
  </g>
</svg>
