<?xml version="1.0" encoding="utf-8"?>
<!-- Generator: Adobe Illustrator 27.7.0, SVG Export Plug-In . SVG Version: 6.00 Build 0)  -->
<svg version="1.1" id="Layer_1" xmlns="http://www.w3.org/2000/svg" xmlns:xlink="http://www.w3.org/1999/xlink" x="0px" y="0px"
	 viewBox="0 0 95 128" style="enable-background:new 0 0 95 128;" xml:space="preserve">
<style type="text/css">
	.st0{fill:#F7EA06;}
</style>
<g id="surface1">
	<path class="st0" d="M47.5,128l1.6-1.3c11.1-9.5,20.4-20.7,27.7-33.4c5.8-10.1,10.4-21.2,13.5-32.9C95,42.8,95,25.8,95,25.2v0.1V0
		H0v25.3v-0.1c0,0.6,0,17.6,4.7,35.3c3.1,11.7,7.7,22.8,13.5,32.9c7.3,12.7,16.6,23.9,27.7,33.4L47.5,128"/>
	<path d="M85.6,28.7v2.5c0,0,2.1,52.6-38.1,87c-40.3-34.4-38.1-87-38.1-87v-2.5H2.3c0.2,5.9,1.2,18.4,4.6,31.1
		c3.1,11.5,7.5,22.4,13.3,32.4c7.1,12.4,16.3,23.5,27.2,32.8l0.2,0.2l0.2-0.2c10.9-9.3,20-20.3,27.2-32.8
		c5.7-10,10.2-20.9,13.3-32.4c3.4-12.7,4.3-25.2,4.6-31.1H85.6"/>
	<path d="M24.1,64.5h-6.9c1.6,5.7,3.7,11.2,6.1,16.4C22.8,77.1,22.3,71.5,24.1,64.5"/>
	<path d="M82.6,31.4v-2.6H47v35.8H26.9c0,0,0,0.1,0,0.1c-0.2,0.7-0.2,0.7-0.3,1c-0.8,5.8-0.7,9.6,0.2,15.8c0.4,2.8,0.7,5.5,1.8,9.7
		c5.2,8.7,11.5,16.5,18.9,23.1c0.1-0.1,0.1-0.1,0.2-0.2V65.8h29.7c0.4-1.5,0.9-3,1.3-4.5C83,44.5,82.6,31.5,82.6,31.4"/>
	<path d="M47,51.1c-3.2-0.1-9,0.4-11.9,1.9c-4,2.1-6.5,5.5-8.2,11.4h-2.8c0.1-0.5,0.3-1.1,0.5-1.6c0.2-0.5,0.3-0.9,0.6-1.5
		c1.5-4.1,4.6-7.5,7.8-9.3c3.8-2.2,9.7-2.7,14.1-2.4"/>
	<path class="st0" d="M47,49.8c4.4,0.4,8.8,2.1,12.2,4.2c0.7,0.4,0.2,0.1,1,0.6l0.1,0.4c-4.1-2.1-8.5-3.7-13.3-3.9L47,49.8"/>
	<path class="st0" d="M69.8,57.5c0.2,1.1-0.5,1.8-1,2.7c-0.1,0.3-0.4,0.7-0.6,0.5c-0.5-0.4-0.3-1-0.1-1.4c0.2-0.5,1-1.3,0.7-1.6
		c-0.3-0.3-0.8,0.1-1.2-0.1c-0.3-0.1,0.6-0.8,1.2-0.8C69.2,56.8,69.6,57.1,69.8,57.5"/>
	<path class="st0" d="M58.1,59.6c0.1,0.2,0,0.4-0.1,0.6c-0.2,0.2-0.5,0.2-0.7,0.1c-0.9-1.2-2-2.5-3.6-2.6l-0.2,0.1
		c-1.1,1.7,1.3,5.2,0.7,5.9c-0.2,0.2-0.5,0.2-0.8,0.1c-0.9-0.2-1.9-4.4-1-6.4C53.1,55.9,57.2,57.9,58.1,59.6"/>
	<path d="M68,65.8c0.5,4.2-1.5,7.4-1.6,11.4c-0.3,2.9,0.1,5.8,1,8.4l1.3,2.9c0.1,0.5,0.1,1.1-0.2,1.4c-1.1,0.8-3.2,1.3-4.1,0.7
		C64,90.3,63.8,90,63.8,90c-3.9-6.1-9.5-11.3-12.6-17.9c-0.8-1.6-1.4-3.4-1.9-5.1c-0.1-0.5,0.3-0.7,0.5,0.1
		c1.8,5.2,5.1,9.7,8.8,13.8c2.3,2.6,4.1,5.4,6.1,8.2c0.5,0.7,1,0.8,1.7,0.6c0.4-0.1,0.9-0.2,1-0.6c0.1-0.3,0-0.7,0-0.7
		c-1-2.4-2-4.7-2.1-7.5c-0.5-4.9,1-9.2,1.8-13.7c0-0.5,0-0.9,0-1.4H68"/>
	<path class="st0" d="M68,65.8c0-0.1,0-0.1,0-0.2c-0.3-3.1-1.5-6-3.8-8.1l-0.2-0.1l0,0.2c2,2.2,2.8,4.9,2.9,8c0,0.1,0,0.1,0,0.2
		L68,65.8C68,65.8,68,65.8,68,65.8"/>
	<path d="M62.3,70.9c0.4,1.1,0.7,2.4,0.3,3.5c-0.2,0.2-0.5,0.4-0.8,0.3c-0.5-0.2-0.3-0.9-0.4-1.4c-0.1-2.7-1.3-4.9-3.7-6.2
		c-0.3-0.2-0.2-0.3-0.4-0.6C59.8,67,61.3,68.5,62.3,70.9"/>
	<path class="st0" d="M33.9,68.6c2.7,3.2,6.4,6,10.8,4.6c0.8-0.2,1.4-1.5,2.3-0.7c0.1,0.2,0.1,0.6-0.1,0.8c-1.6,1.6-3.9,2-6.1,1.4
		c-3-0.7-5.4-3.3-7-5.9l-0.1-0.4L33.9,68.6"/>
	<path d="M59.6,70.2c-0.1,1.1,0.2,2.2,0.8,3c0.2,0.2,0.3,0.4,0.2,0.6c-0.2,0.2-0.4,0.3-0.7,0.1c-1-1-1.7-2.4-1.2-3.8
		C58.9,69.9,59.5,69.9,59.6,70.2"/>
	<path class="st0" d="M53.4,30.1c-0.2,0.5-0.7,1-0.8,1.6c-0.9,1.9-0.9,4.5,0,6.3c0.9,1.6,1,1.6,1.3,2.1c0.5,0.8,2.5,2.6,2.9,3
		c0.9,0.9,2,1.7,3.1,2.5c0,0,3.9,3.1,5.2,4.9c1.8,2.3,2.7,5,1.9,7.9c-0.3-0.6-1.6-1.6-1.6-1.6l0-0.7c-0.2-4.1-3.7-7.3-6.9-9.9
		c-3.7-3-7.3-6.1-7.4-10.8c0.1-2,0.7-3.9,2.2-5.4H53.4"/>
	<path d="M47,46.1c-1.4-0.7-2.8-1.5-4.1-2.3c-0.4-0.2-3.7-2.7-4.4-3.4c-2.6-2.6-4.4-5.9-3.4-9.4c0.1-0.4,0.3-0.7,0.5-1h0.1
		c-0.1,0.7-0.2,1.5-0.2,2.2c0,2.8,1.6,5.1,3.7,7.2c0.2,0.2,2.8,2.7,7,5c0.3,0.1,0.6,0.3,0.8,0.4V46.1"/>
	<path class="st0" d="M47,44.8c2,1,4.4,1.9,5.7,2.3c0.1,0,4.9,1.4,7.4,3.2c2.9,2,4.2,5.1,3,8c-0.1,0.3-0.4,0.4-0.8,0.5
		c-0.5,0.1-0.9,0-1.3-0.3c-0.6-0.6,0.2-1.4,0.3-2.1c0.1-2.7-1.9-5.1-4.7-6.2c-2-0.8-3.8-1.6-4.3-1.7c-1.9-0.8-3.6-1.4-5.4-2.2V44.8"
		/>
	<path d="M92.8,25.2v-23H2.2v23c0,0.1,0,0.2,0,0.5h90.6C92.8,25.4,92.8,25.2,92.8,25.2"/>
	<path class="st0" d="M17.6,16.9L17,19.4c-0.2-0.1-0.5-0.1-0.7-0.2c-0.2-0.1-0.5-0.3-0.8-0.4c-0.3-0.2-0.5-0.4-0.7-0.7
		c-0.2-0.3-0.3-0.6-0.4-1.1l-1-3.8L12,19.4c-0.2,0-0.5-0.1-0.7-0.2c-0.2-0.1-0.5-0.3-0.8-0.5c-0.3-0.2-0.6-0.5-0.7-0.8
		c-0.2-0.3-0.3-0.8-0.5-1.4l-1.5-6c-0.1-0.4-0.2-0.8-0.3-1C7.4,9.3,7.2,9,6.9,8.8l2.9,0l1.7,7.3l1-4.4c0-0.2,0.1-0.4,0.1-0.7
		c0-0.2,0.1-0.4,0.1-0.6c0-0.3-0.1-0.6-0.2-0.9c-0.1-0.3-0.3-0.6-0.4-0.7l2.9,0c0,0.1-0.1,0.3-0.1,0.3c0,0.2,0,0.4,0,0.6
		c0,0.2,0.1,0.6,0.3,1.1l1.3,5.2l1.2-4.7c0.1-0.3,0.1-0.5,0.2-0.7c0-0.2,0.1-0.4,0.1-0.5c0-0.2,0-0.4-0.1-0.6
		c-0.1-0.2-0.2-0.4-0.3-0.6l2.3,0L17.6,16.9"/>
	<path class="st0" d="M25,14.6l-0.9-3.1l-0.9,3.1H25z M29.6,19.2h-4.1c0.2-0.2,0.3-0.3,0.4-0.5c0.1-0.1,0.1-0.3,0.1-0.6
		c0-0.1,0-0.3,0-0.3c0-0.1-0.1-0.2-0.1-0.3l-0.4-1.5h-2.7l-0.3,1.1c-0.1,0.2-0.1,0.4-0.2,0.6c-0.1,0.2-0.1,0.4-0.1,0.5
		c0,0.2,0,0.3,0.1,0.4c0.1,0.1,0.2,0.3,0.4,0.5l-2.8,0c0.2-0.3,0.4-0.6,0.6-0.8c0.1-0.2,0.2-0.6,0.4-1.1l1.9-6.3
		c0.1-0.3,0.2-0.5,0.2-0.7C23,10,23,9.9,23,9.7c0-0.2,0-0.4-0.1-0.5c-0.1-0.1-0.2-0.3-0.4-0.4l3.3,0l2.5,8.1l0,0.1
		c0.2,0.6,0.3,1,0.4,1.2C28.9,18.4,29.2,18.7,29.6,19.2L29.6,19.2"/>
	<path class="st0" d="M35.9,14c0-1-0.2-1.8-0.5-2.5c-0.3-0.7-0.9-1.1-1.7-1.1c-0.1,0-0.3,0-0.4,0c-0.1,0-0.3,0.1-0.5,0.1v7
		c0.1,0,0.2,0.1,0.4,0.1c0.1,0,0.3,0,0.4,0c0.4,0,0.8-0.1,1.1-0.3c0.3-0.2,0.5-0.4,0.7-0.8c0.2-0.4,0.3-0.8,0.4-1.2
		C35.9,14.9,35.9,14.5,35.9,14 M38.6,14c0,0.8-0.1,1.5-0.4,2.3c-0.3,0.7-0.7,1.3-1.2,1.8c-0.5,0.5-1.1,0.8-1.7,0.9
		c-0.6,0.1-1.4,0.2-2.4,0.2h-3c0.2-0.2,0.4-0.4,0.5-0.7c0.1-0.3,0.1-0.6,0.1-1v-6.2c0-0.8,0-1.3-0.1-1.7c-0.1-0.4-0.2-0.6-0.5-0.8
		l2.9,0c1.1,0,1.9,0,2.4,0.1c0.6,0.1,1.1,0.4,1.7,0.8c0.6,0.5,1,1.1,1.3,1.9C38.4,12.3,38.6,13.2,38.6,14"/>
	<path class="st0" d="M39,19.2c0.2-0.2,0.4-0.4,0.5-0.7c0.1-0.3,0.1-0.6,0.1-1v-7c0-0.5,0-0.9-0.1-1.1c-0.1-0.2-0.2-0.4-0.4-0.6
		l3.6,0c-0.2,0.2-0.4,0.4-0.4,0.7c-0.1,0.3-0.1,0.6-0.1,1v7c0,0.5,0,0.9,0.1,1.1c0.1,0.2,0.2,0.4,0.4,0.6L39,19.2"/>
	<path class="st0" d="M53.5,14c0-1-0.2-1.8-0.5-2.5c-0.3-0.7-0.9-1.1-1.7-1.1c-0.1,0-0.3,0-0.4,0c-0.1,0-0.3,0.1-0.5,0.1v7
		c0.1,0,0.2,0.1,0.4,0.1c0.1,0,0.3,0,0.4,0c0.4,0,0.8-0.1,1.1-0.3c0.3-0.2,0.5-0.4,0.7-0.8c0.2-0.4,0.3-0.8,0.4-1.2
		C53.5,14.9,53.5,14.5,53.5,14 M56.2,14c0,0.8-0.1,1.5-0.4,2.3c-0.3,0.7-0.7,1.3-1.2,1.8c-0.5,0.5-1.1,0.8-1.7,0.9
		c-0.6,0.1-1.4,0.2-2.4,0.2h-3c0.2-0.2,0.4-0.4,0.5-0.7c0.1-0.3,0.1-0.6,0.1-1v-6.2c0-0.8,0-1.3-0.1-1.7c-0.1-0.4-0.2-0.6-0.5-0.8
		l2.9,0c1.1,0,1.9,0,2.4,0.1c0.6,0.1,1.1,0.4,1.7,0.8c0.6,0.5,1,1.1,1.3,1.9C56,12.3,56.2,13.2,56.2,14"/>
	<path class="st0" d="M63.1,16.8l-0.5,2.4h-6c0.2-0.2,0.4-0.4,0.5-0.7c0.1-0.3,0.1-0.6,0.1-1v-7c0-0.5,0-0.9-0.1-1.1
		c-0.1-0.2-0.2-0.4-0.4-0.5l4.7,0h0.2c0.2,0,0.3,0,0.4-0.1l0,2.3c-0.1-0.2-0.3-0.4-0.5-0.5c-0.2-0.1-0.6-0.2-1-0.2h-0.8v2.6h1.3
		c0.2,0,0.4,0,0.5-0.1h0.1V15h-0.1c-0.1-0.2-0.2-0.4-0.4-0.5c-0.2-0.1-0.4-0.1-0.7-0.1h-0.6v3c0.2,0.1,0.4,0.1,0.6,0.2
		c0.2,0,0.5,0.1,0.8,0.1c0.4,0,0.8-0.1,1.1-0.2C62.5,17.4,62.8,17.1,63.1,16.8L63.1,16.8"/>
	<path class="st0" d="M71.4,18.9c-0.5,0.2-1,0.3-1.4,0.4c-0.5,0.1-0.9,0.1-1.5,0.1c-1.5,0-2.7-0.5-3.7-1.4c-1-0.9-1.4-2.3-1.4-4
		c0-1.7,0.5-3,1.4-4c1-1,2.2-1.5,3.6-1.5c0.7,0,1.4,0.1,2.1,0.3V11h-0.1c-0.2-0.2-0.5-0.5-0.9-0.6c-0.4-0.2-0.8-0.2-1.1-0.2
		c-0.8,0-1.5,0.3-1.9,0.9c-0.4,0.6-0.6,1.4-0.6,2.5c0,1.2,0.2,2.2,0.6,3c0.4,0.8,1,1.2,1.9,1.2c0.2,0,0.4,0,0.5,0v-2.3
		c0-0.4,0-0.7-0.1-0.9c-0.1-0.2-0.2-0.4-0.4-0.6l2.8-0.1V18.9"/>
	<path class="st0" d="M78.2,17l-0.5,2.2h-5.9c0.2-0.2,0.4-0.4,0.5-0.7c0.1-0.3,0.1-0.6,0.1-1v-7c0-0.5,0-0.9-0.1-1.1
		C72.2,9.1,72,9,71.8,8.8l3.6-0.1c-0.2,0.2-0.4,0.4-0.5,0.7c-0.1,0.3-0.1,0.6-0.1,1.1v6.9c0.2,0.1,0.4,0.2,0.7,0.2
		c0.2,0,0.5,0.1,0.8,0.1c0.4,0,0.7-0.1,1-0.2C77.6,17.4,77.9,17.2,78.2,17"/>
	<path class="st0" d="M83.6,14.6l-0.9-3.1l-0.9,3.1H83.6z M88.1,19.2H84c0.2-0.2,0.3-0.3,0.4-0.5c0.1-0.1,0.1-0.3,0.1-0.6
		c0-0.1,0-0.3,0-0.3c0-0.1,0-0.2-0.1-0.3L84,16.1h-2.7L81,17.1c-0.1,0.2-0.1,0.4-0.2,0.6c-0.1,0.2-0.1,0.4-0.1,0.5
		c0,0.2,0,0.3,0.1,0.4c0,0.1,0.2,0.3,0.4,0.5l-2.8,0c0.2-0.3,0.4-0.6,0.5-0.8c0.1-0.2,0.2-0.6,0.4-1.1l1.9-6.3
		c0.1-0.3,0.1-0.5,0.2-0.7c0.1-0.2,0.1-0.4,0.1-0.5c0-0.2,0-0.4-0.1-0.5c-0.1-0.1-0.2-0.3-0.4-0.4l3.3,0l2.5,8.1l0,0.1
		c0.2,0.6,0.3,1,0.4,1.2C87.4,18.4,87.7,18.7,88.1,19.2L88.1,19.2"/>
</g>
</svg>
