<svg xmlns="http://www.w3.org/2000/svg" width="320" height="102.18" viewBox="0 0 320 102.18">
  <g id="egypt-post-logo_SVG" transform="translate(0 -0.001)">
    <path id="Path_2945" data-name="Path 2945" d="M109.294,4.779S116.432-2.011,125.312.6c0,0-1.045,5.919-4.7,9.4,0,0,15.861,13.365-19,54.411-8.055,9.482-16.692,16.3-25.049,22.194-26.593,18.749-54.085,19.651-68.117,7.62C-11.712,76.948,2.635,22.345,68.725.775c0,0-64.018,25.041-63.026,63.9,1.054,41.311,65.383,30.142,86.184-1.044,15.361-23.031-1.567-27.858-1.567-27.858L84.7,46.479s-10.185.915-19.587-10.316L75.822,29.9S42.915,24.541,17.059,55.1c0,0,10.431-23.306,47.663-41.394,32.253-15.67,44.572-8.924,44.572-8.924" transform="translate(0 -0.002)" fill="#007f3e" fill-rule="evenodd"/>
    <path id="Path_2947" data-name="Path 2947" d="M632.708,65.179a1.251,1.251,0,0,1-1.145-1.491l2.22.07s-.1,1.457-1.075,1.421m-10.8-2.207c-.019.077-.528.226-.591.252a45.437,45.437,0,0,1-6.466,2.336c-.893.229-1.773.5-2.68.676-.333.065-2.637.544-2.1-.439a8.982,8.982,0,0,1,.584-.878c.764-1.139,1.5-2.3,2.317-3.4a9.412,9.412,0,0,1,3.3-3.21,4,4,0,0,1,4.229.381,4.081,4.081,0,0,1,1.361,2.032,5.026,5.026,0,0,1,.044,2.251m12.875-1.793c-.587-.521-4.27-.847-4.27-.847-.064-1.891-.782-15.45-.782-15.45l2.151,1.043-3.39-10.039-2.15,2.02c.869,1.869,1.93,17.443,2.242,23,.038.672-.851,1.008-2.494,1.468a11.254,11.254,0,0,1-2.6.453,10.755,10.755,0,0,0-.347-6.085c-1.043-2.738-5.736-3.649-9.126-.173a27.172,27.172,0,0,0-5.216,8.692,1.277,1.277,0,0,1-1.3-.348c-1.089-1.09-.3-3.694-.3-3.694-3.173,3.825-11.777,5.388-19.991,3.825s-8.43-7.953-8.43-7.953l-1.521,2.434s4.172,6.649,1.694,9.473c-5.207,5.938-24.075,11.083-24.075,11.083l8.726-.709a41.613,41.613,0,0,0,12.264-4.768c6.3-3.694,5.726-8.7,5.726-8.7s1.434,2.674,8.9,2.9A28.554,28.554,0,0,0,604.5,65.481a1.718,1.718,0,0,1,1.141-.294,4.425,4.425,0,0,0,2.085,3.326c-.325,2.15.163,2.476.163,2.476a6.534,6.534,0,0,1,.62-2.183c.131-.033,4.367.652,7.17-.358s13.169-4.4,13.169-4.4.521,3.52,2.868,3.682a3.245,3.245,0,0,0,3.716-2.575,4.58,4.58,0,0,0-.652-3.976" transform="translate(-407.394 -26.349)" fill="#007f3e" fill-rule="evenodd"/>
    <path id="Path_2948" data-name="Path 2948" d="M549.32,91.578a14.407,14.407,0,0,1,.039,1.979c-2.047-.312-4.055-.34-5.593,1.266-1,1.041-1.983,2.966-1.281,4.413A3.086,3.086,0,0,0,545,100.569a10.531,10.531,0,0,1,3.6.729,2.253,2.253,0,0,1,.877,2.486,6.749,6.749,0,0,1-1.133,3.273,14.521,14.521,0,0,1-6.013,4.042c-.654.271-1.319.519-1.982.767a43.476,43.476,0,0,1-4.341,1.385,20.141,20.141,0,0,1-4.517.815,9.184,9.184,0,0,1-4.545-1,7.868,7.868,0,0,1-3.682-4.589,11.24,11.24,0,0,1,.114-6.522,24,24,0,0,1,1.516-3.552,6.454,6.454,0,0,0-.273,1.7q-.12.827-.175,1.66a15.453,15.453,0,0,0,.161,3.611,6.171,6.171,0,0,0,2.209,4.18,10.526,10.526,0,0,0,6.3,1.571,15.045,15.045,0,0,0,1.9-.2,22.706,22.706,0,0,0,4.3-1.22c.927-.358,1.839-.767,2.727-1.212,1.983-.992,4.322-1.939,5.731-3.728a13.491,13.491,0,0,0-1.48-.532c-1.788-.419-4.05-.1-5.275-1.757a6.756,6.756,0,0,1-.81-4.965,9,9,0,0,1,2.454-4.806c1.214-1.274,3-2.8,4.825-3.017,1.273-.151,1.7.8,1.826,1.879" transform="translate(-383.872 -65.847)" fill="#007f3e"/>
    <path id="Path_2949" data-name="Path 2949" d="M1054.2,45.845l-3.649-9.611-1.265,2.161,1.86,25.033s.617,2.54-1.4,3.507a6.462,6.462,0,0,1-3.139.812c-1.321,0-2.068-.018-2.249-.053a1.915,1.915,0,0,1-1.712-1.123,17.381,17.381,0,0,1-.853-4.225q-.112-.962-.215-4.333c-.109-.355-.215-.535-.322-.535q-.857,1.283-1.765,2.567-1.659,2.3-3.636,2.3a2.462,2.462,0,0,1-2.3-1.819,15.074,15.074,0,0,0-.8-1.818q-.108.319-.694,1.712a8.423,8.423,0,0,0-.537,1.764q2.731,5.349,2.73,6.42,0,1.444-10.11,7.381a131.647,131.647,0,0,1-11.766,6.418c-.569.25-.856.463-.856.642q3.851-.75,5.722-1.23h.16q2.089-.751,3.96-1.444a17.394,17.394,0,0,0,3-1.39,29.486,29.486,0,0,0,2.674-1.767q4.545-3.207,4.654-3.315a13.145,13.145,0,0,0,3.476-4.493,7.444,7.444,0,0,0,.7-3.316v-.8c.213-.249.409-.355.587-.321q2.033-.319,3.53-3.155.534,6.74,1.552,7.729a4.63,4.63,0,0,0,3.314.99l1.768-.053c1-.131,6.1-.182,6.53-5.28.3-3.517-.571-19.5-.571-19.5" transform="translate(-742.666 -26.604)" fill="#007f3e" fill-rule="evenodd"/>
    <path id="Path_2950" data-name="Path 2950" d="M915.162,74.64a40.5,40.5,0,0,1,1.953,4.889,5.5,5.5,0,0,1-.651,3.846c-.781,1.109-3.846,5.541-16.3,5.8s-14.212.782-19.036-5.867c0,0-6.65,10.691-14.993,10.691s-1.3-13.82-1.3-13.82.782.2.326.978-2.542,6.454-.717,9.322,10.039-2.152,12.124-4.3,5.183-3.238,3.651-10.494a23.085,23.085,0,0,0-3.585-8.865l.521-5.216a37.234,37.234,0,0,1,5.216,14.342c.605,5.579.39,5.215.717,6s1.173,4.759,9.321,5.085S906.13,86.7,909,85.593s5.4-2.031,6.815-4.108c.946-1.386-1.94-3.944-1.94-3.944s1.124-2.77,1.289-2.9" transform="translate(-632.938 -45.229)" fill="#007f3e" fill-rule="evenodd"/>
    <path id="Path_2951" data-name="Path 2951" d="M1186.37,74.534s3.115.445,2.3-11.5-.965-17.809-.965-17.809l1.929.593-3.413-9.944-1.781,2s2.522,30.2,1.93,36.658" transform="translate(-869.633 -26.337)" fill="#007f3e" fill-rule="evenodd"/>
    <path id="Path_2953" data-name="Path 2953" d="M880.385,72.387s2.585.369,1.907-9.54-.8-14.771-.8-14.771l1.6.492-2.831-8.248-1.476,1.662s2.092,25.05,1.6,30.4" transform="translate(-645.217 -29.604)" fill="#007f3e" fill-rule="evenodd"/>
    <path id="Path_2954" data-name="Path 2954" d="M989.711,68.607l1.332-2.569,27.827-9.029-1.037,1.924Zm0,0" transform="translate(-726.66 -41.856)" fill="#007f3e" fill-rule="evenodd"/>
    <path id="Path_2955" data-name="Path 2955" d="M1107.48,179.676l2.267-2.266,2.06,2.059-2.142,2.142" transform="translate(-813.128 -130.257)" fill="#007f3e" fill-rule="evenodd"/>
    <path id="Path_2956" data-name="Path 2956" d="M971.887,183.609l2.265-2.265,2.059,2.059-2.142,2.141" transform="translate(-713.574 -133.145)" fill="#007f3e" fill-rule="evenodd"/>
    <path id="Path_2957" data-name="Path 2957" d="M955.613,183.609l2.266-2.265,2.059,2.059-2.141,2.141" transform="translate(-701.625 -133.145)" fill="#007f3e" fill-rule="evenodd"/>
    <path id="Path_2958" data-name="Path 2958" d="M673.081,172.991q-.273-.4-.543-.4c-.026,0-.1.058-.208.174s-.168.193-.168.228v.245c.207-.052.514-.133.919-.245m1.061-.026a2.91,2.91,0,0,1-.3.983,4.17,4.17,0,0,1-.893.078,1.771,1.771,0,0,0-.893.22.6.6,0,0,0-.336.517,6.365,6.365,0,0,0,.194,1q.143.57.4,2.42c.034.25.051.34.051.272v1.061a.1.1,0,0,1-.09.039c-.112,0-.212-.2-.3-.6q-.078-.427-.233-1.268c-.016-.1-.13-.54-.336-1.333a5.441,5.441,0,0,1-.22-1.333,3.291,3.291,0,0,1,.194-1.178,5.26,5.26,0,0,0,.259-.555,4.777,4.777,0,0,1,.155-.868q.388-.855.893-.855a1.461,1.461,0,0,1,.932.492,1.347,1.347,0,0,1,.517.906" transform="translate(-492.798 -125.966)" fill="#007f3e"/>
    <path id="Path_2959" data-name="Path 2959" d="M540.833,63.427s-.075,4.4-2.686,3.88-.114-7.954.109-9a32.446,32.446,0,0,1,1.606-3.985s-3.921,10.753-1.364,11.508c.864.255,2.26-1.285,2.335-2.4" transform="translate(-394.248 -39.886)" fill="#007f3e" fill-rule="evenodd"/>
    <path id="Path_2960" data-name="Path 2960" d="M1123.63,76.05s-.053,3.247-1.98,2.861-.085-5.866.08-6.636a23.936,23.936,0,0,1,1.185-2.939s-2.894,7.931-1.007,8.488c.638.189,1.669-.948,1.722-1.773" transform="translate(-822.891 -50.907)" fill="#007f3e" fill-rule="evenodd"/>
    <path id="Path_2961" data-name="Path 2961" d="M794.094,180.713l.788-1.492,9.945-3.627-.891,1.6Zm0,0" transform="translate(-583.036 -128.924)" fill="#007f3e" fill-rule="evenodd"/>
    <path id="Path_2962" data-name="Path 2962" d="M959.565,54.581l1-3.161s.413-.619.79-.121.842-.067.739-.652a1.039,1.039,0,0,0-1.563-.653c-.825.36-1.031,2.783-1.031,2.783l-2.664-2.629-.223,1.907" transform="translate(-702.356 -36.608)" fill="#007f3e" fill-rule="evenodd"/>
    <path id="Path_2963" data-name="Path 2963" d="M645.039,57.443l1-3.162s.412-.619.789-.12.842-.069.739-.653A1.04,1.04,0,0,0,646,52.854c-.825.361-1.031,2.785-1.031,2.785l-2.664-2.63-.223,1.908" transform="translate(-471.426 -38.709)" fill="#007f3e" fill-rule="evenodd"/>
    <path id="Path_2964" data-name="Path 2964" d="M752.634,68.6c-.463.351-.822.267-.961.071-.207-.29-.179-.983.712-1.228s.713.807.249,1.158m-.121-2.361c-1.082.428-2.163,2.278-2.163,2.278-.343,0-.313-.284-1.31-.371a2.19,2.19,0,0,0-1.708.854,13.607,13.607,0,0,1-4.241,3.529c-.511.313-.057.371-.057.371,1.878-.342,4.782-2.989,5.352-3.615s1.527-.581,1.48.2c-.037.595,1.154.483,1.154.483a5.2,5.2,0,0,0,2.461-1.337c1.082-1.082.114-2.818-.968-2.391" transform="translate(-545.41 -48.585)" fill="#007f3e" fill-rule="evenodd"/>
    <path id="Path_2965" data-name="Path 2965" d="M533.148,234.965h178.3v-3h-178.3Zm0,0" transform="translate(-391.445 -170.309)" fill="#007f3e" fill-rule="evenodd"/>
    <path id="Path_2967" data-name="Path 2967" d="M540.391,276.082a9.03,9.03,0,0,0-.05-.919q-.05-.483-.117-.952a2.845,2.845,0,0,0-.384-.919,3.49,3.49,0,0,0-.785-.851l10.789-.066a1.257,1.257,0,0,0,.4.066,2.367,2.367,0,0,0,.4-.033,1.188,1.188,0,0,0,.2-.017,1.247,1.247,0,0,0,.2-.05.4.4,0,0,0,.167-.051,1.64,1.64,0,0,1,.2-.083v4.143a3.766,3.766,0,0,0-1.937-1.1,8.4,8.4,0,0,0-1.336-.234q-.7-.067-1.5-.068h-.669a2.2,2.2,0,0,1-.367.034h-.334c-.222.022-.462.038-.718.05s-.508.028-.752.05v5.979h3.14a4.573,4.573,0,0,0,.752.068,5.762,5.762,0,0,0,.651-.034,1.946,1.946,0,0,0,.535-.066,2.487,2.487,0,0,0,.435-.167V284.5a2.1,2.1,0,0,0-.5-.417,3.433,3.433,0,0,0-.7-.318,6.082,6.082,0,0,0-.868-.2,5.921,5.921,0,0,0-.9-.068h-.167l-2.371-.066v7.883a.8.8,0,0,0,.2.1.651.651,0,0,0,.2.033.408.408,0,0,1,.118.016.355.355,0,0,0,.116.017.131.131,0,0,0,.1.033h.1c.312.046.623.089.936.134s.634.089.969.134c.312.045.628.078.952.1s.651.033.985.033h.636a.29.29,0,0,0,.133-.033h.268q.333-.033.651-.083c.211-.033.429-.073.651-.117.2-.045.406-.1.618-.167s.429-.133.652-.2a6.943,6.943,0,0,0,1.285-.6,7.985,7.985,0,0,0,1.22-.9l-1.838,4.408h-13.7a2.684,2.684,0,0,0,.318-.3q.15-.168.283-.334a.76.76,0,0,0,.117-.151c.033-.055.071-.116.117-.183a.816.816,0,0,1,.1-.151.922.922,0,0,0,.1-.15c.044-.111.088-.228.133-.351a2.2,2.2,0,0,0,.1-.384c.022-.134.039-.268.05-.4s.016-.278.016-.434v-.068" transform="translate(-395.782 -199.858)" fill="#007f3e"/>
    <path id="Path_2968" data-name="Path 2968" d="M601.965,277.891a8.936,8.936,0,0,1,3.157-3.457,16.329,16.329,0,0,1,4.292-1.921,18.473,18.473,0,0,1,4.827-.685c.445,0,.9.018,1.353.051s.919.073,1.386.117q.668.067,1.353.166t1.386.268V276.3q-.633-.469-1.3-.868a6.371,6.371,0,0,0-1.436-.635,7.838,7.838,0,0,0-1.52-.384,10.541,10.541,0,0,0-1.553-.116,9.661,9.661,0,0,0-3.307.567,10.326,10.326,0,0,0-3.006,1.737,7.454,7.454,0,0,0-2.172,2.705,8.265,8.265,0,0,0-.735,3.542v.234a.093.093,0,0,0,.034.066v.334a12.052,12.052,0,0,0,.8,3.641,6.469,6.469,0,0,0,1.771,2.505,11.4,11.4,0,0,0,2.355,1.57,10.326,10.326,0,0,0,2.555.869l.318.066c.1.023.206.045.318.066a1.521,1.521,0,0,1,.3.034,1.583,1.583,0,0,0,.3.033,2.82,2.82,0,0,1,.318.017,2.773,2.773,0,0,0,.317.016h.6q.6,0,1.169-.05c.379-.033.747-.084,1.1-.151q.5-.1.935-.217a6.969,6.969,0,0,0,.768-.251v-5.044a10.074,10.074,0,0,0-.066-1.186,4.19,4.19,0,0,0-.235-.985,2.114,2.114,0,0,0-.467-.8,4.009,4.009,0,0,0-.8-.668l5.244-.066a.761.761,0,0,0-.05.117.268.268,0,0,0-.017.083.094.094,0,0,0-.033.066v.068a1.558,1.558,0,0,0-.117.334,1.653,1.653,0,0,0-.05.4v8.818a.36.36,0,0,0,.033.167,1.172,1.172,0,0,0,.017.2,1.255,1.255,0,0,0,.05.2,1.435,1.435,0,0,0,.083.2,1.549,1.549,0,0,1,.084.2q-.735.2-1.537.351t-1.636.284q-.836.167-1.654.25t-1.654.116h-.835a20.9,20.9,0,0,1-5.211-.634,17.84,17.84,0,0,1-4.676-1.937,8.536,8.536,0,0,1-3.391-3.557,12.3,12.3,0,0,1-1.219-5.394v-.068a14.16,14.16,0,0,1,1.453-5.261" transform="translate(-440.905 -199.58)" fill="#007f3e"/>
    <path id="Path_2969" data-name="Path 2969" d="M687.783,283.576l-6.047-10.021a5.079,5.079,0,0,0-.485-.669,7.211,7.211,0,0,0-.651-.667,8.651,8.651,0,0,0-.752-.6c-.277-.2-.584-.4-.919-.6l3.074-.067a9.471,9.471,0,0,1,1.169.185,2.94,2.94,0,0,1,.835.317,3.408,3.408,0,0,1,.584.5,4.53,4.53,0,0,1,.518.667c.022.045.044.089.066.133s.045.09.066.134a.27.27,0,0,1,.05.067.055.055,0,0,0,.051.033.14.14,0,0,0,.016.066.257.257,0,0,0,.05.068l4.476,7.549,4.476-6.58a.155.155,0,0,0,.084-.084,1.047,1.047,0,0,1,.05-.116c.022-.045.045-.1.066-.151s.045-.106.068-.15v-.066a.1.1,0,0,1,.034-.066v-.2a.258.258,0,0,1,.032-.1v-.134a2.083,2.083,0,0,0-.1-.668,2.535,2.535,0,0,0-.3-.6,1.869,1.869,0,0,0-.451-.484,1.5,1.5,0,0,0-.518-.25l6.58-.067-8.685,12.627v6.814a4.058,4.058,0,0,0,.1.952,1.84,1.84,0,0,0,.334.718,3.561,3.561,0,0,0,.451.551,3.819,3.819,0,0,0,.485.417.255.255,0,0,0,.066.05.279.279,0,0,1,.068.051.053.053,0,0,0,.033.05.3.3,0,0,1,.066.05.284.284,0,0,0,.066.051.141.141,0,0,0,.066.015h-6.747a1.957,1.957,0,0,0,.685-.383,2.814,2.814,0,0,0,.484-.551,2.234,2.234,0,0,0,.3-.718,3.954,3.954,0,0,0,.1-.919v-.066" transform="translate(-498.48 -198.935)" fill="#007f3e"/>
    <path id="Path_2970" data-name="Path 2970" d="M758.565,275.631a10.721,10.721,0,0,0-.1-1.587,2.79,2.79,0,0,0-.3-.984,2.484,2.484,0,0,0-.485-.586,3.2,3.2,0,0,0-.686-.451l7.383-.066a17.852,17.852,0,0,1,3.273.384,6.84,6.84,0,0,1,2.338.952,8.965,8.965,0,0,1,1.553,1.3,4.576,4.576,0,0,1,.919,1.436c.045.156.088.313.134.467a3.808,3.808,0,0,1,.1.468,2.284,2.284,0,0,1,.083.434c.011.134.018.267.018.4v.3a5.389,5.389,0,0,1-.3,1.837,4.846,4.846,0,0,1-.868,1.5,9.227,9.227,0,0,1-1.253,1.219,8.5,8.5,0,0,1-1.353.886c-.267.134-.53.256-.785.368a5.387,5.387,0,0,1-.752.267,6.251,6.251,0,0,1-.685.151,3.781,3.781,0,0,1-.583.05q-.8,0-1.37-.05a5.379,5.379,0,0,1-.936-.151,3.114,3.114,0,0,1-.651-.25,2,2,0,0,1-.485-.351h.268a.029.029,0,0,0,.033.033h.467a6.365,6.365,0,0,0,1.9-.417,6.2,6.2,0,0,0,1.737-1.052,4.683,4.683,0,0,0,1.253-1.588,5.1,5.1,0,0,0,.05-3.924,2.764,2.764,0,0,0-1.069-1.236,4.988,4.988,0,0,0-1.569-.685,8.036,8.036,0,0,0-1.938-.217h-.467a.663.663,0,0,1-.217.033h-.25a1.911,1.911,0,0,0-.251.016,1.506,1.506,0,0,1-.217.018c-.089.022-.174.038-.25.05a1.743,1.743,0,0,1-.25.017V290.9a5.049,5.049,0,0,0,.134,1.252,3.053,3.053,0,0,0,.367.887,3.829,3.829,0,0,0,.6.6,2.345,2.345,0,0,0,.735.4h-7.115a2.184,2.184,0,0,0,.735-.417,2.652,2.652,0,0,0,.568-.684,3.078,3.078,0,0,0,.4-.886,4.111,4.111,0,0,0,.134-1.085V290.9" transform="translate(-555.6 -199.675)" fill="#007f3e"/>
    <path id="Path_2971" data-name="Path 2971" d="M818.535,272.818h-2.606q-.7.067-1.335.167a9.456,9.456,0,0,0-1.2.267,10.916,10.916,0,0,0-1,.434,5.757,5.757,0,0,0-.869.534l.969-4.275a1.033,1.033,0,0,0,.334.234.981.981,0,0,0,.368.066,3.345,3.345,0,0,0,.485.033h.651l13.161-.066a.763.763,0,0,0,.284.066h.484a.429.429,0,0,0,.1-.015.446.446,0,0,1,.1-.018.9.9,0,0,0,.167-.017,1.15,1.15,0,0,0,.2-.05c.068-.022.144-.05.235-.083a2.562,2.562,0,0,1,.267-.084l-1.3,4.143a1.359,1.359,0,0,0-.366-.468,3,3,0,0,0-.7-.434,6.2,6.2,0,0,0-.886-.267,4.4,4.4,0,0,0-.952-.1l-3.14-.066v17.369a2.647,2.647,0,0,0,.1.785,1.346,1.346,0,0,0,.334.551,3.246,3.246,0,0,0,.451.434c.167.134.329.256.485.367a1.046,1.046,0,0,1,.116.068.539.539,0,0,1,.084.066.072.072,0,0,1,.05.017.067.067,0,0,0,.05.016.07.07,0,0,0,.017.051.067.067,0,0,0,.05.015h-6.746a2.116,2.116,0,0,0,.685-.367,2.481,2.481,0,0,0,.484-.534,2.314,2.314,0,0,0,.3-.652,2.694,2.694,0,0,0,.1-.752v-.066" transform="translate(-595.83 -198.198)" fill="#007f3e"/>
    <path id="Path_2972" data-name="Path 2972" d="M916.912,275.631a10.721,10.721,0,0,0-.1-1.587,2.8,2.8,0,0,0-.3-.984,2.481,2.481,0,0,0-.485-.586,3.216,3.216,0,0,0-.684-.451l7.382-.066a17.856,17.856,0,0,1,3.274.384,6.841,6.841,0,0,1,2.338.952,8.964,8.964,0,0,1,1.553,1.3,4.561,4.561,0,0,1,.919,1.436c.045.156.088.313.134.467a3.7,3.7,0,0,1,.1.468,2.373,2.373,0,0,1,.084.434c.01.134.016.267.016.4v.3a5.392,5.392,0,0,1-.3,1.837,4.82,4.82,0,0,1-.868,1.5,9.233,9.233,0,0,1-1.253,1.219,8.457,8.457,0,0,1-1.353.886c-.267.134-.529.256-.785.368a5.4,5.4,0,0,1-.752.267,6.3,6.3,0,0,1-.684.151,3.806,3.806,0,0,1-.585.05q-.8,0-1.37-.05a5.38,5.38,0,0,1-.935-.151,3.1,3.1,0,0,1-.651-.25,1.975,1.975,0,0,1-.484-.351h.267c0,.023.01.033.033.033h.468a6.382,6.382,0,0,0,1.9-.417,6.211,6.211,0,0,0,1.736-1.052,4.685,4.685,0,0,0,1.253-1.588,5.107,5.107,0,0,0,.05-3.924,2.765,2.765,0,0,0-1.069-1.236,5,5,0,0,0-1.569-.685,8.025,8.025,0,0,0-1.938-.217h-.467a.663.663,0,0,1-.217.033h-.25a1.908,1.908,0,0,0-.251.016,1.511,1.511,0,0,1-.217.018c-.089.022-.172.038-.25.05a1.748,1.748,0,0,1-.25.017V290.9a5.059,5.059,0,0,0,.133,1.252,3.084,3.084,0,0,0,.367.887,3.874,3.874,0,0,0,.6.6,2.356,2.356,0,0,0,.735.4h-7.115a2.164,2.164,0,0,0,.735-.417,2.631,2.631,0,0,0,.568-.684,3.071,3.071,0,0,0,.4-.886,4.066,4.066,0,0,0,.134-1.085V290.9" transform="translate(-671.861 -199.675)" fill="#007f3e"/>
    <path id="Path_2973" data-name="Path 2973" d="M982.413,286.331a8.371,8.371,0,0,0,2,2.874,9.749,9.749,0,0,0,2.839,1.87,8.065,8.065,0,0,0,3.174.634,7.833,7.833,0,0,0,3.205-.634,6.753,6.753,0,0,0,2.506-1.937,9.828,9.828,0,0,0,1.619-2.755,8.6,8.6,0,0,0,.553-3.09v-.7a.092.092,0,0,1-.035-.068v-.234a.115.115,0,0,1-.032-.083v-.083a10.979,10.979,0,0,0-.853-3.074,11.622,11.622,0,0,0-1.786-2.805,7.426,7.426,0,0,0-2.623-2,8.121,8.121,0,0,0-3.357-.668h-.534a.257.257,0,0,1-.1.033h-.066a7.5,7.5,0,0,0-2.589.752,9.313,9.313,0,0,0-2.355,1.687,6.562,6.562,0,0,0-1.686,2.606,10.459,10.459,0,0,0-.551,3.541v.5a9.368,9.368,0,0,0,.669,3.641m-4.844-4.191c.022-.3.056-.619.1-.952.022-.179.05-.346.083-.5s.072-.323.117-.5q.067-.234.134-.484a3.67,3.67,0,0,1,.166-.485,11.052,11.052,0,0,1,1.4-2.889,13.878,13.878,0,0,1,2.338-2.621,8.631,8.631,0,0,1,3.374-1.888,15.668,15.668,0,0,1,4.611-.619,14.392,14.392,0,0,1,4.742.753,11.83,11.83,0,0,1,3.91,2.254,9.928,9.928,0,0,1,2.687,3.558,12.675,12.675,0,0,1,1.021,4.726c0,.134-.005.268-.016.4s-.019.268-.019.4c-.021.156-.04.3-.05.434s-.027.267-.05.4a5.35,5.35,0,0,1-.133.851c-.066.279-.144.563-.234.852a11.88,11.88,0,0,1-1.4,3.073,14.206,14.206,0,0,1-2.336,2.772,8.753,8.753,0,0,1-3.29,1.971,13.46,13.46,0,0,1-4.292.635,16.688,16.688,0,0,1-5.411-.8,9.926,9.926,0,0,1-3.943-2.439,12.25,12.25,0,0,1-2.487-3.641,12.984,12.984,0,0,1-1.053-4.376v-.066c0-.245.01-.518.033-.818" transform="translate(-717.721 -199.118)" fill="#007f3e"/>
    <path id="Path_2974" data-name="Path 2974" d="M1076.429,273.511a4.654,4.654,0,0,1,1.836-1.937,9.25,9.25,0,0,1,2.557-1.136,10.833,10.833,0,0,1,2.855-.368h.6a.251.251,0,0,0,.117.033h.55a1.131,1.131,0,0,0,.284.033h.284c.2.023.4.04.617.051a4.548,4.548,0,0,1,.651.083,6.327,6.327,0,0,1,.787.117q.383.084.749.149c.245.046.463.1.651.151a4.881,4.881,0,0,1,.518.184v3.641q-.4-.266-.9-.551c-.335-.189-.7-.373-1.1-.551a10.209,10.209,0,0,0-1.22-.451,9.822,9.822,0,0,0-1.252-.284c-.112-.022-.218-.037-.316-.049s-.207-.028-.319-.051h-.149a.344.344,0,0,1-.151-.033h-.3a5.21,5.21,0,0,0-1.1.116,4.94,4.94,0,0,0-1.034.352,3.354,3.354,0,0,0-.9.617,3.791,3.791,0,0,0-.7.952c-.043.089-.082.174-.114.251s-.074.162-.12.25c-.021.089-.037.173-.048.25a1.524,1.524,0,0,0-.019.251,2.263,2.263,0,0,0,.284,1.068,3.734,3.734,0,0,0,.853,1.036,9.416,9.416,0,0,0,1.2.9,8.741,8.741,0,0,0,1.369.7l3.676,1.8a3.066,3.066,0,0,0,.367.251c.133.078.279.162.436.25s.311.184.465.283.314.206.468.318a9.627,9.627,0,0,1,.97.818,11.374,11.374,0,0,1,.9.985,3.869,3.869,0,0,1,.651,1.136,3.676,3.676,0,0,1,.218,1.27,6.289,6.289,0,0,1-.686,2.974,5.962,5.962,0,0,1-2.055,2.2,9.995,9.995,0,0,1-2.987,1.353,14.687,14.687,0,0,1-3.625.484c-.4,0-.8-.017-1.2-.05s-.8-.084-1.2-.15q-.634-.1-1.252-.217c-.412-.078-.832-.172-1.252-.284a.647.647,0,0,0-.136-.051.439.439,0,0,0-.1-.017h-.135a.286.286,0,0,1-.133-.033,1.535,1.535,0,0,1-.25-.083,1.788,1.788,0,0,0-.253-.084l-.768-4.275a9.546,9.546,0,0,0,.885.785,6.8,6.8,0,0,0,.954.619c.176.089.346.172.5.25a5.279,5.279,0,0,0,.5.217c.154.066.316.134.484.2a5.113,5.113,0,0,0,.484.167l.4.134a2.5,2.5,0,0,0,.4.1,1.744,1.744,0,0,0,.367.1l.4.066.784.066c.255.023.508.033.752.033a7.725,7.725,0,0,0,1.738-.184,6.473,6.473,0,0,0,1.467-.517,4.107,4.107,0,0,0,1.1-.852,2.661,2.661,0,0,0,.6-1.118,2.027,2.027,0,0,0,.051-.251c.011-.078.029-.161.051-.25v-.117a.251.251,0,0,1,.034-.116v-.235a3.045,3.045,0,0,0-.066-.634,2.743,2.743,0,0,0-.4-.835c-.066-.089-.135-.179-.2-.268a1.626,1.626,0,0,1-.25-.234,2.211,2.211,0,0,0-.284-.267c-.157-.111-.316-.228-.484-.351s-.351-.25-.55-.384-.407-.267-.619-.4-.438-.267-.686-.4l-3.708-1.9a.137.137,0,0,1-.133,0,.3.3,0,0,0-.133-.033,1.206,1.206,0,0,1-.167-.067c-.045-.022-.09-.044-.133-.066a2.381,2.381,0,0,1-.284-.167c-.1-.066-.194-.134-.284-.2a9.089,9.089,0,0,1-1.135-.818,8.49,8.49,0,0,1-1.036-1.053,4.819,4.819,0,0,1-1.135-2.772v-.066a6.306,6.306,0,0,1,.6-2.839" transform="translate(-789.692 -198.289)" fill="#007f3e"/>
    <path id="Path_2975" data-name="Path 2975" d="M1140.264,272.818h-2.6c-.468.045-.914.1-1.337.167a9.449,9.449,0,0,0-1.2.267,10.722,10.722,0,0,0-1,.434,5.568,5.568,0,0,0-.869.534l.967-4.275a1.026,1.026,0,0,0,.335.234.98.98,0,0,0,.367.066,3.373,3.373,0,0,0,.486.033h.651l13.159-.066a.773.773,0,0,0,.284.066h.484a.418.418,0,0,0,.1-.015.45.45,0,0,1,.1-.018.926.926,0,0,0,.168-.017,1.165,1.165,0,0,0,.2-.05c.066-.022.144-.05.234-.083a2.491,2.491,0,0,1,.268-.084l-1.3,4.143a1.354,1.354,0,0,0-.367-.468,2.967,2.967,0,0,0-.7-.434,6.223,6.223,0,0,0-.885-.267,4.388,4.388,0,0,0-.951-.1l-3.139-.066v17.369a2.652,2.652,0,0,0,.1.785,1.356,1.356,0,0,0,.335.551,3.245,3.245,0,0,0,.452.434c.167.134.327.256.484.367a1.124,1.124,0,0,1,.117.068.442.442,0,0,1,.082.066.069.069,0,0,1,.051.017.068.068,0,0,0,.051.016.074.074,0,0,0,.016.051.073.073,0,0,0,.051.015h-6.748a2.09,2.09,0,0,0,.686-.367,2.439,2.439,0,0,0,.484-.534,2.325,2.325,0,0,0,.3-.652,2.738,2.738,0,0,0,.1-.752v-.066" transform="translate(-832.049 -198.198)" fill="#007f3e"/>
  </g>
</svg>
