<?xml version="1.0" encoding="utf-8"?>
<!-- Generator: Adobe Illustrator 27.7.0, SVG Export Plug-In . SVG Version: 6.00 Build 0)  -->
<svg version="1.1" id="layer" xmlns="http://www.w3.org/2000/svg" xmlns:xlink="http://www.w3.org/1999/xlink" x="0px" y="0px"
	 viewBox="0 0 300 101" style="enable-background:new 0 0 300 101;" xml:space="preserve">
<style type="text/css">
	.st0{fill:#5293C5;}
</style>
<g>
	<path class="st0" d="M116.7,19.1h7.5v2.1h-4.8v4h4.5v2.1h-4.5v6.5h-2.7V19.1L116.7,19.1z"/>
	<path class="st0" d="M130.1,22.8c2.3,0,4.8,1.2,4.8,5.6c0,4.6-2.6,5.7-4.8,5.7c-2.2,0-4.9-1-4.9-5.7
		C125.2,23.9,127.9,22.8,130.1,22.8z M130.1,32.2c1.7,0,2.1-2,2.1-3.7c0-1.8-0.4-3.7-2.1-3.7s-2.1,2-2.1,3.7
		C128,30.2,128.4,32.2,130.1,32.2z"/>
	<path class="st0" d="M141.6,22.8c2.3,0,4.8,1.2,4.8,5.6c0,4.6-2.6,5.7-4.8,5.7c-2.3,0-4.8-1-4.8-5.7
		C136.7,23.9,139.3,22.8,141.6,22.8z M141.6,32.2c1.7,0,2.1-2,2.1-3.7c0-1.8-0.4-3.7-2.1-3.7c-1.7,0-2.1,2-2.1,3.7
		C139.5,30.2,139.8,32.2,141.6,32.2z"/>
	<path class="st0" d="M157.3,17.9V32c0,0.8,0,1.4,0.1,1.8h-2.6c0-0.3-0.1-0.9-0.1-1.7l0,0c-0.4,0.9-1.2,1.8-2.9,1.8
		c-2.7,0-3.9-2.7-3.9-5.6c0-3.6,1.4-5.7,3.7-5.7c1.6,0,2.4,0.9,2.8,1.7l0,0v-6.5L157.3,17.9L157.3,17.9z M152.7,32.2
		c1.6,0,2.1-1.7,2.1-3.7c0-2.1-0.5-3.7-2-3.7c-1.4,0-2,1.4-2,3.6C150.7,30.8,151.1,32.2,152.7,32.2z"/>
	<path class="st0" d="M165.9,23.6c0.8-0.4,1.7-0.8,3.5-0.8c3.5,0,4.3,1.6,4.3,4.4V32c0,0.8,0.1,1.4,0.1,2h-2.4
		c-0.1-0.4-0.1-0.9-0.1-1.4l0,0c-0.7,0.9-1.4,1.6-3.1,1.6c-1.7,0-3.3-1.2-3.3-3.2c0-2.9,2.4-3.7,5.7-3.7h0.5v-0.4c0-1-0.5-2.1-2-2.1
		c-1.3,0-2.6,0.7-3.1,1L165.9,23.6z M171.1,28.6h-0.3c-2.3,0-3.6,0.5-3.6,2.1c0,1,0.7,1.7,1.7,1.7c1.6,0,2.1-1.2,2.1-3.2L171.1,28.6
		L171.1,28.6z"/>
	<path class="st0" d="M176,24.7c0-0.7,0-1.3-0.1-1.8h2.6c0,0.5,0.1,1,0.1,1.7l0,0c0.4-0.7,1-1.8,2.9-1.8c2.6,0,3.2,1.8,3.2,4.1v7.1
		H182v-6.5c0-1.7-0.4-2.4-1.4-2.4c-1.3,0-1.8,1.2-1.8,2.6v6.4h-2.7L176,24.7L176,24.7z"/>
	<path class="st0" d="M195.9,17.9V32c0,0.8,0,1.4,0.1,1.8h-2.6c0-0.3-0.1-0.9-0.1-1.7l0,0c-0.4,0.9-1.2,1.8-2.9,1.8
		c-2.7,0-3.9-2.7-3.9-5.6c0-3.6,1.4-5.7,3.7-5.7c1.6,0,2.4,0.9,2.8,1.7l0,0v-6.5L195.9,17.9L195.9,17.9z M191.3,32.2
		c1.6,0,2.1-1.7,2.1-3.7c0-2.1-0.5-3.7-2-3.7c-1.4,0-2,1.4-2,3.6C189.3,30.8,189.7,32.2,191.3,32.2z"/>
	<path class="st0" d="M210.6,30.3h-5l-1,3.6h-2.7l4.9-14.9h2.9l4.8,14.9h-2.8L210.6,30.3z M210,28.3l-1.8-6.9l0,0l-2,6.9H210z"/>
	<path class="st0" d="M216,35.6c0.7,0.4,1.8,0.9,3.2,0.9c2.6,0,2.9-1.7,2.9-3.5v-1l0,0c-0.4,0.8-1.2,1.8-2.9,1.8
		c-1.4,0-3.9-1-3.9-5.4c0-3.1,1-5.7,4-5.7c1.6,0,2.4,0.9,2.9,1.8h0.1c0-0.5,0-1,0.1-1.7h2.4c0,0.5-0.1,1.2-0.1,1.7v8.1
		c0,3.5-1,5.8-5,5.8c-1.7,0-3.2-0.4-3.7-0.7L216,35.6L216,35.6z M219.9,32c1.6,0,2.3-1.2,2.3-3.7c0-2.3-0.9-3.6-2.1-3.5
		c-1.3,0-1.8,1.3-1.8,3.6C218.1,30.9,219,32,219.9,32z"/>
	<path class="st0" d="M227.1,24.7c0-0.7,0-1.3-0.1-1.8h2.4c0,0.7,0.1,1.3,0.1,2l0,0c0.3-0.8,1.2-2.1,2.8-2.1c0.1,0,0.3,0,0.4,0v2.6
		c-0.3,0-0.5-0.1-0.8-0.1c-1,0-2.3,0.7-2.3,2.7v6.1H227L227.1,24.7L227.1,24.7z"/>
	<path class="st0" d="M234.9,18.3h2.7V21h-2.7V18.3z M234.9,23h2.7v10.9h-2.7V23z"/>
	<path class="st0" d="M247.5,33.6c-0.7,0.3-1.6,0.4-2.7,0.4c-3.6,0-5.2-2.6-5.2-5.6c0-3.2,1.6-5.7,5.3-5.7c0.8,0,1.8,0.3,2.3,0.4
		l-0.1,2.1c-0.5-0.3-1-0.5-1.8-0.5c-2,0-2.9,1.3-2.9,3.7c0,2,0.9,3.6,3.1,3.6c0.7,0,1.4-0.3,1.8-0.5L247.5,33.6z"/>
	<path class="st0" d="M257.8,32.2c0,0.7,0,1.3,0.1,1.8h-2.5c0-0.5-0.1-1-0.1-1.7l0,0l0,0c-0.5,0.8-1.2,1.8-2.9,1.8
		c-2.6,0-3.2-1.8-3.2-4.1v-7.1h2.7v6.5c0,1.7,0.5,2.4,1.6,2.4c1.4,0,1.8-1.3,1.8-2.7v-6.2h2.7L257.8,32.2L257.8,32.2z"/>
	<path class="st0" d="M260.5,17.9h2.7v16h-2.7V17.9z"/>
	<path class="st0" d="M266.6,20.7l2.7-0.8V23h2.1v2h-2.1v5.7c0,1.2,0.4,1.4,1.2,1.4c0.5,0,0.8-0.1,1-0.3v1.8
		c-0.4,0.1-0.9,0.4-1.7,0.4c-2,0-3.1-0.9-3.1-3.2v-6H265v-2h1.7L266.6,20.7L266.6,20.7z"/>
	<path class="st0" d="M281.8,32.2c0,0.7,0,1.3,0.1,1.8h-2.6c0-0.5-0.1-1-0.1-1.7l0,0l0,0c-0.5,0.8-1.2,1.8-2.9,1.8
		c-2.6,0-3.2-1.8-3.2-4.1v-7.1h2.7v6.5c0,1.7,0.5,2.4,1.6,2.4c1.4,0,1.8-1.3,1.8-2.7v-6.2h2.7L281.8,32.2L281.8,32.2z"/>
	<path class="st0" d="M284.3,24.7c0-0.7,0-1.3-0.1-1.8h2.4c0,0.7,0.1,1.3,0.1,2l0,0c0.3-0.8,1.2-2.1,2.8-2.1c0.1,0,0.3,0,0.4,0v2.6
		c-0.3,0-0.5-0.1-0.8-0.1c-1,0-2.3,0.7-2.3,2.7v6.1h-2.7L284.3,24.7L284.3,24.7z"/>
	<path class="st0" d="M299.5,33.3c-0.5,0.3-1.7,0.7-3.3,0.7c-3.6,0-5-2.6-5-5.4c0-3.3,1.7-5.8,4.5-5.8c2.4,0,4.4,1.3,4.4,5.8v0.5
		h-6.4c0,1.8,0.8,3.1,2.8,3.1c1.6,0,2.4-0.5,2.9-0.8L299.5,33.3z M297.5,27.5c0-2-0.7-2.9-1.8-2.9c-1.3,0-2,1.4-2,2.9H297.5z"/>
	<path class="st0" d="M122.1,41.1c3.1,0,5.8,2.3,5.8,7.6s-2.8,7.6-5.8,7.6s-5.8-2.3-5.8-7.6S119,41.1,122.1,41.1z M122.1,54.3
		c1.7,0,3.1-1.4,3.1-5.6s-1.3-5.6-3.1-5.6c-1.7,0-3.1,1.4-3.1,5.6C119,52.8,120.4,54.3,122.1,54.3z"/>
	<path class="st0" d="M130.4,47c0-0.7,0-1.3-0.1-1.8h2.4c0,0.7,0.1,1.3,0.1,2l0,0c0.3-0.8,1.2-2.1,2.8-2.1c0.1,0,0.3,0,0.4,0v2.6
		c-0.3,0-0.5-0.1-0.8-0.1c-1,0-2.3,0.7-2.3,2.7v6.1h-2.7L130.4,47L130.4,47z"/>
	<path class="st0" d="M137.8,57.8c0.7,0.4,1.8,0.9,3.2,0.9c2.6,0,2.9-1.7,2.9-3.5v-1l0,0c-0.4,0.8-1.2,1.8-2.9,1.8
		c-1.6,0-3.9-1-3.9-5.4c0-3.1,1-5.7,4-5.7c1.6,0,2.4,0.9,2.9,1.8h0.1c0-0.5,0-1,0.1-1.7h2.4c0,0.5-0.1,1.2-0.1,1.7v8.1
		c0,3.5-1,5.8-5,5.8c-1.7,0-3.2-0.4-3.7-0.7L137.8,57.8L137.8,57.8z M141.7,54.3c1.6,0,2.3-1.2,2.3-3.7c0-2.3-0.9-3.6-2.1-3.5
		c-1.3,0-1.8,1.3-1.8,3.6C139.9,53.2,140.7,54.3,141.7,54.3z"/>
	<path class="st0" d="M149.5,45.9c0.8-0.4,1.7-0.8,3.5-0.8c3.5,0,4.1,1.6,4.1,4.4v4.8c0,0.8,0.1,1.4,0.1,2h-2.4
		c-0.1-0.4-0.1-0.9-0.1-1.4l0,0c-0.7,0.9-1.4,1.6-3.1,1.6c-1.7,0-3.3-1.2-3.3-3.2c0-2.9,2.4-3.7,5.7-3.7h0.5V49c0-1-0.5-2.1-2-2.1
		c-1.3,0-2.6,0.7-3.1,1L149.5,45.9L149.5,45.9z M154.7,50.8h-0.3c-2.3,0-3.6,0.5-3.6,2.1c0,1,0.7,1.7,1.7,1.7c1.6,0,2.1-1.2,2.1-3.2
		L154.7,50.8L154.7,50.8z"/>
	<path class="st0" d="M159.5,47c0-0.7,0-1.3-0.1-1.8h2.6c0,0.5,0.1,1,0.1,1.7l0,0c0.4-0.7,1-1.8,2.9-1.8c2.6,0,3.2,1.8,3.2,4.1v7.1
		h-2.7v-6.5c0-1.7-0.4-2.4-1.4-2.4c-1.3,0-1.8,1.2-1.8,2.6v6.4h-2.7L159.5,47L159.5,47z"/>
	<path class="st0" d="M170.8,40.5h2.7v2.7h-2.7V40.5z M170.8,45.3h2.7v10.9h-2.7V45.3z"/>
	<path class="st0" d="M175.5,53.8l4.6-6.7h-4.5v-2h7.2v2.3l-4.6,6.7h4.8v2h-7.5L175.5,53.8L175.5,53.8z"/>
	<path class="st0" d="M185.3,45.9c0.8-0.4,1.7-0.8,3.5-0.8c3.5,0,4.1,1.6,4.1,4.4v4.8c0,0.8,0.1,1.4,0.1,2h-2.4
		c-0.1-0.4-0.1-0.9-0.1-1.4l0,0c-0.7,0.9-1.4,1.6-3.1,1.6c-1.7,0-3.3-1.2-3.3-3.2c0-2.9,2.4-3.7,5.7-3.7h0.5V49c0-1-0.5-2.1-2-2.1
		c-1.3,0-2.6,0.7-3.1,1L185.3,45.9L185.3,45.9z M190.5,50.8h-0.3c-2.3,0-3.6,0.5-3.6,2.1c0,1,0.7,1.7,1.7,1.7c1.6,0,2.1-1.2,2.1-3.2
		L190.5,50.8L190.5,50.8z"/>
	<path class="st0" d="M196.3,43l2.7-0.8v3.1h2.1v2H199v5.7c0,1.2,0.4,1.4,1.2,1.4c0.5,0,0.8-0.1,1-0.3v1.8c-0.4,0.1-0.9,0.4-1.7,0.4
		c-2,0-3.1-0.9-3.1-3.2v-6h-1.8v-2h1.7V43L196.3,43z"/>
	<path class="st0" d="M203.1,40.5h2.7v2.7h-2.7V40.5z M203.1,45.3h2.7v10.9h-2.7V45.3z"/>
	<path class="st0" d="M212.9,45.1c2.3,0,4.8,1.2,4.8,5.6c0,4.6-2.6,5.7-4.8,5.7c-2.3,0-4.8-1-4.8-5.7
		C208.1,46.2,210.6,45.1,212.9,45.1z M212.9,54.4c1.7,0,2.1-2,2.1-3.7s-0.4-3.7-2.1-3.7c-1.7,0-2.1,2-2.1,3.7S211.2,54.4,212.9,54.4
		z"/>
	<path class="st0" d="M219.9,47c0-0.7,0-1.3-0.1-1.8h2.6c0,0.5,0.1,1,0.1,1.7l0,0c0.4-0.7,1-1.8,2.9-1.8c2.6,0,3.2,1.8,3.2,4.1v7.1
		h-2.7v-6.5c0-1.7-0.4-2.4-1.4-2.4c-1.3,0-1.8,1.2-1.8,2.6v6.4h-2.7L219.9,47L219.9,47z"/>
	<path class="st0" d="M240,45.4c2.3,0,4.8,1.2,4.8,5.6c0,4.6-2.6,5.7-4.8,5.7c-2.3,0-4.9-1-4.9-5.6S237.7,45.4,240,45.4z M240,54.9
		c1.7,0,2.1-2,2.1-3.7c0-1.7-0.4-3.7-2.1-3.7c-1.7,0-2.1,2-2.1,3.7S238.3,54.9,240,54.9z"/>
	<path class="st0" d="M247.7,47.5h-1.8v-2h1.8v-2.3c0-1.6,0.8-3.1,3.2-3.1c0.7,0,1.3,0.1,1.8,0.3l-0.1,1.8c-0.3-0.1-0.7-0.1-1-0.1
		c-0.8,0-1.2,0.5-1.2,1.3v1.8h2v2h-2v9h-2.7C247.7,56.6,247.7,47.5,247.7,47.5z"/>
	<path class="st0" d="M260.5,43.4l2.7-0.8v3.1h2.1v2h-2.3v5.7c0,1.2,0.4,1.4,1.2,1.4c0.5,0,0.8-0.1,1-0.3v1.8
		c-0.4,0.1-0.9,0.4-1.7,0.4c-2,0-3.1-0.9-3.1-3.2v-6h-1.7v-2h1.7C260.5,45.7,260.5,43.4,260.5,43.4z"/>
	<path class="st0" d="M266.9,40.7h2.7V47l0,0c0.5-0.7,1-1.6,2.7-1.6c2.6,0,3.2,1.8,3.2,4.1v7.1h-2.7v-6.5c0-1.7-0.4-2.4-1.4-2.4
		c-1.3,0-1.8,1.2-1.8,2.6v6.4h-2.7L266.9,40.7L266.9,40.7z"/>
	<path class="st0" d="M286,56.1c-0.5,0.3-1.7,0.7-3.3,0.7c-3.6,0-5-2.6-5-5.4c0-3.3,1.7-5.8,4.5-5.8c2.4,0,4.4,1.3,4.4,5.8v0.5h-6.4
		c0,1.8,0.8,3.1,2.8,3.1c1.6,0,2.4-0.5,2.9-0.8L286,56.1z M284,50.2c0-2-0.7-2.9-1.8-2.9c-1.3,0-2,1.4-2,2.9H284z"/>
	<path class="st0" d="M119.7,64.3v12.5c0,3.3,1,4.4,3.2,4.4c2.1,0,3-1,3-4.4V64.3h3.5v12.5c0,5-3,7.1-6.6,7.1
		c-3.7,0-6.6-2.1-6.6-7.1V64.3C116.2,64.3,119.7,64.3,119.7,64.3z"/>
	<path class="st0" d="M132.9,71.7c0-0.9,0-1.7-0.2-2.4h3.3c0,0.7,0.2,1.4,0.2,2.2l0,0c0.5-0.9,1.4-2.4,3.9-2.4
		c3.3,0,4.2,2.4,4.2,5.4v9.2h-3.5v-8.5c0-2.2-0.5-3.2-1.9-3.2c-1.7,0-2.4,1.5-2.4,3.3v8.3H133L132.9,71.7L132.9,71.7z"/>
	<path class="st0" d="M147.6,63.4h3.5v3.5h-3.5V63.4z M147.7,69.5h3.5v14.2h-3.5V69.5z"/>
	<path class="st0" d="M155.9,66.5l3.5-1v4h2.7v2.6h-2.7v7.4c0,1.5,0.5,1.9,1.5,1.9c0.7,0,1-0.2,1.4-0.3v2.4
		c-0.5,0.2-1.2,0.5-2.2,0.5c-2.6,0-4-1.2-4-4.2V72h-2.6v-2.6h2.2L155.9,66.5L155.9,66.5z"/>
	<path class="st0" d="M174.9,83c-0.7,0.3-2.2,0.9-4.4,0.9c-4.7,0-6.6-3.3-6.6-7.1c0-4.4,2.2-7.6,5.9-7.6c3.2,0,5.7,1.7,5.7,7.6v0.7
		h-8.3c0,2.4,1,4,3.7,4c2.1,0,3.2-0.7,3.9-1L174.9,83z M172.2,75.4c0-2.6-0.9-3.9-2.4-3.9c-1.7,0-2.6,1.9-2.6,3.9H172.2z"/>
	<path class="st0" d="M189.9,62.9v18.4c0,1,0,1.9,0.2,2.4h-3.3c0-0.3-0.2-1.2-0.2-2.2l0,0c-0.5,1.2-1.5,2.4-3.9,2.4
		c-3.5,0-5.1-3.5-5.1-7.3c0-4.7,1.9-7.4,4.9-7.4c2.1,0,3.2,1.2,3.7,2.2l0,0v-8.5L189.9,62.9L189.9,62.9z M183.7,81.5
		c2.1,0,2.7-2.2,2.7-4.9c0-2.7-0.7-4.9-2.6-4.9c-1.9,0-2.6,1.9-2.6,4.7C181.3,79.8,181.8,81.5,183.7,81.5z"/>
	<path class="st0" d="M200.7,64.3h4.2l6.4,15.3l0,0V64.3h3.3v19.4h-4.2l-6.4-15.2l0,0v15.2h-3.3V64.3L200.7,64.3z"/>
	<path class="st0" d="M218.9,70.2c1-0.5,2.2-1,4.5-1c4.5,0,5.4,2.1,5.4,5.7v6.2c0,1,0.2,1.9,0.2,2.6h-3.2c-0.2-0.5-0.2-1.2-0.2-1.9
		l0,0c-0.9,1.2-1.9,2.1-4,2.1c-2.2,0-4.4-1.5-4.4-4.2c0-3.9,3.2-4.9,7.4-4.9h0.7v-0.5c0-1.4-0.7-2.7-2.6-2.7c-1.7,0-3.3,0.9-4,1.4
		L218.9,70.2L218.9,70.2z M225.8,76.8h-0.3c-3,0-4.7,0.7-4.7,2.7c0,1.4,0.9,2.2,2.2,2.2c2.1,0,2.7-1.5,2.7-4L225.8,76.8L225.8,76.8z
		"/>
	<path class="st0" d="M233.6,66.5l3.5-1v4h2.7v2.6h-3v7.4c0,1.5,0.5,1.9,1.5,1.9c0.7,0,1-0.2,1.4-0.3v2.4c-0.5,0.2-1.2,0.5-2.2,0.5
		c-2.6,0-4-1.2-4-4.2V72h-2.2v-2.6h2.2L233.6,66.5L233.6,66.5z"/>
	<path class="st0" d="M242.3,63.4h3.5v3.5h-3.5V63.4z M242.3,69.5h3.5v14.2h-3.5V69.5z"/>
	<path class="st0" d="M255.2,69.2c3,0,6.2,1.5,6.2,7.3c0,6.1-3.3,7.4-6.2,7.4s-6.2-1.4-6.2-7.4C248.9,70.7,252.2,69.2,255.2,69.2z
		 M255.2,81.5c2.2,0,2.7-2.6,2.7-4.9c0-2.2-0.5-4.9-2.7-4.9s-2.7,2.6-2.7,4.9C252.3,78.9,252.8,81.5,255.2,81.5z"/>
	<path class="st0" d="M264.1,71.7c0-0.9,0-1.7-0.2-2.4h3.3c0,0.7,0.2,1.4,0.2,2.2l0,0c0.5-0.9,1.4-2.4,3.9-2.4
		c3.3,0,4.2,2.4,4.2,5.4v9.2H272v-8.5c0-2.2-0.5-3.2-1.9-3.2c-1.7,0-2.4,1.5-2.4,3.3v8.3h-3.5L264.1,71.7L264.1,71.7z"/>
	<path class="st0" d="M278.3,80.5c0.5,0.2,1.9,0.9,3.7,0.9c1.2,0,2.2-0.3,2.2-1.4c0-0.5-0.3-1-1.5-1.7l-1.4-0.9c-1.4-0.9-3-1.7-3-4
		c0-1.9,1.9-4,4.9-4c1.9,0,3.3,0.5,3.7,0.5l-0.2,2.6c-0.9-0.3-1.7-0.7-3-0.7c-1.4,0-1.9,0.5-1.9,1.4c0,0.7,0.7,1.2,1.5,1.9l1.7,1
		c1.7,1.2,2.6,1.9,2.6,3.7c0,2.6-2.2,4.2-5.4,4.2c-1.7,0-3.3-0.3-4-0.7L278.3,80.5L278.3,80.5z"/>
</g>
<g>
	<path class="st0" d="M50.4,101C22.6,101,0,78.4,0,50.4S22.6,0,50.4,0c28,0,50.6,22.6,50.6,50.4S78.4,101,50.4,101z M50.2,30.7
		c0,0,4.1,4.3,4.1,7.8c0,3.8-2.8,4.6-3.9,4.6h-0.2l0,0h-0.2c-1.1,0-3.9-0.9-3.9-4.6C46.1,35,50.2,30.7,50.2,30.7z M12.4,53.3h4.6
		v-8.5h7.6v-3.6h-7.6v-4.8h8v-3.6H12.4V53.3z M54.5,31.2h4.8L53.7,11h-6.2l-5.9,20.3H46l1.2-4.6h5.9L54.5,31.2z M52.3,23.2H48
		l1.9-8.9h0.4L52.3,23.2z M73.7,43.1c0,6,2.8,10.5,8.5,10.5c5.9,0,8.7-4.6,8.7-10.5c0-6-2.8-10.5-8.7-10.5
		C76.6,32.6,73.7,37.3,73.7,43.1z M78.7,43.1c0-3.9,0.9-7.1,3.8-7.1c2.8,0,3.8,3.2,3.8,7.1s-1.1,7.1-3.8,7.1
		C79.6,50.2,78.7,47.1,78.7,43.1z M48.3,95.3c0.4-1.9,0.5-5.2,0.5-8.9c0-1.1,0-0.4,0-0.5c0-5.2-0.2-6.9-3.8-8.2
		c-5.3-1.8-7.6-7.8-6.4-15.3L20.9,16.7C11.6,25,5.5,37.1,5.5,50.4C5.5,74.5,24.6,94.3,48.3,95.3z M50.4,66.3
		c-7.1-1.6-9.8-8.2-9.8-13.9L24.9,13.6c-1.1,0.7-1.9,1.4-3.1,2.3c3.6,8.2,19,45.1,19,45.1c2.6,6.6,7.8,4.5,8.9,10
		c0.4,1.2,0.4,1.9,0.4,1.9h0.5c0,0,0-0.5,0.4-1.9c1.2-5.5,6.2-3.2,8.9-10c0,0,15.5-36.8,19-45.1c-0.9-0.7-1.9-1.6-3.1-2.3L60.2,52.3
		C60.4,58.1,57.7,64.5,50.4,66.3L50.4,66.3z M50.4,54.5c-3.1-0.7-6.8-3.8-7.3-7.5c-0.2-1.4-0.4-1.9-0.2-4.8L29.2,11
		c-1.1,0.5-2.1,1.2-3.2,1.9c4.1,9.3,16.7,37.5,16.7,37.5c1.9,4.3,5.5,4.3,6.8,6.8c0.7,1.4,0.7,2.8,0.9,2.8h0.5c0-0.2,0-1.4,0.9-2.8
		c1.2-2.5,4.6-2.6,6.8-6.8c0,0,12.6-28.3,16.7-37.5c-1.1-0.7-2.1-1.4-3.2-1.9L58.3,42.1c0.2,2.8,0,3.4-0.2,4.8
		C57.3,50.9,53.7,53.8,50.4,54.5L50.4,54.5z M50.6,49.2l0.2-1.8c0.9-3.9,3.8-3.4,5.7-7.3l0,0c0-0.2,9.8-21,13.9-29.7
		c-6-3.1-12.8-4.8-19.9-4.8s-14,1.8-19.9,4.8c4.1,8.7,13.9,29.7,13.9,29.7l0,0c1.9,3.9,4.8,3.4,5.7,7.3l0.2,1.8
		C50.2,49.2,50.6,49.2,50.6,49.2z M95.5,50.4c0-13.3-5.9-25.4-15.3-33.7l-18,45.8c1.2,7.5-1.1,13.5-6.4,15.3
		C52.2,78.9,52,80.7,52,86c0,0.4,0-0.4,0,0.5c0,3.8,0.4,6.9,0.5,8.9C76.5,94.3,95.5,74.5,95.5,50.4z M19.8,63.8c0,0,0.7,1.4,1.2,2.5
		c0.5,1.1,1.2,2.1,1.2,2.1L21,69.1c0,0-0.9-1.4-1.8-3.2c-0.2,0.2-1.6,0.9-1.9,0.9c0.2,0.2,1.6,3.1,1.6,3.1l-1.1,0.7
		c0,0-1.4-2.8-1.6-3.1c-0.2,0.2-3.4,1.8-3.4,1.8l-0.7-1.6L19.8,63.8L19.8,63.8z M24.6,71.5l1.1,1.2l-6.6,5.5L18.1,77L24.6,71.5
		L24.6,71.5z M30.7,77.2l1.2,0.9l-1.6,9.1l-1.4-0.9c0,0,0.4-1.8,0.4-1.9c0,0-0.9-0.5-1.8-1.2c-0.9-0.5-1.6-1.2-1.8-1.4
		c-0.2,0.2-1.8,1.1-1.8,1.1l-1.2-1.1L30.7,77.2L30.7,77.2z M26.7,81.1c0.2,0.2,0.7,0.5,1.2,1.1c0.5,0.4,1.2,0.7,1.4,0.9
		c0-0.4,0.7-3.4,0.9-3.9C29.8,79.3,27.1,80.9,26.7,81.1z M36,80.6c0,0,1.4,0.7,3.4,1.4c1.4,0.5,2.5,0.9,3.6,1.1l-0.4,1.2
		c0,0-1.1-0.2-2.8-0.7c-0.2,0.4-2.3,6.8-2.3,6.8L36,89.8c0,0,2.3-6.4,2.3-6.8c-1.6-0.5-2.6-1.2-2.6-1.2L36,80.6z M63,82.3
		c0.5,0.4,0.9,0.9,1.2,1.6c0.2,0.4,0.2,0.5,0.2,0.9c0,1.2-0.9,2.1-2.3,2.6c0,0-0.7,0.2-1.1,0.4c0,0.4,1.1,3.2,1.1,3.2l-1.6,0.2
		L58.1,83l2.3-0.7C61.5,82,62.3,82,63,82.3z M59.9,83.7c0,0.2,0.7,2.3,0.7,2.5c0.4-0.2,1.1-0.4,1.1-0.4c0.2,0,0.7-0.4,1.1-0.7
		c0-0.2,0.2-0.4,0.2-0.5c0-0.2,0-0.4,0-0.4c-0.2-0.4-0.4-0.5-0.5-0.7c-0.5-0.2-1.1-0.2-1.4,0C60.8,83.6,60.1,83.7,59.9,83.7z
		 M68,78.7l7.5,5.3L74.3,85c0,0-1.4-1.1-1.6-1.2c0,0-0.9,0.5-1.6,1.1s-1.6,0.9-1.8,0.9c0,0.2,0.4,1.9,0.4,1.9l-1.4,0.7l-1.2-9.1
		L68,78.7z M68.9,84.4c0.2-0.2,0.7-0.4,1.4-0.7c0.5-0.4,0.9-0.5,1.1-0.7c-0.4-0.2-2.6-1.9-3.1-2.3C68.4,81.3,68.9,84.1,68.9,84.4z
		 M76.6,71.3L83,77L82,78.4c0,0-6-1.8-6.9-1.9c0.7,0.7,4.5,4.6,4.5,4.6L78.3,82l-6-6.2l1.4-1.2c0,0,5.9,1.8,6.8,1.9
		c-0.7-0.7-4.8-4.1-4.8-4.1L76.6,71.3z M79.4,66.8l7.5,4.3l-0.7,1.2L78.7,68L79.4,66.8z M82.9,59.7l1.2,0.7l-0.2,0.2
		c-0.4,0.5-0.5,0.7-0.9,1.4c-0.2,0.2-0.2,0.7,0,1.1c0.2,0.2,0.4,0.4,0.5,0.4c0.5,0.2,1.1-0.4,1.6-0.9c0.7-0.9,1.8-1.8,3.4-1.2
		c1.6,0.5,2.1,1.9,1.4,3.9c-0.2,0.5-0.5,1.1-0.9,1.6V67l-1.2-0.5l0.2-0.2c0.2-0.2,0.7-0.9,0.9-1.4c0.2-0.5,0.2-1.6-0.7-1.8
		C87.5,63,87,63.5,86.3,64c-0.7,0.7-1.6,1.8-3.1,1.2c-0.7-0.2-1.1-0.5-1.4-1.1c-0.4-0.7-0.4-1.4,0-2.3C82,60.9,82.3,60.2,82.9,59.7
		L82.9,59.7z"/>
</g>
</svg>
