<svg xmlns="http://www.w3.org/2000/svg" xmlns:xlink="http://www.w3.org/1999/xlink" width="159.997" height="187.215" viewBox="0 0 159.997 187.215">
  <defs>
    <clipPath id="clip-path">
      <path id="Path_2897" data-name="Path 2897" d="M63.055,10448.1h-.32c-1.918,0-6.554-.96-8.313-2.562-1.918,1.443-6.554,2.563-8.473,2.563h-.32v1.275a21.635,21.635,0,0,0,.8,4.639,22.211,22.211,0,0,0,7.833,11.829,22.211,22.211,0,0,0,7.833-11.829,21.635,21.635,0,0,0,.8-4.639A3.1,3.1,0,0,0,63.055,10448.1Z" transform="translate(-45.631 -10445.541)"/>
    </clipPath>
  </defs>
  <g id="ministry-of-health_SVG" transform="translate(128640.25 184343.281)">
    <path id="Path_2944" data-name="Path 2944" d="M80,0A80,80,0,1,1,0,80,80,80,0,0,1,80,0Z" transform="translate(-128640.25 -184316.063)" fill="#a71916"/>
    <path id="Path_2943" data-name="Path 2943" d="M64.319,0A64.319,64.319,0,1,1,0,64.319,64.319,64.319,0,0,1,64.319,0Z" transform="translate(-128624.57 -184316.391)" fill="#fff"/>
    <g id="Arabic_Name" data-name="Arabic Name" transform="translate(-128618.688 -184200.359)">
      <path id="Path_2815" data-name="Path 2815" d="M21.835,98.147a7.845,7.845,0,0,1-4,1.28,4.17,4.17,0,0,1-3.52-2.08c-1.28-1.92-1.12-3.36.64-4.48a10.139,10.139,0,0,1,6.24-1.6l.32.32a10.642,10.642,0,0,0-3.68.96,1.76,1.76,0,0,0-.96,1.6,3.647,3.647,0,0,0,.48,1.76,3.572,3.572,0,0,0,1.12,1.12c.64.64,1.12.96,1.28.8.64-.32,1.44-1.44,2.72-3.36h2.88A19.533,19.533,0,0,1,21.835,98.147Zm5.44-5.76c-.16.16-.64.16-1.28,0-.8-.16-1.12-.16-1.28-.32v-1.12a3.907,3.907,0,0,1,.16-1.12,3.877,3.877,0,0,1,1.44,0,2.3,2.3,0,0,1,1.44.32,7.249,7.249,0,0,1-.16,1.28C27.435,92.067,27.435,92.387,27.275,92.387Z" transform="translate(-13.475 -89.062)" fill="#fff"/>
      <path id="Path_2816" data-name="Path 2816" d="M20.6,102,19,99.92l7.36-7.04c.16-.16.48-.16,1.28-.32.48,0,.96-.16,1.44-.16-.16,0-2.24,2.24-6.4,6.24l.8.96Z" transform="translate(-10.16 -87.476)" fill="#fff"/>
      <path id="Path_2817" data-name="Path 2817" d="M26.4,107.5l-1.92-1.92.48-2.56-2.24.8L20,101.1l2.88-2.4,2.4,2.4c0-.96.16-2.72.16-5.12L28.8,93.9l5.76,2.88c-.48.32-1.28.8-2.24,1.44l-4.64-2.08c0,1.12-.16,2.4-.16,3.52a12.728,12.728,0,0,0,0,3.52l.96,1.12Z" transform="translate(-9.56 -86.576)" fill="#fff"/>
      <path id="Path_2818" data-name="Path 2818" d="M35.04,107.1l-2.24,3.04-1.44-.96a6.93,6.93,0,0,0,.16-.8c-.16,0-.32.16-.64.32l-2.08-1.44v-.64a1.209,1.209,0,0,0-.64.16l-2.56-1.76c.16-.16.16-.32.32-.64-.16,0-.32.16-.48.16h-.48L24,103.9l2.24-3.04,1.28.8q.48,0,.96-.96a7.5,7.5,0,0,1,2.72-.8v.32a7.224,7.224,0,0,1-1.12,1.12,14.051,14.051,0,0,0-1.28,1.12l1.92,1.44c.16,0,.48-.16.64-.64.16-.32.64-.48,1.28-.8a3.684,3.684,0,0,1,1.44-.48l-.64.8a16.561,16.561,0,0,1-1.76,1.76,8.268,8.268,0,0,1,1.12.96,1.916,1.916,0,0,0,.64-.64c.16-.32.48-.48,1.12-.8a2.553,2.553,0,0,1,1.28-.48,6.485,6.485,0,0,0-.8,1.44,3.142,3.142,0,0,0-.64,1.44Z" transform="translate(-7.161 -82.976)" fill="#fff"/>
      <path id="Path_2819" data-name="Path 2819" d="M38.72,103.88l-2.56,1.6-1.44,3.36a4.837,4.837,0,0,1-.96,1.44c-.64.8-.96,1.12-.96,1.28h-.48l-2.72-1.44,2.24-3.04,1.92.96h0v-.16A21.368,21.368,0,0,0,34.88,105a4.9,4.9,0,0,0,.32-2.88c.64-.48.96-.96,1.28-1.12a3.292,3.292,0,0,1,1.44-.8.7.7,0,0,0-.16.48,2.368,2.368,0,0,0,.16,1.76c.16.32.48.8.8,1.44Z" transform="translate(-3.801 -82.796)" fill="#fff"/>
      <path id="Path_2820" data-name="Path 2820" d="M37.08,108.9a8.137,8.137,0,0,1-2.88,3.84l2.56-8.32a21.305,21.305,0,0,1,2.56-2.72A50.137,50.137,0,0,1,37.08,108.9Z" transform="translate(-1.041 -81.896)" fill="#fff"/>
      <path id="Path_2821" data-name="Path 2821" d="M44.76,110.03a17.781,17.781,0,0,1-2.08,4.32c-1.28,1.92-2.4,2.72-3.52,2.4a14.431,14.431,0,0,1-3.52-1.76,1.98,1.98,0,0,1-.48-.32.157.157,0,0,0-.16-.16l1.76.32c3.84-.64,6.08-1.92,6.56-3.52v-.16c-.64.8-.96,1.12-.96,1.12-.32.32-.8.32-1.44.16-1.12-.32-1.44-1.12-.96-2.56a10.357,10.357,0,0,1,1.76-3.04c1.12-1.28,1.92-1.92,2.56-1.6l.16.16C45.24,106.351,45.24,107.951,44.76,110.03Zm-1.6-.64v-.8c0-.32-.16-.64-.32-.64a1.209,1.209,0,0,0-.64.16q-.48.24-.48.48a.588.588,0,0,0,.16.48c.16.16.32.32.48.32a.727.727,0,0,0,.8,0Z" transform="translate(-0.561 -79.827)" fill="#fff"/>
      <path id="Path_2822" data-name="Path 2822" d="M50.22,113.22v3.68l-2.4-.32c-.32,0-.64-.48-.8-1.28,0-.48-.16-1.12-.16-1.6a5.147,5.147,0,0,0-.64,1.12c-.32.48-.48.8-.8.8a18.772,18.772,0,0,0-1.76-.8,12.154,12.154,0,0,0-1.76-.64,7.639,7.639,0,0,0,.64-1.92,3.721,3.721,0,0,1,1.12-1.76c.16-.32.8-.64,1.76-1.12s1.44-.8,1.44-.96v-.8l1.6-2.24v3.52a19.468,19.468,0,0,0,.16,3.36c0,.32.16.48.48.64Zm-2.08-8.96a14.426,14.426,0,0,1-1.44,1.6,2.809,2.809,0,0,1-.8-.64l-.8-.8-.96.96a6.5,6.5,0,0,1-1.6-1.44l1.44-1.44c.8.8,1.12,1.28,1.28,1.28a2.762,2.762,0,0,0,.64-.48c.16-.16.48-.32.64-.64Zm-1.28,8.16v-2.24a2.208,2.208,0,0,0-.48.64,4.379,4.379,0,0,1-.8.64,4.733,4.733,0,0,0-.64.48,5.215,5.215,0,0,0,1.6.48Z" transform="translate(3.579 -81.416)" fill="#fff"/>
      <path id="Path_2823" data-name="Path 2823" d="M57.6,111.28l.8,3.68H52.16v-3.2c-.16,0-.48.48-.96,1.6s-.96,1.6-1.28,1.6H47.2v-3.68h2.4a2.17,2.17,0,0,0,2.08-1.12,5.223,5.223,0,0,0-1.92-.32,3.076,3.076,0,0,0-1.92.48q.24-4.32,2.4-4.32a2.581,2.581,0,0,1,1.44.48c.96.48,1.44.8,1.76.96a7.474,7.474,0,0,0,2.72.48c-.16.48-.48,1.28-.8,2.4-.48.16-.96.16-1.12.32a7.8,7.8,0,0,0-1.12.48Z" transform="translate(6.759 -79.316)" fill="#fff"/>
      <path id="Path_2824" data-name="Path 2824" d="M67.2,112.435l-10.88,2.24c0-.16-.16-.32-.32-.64,0,.16-.16.32-.16.48-.16.16-.16.32-.32.32L54.4,115l-.8-3.68,1.44-.32q.24-.24,0-1.44A13.516,13.516,0,0,1,56.16,107l.16.32a5.245,5.245,0,0,1,0,1.6,16.664,16.664,0,0,1-.16,1.76l.96-.16a21.21,21.21,0,0,0,1.6-1.76,12.183,12.183,0,0,1,1.6-1.92,3.823,3.823,0,0,1,2.08-1.12,2.2,2.2,0,0,1,1.76.64,2.87,2.87,0,0,1,.96,1.6v.96l1.28-.32Zm-3.52-3.2c-.64-.96-1.28-1.28-2.08-1.12a2.83,2.83,0,0,0-1.28.8,9.66,9.66,0,0,1-1.12,1.28Z" transform="translate(10.598 -79.512)" fill="#fff"/>
      <path id="Path_2825" data-name="Path 2825" d="M64.94,104.2l-.96,2.88,1.12,3.52a12.747,12.747,0,0,1,.16,1.76v1.6l-.48.32-2.08.48-.8-3.68,1.76-.48h0v-.16a8.738,8.738,0,0,0-.96-2.88,5.092,5.092,0,0,0-1.6-2.4,7.851,7.851,0,0,0,.16-1.76c.16-.8.32-1.44.64-1.6a1.238,1.238,0,0,0,.16.48,2.271,2.271,0,0,0,1.28,1.12,7.474,7.474,0,0,0,1.6.8Z" transform="translate(15.098 -81.836)" fill="#fff"/>
      <path id="Path_2826" data-name="Path 2826" d="M67.94,107.3a8.942,8.942,0,0,1,.96,4.64l-4.48-7.36a20.821,20.821,0,0,1-.32-3.68A64.905,64.905,0,0,1,67.94,107.3Z" transform="translate(16.898 -82.376)" fill="#fff"/>
      <path id="Path_2827" data-name="Path 2827" d="M70.12,98.2a6.123,6.123,0,0,1-.16,2.24H68.04a8.844,8.844,0,0,0-.16,1.44,4.766,4.766,0,0,1-2.08-.16l.16-2.08a13.328,13.328,0,0,0,1.92.16,1.655,1.655,0,0,0,.16-.64c0-.32.16-.48.16-.8Zm3.68,5.92a5.406,5.406,0,0,1,.96,3.2,2.757,2.757,0,0,1-1.12,2.88l-1.28.64a1.208,1.208,0,0,1-1.12-.64,9.147,9.147,0,0,1-1.12-3.84,39.4,39.4,0,0,1-.32-4.16c1.44.32,2.24.48,2.24.64A2.847,2.847,0,0,1,73.8,104.12Zm-.64,1.92a2.525,2.525,0,0,0-1.28-.48,4.5,4.5,0,0,0-1.28-.16c0,.8,0,1.28.16,1.44.32.48.8.64,1.44.16a2.209,2.209,0,0,1,.64-.48A1.98,1.98,0,0,1,73.16,106.04Z" transform="translate(17.918 -83.996)" fill="#fff"/>
      <path id="Path_2828" data-name="Path 2828" d="M77.3,101.36a8.043,8.043,0,0,1,1.44,3.52c.32,1.76.32,2.88-.32,3.36a5.072,5.072,0,0,1-2.24.8,5.825,5.825,0,0,1-2.4,0l-.16-.16.16-.16a2.546,2.546,0,0,0,1.6-.8,5.4,5.4,0,0,0,1.28-2.56,3.59,3.59,0,0,0-.16-2.72,9.076,9.076,0,0,0-3.04-1.12,12.742,12.742,0,0,1-.96-2.72A7.108,7.108,0,0,1,77.3,101.36Z" transform="translate(21.938 -83.636)" fill="#fff"/>
      <path id="Path_2829" data-name="Path 2829" d="M78.66,99.4a7.224,7.224,0,0,1,2.4,4l-6.72-5.44A22.01,22.01,0,0,1,72.9,94.6,63.176,63.176,0,0,1,78.66,99.4Z" transform="translate(22.178 -86.156)" fill="#fff"/>
      <path id="Path_2830" data-name="Path 2830" d="M76.6,91.76c.16.16.16.48.32,1.12V94c0,.16-.48.16-1.12.16H74.68c-.16-.16-.16-.48-.32-1.12a4.5,4.5,0,0,1-.16-1.28,8.615,8.615,0,0,1,1.28-.16A4.221,4.221,0,0,0,76.6,91.76Zm8,4.64a7.755,7.755,0,0,1,2.08,3.04c.8,1.6.8,2.72.32,3.36a5.442,5.442,0,0,1-2.24,1.28,3.57,3.57,0,0,1-2.4.32l.16-.16a4.734,4.734,0,0,1,.64-.48c.32-.32.64-.48.8-.64a4,4,0,0,0,.64-2.72c0-1.28-.16-2.24-.64-2.56-.32-.32-1.44-.48-3.2-.48-.32-.48-.96-1.28-1.6-2.4a17.19,17.19,0,0,1,2.88,0A13.237,13.237,0,0,1,84.6,96.4Z" transform="translate(22.958 -87.956)" fill="#fff"/>
      <path id="Path_2831" data-name="Path 2831" d="M84.483,90.407a17.04,17.04,0,0,1,3.68,3.2c1.44,1.76,1.92,3.04,1.28,4.16a11.253,11.253,0,0,1-2.72,2.88,1.98,1.98,0,0,0-.48.32h-.32l.8-1.6c.48-4-.16-6.4-1.6-7.2h-.16a9.455,9.455,0,0,1,.8,1.28,1.555,1.555,0,0,1-.16,1.44c-.64.96-1.44,1.12-2.72.32a8.487,8.487,0,0,1-2.4-2.4c-.96-1.44-1.28-2.4-.8-2.88l.16-.16C80.963,88.967,82.563,89.287,84.483,90.407Zm-1.12,1.28a1.2,1.2,0,0,0-.8-.16c-.32,0-.64,0-.64.16s-.16.32,0,.64a.831.831,0,0,0,.32.64.588.588,0,0,0,.48-.16,1.98,1.98,0,0,0,.48-.32,1.442,1.442,0,0,0,.16-.8Z" transform="translate(26.115 -89.322)" fill="#fff"/>
    </g>
    <path id="Path_2942" data-name="Path 2942" d="M6.56,0A6.56,6.56,0,1,1,0,6.56,6.56,6.56,0,0,1,6.56,0Z" transform="translate(-128576.891 -184279.406)" fill="#1d6fb6"/>
    <path id="Path_2941" data-name="Path 2941" d="M6.56,0A6.56,6.56,0,1,1,0,6.56,6.56,6.56,0,0,1,6.56,0Z" transform="translate(-128553.219 -184272.391)" fill="#1d6fb6"/>
    <path id="Path_2832" data-name="Path 2832" d="M62.539,75.339V53.42a4.3,4.3,0,0,0-4.32-4.32H39.82a4.3,4.3,0,0,0-4.32,4.32V72.46a3.621,3.621,0,0,0,3.68,3.68h1.6v11.52h21.76Z" transform="translate(-128618.953 -184313.813)" fill="#1d6fb6"/>
    <path id="Path_2833" data-name="Path 2833" d="M71.38,53.4H52.82a4.3,4.3,0,0,0-4.32,4.32V69.4a4.463,4.463,0,0,0,2.4,3.84v10.72H72.34V73.56a4.144,4.144,0,0,0,3.2-4.16V57.72A4.271,4.271,0,0,0,71.38,53.4Z" transform="translate(-128611.148 -184311.219)" fill="#1d6fb6"/>
    <path id="Path_2940" data-name="Path 2940" d="M3.2,0A3.2,3.2,0,1,1,0,3.2,3.2,3.2,0,0,1,3.2,0Z" transform="translate(-128554.32 -184252.219)" fill="#fff"/>
    <path id="Path_2939" data-name="Path 2939" d="M3.2,0A3.2,3.2,0,1,1,0,3.2,3.2,3.2,0,0,1,3.2,0Z" transform="translate(-128571.289 -184244.875)" fill="#fff"/>
    <path id="Path_2834" data-name="Path 2834" d="M50.8,82.98H66.64V69.54A7.853,7.853,0,0,0,58.8,61.7h0a7.853,7.853,0,0,0-7.84,7.84V82.98Z" transform="translate(-128609.773 -184306.25)" fill="#fff"/>
    <path id="Path_2835" data-name="Path 2835" d="M42.94,80.4h9.44a2.118,2.118,0,0,0,2.08-2.08V72.88A6.931,6.931,0,0,0,47.58,66h0a6.931,6.931,0,0,0-6.88,6.88v5.44A2.389,2.389,0,0,0,42.94,80.4Z" transform="translate(-128615.828 -184303.672)" fill="#fff"/>
    <path id="Path_2836" data-name="Path 2836" d="M83.379,32.24a34.555,34.555,0,1,1-30.719-.64,45.7,45.7,0,1,0,30.719.64Z" transform="translate(-128627.469 -184324.297)" fill="#1d6fb6"/>
    <g id="Eagle" transform="translate(-128582.18 -184343.281)">
      <g id="_x32_1445608_00000163751004496506333090000010747211813904626325_" transform="translate(2.564 50.608)">
        <path id="Path_2837" data-name="Path 2837" d="M57.52,10262.453c6.4,0,12.48-.479,16-1.44,1.44-.319,1.44-1.12,1.44-2.08,1.44-.479.8-2.239,1.76-2.239-1.12.32-1.28-1.759-2.56-1.44,0-1.76-1.76-2.08-3.36-1.441-3.04.959-8.32,1.28-13.44,1.28-5.12-.16-10.4-.16-13.44-1.28-1.44-.479-3.36-.32-3.36,1.441-1.28-.321-1.44,1.759-2.56,1.44,1.12,0,.32,1.759,1.76,2.239,0,.96,0,1.761,1.6,2.08,3.68.961,9.76,1.44,16.16,1.44Z" transform="translate(-37.84 -10253.045)" fill="#fff" fill-rule="evenodd"/>
        <path id="Path_2838" data-name="Path 2838" d="M57.58,10263.109c-6.72,0-12.64-.479-16-1.44-1.76-.32-1.76-1.279-1.92-2.241a2.164,2.164,0,0,1-1.12-1.6,1.245,1.245,0,0,1-.16-.48h-.16c-.16,0-.32-.158-.32-.479a.345.345,0,0,1,.32-.322h.16c.16,0,.32-.158.64-.639.32-.32.64-.96,1.28-.96a1.965,1.965,0,0,1,.8-1.279,3.238,3.238,0,0,1,3.04-.161c2.4.8,6.4.96,10.56,1.121a15.508,15.508,0,0,1,2.72.16c6.56,0,10.88-.321,13.28-1.281a3.924,3.924,0,0,1,3.04.161,1.971,1.971,0,0,1,.8,1.279,1.659,1.659,0,0,1,1.28.96l.64.639h.16a.345.345,0,0,1,.32.322c0,.159-.16.32-.32.479h-.16a.7.7,0,0,0-.16.48,2.164,2.164,0,0,1-1.12,1.6,1.929,1.929,0,0,1-1.76,2.241A73.782,73.782,0,0,1,57.58,10263.109Zm-18.4-6.08a.956.956,0,0,1,.16.639c.16.48.16.959.8,1.12a.345.345,0,0,1,.32.32c0,.959,0,1.442,1.28,1.76h0c3.2.959,9.12,1.44,15.84,1.44s12.48-.479,15.84-1.44h0c1.12-.159,1.12-.64,1.12-1.76a.345.345,0,0,1,.32-.32c.64-.158.64-.64.8-1.12,0-.158.16-.478.16-.639-.16-.159-.48-.481-.64-.642-.48-.479-.64-.8-.96-.64H73.9c-.16,0-.16-.159-.16-.32a1.451,1.451,0,0,0-.48-1.12,3.038,3.038,0,0,0-2.4,0c-2.56.8-6.88,1.279-13.6,1.279h0a15.6,15.6,0,0,1-2.72-.159c-4.16-.161-8.16-.322-10.72-1.12a3.072,3.072,0,0,0-2.4,0,1.243,1.243,0,0,0-.48,1.12c0,.159,0,.159-.16.32-.16,0-.16.158-.32,0-.32-.159-.64.158-.96.64A1.214,1.214,0,0,1,39.18,10257.029Z" transform="translate(-37.9 -10253.219)" fill="#c09309"/>
      </g>
      <g id="_x32_1312736_00000049211461791442102310000008487282894598635145_" transform="translate(0 10.126)">
        <path id="Path_2839" data-name="Path 2839" d="M58.7,10248.745l21.76,20.159-1.6-36.8c-.16-5.6-5.12-4.32-8.64-2.241-3.52,2.241-7.68,2.241-11.84.8-4.32,1.44-8.32,1.44-11.84-.8-3.52-2.079-8.32-3.358-8.64,2.241l-1.6,36.8Z" transform="translate(-36.3 -10227.812)" fill="#fff" fill-rule="evenodd"/>
        <path id="Path_2840" data-name="Path 2840" d="M80.459,10269.169h0l-21.76-20.158-22.08,20.158h-.16l-.16-.158,1.6-36.8c0-1.921.64-3.2,1.76-3.841,2.24-1.28,5.76.479,7.04,1.279h0c3.2,2.08,7.2,2.4,11.68.8h.16c4.48,1.6,8.48,1.279,11.68-.8h0c1.44-.8,4.96-2.56,7.04-1.279,1.12.641,1.76,1.92,1.76,3.841l1.6,36.8c.16,0,0,.158-.16.158Zm-39.039-40.64a4.706,4.706,0,0,0-1.6.32c-.96.48-1.44,1.759-1.6,3.359l-1.6,36.319,21.92-19.84h.32l21.44,19.84-1.6-36.158c0-1.759-.64-2.88-1.6-3.359-2.08-1.12-5.28.479-6.72,1.279-3.36,2.08-7.36,2.4-12,.8-4.64,1.6-8.64,1.279-12-.8A10.7,10.7,0,0,0,41.42,10228.529Z" transform="translate(-36.3 -10227.917)" fill="#c09309"/>
      </g>
      <g id="use3074_00000054958560313135274570000013961423491862001796_" transform="translate(28.483 19.379)">
        <g id="_x32_1313880_00000165196664985831116840000011711394777516668341_">
          <path id="Path_2841" data-name="Path 2841" d="M54.1,10233.7l.8,17.757,2.08,2.08-.8-19.52c-.48-.159-1.76-.159-2.08-.317Z" transform="translate(-54.1 -10233.702)" fill="#c09309" fill-rule="evenodd"/>
        </g>
      </g>
      <g id="_x32_1313440_00000160870721832833516730000007457439778525517968_" transform="translate(17.923 35.059)">
        <path id="Path_2842" data-name="Path 2842" d="M52.66,10243.5l3.04,13.921-.96.958-1.12-.8-1.76-12.478.8,12.478-.96,1.28-.96-1.28.8-12.478-1.76,12.478-1.12.8-.96-.958,3.04-13.921Z" transform="translate(-47.38 -10243.5)" fill="#c09309" fill-rule="evenodd"/>
        <path id="Path_2843" data-name="Path 2843" d="M51.82,10259.119l-1.12-1.439.48-8.161-1.12,8.321-1.28.959-1.12-1.119,3.04-14.078h2.24v.158l3.04,14.078-1.12,1.121-1.28-.961h0l-1.12-8.157.48,8.157Zm-.96-1.6.8,1.12.8-1.12-.8-12.319h.32l1.76,12.319.8.64.8-.8L52.3,10243.6H50.54l-3.04,13.761.8.8.8-.64,1.76-12.319h.32Z" transform="translate(-47.5 -10243.441)" fill="#c09309"/>
      </g>
      <g id="_x32_1313528_00000054248782266111656220000006028324604918372493_" transform="translate(0.164 13.139)">
        <path id="Path_2844" data-name="Path 2844" d="M40.4,10229.8l-1.44,35.679-2.56,2.241,1.6-36.8A10.439,10.439,0,0,1,40.4,10229.8Z" transform="translate(-36.4 -10229.801)" fill="#c09309" fill-rule="evenodd"/>
      </g>
      <g id="_x32_1313616_00000072982063078194190050000001767610677719903396_" transform="translate(3.364 13.62)">
        <path id="Path_2845" data-name="Path 2845" d="M42.24,10232.181l-1.28,29.919-2.56,2.56L40,10230.1A23.021,23.021,0,0,0,42.24,10232.181Z" transform="translate(-38.4 -10230.101)" fill="#c09309" fill-rule="evenodd"/>
      </g>
      <g id="_x32_1313704_00000095340144141592000780000000088720121285751706_" transform="translate(7.044 16.659)">
        <path id="Path_2846" data-name="Path 2846" d="M43.74,10233.441l-.96,24.957-2.08,2.08L41.98,10232a17.007,17.007,0,0,1,1.76,1.441Z" transform="translate(-40.7 -10232)" fill="#c09309" fill-rule="evenodd"/>
      </g>
      <g id="_x32_1313792_00000161630063076243283900000014280442226422665640_" transform="translate(10.084 18.579)">
        <path id="Path_2847" data-name="Path 2847" d="M45.64,10234l-.96,21.278-2.08,1.6.96-23.679A8.066,8.066,0,0,0,45.64,10234Z" transform="translate(-42.6 -10233.201)" fill="#c09309" fill-rule="evenodd"/>
      </g>
      <g id="_x32_1313880_00000150782965923268705630000002498218428778056613_" transform="translate(12.964 19.379)">
        <path id="Path_2848" data-name="Path 2848" d="M47.28,10233.7l-.8,17.757-2.08,2.08.8-19.52a20.08,20.08,0,0,0,2.08-.317Z" transform="translate(-44.4 -10233.702)" fill="#c09309" fill-rule="evenodd"/>
      </g>
      <g id="use3064_00000176023972430766360520000004108377928796688567_" transform="translate(40.163 13.139)">
        <g id="_x32_1313528_00000075156764694534498950000010142967375703432092_">
          <path id="Path_2849" data-name="Path 2849" d="M61.4,10229.8l1.44,35.679,2.56,2.241-1.6-36.8A10.439,10.439,0,0,0,61.4,10229.8Z" transform="translate(-61.4 -10229.801)" fill="#c09309" fill-rule="evenodd"/>
        </g>
      </g>
      <g id="use3068_00000163779736959042451330000013244958043144999582_" transform="translate(37.123 13.62)">
        <g id="_x32_1313616_00000155140281881142326790000001828889171654337188_">
          <path id="Path_2850" data-name="Path 2850" d="M59.5,10232.181l1.28,29.919,2.56,2.56-1.6-34.559A12.777,12.777,0,0,1,59.5,10232.181Z" transform="translate(-59.5 -10230.101)" fill="#c09309" fill-rule="evenodd"/>
        </g>
      </g>
      <g id="use3070_00000142880571940812530480000005929753424314435202_" transform="translate(34.243 16.659)">
        <g id="_x32_1313704_00000136406522478979899400000018420975981433928609_">
          <path id="Path_2851" data-name="Path 2851" d="M57.7,10233.441l.96,24.957,2.08,2.08L59.46,10232a17.008,17.008,0,0,0-1.76,1.441Z" transform="translate(-57.7 -10232)" fill="#c09309" fill-rule="evenodd"/>
        </g>
      </g>
      <g id="use3072_00000063614664071019137290000006084117438920675761_" transform="translate(31.363 18.579)">
        <g id="_x32_1313792_00000135685034643758817870000002481677562709843128_">
          <path id="Path_2852" data-name="Path 2852" d="M55.9,10234l.96,21.278,2.08,1.6-.96-23.679A18.09,18.09,0,0,1,55.9,10234Z" transform="translate(-55.9 -10233.201)" fill="#c09309" fill-rule="evenodd"/>
        </g>
      </g>
      <g id="_x32_1314408_00000084512205773138492730000008868561377317085580_" transform="translate(9.124 28.501)">
        <path id="Path_2853" data-name="Path 2853" d="M48.18,10239.7l-6.08,21.6,8.32,1.278,3.52-16.159Z" transform="translate(-41.94 -10239.223)" fill="none" fill-rule="evenodd"/>
        <path id="Path_2854" data-name="Path 2854" d="M50.48,10262.759h0l-8.32-1.279a.157.157,0,0,1-.16-.16v-.158l6.08-21.6a.157.157,0,0,1,.16-.16h.16l5.92,6.559v.16l-3.52,16.159C50.64,10262.759,50.64,10262.759,50.48,10262.759Zm-8.16-1.6,8,1.281,3.52-16-5.6-6.239Z" transform="translate(-42 -10239.401)" fill="#c09309"/>
      </g>
      <g id="_x32_1314496_00000058581901993822713060000011927245850831933860_" transform="translate(23.043 28.821)">
        <path id="Path_2855" data-name="Path 2855" d="M56.56,10239.7l6.08,21.6-8.32,1.278-3.52-16.159Z" transform="translate(-50.64 -10239.544)" fill="#fff" fill-rule="evenodd"/>
        <path id="Path_2856" data-name="Path 2856" d="M54.38,10262.64c-.16,0-.16,0-.16-.159l-3.52-16.16v-.159l5.92-6.559h.16a.156.156,0,0,1,.16.159l6.08,21.6v.16l-.16.158-8.48.96Zm-3.36-16.32,3.52,16,8-1.28-5.92-20.959Z" transform="translate(-50.7 -10239.603)" fill="#c09309"/>
      </g>
      <g id="use4088_00000170989523028330912220000004528532430971956358_" transform="translate(25.963 34.027)">
        <g id="_x32_1314584_00000011717008064987090380000017086923259262789034_">
          <path id="Path_2857" data-name="Path 2857" d="M56.8,10247.087h0l-4.16-3.841c-.16,0-.16-.158,0-.318a.221.221,0,0,1,.32,0l3.68,3.519.64-1.44c0-.158.16-.158.32-.158s.16.158.16.32l-.8,1.759a.157.157,0,0,1-.16.16Z" transform="translate(-52.525 -10242.856)" fill="#c09309"/>
        </g>
      </g>
      <g id="use4084_00000124859265738302581460000000651168526847165353_" transform="translate(23.843 39.541)">
        <g id="_x32_1314936_00000163763398847570159360000014474407675962693285_">
          <path id="Path_2858" data-name="Path 2858" d="M53.28,10255.9h0c-.16,0-.16-.159-.16-.32l.8-4.159-2.72-4.16v-.321h.32l2.56,3.842.64-3.842a.155.155,0,0,1,.16-.158h.16l1.6,2.24.64-2.56a.156.156,0,0,1,.16-.159h.16l2.56,2.721v.159l-1.28,4.8-.16.159c-.16,0-.16,0-.16-.159l-1.6-2.56-.8,2.72-.16.159a.156.156,0,0,1-.16-.159l-1.6-2.559-.8,3.679C53.44,10255.9,53.28,10255.9,53.28,10255.9Zm1.12-4.479,1.6,2.559.8-2.72.16-.16a.157.157,0,0,1,.16.16l1.6,2.56,1.12-4.321-2.24-2.4-.8,2.56-.16.158h-.16l-1.6-2.079Z" transform="translate(-51.2 -10246.302)" fill="#c09309"/>
        </g>
      </g>
      <g id="_x32_1314584_00000103261080192533201040000002410271393145411756_" transform="translate(13.124 34.099)">
        <path id="Path_2859" data-name="Path 2859" d="M45.46,10247.06h0c-.16,0-.16,0-.16-.16l-.8-1.758c0-.16,0-.16.16-.32.16,0,.16,0,.32.159l.64,1.439,3.68-3.52h.32v.321l-4.16,3.838Z" transform="translate(-44.5 -10242.9)" fill="#c09309"/>
      </g>
      <g id="_x32_1314672_00000083047584733838045700000006155936906583437989_" transform="translate(15.843 31.701)">
        <path id="Path_2860" data-name="Path 2860" d="M47.16,10249.4h0a.157.157,0,0,1-.16-.16l-.8-7.679c0-.158,0-.158.16-.158s.16,0,.16.158l.8,7.2,2.24-2.879c0-.159.16-.159.32,0,.16,0,.16.158,0,.318l-2.56,3.359C47.32,10249.4,47.32,10249.4,47.16,10249.4Z" transform="translate(-46.2 -10241.402)" fill="#c09309"/>
      </g>
      <g id="_x32_1314760_00000163063740136932677180000016645065390640235195_" transform="translate(18.083 37.138)">
        <path id="Path_2861" data-name="Path 2861" d="M49.2,10250.079c-.16,0-.16,0-.16-.16l-1.44-4.8c0-.159,0-.159.16-.32.16,0,.16,0,.32.159l1.44,4.8a.344.344,0,0,1-.32.321Z" transform="translate(-47.6 -10244.8)" fill="#c09309"/>
      </g>
      <g id="_x32_1314936_00000017479872884515955800000008553639117770336400_" transform="translate(11.524 40.018)">
        <path id="Path_2862" data-name="Path 2862" d="M50.38,10255.721c-.16,0-.16,0-.16-.159l-.8-3.68-1.6,2.56-.16.159a.156.156,0,0,1-.16-.159l-.8-2.721-1.6,2.56-.16.159a.156.156,0,0,1-.16-.159l-1.28-4.8v-.16l2.56-2.72h.16a.156.156,0,0,1,.16.159l.64,2.56,1.6-2.241s.16-.159.16,0l.16.16.64,3.841,2.56-3.841c0-.16.16-.16.32,0,.16,0,.16.158,0,.319l-2.72,4.16.8,4.159c0-.315,0-.156-.16-.156Zm-3.84-4.8h0c.16,0,.16,0,.16.16l.8,2.721,1.6-2.56-.64-3.68-1.6,2.079s-.16.159-.16,0a.156.156,0,0,1-.16-.159l-.8-2.56-2.24,2.4,1.12,4.321,1.6-2.56A.573.573,0,0,0,46.54,10250.92Z" transform="translate(-43.5 -10246.601)" fill="#c09309"/>
      </g>
      <g id="_x32_1315024_00000013177354847618834210000007392804518677279872_" transform="translate(10.924 47.38)">
        <path id="Path_2863" data-name="Path 2863" d="M48.525,10255.68c-.16,0-.16,0-.16-.159l-.8-2.56-1.28,2.241-.16.158a.156.156,0,0,1-.16-.158L45,10252l-1.44,2.079c0,.159-.16.159-.32,0-.16,0-.16-.159,0-.32l1.76-2.4.16-.16a.157.157,0,0,1,.16.16l.96,3.2,1.28-2.08.16-.16a.157.157,0,0,1,.16.16l.96,3.04c-.16,0-.16.158-.32.158Z" transform="translate(-43.125 -10251.201)" fill="#c09309"/>
      </g>
      <g id="use4082_00000075125515489486756320000003258215077485543310_" transform="translate(27.843 47.218)">
        <g id="_x32_1315024_00000147189102554963394810000001854360914377159350_">
          <path id="Path_2864" data-name="Path 2864" d="M53.86,10255.74h0c-.16,0-.16-.159-.16-.32l.96-3.041.16-.159a.156.156,0,0,1,.16.159l1.28,2.08.96-3.2.16-.159a.156.156,0,0,1,.16.159l1.76,2.4v.32h-.32l-1.44-2.08-.96,3.2-.16.159a.156.156,0,0,1-.16-.159l-1.28-2.241-.8,2.559C54.18,10255.74,54.02,10255.74,53.86,10255.74Z" transform="translate(-53.7 -10251.1)" fill="#c09309"/>
        </g>
      </g>
      <g id="_x32_1315816_00000065780019223022911360000002111168333896872609_" transform="translate(6.396 48.788)">
        <path id="Path_2865" data-name="Path 2865" d="M47.468,10253.585a26.78,26.78,0,0,0,6.08.319c.96,0,1.76,1.761-.32,2.08a24.99,24.99,0,0,1-6.08-.319c-1.28-.16-4-.8-5.92-1.281-1.76-.8-.48-2.24.48-2.079a51.38,51.38,0,0,0,5.76,1.28Z" transform="translate(-40.26 -10251.954)" fill="#fff" fill-rule="evenodd"/>
        <path id="Path_2866" data-name="Path 2866" d="M51.5,10256.272a29.774,29.774,0,0,1-4.32-.319,40.39,40.39,0,0,1-5.92-1.28h0a1.319,1.319,0,1,1,.64-2.56h0a29.718,29.718,0,0,0,5.6,1.28,26.339,26.339,0,0,0,6.08.319h0a1.093,1.093,0,0,1,1.12,1.12c0,.321,0,1.121-1.44,1.281A6.065,6.065,0,0,1,51.5,10256.272Zm-10.08-1.92c1.76.479,4.64.96,5.76,1.279a24.527,24.527,0,0,0,6.08.321c.8-.16,1.12-.48,1.12-.8a.857.857,0,0,0-.8-.8,25.392,25.392,0,0,1-6.08-.321h0a37.639,37.639,0,0,1-5.6-1.278.908.908,0,0,0-1.12.641C40.623,10253.712,40.783,10254.031,41.423,10254.353Z" transform="translate(-40.295 -10252.082)" fill="#c09309"/>
      </g>
      <g id="_x32_1315904_00000085963648818541568210000007599366175976765851_" transform="translate(23.523 48.788)">
        <path id="Path_2867" data-name="Path 2867" d="M58.18,10253.585a26.78,26.78,0,0,1-6.08.319c-1.12,0-1.76,1.761.16,2.08a24.99,24.99,0,0,0,6.08-.319c1.28-.16,4-.8,5.92-1.281,1.76-.8.48-2.24-.48-2.079a36.656,36.656,0,0,1-5.6,1.28Z" transform="translate(-50.98 -10251.954)" fill="#fff" fill-rule="evenodd"/>
        <path id="Path_2868" data-name="Path 2868" d="M54.2,10256.272a6.065,6.065,0,0,1-1.76-.158c-1.44-.16-1.44-.96-1.44-1.281a1.236,1.236,0,0,1,1.28-1.12h0a26.339,26.339,0,0,0,6.08-.319,37.715,37.715,0,0,0,5.6-1.28h0a1.42,1.42,0,0,1,1.6.959,1.55,1.55,0,0,1-.96,1.6h0c-1.76.479-4.8.959-5.92,1.28A34.855,34.855,0,0,1,54.2,10256.272Zm-2.08-2.08a.858.858,0,0,0-.8.8c0,.479.32.8,1.12.8a24.94,24.94,0,0,0,6.08-.32,34.911,34.911,0,0,0,5.76-1.28c.64-.319.8-.641.8-.959a.911.911,0,0,0-1.12-.641,37.715,37.715,0,0,1-5.6,1.28h0A20.52,20.52,0,0,1,52.12,10254.192Zm6.08-.48Z" transform="translate(-51 -10252.083)" fill="#c09309"/>
      </g>
      <g id="_x32_1315992_00000101078100202482400860000009401238549141280903_" transform="translate(5.117 49.258)">
        <path id="Path_2869" data-name="Path 2869" d="M41.518,10252.516c-1.6-.321-2.24,1.44-1.76,2.56.16-.479,1.28-.479,1.44-.96C41.518,10253.156,41.038,10253.156,41.518,10252.516Z" transform="translate(-39.432 -10252.316)" fill="#fff" fill-rule="evenodd"/>
        <path id="Path_2870" data-name="Path 2870" d="M39.822,10255.3a.157.157,0,0,1-.16-.16,2.012,2.012,0,0,1,.32-2.08,1.907,1.907,0,0,1,1.76-.641.157.157,0,0,1,.16.16v.158a1.212,1.212,0,0,0-.16.641v.8h0a1.6,1.6,0,0,1-.8.641c-.32.158-.64.158-.64.32-.32.16-.32.16-.48.16Zm1.44-2.562a1.828,1.828,0,0,0-1.12.48,1.536,1.536,0,0,0-.32,1.441c.16-.16.32-.16.64-.322s.48-.158.64-.318c.16-.322,0-.48,0-.641C41.262,10253.217,41.1,10253.055,41.262,10252.734Z" transform="translate(-39.496 -10252.375)" fill="#c09309"/>
      </g>
      <g id="_x32_1316168_00000160177658207048384210000004012807799479336095_" transform="translate(12.421 50.74)">
        <path id="Path_2871" data-name="Path 2871" d="M44.907,10256.6c0-.959.96-.8.96-1.92,0-.479-.32-1.28-.8-1.28a1.032,1.032,0,0,0-.96.959C43.947,10255.48,44.907,10255.64,44.907,10256.6Z" transform="translate(-44.044 -10253.24)" fill="#fff" fill-rule="evenodd"/>
        <path id="Path_2872" data-name="Path 2872" d="M44.924,10256.82a.157.157,0,0,1-.16-.16,2.266,2.266,0,0,0-.32-.959,1.159,1.159,0,0,1-.32-1.279,1.236,1.236,0,0,1,1.28-1.12c.64,0,.96.8.96,1.439s-.32.8-.64,1.121a.737.737,0,0,0-.48.8C45.244,10256.82,45.084,10256.82,44.924,10256.82Zm.32-3.041a1.027,1.027,0,0,0-.8.8h0c-.16.48,0,.642.32.96.16.158.16.319.32.479.16-.16.16-.321.32-.321a.737.737,0,0,0,.48-.8C45.724,10254.42,45.564,10253.779,45.244,10253.779Z" transform="translate(-44.061 -10253.302)" fill="#c09309"/>
      </g>
      <g id="_x32_1316256_00000061435585534627285830000011067582173093441950_" transform="translate(19.683 51.06)">
        <path id="Path_2873" data-name="Path 2873" d="M49.34,10253.6c1.44,0,1.28,2.08.64,3.041,0-.8-1.28-.959-1.28-1.441C48.7,10254.4,49.98,10254.4,49.34,10253.6Z" transform="translate(-48.54 -10253.442)" fill="#fff" fill-rule="evenodd"/>
        <path id="Path_2874" data-name="Path 2874" d="M50.04,10256.859h0a.155.155,0,0,1-.16-.158c0-.322-.32-.48-.64-.8a1.064,1.064,0,0,1-.64-.8,1,1,0,0,1,.48-.8c.32-.158.32-.318.16-.479v-.16l.16-.158a1.151,1.151,0,0,1,1.12.641,3.3,3.3,0,0,1-.32,2.721S50.2,10256.859,50.04,10256.859Zm.32-.158Zm-.8-2.721a.839.839,0,0,1-.32.641.826.826,0,0,0-.32.641c0,.158.16.318.32.479a2.211,2.211,0,0,1,.48.641,4.087,4.087,0,0,0,.16-1.92C49.88,10254.141,49.88,10253.98,49.56,10253.98Z" transform="translate(-48.6 -10253.502)" fill="#c09309"/>
      </g>
      <g id="_x32_1316344_00000026867649472991014180000004453079173274862485_" transform="translate(37.123 49.257)">
        <path id="Path_2875" data-name="Path 2875" d="M59.5,10252.516c1.6-.321,2.24,1.44,1.76,2.56-.16-.479-1.28-.479-1.44-.96C59.5,10253.156,59.98,10253.156,59.5,10252.516Z" transform="translate(-59.5 -10252.315)" fill="#fff" fill-rule="evenodd"/>
        <path id="Path_2876" data-name="Path 2876" d="M61.26,10255.3h0c-.16,0-.16,0-.16-.16a.836.836,0,0,0-.64-.318,1.611,1.611,0,0,1-.8-.643h0a.716.716,0,0,1,0-.8,1.206,1.206,0,0,0-.16-.639v-.16l.16-.16a1.9,1.9,0,0,1,1.76.643,2.009,2.009,0,0,1,.32,2.078A1.237,1.237,0,0,1,61.26,10255.3Zm-1.28-1.279a.837.837,0,0,0,.64.32c.16.158.48.158.64.318a1.632,1.632,0,0,0-.32-1.439,1.469,1.469,0,0,0-1.12-.479c.16.32.16.479,0,.639A1.212,1.212,0,0,0,59.98,10254.018Z" transform="translate(-59.5 -10252.375)" fill="#c09309"/>
      </g>
      <g id="_x32_1316520_00000155851075958996384800000014419073387057666188_" transform="translate(29.763 50.738)">
        <path id="Path_2877" data-name="Path 2877" d="M56.06,10256.6c0-.959-.96-.8-.96-1.92,0-.479.32-1.28.8-1.28a1.032,1.032,0,0,1,.96.959c.16,1.121-.8,1.28-.8,2.241Z" transform="translate(-54.78 -10253.239)" fill="#fff" fill-rule="evenodd"/>
        <path id="Path_2878" data-name="Path 2878" d="M56.18,10256.821a.157.157,0,0,1-.16-.16.737.737,0,0,0-.48-.8,1.153,1.153,0,0,1-.64-1.121c0-.641.32-1.441.96-1.441a1.454,1.454,0,0,1,.96,2.4,1.712,1.712,0,0,0-.32.959C56.34,10256.821,56.34,10256.821,56.18,10256.821Zm-.32-3.041c-.32,0-.64.641-.64,1.12a.741.741,0,0,0,.48.8c.16.158.32.158.32.319.16-.158.16-.319.32-.479.16-.319.48-.479.32-.959h0A.756.756,0,0,0,55.86,10253.78Z" transform="translate(-54.9 -10253.3)" fill="#c09309"/>
      </g>
      <g id="_x32_1316608_00000103950769219823591900000016750701090777695638_" transform="translate(22.486 50.897)">
        <path id="Path_2879" data-name="Path 2879" d="M51.616,10253.6c-1.44,0-1.28,2.08-.64,3.041,0-.8,1.28-.959,1.28-1.441C52.256,10254.4,51.136,10254.4,51.616,10253.6Z" transform="translate(-50.259 -10253.28)" fill="#fff" fill-rule="evenodd"/>
        <path id="Path_2880" data-name="Path 2880" d="M51.069,10256.921a.156.156,0,0,1-.16-.159,2.756,2.756,0,0,1-.32-2.721,1.15,1.15,0,0,1,1.12-.641.156.156,0,0,1,.16.159v.159c-.16.159-.16.32.16.48a1.354,1.354,0,0,1,.48.8c0,.321-.32.479-.64.8a1.061,1.061,0,0,0-.64.8c0,.163,0,.322-.16.322Zm.32-2.88c-.16,0-.32.159-.48.479a2.086,2.086,0,0,0,.16,1.92c.16-.319.48-.479.64-.641s.48-.319.48-.479-.16-.319-.32-.641C51.549,10254.521,51.229,10254.361,51.389,10254.041Z" transform="translate(-50.352 -10253.4)" fill="#c09309"/>
      </g>
      <g id="_x32_1316696_00000121268061380012501540000018265595197110707638_" transform="translate(7.524 49.78)">
        <path id="Path_2881" data-name="Path 2881" d="M42.76,10253.5h0l-1.6-.479-.16-.16a.155.155,0,0,1,.16-.158,4.692,4.692,0,0,1,1.6.479c.16.157.16.157,0,.318Z" transform="translate(-41 -10252.702)" fill="#c09309"/>
      </g>
      <g id="_x32_1316872_00000128460713114120676570000005303934093129665672_" transform="translate(10.084 50.58)">
        <path id="Path_2882" data-name="Path 2882" d="M44.52,10254h0l-1.76-.48-.16-.158a.157.157,0,0,1,.16-.16,5.544,5.544,0,0,1,1.92.479.5.5,0,0,1-.16.319Z" transform="translate(-42.6 -10253.201)" fill="#c09309"/>
      </g>
      <g id="_x32_1317048_00000082339130925484467500000005934462569021804209_" transform="translate(17.443 51.377)">
        <path id="Path_2883" data-name="Path 2883" d="M47.36,10254.342h0c-.16-.16-.16-.16-.16-.321.32-.32,1.12-.32,1.92-.32a.16.16,0,1,1,0,.319l-1.76.322Z" transform="translate(-47.2 -10253.7)" fill="#c09309"/>
      </g>
      <g id="_x32_1317224_00000070108221823444624800000004570453771241693371_" transform="translate(14.723 51.299)">
        <path id="Path_2884" data-name="Path 2884" d="M47.42,10254.211H45.66a.156.156,0,0,1-.16-.159v-.161a2.037,2.037,0,0,1,1.92,0c.16.161.16.161,0,.32Z" transform="translate(-45.5 -10253.651)" fill="#c09309"/>
      </g>
      <g id="_x32_1317312_00000026125068092003501040000002102349683235049350_" transform="translate(34.883 49.779)">
        <path id="Path_2885" data-name="Path 2885" d="M59.74,10252.8c-.48,0-1.28.159-1.44.479Z" transform="translate(-57.98 -10252.641)" fill="#c09309" fill-rule="evenodd"/>
        <path id="Path_2886" data-name="Path 2886" d="M58.26,10253.5h0c-.16-.16-.16-.16-.16-.32a2.7,2.7,0,0,1,1.6-.48.16.16,0,1,1,0,.319l-1.44.481Z" transform="translate(-58.1 -10252.7)" fill="#c09309"/>
      </g>
      <g id="_x32_1317488_00000151532921469573416500000015760953193890068912_" transform="translate(32.203 50.579)">
        <path id="Path_2887" data-name="Path 2887" d="M58.26,10253.3a4.168,4.168,0,0,0-1.76.48Z" transform="translate(-56.38 -10253.14)" fill="#c09309" fill-rule="evenodd"/>
        <path id="Path_2888" data-name="Path 2888" d="M56.545,10254h0c-.16-.159-.16-.159,0-.32a4.814,4.814,0,0,1,1.92-.479.156.156,0,0,1,.16.159c0,.159,0,.159-.16.159l-1.92.481Z" transform="translate(-56.425 -10253.201)" fill="#c09309"/>
      </g>
      <g id="_x32_1317664_00000070118185435868544670000014107797888618361249_" transform="translate(24.803 51.54)">
        <path id="Path_2889" data-name="Path 2889" d="M51.9,10253.9a6.065,6.065,0,0,1,1.76.158Z" transform="translate(-51.74 -10253.741)" fill="#c09309" fill-rule="evenodd"/>
        <path id="Path_2890" data-name="Path 2890" d="M53.72,10254.279h0l-1.76-.16a.159.159,0,1,1,0-.318c.8,0,1.6,0,1.92.321a.156.156,0,0,1-.16.157Z" transform="translate(-51.8 -10253.801)" fill="#c09309"/>
      </g>
      <g id="_x32_1317840_00000152247125795237600520000010079843105571208345_" transform="translate(27.523 51.299)">
        <path id="Path_2891" data-name="Path 2891" d="M53.6,10253.991a1.721,1.721,0,0,1,1.76,0Z" transform="translate(-53.44 -10253.59)" fill="#c09309" fill-rule="evenodd"/>
        <path id="Path_2892" data-name="Path 2892" d="M55.42,10254.211H53.66a.156.156,0,0,1-.16-.159v-.161a2.037,2.037,0,0,1,1.92,0c.16.161.16.161,0,.32Z" transform="translate(-53.5 -10253.651)" fill="#c09309"/>
      </g>
      <g id="use4090_00000179646845900298128220000010064241082012397446_" transform="translate(24.803 31.54)">
        <g id="_x32_1314672_00000029035291890352390060000008912840215394473089_">
          <path id="Path_2893" data-name="Path 2893" d="M54.52,10249.459h-.16l-2.56-3.359v-.318h.32l2.24,2.878.8-7.2a.16.16,0,1,1,.32,0l-.8,7.679c0,.319,0,.319-.16.319Z" transform="translate(-51.8 -10241.301)" fill="#c09309"/>
        </g>
      </g>
      <g id="_66795168_00000132784287932461838870000005448113373937453998_" transform="translate(12.601 16.181)">
        <path id="Path_2894" data-name="Path 2894" d="M53.805,10254.3a24.01,24.01,0,0,0,9.44-19.681c-.32,0-.48.16-.8.16-2.24,0-7.36-1.278-8.64-2.878-1.28,1.439-6.56,2.878-8.8,2.878a1.441,1.441,0,0,1-.8-.16,24.436,24.436,0,0,0,9.6,19.681Z" transform="translate(-44.163 -10231.584)" fill="#fff" fill-rule="evenodd"/>
        <path id="Path_2895" data-name="Path 2895" d="M53.816,10254.579h0a25.171,25.171,0,0,1-8.8-12.959,19.727,19.727,0,0,1-.8-6.88v-.159h.96c2.24,0,7.36-1.44,8.64-2.72l.16-.159.16.159c1.12,1.44,6.24,2.72,8.48,2.72h.96v.159a25.823,25.823,0,0,1-.8,6.88,26.427,26.427,0,0,1-8.96,12.959Zm-9.44-19.68a26.73,26.73,0,0,0,.8,6.56,23.458,23.458,0,0,0,8.48,12.641,23.458,23.458,0,0,0,8.48-12.641,16.66,16.66,0,0,0,.8-6.56H62.3c-2.08,0-7.2-1.119-8.64-2.719-1.6,1.441-6.72,2.719-8.8,2.719Q44.856,10235.14,44.376,10234.9Z" transform="translate(-44.174 -10231.702)" fill="#c09309"/>
      </g>
      <g id="path3977_00000144325519877451477300000012146043151491225770_" transform="translate(13.444 17.459)">
        <path id="Path_2896" data-name="Path 2896" d="M62.14,10235.06h-.32c-1.92,0-6.56-.958-8.32-2.558-1.92,1.439-6.56,2.558-8.48,2.558H44.7v1.279a21.637,21.637,0,0,0,.8,4.641,22.225,22.225,0,0,0,7.84,11.841,22.225,22.225,0,0,0,7.84-11.841,21.637,21.637,0,0,0,.8-4.641,3.111,3.111,0,0,0,.16-1.279Z" transform="translate(-44.7 -10232.502)" fill="#fff" fill-rule="evenodd"/>
      </g>
      <g id="Group_1421" data-name="Group 1421" transform="translate(13.448 17.365)">
        <g id="g161_00000097498295929613496690000008253457132837661365_" transform="translate(0 0)" clip-path="url(#clip-path)">
          <g id="g163_00000078039946249264266760000003248189160928371643_" transform="translate(-0.003 -0.016)">
            <g id="g165_00000069373458492935897060000016325572196652448133_">
              <g id="_43809040_00000135675698698840715920000013660756623672801670_">
                <rect id="Rectangle_27" data-name="Rectangle 27" width="5.808" height="19.95" fill="#a71916"/>
              </g>
              <g id="_43612568_00000014592947473346285470000016585470361613766048_" transform="translate(11.364)">
                <rect id="Rectangle_28" data-name="Rectangle 28" width="6.061" height="19.95"/>
              </g>
            </g>
          </g>
        </g>
      </g>
      <g id="use4086_00000131357458101221573640000005283227144566717864_" transform="translate(24.323 37.138)">
        <g id="_x32_1314760_00000161599792905466840500000008993828331448156828_">
          <path id="Path_2898" data-name="Path 2898" d="M51.66,10250.079h0c-.16,0-.16-.16-.16-.321l1.44-4.8c0-.159.16-.159.32-.159s.16.159.16.32l-1.44,4.8C51.82,10250.079,51.82,10250.079,51.66,10250.079Z" transform="translate(-51.5 -10244.8)" fill="#c09309"/>
        </g>
      </g>
      <g id="path4247_00000070114315040900547410000002290755131118204837_" transform="translate(7.044 52.824)">
        <path id="Path_2899" data-name="Path 2899" d="M41.02,10255.718c-.16,0-.32-.158-.16-.319a.32.32,0,1,1,.64,0,.551.551,0,0,0-.16.319h-.32Zm17.44,1.28-.16-.159a.345.345,0,0,1,.32-.32.5.5,0,0,1,.32.159c.16.159.16.32,0,.32Zm.16.8c-.16,0-.16-.159-.16-.319s0-.159.16-.32h.32c.16,0,.16.16.16.32s0,.158-.16.319Zm-17.28-.958c.16,0,.16-.159,0-.159h-.16c-.16,0-.16,0-.16.159Zm2.72,1.279s-.32,0-.32-.16c-.32,0-.8-.16-.96-.16h-.16c-.16,0-.16,0-.48-.158a.5.5,0,0,1-.32-.159c-.16,0-.32,0-.32-.159h-.48c-.16,0-.32,0-.32-.16v-.479h0a.551.551,0,0,0,.16-.319.5.5,0,0,1,.32-.16h.48v-.638a.7.7,0,0,1,.16-.479v-.158h-.16a.5.5,0,0,0-.32.158c-.16.16-.16.16-.32.16s-.32,0-.32-.16v-.158a.157.157,0,0,1,.16-.16h1.76v2.709c0,.159.32.159.48.159h.16v-.478c0-.159,0-.159-.16-.159,0,0-.16,0,0-.159l.16-.159h.32a.157.157,0,0,0,.16-.16c.16-.16.16-.16.16,0v1.435h.96a.155.155,0,0,1,.16-.158v-.16c0-.158,0-.158-.16-.318s0-.321.16-.321l.32-.159c.16-.159.16-.159.32-.159,0,0,.16.159,0,.159v.48c0,.158,0,.318-.16.318,0,.16,0,.321-.16.321v.318c-.96,0-1.12,0-1.28-.157Zm-3.2.159c-.16-.158-.16-.319.16-.479h.32c.16.16.16.321,0,.321l-.16.158Zm.96.16c-.16,0-.32-.16-.16-.319,0-.16,0-.16.32-.16.16,0,.32,0,.32.16v.158C42.14,10258.438,41.98,10258.6,41.82,10258.438Zm28.479.16-.16-.16c0-.16,0-.16.16-.319s.32-.16.32,0c.16.158.16.319,0,.319H70.3Zm-27.2.319c-.16,0-.16-.159-.16-.319s0-.16.16-.16h.32a.5.5,0,0,1,.16.32C43.42,10258.917,43.42,10258.917,43.1,10258.917Zm7.04.32h0v-3.52l.16-.158.16.158.16.16c.32.319.32.319.16.319h-.32v2.078a.588.588,0,0,1-.16.479h-.16c.16.482.16.482,0,.482Zm9.28-.32h0l.16-.319h-.32c-.16.158-.16.158,0,.158,0,.322,0,.322.16.161Zm-.8.641v-.8a.157.157,0,0,1,.16-.16l.16-.158.16-.16h.32v-1.12c0-.158,0-.319-.16-.319H59.1l-.16-.16c.16-.158.48-.479.48-.479a.157.157,0,0,1,.16.16v2.559c0,.158.16.319.32.158h.16c.16,0,.32,0,.16-.319v-.321l-.16-.158a.157.157,0,0,1-.16-.16l.16-.159a.156.156,0,0,0,.16-.159c.16-.159.16-.159.32,0v1.6l-.32.16h-.64a2.779,2.779,0,0,0-1.28.158h-.32l.64-.162Zm-10.72-1.92h0c0-.158-.16-.158-.16-.319s-.16-.159-.32,0l-.16.159H47.1c.16.158.16.158.32.158l.48,0Zm.8,2.24h0l-.32-.159h0v-.64h-.16c-.16,0-.32,0-.32-.158a.157.157,0,0,0-.16-.16v-.159h-.48a.156.156,0,0,1-.16.159h-.8c-.32,0-.48,0-.64.16,0,.158-.32.319-.48.479h-.64c-.32,0-.32,0-.32-.16l.16-.158h.64a.157.157,0,0,0,.16-.16v-.957c0-.16,0-.16-.16-.16s0,0,0-.16,0-.157.16-.479v-.158a.157.157,0,0,1,.16-.16l.16.16v.479c0,.157,0,.479.16.479l.16.159h.48c.16,0,.16,0,.32-.159l.16-.16c0-.158-.32-.318-.48-.318a.157.157,0,0,1-.16-.16c0-.159.16-.159.32-.319a.558.558,0,0,1,.32-.16h.16v-.159c.16-.32.32-.479.64-.479.16,0,.16,0,.16.159a.156.156,0,0,0,.16.159.494.494,0,0,1,.16.32v.16l.32.319h0v.32c0,.158,0,.158-.32.158h-.48v.16c0,.159,0,.159.16.319h.48v.642h.32v-2.721h-.16l-.16-.16c0-.159,0-.159.16-.159h.32l.16-.16h0v3.68l-.16.32h-.32c.64.151.32.151.32.151Zm20-1.76c.16,0,.16-.16.16-.321s-.16-.159-.32-.159a.559.559,0,0,0-.32.159.157.157,0,0,0,.16.16c.16.161.16.161.32.161Zm-1.92,0h0c.16-.16,0-.321-.16-.48s-.16,0-.32,0v.319c.16,0,.32.161.48.161Zm-.8,0v-.16c0-.16,0-.16-.16-.16h-.16v.16c0,.16,0,.16.16.16.16.159.16.159.16,0Zm-1.92.319a.157.157,0,0,0,.16-.16c0-.158-.16-.158-.32,0v.16h0c0,.16.16.16.16,0Zm3.04.32v-.159h-.32a.156.156,0,0,0-.16.159h.48Zm-3.68,1.12v-.159h.48a.51.51,0,0,0,.48-.479v-.16h-.8v-.641l.16-.158.16-.16v-.159l.16-.159a.5.5,0,0,1,.32-.159h.32l.16.159v.637h.32v-.639c0-.159.16-.319.32-.479a.157.157,0,0,0,.16-.16h.16a.156.156,0,0,0,.16-.158c0-.16,0-.16-.16-.321v-.158a.5.5,0,0,1,.16-.321l.16-.159h.32s.16,0,.16.32.16.321.16.479v.16h.64a.155.155,0,0,1,.16.158h0l.32.321c.16.158.16.158.32.158h.16v-.158a.5.5,0,0,1,.16-.321l.16-.158.16-.16a.5.5,0,0,1,.32.16c.16,0,.16.158.32.158a.587.587,0,0,0,.48.16h.16l-.16-.32v-1.279c0-.16-.16-.321-.32-.48h-.64l-.16.159h0a.156.156,0,0,1-.16-.159v-.159l-.16-.159-.16-.16v-.158h1.44s.32.158.32.319v.479a1.6,1.6,0,0,0,.16.641.791.791,0,0,0,.16.48v.638c0,.16.32.16.32.16.16,0,.32-.16.48-.16l.16-.158a.156.156,0,0,1,.16.158l.16.16a.156.156,0,0,1,.16.159h-.32a.5.5,0,0,0-.32.159c-.16,0-.32.158-.48.158a6.923,6.923,0,0,0-.8.16h-.16c-.16,0-.16,0-.16.16s-.16.319-.32.479h-.8a.157.157,0,0,0-.16-.16H67.9v.64a.156.156,0,0,1-.16.159l-.16.159c-.16.159-.16.159-.32,0H67.1c-.16,0-.32,0-.32-.159l-.16-.32h-1.28c-.16,0-.16,0-.16.159v.318a.345.345,0,0,1-.32.321.156.156,0,0,0-.16.158h-.32l-.96,0Zm-1.92.16h0a.157.157,0,0,1,.16-.16c.16,0,.32-.159.48-.32l.16-.159v-.48a.589.589,0,0,0-.16-.479.561.561,0,0,0-.32-.158.157.157,0,0,1-.16-.16.556.556,0,0,0,.16-.32.559.559,0,0,1,.16-.319c0-.159.16-.159.16,0l.16.319h0l.16.32v1.438l-.16.16c0,.159-.32.32-.32.32h-.32c0,.159-.16.159-.16,0Zm-2.24.159-.16-.159a.157.157,0,0,1,.16-.16c.16-.159.16-.159.48,0,.16.16.32.16.32,0a.559.559,0,0,1,.32-.159h.16a.156.156,0,0,1,.16.159c0,.16,0,.16-.16.16s-.16.159-.16,0c-.16,0-.16,0-.32-.16h0a.558.558,0,0,1-.32.16h-.16c-.16.319-.16.319-.32.159Zm-1.92-1.119h0v-.16c0-.158,0-.158-.16-.158a.5.5,0,0,0-.32.158v.16Zm-1.92.64v-.96H53.98c-.32,0-.64,0-.64.159v.16h1.92v.479a.157.157,0,0,0,.16.161Zm-.16.64h0c-.32-.158-.32-.319-.48-.319l-.16-.32h0c-.16,0-.64-.16-.8-.16h-1.6v.16a.156.156,0,0,1-.16.159l-.16.159h0a.559.559,0,0,1-.32.159H50.3v-.159a.7.7,0,0,1,.48-.159h.32a.343.343,0,0,0,.32-.32h0v-.8c-.16-.32-.16-.32-.16-.48-.16-.158-.16-.158,0-.319a.559.559,0,0,0,.16-.32.16.16,0,0,1,.32,0,.79.79,0,0,1,.16.48v.318c0,.158,0,.158.32.158.16,0,.16,0,.16-.319v-.16h0a1.605,1.605,0,0,1-.16-.479v-.479h.16c.16-.159.32-.159.32,0v.64h2.24c.32,0,.32,0,.32.16h0v.319c0,.321,0,.321.16.321s.16,0,.16-.16v-.318a.345.345,0,0,1,.32-.321h.32c.16,0,.32-.158.48-.158h.32a1.244,1.244,0,0,0,.16.479v1.279h-1.6c-.16,0-.16,0-.16.159v.319a.559.559,0,0,1-.32.159h-.16c.64.321.48.481.32.321Z" transform="translate(-40.7 -10254.604)" fill="#c09309" fill-rule="evenodd"/>
      </g>
      <g id="g4052_00000088116158822682651800000010827727734349361075_" transform="translate(15.51 0)">
        <g id="path140_00000088822811737255294480000008766164791255735730_" transform="translate(0 0)">
          <path id="Path_2900" data-name="Path 2900" d="M-1213.5-4090.8c.16,0-.32-1.12-.32-1.12.64.64,2.72.64,2.72.64-1.28-.64-2.56-4.8-2.4-8.16s-.48-4.8-.96-5.28c-.64-.64-2.72-1.12-4-1.279-.8,0-.64.64-.64.64-1.44-.32-2.88-.479-3.52,0-.64.32-.8,2.4-.32,2.08,1.12-.8,1.92,0,2.56.8s.48,3.041-.32,5.76a16.916,16.916,0,0,1-3.2,5.6,7.393,7.393,0,0,0,3.04-1.12l-.48,1.76a13.546,13.546,0,0,0,2.4-1.6l1.28,1.28a8.627,8.627,0,0,1,1.28-1.28A5.827,5.827,0,0,0-1213.5-4090.8Z" transform="translate(1224.06 4106.067)" fill="#fff" fill-rule="evenodd"/>
          <path id="Path_2901" data-name="Path 2901" d="M-1221.28-4089.976l.48-1.76a6.851,6.851,0,0,1-2.72.96h-.48l.32-.32a24.068,24.068,0,0,0,3.2-5.6c.8-2.72.8-4.96.32-5.6s-.96-1.121-1.44-1.121a1.175,1.175,0,0,0-.96.32c-.16.16-.32.16-.32,0-.16,0-.16-.16-.32-.479,0-.479.16-1.6.64-1.92a4.846,4.846,0,0,1,3.36,0c0-.161,0-.161.16-.32s.32-.32.64-.161a7.55,7.55,0,0,1,4.16,1.279c.48.479,1.12,1.92,1.12,5.44-.16,3.52,1.12,7.52,2.24,8l.96.479h-1.12a9.319,9.319,0,0,1-2.24-.479,2.8,2.8,0,0,1,.16.8l-.16.161h0a9.2,9.2,0,0,1-2.72-1.121,7.39,7.39,0,0,0-1.12,1.121l-.16.16-1.28-1.439a21.77,21.77,0,0,1-2.24,1.6Zm.96-2.56-.48,1.76a10.109,10.109,0,0,0,1.92-1.44l.16-.16,1.28,1.28,1.12-1.12.16-.16.16.16a4.4,4.4,0,0,0,2.4,1.12,2.7,2.7,0,0,0-.32-.8l-.48-.96.8.8a5.385,5.385,0,0,0,1.92.639c-1.12-1.28-2.08-4.959-1.92-8,.16-3.521-.48-4.641-.96-5.121-.64-.64-2.56-1.12-3.84-1.279-.16,0-.32,0-.32.16a.222.222,0,0,0,0,.32v.32h-.32c-1.6-.32-2.72-.479-3.36-.16a2.6,2.6,0,0,0-.48.959v.8a1.522,1.522,0,0,1,1.12-.32,2.427,2.427,0,0,1,1.6,1.28c.64.961.48,3.361-.32,5.92a17.184,17.184,0,0,1-2.88,5.28,7.951,7.951,0,0,0,2.56-1.12Z" transform="translate(1224 4106.042)" fill="#c09309"/>
        </g>
        <g id="path142_00000165220923770549417920000015422022350282473901_" transform="translate(3.2 7.107)">
          <path id="Path_2902" data-name="Path 2902" d="M-1221.68-4094.72l-.32-.32c1.28-1.44,1.92-6.56,1.92-6.56h.48C-1219.6-4101.28-1220.24-4096.161-1221.68-4094.72Z" transform="translate(1222 4101.601)" fill="#c09309"/>
        </g>
        <g id="path144_00000108267584168359413150000002178088468328536984_" transform="translate(5.28 7.107)">
          <path id="Path_2903" data-name="Path 2903" d="M-1220.38-4094.56l-.32-.16c.96-1.6,1.12-6.88,1.12-6.88h.48C-1219.26-4101.44-1219.58-4096.32-1220.38-4094.56Z" transform="translate(1220.7 4101.601)" fill="#c09309"/>
        </g>
        <g id="path146_00000047748852501605482550000010953978841041468829_" transform="translate(7.36 7.267)">
          <path id="Path_2904" data-name="Path 2904" d="M-1219.08-4094.621c-.32-.96-.32-6.56-.32-6.88h.48c0,1.6,0,5.92.32,6.72Z" transform="translate(1219.4 4101.5)" fill="#c09309"/>
        </g>
        <g id="path148_00000007395977433798737340000014870554207036749711_" transform="translate(8.64 7.587)">
          <path id="Path_2905" data-name="Path 2905" d="M-1217.16-4094.58c-1.28-1.76-1.44-6.561-1.44-6.721h.48s.32,4.8,1.44,6.56Z" transform="translate(1218.6 4101.301)" fill="#c09309"/>
        </g>
        <g id="path150_00000030446255935344715480000009949984833811031460_" transform="translate(0.96 1.506)">
          <path id="Path_2906" data-name="Path 2906" d="M-1220.32-4101.96a2.319,2.319,0,0,0-.32-1.121c-.64-.96-1.6-1.759-2.56-.8,0,0,.32-1.12,1.12-1.12.64,0,1.92.479,3.2,2.56,0,0-.96-.16-1.12,0-.48.161-.32.48-.32.48Z" transform="translate(1223.52 4105.161)" fill="#c09309" fill-rule="evenodd"/>
          <path id="Path_2907" data-name="Path 2907" d="M-1220.68-4102.86c-.48-.641-.96-1.121-1.44-1.121a1.724,1.724,0,0,0-1.12.32l-.16.16v-.16s.32-1.12,1.12-1.12c.64,0,1.92.479,3.2,2.56v.161h-.16A4.2,4.2,0,0,1-1220.68-4102.86Zm-1.6-1.44h.16a2.289,2.289,0,0,1,1.6,1.28c.16.161.16.479.32.64a.561.561,0,0,0,.16-.32c.16-.161.8,0,.96,0-1.12-1.92-2.4-2.4-3.04-2.4-.48,0-.8.639-.96.959A6.657,6.657,0,0,0-1222.28-4104.3Z" transform="translate(1223.4 4105.101)" fill="#c09309"/>
        </g>
        <g id="path152_00000124137133198642901550000012880078514275087242_" transform="translate(0.8 0.067)">
          <path id="Path_2908" data-name="Path 2908" d="M-1223.3-4104.721c.16-.32.16-.479.32-.64.64-.479,2.08-.32,3.52,0,0,0-.16-.64.64-.64a7.421,7.421,0,0,1,4,1.279,1.713,1.713,0,0,1,.48.8h0a1.274,1.274,0,0,0-1.44-.32,2.382,2.382,0,0,0-.96.16,1.216,1.216,0,0,0-.64.32c-.16.161-.32.48-.48.48-.32,0-.32-.16-.32-.16-.16-.161-.16-.32-.32-.32a2.434,2.434,0,0,1-1.6-.8c-.64-.64-.96-.64-1.92-.64-1.12,0-1.28.641-1.28.48Z" transform="translate(1223.62 4106)" fill="#c09309" fill-rule="evenodd"/>
          <path id="Path_2909" data-name="Path 2909" d="M-1218-4103.327c-.314,0-.314,0-.472-.157h0a.154.154,0,0,0-.158-.157l-.157-.158a2.388,2.388,0,0,1-1.573-.786c-.629-.628-.943-.628-1.887-.628a1.314,1.314,0,0,0-1.1.471h-.157a.844.844,0,0,1,.472-.629c.786-.471,2.359-.157,3.3,0,0-.157,0-.315.157-.315.157-.157.314-.157.629-.157a6.867,6.867,0,0,1,3.931,1.257,3.441,3.441,0,0,1,.472.787h-.157a2.112,2.112,0,0,0-1.258-.315h-.314a1.709,1.709,0,0,0-.786.157h0c-.157,0-.472.158-.629.158l-.157.157C-1217.681-4103.484-1217.839-4103.327-1218-4103.327Zm-.629-.629a.154.154,0,0,1,.158.157.155.155,0,0,0,.157.158h0s0,.157.314.157c.157,0,.157-.157.314-.315a.154.154,0,0,1,.157-.157c.157-.158.472-.158.629-.314h0a1.411,1.411,0,0,1,.786-.158h.314a1.972,1.972,0,0,1,1.258.158c-.157-.158-.157-.316-.314-.472-.629-.629-2.673-1.1-3.932-1.257a.578.578,0,0,0-.472.157.488.488,0,0,0-.157.315v.157h-.157c-1.573-.471-2.831-.471-3.3-.157-.157,0-.157.157-.315.472a1.33,1.33,0,0,1,.944-.315c.943,0,1.258,0,1.887.629.943.629,1.416.943,1.73.787Z" transform="translate(1223.817 4106.095)" fill="#c09309"/>
        </g>
        <g id="path154_00000033349471911541090050000008780462839425418406_" transform="translate(5.92 1.506)">
          <path id="Path_2910" data-name="Path 2910" d="M-1219.98-4104.46a.344.344,0,0,0,.32-.32.344.344,0,0,0-.32-.32.344.344,0,0,0-.32.32A.344.344,0,0,0-1219.98-4104.46Z" transform="translate(1220.3 4105.101)" fill="#fff" fill-rule="evenodd"/>
        </g>
      </g>
      <g id="path3816_00000148627236460341040310000013477667174501182088_" transform="translate(13.444 17.3)">
        <path id="Path_2911" data-name="Path 2911" d="M53.5,10253.039h0a22.6,22.6,0,0,1-8-12,23.51,23.51,0,0,1-.8-4.641v-1.439h.48c1.92,0,6.56-1.119,8.32-2.559h.32c1.76,1.6,6.4,2.559,8.16,2.559h.48v1.439a23.511,23.511,0,0,1-.8,4.641,25.226,25.226,0,0,1-8.16,12Zm-8.64-17.761v1.121a23.52,23.52,0,0,0,.8,4.642,22.138,22.138,0,0,0,7.68,11.679,22.149,22.149,0,0,0,7.68-11.679,23.519,23.519,0,0,0,.8-4.642v-1.121h-.16c-1.92,0-6.4-.959-8.32-2.559-1.76,1.439-6.24,2.559-8.48,2.559Z" transform="translate(-44.7 -10232.4)" fill="#c09309"/>
      </g>
    </g>
    <g id="English_Name" data-name="English Name" transform="translate(-128614.18 -184233.359)">
      <path id="Path_2912" data-name="Path 2912" d="M20.78,74.78c.64-.32,1.6-.64,2.4-1.12h0c-.8.16-1.76.16-2.56.32l-2.72.16-.48-.96,2.08-1.6c.64-.48,1.44-.96,2.08-1.44h0c-.8.32-1.76.64-2.56.96l-2.24.8-.48-1.12,6.08-2.08.64,1.76L21.26,71.9l-1.92,1.44h0c.8-.16,1.6-.16,2.4-.32l2.4-.16.64,1.6-5.76,2.56-.48-1.28Z" transform="translate(-16.3 -68.7)"/>
      <path id="Path_2913" data-name="Path 2913" d="M18.5,75.743l4.16-2.24.64,1.28-4.16,2.24Zm5.92-1.44a.716.716,0,1,1,.32-.96A.769.769,0,0,1,24.42,74.3Z" transform="translate(-14.98 -66.144)"/>
      <path id="Path_2914" data-name="Path 2914" d="M22.02,75.5a5.613,5.613,0,0,1,1.28-.8l.64.96-.48.48h0a1.9,1.9,0,0,1,1.44.8,1.645,1.645,0,0,1-.8,2.4l-2.24,1.44-.8-1.12,2.24-1.44c.48-.32.8-.8.48-1.28a3.124,3.124,0,0,0-1.12-.16c-.16,0-.16.16-.32.16L20.1,78.38l-.8-1.12Z" transform="translate(-14.5 -65.1)"/>
      <path id="Path_2915" data-name="Path 2915" d="M21.3,80.845l3.68-2.72.8,1.12-3.52,2.56Zm5.6-2.56c-.32.16-.8.16-.96-.16a.688.688,0,1,1,.96.16Z" transform="translate(-13.3 -63.726)"/>
      <path id="Path_2916" data-name="Path 2916" d="M23.36,80.918a3.388,3.388,0,0,0,.48,1.12c.32.32.48.32.8.16.16-.16.16-.32,0-.96a1.841,1.841,0,0,1,.16-1.92,1.687,1.687,0,0,1,2.4.48,9.178,9.178,0,0,1,.64,1.12l-.96.48a1.761,1.761,0,0,0-.48-.96.4.4,0,0,0-.64-.16c-.16.16-.16.32,0,.96.32.8.32,1.44-.32,1.92a1.687,1.687,0,0,1-2.4-.48,3.151,3.151,0,0,1-.64-1.28Z" transform="translate(-12.64 -62.519)"/>
      <path id="Path_2917" data-name="Path 2917" d="M29.3,81.14l-.8.96.8.8-.8.64-.8-.8-1.28,1.28c-.32.32-.48.64-.16.96.16.16.32.16.32.32l-.8.8c-.16-.16-.48-.32-.8-.64a1.452,1.452,0,0,1-.48-1.12,1.913,1.913,0,0,1,.64-1.28l1.44-1.44-.32-.32.8-.64.48.48.64-.64Z" transform="translate(-11.38 -61.62)"/>
      <path id="Path_2918" data-name="Path 2918" d="M27.98,83.42a5.105,5.105,0,0,0,.96-1.12l.96.8-.64.64h0a1.4,1.4,0,0,1,1.6.16l.16.16-.8.96c0-.16-.16-.16-.32-.32a1.253,1.253,0,0,0-1.28-.16l-.16.16-1.6,1.76-.96-.96Z" transform="translate(-10.54 -60.54)"/>
      <path id="Path_2919" data-name="Path 2919" d="M31.68,84.62l-.8,2.24c-.16.32-.16.64-.32.8h0c.16-.16.48-.32.64-.64l1.92-1.44,1.12.96L31.68,88.3c-1.6,1.12-2.4,1.44-3.04,1.44a3.2,3.2,0,0,1-1.44-.32l.48-1.12a.962.962,0,0,0,.64.16,1.2,1.2,0,0,0,.8-.16c.16,0,.16,0,.16-.16a.157.157,0,0,1,.16-.16l1.12-4.48Z" transform="translate(-9.76 -59.82)"/>
      <path id="Path_2920" data-name="Path 2920" d="M36.527,90.22a2.433,2.433,0,0,1-4.32-2.24,2.428,2.428,0,0,1,3.36-.96A2.218,2.218,0,0,1,36.527,90.22Zm-3.04-1.6c-.32.64-.32,1.44.16,1.76s1.12,0,1.6-.8c.32-.64.48-1.44-.16-1.76S33.807,87.98,33.487,88.62Z" transform="translate(-6.928 -57.901)"/>
      <path id="Path_2921" data-name="Path 2921" d="M34.8,92.625l1.44-3.36-.64-.32.48-.96.64.32v-.16a1.933,1.933,0,0,1,1.12-1.12,1.7,1.7,0,0,1,1.28.16,2.208,2.208,0,0,1,.64.48l-.48.96a1.23,1.23,0,0,0-.48-.32.671.671,0,0,0-.96.48l-.16.16.8.32-.48.96-.8-.32-1.44,3.36Z" transform="translate(-5.201 -57.745)"/>
      <path id="Path_2922" data-name="Path 2922" d="M41.2,88.42l-.8,2.4,2.4.8.8-2.4,1.28.48-1.92,6.08-1.28-.48.8-2.56-2.4-.8-.8,2.56L38,94.18l1.92-6.08Z" transform="translate(-3.281 -57.061)"/>
      <path id="Path_2923" data-name="Path 2923" d="M43.51,93.026c-.16.64.48,1.12,1.12,1.12a1.753,1.753,0,0,0,1.28,0v.96a3.272,3.272,0,0,1-1.76,0,2.133,2.133,0,0,1-1.92-2.72,2.411,2.411,0,0,1,2.72-2.08,2.193,2.193,0,0,1,1.6,2.72,1.612,1.612,0,0,1-.16.48Zm1.92-.64c0-.32,0-.96-.64-1.12s-.96.48-1.12.8Z" transform="translate(-0.791 -55.746)"/>
      <path id="Path_2924" data-name="Path 2924" d="M48.131,95.66v-.48h0a1.956,1.956,0,0,1-1.44.48c-.96-.16-1.44-.8-1.28-1.6.16-1.12,1.28-1.6,2.88-1.44h0c0-.32,0-.64-.8-.8a3.119,3.119,0,0,0-1.28.16l-.16-.96a4.282,4.282,0,0,1,1.76-.32,1.733,1.733,0,0,1,1.76,2.24l-.16,1.6v1.12Zm0-2.24c-.8,0-1.44,0-1.44.64,0,.32.16.64.48.64a.88.88,0,0,0,.8-.48V93.9Z" transform="translate(1.148 -55.501)"/>
      <path id="Path_2925" data-name="Path 2925" d="M48.86,89.7H50.3l-.16,6.72H48.7Z" transform="translate(3.139 -56.101)"/>
      <path id="Path_2926" data-name="Path 2926" d="M52.08,90.2v1.28H53.2v.96H52.08V94.2c0,.64.16.8.64.8h.48v1.12a5.658,5.658,0,0,1-.96.16,2.312,2.312,0,0,1-1.12-.32,1.575,1.575,0,0,1-.48-1.28V92.76H50V91.8h.64v-.96Z" transform="translate(3.919 -55.801)"/>
      <path id="Path_2927" data-name="Path 2927" d="M52.3,89.66l1.44-.16.32,2.72h0c.16-.16.32-.48.48-.48a1.222,1.222,0,0,1,.8-.32c.96-.16,1.76.48,1.92,1.76l.32,2.72-1.44.16-.32-2.56a.849.849,0,0,0-.96-.96.688.688,0,0,0-.64.64v.32l.32,2.72-1.44.16Z" transform="translate(5.299 -56.221)"/>
      <path id="Path_2928" data-name="Path 2928" d="M62.114,94.6c-.16-.16-.32-.16-.48-.32a2.3,2.3,0,0,1-1.6.96c-1.44.32-2.4-.32-2.56-1.12a2.366,2.366,0,0,1,.64-2.08h0a2.041,2.041,0,0,1-.8-1.12,1.721,1.721,0,0,1,1.44-2.08,1.6,1.6,0,0,1,2.08.96,1.77,1.77,0,0,1-.8,1.92h0l1.44.96a5.443,5.443,0,0,0,.16-1.6l1.12-.32a4.373,4.373,0,0,1-.32,2.56l1.44.96Zm-3.68-4.16a1.6,1.6,0,0,0,.64.8,2.127,2.127,0,0,0,.48-1.12c-.16-.32-.32-.64-.8-.48A.584.584,0,0,0,58.434,90.438Zm2.24,3.2a10.157,10.157,0,0,0-1.92-1.12,2.274,2.274,0,0,0-.32.96.908.908,0,0,0,1.28.64A.968.968,0,0,0,60.674,93.638Z" transform="translate(8.284 -56.678)"/>
      <path id="Path_2929" data-name="Path 2929" d="M61.5,88.3a14.485,14.485,0,0,1,1.76-.96,3.014,3.014,0,0,1,1.92-.32,2.14,2.14,0,0,1,1.28,1.12,1.447,1.447,0,0,1,0,1.6,2.862,2.862,0,0,1-1.6,1.44c-.16,0-.32.16-.48.16l.96,2.08-1.28.48Zm2.4,2.08a.588.588,0,0,0,.48-.16,1.143,1.143,0,0,0,.8-1.44c-.32-.64-.8-.64-1.44-.48-.32.16-.48.16-.48.32Z" transform="translate(10.819 -57.744)"/>
      <path id="Path_2930" data-name="Path 2930" d="M69.68,87.78a2.354,2.354,0,0,1-.96,3.36,2.252,2.252,0,0,1-3.2-.96,2.428,2.428,0,0,1,.96-3.36A2.218,2.218,0,0,1,69.68,87.78ZM66.8,89.54c.48.64.96,1.12,1.6.8.48-.32.48-.96.16-1.76-.32-.64-.96-1.12-1.6-.8S66.48,88.9,66.8,89.54Z" transform="translate(13.038 -58.021)"/>
      <path id="Path_2931" data-name="Path 2931" d="M68.66,87.862a8.876,8.876,0,0,0-.96-1.28l.96-.64.48.48h0a2.222,2.222,0,0,1,.8-1.6c.8-.64,2.08-.32,2.88.8.96,1.44.64,2.72-.32,3.2a1.411,1.411,0,0,1-1.28.32h0l1.28,1.92-1.12.8Zm1.76,0a.157.157,0,0,0,.16.16.773.773,0,0,0,1.12,0,1.241,1.241,0,0,0,0-1.76c-.48-.64-1.12-.96-1.6-.48a1.061,1.061,0,0,0-.32,1.12c0,.16,0,.16.16.16Z" transform="translate(14.538 -59.223)"/>
      <path id="Path_2932" data-name="Path 2932" d="M75.88,84.3c.32.48.8.8.96,1.12l-.8.8-.48-.48h0a2.068,2.068,0,0,1-.64,1.6c-.64.64-1.6.64-2.56-.48L70.6,84.78l.96-.96,1.6,1.92c.48.48.96.64,1.28.32a.754.754,0,0,0,.16-.96c0-.16-.16-.16-.16-.32l-1.6-1.92.96-.96Z" transform="translate(16.278 -60.78)"/>
      <path id="Path_2933" data-name="Path 2933" d="M72.2,80.86l.96-.96,4.8,4.64L77,85.5Z" transform="translate(17.238 -61.98)"/>
      <path id="Path_2934" data-name="Path 2934" d="M79.42,82.108l-.48-.32h0a1.638,1.638,0,0,1-2.56,1.6c-.96-.8-.64-1.92.32-3.2h0c-.16-.16-.64-.32-1.12.32a1.728,1.728,0,0,0-.48,1.12l-.8-.32a3.621,3.621,0,0,1,.8-1.6,1.925,1.925,0,0,1,2.88-.32l1.28,1.12a3.347,3.347,0,0,0,.96.64Zm-1.76-1.28c-.48.64-.8,1.12-.32,1.6.32.32.64.16.8-.16a.6.6,0,0,0,0-.96l-.16-.16Z" transform="translate(18.498 -62.588)"/>
      <path id="Path_2935" data-name="Path 2935" d="M76.18,76.6l1.12.8.64-.8.8.64-.64.8,1.44.96q.72.48.96,0a.5.5,0,0,0,.16-.32l.8.64a1.462,1.462,0,0,1-.48.8c-.32.32-.64.64-.96.64a2.553,2.553,0,0,1-1.28-.48l-1.6-1.12-.32.48L76.18,79l.32-.48-.8-.64Z" transform="translate(19.338 -63.96)"/>
      <path id="Path_2936" data-name="Path 2936" d="M77.525,75.065a.688.688,0,1,1-.96.16C76.885,74.905,77.205,74.745,77.525,75.065Zm4.32,4.32-3.84-2.56.8-1.12,3.84,2.56Z" transform="translate(19.753 -64.986)"/>
      <path id="Path_2937" data-name="Path 2937" d="M82.147,73.12a2.433,2.433,0,0,1-2.24,4.32,2.279,2.279,0,0,1-.96-3.36A2.218,2.218,0,0,1,82.147,73.12Zm-1.6,3.04c.64.32,1.44.32,1.76-.16s0-1.12-.8-1.6c-.64-.32-1.44-.48-1.76.16S79.907,75.84,80.547,76.16Z" transform="translate(21.051 -66.24)"/>
      <path id="Path_2938" data-name="Path 2938" d="M81.14,73.712l-1.44-.48.48-1.12.64.16h0a1.763,1.763,0,0,1-.16-1.6c.32-.8,1.12-1.28,2.4-.8l2.56.96-.48,1.28-2.4-.96c-.64-.16-1.12-.16-1.28.32a.769.769,0,0,0,.32.96.559.559,0,0,0,.32.16l2.56.96-.48,1.28Z" transform="translate(21.738 -68.112)"/>
    </g>
  </g>
</svg>
