<?xml version="1.0" encoding="utf-8"?>
<!-- Generator: Adobe Illustrator 27.7.0, SVG Export Plug-In . SVG Version: 6.00 Build 0)  -->
<svg version="1.1" id="Layer_1" xmlns="http://www.w3.org/2000/svg" xmlns:xlink="http://www.w3.org/1999/xlink" x="0px" y="0px"
	 viewBox="0 0 300 116" style="enable-background:new 0 0 300 116;" xml:space="preserve">
<style type="text/css">
	.st0{fill:#FFFFFF;}
	.st1{fill:#C59239;}
	.st2{fill:#020100;}
	.st3{fill:#D5202A;}
	.st4{clip-path:url(#SVGID_00000125599899218063599830000014553698743848864420_);}
	.st5{clip-path:url(#SVGID_00000165948479951641826260000005146650765841731220_);}
	.st6{clip-path:url(#SVGID_00000044179682325640307270000004262756200338800002_);}
</style>
<path class="st0" d="M292.4,104c-1.2-2.7-2.7-2.5-3.3-2.3c-0.2,0.1-0.4,0-0.6-0.1c-0.2-0.2-0.2-0.4-0.1-0.6c0.2-0.6,0.2-1.1-0.1-1.4
	c-1-1.1-4.4-1-5.7-0.8l0,0c-11.7,1.2-21.4,1.5-29.2,1.5c-14.2,0-21.9-1.3-23.3-1.5v0c-1.3-0.2-4.8-0.4-5.8,0.8
	c-0.3,0.3-0.3,0.8-0.1,1.4c0.1,0.2,0,0.4-0.1,0.6c-0.2,0.2-0.4,0.2-0.6,0.1c-0.6-0.2-2.1-0.5-3.3,2.3c0,0.1-0.1,0.2-0.2,0.2
	c-0.2,0.1-0.4,0.3-0.7,0.4l0.2,0.1c0.2,0.1,0.4,0.3,0.4,0.6c0,0.3,0,1.8,2.3,3.3c0.2,0.2,0.3,0.4,0.2,0.7c-0.1,0.2-0.4,0.9,0,1.6
	c0.2,0.5,0.8,0.9,1.6,1.1c0,0,0.1,0,0.2,0c0.2,0.1,0.5,0.1,0.7,0.2c3.5,1,10,2.8,31.5,2.9c21.5-0.1,28-1.9,31.5-2.9
	c0.3-0.1,0.5-0.1,0.7-0.2c0.1,0,0.1,0,0.2,0c0.8-0.2,1.3-0.6,1.6-1.1c0.3-0.7,0-1.4,0-1.6c-0.1-0.3,0-0.5,0.2-0.7
	c2.3-1.5,2.3-3,2.3-3.3c0-0.2,0.1-0.5,0.4-0.6l0.2-0.1c-0.4-0.1-0.6-0.3-0.7-0.4C292.5,104.2,292.4,104.1,292.4,104"/>
<path class="st1" d="M293.1,104.7c-0.2,0.1-0.4,0.3-0.4,0.6c0,0.3,0,1.8-2.3,3.3c-0.2,0.2-0.3,0.4-0.2,0.7c0.1,0.2,0.3,0.9,0,1.6
	c-0.2,0.5-0.8,0.9-1.6,1.1c0,0-0.1,0-0.2,0c-0.2,0.1-0.5,0.1-0.7,0.2c-3.5,1-10,2.8-31.5,2.9c-21.5-0.1-28-1.9-31.5-2.9
	c-0.3-0.1-0.5-0.1-0.7-0.2c-0.1,0-0.1,0-0.2,0c-0.8-0.2-1.3-0.6-1.6-1.1c-0.3-0.7,0-1.4,0-1.6c0.1-0.3,0-0.5-0.2-0.7
	c-2.3-1.5-2.3-3-2.3-3.3c0-0.2-0.1-0.5-0.4-0.6l-0.2-0.1c0.4-0.1,0.6-0.3,0.7-0.4c0.1-0.1,0.2-0.1,0.2-0.2c1.2-2.7,2.7-2.5,3.3-2.3
	c0.2,0.1,0.4,0,0.6-0.1c0.2-0.2,0.2-0.4,0.1-0.6c-0.2-0.6-0.2-1.1,0.1-1.4c1-1.2,4.5-1,5.8-0.8v0c1.4,0.3,9.2,1.5,23.3,1.5
	c7.8,0,17.5-0.4,29.2-1.5l0,0c1.3-0.2,4.7-0.3,5.7,0.8c0.3,0.3,0.3,0.8,0.1,1.4c-0.1,0.2,0,0.4,0.1,0.6c0.2,0.2,0.4,0.2,0.6,0.1
	c0.6-0.2,2.1-0.5,3.3,2.3c0,0.1,0.1,0.2,0.2,0.2c0.2,0.1,0.4,0.3,0.7,0.4L293.1,104.7z M294.4,103.9c-0.8-0.1-1.1-0.3-1.2-0.4
	c-1.2-2.7-2.8-3-3.8-2.9c0.1-0.6-0.1-1.2-0.5-1.7c-1.5-1.8-6.1-1.2-6.6-1.1l0,0c-35,3.4-52.1,0-52.3-0.1l0,0c-1-0.1-5.1-0.5-6.5,1.2
	c-0.4,0.5-0.5,1-0.5,1.7c-1-0.1-2.6,0.2-3.8,2.9c-0.1,0.1-0.4,0.2-1.2,0.4c-0.2,0-0.4,0.2-0.5,0.6c0,0.3,0.1,0.6,0.4,0.7l0.9,0.3
	c0,0.7,0.4,2.2,2.5,3.7c-0.1,0.5-0.3,1.3,0.1,2c0.4,0.7,1.1,1.3,2.1,1.6c0.1,0,0.1,0,0.2,0.1c0.2,0.1,0.5,0.1,0.7,0.2
	c3.6,1,10.2,2.9,31.8,2.9l0-0.5l0,0.5c21.6-0.1,28.2-1.9,31.8-2.9c0.3-0.1,0.5-0.1,0.7-0.2c0.1,0,0.1,0,0.2-0.1
	c1.1-0.3,1.8-0.9,2.1-1.6c0.4-0.8,0.2-1.6,0.1-2c2.1-1.4,2.5-3,2.5-3.7l0.9-0.3c0.3-0.1,0.4-0.4,0.4-0.7
	C294.8,104.1,294.6,104,294.4,103.9"/>
<path class="st1" d="M255.5,16.4v6.2h-2.8l-0.9,1.3c0,0-5.6,5-14.6,1.4c0,0-1.7-0.5-4.1-2c0,0-7.9-4.9-13.5-3c0,0-2.9,1.3-3.7,5.2
	c0,0-0.3,2.4-0.4,5.6l-2.9,65.2l-0.1,2.2c0,0-0.1,1,1.4-0.4l21.7-19.5l-4.5,16.1l-1.2,3.9l23.4,2.7h5.7l23.4-2.7l-1.2-3.9l-4.5-16.1
	l21.7,19.5c1.5,1.4,1.4,0.4,1.4,0.4l-0.1-2.2L297,31.2c-0.1-3.2-0.4-5.6-0.4-5.6c-0.8-3.9-3.7-5.2-3.7-5.2c-5.6-1.9-13.5,3-13.5,3
	c-2.4,1.5-4.1,2-4.1,2c-9,3.6-14.6-1.4-14.6-1.4l-0.9-1.3h-2.7v-6.1"/>
<path class="st0" d="M252.9,72.5c0,0-0.8-0.7-2.1-2l-1.7,2.1l2.3,6.7"/>
<path class="st0" d="M245.3,67.8l1.7-1.6c-0.7-0.9-1.4-1.9-2.1-2.9"/>
<path class="st0" d="M245.4,68.6l0.6,6.7l4.3-5.3c-0.8-0.9-1.8-2-2.9-3.3"/>
<path class="st0" d="M244.7,68.4l-0.6-6.2c-0.6-1-1.3-2.1-1.8-3.3l-3.1,10.7l1.2,2.8"/>
<path class="st0" d="M248.7,91.8l2.4-11l-3.7,5.3"/>
<path class="st0" d="M237.9,90.4l3.8-5.5l1.8,5.8l3.3-4.7l-1.5-6.9l-3.7,4.4l-1.4-5.5l-4.7,4.5"/>
<path class="st0" d="M235.8,81.2l4.7-4.6l1.3,5.4l3.7-4.4l1.7,7.6l3.7-5.3l-2.3-6.7l-3.1,3.8l-0.7-7.7l-4.7,4.3l-1.3-3"/>
<path class="st0" d="M259.7,72.5l1.5,6.8l2.3-6.7l-1.7-2.1C260.5,71.8,259.7,72.5,259.7,72.5"/>
<path class="st0" d="M267.2,67.8l0.4-4.5c-0.7,1.1-1.4,2-2.1,2.9"/>
<path class="st0" d="M262.3,70l4.3,5.3l0.6-6.7l-2-1.9C264.1,68.1,263.1,69.2,262.3,70"/>
<path class="st0" d="M270.3,58.8c-0.6,1.2-1.2,2.3-1.8,3.3l-0.6,6.2l4.3,4l1.2-2.8"/>
<path class="st0" d="M263.9,91.8l1.2-5.7l-3.7-5.3"/>
<path class="st0" d="M267.3,79l-1.5,6.9l3.3,4.7l1.8-5.8l3.8,5.5l2.4-8l-4.7-4.5l-1.4,5.5"/>
<path class="st0" d="M277.4,83.4l-2.3,7.7l3.6,5.2l-0.5,0.4l-3.3-4.7l-1.6,5.4l-0.6,1.5l-3-4.4l-1.5,3.8l-0.6-0.2l1.9-5l3,4.4
	l0.1-0.3l1.7-5.9l-3.3-4.9l-1.8,5.8l-3.7-5.3l-1.4,6.5l0.9,4.1l0.2,1h-0.7l-0.2-0.9l-0.7-2.5l-1.5,1.4l-2.4-1.7l-2.1-15.3l0.6,15.3
	l-2.1,2.8l-2.1-2.8l0.6-15.3l-2.1,15.3l-2.4,1.7l-1.5-1.4l-0.7,2.5l-0.2,0.9h-0.7l0.2-1l0.9-4.1l-1.4-6.5l-3.7,5.3l-1.8-5.8
	l-3.3,4.9l1.7,5.9l0.1,0.3l3-4.4l1.9,5l-0.6,0.2l-1.5-3.8l-3,4.4l-0.6-1.5l-1.6-5.4l-3.3,4.7l-0.5-0.4l3.6-5.2l-2.3-7.7l-3.4,11.7
	l0,2.8l20.7,2.4h7.8l20.7-2.4l0-2.8"/>
<path class="st0" d="M267,76.9l-3.1-3.8l-2.3,6.7l3.7,5.3l1.7-7.6l3.7,4.4l1.3-5.4l4.7,4.6l-3.1-10.7l-1.3,3l-4.7-4.3"/>
<path class="st0" d="M236.6,76l2-6.9l0.5-18.6c-0.7-2.3-1.1-4.4-1.4-6.3"/>
<path class="st0" d="M273.9,69.1l2,6.9l-1.2-31.8c-0.3,1.9-0.7,4-1.4,6.3"/>
<path class="st0" d="M296.1,27.4c-0.4-5-3-6.1-3.6-6.3c0,0,0,0,0,0c-5.4-1.3-12.5,3.1-12.5,3.1c-2.3,1.4-4,2-4,2
	c-8.7,3.5-14.2-1.3-14.2-1.3l-0.8-1.3h-9.2l-0.8,1.3c0,0-5.5,4.9-14.2,1.3c0,0-1.7-0.5-4-2c0,0-7.1-4.4-12.5-3.1c0,0,0,0,0,0
	c-0.6,0.2-3.3,1.3-3.6,6.3l4.4-2l-2.7,68l1.6-1.4l2.7-65.5l4.4,4l-2.3,57.1l1.9-1.7l2.5-53.7l3.3,2.7l-1.8,47.4l2.2-2l1.6-44.6
	l2.8,1.5c0-0.4,0-0.6,0-0.6c14.3,0.5,19-5.2,19-5.2s4.7,5.7,19,5.2c0,0,0,0.2,0,0.6l2.8-1.5l1.6,44.6l2.2,2l-1.8-47.4l3.3-2.7
	l2.5,53.7l1.9,1.7l-2.3-57.1l4.4-4l2.7,65.5l1.6,1.4l-2.7-68"/>
<path class="st0" d="M274.2,37.5c-13.4,0.5-17.9-4.9-17.9-4.9s-4.5,5.4-17.9,4.9c0,0-1.4,22.6,17.9,36.1
	C275.6,60.1,274.2,37.5,274.2,37.5"/>
<path class="st1" d="M273.4,38.1c-12.9,0.5-17.2-4.7-17.2-4.7s-4.3,5.2-17.2,4.7c0,0-1.3,21.7,17.2,34.6
	C274.8,59.8,273.4,38.1,273.4,38.1"/>
<path class="st2" d="M272.5,38.9c-12.2,0.5-16.2-4.4-16.2-4.4s-4,4.9-16.3,4.4c0,0-1.3,20.5,16.3,32.8
	C273.8,59.5,272.5,38.9,272.5,38.9"/>
<path class="st3" d="M240,38.9c0,0-0.9,14.6,9.4,26.6V38C247,38.7,243.9,39.1,240,38.9"/>
<path class="st0" d="M256.3,71.7c2.7-1.9,5-4,6.9-6.2V38c-5-1.3-6.9-3.6-6.9-3.6s-1.9,2.3-6.9,3.6v27.5
	C251.3,67.7,253.6,69.8,256.3,71.7"/>
<path class="st1" d="M226.6,94.6c0,0-4.7,0.2-3.5,5.4c0,0,1-0.8,3.5-1.3c0,0,5.6,1.4,10.3,2.1c0,0,0.1,0.7,0.6,1.2
	c0,0,1.2,1,1.2,2.3c0,0,0.1-1.3,1.3-1.9c0,0,0.5-0.3,0.7-0.7c0,0,3.6,0.5,10.7,0.2c0,0,0.1,0.5,0.6,0.8c0,0,1.8,0.9,1.9,2
	c0,0,1.6-0.8,1.6-3.7c0,0-0.2-2.4-2.3-2.6c0,0-0.7-1-1.8-1.1c0,0-1.8,0.6-12.2-0.5c0,0-3.5-0.4-10.6-2.4
	C228.7,94.3,227.7,93.7,226.6,94.6"/>
<path class="st0" d="M239,102.8c0,0,0.1-0.4,0.9-1c0,0,0.7-0.8,0.8-1.7c0,0,0.2-1.6-1.2-2c0,0-1.3,0-1.7,1.2c0,0-0.3,0.6-0.1,1.4
	c0,0,0.1,0.6,0.6,1.1C238.1,101.7,238.8,102.4,239,102.8"/>
<path class="st0" d="M253.7,99c0,0,0.1,0.7-1,1.4c0,0-1,1-0.2,1.5c0,0,1.5,0.8,1.8,1.9c0,0,1.7-2.4,0.3-4.4
	C254.6,99.5,253.8,98.4,253.7,99"/>
<path class="st0" d="M226.1,95.4c0,0,0.1,0.3,0,0.9c0,0-0.1,0.7,0.1,1c0,0,0.2,0.7-0.6,0.8c0,0-1.5,0.5-2.1,1.1c0,0-0.5-2.8,1.7-3.9
	C225.2,95.4,226,95.1,226.1,95.4"/>
<path class="st0" d="M250.5,99.8c0,0-2.1,0.1-2.7,0.3c0,0-0.8,0.3-0.8-0.3c0,0,0.4-0.5,1.5-0.5c0,0,1.8-0.2,2.4,0
	C250.9,99.3,251.5,99.7,250.5,99.8 M245.6,99.7h-3.8c0,0-0.1,0,0-0.1c0.2-1,2.1-0.9,2.1-0.9C245,98.7,245.5,99.4,245.6,99.7
	C245.6,99.7,245.6,99.7,245.6,99.7 M236.6,98.7c-0.3,0-0.8-0.2-0.8-0.2c-0.8-0.2-1.8-0.4-1.8-0.4c-0.2-0.1-0.9-0.1-0.9-0.1
	c-0.5-0.3-0.5-0.5-0.5-0.5c1.3-0.3,2.9,0.3,2.9,0.3C236.9,98.3,236.6,98.7,236.6,98.7 M230.2,96.9c-0.6-0.3-1.7-0.6-1.7-0.6
	l-0.6-0.1c-0.5-0.3,0-0.5,0-0.5c2.7,0.3,3.2,1.1,3.2,1.1C231.2,97.4,230.2,96.9,230.2,96.9 M252.7,98.6c0,0-0.4-0.3-0.7-0.6
	c0,0-0.1-0.2-1.2-0.2c0,0-11.7,0.6-21.8-3c0,0-1-0.5-1.8,0.4c0,0-0.9,1.1,0,2.5c0,0,0.3,0.3,0.8,0.5c0,0,1.9,0.8,8.9,2
	c0,0,0.2-2.7,2.5-2.7c0,0,2,0.2,1.8,3.4c0,0,4.2,0.3,9.8,0.1c0,0,0.5,0,0.9-0.6c0,0,0.4-0.8,1.2-1.1
	C252.9,99.3,253.3,98.9,252.7,98.6"/>
<path class="st1" d="M285.9,94.6c0,0,4.7,0.2,3.5,5.4c0,0-1-0.8-3.5-1.3c0,0-5.6,1.4-10.3,2.1c0,0-0.1,0.7-0.7,1.2
	c0,0-1.2,1-1.2,2.3c0,0-0.1-1.3-1.3-1.9c0,0-0.5-0.3-0.7-0.7c0,0-3.6,0.5-10.7,0.2c0,0-0.1,0.5-0.7,0.8c0,0-1.8,0.9-1.9,2
	c0,0-1.6-0.8-1.6-3.7c0,0,0.2-2.4,2.3-2.6c0,0,0.7-1,1.8-1.1c0,0,1.8,0.6,12.2-0.5c0,0,3.5-0.4,10.6-2.4
	C283.9,94.3,284.9,93.7,285.9,94.6"/>
<path class="st0" d="M273.6,102.8c0,0-0.1-0.4-0.9-1c0,0-0.7-0.8-0.8-1.7c0,0-0.2-1.6,1.2-2c0,0,1.3,0,1.7,1.2c0,0,0.3,0.6,0.1,1.4
	c0,0-0.1,0.6-0.6,1.1C274.5,101.7,273.7,102.4,273.6,102.8"/>
<path class="st0" d="M258.9,99c0,0-0.1,0.7,1,1.4c0,0,1,1,0.2,1.5c0,0-1.5,0.8-1.8,1.9c0,0-1.7-2.4-0.3-4.4
	C258,99.5,258.8,98.4,258.9,99"/>
<path class="st0" d="M286.4,95.4c0,0-0.1,0.3,0,0.9c0,0,0.1,0.7-0.1,1c0,0-0.2,0.7,0.6,0.8c0,0,1.5,0.5,2.1,1.1c0,0,0.5-2.8-1.7-3.9
	C287.4,95.4,286.5,95.1,286.4,95.4"/>
<path class="st0" d="M261.6,99.3c0.6-0.2,2.4,0,2.4,0c1.1,0,1.5,0.5,1.5,0.5c0,0.6-0.8,0.3-0.8,0.3c-0.6-0.2-2.7-0.3-2.7-0.3
	C261.1,99.7,261.6,99.3,261.6,99.3 M267,99.6c0.1-0.2,0.6-0.9,1.8-0.9c0,0,1.9,0,2.1,0.9c0,0,0,0.1,0,0.1L267,99.6
	C267,99.7,267,99.7,267,99.6 M277.1,97.8c0,0,1.6-0.6,2.9-0.3c0,0,0,0.2-0.5,0.5c0,0-0.6,0-0.9,0.1c0,0-1,0.2-1.8,0.4
	c0,0-0.5,0.2-0.8,0.2C276,98.7,275.6,98.3,277.1,97.8 M281.4,96.9c0,0,0.6-0.8,3.2-1.1c0,0,0.5,0.2,0,0.5l-0.6,0.1
	c0,0-1.1,0.3-1.7,0.6C282.4,96.9,281.3,97.4,281.4,96.9 M259.6,99.3c0.7,0.3,1.2,1.1,1.2,1.1c0.4,0.7,0.9,0.6,0.9,0.6
	c5.6,0.1,9.8-0.1,9.8-0.1c-0.2-3.1,1.8-3.4,1.8-3.4c2.3,0,2.5,2.7,2.5,2.7c7.1-1.3,8.9-2,8.9-2c0.5-0.1,0.8-0.5,0.8-0.5
	c0.9-1.4,0-2.5,0-2.5c-0.8-0.9-1.8-0.4-1.8-0.4c-10.2,3.5-21.8,3-21.8,3c-1.1,0-1.2,0.2-1.2,0.2c-0.3,0.2-0.7,0.6-0.7,0.6
	C259.3,98.9,259.6,99.3,259.6,99.3"/>
<path class="st1" d="M250.3,7.2c0,0,2.8,4.1-2.3,14.5c0,0-0.9,1.8-4.8,7.6c0,0,2.6,0.3,5.8-1.9l-0.6,3.3c0,0,1.5-0.2,5.1-3.2
	l2.7,2.7l2.4-2.7c0,0,2.2,2.1,5.6,2.5c0,0,0.3-0.8,0-1.9c0,0,2.3,1.4,5,0.9c0,0-1.8-0.9-3.5-5.7c0,0-0.9-2.2-1.3-5.6
	c0,0-0.3-2.8,0-6.5c0,0,0.4-7.4-3.1-9.2c0,0-2.4-1.4-6.7-2c0,0-1.8-0.2-1.9,1.1c0,0-2.5-0.6-4.9-0.6c0,0-3.1-0.3-3.2,3.5
	c0,0,0,1.3,0.6,1.7c0,0,0.3,0.2,1.1-0.4c0,0,0.2-0.4,1.4-0.4C247.5,5,248.9,4.9,250.3,7.2"/>
<path class="st0" d="M256.3,3.6c0,0.4-0.3,0.8-0.8,0.8c-0.4,0-0.8-0.3-0.8-0.8c0-0.4,0.3-0.8,0.8-0.8C255.9,2.8,256.3,3.2,256.3,3.6
	"/>
<path class="st0" d="M262.7,26.8c0-0.1-0.1-0.1-0.1-0.2l0,0c-0.6-1-1.4-2.9-1.7-5.7l-0.8-6.3l0.6-0.1l0.8,6.3c0.3,3.3,1.5,5.3,1.9,6
	c0.5,0.5,1.6,1.3,4.1,1.5c0,0-2.5-3.1-3.6-8.8c0,0-0.4-1.9-0.4-5.3c0,0,0.5-5.5-0.4-8.2c0,0-0.6-2.3-1.9-2.4c0,0-0.7-0.1-1.6,0
	c-0.6,0.1-1.5,0.2-2.1,0.6c0,0-0.5,0.2-0.8,0.6c0,0-0.2,0.2-0.2,0.5c0,0,0.1,0.3-0.6,0.3c0,0-0.6,0.1-0.9-0.3c0,0-0.2-0.9-1.1-0.8
	c0,0-0.4,0.2-1.7-0.9c0,0-1.9-1.8-3.4-1.9c0,0-1.2-0.2-2.3,0.3c0,0-0.9,0.3-1,1.3c0,0-0.2,0.8,0,1.4c0,0,0.1,0.5,0.3,0.1
	c0,0,0.8-1.6,1.5-1.7c0,0,1-0.3,1.9,0.2c0,0,0.5,0,3.4,2.6c0,0,0.4,0.3,1.4,1.7c0,0,0.5,0.5-0.3,0.4c0,0-2.2-0.5-2.1,0.1
	c0,0,1.1,4.5-1.4,10.7c0,0-1,3.8-5.4,9.7c0,0,1.6,0,4.7-1.9l0,0c0,0,1-0.5,2.3-4.1c0,0,1.1-3.1,1.8-8.5l0.6,0.1
	c-0.7,5.5-1.8,8.6-1.8,8.6c-1.1,2.9-1.9,4-2.4,4.3l-0.6,2.6c0,0,2.4-1,4.3-3c0.3-0.5,0.9-1.9,1.3-5l0.8-8.1l0.6,0.1l-0.8,8.1
	c-0.4,3.1-1,4.6-1.4,5.3l0,0l2.1,2.1l1.9-2.1l0.1,0l-0.6-13l0.6,0l0.6,12.8c0.3,0.3,1.6,1.7,4.7,2.5c0,0,0.2-0.5-0.8-2.2
	C262.8,27,262.7,26.9,262.7,26.8"/>
<path class="st1" d="M227.4,105.7c-0.1,0.1-0.3,0-0.4-0.1c0,0,0-0.1,0-0.1c0-0.2,0.2-0.2,0.3-0.3c0.1,0,0.2,0,0.3,0.1
	c0,0,0,0.1,0,0.1C227.6,105.6,227.5,105.7,227.4,105.7 M233.6,108.2c0-0.1,0.1-0.2,0.1-0.3c0.2-0.7,0.4-1.5,0.6-2.2
	c0-0.2,0.1-0.3,0.2-0.5c0.1-0.3-0.1-0.4-0.4-0.3c-0.1,0-0.1,0.1-0.2,0.1c-0.2,0.2-0.5,0.3-0.9,0.4c-0.3,0.1-0.4,0.3-0.2,0.5
	c0.3,0.3,0.2,0.7,0.1,1c-0.1,0.4-0.3,0.5-0.7,0.5c-0.3-0.1-0.7-0.2-1-0.2c-0.1,0-0.1-0.1-0.2-0.1c-0.2-0.1-0.2-0.2-0.2-0.4
	c0.2-0.5,0.2-1,0.4-1.4c0.1-0.3,0.1-0.6,0.2-0.9c0-0.1,0-0.2-0.1-0.3c-0.1-0.1-0.2-0.1-0.3,0c-0.3,0.2-0.6,0.4-1,0.5
	c-0.2,0.1-0.3,0.2-0.1,0.4c0.2,0.2,0.2,0.4,0.2,0.7c0,0.2-0.1,0.3-0.1,0.5c-0.1,0.4-0.2,0.5-0.7,0.5c-0.2,0-0.5,0-0.7-0.2
	c0,0-0.1-0.1-0.1-0.1c-0.1-0.1-0.1-0.2-0.1-0.4c0.1-0.3,0.2-0.5,0.2-0.8c0.2-0.9,0.5-1.7,0.8-2.5c0-0.1,0.1-0.2,0.1-0.2
	c0-0.1,0-0.1,0-0.2c0.1-0.2,0.1-0.4,0.2-0.6c0-0.1,0.1-0.2,0.1-0.3c0,0,0-0.1,0-0.1c0,0,0-0.1,0-0.1c0-0.2-0.1-0.3-0.2-0.3
	c0,0-0.1,0-0.1,0.1c-0.3,0.2-0.6,0.3-0.9,0.4c0,0-0.1,0-0.1,0.1c-0.3,0.1-0.3,0.2-0.1,0.4c0.2,0.3,0.2,0.5,0.1,0.9
	c-0.1,0.5-0.2,1-0.4,1.5c-0.1,0.2-0.2,0.3-0.4,0.3c-0.4,0-0.7,0.2-1.1,0.3c-0.2,0-0.3,0.2-0.4,0.3c-0.2,0.3-0.4,0.6-0.5,1
	c-0.1,0.3,0,0.5,0.2,0.7c0.1,0.1,0.3,0.2,0.5,0.2c0.2,0,0.3,0,0.5,0.1c0.2,0.1,0.4,0.1,0.6,0.2c0.2,0.1,0.4,0.1,0.7,0.2
	c0.7,0.2,1.5,0.4,2.2,0.6c0.9,0.2,1.8,0.4,2.8,0.6C233.3,108.6,233.5,108.5,233.6,108.2"/>
<path class="st1" d="M281.5,108c-0.2,0.1-0.3,0.3-0.5,0.2c-0.2-0.1-0.4-0.3-0.3-0.4c0-0.2,0.3-0.3,0.5-0.3c0.2,0,0.3,0.1,0.4,0.2
	C281.6,107.8,281.6,108,281.5,108 M277.8,109.7c0,0-0.1,0-0.2,0c-0.1,0-0.3,0.1-0.4-0.2c0-0.2,0.2-0.2,0.4-0.3c0.1,0,0.1,0,0.2,0
	c0.2,0,0.4,0.1,0.3,0.3C278.1,109.6,278,109.7,277.8,109.7 M277,108.2c-0.2-0.1-0.4-0.5-0.3-0.7c0-0.1,0.1-0.2,0.3-0.3
	c0.3-0.1,0.8,0.4,0.8,0.7C277.7,108.2,277.3,108.4,277,108.2 M275.5,108.5c-0.4,0-0.4-0.1-0.4-0.4c0-0.3,0.2-0.6,0.4-0.6
	c0.2,0,0.4,0.3,0.4,0.7C275.9,108.5,275.8,108.5,275.5,108.5 M271.8,109.1c-0.2,0-0.3,0-0.3-0.2c0-0.2,0.3-0.5,0.5-0.5
	c0.2,0,0.3,0.2,0.3,0.4C272.3,109,272.1,109.1,271.8,109.1 M286.8,106.4c-0.2-0.1-0.3-0.2-0.4-0.4c-0.2-0.3-0.4-0.3-0.6-0.1
	c-0.2,0.1-0.4,0.3-0.6,0.4c-0.5,0.2-1,0-1.2-0.5c-0.3-0.6-0.4-1.3-0.5-2c-0.1-0.5-0.1-1-0.3-1.4c-0.2-0.5-0.4-0.8-0.9-1.1
	c-0.5-0.2-1.1-0.2-1.6-0.1c-0.3,0-0.7,0.1-1,0.3c-0.3,0.2-0.3,0.3-0.1,0.6c0.1,0.1,0.2,0.3,0.3,0.4c0.2,0.3,0.3,0.3,0.7,0.1
	c0.3-0.2,0.5-0.5,0.9-0.3c0.4,0.2,0.7,0.5,0.8,1c0,0,0,0,0,0c0.2,0.7,0.2,1.5,0.4,2.2c0.1,0.4,0.2,0.7,0.3,1.1
	c0.1,0.3,0.1,0.4-0.2,0.5c-0.3,0.1-0.6,0-0.9-0.3c-0.3-0.3-0.7-0.4-1-0.6c-0.1,0-0.1,0-0.2,0c-0.4,0.3-0.9,0.6-1.1,1.2
	c0,0.1-0.1,0.2-0.2,0.3c-0.4,0.1-0.7,0-0.8-0.3c-0.4-0.8-1-1.3-1.9-1.4c-0.2,0-0.3-0.2-0.4-0.4c-0.1-0.4-0.2-0.8-0.3-1.2
	c-0.1-0.4-0.4-0.4-0.6-0.1c-0.2,0.2-0.3,0.4-0.5,0.6c-0.2,0.3-0.1,0.3,0.1,0.5c0.1,0.1,0.2,0.2,0.3,0.4c0.1,0.2,0.1,0.4-0.1,0.5
	c-0.8,0.5-1.2,1.2-1.2,2.1c0,0.4-0.1,0.5-0.5,0.4c-0.2,0-0.4-0.1-0.4-0.4c-0.1-0.3-0.1-0.6-0.2-0.9c-0.1-0.3-0.3-0.4-0.5-0.3
	c-0.4,0.2-0.8,0.3-1.1,0.7c-0.4,0.4-0.9,0.8-0.7,1.5c0,0.2,0,0.3,0,0.5c0,0.4,0.2,0.5,0.6,0.5c0.3,0,0.6-0.1,0.9-0.1
	c0.3,0,0.4,0.1,0.3,0.4c0,0.1-0.1,0.2-0.2,0.3c-0.2,0.2-0.4,0.3-0.6,0.3c-0.2,0-0.4,0.2-0.6,0.3c-0.1,0-0.1,0.1-0.1,0.2
	c0,0.1,0.1,0.1,0.2,0.1c0.2,0,0.5,0,0.7,0c0.8-0.1,1.5-0.7,1.6-1.5c0-0.2,0.1-0.3,0.2-0.3c0.7-0.2,1.5-0.4,2.2-0.4
	c0.2,0,0.3,0,0.4,0.2c0.2,0.6,0.6,0.9,1.2,1c0.1,0,0.1,0,0.2,0.1c0.2,0.2,0.3,0.1,0.5,0c0.5-0.4,1-0.9,1-1.6c0-0.1,0-0.1,0-0.2
	c0-0.1,0-0.1,0.1-0.1c0.3-0.2,0.7-0.1,0.9,0.2c0.1,0.2,0.2,0.2,0.4,0.2c0.2,0,0.3,0,0.5,0c0.7,0.1,1.2-0.3,1.5-0.9
	c0.1-0.1,0.1-0.2,0.3-0.3c0.6-0.2,1.2-0.4,1.8-0.5c0.7-0.2,1.5-0.4,2.2-0.6c0.1,0,0.3-0.1,0.3-0.2
	C287,106.6,286.9,106.5,286.8,106.4"/>
<path class="st1" d="M259,109.9c-0.1,0.2-0.3,0.2-0.4,0.2c-0.2,0-0.3,0-0.4-0.2c0-0.2,0.1-0.3,0.2-0.4c0,0,0,0,0.1-0.1
	c0.1-0.1,0.2-0.2,0.4-0.1C258.9,109.5,259,109.8,259,109.9 M255.4,111.1c0,0.3-0.1,0.4-0.3,0.4c-0.2,0-0.4-0.2-0.4-0.4
	c0-0.2,0-0.3,0-0.5c0-0.2-0.1-0.3-0.3-0.4c-0.3,0-0.6-0.1-0.9-0.1c-0.6,0-1.2,0-1.8-0.1c-0.2,0-0.4-0.1-0.6-0.1
	c-0.1,0-0.2-0.1-0.3-0.3c0-0.2,0.1-0.2,0.2-0.3c0.2-0.1,0.4-0.1,0.7-0.1c0.8,0,1.6,0.1,2.4,0.1c0.3,0,0.6,0,0.8,0.1
	c0.4,0,0.4,0.1,0.5,0.5c0,0.2,0,0.4,0,0.6C255.4,110.7,255.4,110.9,255.4,111.1 M259.2,108c-0.2,0.1-0.5,0.2-0.7,0.3
	c-0.7,0.2-1.2,0.6-1.4,1.4c0,0.2-0.1,0.3-0.4,0.3c-0.2,0-0.3-0.1-0.3-0.3c0-0.2,0-0.5,0-0.7c0-0.5-0.1-0.6-0.6-0.6
	c-1.2,0-2.4-0.2-3.6-0.2c-0.2,0-0.3,0-0.5,0c-0.6-0.1-0.8-0.2-0.9-0.9c0,0,0-0.1,0-0.1c0-0.2-0.1-0.3-0.4-0.4
	c-0.3,0-0.8,0.3-0.9,0.6c-0.1,0.1-0.1,0.3,0,0.4c0.3,0.5,0.2,1.1,0.1,1.6c0,0.1,0,0.2-0.1,0.3c-0.3,0.1-0.7,0-0.8-0.3
	c-0.1-0.2-0.1-0.4-0.2-0.5c-0.1-0.4-0.3-0.7-0.5-1c-0.1-0.2-0.3-0.2-0.4-0.1c-0.2,0.3-0.4,0.5-0.7,0.8c-0.1,0.1-0.1,0.3,0,0.4
	c0.3,0.3,0.5,0.7,0.6,1.1c0.2,0.6,0,1.1-0.4,1.5c-0.4,0.4-0.8,0.6-1.3,0.5c-0.2,0-0.4,0-0.6,0.1c-0.1,0-0.1,0.1-0.1,0.2
	c0,0.1,0.1,0.1,0.2,0.1c0.1,0,0.3,0.1,0.4,0.1c0.8,0.1,1.6,0.1,2.2-0.5c0.2-0.2,0.4-0.5,0.5-0.7c0.1-0.3,0.4-0.5,0.7-0.4
	c0.3,0,0.7,0,1,0.1c1,0.1,2,0.1,3,0.3c0.2,0,0.4,0.1,0.4,0.4c0,0.1,0,0.1,0,0.2c0.1,0.5,0.6,0.8,1,1c0.3,0.1,0.5-0.1,0.7-0.2
	c0.1,0,0.1,0,0.2-0.1c0.4-0.2,0.7-0.5,0.7-1c0-0.2,0.1-0.3,0.3-0.3c0.1,0,0.2,0,0.3,0c0.8,0,1.6,0,2.4,0c0.4,0,0.5-0.2,0.6-0.6
	c0-0.1,0-0.2,0-0.3c0-0.6-0.2-1.3-0.2-1.9C259.8,108,259.6,107.8,259.2,108"/>
<path class="st1" d="M240.3,107.3c-0.4,0.1-0.8,0-1.2-0.4c0.2-0.2,0.4-0.4,0.6-0.6c0.2-0.2,0.4-0.2,0.4,0.2c0,0.2,0.1,0.4,0.2,0.5
	C240.6,107.1,240.5,107.2,240.3,107.3 M244.2,103.6c-0.3,0.2-0.7,0.4-1,0.5c-0.2,0.1-0.2,0.3-0.1,0.4c0.3,0.2,0.3,0.5,0.3,0.8
	c0,0.2,0,0.4,0,0.6c-0.1,0.3-0.1,0.6-0.1,0.9c0,0.2,0,0.3-0.1,0.5c-0.1,0.7-0.2,1.4-0.3,2.1c0,0.3,0,0.6-0.1,0.9
	c-0.1,0.1-0.1,0.3-0.3,0.3c-0.2,0-0.4-0.2-0.4-0.4c0-0.2,0-0.4,0-0.7c0-0.2-0.1-0.4-0.3-0.4c-0.2,0-0.4-0.1-0.6-0.2
	c-0.2-0.1-0.3-0.2-0.3-0.5c0-0.2,0.1-0.3,0.3-0.3c0.2,0,0.4,0,0.7-0.1c0.5,0,0.6-0.2,0.4-0.6c0-0.1-0.1-0.2-0.2-0.4
	c-0.2-0.3-0.4-0.5-0.7-0.7c-0.1-0.1-0.3-0.3-0.2-0.4c0-0.4-0.2-0.7-0.4-0.9c-0.2-0.3-0.4-0.4-0.8-0.2c-0.4,0.2-0.6,0.4-0.8,0.8
	c-0.1,0.2-0.3,0.3-0.5,0.4c-0.2,0-0.3,0.1-0.5,0.1c-0.3,0.1-0.5,0.3-0.6,0.5c-0.3,0.4-0.2,0.6,0.3,0.7c0.3,0.1,0.5,0.2,0.7,0.3
	c0.2,0.2,0.2,0.2,0.1,0.4c-0.3,0.3-0.6,0.5-1,0.4c-0.2-0.1-0.4-0.1-0.6-0.1c-0.3,0-0.5-0.2-0.5-0.5c-0.1-0.3-0.1-0.7-0.2-1
	c0-0.3-0.1-0.5-0.3-0.8c-0.1-0.2-0.4-0.3-0.5-0.1c-0.1,0.3-0.3,0.5-0.5,0.7c-0.1,0.2-0.1,0.4,0,0.5c0.2,0.4,0.3,0.7,0.2,1.2
	c-0.1,0.6-0.4,1.1-1,1.3c0,0-0.1,0-0.1,0c-0.2,0.1-0.4,0.1-0.6,0.1c-0.2,0-0.4,0-0.4,0.2c0,0.2,0.2,0.2,0.3,0.3
	c0.2,0,0.4,0.1,0.6,0.1c0.8,0.1,1.4-0.1,1.8-0.8c0.1-0.2,0.3-0.3,0.5-0.3c0.5,0,1,0,1.5,0.1c0.4,0.1,0.9,0.2,1.1-0.4
	c0.1-0.2,0.3-0.2,0.5-0.2c0.2,0,0.2,0.2,0.2,0.4c0,0,0,0.1,0,0.1c0.1,0.3,0.2,0.4,0.5,0.5c0.2,0,0.3,0,0.5,0.1
	c0.2,0.1,0.3,0.1,0.2,0.4c-0.1,0.6,0.4,1.4,1,1.5c0.5,0.1,1.3-0.3,1.4-0.8c0.1-0.3,0.2-0.5,0.2-0.8c0.2-1.1,0.3-2.3,0.5-3.4
	c0.1-0.5,0-1,0.2-1.5c0.1-0.4,0.1-0.8,0.2-1.2c0-0.1,0-0.2,0-0.4C244.5,103.6,244.4,103.5,244.2,103.6"/>
<path class="st1" d="M262.7,110.1c-0.1,0-0.2-0.1-0.2-0.2c0-0.2,0.2-0.4,0.4-0.4c0.2,0,0.2,0.1,0.2,0.3
	C263.2,110,263,110.1,262.7,110.1 M266.9,108.9c-0.1-0.4-0.1-0.7-0.1-1.1c0-0.2,0-0.3-0.1-0.5c-0.1-0.2-0.3-0.3-0.5-0.2
	c-0.3,0.1-0.5,0.3-0.7,0.5c-0.2,0.2-0.2,0.4,0.1,0.5c0.2,0.1,0.3,0.3,0.3,0.5c0,0.3,0,0.5,0,0.8c0,0.2-0.1,0.3-0.3,0.3
	c-0.2,0-0.5,0.1-0.7,0.2c-0.2,0-0.5-0.1-0.6-0.3c-0.1-0.1-0.1-0.3-0.1-0.4c0-0.7-0.1-1.5-0.2-2.2c-0.1-0.8-0.2-1.6-0.2-2.4
	c0-0.2-0.1-0.3-0.2-0.4c-0.2-0.1-0.3,0-0.4,0.1c-0.2,0.2-0.4,0.4-0.6,0.6c-0.2,0.3-0.3,0.3,0,0.5c0.2,0.2,0.3,0.4,0.3,0.6
	c0,0.2,0,0.4,0,0.6c0,0.3,0.2,0.7,0.1,1c0,0.4,0,0.4-0.4,0.6c-0.7,0.3-1.1,0.7-1.2,1.5c0,0.2,0,0.4-0.1,0.6c0,0,0,0,0,0
	c0,0.1,0,0.1,0,0.2c0,0.5,0.1,0.6,0.5,0.6c0.4,0,0.9-0.1,1.3-0.2c1.1-0.1,2.2-0.1,3.3-0.3c0.3,0,0.6-0.3,0.5-0.5
	C266.9,109.8,267,109.3,266.9,108.9"/>
<path class="st1" d="M245.7,110.2c0.1-0.4,0.1-0.8,0.2-1.2c0.1-1,0.2-2.1,0.3-3.1c0.1-0.3,0.1-0.6,0.4-0.8c0.2-0.1,0.2-0.2,0-0.4
	c-0.3-0.3-0.6-0.5-0.8-0.9c-0.1-0.2-0.3-0.2-0.4,0.1c0,0.1,0,0.2-0.1,0.3c-0.1,0.6-0.1,1.3-0.2,1.9c-0.1,0.8-0.2,1.5-0.3,2.3
	c-0.1,0.5-0.2,1-0.2,1.5c0,0.2,0,0.3,0,0.4c0.1,0.2,0.4,0.3,0.6,0.3C245.6,110.6,245.6,110.4,245.7,110.2"/>
<path class="st1" d="M268.8,107.5c0-0.1-0.1-0.1-0.1-0.2c-0.2-0.2-0.3-0.2-0.5,0.1c-0.2,0.3-0.3,0.7-0.5,1c-0.1,0.2,0,0.3,0.1,0.5
	c0.1,0.1,0.3,0.1,0.4,0.2c0.4,0.3,0.7,1.2,0.4,1.7c-0.3,0.5-0.6,0.9-1.1,1.1c-0.1,0-0.2,0.1-0.3,0.1c-0.1,0-0.2,0.1-0.1,0.2
	c0,0.1,0.1,0.1,0.2,0.1c0.2,0,0.3,0,0.5,0c0.5,0.1,0.8-0.2,1.2-0.4c0.4-0.2,0.7-0.5,0.8-0.9c0.2-0.7,0-1.3-0.2-2
	C269.4,108.4,269,108,268.8,107.5"/>
<path class="st1" d="M284.7,108.1c-0.3,0-0.6,0.3-0.6,0.6c0,0.3,0.2,0.6,0.6,0.6s0.6-0.3,0.6-0.6C285.3,108.4,285,108.1,284.7,108.1
	"/>
<path class="st1" d="M261.4,106.1c0.3,0,0.6-0.3,0.6-0.6s-0.2-0.6-0.6-0.6c-0.3,0-0.6,0.3-0.6,0.6S261.1,106.1,261.4,106.1"/>
<path class="st1" d="M262,107c0-0.3-0.2-0.6-0.6-0.6s-0.6,0.3-0.6,0.6s0.2,0.6,0.6,0.6S262,107.4,262,107"/>
<path class="st1" d="M264.8,111.5c-0.3,0-0.6,0.3-0.6,0.6s0.2,0.6,0.6,0.6s0.6-0.3,0.6-0.6S265.1,111.5,264.8,111.5"/>
<path class="st1" d="M263.3,111.5c-0.3,0-0.6,0.3-0.6,0.6c0,0.3,0.2,0.6,0.6,0.6c0.3,0,0.6-0.3,0.6-0.6
	C263.8,111.8,263.6,111.5,263.3,111.5"/>
<path class="st1" d="M227.2,102c0.3,0.1,0.6,0,0.7-0.3c0.1-0.3,0-0.6-0.3-0.7c-0.3-0.1-0.6,0-0.7,0.3
	C226.7,101.6,226.9,101.9,227.2,102"/>
<path class="st1" d="M226.7,103.5c0.3,0.1,0.6,0,0.7-0.3c0.1-0.3,0-0.6-0.3-0.7c-0.3-0.1-0.6,0-0.7,0.3
	C226.3,103,226.4,103.3,226.7,103.5"/>
<path class="st1" d="M227.3,107.6c-0.3-0.1-0.6,0-0.7,0.3c-0.1,0.3,0,0.6,0.3,0.7c0.3,0.1,0.6,0,0.7-0.3
	C227.8,108,227.6,107.7,227.3,107.6"/>
<path class="st1" d="M229,108c-0.3-0.1-0.6,0-0.7,0.3c-0.1,0.3,0,0.6,0.3,0.7c0.3,0.1,0.6,0,0.7-0.3
	C229.4,108.4,229.2,108.1,229,108"/>
<path class="st1" d="M231.6,108.8c-0.3-0.1-0.6,0-0.7,0.3c-0.1,0.3,0,0.6,0.3,0.7c0.3,0.1,0.6,0,0.7-0.3
	C232,109.2,231.9,108.9,231.6,108.8"/>
<path d="M4.2,19.2l1.4,0.7c0.2-0.1,0.4-0.3,0.6-0.5c0.2-0.2,0.3-0.4,0.5-0.6L5.2,18c-0.2,0.2-0.5,0.4-0.9,0.7
	c-0.1,0-0.4-0.1-0.6-0.3c-0.2-0.1-0.4-0.3-0.6-0.4c-0.3,0.3-0.7,0.7-1,1.1c0.5,0.4,0.9,0.6,1.4,0.8"/>
<path d="M49.5,27.5c-0.2,0.2-0.3,0.3-0.4,0.3c-0.2,0-0.6-0.2-1.1-0.7c-0.5,0.5-0.8,0.9-0.9,1.1c0.3,0.3,0.8,0.5,1.3,0.8
	c0.3-0.3,0.5-0.6,0.7-0.7l1.3,0.7c0.2-0.1,0.5-0.5,1-1.1l-1.3-0.8C49.8,27.1,49.7,27.2,49.5,27.5"/>
<path d="M4.8,23.6c0-0.1,0.1-0.2,0.3-0.3c0.1-0.1,0.3-0.1,0.4-0.2c0.1-0.1,0.2-0.2,0.4-0.3c0.1-0.2,0.2-0.3,0.3-0.4l0.3,1.5
	L4.8,23.6z M56,23.8c0-0.4-0.1-0.9-0.4-1.5c-0.3-0.7-0.6-1.1-0.9-1.3l-0.9,1.7c0.6,0.6,0.9,1.2,1,1.9h-3.6c-0.5-0.1-0.7-0.3-0.7-0.7
	l0.2-1.3v-0.8c-0.3,0.3-0.6,0.6-0.9,0.9c-0.3,0.3-0.4,0.7-0.4,1.2c0,0.4,0,0.6-0.1,0.7H8.8c-0.3,0-0.6-0.2-0.8-0.3
	c-0.2-0.6-0.3-1.4-0.5-2.5c-0.2-1.1-0.4-1.9-0.5-2.5l-1,1.7C6,21.2,6,21.4,6,21.4c-0.6,0.3-1.2,0.7-1.7,1c-0.5,0.3-0.8,0.6-1,1
	c-0.2,0.4-0.4,1.1-0.6,2c0.3,0,0.8,0.1,1.5,0.3C4.8,25.9,5.3,26,5.6,26c0.2,0,0.4-0.2,0.6-0.6c0.2-0.5,0.4-0.7,0.5-0.8
	C6.9,25,7,25.4,7.1,25.7c0.2,0.4,0.5,0.6,0.9,0.6h41l0.6-1c0.2,0.7,0.5,1,1,1h4.9C55.8,25.3,56,24.4,56,23.8"/>
<path d="M54,27.6c-0.4-0.4-0.6-0.6-0.7-0.6c-0.1,0-0.3,0.2-0.7,0.5c-0.4,0.4-0.6,0.6-0.6,0.6c0,0.1,0.2,0.2,0.6,0.5
	c0.4,0.3,0.6,0.5,0.7,0.5c0.1,0,0.3-0.1,0.7-0.4c0.4-0.3,0.6-0.5,0.6-0.6C54.6,28.1,54.4,27.9,54,27.6"/>
<path d="M69.7,18.5v-0.1c-0.2,0.1-0.4,0.4-0.7,0.9c-0.3,0.4-0.4,0.8-0.6,1.1c0.2,0.2,0.4,0.4,0.5,0.5c0.1,0.6,0.2,1.2,0.3,1.8
	c0.1,0.7,0.2,1.3,0.2,1.8c0,0,0,0.1-0.1,0.3H67c0.1-0.2,0.2-0.4,0.4-0.6c0.1-0.2,0.2-0.4,0.2-0.6c0-0.5-0.2-0.9-0.7-1.2
	c-0.4-0.3-0.9-0.5-1.4-0.5c-0.7,0-1.3,0.2-1.7,0.6c-0.2,0.2-0.5,0.8-0.9,1.6c0.2,0,0.4-0.1,0.6-0.1c0.5,0,1,0.2,1.3,0.7h-1.9v0h-0.5
	c-0.5,0-1-0.2-1.4-0.7c-0.1-0.1-0.4-0.6-0.9-1.4c-0.4,0.6-0.7,1.1-1,1.5c0.7,0.7,1,1.2,1,1.5c0,0.2-0.1,0.4-0.4,0.7
	c-0.4,0.3-0.7,0.6-0.8,0.7c-0.5,0.4-1,0.7-1.3,0.8c-0.5,0.2-0.8,0.2-1.1,0.2c-0.4,0-0.7-0.1-1.1-0.3c-0.4-0.2-0.6-0.3-0.6-0.3
	c0,0.3,0.6,0.6,1.6,1c1,0.4,1.6,0.6,2,0.6c0.5,0,1.1-0.4,1.7-1.1c0.5-0.6,0.8-1.2,1.1-1.8c0.1,0.1,0.4,0.2,0.8,0.2h3
	c0.2-0.3,0.4-0.6,0.5-0.8l0.5,0.8h3.9c0.2,0,0.4-0.3,0.6-1c0.1-0.6,0.2-1,0.2-1.2L70.5,22l0-0.2c0.1-0.2,0.3-0.4,0.6-0.8
	c0.3-0.3,0.5-0.6,0.6-0.8c-0.8-0.4-1.2-0.6-1.3-0.7C70,19.2,69.7,18.8,69.7,18.5"/>
<path d="M74.3,21.5c-0.2-1.8-0.3-2.8-0.4-2.8c-0.1,0.2-0.4,0.5-0.7,1.1c-0.3,0.6-0.5,1-0.5,1.1l0.7,5.5c0.6-0.8,1-1.8,1-2.9
	C74.4,22.9,74.3,22.2,74.3,21.5"/>
<path d="M122.1,23.5c0.3-0.2,0.5-0.3,0.7-0.3c0.1,0,0.2,0.1,0.3,0.3c0,0,0.1,0.2,0.1,0.5L122.1,23.5z M114,24.5
	c0.7-0.4,1.1-0.6,1.2-0.6c0.5-0.2,0.9-0.4,1.3-0.4c0.7,0,1.3,0.3,1.7,1H114z M124.2,22.1c-0.1-0.2-0.1-0.3-0.1-0.3
	c-0.1-0.1-0.2-0.1-0.3-0.1c-0.6,0-1.2,0.3-1.8,0.8c-0.6,0.5-1,1.1-1.2,1.7c-0.1,0.2-0.1,0.3-0.2,0.3h-0.1v0h-1
	c0.1-0.3,0.2-0.5,0.2-0.6c0-0.4-0.2-0.9-0.6-1.3c-0.4-0.4-0.8-0.6-1.2-0.6c-0.4,0-0.9,0.1-1.6,0.4c-0.6,0.2-1.1,0.5-1.5,0.7
	l-1.4,0.8c-0.5,0.3-0.8,0.4-1,0.4c-0.4,0-0.6-0.2-0.6-0.5c0-0.1,0-0.1,0-0.1l0.1-0.5c0.1-0.3,0.1-0.5,0.1-0.6c0-0.2,0-0.3-0.1-0.5
	c-0.7,0.7-1,1-1.1,1.2v0.2c0,0.6-0.1,0.9-0.3,0.9h-1.1v0H82v0h-0.5c-0.5,0-1-0.2-1.4-0.7c-0.1-0.1-0.4-0.6-0.9-1.4
	c-0.4,0.6-0.7,1.1-1,1.5c0.7,0.7,1,1.2,1,1.5c0,0.2-0.1,0.4-0.4,0.7c-0.4,0.3-0.7,0.6-0.8,0.7c-0.5,0.4-1,0.7-1.3,0.8
	c-0.5,0.2-0.8,0.2-1.1,0.2c-0.4,0-0.7-0.1-1.1-0.3c-0.4-0.2-0.6-0.3-0.6-0.3c0,0.3,0.6,0.6,1.6,1c1,0.4,1.6,0.6,2,0.6
	c0.5,0,1.1-0.4,1.7-1.1c0.5-0.6,0.8-1.2,1.1-1.8c0.1,0.1,0.4,0.2,0.8,0.2H110c0-0.1,0.1-0.2,0.2-0.3l0.3-0.5l0.4,0.6
	c0.2,0.2,0.3,0.3,0.5,0.3h9.1v0c0.1-0.1,0.2-0.2,0.3-0.4c0.1-0.2,0.2-0.4,0.3-0.6c0.1-0.1,0.1-0.1,0.2-0.1l2.6,1
	c0.2-0.1,0.4-0.4,0.6-0.8c0.2-0.4,0.4-0.7,0.4-0.9c0-0.2-0.1-0.6-0.2-1.1C124.5,22.9,124.3,22.5,124.2,22.1"/>
<path d="M129.8,19.2l1.4,0.7c0.2-0.1,0.4-0.3,0.6-0.5c0.2-0.2,0.3-0.4,0.5-0.6l-1.5-0.8c-0.2,0.2-0.5,0.4-0.9,0.7
	c-0.1,0-0.4-0.1-0.6-0.3c-0.2-0.1-0.4-0.3-0.6-0.4c-0.3,0.3-0.7,0.7-1,1.1c0.5,0.4,0.9,0.6,1.4,0.8"/>
<path d="M136.9,27.8c-0.2,0.2-0.3,0.3-0.4,0.3c-0.2,0-0.5-0.2-0.9-0.6c-0.4,0.4-0.7,0.7-0.8,0.9c0.1,0.1,0.3,0.2,0.5,0.4
	c0.2,0.2,0.4,0.3,0.5,0.3l0.7-0.7l1.2,0.7c0.2-0.1,0.3-0.3,0.5-0.5c0.1-0.2,0.3-0.4,0.4-0.6l-1.3-0.8
	C137.2,27.6,137.1,27.7,136.9,27.8"/>
<path d="M130.5,23.6c0.1-0.1,0.1-0.2,0.3-0.3c0.1-0.1,0.3-0.1,0.4-0.2c0.1-0.1,0.2-0.2,0.4-0.3c0.1-0.2,0.2-0.3,0.3-0.4l0.3,1.5
	L130.5,23.6z M139.1,26.3c0.2-1.1,0.3-1.9,0.3-2.4c0-0.8-0.4-1.7-1.2-2.8l-0.9,1.6c0.3,0.4,0.7,1,1,1.8h-3.8c-0.3,0-0.6-0.2-0.8-0.3
	c-0.2-0.6-0.3-1.4-0.5-2.5c-0.2-1.1-0.4-1.9-0.5-2.5l-1,1.7c0.1,0.3,0.1,0.5,0.1,0.5c-0.6,0.3-1.2,0.7-1.7,1c-0.5,0.3-0.8,0.6-1,1
	c-0.2,0.4-0.4,1.1-0.6,2c0.3,0,0.8,0.1,1.5,0.3c0.7,0.2,1.2,0.2,1.5,0.2c0.2,0,0.4-0.2,0.6-0.6c0.2-0.5,0.4-0.7,0.5-0.8
	c0.1,0.4,0.2,0.7,0.3,1.1c0.2,0.4,0.5,0.6,0.9,0.6h1.6"/>
<path d="M143.5,23.1c-0.5-0.7-0.9-1-1.1-1.1c-0.3,0.6-0.5,1.2-0.7,1.7l0.9,0.8c0.3,0.3,0.6,0.6,0.7,0.8c-0.8,1.2-1.6,1.9-2.4,2.1
	c-0.7,0.2-1.3,0.3-1.8,0.3c-0.4,0-0.8-0.1-1.3-0.2c0.2,0.1,0.4,0.2,0.5,0.3c1.4,0.6,2.5,1,3.4,1c0.2,0,0.5-0.2,0.9-0.6
	c1-0.9,1.6-2.2,1.6-3.8C144.3,24.2,144,23.8,143.5,23.1"/>
<path d="M193.3,27.1c-0.4,0.4-0.6,0.6-0.6,0.8c0.2,0.1,0.5,0.3,0.9,0.6c0.5,0.3,0.8,0.4,0.9,0.4c0.1,0,0.3-0.2,0.7-0.6
	c0.3-0.4,0.6-0.7,0.6-0.8l-1.7-0.9C193.9,26.5,193.6,26.7,193.3,27.1"/>
<path d="M187.5,24.5c-0.4-0.2-0.7-0.4-1.1-0.6c0.3-0.1,0.5-0.2,0.7-0.2c0.3,0,0.4,0.2,0.4,0.7C187.6,24.4,187.5,24.5,187.5,24.5
	 M181.8,23.5c-0.1,0.1-0.3,0.2-0.7,0.4c-0.4,0.2-0.7,0.3-0.8,0.3h-0.1c0.6-0.9,1.2-1.5,1.7-1.8c0,0.2,0.1,0.3,0.1,0.4
	C181.9,23.2,181.9,23.4,181.8,23.5 M181.5,27c-0.6,0-1.1-0.3-1.4-1h0.3c0.1,0,0.3,0.1,0.6,0.2c0.3,0.1,0.5,0.2,0.6,0.2
	c0.2,0.2,0.4,0.3,0.4,0.6H181.5z M148,24.5c-0.3,0-0.5-0.1-0.8-0.2c-0.3-0.1-0.4-0.3-0.4-0.6c0.2-0.4,0.4-0.6,0.7-0.6
	c0.4,0,0.7,0.4,0.9,1.2C148.3,24.5,148.2,24.5,148,24.5 M195.5,22.7c-1.4-0.7-2.3-1-2.7-1c-0.8,0-1.5,0.7-2.2,2.1
	c0.3-0.2,0.5-0.3,0.6-0.3c0.2-0.1,0.4-0.1,0.6-0.1c0.4,0,0.7,0.1,1.1,0.3l1,0.5c-0.4,0.2-1,0.2-1.7,0.3l-0.5,0c-0.4,0-0.8,0-1.2,0
	h-0.8c-0.1,0-0.4-0.2-0.7-0.7c-0.2-0.3-0.3-0.5-0.4-0.7c-0.1-0.2-0.1-0.4-0.1-0.8c-0.1-0.1-0.2-0.2-0.5-0.2c-0.6,0-1.2,0.2-1.7,0.7
	c-0.5,0.4-0.9,0.9-1.1,1.5l-0.2,0.1h-3c0.2-0.4,0.4-0.9,0.6-1.3c0.2-0.5,0.3-1,0.3-1.4V21c-1.1-0.1-2.2,1.1-3.5,3.5h-29v0h-0.7
	c-0.1-0.6-0.2-1.2-0.5-1.7c-0.3-0.8-0.7-1.2-1.2-1.2c-0.4,0-0.7,0.2-1.1,0.7c-0.2,0.3-0.5,0.8-0.7,1.3c-0.3,0.6-0.4,1.1-0.4,1.4
	c0,0.8,0.8,1.3,2.3,1.3c-0.3,0.3-0.6,0.5-1,0.8c-1,0.6-1.9,1-2.7,1c-0.5,0-0.9,0.1-1.2,0.1c0.2,0.2,0.8,0.4,1.7,0.5
	c0.8,0.1,1.4,0.2,1.9,0.2c1,0,1.7-0.9,2.3-2.6h29.5c0.1,0.7,0.3,1.2,0.6,1.6c0.4,0.5,0.9,0.7,1.5,0.7c0.5,0,1-0.3,1.4-0.8
	c0.3-0.3,0.5-0.9,0.7-1.6h1.2c0.3,0,0.4-0.1,0.5-0.2c0,0,0.1-0.2,0.2-0.4c0.1-0.2,0.1-0.3,0.2-0.3l3.1,1.8c0.1,0,0.2-0.1,0.3-0.3
	c0.1-0.2,0.2-0.4,0.2-0.4h3.5c0.2,0,0.6-0.2,1.3-0.5c0.7-0.4,1.2-0.5,1.5-0.5l2.5,0.2l0.1,0c0.4-0.5,0.8-1.1,1.1-1.5
	C198,23.8,197,23.4,195.5,22.7"/>
<path d="M198,84.3H2.6c-0.5,0-0.8,0.4-0.8,0.8S2.2,86,2.6,86H198c0.5,0,0.8-0.4,0.8-0.8S198.4,84.3,198,84.3"/>
<path d="M9.1,102v-0.6c1.2-0.1,1.3-0.3,1.3-1.8l0-6.1h-0.1l-3.7,8.4H6.2l-3.4-8.2H2.7l-0.2,4.2c-0.1,1.3,0,2.1,0,2.6
	c0.1,0.7,0.4,0.8,1.5,0.9v0.6H0v-0.6c0.9-0.1,1.3-0.4,1.4-0.9c0.1-0.5,0.2-1.3,0.4-3.1L2,94.3c0.1-1.8,0-2.1-1.4-2.2v-0.6H4l3.2,7.1
	l3.3-7.1h3.3v0.6c-1.3,0.1-1.4,0.3-1.4,1.6l0.2,5.9c0,1.5,0.1,1.6,1.4,1.8v0.6"/>
<path d="M16.2,92.5c0-0.7,0.5-1.1,1.2-1.1c0.7,0,1.2,0.5,1.2,1.1c0,0.6-0.5,1.1-1.2,1.1C16.7,93.6,16.2,93.1,16.2,92.5 M15.4,102
	v-0.5c1-0.1,1.1-0.2,1.1-1.3V97c0-1.1-0.1-1.1-0.9-1.3v-0.5c1-0.1,2.1-0.3,3-0.6v5.4c0,1.1,0.1,1.2,1.1,1.3v0.5"/>
<path d="M25.5,102v-0.5c0.7-0.1,0.8-0.2,0.8-1.3v-2.7c0-1.2-0.6-1.5-1.2-1.5c-0.4,0-0.8,0.2-1.2,0.5v3.8c0,1,0.1,1.1,0.8,1.2v0.5
	h-3.9v-0.5c1-0.2,1.1-0.2,1.1-1.3v-3.3c0-1-0.1-1-0.9-1.2v-0.5c0.9-0.1,2-0.4,3-0.6v1.2c0.3-0.2,0.7-0.5,1-0.7
	c0.5-0.3,0.8-0.4,1.3-0.4c1.3,0,2.2,0.9,2.2,2.6v3c0,1,0.1,1,1,1.2v0.5"/>
<path d="M31.3,92.5c0-0.7,0.5-1.1,1.2-1.1c0.7,0,1.2,0.5,1.2,1.1c0,0.6-0.5,1.1-1.2,1.1C31.8,93.6,31.3,93.1,31.3,92.5 M30.5,102
	v-0.5c1-0.1,1.1-0.2,1.1-1.3V97c0-1.1-0.1-1.1-0.9-1.3v-0.5c1-0.1,2.1-0.3,3-0.6v5.4c0,1.1,0.1,1.2,1.1,1.3v0.5"/>
<path d="M40.3,97c-0.4-0.9-1-1.6-1.7-1.6c-0.4,0-0.8,0.3-0.8,0.8c0,0.5,0.4,0.9,1.2,1.2c1.3,0.6,2.2,1.1,2.2,2.4
	c0,1.6-1.6,2.4-3,2.4c-0.8,0-1.7-0.3-2-0.5c-0.1-0.3-0.2-1.4-0.3-2.2l0.5,0c0.4,1,1.1,2.1,2.1,2.1c0.5,0,0.9-0.4,0.9-0.8
	c0-0.5-0.2-0.8-1.2-1.3c-0.7-0.4-2.1-1-2.1-2.4c0-1.3,1-2.3,2.7-2.3c0.8,0,1.2,0.1,1.6,0.3c0.2,0.4,0.4,1.5,0.4,1.9"/>
<path d="M46,102c-0.3,0.1-0.6,0.2-0.6,0.2c-1.3,0-2-0.6-2-2v-4.5h-1l-0.1-0.2l0.5-0.6h0.7v-1.2l1.9-1.3l0.2,0.1v2.4H47
	c0.2,0.2,0.2,0.6-0.1,0.8h-1.5v3.9c0,1.3,0.6,1.4,0.9,1.4c0.3,0,0.5-0.1,0.8-0.2l0.1,0.6"/>
<path d="M51.5,96.4c0.6-1,1.3-1.7,1.9-1.7c0.7,0,1.1,0.4,1.1,1c0,0.6-0.4,1-0.8,1.2c-0.2,0.1-0.4,0-0.5-0.1
	c-0.3-0.2-0.5-0.3-0.8-0.3c-0.3,0-0.7,0.2-0.9,0.9v2.9c0,1,0.1,1.1,1.4,1.2v0.5h-4.5v-0.5c0.9-0.1,1.1-0.2,1.1-1.2v-3.5
	c0-0.8-0.1-0.9-0.9-1v-0.5c0.9-0.1,1.9-0.3,3-0.6L51.5,96.4"/>
<g>
	<defs>
		<rect id="SVGID_1_" x="55.3" y="94.9" width="8.3" height="11.1"/>
	</defs>
	<clipPath id="SVGID_00000167397814790881856700000006585984226079308696_">
		<use xlink:href="#SVGID_1_"  style="overflow:visible;"/>
	</clipPath>
	<g style="clip-path:url(#SVGID_00000167397814790881856700000006585984226079308696_);">
		<path d="M63.5,95.4c-0.8,0.1-0.9,0.3-1.4,1.2c-0.4,0.8-1,2.2-1.9,4.4c-1.1,2.6-1.5,3.6-1.8,4.5c-0.1,0.4-0.3,0.4-0.6,0.4
			c-0.5,0-1.2-0.5-1.2-1c0-0.3,0.1-0.4,0.5-0.6c0.7-0.4,1.1-0.7,1.4-1.2c0.2-0.3,0.2-0.4,0.3-0.6c0.1-0.3,0-0.5-0.1-0.8
			c-0.8-2.3-1.8-4.6-2.1-5.3c-0.3-0.7-0.5-0.8-1.3-1v-0.5h4.1v0.5c-0.7,0.2-0.8,0.2-0.7,0.7l1.3,3.6c0.4-0.8,0.9-2.5,1.2-3.4
			c0.2-0.5,0-0.7-0.8-0.9v-0.5h3"/>
	</g>
</g>
<path d="M72.6,95.3c-0.7,0-1.4,0.8-1.4,2.7c0,2,0.7,3.5,1.7,3.5c0.6,0,1.3-0.4,1.3-2.7C74.3,96.5,73.7,95.3,72.6,95.3L72.6,95.3z
	 M72.9,94.7c2.3,0,3.8,1.7,3.8,3.6c0,2.6-1.9,3.9-3.8,3.9c-2.6,0-3.9-1.8-3.9-3.6C68.9,96,71,94.7,72.9,94.7"/>
<path d="M78.9,94.9v-0.4c0-0.4,0.1-0.7,0.2-1.1c0.1-0.3,0.5-1.1,1.4-1.9c0.6-0.5,1.2-0.8,1.9-0.9c0.6,0,1.1,0.2,1.4,0.5
	c0.2,0.2,0.2,0.5,0.1,0.7c-0.1,0.2-0.2,0.3-0.5,0.5c-0.2,0.2-0.4,0.2-0.6,0c-0.4-0.4-0.9-0.8-1.4-0.8c-0.3,0-0.5,0.2-0.5,0.4
	c-0.1,0.3-0.1,0.9,0,2.2l0,0.6h1.9c0.1,0.2,0,0.7-0.2,0.8H81v4.5c0,1,0.1,1.1,1.4,1.2v0.5h-4.5v-0.5c1-0.1,1-0.2,1-1.2v-4.5h-1.1
	l-0.1-0.2l0.5-0.6"/>
<path d="M96.3,94.1c-0.2-0.6-0.4-1.1-0.7-1.4c-0.3-0.4-0.8-0.5-1.7-0.5H93c-0.6,0-0.6,0-0.6,0.6v3.5h1.3c1.5,0,1.7-0.2,1.8-1.2h0.6
	v3.2h-0.6c-0.2-1.1-0.3-1.2-1.8-1.2h-1.3v2.5c0,1.6,0.1,1.7,1.6,1.8v0.6h-5.2v-0.6c1.2-0.1,1.4-0.2,1.4-1.8v-5.9
	c0-1.5-0.2-1.6-1.4-1.7v-0.6h7.8c0,0.3,0.1,1.5,0.2,2.5"/>
<path d="M101.7,95.3c-0.7,0-1.4,0.8-1.4,2.7c0,2,0.7,3.5,1.7,3.5c0.6,0,1.3-0.4,1.3-2.7C103.4,96.5,102.8,95.3,101.7,95.3
	L101.7,95.3z M101.9,94.7c2.3,0,3.8,1.7,3.8,3.6c0,2.6-1.9,3.9-3.8,3.9c-2.6,0-3.9-1.8-3.9-3.6C98,96,100.1,94.7,101.9,94.7"/>
<path d="M110.1,96.4c0.6-1,1.3-1.7,1.9-1.7c0.7,0,1.1,0.4,1.1,1c0,0.6-0.4,1-0.8,1.2c-0.2,0.1-0.4,0-0.5-0.1
	c-0.3-0.2-0.5-0.3-0.8-0.3c-0.3,0-0.7,0.2-0.9,0.9v2.9c0,1,0.1,1.1,1.4,1.2v0.5h-4.5v-0.5c0.9-0.1,1.1-0.2,1.1-1.2v-3.5
	c0-0.8-0.1-0.9-0.9-1v-0.5c0.9-0.1,1.9-0.3,3-0.6L110.1,96.4"/>
<path d="M117.3,95.3c-0.6,0-1.2,0.7-1.3,2c0.7,0,1.3,0,2-0.1c0.2,0,0.3,0,0.3-0.3C118.3,96.1,117.9,95.3,117.3,95.3L117.3,95.3z
	 M120.3,100.4c-1,1.5-2.3,1.8-3,1.8c-2.2,0-3.4-1.6-3.4-3.5c0-1.2,0.5-2.2,1.2-2.9c0.7-0.7,1.7-1.1,2.5-1.1h0c1.5,0,2.7,1.3,2.7,2.6
	c0,0.3-0.1,0.5-0.5,0.6c-0.3,0.1-2.3,0.2-3.9,0.3c0.1,1.7,1,2.6,2.2,2.6c0.6,0,1.3-0.2,1.8-0.7"/>
<path d="M122.2,92.5c0-0.7,0.5-1.1,1.2-1.1c0.7,0,1.2,0.5,1.2,1.1c0,0.6-0.5,1.1-1.2,1.1C122.8,93.6,122.2,93.1,122.2,92.5
	 M121.4,102v-0.5c1-0.1,1.1-0.2,1.1-1.3V97c0-1.1-0.1-1.1-0.9-1.3v-0.5c1-0.1,2.1-0.3,3-0.6v5.4c0,1.1,0.1,1.2,1.1,1.3v0.5"/>
<g>
	<defs>
		<rect id="SVGID_00000061460399288892436470000005896213514052877471_" x="126.6" y="94.7" width="8.1" height="11.3"/>
	</defs>
	<clipPath id="SVGID_00000016779100066242323440000013102881193204892348_">
		<use xlink:href="#SVGID_00000061460399288892436470000005896213514052877471_"  style="overflow:visible;"/>
	</clipPath>
	<g style="clip-path:url(#SVGID_00000016779100066242323440000013102881193204892348_);">
		<path d="M130.2,95.3c-0.5,0-1,0.6-1,1.8c0,1.1,0.4,2,1.1,2c0.6,0,1-0.7,1-1.9C131.3,96.3,131,95.3,130.2,95.3L130.2,95.3z
			 M130.3,102.4c-0.8,0-1.1,0.1-1.4,0.3c-0.2,0.2-0.4,0.5-0.4,0.8c0,0.8,0.8,1.6,2.1,1.6c1.2,0,2-0.7,2-1.5c0-0.6-0.4-0.9-0.9-1.1
			C131.2,102.4,130.9,102.4,130.3,102.4L130.3,102.4z M134.5,95c-0.1,0.3-0.4,0.8-0.7,1l-0.9-0.1c0.3,0.3,0.4,0.7,0.4,1.2
			c0,1.7-1.5,2.5-3.1,2.5c-0.4,0-0.6,0-0.8-0.1c-0.1,0.1-0.2,0.3-0.2,0.4c0,0.3,0.3,0.6,1.1,0.6c0.5,0,1,0,1.5,0
			c0.9,0,2.5,0.2,2.5,2c0,1.9-2.2,3.3-4.4,3.3c-2.1,0-3.1-1.1-3.1-2c0-0.4,0.2-0.7,0.5-0.9c0.4-0.3,0.8-0.5,1.2-0.8
			c-0.7-0.2-1-0.5-1.2-0.9c-0.2-0.3-0.3-0.7-0.2-0.9c0.8-0.3,1.3-0.8,1.7-1.1c-1-0.3-1.6-1.2-1.6-2.1c0-1.8,1.7-2.6,3.2-2.6h0
			c0.6,0,1.1,0.1,1.7,0.4c0.9,0,1.8-0.1,2.4-0.2"/>
	</g>
</g>
<path d="M140.2,102v-0.5c0.7-0.1,0.8-0.2,0.8-1.3v-2.7c0-1.2-0.6-1.5-1.2-1.5c-0.4,0-0.8,0.2-1.2,0.5v3.8c0,1,0.1,1.1,0.8,1.2v0.5
	h-3.9v-0.5c1-0.2,1.1-0.2,1.1-1.3v-3.3c0-1-0.1-1-0.9-1.2v-0.5c0.9-0.1,2-0.4,3-0.6v1.2c0.3-0.2,0.7-0.5,1-0.7
	c0.5-0.3,0.8-0.4,1.3-0.4c1.3,0,2.2,0.9,2.2,2.6v3c0,1,0.1,1,1,1.2v0.5"/>
<path d="M154.9,94.2L154.9,94.2c-0.5,1.2-0.9,2.3-1.4,3.5h2.6L154.9,94.2z M156.3,102v-0.6c1-0.2,1-0.4,0.8-1
	c-0.2-0.5-0.4-1.2-0.7-1.9h-3.2c-0.2,0.5-0.4,1.1-0.6,1.8c-0.2,0.7-0.2,1,1,1.1v0.6h-3.7l0-0.6c1.1-0.1,1.3-0.3,1.9-1.7l3.4-8.2
	l0.8-0.2c1.1,2.8,2.1,5.6,3.2,8.4c0.6,1.4,0.8,1.6,1.8,1.8v0.6"/>
<path d="M163.2,94.9v-0.4c0-0.4,0.1-0.7,0.2-1.1c0.1-0.3,0.5-1.1,1.4-1.9c0.6-0.5,1.2-0.8,1.9-0.9c0.6,0,1.1,0.2,1.4,0.5
	c0.2,0.2,0.2,0.5,0.1,0.7c-0.1,0.2-0.2,0.3-0.5,0.5c-0.2,0.2-0.4,0.2-0.6,0c-0.4-0.4-0.9-0.8-1.4-0.8c-0.3,0-0.5,0.2-0.5,0.4
	c-0.1,0.3-0.1,0.9,0,2.2l0,0.6h1.9c0.1,0.2,0,0.7-0.2,0.8h-1.7v4.5c0,1,0.1,1.1,1.4,1.2v0.5h-4.5v-0.5c1-0.1,1-0.2,1-1.2v-4.5h-1.1
	l-0.1-0.2l0.5-0.6"/>
<path d="M169.3,94.9v-0.4c0-0.4,0.1-0.7,0.2-1.1c0.1-0.3,0.5-1.1,1.4-1.9c0.6-0.5,1.2-0.8,1.9-0.9c0.6,0,1.1,0.2,1.4,0.5
	c0.2,0.2,0.2,0.5,0.1,0.7c-0.1,0.2-0.2,0.3-0.5,0.5c-0.2,0.2-0.4,0.2-0.6,0c-0.4-0.4-0.9-0.8-1.4-0.8c-0.3,0-0.5,0.2-0.5,0.4
	c-0.1,0.3-0.1,0.9,0,2.2l0,0.6h1.9c0.1,0.2,0,0.7-0.2,0.8h-1.7v4.5c0,1,0.1,1.1,1.4,1.2v0.5h-4.5v-0.5c1-0.1,1-0.2,1-1.2v-4.5h-1.1
	l-0.1-0.2l0.5-0.6"/>
<path d="M178.1,98.1c-0.3,0.2-0.6,0.3-0.9,0.5c-0.5,0.3-0.8,0.5-0.8,1.1c0,0.9,0.6,1.2,1,1.2c0.2,0,0.4-0.1,0.7-0.3V98.1z
	 M179.6,102.2c-0.5,0-0.8-0.1-1-0.3c-0.2-0.2-0.4-0.4-0.4-0.6c-0.7,0.4-1.4,0.9-1.7,0.9c-1.4,0-2.2-1.1-2.2-2.1
	c0-0.9,0.4-1.2,1.3-1.5c1-0.4,2.2-0.7,2.6-1.1v-0.4c0-1-0.4-1.6-1-1.6c-0.2,0-0.4,0.1-0.5,0.3c-0.2,0.2-0.3,0.6-0.5,1.1
	c-0.1,0.4-0.4,0.5-0.7,0.5c-0.4,0-1-0.4-1-0.8c0-0.3,0.2-0.5,0.6-0.8c0.6-0.4,1.8-1,2.7-1.1c0.7,0,1.1,0.1,1.6,0.4
	c0.7,0.6,0.9,1.3,0.9,2.2v2.6c0,0.8,0.3,0.9,0.5,0.9c0.2,0,0.4-0.1,0.6-0.1l0.2,0.5"/>
<path d="M183,92.5c0-0.7,0.5-1.1,1.2-1.1c0.7,0,1.2,0.5,1.2,1.1c0,0.6-0.5,1.1-1.2,1.1C183.6,93.6,183,93.1,183,92.5 M182.2,102
	v-0.5c1-0.1,1.1-0.2,1.1-1.3V97c0-1.1-0.1-1.1-0.9-1.3v-0.5c1-0.1,2.1-0.3,3-0.6v5.4c0,1.1,0.1,1.2,1.1,1.3v0.5"/>
<path d="M190.7,96.4c0.6-1,1.3-1.7,1.9-1.7c0.7,0,1.1,0.4,1.1,1c0,0.6-0.4,1-0.8,1.2c-0.2,0.1-0.4,0-0.5-0.1
	c-0.3-0.2-0.5-0.3-0.8-0.3c-0.3,0-0.7,0.2-0.9,0.9v2.9c0,1,0.1,1.1,1.4,1.2v0.5h-4.5v-0.5c0.9-0.1,1.1-0.2,1.1-1.2v-3.5
	c0-0.8-0.1-0.9-0.9-1v-0.5c0.9-0.1,1.9-0.3,3-0.6L190.7,96.4"/>
<g>
	<defs>
		<rect id="SVGID_00000003082509170754179880000014825539400823985597_" x="194.8" y="94.7" width="5.3" height="7.7"/>
	</defs>
	<clipPath id="SVGID_00000162342963835362949970000000254530576960304300_">
		<use xlink:href="#SVGID_00000003082509170754179880000014825539400823985597_"  style="overflow:visible;"/>
	</clipPath>
	<g style="clip-path:url(#SVGID_00000162342963835362949970000000254530576960304300_);">
		<path d="M199.3,97c-0.4-0.9-1-1.6-1.7-1.6c-0.4,0-0.8,0.3-0.8,0.8c0,0.5,0.4,0.9,1.2,1.2c1.3,0.6,2.2,1.1,2.2,2.4
			c0,1.6-1.6,2.4-3,2.4c-0.8,0-1.7-0.3-2-0.5c-0.1-0.3-0.2-1.4-0.3-2.2l0.5,0c0.4,1,1.1,2.1,2.1,2.1c0.5,0,0.9-0.4,0.9-0.8
			c0-0.5-0.2-0.8-1.2-1.3c-0.7-0.4-2.1-1-2.1-2.4c0-1.3,1-2.3,2.7-2.3c0.8,0,1.2,0.1,1.6,0.3c0.2,0.4,0.4,1.5,0.4,1.9"/>
	</g>
</g>
<path d="M196,62.4c0,2.9-0.7,5.1-2,6.6c-1.6,1.8-4.3,3.7-8.2,5.9c-3.4,2-5.4,2.9-6,2.9c-0.6,0-13.4,3.5-14,2.9c0-0.1,0.7-0.4,2-1
	c5.5-2.5,17.8-7,24.9-12.7c1.4-1,2.1-1.8,2.1-2.3c-0.3-0.5-0.6-0.8-0.9-1c-0.5-0.3-1.4-0.4-2.7-0.5c-2.8,0-4.2-0.9-4.2-2.9
	c0-1.5,0.5-2.8,1.5-4c2.3-2.7,4.6-1.8,6.3,1.3C195.5,59.4,196,60.9,196,62.4 M192.5,59.8c-0.8-1-1.6-1.6-2.3-1.6
	c-1,0-1.6,0.3-1.6,0.8c0,0.7,0.7,1,2.2,0.9C191.3,60,191.9,59.9,192.5,59.8"/>
<path d="M175.3,58.1c-0.4-1.4-0.8-1.5-0.9-1.9c-0.1-0.3,0.3-2.5,0.4-2.9c0.1-0.3,0.2-0.5,0.3-0.5c0.3,0.1,0.6,0.9,2.9,3.1
	c0.4,0.4,0.9,1,0.4,0.9c-0.2,0-0.6-0.1-1.3-0.3c1.6,3.7,2.9,5.8,1.9,9.4c-0.3,1-0.7,1.8-1.1,2.3c-1.7,2-4.6,4.1-8.7,6.4
	c-3.5,2-5.6,3.1-6.3,3.1c-0.1,0-1.9,0.4-5.2,1.2c-1.8,0.4-6.9,1.7-8.5,1.7l-0.1,0c0-0.1,0.6-0.4,2-1c4.9-2.2,11.3-4.6,17-7.6
	c3.5-1.9,6.1-3.5,8-4.9c1.4-1.1,2.1-1.8,2.1-2.3C178,64.2,176.1,60.9,175.3,58.1"/>
<path d="M155.4,58.1c-0.7-2.3-1.1-0.9-0.8-3.2c0.1-0.7,0.2-1.3,0.3-1.6c0.1-0.3,0.2-0.5,0.3-0.5c0.1,0,0.1,0.1,0.3,0.2
	c2.4,3,5,4.5,1.8,3.5c1.6,3.8,2.9,5.8,1.9,9.4c-0.3,1-0.7,1.8-1.1,2.3c-1.7,2-4.6,4.1-8.7,6.4c-3.5,2-5.6,3.1-6.3,3.1
	c-0.1,0-1.9,0.4-5.2,1.2c-1.8,0.4-6.9,1.7-8.5,1.7l-0.1,0c0-0.2,2.6-1.3,10.2-4.6c10.4-4.4,18.8-9.7,18.8-11.3
	C158.1,64.2,156.2,60.9,155.4,58.1 M162.6,38.7c0-1.1-0.2-2.1-0.5-2.9c0-0.4,0.3-1.4,1-3c0.1-0.2,0.1-0.3,0.2-0.3
	c0.1,0,0.2,0.1,0.3,0.3c0.2,0.4,0.6,1.6,1.3,3.4c1.3,3.5,2.4,6.3-0.1,3.4c-0.1-0.1-0.2-0.1-0.2,0.2c0,0,1.6,21.7,1.6,23.4
	c0,2.8-0.4,5.3-1.3,7.4c-0.6,1.6-0.9,1.6-0.7-0.3c0.4-3.2,0.1-6.3-0.7-17.6C162.9,44.4,162.6,39.7,162.6,38.7"/>
<path d="M112.5,61.7l-6.5-1.6c0.1-0.1,0.9-0.4,2.5-0.9c2.1-0.5,3.8-1.1,5.2-1.7c0.7-0.2,0.7-0.8,0.7-1.3c0.3-1-0.8-13.4-0.8-15
	c0-1.2-0.2-2.1-0.6-2.9c0-0.4,0.4-1.4,1.1-3c0.1-0.2,0.1-0.3,0.2-0.3c0.1,0,0.2,0.1,0.3,0.3c0.2,0.4,0.6,1.5,1.4,3.4
	c0.8,2,1.2,3.1,1.3,3.6c0.1,0.4,0.1,0.6,0.1,0.8c0,0.5-0.5,0.2-1.6-1c-0.1-0.1-0.2-0.1-0.2,0.2c0,0.1,0.2,1.7,0.5,6.4
	c0.4,4.7,0.4,6.4-0.1,7.9C115.4,58.9,114.2,60.5,112.5,61.7 M128.5,41c0-1.1-0.2-2.1-0.5-2.9c0-0.4,0.3-1.4,1-3
	c0.1-0.2,0.1-0.3,0.2-0.3c0.1,0,0.2,0.1,0.3,0.3c0.1,0.3,2.8,6.8,2.8,7.7c0,0.5-0.5,0.2-1.6-1c-0.3-0.4-0.2,0.3,0.6,11.4
	c0.5,7.3,0.8,11.4,0.8,12.3c0,2.8-0.4,5.3-1.3,7.4c-0.2,0.5-0.6,1.6-0.7,1.1c-0.2-0.6,0.2-1.5,0.2-4.8
	C130.3,66.5,128.5,43.4,128.5,41 M150,49.9c0,1-0.5,2.3-1.4,3.9c-0.6,1-1.5,2.4-2.7,4.1c2.5,2.9,2.8,4.3,2.8,6.7
	c0,0.9-0.4,2.7-1,3.4c-0.4,0.8-1.2,1.5-2.4,2.2c-1.2,0.8-2.3,1.2-3.2,1.2c-1.4,0-2.1-1-2.1-3.1c0-3.3,1.2-5.6,3.1-8.7
	c-1-1.1-2.2-2.5-3.4-4.2c-0.1-0.1-0.5-0.5-0.9-0.9c-0.3-0.2-0.4-0.5-0.4-0.9c0-0.7,0.3-2.8,0.6-2.9c0.4,0.1,4.3,2.7,4.3,2.9v0
	c0,0.1-0.2,0.1-0.6,0.1c-0.8,0-1.2,0.1-1.2,0.1c0,0.1,0.1,0.3,0.4,0.5c0.9,1.2,1.9,2.1,2.9,2.7c0.4-0.4,3.8-5.6,4.5-7.2
	c0.3-0.7,0.5-1,0.5-1C150,48.7,150,49.1,150,49.9 M147.8,64.5c-0.7-1.3-1.8-2.7-3.3-4c-1,1.1-3.5,5-3.5,6.2c0,0.7,0.5,1,1.6,1
	C144.7,67.7,147.9,65.1,147.8,64.5"/>
<path d="M134.6,64.7c-1.4,2.5-1.3,2.9-1.8,2.9c-2.2,0-7.3-0.5-12,0.9c-11,3.4-20.4,5-28,5c-6.3,0-11.3-0.8-15-2.3v-3.6
	c3.2,1.5,8.5,2.3,16,2.3c9.4,0,20-2.1,25.9-4.2c-1.3-0.1-11.1-2.8-13.4-2.8c-1.1,0-1.6-0.1-1.6-0.3c0,0,0-0.1,0.1-0.3
	c0.2-0.5,0.6-1.2,1.1-2.2h6.2c16.7,4.6,22.5,3.6,22.5,4.3L134.6,64.7"/>
<path d="M65.5,58.2c-0.4-1.4-0.8-1.5-0.9-1.9c-0.1-0.3,0.3-2.4,0.4-2.9c0.1-0.3,0.2-0.5,0.3-0.5c0.1,0,0.1,0.1,0.3,0.2
	c2.4,2.9,5.1,4.5,1.8,3.5c1,2.5,2.3,4.8,2.3,7.2c0,1.3-0.6,3.5-1.4,4.5c-1.7,2-4.6,4.1-8.7,6.4c-3.5,2.1-5.6,3.1-6.3,3.1
	c-0.7,0-11.4,3-13.7,3l-0.1,0c0-0.2,3.9-1.9,10.2-4.6c10.9-4.6,18.7-9.8,18.7-11.3c0-0.1-0.3-1-1-2.5C66.4,60.6,65.8,59.3,65.5,58.2
	 M75.1,65.6c1,0.9,2,1.7,3,2.1v3.6c-2.7-1.1-4.5-2.2-5.8-4.8c-2-4.3-0.6-20.8-3.3-26.9c0-0.5,0.3-1.5,0.9-2.8
	c0.1-0.3,0.2-0.4,0.3-0.5c0.1,0,0.2,0.1,0.3,0.4C73.7,42.9,71.2,61.9,75.1,65.6"/>
<path d="M38.2,72.2v-3.6c3,0.1,8.1-2.2,11.8-3.7l-6.8-2.1c-0.2,0-0.5,0.1-0.7,0.3c-0.2,0.2-0.4,0.3-0.8,0.2c-5.6-0.4-5.5-0.1-5-1.2
	c1-1.8,1.2-2.6,1.8-2.7c1.4-0.2,3.1-0.3,5-0.3c0.1,0,1.4,0.5,4.2,1.3c5.1,1.7,6.6,2.1,11.5,2.8c3.8,0.7,3.8,0.5,4,0.6
	c0.1,0.1,0.1,0.2-0.1,0.4l-1.3,2.3c-0.6,1.3-3.5-1.5-11.7,1.4c-2.1,0.9-4.2,1.8-6.3,2.7C41.5,71.7,39.6,72.2,38.2,72.2"/>
<path d="M38.3,72.2c-2.1,0-3.9-1.2-4.3-3.8c-0.4,0.8-1,1.6-2,2.5c-1.4,1.3-3,1.9-4.6,1.9v-3.6c2,0,3.7-0.5,5.1-1.6
	c0.2-0.1,2.8-3.1,3.1-3.2c0.2,0,0.2,0.1,0.2,0.4c0,0.1,0,0.3,0,0.4c-0.6,2.3,0.2,3.5,2.6,3.5L38.3,72.2"/>
<path d="M141,36.3c0.2-0.5,0.1-1.4-0.4-1.4c-0.2,0-0.8,0.3-0.8,0.5C139.8,35.6,140.2,35.9,141,36.3 M140.4,37.7
	c-1-0.5-1.5-1-1.5-1.6c0-0.7,0.3-1.3,1-1.9c0.6-0.5,1.2-0.8,1.6-0.6c0.4,0.2,0.5,0.5,0.5,1.1c0,0.6-0.1,1.2-0.4,1.9
	c0.5,0.3,0.8,0.5,0.9,0.7c0,0.3-0.2,0.7-0.7,1.4c-0.1-0.2-0.4-0.4-0.9-0.7c-0.5,0.8-1.3,1.5-2.1,2.1c-2.1,1.5-3.1,1.8-5.5,2.7
	c-0.3,0.1-0.4,0.2-0.5,0.2l-0.1,0C132.8,42.3,138.4,39.8,140.4,37.7 M15.4,40.9c-0.3-0.6-0.8-1-1.4-1.3c0,0.6-0.1,1.1-0.2,1.4
	c1,0.2,1.8,0.2,1.7,0.2C15.5,41.1,15.5,41,15.4,40.9 M13.3,40.9c0.1-0.5,0-1.4-0.5-1.4c-0.1,0-0.3,0.1-0.6,0.4
	c-0.3,0.2-0.4,0.4-0.4,0.5C11.8,40.6,12.3,40.8,13.3,40.9 M11.5,39.2c-0.2-0.7-0.1-1.1,0.1-1.4c0.2-0.2,0.5-0.3,0.8-0.3
	c0.8,0,2.9,1.2,3.5,2.8l0.1,0.2c0,0.3-0.1,0.7-0.3,1.2c-0.2,0.4-0.4,0.7-0.6,0.6c-0.1,0-0.6-0.1-1.8-0.2c-1.1,1.6-3.2,3.1-4.7,3.7
	c-0.2,0.1-3,1.2-3.4,1.2l-0.1,0c0.2-0.4,5.5-3,7.6-5c-1.1-0.2-1.6-0.7-1.6-1.4C11.1,40.2,11.3,39.7,11.5,39.2 M108.4,76.7
	c-0.2,0.5-0.6,1.1-1.3,1.6c-0.7,0.6-1.4,1-2.3,1.2c-0.3,0.1-0.5,0.2-0.6,0.1l0,0c0.2-0.2,2.9-1.5,3.2-2.3c0.1-0.4,0-0.7-0.4-0.8
	c-0.5-0.2-0.8,0.1-0.9,0.1l-0.1-0.1c0,0,0.1-0.1,0.2-0.3c0.5-0.8,1.1-1.1,1.8-0.9C108.5,75.5,108.6,76,108.4,76.7 M50.8,48.9
	c0,0.7-0.3,1.4-0.8,2.3c-0.6,0.9-1.3,1.6-2.2,2.3c-0.3,0.3-0.5,0.4-0.6,0.4l0,0c0.1-0.4,2.7-2.7,2.7-3.8c0-0.5-0.2-0.8-0.7-0.8
	c-0.3,0-0.5,0.1-0.7,0.2c-0.2,0.1-0.2,0.2-0.3,0.2L48,49.6c0.1,0,0.1-2,1.7-2C50.4,47.6,50.8,48.1,50.8,48.9 M91.2,38.4
	c0,0.5-0.2,1.2-0.7,1.9c-0.5,0.7-1,1.3-1.8,1.9c-0.3,0.2-0.4,0.3-0.5,0.3l0,0c0.1-0.3,2.2-2.2,2.2-3.1c0-0.4-0.2-0.6-0.6-0.6
	c-0.5,0-0.7,0.3-0.8,0.3l-0.1-0.1c0.1,0,0-1.7,1.4-1.7C90.9,37.3,91.2,37.6,91.2,38.4 M80.6,43.1c-0.1,0.3-0.2,0.4-0.3,0.4
	c-0.1,0-0.1-0.2-0.1-0.5c0.4-2.4-0.7-4-2.5-5.6c-0.1-0.1-0.1-0.2,0-0.4l0.5-0.9h0.2c1.6,1.2,2.5,2.9,2.5,5
	C81,41.9,80.9,42.5,80.6,43.1 M35,53.3c0,0.8-0.4,2.2-1.3,2.2c-0.6,0-1.1-0.4-1.4-1.3c-0.3,1-0.8,1.5-1.7,1.5
	c-0.3,0-0.6-0.1-0.8-0.4c-0.2-0.3-0.4-0.8-0.4-1.3c-0.1-1.4,0.1-1.4-0.2-1.5c-0.1,0-0.2-0.2-0.2-0.4c0-0.3,0.1-0.5,0.3-0.8
	c0.2-0.2,0.4-0.4,0.4-0.4c0.2,0,0.2,0.3,0.2,0.8c0,0.3,0,1,0,1.3c0,0.6,0.3,1.3,0.8,1.3c0.3,0,0.6-0.1,0.8-0.4
	c0.8-0.7,0.1-1.7,0-2.8c0-0.1,0.1-0.2,0.2-0.5c0.1-0.2,0.2-0.3,0.2-0.3c0.3,0,0.6,2.1,0.6,2.5c0,0.9,0.4,1.4,1.1,1.4
	c0.3,0,0.5-0.2,0.6-0.5c-0.6-1-0.9-1.8-0.9-2.4c0-0.6,0.4-1.1,0.6-1.1c0.1,0,0.1,0.7,0.3,1.1c0,0,0.2,0.4,0.5,1.1
	C34.9,52.8,35,53.1,35,53.3 M98.2,50.6c0,0.3-0.2,1-0.5,1c-0.3,0.1-1.2-3-2.1,2.4c-0.2,0.9-0.3,1.5-0.5,1.9c-0.2,0.5-0.5,0.6-0.5,0
	c0-0.3-0.2-1-0.6-2c-0.4-1-0.7-1.5-0.9-1.5L93,52.4c0,0.1-0.1,0.1-0.3,0.1c-0.4,0-1.1-0.7-1.2-1c0-0.1,0.7-1.3,0.8-1.3
	c1.6,0,2.4,2.3,2.6,3.8c0,0.1,0,0.2,0,0.2h0c0.2-0.1-0.1-0.2,0.8-3.3c0.5-1.2,1.3-2.1,2.1-1C98.1,50.1,98.2,50.4,98.2,50.6
	 M94.8,56.7c-0.4,0.9-1.1,1.7-2.2,2.5c-2.1,1.5-3.1,1.8-5.5,2.7C86.8,62,86.6,62,86.5,62l-0.1,0c0.1-0.3,0.7-0.4,6.5-4.1
	c0.7-0.5,1.2-1,1.5-1.4c0.4-0.5,0.7-0.8,0.7-0.8l0,0C95.1,55.9,95,56.2,94.8,56.7 M117.6,73.9c1.6,0,2.4,2.3,2.6,3.9
	c0,0.1,0,0.2,0,0.2h0.1c0,0,0-0.1,0.1-0.2c0.1-0.7,0.4-1.7,0.7-3.2c0.4-1,0.8-1.5,1.3-1.5c0.5,0,1.1,0.8,1.1,1.2
	c0,0.1,0,0.3-0.1,0.5c-0.2,0.6-0.4,0.5-0.7,0.1c-0.2-0.3-0.4-0.4-0.6-0.4c-1,0-1.2,5.5-2.1,5.5c-0.1,0-0.1-0.1-0.1-0.3
	c0-0.3-0.2-1-0.6-2.1c-0.4-1-0.7-1.5-0.9-1.5l-0.2,0.1c0,0.1-0.1,0.1-0.3,0.1c-0.4,0-1.2-0.7-1.2-1
	C116.8,75.2,117.5,73.9,117.6,73.9 M57.3,40.6c1.6,0,2.4,2.3,2.6,3.9c0,0.1,0,0.2,0,0.2H60c0,0,0-0.1,0.1-0.2
	c0.1-0.7,0.4-1.7,0.7-3.2c0.4-1,0.8-1.5,1.3-1.5c0.3,0,0.5,0.2,0.7,0.5c0.3,0.5,0.4,0.7,0.2,1.2c-0.4,1.1-0.6-0.3-1.3-0.4
	c-1,0-1.2,5.5-2.1,5.5c-0.1,0-0.1-0.1-0.1-0.3c0-0.3-0.2-1-0.6-2.1c-0.4-1-0.7-1.5-0.9-1.5l-0.2,0.1c0,0.1-0.1,0.1-0.3,0.1
	c-0.4,0-1.2-0.7-1.2-1c0-0.1,0.1-0.3,0.4-0.7C57.1,40.8,57.2,40.6,57.3,40.6 M20.8,37.1c1.6,0,2.4,2.3,2.6,3.8c0,0.1,0,0.2,0,0.2
	h0.1c0,0,0-0.1,0.1-0.2c0.1-0.7,0.4-1.7,0.7-3.1c0.4-1,0.8-1.5,1.3-1.5c0.5,0,1.1,0.8,1.1,1.2c0,0.1,0,0.3-0.1,0.5
	c-0.1,0.3-0.2,0.5-0.3,0.4c-0.1,0-0.2-0.1-0.4-0.4c-0.2-0.3-0.4-0.4-0.6-0.4c-1,0-1.2,5.6-2.1,5.6c-0.1,0-0.1-0.1-0.1-0.3
	c0-0.3-0.2-1-0.6-2.1c-0.4-1-0.7-1.5-0.9-1.5l-0.2,0.1c0,0.1-0.1,0.1-0.3,0.1c-0.4,0-1.2-0.7-1.2-1c0-0.1,0.1-0.3,0.4-0.7
	C20.6,37.3,20.8,37.1,20.8,37.1 M193.6,47.5l0.1-0.1l0.1,0v0.2c-0.3,1.5-0.8,2.3-1.4,2.3c-0.7,0-1-0.6-1-1.7c0-1.4,0.4-2.9,1.2-4.4
	c0.2-0.4,0.3-0.6,0.4-0.6l0,0c0,0.2-1,2.7-1,4c0,0.9,0.3,1.3,0.7,1.3C192.9,48.5,193.2,48.2,193.6,47.5 M124.3,51.2l0.1-0.1l0,0v0.2
	c-0.3,1.5-0.8,2.3-1.4,2.3c-0.7,0-1-0.6-1-1.7c0-1.4,0.4-2.9,1.2-4.4c0.2-0.4,0.3-0.6,0.4-0.6l0,0c0,0.2-1,2.8-1,4
	c0,0.9,0.3,1.3,0.8,1.3C123.6,52.1,123.9,51.8,124.3,51.2 M80.5,60.1l0.1-0.1l0.1,0v0.2c-0.3,1.5-0.8,2.3-1.4,2.3
	c-0.7,0-1-0.6-1-1.7c0-1.4,0.4-2.9,1.2-4.4c0.2-0.4,0.3-0.6,0.4-0.6l0,0c0,0.2-1,2.7-1,4c0,0.9,0.3,1.3,0.7,1.3
	C79.8,61.1,80.2,60.8,80.5,60.1 M38,39.2l0.1-0.1l0.1,0v0.2c-0.3,1.5-0.8,2.3-1.4,2.3c-0.7,0-1-0.6-1-1.7c0-1.4,0.4-2.9,1.2-4.4
	c0.2-0.4,0.3-0.6,0.4-0.6l0,0c0,0.2-1,2.8-1,4c0,0.9,0.3,1.3,0.7,1.3C37.3,40.2,37.6,39.9,38,39.2 M147.7,39.9
	c9.9-3.6,12.9-4.7,13-4.7c0.1,0.1,0.1,0.2,0,0.3c-0.2,0.5-0.4,0.8-0.5,0.9c-3.7,1.4-8.1,3-13.1,5C147.2,40.8,147.4,40.4,147.7,39.9
	 M23.5,48.3C30,46,53.5,37.3,53.7,37.3c0.1,0.1,0.1,0.1,0,0.3c-0.2,0.5-0.4,0.8-0.5,0.8C49.5,39.7,28,47.7,23,49.7
	C23.1,49.3,23.3,48.8,23.5,48.3 M77.1,48.5c8.1-3,29.9-11.1,30.1-11.1c0,0,0,0.1,0,0.3c-0.2,0.5-0.4,0.8-0.5,0.9
	c-3.7,1.4-25.2,9.4-30.2,11.3C76.7,49.5,76.9,49,77.1,48.5 M179.9,39.9c4.1-1.5,9.1-3,13.5-4.6c0.2-0.1,0.3-0.1,0.3-0.1
	c0.1,0.1,0.1,0.2,0,0.3c-0.2,0.5-0.4,0.8-0.5,0.8c-3.7,1.4-8.8,3-13.8,5C179.4,40.9,179.6,40.4,179.9,39.9 M61,78.3
	c10.3-3.7,12.9-4.7,13-4.7c0.1,0.1,0.1,0.2,0,0.3c-0.2,0.5-0.4,0.8-0.5,0.9c-3.7,1.4-8.1,3-13.1,5C60.6,79.3,60.8,78.8,61,78.3
	 M170,38.9c10.7-3.9,12.9-4.7,13-4.7c0.1,0.1,0.1,0.1,0,0.3c-0.2,0.5-0.4,0.8-0.5,0.9c-3.7,1.4-8.1,3-13.1,5
	C169.6,39.9,169.8,39.4,170,38.9 M143,44.4c1-2.1,1-2.1,1.2-2.1c0.3,0,2.9,1.8,2.9,2c0,0.4-0.4,1.3-1.2,2.6
	c-0.1,0.2-0.2,0.2-0.3,0.1c-0.8-0.6-1.7-1.2-2.7-1.9c-0.3,0.7-0.7,1.4-1,1.9c-0.1,0.2-0.2,0.2-0.3,0.1c-0.9-0.7-1.8-1.3-2.8-1.9
	c0.1,0,0.1-0.1,0-0.2c1-1.9,1.1-2.5,1.4-2.6c0.1,0,0.6,0.3,1.3,0.8C142.3,43.8,142.8,44.2,143,44.4 M172,46.4c0.1,0,0.1-0.1,0-0.2
	c1.1-2.1,1.1-2.5,1.4-2.5c0.3,0,2.9,1.8,2.9,2c0,0.4-0.4,1.2-1.2,2.5C174.9,48.7,174.9,48.2,172,46.4 M103.5,50.6
	c0.1,0,0.1-0.1,0-0.2c1-2,1.1-2.5,1.4-2.5c0.3,0,2.9,1.8,2.9,2c0,0.4-0.4,1.3-1.2,2.5C106.4,52.8,106.4,52.3,103.5,50.6 M16,51.9
	c1-2,1-2.1,1.2-2.1c0.2,0,2.9,1.8,2.9,2c0,0.4-0.4,1.3-1.2,2.6c-0.1,0.2-0.2,0.2-0.3,0.1c-0.8-0.6-1.7-1.2-2.7-1.9
	c-0.3,0.7-0.7,1.4-1,1.9c-0.1,0.2-0.2,0.2-0.3,0.1c-0.9-0.7-1.8-1.3-2.8-1.9c0,0,0-0.1,0-0.2c1-1.9,1.1-2.5,1.4-2.6
	C13.5,50,15.6,51.5,16,51.9 M25.4,77.4c1-2,1-2.1,1.2-2.1c0.2,0,2.9,1.8,2.9,2c0,0.4-0.4,1.3-1.2,2.6C28.1,80,28,80.1,27.9,80
	c-0.8-0.6-1.7-1.2-2.7-1.9c-0.3,0.7-0.7,1.4-1,1.9c-0.1,0.2-0.2,0.2-0.3,0.1c-0.9-0.7-1.8-1.3-2.8-1.9c0.1,0,0.1-0.1,0-0.2
	c1-1.9,1.1-2.5,1.4-2.6c0.1,0,0.6,0.3,1.3,0.8C24.6,76.8,25.1,77.1,25.4,77.4 M34.7,78.1c0.1,0,0.1-0.1,0-0.2
	c1.1-2.1,1.2-2.5,1.4-2.5c0.3,0,2.9,1.8,2.9,2c0,0.4-0.4,1.2-1.2,2.5C37.6,80.4,37.7,79.9,34.7,78.1 M27.6,72.7
	c-1.2,0-2.1-0.1-2.6-0.2c-1.2-0.3-2.1-1.1-2.9-2.3c-0.5-0.8-1-1.6-1.4-2.5c-0.4-0.7-0.9-1-1.3-1.1c-1.3,0-2.8,1.2-4.3,3.5
	c-0.3,0.4-0.7,1.5-1.4,3.2c-0.7,1.7-1.3,3-1.8,3.8c-0.8,1.2-1.6,1.8-2.5,1.8c-1.3,0-2.5-1.1-3.4-3.1c-0.8-1.8-1.2-3.7-1.2-5.7
	c0-3.8,0.8-6.5,1.1-6.5c0.4,0-0.2,2.1-0.2,4.8c0,5.1,1.2,7.6,3.5,7.6c0.9,0,1.8-0.7,2.6-2.2c0.8-1.8,1.6-3.5,2.4-5.3
	c1-2,3.3-5.3,5.5-5.4c0.7,0,1.3,0.4,1.8,1.3c1.9,3.2,2.6,4.7,6.1,4.7L27.6,72.7"/>
</svg>
