<?xml version="1.0" encoding="utf-8"?>
<!-- Generator: Adobe Illustrator 27.7.0, SVG Export Plug-In . SVG Version: 6.00 Build 0)  -->
<svg version="1.1" id="Layer_1" xmlns="http://www.w3.org/2000/svg" xmlns:xlink="http://www.w3.org/1999/xlink" x="0px" y="0px"
	 viewBox="0 0 300 109.3" style="enable-background:new 0 0 300 109.3;" xml:space="preserve">
<style type="text/css">
	.st0{clip-path:url(#SVGID_00000114056163849976915510000000248957497288788370_);}
	.st1{fill:#009EDB;}
</style>
<path d="M293.9,83c0-0.7-0.3-1.4-0.9-1.7c-1.2-0.7-2.5-1.1-3.8-1.3c-2.1-0.4-4.1-1.2-5.9-2.4c-1.5-1-2.4-2.8-2.4-4.6
	c0-1.9,0.9-3.8,2.4-5.1c1.7-1.4,3.9-2.2,6.8-2.2c3,0,5.4,0.7,7.2,2.1c1.7,1.3,2.6,3.3,2.6,5.4h-6.2c0-0.8-0.3-1.6-0.8-2.2
	c-0.8-0.6-1.7-0.9-2.7-0.8c-0.8-0.1-1.7,0.2-2.4,0.7c-0.5,0.4-0.8,1.1-0.8,1.8s0.3,1.4,0.9,1.7c1,0.6,2.2,0.9,3.4,1.1
	c2.2,0.4,4.3,1.2,6.2,2.3c1.7,1,2.5,2.7,2.5,5c0,2-1,3.9-2.6,5.1c-1.8,1.3-4.1,2-7.2,2c-3.2,0-5.7-0.8-7.4-2.5
	c-1.6-1.4-2.5-3.3-2.6-5.3h5.9c0,1,0.5,2,1.4,2.6c0.8,0.5,1.9,0.8,3,0.8C292.7,85.5,293.9,84.7,293.9,83 M267.3,70.8
	c-1.6-0.1-3.2,0.8-4,2.3v16.4H257V66.2h5.8l0.3,2.7c1.6-2,4.1-3.2,6.7-3.1c2-0.1,4,0.6,5.4,1.9c1.3,1.4,2,3.6,2,6.9v14.9H271V74.6
	c0-1.5-0.3-2.5-0.9-3C269.2,71,268.2,70.7,267.3,70.8 M238.1,77.6V78c-0.1,1.7,0.3,3.4,1.1,4.8c1.4,2,4.1,2.6,6.2,1.3
	c0.5-0.3,0.9-0.8,1.3-1.3c0.8-1.5,1.1-3.1,1.1-4.8v-0.4c0.1-1.7-0.3-3.3-1.1-4.8c-0.8-1.4-2.2-2.2-3.7-2c-1.5-0.1-3,0.7-3.7,2
	C238.5,74.3,238.1,76,238.1,77.6 M231.9,78.1v-0.4c-0.1-3,0.9-6.1,2.9-8.4c1.9-2.3,4.6-3.4,8.1-3.4c3.5,0,6.2,1.1,8.2,3.4
	c1.9,2.4,3,5.4,2.9,8.4v0.4c0.1,3-0.9,6.1-2.9,8.4c-1.9,2.3-4.6,3.4-8.1,3.4c-3.5,0-6.2-1.1-8.2-3.4
	C232.8,84.2,231.8,81.1,231.9,78.1 M228.3,89.5h-6.2V66.2h6.2V89.5z M221.8,60.2c0-0.8,0.3-1.7,0.9-2.3c1.4-1.2,3.6-1.2,5.1,0
	c1.3,1.3,1.3,3.3,0,4.6c-1.4,1.2-3.6,1.2-5.1,0C222,61.9,221.7,61,221.8,60.2 M219.1,89.3c-0.6,0.2-1.1,0.3-1.7,0.4
	c-0.7,0.1-1.4,0.2-2,0.2c-1.8,0.1-3.5-0.5-4.9-1.6c-1.2-1-1.8-2.8-1.8-5.3V70.7h-3.5v-4.6h3.5v-5.7h6.2v5.7h4v4.6h-4v11.6
	c-0.1,0.7,0.1,1.4,0.6,1.9c0.5,0.3,1.2,0.5,1.8,0.5c0.3,0,0.7,0,1-0.1c0.3,0,0.6-0.1,0.8-0.1V89.3z M192.7,85.2
	c0.9,0,1.9-0.3,2.7-0.7c0.7-0.3,1.2-0.9,1.6-1.5v-4.1h-2.5c-1.3-0.1-2.6,0.3-3.6,1c-0.8,0.7-1.2,1.6-1.2,2.5c0,0.8,0.3,1.4,0.8,1.9
	C191.1,84.9,192,85.2,192.7,85.2 M197.9,89.5c-0.3-0.7-0.5-1.4-0.6-2.1c-0.7,0.8-1.4,1.3-2.4,1.8c-1.1,0.5-2.3,0.8-3.5,0.8
	c-2,0.1-4.1-0.7-5.6-1.9c-1.5-1.3-2.3-3-2.3-5c-0.1-2.2,0.9-4.4,2.7-5.7c1.8-1.4,4.5-2,8-2h2.8v-1.4c0.1-0.9-0.3-1.9-0.8-2.6
	c-0.7-0.7-1.6-1-2.6-0.9c-2.2,0-3.3,0.9-3.3,2.8H184c0-2,1-4,2.7-5.2c2.1-1.5,4.6-2.3,7.2-2.2c2.4-0.1,4.7,0.6,6.7,2
	c1.8,1.4,2.6,3.4,2.6,6.2v9.8c0,1.1,0.1,2.1,0.3,3.2c0.2,0.8,0.3,1.4,0.7,2.1v0.4H197.9z M179.7,58.2v31.3h-6.4l-12.6-20.7v20.7
	h-6.5V58.2h6.5l12.6,20.7V58.2H179.7z M260.2,40.7c-0.1,1.6,0.3,3.3,1,4.7c0.7,1.3,2,2.1,3.5,1.9c1.7,0.1,3.3-0.8,4.1-2.4v-9.2
	c-0.7-1.5-2.3-2.5-4.1-2.4c-1.4-0.1-2.8,0.7-3.5,2c-0.8,1.5-1.1,3.2-1,4.9V40.7z M269.4,52.1l-0.3-2.4c-0.7,0.8-1.5,1.6-2.5,2.1
	c-1,0.5-2.2,0.8-3.4,0.8c-2.7,0.1-5.2-1.2-6.7-3.4c-1.7-2.5-2.5-5.5-2.4-8.4v-0.4c0-3.5,0.8-6.4,2.4-8.6c1.5-2.2,4.1-3.4,6.8-3.3
	c2.2-0.1,4.2,0.8,5.6,2.5V19.1h6.2v33H269.4z M241.8,33.3c-1.2-0.1-2.3,0.4-3,1.4c-0.8,1-1.3,2.2-1.4,3.5h8.6v-0.5
	c0-1.1-0.3-2.2-1-3.1C244.1,33.7,242.9,33.3,241.8,33.3 M251.6,48.3c-0.9,1.2-2,2.2-3.4,2.9c-1.8,0.9-3.7,1.4-5.7,1.4
	c-3.6,0-6.5-1.1-8.5-3.3c-2-2.2-3.1-5-3-7.9v-0.8c-0.2-3.1,0.9-6.2,3-8.6c2-2.3,4.9-3.5,7.9-3.4c3.4,0,5.9,1,7.6,3.1
	c1.7,2.1,2.6,4.9,2.6,8.3v2.6h-14.8c0.2,1.3,0.8,2.7,1.8,3.6c1,0.9,2.4,1.4,3.9,1.4c2.2,0.1,4.3-0.8,5.6-2.6L251.6,48.3z
	 M229.1,51.9c-1.2,0.4-2.4,0.6-3.7,0.6c-1.8,0.1-3.5-0.5-4.9-1.6c-1.2-1-1.8-2.8-1.8-5.3V33.3h-3.5v-4.6h3.5V23h6.2v5.7h4v4.6h-4V45
	c-0.1,0.7,0.1,1.4,0.6,1.9c0.5,0.3,1.2,0.5,1.8,0.5c0.3,0,0.7,0,1-0.1c0.3,0,0.6-0.1,0.8-0.1V51.9z M213,52h-6.2V28.8h6.2V52z
	 M206.3,22.8c0-0.8,0.3-1.7,0.9-2.3c1.4-1.2,3.6-1.2,5.1,0c0.6,0.6,1,1.4,0.9,2.3c0,0.8-0.3,1.7-0.9,2.3c-1.4,1.2-3.6,1.2-5.1,0
	C206.7,24.5,206.3,23.6,206.3,22.8 M192.3,33.3c-1.6-0.1-3.2,0.8-4,2.2V52h-6.2V28.8h5.8l0.2,2.6c1.6-2,4.1-3.2,6.7-3.1
	c1.9-0.1,3.9,0.6,5.3,1.9c1.3,1.4,2,3.6,2,6.9v14.8h-6.2V37.2c0-1.5-0.3-2.5-0.9-3C194.2,33.6,193.3,33.3,192.3,33.3 M171.5,20.8
	h6.5v20.6c0,3.6-1.1,6.4-3.4,8.3c-5.1,3.8-12.1,3.8-17.2,0c-2.3-1.9-3.4-4.6-3.4-8.3V20.8h6.5v20.6c0,2.1,0.5,3.5,1.5,4.5
	c2.4,1.9,5.7,1.9,8.1,0c1-0.9,1.4-2.4,1.4-4.5"/>
<g>
	<defs>
		<rect id="SVGID_1_" x="26.2" y="52.3" width="104.7" height="56.9"/>
	</defs>
	<clipPath id="SVGID_00000057864128030452427250000012390834458122656402_">
		<use xlink:href="#SVGID_1_"  style="overflow:visible;"/>
	</clipPath>
	<g style="clip-path:url(#SVGID_00000057864128030452427250000012390834458122656402_);">
		<path class="st1" d="M130.1,55.1c-1.1,3.2-3,6.2-5.5,8.6c-2.9,2.8-5.5,5.9-7.9,9c0,0.1-0.2,0-0.1-0.1c1-3.2,1.2-6.7,0.7-10.2
			c-0.5-2.9-1.7-6-2-9.4l-0.1-0.1c0,0.1-0.1,0.2-0.1,0.4c-0.7,2.3-1.2,4.5-1.4,6.9c-0.1,2.9,0.4,6.6,0.1,9.4c-0.2,3.3-0.5,6.8-2,9.8
			v0.2l7.2-4.4c3-1.9,5.5-4.3,7.5-7.2c2.6-3.7,3.9-8,3.9-12.6V55C130.2,55,130.1,55.1,130.1,55.1 M125.6,73.1c-1.7,2-3.7,3.8-6,5.3
			c-1.9,1.3-3.9,2.4-6.1,3.3c-2.8,1.1-5.3,2.6-7.5,4.4l-0.5,0.4c-0.1,0-0.1,0-0.1-0.1c0-0.1,3.6-3.7,4.7-11.2c0.1-2.8,0.6-5.4,1.2-8
			v-0.2c-2.5,3.1-4.4,6.6-5.7,10.3l-2.2,6.1c-0.8,2.8-2.4,5.3-4.4,7.3l-0.2,0.2v0.1c0.2,0,0.5-0.1,0.7-0.1l6.9-1.4
			c3.8-0.6,7.4-2.2,10.5-4.4c3.2-2.3,5.7-5.4,7.5-8.9c0.5-1,0.8-1.9,1.2-2.9C125.8,72.9,125.7,72.9,125.6,73.1 M115.1,89.1
			c-1.6,1.2-3.2,2-5,2.6c-2.5,0.7-5.3,1.2-7.9,1.2c-3.5,0.1-6.8,0.4-10.3,0.8c-0.2,0-0.4,0-0.2-0.1c3-1.2,5.4-3.6,6.7-6.5l3.3-6.8
			v-0.2c-0.2,0.1-3.6,3-5.1,4.4L90.9,90c-2.5,2.2-5.5,3.7-8.7,4.5H82l-0.1,0.1l6.5,1.6c2.7,0.8,5.6,1.3,8.5,1.6
			c7.3,0.7,14.4-2.6,18.4-8.6C115.3,89.1,115.2,89.1,115.1,89.1 M103.3,99.5c-3.5,1.7-7.3,2.2-11.1,1.3c-2.6-0.6-5-1.4-7.4-2.5
			l-5.3-2.2c-4.5-1.4-9.4-1.6-14.1-0.4h-0.5c-4.7-1.3-9.6-1.2-14.1,0.4c-1.8,0.6-3.5,1.4-5.3,2.2c-2.4,1.1-4.9,2-7.4,2.6
			c-3.7,0.8-7.7,0.4-11.1-1.3l-0.5-0.2c-0.1,0-0.1,0-0.1,0.1c2.3,2.4,5.3,4.1,8.4,4.9c2.2,0.6,4.4,0.7,6.6,0.5
			c3.3-0.5,6.6-1.7,9.3-3.6l5-3.3c1.9-1.2,4.2-1.7,6.3-1.2c1.2,0.1,0.2,0.7,0.1,0.8c-3,1.4-5.9,3.2-8.5,5.3c-1.8,1.3-5,4.4-5,4.4
			l2.4,2l2.6-2.9c3.2-3.3,6.9-6.2,11-8.5c0.4-0.2,0.7-0.2,1.1,0c4.1,2.3,7.8,5.1,11,8.5l2.6,2.9l2.4-2l-5-4.4
			c-2.6-2-5.5-3.8-8.5-5.3c-0.2-0.1-1.1-0.7,0.1-0.8c2.2-0.5,4.4,0,6.3,1.2l5,3.3c2.8,1.9,6,3.1,9.3,3.6c2.2,0.2,4.4,0.1,6.6-0.5
			c3.1-1,6.1-2.6,8.4-4.9c0,0-0.1-0.1-0.2-0.1L103.3,99.5"/>
	</g>
</g>
<path class="st1" d="M83.7,33.9c-0.4,0-0.5,0.4-0.1,0.6c0.4,0.1,0.6,0,0.8-0.1c0.2-0.1,0.5-0.4,0.5-0.7c0-0.4-0.5-0.8-0.2-1.1
	c0.2-0.2,0.6,0.1,0.8,0c0.2-0.1,0.4-0.4,0.4-0.6c0-0.2-0.1-1-0.6-1c-0.5,0-1,1-1,1c-0.1,0.2-0.1,0.6,0,0.8
	C84.4,33.3,84.3,33.9,83.7,33.9 M89.6,49.8c0.5-0.1,0.4-0.8,0-0.8c-0.4,0-0.8,0.6-0.7,0.6C89,49.6,89.3,50,89.6,49.8 M73.4,35
	c0.2,0.1,1.1-0.4,1-0.5c-0.1-0.1-1.2-0.6-1.2-0.4C73.2,34.7,73.3,34.9,73.4,35 M73.2,35.3c-0.4-0.1-1.7,1.4-1.4,1.7
	C72.4,36.6,72.8,36,73.2,35.3 M64.1,56.3c0.4-0.5-0.5-0.8-0.7,0C63.1,57.1,63.7,56.9,64.1,56.3 M16,19.2l5.3-4.3
	c1.6-1.6,3-3.2,4.2-5.1c1.2-1.9,2.7-3.7,4.4-5.3l0.4-0.4V3.9c-3,0.7-5.9,2-8.3,4.1C17.6,11.5,16.1,18.3,16,19.2 M9.7,24.8l0.1,5.7
	v1.8h0.1c1.7-2.2,3.6-4.1,5.6-5.9l4.8-4.1c1.9-2,3.1-4.5,3.7-7.2v-0.4h-0.1l-0.6,0.8c-1.1,1.4-2.5,2.8-4.1,3.7
	c-2.9,1.8-4.8,3.1-6.5,5.4c-0.1,0.1-0.2,0.1-0.1-0.1l1.1-3.9c0.6-2.3,0.8-5.3,1.7-7.3c0.5-1.2,1.3-2.4,2.3-3.3V9.9
	c-0.2,0-0.4,0.1-0.6,0.2c-3,1.6-5.1,4.1-6.3,6.9c-0.7,1.8-1.2,3.7-1.1,5.7V24.8 M5.4,42.3l2,6.2c0,0,0.1,0,0.1-0.1
	c1.1-3.2,2.7-6.2,4.7-9l0.4-0.5c1.7-2,3.1-4.2,4.3-6.5c0.7-1.7,1.8-5.3,1.9-5.6h-0.4c-1.2,1.8-2.6,3.3-4.3,4.8c-2,1.4-3.8,3.3-5,5.6
	C9,37.6,8.7,38,8.6,38.4l-0.7,2c0,0-0.1,0.2-0.1,0c0-0.2,0.2-3,0.2-3.5c0-2.4-0.2-4.8-0.7-7.1c-0.6-3-0.5-6,0.1-8.9
	c0-0.2,0.1-0.5,0.2-0.7c0-0.1,0.1-0.4,0.1-0.5s0-0.1-0.1-0.2c-3.1,3.8-4.9,10.8-4.2,16C4.1,37.9,4.7,40.2,5.4,42.3 M10.4,64.7
	c0.1-0.1,0.1-0.1,0.1-0.4c-0.2-3,0.1-6.1,1.3-8.9c1.7-4.5,2.9-9.2,3.6-14.1c0-0.6,0.1-1.7,0.1-1.9c-0.1,0-0.1,0-0.1,0.1
	c-1,2-2,3.9-3.2,5.7c-1.9,2.6-3.8,5.5-4.1,8.9c-0.1,1-0.1,1.9,0,2.9c0,0,0,0.1-0.1,0.1V57l-0.8-2.9c-1.7-5.5-5.5-9-5.5-17.1
	l-0.1-0.1c-0.2,0.5-0.4,1-0.6,1.4c-3.5,11.2,3.6,19.4,5,21.1C7.4,61.1,9.3,63.1,10.4,64.7 M11.7,75.2l7.2,4.4c0,0,0.1-0.1,0.1-0.2
	c-1.6-3.1-1.8-6.5-2-9.8c-0.2-3,0.2-6.6,0.1-9.4c-0.2-2.4-0.7-4.8-1.4-7.1c0-0.1-0.1-0.2-0.1-0.4l-0.1,0.1c-0.2,3.5-1.6,6.6-2,9.4
	c-0.5,3.3-0.2,6.8,0.7,10.2c0.1,0.1-0.1,0.2-0.1,0.1c-2.4-3.2-5-6.2-7.9-9c-2.5-2.4-4.4-5.3-5.5-8.5c0,0-0.1-0.1-0.2-0.1
	c-0.1,0,0,0.2,0,0.5c0,4.4,1.3,8.9,3.9,12.6C6.2,70.8,8.7,73.3,11.7,75.2 M31,90.8c0.2,0,0.4,0.1,0.7,0.1v-0.1l-0.2-0.2
	c-2-2-3.5-4.5-4.4-7.3l-2.2-6.1c-1.3-3.7-3.2-7.2-5.7-10.3v0.2c0.7,2.6,1.1,5.3,1.3,8c1.1,7.4,4.7,11,4.7,11.1c0,0.1,0,0.2-0.1,0.1
	L24.5,86c-2.3-1.8-4.8-3.3-7.5-4.4c-2.2-1-4.2-2-6.1-3.3c-2.3-1.4-4.3-3.2-6-5.3H4.8c0.4,1,0.7,1.9,1.2,2.9c1.8,3.5,4.4,6.6,7.7,8.9
	c3.1,2.4,6.7,3.9,10.5,4.4C26.4,89.7,28.7,90.3,31,90.8 M33.7,97.8c2.8-0.2,5.6-0.7,8.3-1.6l6.5-1.6h0.1c0,0,0-0.1-0.1-0.1h-0.1
	c-3.2-0.8-6.2-2.4-8.9-4.5l-5.6-5.4l-5.1-4.4v0.2c0.5,0.7,2.3,4.7,3.3,6.8c1.3,3,3.7,5.3,6.7,6.5c0.1,0.1,0,0.1-0.2,0.1
	c-3.3-0.5-6.8-0.7-10.3-0.8c-2.6,0-5.4-0.5-7.9-1.2c-1.8-0.6-3.5-1.4-5-2.6h-0.2c2.4,3.3,5.7,6,9.6,7.4
	C27.6,97.6,30.6,97.9,33.7,97.8 M100.7,4.6c1.7,1.6,3.1,3.3,4.4,5.3c1.2,1.9,2.5,3.6,4.2,5.1c1.1,1.1,4.3,3.6,5.1,4.3
	c-0.1-1-1.7-7.8-5.9-11.1c-2.4-1.9-5.3-3.3-8.3-4.1v0.2L100.7,4.6 M113,10.3c1,1,1.8,2,2.3,3.3c0.8,2,1.1,5,1.7,7.3l1.1,3.9
	c0,0.1-0.1,0.2-0.2,0.1c-1.8-2.2-3.9-3.9-6.5-5.4c-1.7-1-3-2.3-4.2-3.7l-0.6-0.8c0,0-0.1-0.1-0.2,0v0.4c0.6,2.6,1.8,5.1,3.7,7.2
	c1.6,1.4,3.2,2.8,4.8,4.1c2,1.7,3.9,3.7,5.7,5.7c0,0,0.1,0.1,0.1,0v-1.9l0.1-5.7v-1.9c0-1.9-0.4-3.9-1.1-5.7c-1.2-3-3.5-5.4-6.2-6.8
	c-0.1-0.1-0.4-0.1-0.6-0.2C112.9,10,112.9,10.1,113,10.3 M122.6,40.3l-0.7-1.9l-0.5-1.1c-1.2-2.2-2.9-4.1-4.9-5.5
	c-1.7-1.4-3.1-3-4.3-4.8h-0.4c0.1,0.4,1.2,3.9,1.9,5.6c1.2,2.3,2.6,4.5,4.3,6.5l0.4,0.5c2,2.8,3.6,5.7,4.7,9c0,0.1,0.1,0.1,0.1,0.1
	l2-6.2c0.7-2.2,1.3-4.4,1.8-6.7c0.7-5.4-1-12.2-4.1-16c0,0-0.1,0.1-0.1,0.2l0.1,0.5l0.2,0.7c0.6,2.9,0.7,6,0.1,8.9
	c-0.5,2.3-0.6,4.7-0.6,7.1c0,0.4,0.2,3.3,0.2,3.5c0,0.1-0.1,0-0.2,0 M122.5,57C122.6,57,122.6,57,122.5,57
	C122.5,57.1,122.5,57,122.5,57c0-1,0-1.9-0.1-2.9c-0.2-3.3-2.3-6.1-4.1-9c-1.2-1.8-2.3-3.7-3.2-5.7c0,0-0.1-0.1-0.2-0.1
	c0,0.2,0,1.3,0.1,1.9c0.6,4.8,1.8,9.6,3.6,14.1c1.1,2.9,1.4,5.9,1.2,8.9c0,0.2,0,0.2,0.1,0.4c1.1-1.6,3.2-3.7,4.5-5.4
	c1.3-1.7,8.5-9.8,5-21.1c-0.1-0.5-0.4-1-0.6-1.4l-0.1,0.1c0,8.1-3.9,11.6-5.5,17.1C122.8,55.2,122.6,56.2,122.5,57"/>
<path class="st1" d="M45.3,50.9c0.2-0.7,0.4-1.4,0.4-2.2c0-0.6-0.4-1.1-0.5-1.1c-0.1,0,0,0.4,0.1,1c0,0.6-0.2,1.2-0.4,1.8
	C45,50.6,45.2,51.2,45.3,50.9 M45.6,53.1c0-0.2,0-1.2-0.2-1.4c-0.2-0.2-0.2,0.1-0.4,0.1c-0.1,0-0.1-0.5-0.2-0.5
	c-0.1,0,0,0.7,0.2,1.2C45.2,53,45.6,53.7,45.6,53.1 M55.1,53.1c0.2,0,0.4-0.7,0.2-1.1c-0.1-0.4-0.8-0.1-0.8,0.1
	C54.5,52.4,55,53.1,55.1,53.1 M62.5,45.3c-0.6-0.1-0.5,0.2-1,0.2c-0.7,0.1-0.1-0.5-0.4-0.7c-0.1-0.1-0.5,0.5-0.6,0.8
	c0,0.2,0,0.7,0.2,0.8l2.3,0.2C63.6,46.7,63.1,45.4,62.5,45.3 M61.1,44.3c0.4,0,0.4-0.2,0.5-0.2c0.1,0,0,0.2,0.4,0.2
	c0.4,0,0.7-0.8-0.4-0.8C60.8,43.5,60.9,44.3,61.1,44.3 M63.4,52.4c-0.2-0.1-0.6,0.1-0.7-0.1c-0.1-0.2-0.4-0.1-0.4,0
	c0,0.1-0.1,0.4,0.1,0.6c0.2,0.2,0.7,0.2,1,0C63.5,52.7,63.5,52.5,63.4,52.4 M74.3,6.2c-1.1-0.5-5-0.5-4.9,0.6c0.1,1.1,2.3,0,2.9,0
	C72.8,6.8,75.2,6.7,74.3,6.2 M69.5,8.6c-0.8-0.5-0.1-1.2-0.7-1.7c-0.7-0.2-1.4-0.1-1.9,0.4C66.3,8,67.6,7.7,67.9,8
	c0.4,0.2,1.6,1.1,1.7,1C69.7,8.8,69.6,8.6,69.5,8.6 M87.4,13.7c0.4,0.1,0.4-0.6-0.2-1.1c-0.6-0.5-1.6-0.2-1.3,0
	C86.4,13,86.8,13.5,87.4,13.7 M91.6,34.1c0,0.2,0.6,1.8,0.7,2.2c0.1,0.4,0.2,1.7,0.5,1.6c0.2-0.1,0.2-0.8,0.1-1.2
	c-0.1-0.8-0.4-1.8-0.6-2.5c-0.1-0.5-1-2.3-1.2-2.2c-0.2,0.1,0.4,1.2,0.5,1.7C91.7,34.1,91.5,33.8,91.6,34.1"/>
<path class="st1" d="M33.7,15.5l4.9,4.9c-6.2,6.6-9.8,15.2-10,24.2h-6.9C22,33.7,26.3,23.3,33.7,15.5 M64.3,2v6.9
	c-9,0.2-17.6,3.8-24.2,10l-4.9-4.9C43.1,6.5,53.5,2.2,64.3,2 M65.4,37.6c0.1,0.2,0,0.5-0.1,0.6c-0.2,0.2-1-0.6-1.1,0.1
	c-0.2,0.7,0.5,0.4,0.5,0.5c0.4,0.5,0.8,0.7,1.4,0.8c0.5,0,1.2,0,1.2,0.5c0,0.2,0.6,0.2,0.7,0.5c0,0.4,0.4,1,0.6,0.8
	c0.2-0.1,0.6,0.1,0.7,0.4c0.1,0.2,0,0.4-0.1,0.6c-0.4,0.4,0.4,0.2,0.5,1c0.1,0.7-0.6,0.2-0.7,0.7c-0.2,0.4-0.5,0.6-0.7,1
	c-0.1,0.1,0.1,0.4,0.2,0.2c0.1-0.1,0.4-0.5,0.7-0.5c0.4,0,0.7,1.3,1.1,1.4c0.4,0.1,0.2,0.6,0.4,0.7c0.1,0.1-0.6,0-0.5,0.2
	c0.1,0.2,0.8,0.4,0.8,0.7c-0.1,0.4-0.4,0.7-0.8,0.7c-0.4,0-1-0.8-1-0.6c0,0.2,0.2,1,0.6,1s1.2-0.4,0.8,0.1c-0.4,0.5-0.2,1.2-0.5,1.2
	c-0.2,0-0.4,0-0.1,0.4c0.1,0.4,0,0.7-0.2,1.1c-0.2,0.2-0.8,0-0.8-0.1c0-0.1,0.7-0.1,0.7-0.5c0-0.4-0.4-0.5-1.1-0.2
	c-0.4,0.1-0.5-0.1-0.7-0.1s-1,0.8-1,1c0,0.1,0,0.4,0,0.6c0,0.5-0.1,0.8-0.4,1.2c-0.5,0.1-0.8,0.1-1.3,0.1c-1.9,0-3.8-0.8-5.3-2
	c0.2-0.1,0.6-0.2,1-0.2c0.4,0.1,0.5-0.1,0.7-0.2c0.2-0.1,0.8,0.2,1.2,0c0.4-0.2,1.2-1.8,1.1-2.2c-0.1-0.4,0.8-1,0.7-1.1
	c-0.1-0.1-0.2,0.1-0.2,0c0-0.1,0.2-0.1,0-0.6c-0.2-0.5-0.6-0.2-0.8-0.2c-0.4-0.2-1-0.4-1.1-0.2c-0.1,0.1-0.5-0.2-0.6-0.1
	c-0.1,0-0.4,0.1-0.4,0.4c-0.1,0.2,0.1,0.5,0.1,0.7c-0.1,0.5-0.8,0.8-0.8,1.2s-0.4,0.1-0.5,0.2c-0.1,0.1,0,0.4-0.2,0.4
	c-0.2,0-0.6,0.6-0.8,1.1c-0.4-0.5-0.7-1.1-1.1-1.6c0.2-0.1,0.5-0.2,0.6-0.1c0.4,0.2,1.8-2.3,1.6-3c-0.2-0.7-0.6-0.2-1-0.1
	c-0.4,0.1-0.4-0.2-0.2-0.4c0.1-0.1,1.7-0.1,0.8-0.6c-0.4-0.2-1.3-0.2-1.2-0.6c0.1-0.4,0.6,0,0.7,0c0.6,0.2,1-1,1.3-1
	c0.6,0,0.4-1.2-0.2-0.8s-0.8,0.2-1.1,0.6c-0.2,0.4-0.8,0.8-0.8,0.4c0-0.2,1.3-1,1.6-1.3c0.2-0.2,0.5-0.6,0.6-1
	c0.1-0.4,1.8-0.6,2.2-0.8c0.2-0.2,0.5-0.6,0.5-1c0-0.4-0.5-0.2-0.6-0.5c-0.1-0.2,0.6,0,0.6-0.4s-0.6,0-0.8-0.2c0-0.1,0-0.1,0.1-0.2
	C63.9,37.8,64.6,37.6,65.4,37.6h0.2 M66.3,28.8c3.8,0.2,7.4,1.7,10.2,4.2l-0.2,0.2l-0.2-0.1c-0.6-0.2-1.8,1-1.6,1.1
	c0.2,0.1,0.7-0.5,1-0.4h0.1l-2,2.2c-0.6,0.2-1.2,0.7-1.2,1.1v0.1l-0.7,0.7l-0.4-0.4c-0.6-0.5-1.2-0.8-1.9-1.1
	c0.4-0.2,0.5-0.6,0.6-1.1c0-0.7-0.2-0.5-0.6-0.1c-0.4,0.4-0.7,0.5-1,0.8c-0.6-0.2-1.3-0.4-1.9-0.4v-6.9H66.3z M66.3,19.8
	c6.1,0.2,12,2.6,16.5,6.8l-4.9,4.9c-3.2-2.9-7.3-4.5-11.6-4.8V19.8z M66.3,11c5.1,0.1,10.1,1.4,14.7,3.7c0.1,0.7,0.5,1.6,1,2.2
	c0.2,0.6,0.6,1.1,1,1.7c0.4,0.4,0.1,1.1,0.2,1.7c0,0.2,0.2,0.5,0.4,0.7v1c0,0.1,0.5,0.1,0.8-0.1s0.6-0.7,1.1-0.6
	c0.5,0.1,1.1,1.1,1.4,1.7l-2.3,2.3c-0.2-0.5-0.5-1.1-0.4-1.1c0.1,0,0.4,0.1,0.5,0.1c0.5,0-0.4-0.4-0.4-0.5c-0.4-0.4-0.4-0.8-0.8-1.2
	c-0.5-0.4-1.2-0.1-1.4-0.6c-0.5-0.8-1.1-1.6-1.9-2.2c-0.1,0,1,1.3,0.6,1.6c-0.4,0.2-1.7-0.8-1.8-0.6c-0.1,0.2,1.4,0.8,1.9,1.3
	c0.2,0.2,0.7,1,1.2,1.6c-4.5-3.5-10-5.4-15.8-5.6V11z M66.3,2c10.9,0.2,21.3,4.5,29.2,12.1l-4.8,4.8c-0.2-0.1-0.5-0.2-0.4-0.5
	c0.2-0.4-0.4-0.4-0.5-1.3c-0.2-1-1-1.8-1.8-2.3c-0.6-0.4-1-0.8-1.6-1.1c-0.6-0.2-1.8-1-2.4-0.7c-0.4,0.1-0.8,0.2-1.2,0.2
	c-5.1-2.8-10.8-4.2-16.5-4.3L66.3,2z M108.8,44.6h-7.1c-0.1-5.1-1.3-10.2-3.6-14.8l0.1-0.1c0.5-0.5-2.3-4.1-2.8-4.4
	c-0.5-0.4-1-1-1.6-1.6c-1-1-1.9-2-2.6-3.1l5.1-5.1C104.3,23.3,108.6,33.7,108.8,44.6 M96.6,75.7l-4.9-4.9c6.2-6.6,9.8-15.2,10-24.2
	h7.1C108.6,57.5,104.3,67.8,96.6,75.7 M77.9,61.2c0.7,0.1,1.6,0.2,2.3,0.5c0.5,0.2,0.8,0.7,1.2,0.1c0.7-1.1,1.2-2.3,1.4-3.6
	c0.2-1.8-0.1-2.4-0.4-2.4s-0.7,0.5-1.2,0.5c-0.2,0-0.2,0.5-0.2,0.8c0,0.4-0.5,0.7-0.6,0.5c-0.1-0.2-0.4-0.1-0.2,0.1
	c0.1,0.2-1,0.1-1.4-0.1c-0.7-0.4,0.8-0.4,1.6-1c0.6-0.5,1.2-1.1,1.8-1.7c0.4-0.6,0.4-1.3,1-1.8c0.6-0.5,1.6-0.4,1.7-1.1
	c0.1-0.7,0.2-0.6,0.6-0.5c0.4,0.1,3.7-0.1,3.7-1.2c0-0.5-0.7-1.1-1.4-1.2c-0.5,0-0.6-1-0.8-1.4c-0.2-0.5-0.5-1-0.8-1.4h5
	c-0.2,6.1-2.6,12-6.8,16.5L84,62.8v-0.5c0.1-1-0.6-2.5-0.8-2.3c-0.2,0.2,0,0.2-0.7,1.3c-0.2,0.4-0.6,1-1.1,1c-0.5,0-0.5-0.2-1.2-0.1
	c-0.6,0.1-1.3,0.1-1.9,0c-1.1-0.4-2.2-0.8-3.2-1.6c0.1-0.1,0.5,0.1,0.5-0.2C75.5,60,77.4,61.1,77.9,61.2 M79.8,36.9l-0.2,0.4
	c-0.1,0.2-0.7-0.2-0.8-0.1c-0.1,0.1,0.8,1.3-0.1,1s-0.4-0.4-0.4-0.7c0-0.4-0.8-0.6-0.4-0.8c0.5-0.2,0-0.6,0.5-0.7
	c0.5-0.1,0.4-0.6-0.2-0.7c-0.6-0.1-0.5,1.3-0.8,1.1c-0.4-0.1-0.7-0.1-1.1-0.1l1.7-1.7c0.2,0.1,0.4,0.1,0.6,0.1
	C78.7,35.5,79.3,36.2,79.8,36.9 M88,33.6c0,0,0,0.1-0.1,0.1c-0.1,0.1-0.7-0.8-0.7-0.1c0,0.7,0.2,1,0.7,1.1c0.5,0.1,0.2,0.4,0.6,0.5
	c0.1,0,0.4,0.1,0.5,0.2c0.6,1.3,1,2.6,1.3,4.1c-0.2,0.1-0.4,0.2-0.5,0.4c-0.2,0.2-0.1,0.7-0.4,1.1c-0.4,0.6-0.5,1-1.4,0.7
	c-0.6-0.2-0.1-1,0-1.6c0.1-0.6,0.4-0.5,0.4-0.8c0-0.4-1.2-1.7-1.8-1.2c-0.6,0.5-0.5,1-1,1.4c-0.2,0.2-0.5,0.2-0.8,0
	c-0.4-0.2-0.5-0.5-0.4-0.7c0.1-0.2-0.8-1.3-1.2-1.8c-0.5-0.6-1.2-1-1.9-1c-0.6-1.1-1.4-2.2-2.3-3.1L84,28
	C85.6,29.8,86.9,31.5,88,33.6 M87.1,43.4c-0.6-0.8,0.2-1,1.1-1.3c0.5-0.2,1.1,0.1,1.1-0.1c0-0.2,0.2-0.7,0.5-0.8
	c0.2-0.1,0.6-0.4,0.7-0.6c0,0.2,0.1,0.5,0.1,0.7c-0.2,0.5-0.4,0.8-0.4,1.3c0,0.4,0,0.8,0.4,0c0-0.1,0.1-0.1,0.1-0.2
	c0.2,0.8,0.2,1.6,0.2,2.3h-5.1v-0.1C86.1,43.9,87.4,44,87.1,43.4 M84.1,72c0.4-0.6,1.1-1.7,1.4-2.3c0.4-0.6-1-1.4-1.7-1.7
	c-0.7-0.2-0.7-0.6-0.7-1.2c0.4-0.2,0.7-0.6,1.1-1l4.9,4.9c-1.7,1.6-3.3,2.9-5.3,4.1c-0.1-0.2,0.7-1.1,1-1.4
	C85,73.1,83.8,72.6,84.1,72 M89.8,67.2c-0.2-0.5-0.4-1.1-0.6-1.6c-0.1-0.5-1.1-0.5-1.1-0.2c0,0.5,0,1-0.1,1.4V67l-2.5-2.5
	c4.5-4.9,7.2-11.2,7.4-17.9h6.9c-0.2,8.5-3.6,16.6-9.4,22.7l-0.4-0.4C90.2,68.4,90.1,67.8,89.8,67.2 M85.6,26.6l1.7-1.7
	c0.5,0.5,1,0.8,1.7,1c0.6,0.1,0.8,0.4,1,1c0.1,0.6,0.7,0.8,1.3,1c0.6,0.1,1,0.8,1.4,0.8c0.5,0,2,2.2,2.6,2.9c0.4,0.4,0.8,1,1.2,0.5
	c0.4-0.5,0.4-0.4,0.6-0.5c1.8,4.1,2.9,8.6,3,13h-6.9c0-1.6-0.2-3.1-0.6-4.7c0.2-0.5,0.4-1,0.4-1.6c0-0.5-0.5-0.7-0.8-0.4
	c-0.2-1-0.6-1.8-1-2.6c-0.1-0.5-0.2-1.1-0.4-1.6c0-0.1-0.2-0.2-0.5-0.5c-0.2-0.5-0.4-0.8-0.6-1.2c0.4-0.2,0.5-0.8,0-0.7
	c-0.7,0.1-0.2-0.4-0.5-0.6s-0.2,0-0.4,0.1c-1-1.4-1.9-2.7-3.1-4.1v-0.1C85.5,26.8,85.5,26.6,85.6,26.6 M66.3,89.2v-7.1
	c3.6-0.1,7.2-0.7,10.6-1.9c0.1,0.1,0.2,0.1,0.4,0.1c0.5,0,1-0.2,1.3-0.5c1.2-0.5,2.3-1.1,3.2-1.8c3.1-1.6,6.1-3.7,8.6-6.1l4.9,4.9
	C87.5,84.5,77.1,88.8,66.3,89.2 M66.3,71.4v-0.8c1.6-0.2,1.2,0.7,2.3,0.4c0.4-0.1,0.7,0,1,0.2C68.4,71.1,67.3,71.3,66.3,71.4
	 M70.3,72.8c0.6,0.2,1.2,0.7,1.6,1.2c0.4,0.6,0.5,0.8,0.2,1.4c-0.6,1.1-0.4,1.8,0.8,2.2c0.7,0.2,1,1,1.4,1.4
	c-2.6,0.7-5.4,1.1-8.1,1.2v-6.9C67.6,73.2,69,73.1,70.3,72.8 M64,61.7c-0.4-0.2-0.6,0.2-1.1,0.5c-3.3-0.5-6.3-1.9-8.9-4.1l4.9-4.9
	c1.6,1.2,3.3,2,5.3,2.2c0,0.2,0.2,0.5,0.2,1s-0.4,0.7-0.2,1c0.1,0.2,1.2,0,1.3-0.4c0.1-0.4-0.4-0.6-0.5-1c-0.1-0.2-0.1-0.4-0.2-0.6
	h0.4c0.4,0,0.7,0,1.1-0.1c0.1,0,0.2-0.1,0.2-0.2c0-0.1,0.1-0.2,0.1-0.4c0-0.1,0.1-0.1,0.1-0.2l0.1,0.1c0.1,0.2,0.4,1,0.6,0.8
	c0.2-0.1,0.4-1.2,0.2-1.4c-0.2-0.4-0.2-0.7,0-1.1c0-0.1,0.1-0.8,0.4-0.7c0.2,0.1,0,0.7,0,1c0,0.4,0.2,0.8,0.6,0.6
	c0.2-0.1,0.5-0.5,0.7-0.4c0.2,0.1-0.6,0.4-0.7,0.6c-0.1,0.2,0.4,0.4,0.2,0.5c-0.1,0.1-0.2,0-0.4,0.1c-0.1,0.1,0.2,0.8,0,1
	c-0.2,0.1-1.1,0.4-1.3,0.5c-0.2,0.1-0.5-0.1-0.4-0.2c0.1-0.1,0-0.6-0.2-0.6s-0.2,0.1-0.2,0.4c0,0.2,0.2,0.6,0.2,0.7
	c0,0.1-0.4,0.2-0.6,0.4c-0.2,0.4-0.6,0.7-1,1C64.7,57.7,64,57.7,64,58c0,0.2,0.4,0.2,0.5,0.4c0.2,0.4,0.4,0.8-0.1,1.1
	c-0.5,0.2-1.1-0.4-1.3-0.2c-0.2,0.1-0.4,0.7-0.5,1.4c-0.1,0.7,1.3,1,2,0.6c0.5-0.2,0.4-1,0.8-1.2c0.5-0.2,0.4-0.7,0.8-0.6
	c0.5,0.1,0.4-0.4,0.8-0.4c0.5,0,0.5,0.4,1.1,0.5c1,0.2,1,1,1.1,0.6c0.1-0.4,0.2-0.6-0.5-0.8c-0.7-0.2-1.1-1.1-0.5-0.8
	c0.7,0.4,1.3,0.4,1.4,0.7c0.1,0.4,0.8,0.2,1,0.6c0.1,0.6,0.6,0,0.2-0.4c-0.4-0.4-0.2-0.5,0-0.7c0.2-0.2,0.4,0.1,0.7-0.4
	c0.4-0.5-0.1-0.4-0.2-0.6c-0.1-0.2,0-1.6,0.5-1.3c0.5,0.2,1-0.1,0.7-0.2c-0.2-0.1,0.1-0.8,0.2-0.8c0.1,0,0,0.5,0.1,0.6
	c0.1,0.1,1.3-0.4,1.4,0.2c0.1,0.6-0.8,1-1.1,1c-0.5,0-0.8,0.5-1.2,1c-0.4,0.5-0.7,0.6-0.5,1.1c0.2,0.5,0.7,0.4,1.2,0.1
	c0.5-0.2,0.8-0.6,1.1-0.7c0.5-0.2,0.8,1.2,0.6,1.4c-0.2,0.2-0.7,0.4-1,0.6c-0.7,0.4-1.4,0.7-2.3,0.7c-0.5,0.1-0.5,0.2-0.6,0.7
	c-0.1,0.5-2.3,0.1-2.8,0.1c-0.5,0,0.4-1.1-0.4-1s-1.4,0.2-2.2,0.4C65.3,61.6,64.6,62.2,64,61.7 M64.2,71.3c-6.1-0.2-12-2.6-16.5-6.8
	l4.9-4.9c2.3,2,5,3.6,8.1,4.3c-1.1,0.5-1.6,1.2-1.4,1.8c0.1,0.6-0.7,1-0.7,1.7s1,1.2,1.1,1.9c0.1,0.4,1,1,1.7,1.4
	c1,0.2,1.9,0.4,2.8,0.2L64.2,71.3z M64.2,80.2c-8.5-0.2-16.6-3.6-22.8-9.4l0.8-0.8c0.1,0.1,0.4,0.2,0.6,0.4c0.5,0.2,1.1,0.4,1.7,0.2
	c0.5-0.1,1.4-1,2-1c0.6,0,1.6,0.2,2.2-0.1c0.6-0.4-0.4-1.6-0.7-2.2c-0.1-0.1-0.1-0.2-0.2-0.4c4.7,3.9,10.6,6.2,16.7,6.3L64.2,80.2z
	 M64.2,89.1C53.3,88.8,42.9,84.5,35.2,77l4.9-4.9c6.6,6.2,15.2,9.8,24.2,10V89.1z M37.6,46.5c0,1.3,0.1,2.5,0.4,3.8
	c-0.1,0-0.1-0.4-0.5-0.2c-0.4,0.1-1.7,2.4-2.3,3.3c-0.5,0.8,0.2,2.6-0.5,3.2C34,56.9,33.2,57,32.5,57h-0.1
	c-1.2-3.3-1.8-6.8-1.9-10.3L37.6,46.5z M45,26.6c-4.5,4.9-7.2,11.2-7.4,17.9h-6.9c0.2-8.5,3.6-16.6,9.4-22.8L45,26.6z M46.4,25.3
	l-4.9-4.9c6.2-5.9,14.4-9.2,22.8-9.4v6.9C57.6,18.2,51.2,20.8,46.4,25.3 M52.6,31.7l-4.8-4.9c4.5-4.2,10.4-6.6,16.5-6.8v6.9
	C60,27,56,28.7,52.6,31.7 M48.8,48.8l0.2,0.4c0.2,0.2,0.5,0.5,0.7,0.4c0.2-0.1,0.8,0,1,0c0.4,0.1,0.6,0.4,0.8,0.6
	c0.2,0.4,0.7,0.1,1.1,0.4c0.4,0.2,0.7,0.5,0.2,0.7c-0.5,0.2,0.5,0.7,0.6,0.7c0.1,0,0.2-0.2,0.2-0.6c0-0.1,0.2-0.6,0.6-0.5
	c0.4,0.1,1.4,1.4,1.8,1c0.4-0.5,0.1-1.1,0.2-1.3c0-0.1,0.1-0.2,0.2-0.2c0.4,0.6,0.6,1.1,1.1,1.6l-4.9,4.9
	C50.7,54.5,49.3,51.8,48.8,48.8 M46.6,43.1c0,0.5-0.1,1-0.1,1.4H44c-0.1-0.4,0-0.7,0.2-1.1c0.2-0.5,0.8-0.7,1.4-0.6
	C45.9,42.9,46.3,43,46.6,43.1 M52.6,34.4l4.3,4.3h-0.5c-0.5,0-0.5-0.4-0.8-0.4c-0.7,0.1-0.8,0.4-1,0.2c-0.5-0.5-1.1-0.8-1.8-1.2
	c-0.8-0.2-1.7-0.2-2.4,0.1c-0.1,0-0.1,0.1-0.2,0.1C51.1,36.6,51.9,35.5,52.6,34.4 M48.1,38c-0.1,0-0.1,0.1-0.2,0.1
	c-0.4,0.4-1.3,0.2-1.2,0.6c0.1,0.4,2.6-0.8,2.6-0.6c0,0.2-1.1,0.6-1.8,1c-0.7,0.4-1,1-2.2,1c-0.6,0-0.8,0.5-1.1,0.8
	c-0.4,0.5-0.6,1-0.8,1.4c0,0.7-0.1,1.4-0.5,2.2h-3.5c0.2-6.1,2.6-12,6.8-16.5l4.9,4.9C50,34.5,48.9,36.2,48.1,38 M40.7,68.7
	l-0.6,0.6l-0.8-0.8C39.7,68.3,40.2,68.4,40.7,68.7 M40.1,51c-0.4-1.4-0.5-3-0.6-4.5h2.9c-0.2,0.4-0.8,0.7-1,1.1
	c-0.1,0.4-0.8,1.6-0.4,2C42.1,50.8,40.8,51.3,40.1,51 M44.7,59.4c-0.4-0.6-0.5-1.4-0.5-2.2c0-0.7-0.2-1.4-0.6-2
	c-0.1-0.5-0.2-1-0.2-1.4c0-0.8-0.7-0.6-0.7-0.8c0-0.2,0.6,0,0.6-0.2c0-0.2-0.7-1.2-1.3-1.4c-0.6-0.2-0.4-0.6-0.4-1
	c0-0.4,0-0.7-0.2-1c-0.1-0.5,0-1.3,0.6-1.3c0.2,0,0.6,0.2,1,0c0.4-0.2,0.1-1,0.1-1.6h3.3c0,0.5,0.1,1.1,0.1,1.6
	c-0.2,0.1-0.4,0.4-0.2,0.5c0.1,0.1,0.2,0.2,0.4,0.1c0.6,3.5,2.2,6.7,4.5,9.3l-4.9,4.9c-0.4-0.4-0.7-0.8-1.1-1.3v-0.4
	c0-0.8-0.6-1.3-0.8-2 M57.6,47.9C57.6,47.9,57.6,48.1,57.6,47.9v0.2c0-0.2-0.1-0.4-0.2-0.6c-0.1-0.1-0.2-0.2-0.4-0.2h-0.6l-0.2,0.1
	h-1.7c-0.2,0-0.4,0-0.4-0.1c-0.1-0.5,0.6-0.1,1.1-1.6c0.1-0.1,0.1-0.4,0.2-0.5l0.1-0.2l0.2-0.2c0.2-0.2,0.5-0.2,0.7-0.2h0.2l0.2,0.2
	l0.4,0.7c0.1,0.1,0.2,0.1,0.2,0.2c0.2,0.1,0.4,0.2,0.5,0.4l0.1,0.1v0.1c0.1,0.1,0.1,0.1,0.2,0.1H59c0.2-0.1,0.2,0,0.4,0v0.1
	c0,0.1,0,0.1-0.1,0.2c0,0.1-0.1,0.1-0.1,0.2c-0.1,0.1-0.2,0.2-0.4,0.2c-0.2,0-0.5-0.1-0.6-0.1c-0.1,0-0.2,0-0.2,0.1v0.6 M61.4,36.6
	l-0.5,0.2c-0.7,0.4-1.3,0.7-1.8,1.2l-4.9-4.9c2.9-2.5,6.5-4.1,10.2-4.2v6.9c-0.8,0.1-1.7,0.2-2.5,0.6c0.2-0.5,0.7-1,0.7-1
	S61.7,36,61.4,36.6 M21.8,46.5h6.9c0.1,3.6,0.7,7.1,1.8,10.4c-0.4-0.1-0.7-0.2-1.1-0.5c-0.5-0.2-0.8,0.1-1,0.1c-0.5,0-1.1-0.4-1.1,0
	c0,0.4,0.5,0.1,0.5,0.4c0,0.2-1.2,0.2-1.3-0.2c-0.1-0.5-0.4-1-0.5-0.4c-0.1,0.6-0.6,0.5-0.8,0.6C25.1,57,25,57.3,25,57.5
	c0,0.2-0.6,0.1-0.6,0.5c0,0.4,0.4,0.5,0.5,0.8c0.1,0.4,0.5,0.6,0.2,0.7c-0.2,0.1-0.1-0.1-0.4,0c-0.2,0.1,1.1,3.7,1.3,3.6
	c0.2-0.1-0.4-1.2-0.4-1.7c0-0.5,0.1-0.6,0.5-0.8c0.4-0.2,1.3,1.4,1.7,1.2c0.4-0.2-0.1-0.5,0.2-0.6c0.4-0.1,1.4,1.6,1.8,1.1
	c0.2-0.4,0.5,0.2,0.5,0.4c0.4,0.6,1,0.6,1.3,1.3c0.4,0.7,1.2,2,1.8,2s0.2-0.6,0.5-0.6c0.2,0,0.5,0.8,0.8,1.3
	c0.2,0.4,0.6,0.6,1.1,0.7c0.8,1.1,1.8,2.2,2.8,3.2l-4.9,4.9C26.2,67.9,21.9,57.5,21.8,46.5 M33.1,77.7c17.8,17.8,46.5,17.8,64.4,0
	c17.8-17.8,17.8-46.5,0-64.4c-17.8-17.8-46.5-17.8-64.4,0C15.3,31.2,15.3,60,33.1,77.7"/>
</svg>
