<svg xmlns="http://www.w3.org/2000/svg" width="81.5" height="29.213" viewBox="0 0 81.5 29.213">
  <g id="lumin-Logo" transform="translate(0 0.005)">
    <g id="Group_1" data-name="Group 1" transform="translate(29.118 0.637)">
      <path id="Path_1" data-name="Path 1" d="M86.561,18.306a3.043,3.043,0,0,1-1.635-.385,2.308,2.308,0,0,1-.9-1.012,3.166,3.166,0,0,1-.284-1.33V1.51h2.309V14.438a5.579,5.579,0,0,0,.114,1.33.732.732,0,0,0,.453.546,3.13,3.13,0,0,0,1,.123l-.267,1.868h-.8Z" transform="translate(-83.74 -1.51)" fill="#fff"/>
      <path id="Path_2" data-name="Path 2" d="M100.72,26a4.546,4.546,0,0,1-2.419-.585,3.5,3.5,0,0,1-1.415-1.7,7.059,7.059,0,0,1-.466-2.707V14.86h2.309v5.824a4.512,4.512,0,0,0,.559,2.487,2.037,2.037,0,0,0,1.83.839,3.054,3.054,0,0,0,1.631-.441,2.626,2.626,0,0,0,1.055-1.347l-.377,1.216V14.86h2.309V25.776h-2.1l-.288-2.033.551.529a3.5,3.5,0,0,1-1.288,1.258,3.757,3.757,0,0,1-1.893.466Z" transform="translate(-91.049 -9.205)" fill="#fff"/>
      <path id="Path_3" data-name="Path 3" d="M124.644,25.492V14.572h1.889l.309,1.877-.61-.411a6.181,6.181,0,0,1,1.779-1.258,4.878,4.878,0,0,1,2.033-.419,4.536,4.536,0,0,1,1.546.258,3.31,3.31,0,0,1,1.254.834,4.131,4.131,0,0,1,.877,1.525l-.6-.212A3.97,3.97,0,0,1,134.645,15a4.651,4.651,0,0,1,2.537-.64,4.578,4.578,0,0,1,2.368.559,3.409,3.409,0,0,1,1.411,1.635,6.688,6.688,0,0,1,.466,2.647v6.286h-2.309V19.3a3.707,3.707,0,0,0-.546-2.249,2.122,2.122,0,0,0-1.8-.712,2.95,2.95,0,0,0-1.292.25,1.967,1.967,0,0,0-.792.674,2.792,2.792,0,0,0-.394.945,4.913,4.913,0,0,0-.11,1.059v6.223h-2.309V19.532a5.346,5.346,0,0,0-.275-1.9,1.874,1.874,0,0,0-.8-1,2.568,2.568,0,0,0-1.283-.3,3.375,3.375,0,0,0-1.8.466A2.772,2.772,0,0,0,126.6,18.2l.352-1.25v8.54H124.64Z" transform="translate(-107.315 -8.917)" fill="#fff"/>
      <path id="Path_4" data-name="Path 4" d="M170.22,6.551V4.12h2.309V6.551Zm0,13.038V8.669h2.309V19.586H170.22Z" transform="translate(-133.587 -3.014)" fill="#fff"/>
      <path id="Path_5" data-name="Path 5" d="M181.9,25.5V14.578h1.978l.275,2.067-.707-.551a5.577,5.577,0,0,1,1.868-1.326,5.287,5.287,0,0,1,2.033-.4,3.82,3.82,0,0,1,3.291,1.385,6.035,6.035,0,0,1,1.029,3.685v6.053H189.36V19.538a4.017,4.017,0,0,0-.585-2.419,2.336,2.336,0,0,0-1.978-.775,3.436,3.436,0,0,0-1.809.47,2.669,2.669,0,0,0-1.131,1.4l.352-1.271v8.552H181.9Z" transform="translate(-140.32 -8.923)" fill="#fff"/>
    </g>
    <g id="Group_2" data-name="Group 2" transform="translate(62.392 20.656)">
      <path id="Path_6" data-name="Path 6" d="M164.81,57.719a6.621,6.621,0,0,1-.957-.072,7.066,7.066,0,0,1-.885-.186,4.537,4.537,0,0,1-.678-.241l.144-1.114a7.094,7.094,0,0,0,.72.3,6.769,6.769,0,0,0,.911.258,4.863,4.863,0,0,0,.991.106,2.219,2.219,0,0,0,1.182-.271.93.93,0,0,0,.436-.851,1.1,1.1,0,0,0-.22-.712,1.757,1.757,0,0,0-.665-.474,9.987,9.987,0,0,0-1.11-.4,7.292,7.292,0,0,1-1.169-.445,2.261,2.261,0,0,1-.856-.686,1.864,1.864,0,0,1-.322-1.148,1.884,1.884,0,0,1,.318-1.08,2.087,2.087,0,0,1,.932-.737,3.786,3.786,0,0,1,1.508-.263,5.574,5.574,0,0,1,1.4.165,5.973,5.973,0,0,1,1.051.364l-.11,1.114a4.953,4.953,0,0,0-1.2-.534,4.4,4.4,0,0,0-1.182-.161,2.235,2.235,0,0,0-1.123.254.878.878,0,0,0-.445.826.978.978,0,0,0,.2.631,1.571,1.571,0,0,0,.589.419,9.072,9.072,0,0,0,.974.352,7.485,7.485,0,0,1,1.381.555,2.4,2.4,0,0,1,.885.767,1.981,1.981,0,0,1,.309,1.127,2.109,2.109,0,0,1-.186.894,1.763,1.763,0,0,1-.563.678,2.68,2.68,0,0,1-.94.428,5.3,5.3,0,0,1-1.317.148Z" transform="translate(-162.29 -49.306)" fill="#00b2e3"/>
      <path id="Path_7" data-name="Path 7" d="M179.647,60.887a2.667,2.667,0,0,1-1.444-.377,2.485,2.485,0,0,1-.915-1.012,3.328,3.328,0,0,1,0-2.838,2.485,2.485,0,0,1,.915-1.012,2.956,2.956,0,0,1,2.889,0,2.455,2.455,0,0,1,.915,1.012,3.189,3.189,0,0,1,.318,1.419,3.133,3.133,0,0,1-.318,1.419,2.485,2.485,0,0,1-.915,1.012A2.677,2.677,0,0,1,179.647,60.887Zm0-.881a1.523,1.523,0,0,0,1.233-.508,2.127,2.127,0,0,0,.428-1.419,2.15,2.15,0,0,0-.428-1.419,1.749,1.749,0,0,0-2.465,0,2.546,2.546,0,0,0,0,2.838A1.529,1.529,0,0,0,179.647,60.006Z" transform="translate(-170.752 -52.517)" fill="#00b2e3"/>
      <path id="Path_8" data-name="Path 8" d="M191.636,57.03V52.4H190.7l.131-.771h.8V50.354a1.662,1.662,0,0,1,.385-1.152,1.444,1.444,0,0,1,1.135-.432,2.723,2.723,0,0,1,.483.038,1.878,1.878,0,0,1,.377.106l-.152.839a1.61,1.61,0,0,0-.258-.076,1.5,1.5,0,0,0-.292-.025.68.68,0,0,0-.5.178.82.82,0,0,0-.182.593v1.211h1.453V52.4h-1.453V57.03h-.991Z" transform="translate(-178.666 -48.77)" fill="#00b2e3"/>
      <path id="Path_9" data-name="Path 9" d="M201.854,59.089a1.6,1.6,0,0,1-.822-.186,1.093,1.093,0,0,1-.449-.483,1.42,1.42,0,0,1-.14-.618V54.353h-.923l.089-.771h.839V52.247l.991-.1v1.432h1.419v.771h-1.419V57.2a3.47,3.47,0,0,0,.059.75.393.393,0,0,0,.3.292,3.42,3.42,0,0,0,.775.059h.254l-.076.792h-.894Z" transform="translate(-183.749 -50.718)" fill="#00b2e3"/>
    </g>
    <path id="Path_10" data-name="Path 10" d="M9.256,30.047a8.82,8.82,0,0,1-6.494-2.758A8.833,8.833,0,0,1,0,20.787C0,17.581,1.381,16,2.715,14.471a8.521,8.521,0,0,0,2.47-4.6c.407-2.5-.466-5.515-.991-7.316-.072-.246-.136-.466-.186-.661L5.642,1.45c.051.186.114.4.182.635.563,1.94,1.5,5.185,1.034,8.061A10.183,10.183,0,0,1,3.99,15.585c-1.233,1.411-2.3,2.631-2.3,5.2a7.113,7.113,0,0,0,2.262,5.295,7.1,7.1,0,0,0,5.3,2.266c2.571,0,3.791-1.063,5.2-2.3A10.183,10.183,0,0,1,19.9,23.185c2.876-.466,6.121.474,8.061,1.034.237.068.449.131.635.182l-.449,1.635c-.195-.055-.415-.119-.661-.186-1.8-.521-4.821-1.394-7.316-.991a8.537,8.537,0,0,0-4.6,2.47c-1.529,1.334-3.109,2.715-6.316,2.715Z" transform="translate(0 -0.839)" fill="#00b2e3"/>
    <path id="Path_11" data-name="Path 11" d="M28.962,23.774c-1.55-1.512-4.439-4.325-8.48-4.7a18.606,18.606,0,0,0-4.266.148c-1.008.114-2.266.258-4.088.381a11.115,11.115,0,0,1-2.355-.161,10.573,10.573,0,0,1-.161-2.355c.123-1.821.267-3.08.381-4.088a18.606,18.606,0,0,0,.148-4.266c-.373-4.041-3.19-6.926-4.7-8.48A.846.846,0,0,0,4.266.213,12.824,12.824,0,0,0,.009,9.571c.059,5.011,3.342,9.8,7.642,11.132l.657.2.2.657c1.334,4.3,6.121,7.582,11.132,7.642h.127A12.826,12.826,0,0,0,29,24.943a.85.85,0,0,0-.038-1.173ZM1.7,9.554A10.886,10.886,0,0,1,4.817,2.047C6.219,3.534,8.18,5.9,8.456,8.893a16.706,16.706,0,0,1-.148,3.923c-.114,1.025-.263,2.3-.39,4.164A11.534,11.534,0,0,0,8,19.042C4.5,17.86,1.754,13.734,1.7,9.558Zm17.96,17.96c-4.177-.051-8.3-2.8-9.484-6.295a11.528,11.528,0,0,0,2.063.08c1.86-.127,3.135-.271,4.164-.39a16.9,16.9,0,0,1,3.918-.148C23.32,21.037,25.683,23,27.17,24.4A10.886,10.886,0,0,1,19.664,27.514Z" transform="translate(-0.005 0)" fill="#fff"/>
  </g>
</svg>
