<svg id="logo" xmlns="http://www.w3.org/2000/svg" xmlns:xlink="http://www.w3.org/1999/xlink" width="214.711" height="65.328" viewBox="0 0 214.711 65.328">
  <defs>
    <clipPath id="clip-path">
      <rect id="Rectangle_325" data-name="Rectangle 325" width="214.711" height="65.328" fill="none"/>
    </clipPath>
  </defs>
  <path id="Path_160" data-name="Path 160" d="M32.589,52.477l3.834-17.406,3.323.537L37.9,53.335Z" transform="translate(-26.996 -29.053)" fill="#ef3e36"/>
  <g id="Group_317" data-name="Group 317">
    <g id="Group_316" data-name="Group 316" clip-path="url(#clip-path)">
      <path id="Path_161" data-name="Path 161" d="M148.533,112.375a6.553,6.553,0,0,1-5.333,6.18,4.36,4.36,0,0,1-5.432-4.243,6.554,6.554,0,0,1,5.333-6.18,4.36,4.36,0,0,1,5.432,4.243" transform="translate(-113.114 -88.707)" fill="#ef3e36"/>
      <path id="Path_162" data-name="Path 162" d="M53.1,135.493q-.123.91-.311,1.8A29.221,29.221,0,0,1,31.68,159a21.807,21.807,0,0,1-8.719.5,19.856,19.856,0,0,1-13.554-9.076l-5.181,25.88H0l5.753-36.191,5.533.077a19.358,19.358,0,0,0,3.864,9.646,14.908,14.908,0,0,0,8.583,5.444,17.175,17.175,0,0,0,6.206.113,26.078,26.078,0,0,0,16.41-9.95,24.981,24.981,0,0,0,4.161-8.1c.209-.716.387-1.442.524-2.178Z" transform="translate(0 -110.978)" fill="#ef3e36"/>
      <path id="Path_163" data-name="Path 163" d="M95.125,17.1l-6.415-.118c-.927-5.073-4.062-9.846-8.813-12.024a15.853,15.853,0,0,0-9.651-1.052A26.03,26.03,0,0,0,51.108,19.874a22.21,22.21,0,0,0-.719,2.181,21.472,21.472,0,0,0-.6,2.953l-2.079-.265a25.634,25.634,0,0,1,.51-2.734A28.04,28.04,0,0,1,51.753,13.7,29.129,29.129,0,0,1,72.737.114c8.3-.913,15.848,3.744,19.846,10.909A28.285,28.285,0,0,1,95.125,17.1" transform="translate(-39.172 0)" fill="#ef3e36"/>
      <path id="Path_164" data-name="Path 164" d="M64.529,126.317l-59.691,1.29V122l59.691,1.29Z" transform="translate(-3.973 -100.166)" fill="#ef3e36"/>
      <path id="Path_165" data-name="Path 165" d="M439.6,70.477H422.749L417.89,98.032H424.5l1.042-5.905h10.234l5.65-4.8,2.124-12.045Zm-4.7,16.376h-8.423l1.958-11.1h8.423Z" transform="translate(-343.107 -57.865)" fill="#fff"/>
      <path id="Path_166" data-name="Path 166" d="M572.161,74.754l.909-5.157-6.748.315-6.636-.315-.909,5.157,3.35.2L559.1,92.113l-3.42.2-.911,5.157,6.748-.315,6.638.315.909-5.157-3.352-.2,3.026-17.162Z" transform="translate(-455.492 -57.142)" fill="#fff"/>
      <path id="Path_167" data-name="Path 167" d="M687.464,70.477H666.523l-1.013,5.748h7.164l-3.846,21.807h6.614l3.121-17.7-3.016-4.143,10.9.032Z" transform="translate(-546.415 -57.865)" fill="#fff"/>
      <path id="Path_168" data-name="Path 168" d="M801.678,76.5l1.063-6.022H788.885l-5.65,4.8L780.07,93.229l3.957,4.8h14.25l1.062-6.024h-12.2l2.734-15.51Z" transform="translate(-640.474 -57.865)" fill="#fff"/>
      <path id="Path_169" data-name="Path 169" d="M918.677,70.477l-1.833,10.392h-8.9l1.832-10.392h-6.612L898.31,98.032h6.613l1.97-11.179h8.9l-1.972,11.179h6.614l4.859-27.555Z" transform="translate(-737.555 -57.865)" fill="#fff"/>
      <path id="Path_170" data-name="Path 170" d="M1108.475,98.141H1101.8l1.221-7.13h-5.614l-1.221,7.13h-6.671l-.953,5.567h6.671l-1.221,7.13h5.614l1.22-7.13h6.672Z" transform="translate(-893.763 -74.724)" fill="#ef3e36"/>
    </g>
  </g>
</svg>
