<svg id="summit-logo" xmlns="http://www.w3.org/2000/svg" width="214.711" height="150.009" viewBox="0 0 214.711 150.009">
  <g id="Group_318" data-name="Group 318" transform="translate(0 0)">
    <path id="Path_171" data-name="Path 171" d="M45.092,15.213l-4.323,30.6h-9.6L25.388,14.081h5.186l5.416,30.6,4.323-30.6h9.556l4.323,30.6,5.462-30.6H64.8L59.017,45.81h-9.6Z" transform="translate(10.906 4.958)" fill="#defa00"/>
    <path id="Path_172" data-name="Path 172" d="M67.354,41.583c5.369,0,7.919-3.264,7.919-8.792V27.348c0-5.577-2.549-8.7-7.919-8.7-5.323,0-7.872,3.127-7.872,8.7v5.443C59.482,38.322,62.031,41.583,67.354,41.583ZM54.34,32.791V27.348c0-8.658,5.006-13.552,13.015-13.552S80.369,18.69,80.369,27.348v5.443c0,8.658-5.006,13.554-13.015,13.554S54.34,41.449,54.34,32.791Z" transform="translate(23.382 4.833)" fill="#defa00"/>
    <path id="Path_173" data-name="Path 173" d="M88.361,27.405c3.186,0,5.1-1.086,5.1-4.35,0-3.217-1.91-4.352-5.1-4.352h-7.1v8.7ZM76.212,14.079H89.044c5.916,0,9.648,3.536,9.648,8.93,0,5.757-3.413,9.066-9.648,9.066h-6.6l17.93,13.735H92.048L81.262,37.244V45.81H76.219Z" transform="translate(32.8 4.957)" fill="#defa00"/>
    <path id="Path_174" data-name="Path 174" d="M96.155,14.081H101.3V41.1h14.2V45.81H96.155Z" transform="translate(41.405 4.958)" fill="#defa00"/>
    <path id="Path_175" data-name="Path 175" d="M131.205,31.757V28.132c0-5.939-2.912-9.246-8.373-9.246h-5.465v22.12h5.465c5.465,0,8.373-3.31,8.373-9.248Zm-18.93-17.678h10.558c8.463,0,13.469,5.395,13.469,14.053v3.626c0,8.658-5.005,14.053-13.469,14.053H112.275Z" transform="translate(48.128 4.957)" fill="#defa00"/>
    <path id="Path_176" data-name="Path 176" d="M4.353,42.234H24.831V46.9H9.5v9.156H23.421v4.624H9.5v13.28H4.353Z" transform="translate(1.914 16.906)" fill="#defa00"/>
    <path id="Path_177" data-name="Path 177" d="M34.122,69.736c5.369,0,7.919-3.264,7.919-8.792V55.5c0-5.575-2.549-8.7-7.919-8.7-5.323,0-7.872,3.127-7.872,8.7v5.443C26.249,66.475,28.8,69.736,34.122,69.736ZM21.107,60.944V55.5c0-8.658,5.006-13.552,13.015-13.552S47.137,46.843,47.137,55.5v5.443c0,8.658-5.006,13.554-13.015,13.554S21.1,69.594,21.1,60.942" transform="translate(9.277 16.78)" fill="#defa00"/>
    <path id="Path_178" data-name="Path 178" d="M54.728,69.736c5.369,0,7.916-3.264,7.916-8.792V55.5c0-5.575-2.547-8.7-7.916-8.7-5.325,0-7.874,3.127-7.874,8.7v5.443C46.854,66.475,49.4,69.736,54.728,69.736ZM41.714,60.944V55.5c0-8.658,5.006-13.552,13.015-13.552S67.743,46.843,67.743,55.5v5.443c0,8.658-5.006,13.554-13.015,13.554s-13.015-4.9-13.015-13.557" transform="translate(17.949 16.78)" fill="#defa00"/>
    <path id="Path_179" data-name="Path 179" d="M70.385,46.949H61.056V42.234H84.81v4.714H75.481V73.963h-5.1Z" transform="translate(26.279 16.906)" fill="#defa00"/>
    <path id="Path_180" data-name="Path 180" d="M93.437,69.2c3.276,0,5.142-1.495,5.142-4.532s-1.82-4.578-5.142-4.578H85.608V69.2ZM92.663,55.47c3.047,0,4.733-1.4,4.733-4.4,0-2.3-1.456-4.126-4.733-4.126H85.608V55.47Zm-12.1-13.236H93.983c5.187,0,8.646,3.718,8.646,8.84a7.626,7.626,0,0,1-2.776,6.3c2.1,1.086,3.959,3.31,3.959,7.3,0,5.983-3.459,9.292-9.692,9.292H80.558Z" transform="translate(34.674 16.905)" fill="#defa00"/>
    <path id="Path_181" data-name="Path 181" d="M117.29,61.456l-5.142-18.087L107,61.456Zm1.363,4.758H105.638l-2.182,7.745H98.132l9.247-31.731h9.648l9.147,31.731H120.85Z" transform="translate(42.215 16.903)" fill="#defa00"/>
    <path id="Path_182" data-name="Path 182" d="M120.446,42.234h5.142V69.249h14.2v4.714H120.446Z" transform="translate(51.72 16.906)" fill="#defa00"/>
    <path id="Path_183" data-name="Path 183" d="M136.565,42.234h5.142V69.249h14.2v4.714H136.565Z" transform="translate(58.806 16.906)" fill="#defa00"/>
    <path id="Path_184" data-name="Path 184" d="M13.473,92.134h5.09c.181,3.492,2.5,5.849,6.962,5.849,4.506,0,6.78-1.815,6.78-4.58,0-2.537-1.547-3.768-4.46-4.44l-4.907-1.181c-4.962-1.225-8.1-3.718-8.1-8.658,0-5.258,4.142-9.02,10.968-9.02S37.09,74.317,37.18,79.942h-5.1c-.136-2.855-2.183-5.166-6.326-5.166-3.823,0-5.826,1.769-5.826,4.216,0,2.3,1.5,3.308,4.413,4.034L29.26,84.25c5.464,1.4,8.2,4.306,8.2,9.154,0,5.667-5.006,9.249-11.922,9.249-7.736,0-11.878-4.306-12.059-10.517" transform="translate(5.922 28.728)" fill="#defa00"/>
    <path id="Path_185" data-name="Path 185" d="M33.53,90.8V70.387h5.143V90.692c0,4.034,1.729,7.117,6.962,7.117,5.323,0,7.1-3.084,7.1-7.117V70.387h5.1V90.8c0,7.3-4.6,11.739-12.189,11.739-7.463,0-12.1-4.442-12.1-11.739" transform="translate(14.43 28.853)" fill="#defa00"/>
    <path id="Path_186" data-name="Path 186" d="M60.026,71.521v30.6h-4.96V70.389h9.465l6.872,30.6,6.87-30.6h9.465v31.729H82.78v-30.6l-6.553,30.6H66.581Z" transform="translate(23.676 28.854)" fill="#defa00"/>
    <path id="Path_187" data-name="Path 187" d="M87.778,71.521v30.6h-4.96V70.389h9.465l6.87,30.6,6.872-30.6h9.465v31.729h-4.959v-30.6l-6.552,30.6H94.33Z" transform="translate(35.608 28.854)" fill="#defa00"/>
    <path id="Path_188" data-name="Path 188" d="M109.619,97.4h6.556V75.1h-6.556V70.389h18.294V75.1h-6.6V97.4h6.6v4.714H109.619Z" transform="translate(47.208 28.854)" fill="#defa00"/>
    <path id="Path_189" data-name="Path 189" d="M133.708,75.1H124.38V70.389h23.753V75.1H138.8v27.015h-5.1Z" transform="translate(53.449 28.854)" fill="#defa00"/>
    <path id="Path_190" data-name="Path 190" d="M141.475.855,128.437,11.094h5.832L147.307.855Z" transform="translate(55.233 -0.855)" fill="#defa00"/>
    <path id="Path_191" data-name="Path 191" d="M13.038,98.542,0,108.78H5.832L18.87,98.542Z" transform="translate(0 41.229)" fill="#defa00"/>
  </g>
</svg>
