<svg  fill="#0055B8" id="Layer_5" enable-background="new 0 0 64 64" height="512" viewBox="0 0 64 64" width="512" xmlns="http://www.w3.org/2000/svg"><path d="m63 36h-2v-5.938c0-4.866-3.475-9.025-8.19-9.945l-.126-.502c1.364-.638 2.316-2.013 2.316-3.615h1c1.654 0 3-1.346 3-3 0-.55-.159-1.059-.418-1.502.272-.813.418-1.659.418-2.524 0-4.397-3.577-7.974-7.974-7.974h-4.053c-4.363 0-7.915 3.524-7.969 7.875-1.805-1.775-4.277-2.875-7.004-2.875s-5.199 1.1-7.005 2.875c-.053-4.351-3.605-7.875-7.969-7.875h-4.053c-4.396 0-7.973 3.577-7.973 7.974 0 .866.145 1.712.418 2.525-.259.443-.418.952-.418 1.501 0 1.654 1.346 3 3 3h1c0 1.602.952 2.977 2.315 3.615l-.126.502c-4.714.92-8.189 5.079-8.189 9.946v5.937h-2v2h5v3.734l2.653.832c.587 2.476 1.563 4.826 2.904 7.002l-1.289 2.469 6.695 6.695 2.469-1.29c2.175 1.342 4.525 2.317 7.001 2.905l.833 2.653h9.469l.833-2.652c2.476-.588 4.826-1.563 7.001-2.905l2.469 1.29 6.695-6.695-1.289-2.469c1.342-2.176 2.317-4.526 2.904-7.002l2.652-.833v-3.734h5zm-4-5.937v5.937h-15.003c-.02-3.261-1.602-6.195-4.067-8.045 1.118-1.109 1.834-2.556 2.019-4.134.418-.348.866-.646 1.338-.9l.928 9.279 4.785-4.786 4.785 4.785.93-9.3c2.568 1.385 4.285 4.099 4.285 7.164zm-30.978-1.846c.115 2.103 1.847 3.783 3.978 3.783s3.863-1.68 3.978-3.783c3.479.937 5.991 4.098 6.019 7.783h-19.994c.028-3.685 2.54-6.847 6.019-7.783zm1.978-1.095.281-1.122h3.439l.28 1.122v.878c0 1.103-.897 2-2 2s-2-.897-2-2zm4-3.122h-4c-1.103 0-2-.897-2-2v-4.085c1.176-.202 2.26-.761 3.121-1.622l.879-.879.879.879c.861.861 1.945 1.42 3.121 1.622v4.085c0 1.103-.897 2-2 2zm-2 16c-1.302 0-2.402-.839-2.816-2h5.631c-.413 1.161-1.513 2-2.815 2zm-4.899-2c.13.637.384 1.228.732 1.752l-4.988 4.988c-1.568-1.852-2.582-4.183-2.794-6.74zm2.146 3.167c.525.348 1.116.602 1.753.732v7.05c-2.558-.213-4.889-1.226-6.741-2.795zm3.753.732c.637-.13 1.229-.384 1.753-.732l4.987 4.988c-1.852 1.569-4.183 2.582-6.741 2.795v-7.051zm8.155 2.841-4.988-4.988c.347-.524.602-1.115.732-1.752h7.05c-.212 2.558-1.226 4.888-2.794 6.74zm-23.104-6.74c.516 7.253 6.567 13 13.949 13s13.433-5.747 13.949-13h4c-.523 9.459-8.361 17-17.949 17s-17.426-7.541-17.949-17zm32.668-18 .21.841-1.929 3.215-1.929-3.216.21-.84zm1.786 2.101c.092.019.183.04.273.062l-.564 5.638-1.956-1.956zm-7 .017 2.236 3.727-1.956 1.956-.563-5.625c.094-.023.189-.039.283-.058zm-.315-2.001c-1.136.22-2.204.651-3.19 1.233v-5.35h1c0 1.602.952 2.977 2.315 3.615zm-2.19-6.117h-1c-.071 0-.14-.016-.208-.03-.119-.573-.293-1.126-.506-1.659.185-.192.437-.311.714-.311h1zm10 2c0 1.103-.897 2-2 2h-4c-1.103 0-2-.897-2-2v-4.003c1.373-.031 2.742-.337 4-.893 1.258.556 2.627.861 4 .893zm3-2h-1v-2h1c.551 0 1 .448 1 1s-.449 1-1 1zm-9.026-11h4.053c3.293 0 5.973 2.68 5.973 5.974 0 .398-.041.79-.118 1.174-.281-.088-.573-.148-.882-.148h-1-1-.764c-1.308 0-2.618-.31-3.789-.895l-.447-.223-.447.224c-1.171.584-2.481.894-3.789.894h-.764-1-1c-.306 0-.604.047-.887.134-.075-.38-.113-.768-.113-1.16 0-3.294 2.68-5.974 5.974-5.974zm-14.974 5c4.411 0 8 3.589 8 8v7c0 1.525-.687 2.938-1.857 3.883-.733-.343-1.513-.606-2.333-.766l-.126-.502c1.364-.638 2.316-2.013 2.316-3.615v-6h-1c-1.022 0-1.984-.398-2.707-1.121l-2.293-2.293-2.293 2.293c-.723.723-1.685 1.121-2.707 1.121h-1v6c0 1.602.952 2.977 2.315 3.615l-.126.502c-.82.16-1.6.424-2.333.766-1.169-.945-1.856-2.358-1.856-3.883v-7c0-4.411 3.589-8 8-8zm-13.19 12.117-.126-.502c1.364-.638 2.316-2.013 2.316-3.615h1v5.35c-.986-.582-2.054-1.013-3.19-1.233zm-5.81 1.005.281-1.122h3.439l.28 1.122v.878c0 1.103-.897 2-2 2s-2-.897-2-2zm8-9.122h1c.276 0 .529.119.714.31-.213.533-.387 1.086-.506 1.659-.068.015-.137.031-.208.031h-1zm-13 2c-.551 0-1-.448-1-1s.449-1 1-1h1v2zm1.012-4h-1.012c-.31 0-.603.061-.884.148-.077-.384-.116-.777-.116-1.174 0-3.294 2.68-5.974 5.974-5.974h4.053c3.293 0 5.973 2.68 5.973 5.974 0 .393-.038.781-.114 1.161-.282-.088-.58-.135-.886-.135h-1-1-.636c-1.902 0-3.69-.741-5.036-2.086-.589-.59-1.373-.914-2.207-.914-1.68 0-3.043 1.336-3.109 3zm1.988.121c0-.618.503-1.121 1.121-1.121.3 0 .581.116.793.328 1.637 1.637 3.786 2.575 6.086 2.665v4.007c0 1.103-.897 2-2 2h-4c-1.103 0-2-.897-2-2zm-6 19.942c0-3.712 2.523-6.904 6.022-7.846.115 2.103 1.847 3.783 3.978 3.783 2.132 0 3.863-1.68 3.978-3.784 1.13.302 2.168.852 3.073 1.605.184 1.578.901 3.025 2.018 4.134-2.466 1.85-4.047 4.784-4.067 8.045h-15.002zm51 10.203-2.359.74-.121.572c-.558 2.636-1.59 5.125-3.068 7.397l-.319.489 1.147 2.197-4.619 4.617-2.196-1.147-.49.319c-2.271 1.479-4.76 2.511-7.396 3.068l-.572.121-.741 2.361h-6.531l-.74-2.359-.572-.121c-2.636-.558-5.125-1.59-7.396-3.068l-.49-.319-2.196 1.147-4.619-4.617 1.147-2.197-.319-.489c-1.479-2.272-2.511-4.762-3.068-7.397l-.121-.572-2.361-.742v-2.266h4.051c.526 10.562 9.259 19 19.949 19s19.423-8.438 19.949-19h4.051z"/></svg>