<svg fill="#0055B8" id="svg8" height="512" viewBox="0 0 16.933333 16.933334" width="512" xmlns="http://www.w3.org/2000/svg" xmlns:svg="http://www.w3.org/2000/svg"><g id="layer1"><path id="path7342" d="m2.6459434.52915092c-.0713 0-.15132.0356-.19895.0899l-1.85155008 2.11705998c-.15025.17103-.0287.43937.19894996.43923h.79323012v.7931902c.008.3450399.52153.3450399.52916 0v-1.0587902c-.00058-.1453099-.11824-.26296-.26355-.26354h-.47645l1.26916-1.45099 1.2717401 1.45099h-.4769702c-.1461198-.0005503-.2650299.11743-.2656099.26354v.7947302c0 .35311.52968.35311.52968 0v-.5291302h.7927051c.22791.0005821.3498901-.26801.1994699-.43923l-1.851545-2.11705998c-.053-.0604-.12816-.0899-.19947-.0899zm5.8207651.00052c-.15416.003-.2645799.11693-.2645799.26353v.52913998c0 .17632.13233.26486.2645799.26508.1322501-.00022.2645801-.0888.2645801-.26508v-.52913998c0-.1466-.1104201-.26066-.2645801-.26353zm5.8207705 0c-.0744 0-.15184.0356-.19947.0899l-1.85155 2.11705998c-.15105.1710401-.0293.44027.19896.43974h.79322v.79267c-.008.3606501.53714.3606501.52916 0v-1.0587899c-.00058-.1453001-.11823-.2629501-.26355-.26353h-.47645l1.26916-1.4509901 1.27174 1.4509901h-.47645c-.14632-.0008388-.26554.11722-.26613.26353v.7952599c0 .3530999.52968.3530999.52968 0v-.52914h.79271c.22844.000979.34773-.2718599.19947-.43974l-1.85155-2.11705998c-.053-.0604-.12455-.0899-.19895-.0899zm-7.4413204.87120998.3751699.37308c.2610501.24276.61654-.123.3751601-.37308l-.3751601-.37515c-.0498-.0512-.1140899-.077-.18552-.076995-.23919-.001995-.35476.28836498-.1896499.45214498zm2.8659399-.37514-.3751699.37515c-.2413801.25008.1141199.61584.3751699.37308l.3751705-.37308c.16511-.16378.0495-.4539899-.1896507-.45214494-.0714-.00000503-.1357098.025795-.1855198.0769949zm-4.1568 4.26615v.4056401c-.31507.1829401-.52916.52513-.52916.9172001 0 .5865099.4774901 1.0587901 1.05883 1.0587901h.24185c.18527.3740499.4611201.6886998.81699.9259898v.3968501h-.003c-.0399.00015-.0793.009-.11523.0269l-1.05884.5296601c-.1215501.0613-.1778.2027201-.1286801.3296701-.2394206.1430397-.4552706.3007807-.6480105.4717807-.1438299-.11128-.29683-.21036-.46095-.29351.3496199-.3376309.56172-.807501.56172-1.330591 0-1.0196799-.8256199-1.85146-1.851545-1.85146-1.02593 0-1.85154.8317801-1.85154 1.85146 0 .5216202.21449.9936601.56275 1.33111-.9689301.491521-1.62107011 1.504521-1.62107011 2.674621v.45318c0 .90034.71580001 1.62719 1.60143011 1.62719h1.83811v.5312c0 .31766.0993.62879.34158.8335.2467851.20855.5955551.26958 1.0097349.18861.8573202-.2326 1.7148303-.46196 2.5750103-.69243l.3839498.38497c.1034402.10397.2717202.10397.3751702 0l.3844599-.38548c.8515503.23248 1.70534.46019 2.56829.6919.42556.0841.7737.0171 1.01595-.18757.24225-.20471.34209-.51584.34209-.8335v-.5312h1.8376c.88563 0 1.60143-.72685 1.60143-1.62719v-.45318c0-1.1701-.65214-2.1831-1.62107-2.674621.34826-.3374499.56275-.8094898.56275-1.33111 0-1.0196799-.82561-1.85146-1.85155-1.85146-1.02593 0-1.85154.8317801-1.85154 1.85146 0 .52309.2121.9929601.56172 1.330591-.1639.083-.31677.1819-.46044.29299-.19394-.17181-.40998-.32927-.64904-.4712608.0491-.1270802-.006-.2685701-.12816-.3296701l-1.0583197-.5296601c-.0368-.018201-.0773-.0275-.11834-.0274v-.3968599c.3495107-.2268299.6296907-.5508501.8149307-.9254702h.24132c.58127 0 1.05884-.4722799 1.05884-1.05879 0-.3911798-.21474-.7334398-.52864-.9166799v-.40616c-.00001-1.6076999-1.29282-2.9102-2.9099205-2.9102551-1.61709-.000045-2.91146 1.3025451-2.91146 2.910245zm5.2916005-.0005098-.000529.2640499-.26561.0005292c-.3538.0005291-.7071507-.2524501-.7994307-.5968299-.0426-.16188-.223-.2441102-.3731-.1700102-.3075.1503802-.6089898.2387301-.9415301.2387301-.34905 0-.6360898-.0884-.9435999-.2387301-.0394-.0195-.0827-.029-.12661-.0274-.1157899.005-.2150399.0853-.24442.19739-.0938.3501501-.4478401.5973101-.8014801.5973299l-.2661298-.000529v-.2645699c.0000198-1.3236501 1.0667698-2.3805902 2.3822495-2.3805702 1.3154894.00003 2.3814901 1.05689 2.3801901 2.3806102zm-7.4066855-.7937101c-.13233 0-.2645801.0881-.2645801.2645699v.2645701c0 .3528401.52915.3528401.52915 0v-.2645701c0-.17642-.1322599-.2645699-.2645699-.2645699zm11.6410055.0005292c-.13232 0-.26458.0881-.26458.2645701v.26456c0 .35285.52916.35285.52916 0v-.26456c0-.17643-.13226-.2645701-.26458-.2645701zm-13.2285056.2640407c-.13231 0-.26457.0881-.26457.2645701v.2645701c0 .3528398.52915.3528398.52915 0v-.2645701c0-.17642-.13225-.2645701-.26458-.2645701zm11.6410256.0005291c-.13233 0-.26458.0881-.26458.2645601v.2645698c0 .3528502.52916.3528502.52916 0v-.2645698c0-.1764202-.13226-.2645601-.26458-.2645601zm-5.9447905.6164599c.2807999.1064101.5588799.17776.91776.17776.28952 0 .61995-.0569.9167302-.1793099.1945799.35058.5379996.5959401.9343003.68054v.57306c0 1.0199701-.8294504 1.83544-1.8510305 1.83544-1.0317999 0-1.85361-.8278799-1.85361-1.83544v-.57306c.3908801-.0794.75462-.3401401.93585-.6789901zm-4.9024951.1767112c-.13232 0-.26458.0881-.26458.2645699v.2645701c0 .3528499.52917.3528499.52917 0v-.2645701c0-.17642-.13226-.2645699-.26459-.2645699zm11.6410256.0005292c-.13232 0-.26458.0881-.26458.2645701v.2645698c0 .3528402.52916.3528402.52916 0v-.2645698c0-.1764202-.13226-.2645701-.26458-.2645701zm-8.2015005 1.07481c0 .17638.017899.3471201.0548.5126h-.0558c-.2953699 0-.52916-.2404901-.52916-.52965 0-.28917.2337901-.52914.529155-.52914zm4.7609205-.54619c.29513.0002911.52916.2401401.52916.52914 0 .2891599-.2343.5291299-.52968.5291299h-.0558c.0366-.16514.0563-.33596.0563-.5120799zm-7.4077255 1.3233599c.7265199 0 1.3244449.5880902 1.3244449 1.3218001 0 .73372-.596895 1.3238807-1.3244449 1.3238807-.7275501 0-1.3218701-.5901607-1.3218701-1.3238807 0-.7337099.59535-1.3218001 1.3218701-1.3218001zm10.0550755 0c.72652 0 1.32187.5880902 1.32187 1.3218001 0 .73372-.59432 1.3238807-1.32187 1.3238807s-1.32445-.5901607-1.32445-1.3238807c0-.7337099.59794-1.3218001 1.32445-1.3218001zm-5.8212805 1.4530501c.2416699.0852.4993201.1316501.79374.1343599.2944-.003.5524899-.049.7937399-.13384v.5534203l-.6392299.6386905h-.3090201l-.6392299-.6376507zm-.5813499.72033.7363799.7363507-.4196099.420101-.8748702-.8768916zm2.7501897 0 .5586107.2795601-.8748705.8768916-.42012-.420101zm-3.6374598.7006907 1.0164601 1.016421c.1034399.103969.2717199.103969.3751699 0l.077-.077.24805.24803-.2868001 2.011131-.2263399.0579c-.0156-.0352-.0263-.0721-.0424-.12143-.0431-.13267-.0881-.30212-.1503802-.474359-.0623-.17224-.1405398-.35175-.2754299-.50382-.1348899-.152071-.33561-.269731-.5901399-.269731-.3971002 0-.7927002.342911-.7927002.79525v.79267c0 .0853.009.170301.0258.251141l-.0925.0222c-.3449701.087-.2111301.6047.1327999.51363l1.9295801-.4971-.1421101.99523c-.01.0715.009.14497.0537.20153l-2.2541.60716c-.30149.0579-.4657.003-.55758-.0744-.0898-.0759-.15451-.21865-.15451-.42941v-2.11912c0-1.33323.57985-2.31894 1.70634-2.945911zm4.5252505 0c1.15747.644371 1.70582 1.647911 1.70582 2.94591v2.119121c0 .21076-.0633.3534-.15296.427339-.0945.0799-.25712.134381-.55759.0765l-2.2380804-.60251.0837-.0227.4743804-.12867c.10831-.029.19988-.0828.27233-.15657.31682-.0328.60593-.19447.80408-.44542l.18913.0491c.34097.086.47275-.42363.13281-.51364l-.0925-.0227c.0174-.0807.0263-.16496.0264-.25061v-.79267c0-.45235-.39762-.79526-.79322-.79526-.395569.003-.6016097.20225-.7301797.40254-.0883.14095-.1604304.30636-.2216905.41545-.0435-.000662-.0911.004-.1400399.015l-.2516601.0661-.2268598-1.59309.2532099-.24803.0713.0713c.1034499.10397.2717199.10397.3751701 0zm-8.0619456.131761c.2343.10738.49609.16897.7715201.16897.2753698 0 .5402598-.0622.7741099-.16897.2190851.078.420755.18749.6045952.32244-.569255.67496-.8490252 1.51516-.8490252 2.4917v1.05879h-1.83811c-.59633 0-1.0722701-.48996-1.0722701-1.09806v-.45318c0-1.0814.6720101-1.98717 1.6091801-2.32169zm10.0524956 0c.23385.10674.49874.16897.7741.16897.27543 0 .53722-.0616.77152-.16897.93718.33452 1.60919 1.24029 1.60919 2.32169v.45318c0 .6081-.47594 1.09806-1.07227 1.09806h-1.8376v-1.05879c0-.99124-.28784-1.82739-.84851-2.49221.18359-.13464.38484-.2441.60357-.32193zm-4.4089806.16897h.3110902l.2697499.26974-.4232299.41649-.4216702-.42166zm.2263402 1.31251.4428599 3.09214-.51366.51156-.5136499-.51156.4423399-3.09162c.0465.0128.0957.0126.1421101-.000529zm-1.9946901.89501c.0601.0678.1224799.18932.1741501.33226.0517.14294.0943.30347.1441799.45679.010099.0309.0181.0544.031.0909l-.7947699.20462c-.007-.0383-.011401-.0772-.011401-.11781v-.79267c0-.15771.15842-.26612.2635605-.266105.07141.000015.1331605.02421.1932804.09201zm4.3046005.17411v.79267c-.00001.24086-.12247.44547-.31006.56118.000476-.15059-.0233-.30165-.0646-.44956-.0637-.22812-.16727-.44641-.32039-.6175-.0116-.0129-.0236-.0294-.0362-.0419.0747-.14867.1279-.26593.18242-.35086.0764-.11895.15149-.16019.285265-.160165.107215.000025.263565.108425.263565.266135zm-1.2433205.55549c.0292-.008.0761-.002.1539902.0847.0857.0957.1590796.2415.2046396.40461.045597.1631.056297.33493.0336.44129-.0197.0737-.0383.12158-.0878.13486l-.4351099.11782-.1581298-1.1084z" font-variant-ligatures="normal" font-variant-position="normal" font-variant-caps="normal" font-variant-numeric="normal" font-variant-alternates="normal" font-feature-settings="normal" text-indent="0" text-align="start" text-decoration-line="none" text-decoration-style="solid" text-decoration-color="rgb(0,0,0)" text-transform="none" text-orientation="mixed" white-space="normal" shape-padding="0" isolation="auto" mix-blend-mode="normal" solid-color="rgb(0,0,0)" solid-opacity="1" vector-effect="none"/></g></svg>