<svg fill="#0055B8" id="outline" enable-background="new 0 0 512 512" viewBox="0 0 512 512" xmlns="http://www.w3.org/2000/svg"><g><path d="m488 131.18c4.418 0 8-3.582 8-8v-36.492c0-4.418-3.582-8-8-8h-8.896c-.608-1.624-1.274-3.229-1.996-4.811l6.294-6.293c1.5-1.501 2.343-3.535 2.343-5.657s-.843-4.156-2.343-5.657l-25.805-25.804c-1.501-1.5-3.536-2.343-5.657-2.343-2.122 0-4.157.843-5.657 2.344l-6.292 6.293c-1.581-.722-3.186-1.388-4.811-1.997v-8.896c0-4.418-3.582-8-8-8h-36.492c-4.418 0-8 3.582-8 8v8.896c-1.625.609-3.229 1.275-4.811 1.997l-6.293-6.294c-3.125-3.123-8.189-3.123-11.314 0l-25.804 25.804c-3.124 3.125-3.124 8.189 0 11.314l6.294 6.293c-.722 1.581-1.388 3.186-1.997 4.811h-8.896c-3.846 0-7.057 2.716-7.824 6.334-20.794-9.17-39.132-23.452-53.088-41.396l-6.641-8.537c-1.515-1.949-3.845-3.089-6.314-3.089s-4.799 1.14-6.314 3.089l-6.64 8.537c-14.244 18.312-33.044 32.825-54.367 41.968-12.866 5.516-26.516 9.002-40.389 10.406h-28.322c-.008 0-.015 0-.023 0h-15.945c-4.418 0-8 3.582-8 8v13.468c-3.189 1.129-6.323 2.43-9.383 3.895l-9.528-9.529c-3.125-3.123-8.189-3.123-11.314 0l-33.941 33.941c-3.124 3.125-3.124 8.189 0 11.314l9.529 9.528c-1.465 3.06-2.766 6.193-3.895 9.383h-13.468c-4.418 0-8 3.582-8 8v48c0 4.418 3.582 8 8 8h13.468c1.129 3.189 2.43 6.323 3.895 9.383l-9.529 9.528c-3.124 3.125-3.124 8.189 0 11.314l33.941 33.941c3.125 3.123 8.189 3.123 11.314 0l9.528-9.529c3.06 1.465 6.193 2.766 9.383 3.895v13.468c0 4.418 3.582 8 8 8h46.688c-4.418 0-8 3.582-8 8v8.896c-1.624.608-3.229 1.274-4.811 1.996l-6.293-6.294c-3.125-3.123-8.189-3.123-11.314 0l-25.804 25.804c-3.124 3.125-3.124 8.189 0 11.314l6.294 6.293c-.722 1.581-1.388 3.186-1.997 4.811h-8.896c-4.418 0-8 3.582-8 8v36.492c0 4.418 3.582 8 8 8h8.896c.609 1.625 1.275 3.229 1.997 4.811l-6.294 6.293c-3.124 3.125-3.124 8.189 0 11.314l25.804 25.804c3.125 3.123 8.189 3.123 11.314 0l6.293-6.294c1.581.722 3.186 1.388 4.811 1.997v8.896c0 4.418 3.582 8 8 8h36.492c4.418 0 8-3.582 8-8v-8.896c1.625-.609 3.229-1.275 4.811-1.997l6.292 6.293c1.5 1.501 3.535 2.344 5.657 2.344s4.156-.843 5.657-2.343l25.805-25.804c1.5-1.501 2.343-3.535 2.343-5.657s-.843-4.156-2.343-5.657l-6.294-6.293c.722-1.581 1.388-3.187 1.996-4.811h8.896c4.418 0 8-3.582 8-8v-17.312c1.164 0 2.327-.254 3.406-.762 15.387-7.241 29.879-16.014 43.297-26.142l19.071 19.071c3.125 3.123 8.189 3.123 11.314 0l9.528-9.529c3.06 1.465 6.193 2.766 9.383 3.895v13.467c0 4.418 3.582 8 8 8h48c4.418 0 8-3.582 8-8v-13.468c3.189-1.129 6.323-2.43 9.383-3.895l9.528 9.529c3.125 3.123 8.189 3.123 11.314 0l33.941-33.941c3.124-3.125 3.124-8.189 0-11.314l-9.529-9.528c1.465-3.06 2.766-6.193 3.895-9.383h13.469c4.418 0 8-3.582 8-8v-48c0-4.418-3.582-8-8-8h-13.468c-1.129-3.189-2.43-6.323-3.895-9.383l9.529-9.528c3.124-3.125 3.124-8.189 0-11.314l-33.941-33.941c-3.125-3.123-8.189-3.123-11.314 0l-9.528 9.529c-3.06-1.465-6.193-2.766-9.383-3.895v-13.468c0-4.418-3.582-8-8-8h19.18c4.418 0 8-3.582 8-8v-8.896c1.624-.608 3.229-1.274 4.81-1.996l6.293 6.293c1.5 1.501 3.535 2.344 5.657 2.344s4.156-.843 5.657-2.343l25.805-25.804c1.5-1.501 2.343-3.535 2.343-5.657s-.843-4.156-2.343-5.657l-6.294-6.293c.722-1.582 1.388-3.187 1.996-4.811zm-365.804 124.456c-23.738-2.876-42.196-23.135-42.196-47.636 0-20.855 13.38-38.62 32-45.222v22.916c0 23.842 3.468 47.374 10.196 69.942zm-16.018 29.352c-5.957-1.685-11.734-4.082-17.173-7.126-3.127-1.749-7.032-1.206-9.564 1.324l-8.009 8.01-22.628-22.628 8.01-8.009c2.532-2.532 3.072-6.439 1.324-9.564-3.044-5.438-5.441-11.216-7.126-17.173-.975-3.444-4.118-5.822-7.698-5.822h-11.314v-32h11.313c3.58 0 6.724-2.378 7.698-5.822 1.685-5.957 4.082-11.734 7.126-17.173 1.748-3.125 1.208-7.032-1.324-9.564l-8.01-8.009 22.628-22.628 8.009 8.01c2.531 2.531 6.438 3.072 9.564 1.324 5.438-3.044 11.216-5.441 17.173-7.126 3.444-.975 5.822-4.118 5.822-7.698v22.725c-27.57 7.123-47.999 32.195-47.999 61.961 0 35.192 28.552 63.834 63.708 63.993 4.136 10.976 9.071 21.671 14.779 32.007h-30.487v-11.313c0-3.581-2.378-6.724-5.822-7.699zm45.947 35.006c.001.002.002.004.004.006h-.129c.042 0 .083-.005.125-.006zm81.191 97.318c-3.58 0-6.725 2.379-7.698 5.823-1.238 4.382-3.004 8.635-5.245 12.642-1.748 3.125-1.207 7.031 1.324 9.563l4.733 4.732-14.491 14.49-4.731-4.732c-2.531-2.531-6.438-3.073-9.564-1.325-4.004 2.241-8.257 4.006-12.642 5.246-3.444.975-5.822 4.119-5.822 7.698v6.683h-20.492v-6.683c0-3.579-2.378-6.724-5.822-7.698-4.387-1.24-8.64-3.006-12.642-5.245-3.125-1.749-7.031-1.208-9.564 1.323l-4.732 4.733-14.49-14.49 4.733-4.732c2.532-2.533 3.073-6.439 1.323-9.564-2.239-4.002-4.005-8.255-5.245-12.642-.975-3.444-4.119-5.822-7.698-5.822h-6.683v-20.492h6.683c3.579 0 6.724-2.378 7.698-5.822 1.24-4.385 3.005-8.638 5.246-12.642 1.748-3.125 1.208-7.032-1.324-9.564l-4.733-4.732 14.49-14.49 4.732 4.733c2.531 2.53 6.438 3.075 9.563 1.324 4.007-2.241 8.26-4.007 12.642-5.245 3.444-.974 5.823-4.118 5.823-7.698v-6.684h4.882c20.715 26.656 46.688 48.715 76.431 64.857v16.456h-6.685zm22.684-26.188c-37.86-18.582-69.746-47.148-92.376-82.809-23.306-36.724-35.624-79.126-35.624-122.622v-73.11c22.896.958 45.883-3.238 66.983-12.284 23.804-10.206 44.791-26.406 60.691-46.851l.326-.417.325.417c15.9 20.444 36.888 36.645 60.691 46.851 21.1 9.047 44.09 13.255 66.983 12.284v73.11c0 43.496-12.318 85.897-35.624 122.622-22.629 35.661-54.515 64.227-92.375 82.809zm133.592-134.78c23.84 2.781 42.408 23.083 42.408 47.656 0 26.467-21.533 48-48 48-14.137 0-26.835-6.17-35.623-15.932 4.787-6.155 9.3-12.55 13.507-19.18 12.028-18.95 21.311-39.317 27.708-60.544zm7.776-158.276c-1.677-1.518-3.921-2.261-6.164-2.028-2.695.269-5.395.449-8.095.558 3.526-10.899 13.767-18.805 25.825-18.805 14.966 0 27.141 12.175 27.141 27.141s-12.175 27.141-27.141 27.141c-3.135 0-6.135-.556-8.934-1.546v-26.529c0-2.26-.956-4.415-2.632-5.932zm25.627 136.07c3.128 1.75 7.032 1.206 9.564-1.324l8.009-8.01 22.628 22.628-8.01 8.009c-2.532 2.532-3.072 6.439-1.324 9.564 3.044 5.438 5.441 11.216 7.126 17.173.975 3.444 4.118 5.822 7.698 5.822h11.314v32h-11.313c-3.58 0-6.724 2.378-7.698 5.822-1.685 5.957-4.082 11.734-7.126 17.173-1.748 3.125-1.208 7.032 1.324 9.564l8.01 8.009-22.628 22.628-8.009-8.01c-2.531-2.531-6.438-3.073-9.564-1.324-5.438 3.044-11.216 5.441-17.173 7.126-3.444.975-5.822 4.118-5.822 7.698v11.314h-32v-11.313c0-3.58-2.378-6.724-5.822-7.698-5.957-1.685-11.734-4.082-17.173-7.126-3.128-1.75-7.031-1.206-9.564 1.324l-8.009 8.01-12.212-12.212c8.091-6.989 15.724-14.505 22.845-22.512 11.638 12.023 27.917 19.527 45.934 19.527 35.29 0 64-28.71 64-64 0-31.978-23.585-58.517-54.267-63.223 2.484-10.767 4.241-21.715 5.249-32.777h1.018v11.313c0 3.58 2.378 6.724 5.822 7.698 5.957 1.685 11.735 4.083 17.173 7.127zm50.321-118.958c-3.58 0-6.725 2.379-7.698 5.823-1.238 4.38-3.003 8.634-5.245 12.643-1.748 3.124-1.207 7.03 1.324 9.562l4.733 4.732-14.491 14.49-4.731-4.732c-2.531-2.531-6.438-3.076-9.562-1.325-4.009 2.242-8.263 4.007-12.643 5.245-3.444.974-5.823 4.118-5.823 7.698v6.684h-19.18v-28.88c2.882.618 5.868.955 8.934.955 23.788 0 43.141-19.353 43.141-43.141s-19.353-43.141-43.141-43.141c-20.82 0-38.243 14.825-42.266 34.474-6.1-.485-12.165-1.366-18.146-2.654 1.77-1.016 3.142-2.683 3.726-4.748 1.24-4.387 3.006-8.64 5.245-12.642 1.75-3.125 1.209-7.031-1.323-9.564l-4.733-4.732 14.49-14.49 4.732 4.733c2.531 2.53 6.438 3.071 9.564 1.323 4.002-2.239 8.255-4.005 12.642-5.245 3.444-.975 5.822-4.119 5.822-7.698v-6.683h20.492v6.683c0 3.579 2.378 6.724 5.822 7.698 4.385 1.24 8.638 3.005 12.642 5.246 3.128 1.749 7.032 1.207 9.564-1.325l4.731-4.732 14.491 14.49-4.733 4.732c-2.531 2.532-3.072 6.438-1.324 9.563 2.241 4.007 4.007 8.26 5.245 12.642.974 3.444 4.118 5.823 7.698 5.823h6.685v20.492h-6.684z"/><path d="m168.934 363.926c-23.788 0-43.141 19.353-43.141 43.141s19.353 43.141 43.141 43.141 43.141-19.353 43.141-43.141-19.353-43.141-43.141-43.141zm0 70.281c-14.966 0-27.141-12.175-27.141-27.141s12.175-27.141 27.141-27.141 27.141 12.175 27.141 27.141-12.176 27.141-27.141 27.141z"/><path d="m368 199.366v-65.5c0-2.295-.985-4.479-2.706-5.997-1.72-1.519-4.006-2.225-6.286-1.941-4.051.507-8.093.756-12.116.756-27.849-.002-54.538-11.952-73.147-33.219l-11.724-13.399c-1.519-1.736-3.714-2.732-6.021-2.732s-4.502.996-6.021 2.732l-11.724 13.399c-21.297 24.34-53.173 36.481-85.264 32.463-2.275-.283-4.566.423-6.286 1.941-1.721 1.519-2.706 3.702-2.706 5.997v65.5c0 35.878 10.188 70.838 29.46 101.101 19.272 30.262 46.645 54.277 79.157 69.449 1.072.501 2.228.751 3.383.751s2.311-.25 3.383-.751c32.513-15.172 59.885-39.188 79.157-69.449 19.273-30.263 29.461-65.223 29.461-101.101zm-112 154.428c-28.265-13.943-52.083-35.289-69.045-61.923-17.634-27.689-26.955-59.677-26.955-92.505v-56.798c34.271 1.559 67.488-12.501 90.297-38.568l5.703-6.518 5.703 6.519c22.809 26.066 56.038 40.112 90.297 38.567v56.798c0 32.828-9.321 64.815-26.955 92.505-16.962 26.634-40.78 47.98-69.045 61.923z"/><path d="m256 136c-44.112 0-80 35.888-80 80s35.888 80 80 80 80-35.888 80-80-35.888-80-80-80zm0 144c-35.29 0-64-28.71-64-64s28.71-64 64-64 64 28.71 64 64-28.71 64-64 64z"/><path d="m290.343 186.343-50.343 50.344-18.343-18.344c-3.125-3.123-8.189-3.123-11.314 0-3.124 3.125-3.124 8.189 0 11.314l24 24c1.562 1.562 3.609 2.343 5.657 2.343s4.095-.781 5.657-2.343l56-56c3.124-3.125 3.124-8.189 0-11.314-3.125-3.123-8.189-3.123-11.314 0z"/></g></svg>