<svg xmlns="http://www.w3.org/2000/svg" width="206.445" height="128.399" viewBox="0 0 206.445 128.399">
  <g id="encryption" transform="translate(-97.061 -6352.999)">
    <path id="Path_3371" data-name="Path 3371" d="M-84.072-24.16H-97.139v7.031h12.031a2.864,2.864,0,0,1,1.982.6,2.025,2.025,0,0,1,.654,1.572,2.1,2.1,0,0,1-.645,1.592,2.8,2.8,0,0,1-1.992.615H-97.139v8.145h13.516a2.958,2.958,0,0,1,2.061.635,2.18,2.18,0,0,1,.693,1.689,2.134,2.134,0,0,1-.693,1.65A2.958,2.958,0,0,1-83.623,0H-99.385a3.72,3.72,0,0,1-2.725-.84,3.753,3.753,0,0,1-.83-2.715V-25.078a4.827,4.827,0,0,1,.371-2.041,2.3,2.3,0,0,1,1.162-1.152,4.885,4.885,0,0,1,2.021-.361h15.313a2.975,2.975,0,0,1,2.061.615,2.079,2.079,0,0,1,.674,1.611,2.1,2.1,0,0,1-.674,1.631A2.975,2.975,0,0,1-84.072-24.16Zm12.285,5.918v.645a9.332,9.332,0,0,1,3.076-2.725,8.193,8.193,0,0,1,3.838-.869,7.659,7.659,0,0,1,3.77.918,5.832,5.832,0,0,1,2.48,2.6,6.178,6.178,0,0,1,.684,2.109,21.856,21.856,0,0,1,.156,2.891v9.922a3.532,3.532,0,0,1-.732,2.422,2.433,2.433,0,0,1-1.9.82,2.459,2.459,0,0,1-1.934-.84,3.514,3.514,0,0,1-.742-2.4v-8.887a8.881,8.881,0,0,0-.732-4.033,2.983,2.983,0,0,0-2.92-1.4,4.324,4.324,0,0,0-2.6.85,4.883,4.883,0,0,0-1.719,2.334,16.7,16.7,0,0,0-.391,4.453v6.68a3.464,3.464,0,0,1-.752,2.432A2.53,2.53,0,0,1-74.15.488a2.416,2.416,0,0,1-1.895-.84,3.514,3.514,0,0,1-.742-2.4v-15.41a3.355,3.355,0,0,1,.664-2.275,2.3,2.3,0,0,1,1.816-.752,2.463,2.463,0,0,1,1.27.332,2.377,2.377,0,0,1,.908,1A3.51,3.51,0,0,1-71.787-18.242ZM-33.35-6.113a4.6,4.6,0,0,1-.6,2.129,7.314,7.314,0,0,1-1.816,2.158,9.388,9.388,0,0,1-3.076,1.65,13.052,13.052,0,0,1-4.18.625,10.206,10.206,0,0,1-7.715-2.881,10.669,10.669,0,0,1-2.773-7.725,12.722,12.722,0,0,1,1.27-5.8,9.114,9.114,0,0,1,3.672-3.9,11.361,11.361,0,0,1,5.742-1.377,11.423,11.423,0,0,1,3.8.605,9.922,9.922,0,0,1,2.93,1.563,7.491,7.491,0,0,1,1.836,2.041A4.043,4.043,0,0,1-33.623-15a2.131,2.131,0,0,1-.713,1.621,2.444,2.444,0,0,1-1.729.664,1.743,1.743,0,0,1-1.1-.342,5.417,5.417,0,0,1-.986-1.1A8.074,8.074,0,0,0-40.2-16.387a4.622,4.622,0,0,0-2.705-.742,4.6,4.6,0,0,0-3.809,1.846,7.987,7.987,0,0,0-1.445,5.049,9.751,9.751,0,0,0,.371,2.764,6.281,6.281,0,0,0,1.074,2.148,4.6,4.6,0,0,0,1.7,1.348,5.164,5.164,0,0,0,2.188.459,4.927,4.927,0,0,0,2.744-.742,6.492,6.492,0,0,0,2.021-2.266A5.212,5.212,0,0,1-37-7.93a2,2,0,0,1,1.387-.508,2.056,2.056,0,0,1,1.621.742A2.377,2.377,0,0,1-33.35-6.113Zm9.941-1.094v4.453A3.435,3.435,0,0,1-24.17-.322,2.538,2.538,0,0,1-26.1.488,2.441,2.441,0,0,1-28-.332a3.5,3.5,0,0,1-.742-2.422V-17.6q0-3.594,2.6-3.594a2.168,2.168,0,0,1,1.914.84,4.633,4.633,0,0,1,.645,2.48,9.332,9.332,0,0,1,1.963-2.48,4.055,4.055,0,0,1,2.686-.84,6.874,6.874,0,0,1,3.262.84,2.508,2.508,0,0,1,1.582,2.227,2.118,2.118,0,0,1-.674,1.611,2.091,2.091,0,0,1-1.455.635,6.7,6.7,0,0,1-1.416-.361,6.584,6.584,0,0,0-1.982-.361,2.9,2.9,0,0,0-1.914.615,3.948,3.948,0,0,0-1.152,1.826,12.747,12.747,0,0,0-.566,2.881Q-23.408-9.609-23.408-7.207ZM-6.26,1.152l.488-1.191-6.562-16.523a6.187,6.187,0,0,1-.605-2.07,2.424,2.424,0,0,1,.352-1.27,2.621,2.621,0,0,1,.967-.937,2.544,2.544,0,0,1,1.279-.352,2.093,2.093,0,0,1,1.738.732,6.765,6.765,0,0,1,1.035,2.1L-3.057-5.234,1.221-17.441a21.068,21.068,0,0,1,.918-2.324A2.736,2.736,0,0,1,3.008-20.9a2.414,2.414,0,0,1,1.3-.293,2.287,2.287,0,0,1,1.162.322A2.249,2.249,0,0,1,6.328-20a2.345,2.345,0,0,1,.3,1.152q-.078.371-.254,1.055t-.43,1.387L-1.006,1.8a21.28,21.28,0,0,1-1.758,3.77,5.784,5.784,0,0,1-2.275,2.1A8.371,8.371,0,0,1-8.857,8.4a9.281,9.281,0,0,1-3.516-.508,1.852,1.852,0,0,1-1.172-1.855,1.8,1.8,0,0,1,.557-1.416,2.4,2.4,0,0,1,1.65-.5,3.042,3.042,0,0,1,.84.117,3.991,3.991,0,0,0,.879.117,3.173,3.173,0,0,0,1.445-.273,2.529,2.529,0,0,0,.947-.947A14.542,14.542,0,0,0-6.26,1.152ZM15.42-18.2v.645a10.531,10.531,0,0,1,3.125-2.725,7.647,7.647,0,0,1,3.672-.869,8.5,8.5,0,0,1,4.531,1.27,8.746,8.746,0,0,1,3.271,3.711,12.963,12.963,0,0,1,1.2,5.781,14.1,14.1,0,0,1-.693,4.521,10.145,10.145,0,0,1-1.9,3.457A8.312,8.312,0,0,1,25.762-.264a8.448,8.448,0,0,1-3.545.752A7.428,7.428,0,0,1,18.379-.43a10.968,10.968,0,0,1-2.959-2.7V4.883q0,3.516-2.559,3.516a2.052,2.052,0,0,1-1.992-.908,5.718,5.718,0,0,1-.488-2.646V-18.164a3.356,3.356,0,0,1,.664-2.275,2.3,2.3,0,0,1,1.816-.752,2.4,2.4,0,0,1,1.846.771A3.151,3.151,0,0,1,15.42-18.2Zm10.449,7.754a9.219,9.219,0,0,0-.645-3.623A5.313,5.313,0,0,0,23.438-16.4a4.273,4.273,0,0,0-2.529-.811,4.746,4.746,0,0,0-3.721,1.738,7.588,7.588,0,0,0-1.514,5.117,7.413,7.413,0,0,0,1.5,4.951,4.706,4.706,0,0,0,3.73,1.768A4.284,4.284,0,0,0,23.369-4.4a5.3,5.3,0,0,0,1.816-2.314A9.178,9.178,0,0,0,25.869-10.449Zm9.922-10.273h.586v-3.2q0-1.289.068-2.021a2.985,2.985,0,0,1,.381-1.26,2.4,2.4,0,0,1,.9-.889,2.549,2.549,0,0,1,1.309-.342,2.633,2.633,0,0,1,1.836.762,2.256,2.256,0,0,1,.693,1.24,11.267,11.267,0,0,1,.146,2.08v3.633h1.953a2.5,2.5,0,0,1,1.729.537,1.771,1.771,0,0,1,.6,1.377,1.542,1.542,0,0,1-.85,1.5,5.514,5.514,0,0,1-2.432.43h-1v9.8A15.91,15.91,0,0,0,41.8-5.146a1.959,1.959,0,0,0,.469,1.094,1.6,1.6,0,0,0,1.24.42,6.632,6.632,0,0,0,1.27-.166,6.592,6.592,0,0,1,1.25-.166,1.607,1.607,0,0,1,1.162.518,1.738,1.738,0,0,1,.518,1.279A2.141,2.141,0,0,1,46.3-.2a9.5,9.5,0,0,1-4.043.684,6.985,6.985,0,0,1-3.789-.84,3.9,3.9,0,0,1-1.689-2.324,15.767,15.767,0,0,1-.4-3.965V-16.875h-.7a2.539,2.539,0,0,1-1.758-.547,1.787,1.787,0,0,1-.605-1.387,1.723,1.723,0,0,1,.635-1.377A2.787,2.787,0,0,1,35.791-20.723Zm19.2,2.559v15.41a3.441,3.441,0,0,1-.762,2.422,2.524,2.524,0,0,1-1.934.82,2.408,2.408,0,0,1-1.9-.84,3.545,3.545,0,0,1-.732-2.4V-18.008a3.423,3.423,0,0,1,.732-2.383,2.461,2.461,0,0,1,1.9-.8,2.554,2.554,0,0,1,1.934.8A3.1,3.1,0,0,1,54.99-18.164Zm-2.637-5.508a2.814,2.814,0,0,1-1.9-.684,2.418,2.418,0,0,1-.791-1.934,2.4,2.4,0,0,1,.811-1.865,2.724,2.724,0,0,1,1.885-.732,2.794,2.794,0,0,1,1.836.664,2.368,2.368,0,0,1,.8,1.934,2.439,2.439,0,0,1-.781,1.924A2.7,2.7,0,0,1,52.354-23.672Zm28.105,13.32a12.6,12.6,0,0,1-.742,4.395A9.7,9.7,0,0,1,77.568-2.5,9.486,9.486,0,0,1,74.209-.283a11.877,11.877,0,0,1-4.395.771,11.538,11.538,0,0,1-4.355-.781,9.672,9.672,0,0,1-3.35-2.236,9.669,9.669,0,0,1-2.148-3.437,12.568,12.568,0,0,1-.732-4.385,12.722,12.722,0,0,1,.742-4.434A9.648,9.648,0,0,1,62.1-18.223a9.385,9.385,0,0,1,3.359-2.2,11.863,11.863,0,0,1,4.355-.771,11.842,11.842,0,0,1,4.395.781,9.559,9.559,0,0,1,3.379,2.227,9.624,9.624,0,0,1,2.139,3.438A12.65,12.65,0,0,1,80.459-10.352Zm-5.352,0a8,8,0,0,0-1.436-5.078,4.662,4.662,0,0,0-3.857-1.816,4.778,4.778,0,0,0-2.754.811,5.136,5.136,0,0,0-1.836,2.393,9.738,9.738,0,0,0-.645,3.691A9.661,9.661,0,0,0,65.215-6.7a5.237,5.237,0,0,0,1.816,2.393,4.718,4.718,0,0,0,2.783.83A4.653,4.653,0,0,0,73.672-5.3,7.975,7.975,0,0,0,75.107-10.352ZM89.5-18.242v.645a9.332,9.332,0,0,1,3.076-2.725,8.193,8.193,0,0,1,3.838-.869,7.659,7.659,0,0,1,3.77.918,5.832,5.832,0,0,1,2.48,2.6,6.177,6.177,0,0,1,.684,2.109,21.856,21.856,0,0,1,.156,2.891v9.922a3.532,3.532,0,0,1-.732,2.422,2.433,2.433,0,0,1-1.9.82,2.459,2.459,0,0,1-1.934-.84,3.514,3.514,0,0,1-.742-2.4v-8.887a8.881,8.881,0,0,0-.732-4.033,2.983,2.983,0,0,0-2.92-1.4,4.324,4.324,0,0,0-2.6.85,4.883,4.883,0,0,0-1.719,2.334,16.7,16.7,0,0,0-.391,4.453v6.68a3.464,3.464,0,0,1-.752,2.432,2.53,2.53,0,0,1-1.943.811,2.416,2.416,0,0,1-1.895-.84,3.514,3.514,0,0,1-.742-2.4v-15.41a3.355,3.355,0,0,1,.664-2.275,2.3,2.3,0,0,1,1.816-.752,2.463,2.463,0,0,1,1.27.332,2.377,2.377,0,0,1,.908,1A3.51,3.51,0,0,1,89.5-18.242Z" transform="translate(200 6473)" fill="#003470"/>
    <g id="Logo" transform="translate(0 31)">
      <path id="Path_3370" data-name="Path 3370" d="M-11351.935,1027.055h-6.817c.513-.927.955-1.794,1.279-2.51a41.11,41.11,0,0,0,3.1-9.883c.281-1.589.22-1.924-.409-2.237a1.242,1.242,0,0,0-.526-.18,1.263,1.263,0,0,0-.383.088c-.593.222-.744.555-1.082,2.38a39.425,39.425,0,0,1-4.595,12.341h-7.129a43.471,43.471,0,0,0,3.524-6.214,33.071,33.071,0,0,0,2.229-18.386c-.217-1.261-.294-1.489-.587-1.74a1.307,1.307,0,0,0-.813-.287,1.1,1.1,0,0,0-.76.287c-.387.365-.41.746-.141,2.268a29.539,29.539,0,0,1-.585,12.511,32.5,32.5,0,0,1-5.681,11.56h-7.947a27.338,27.338,0,0,0,7.928-14.2,19.636,19.636,0,0,0,.389-4.383c.078-3.359,0-4.176-.452-4.6a1.083,1.083,0,0,0-.753-.316,1.291,1.291,0,0,0-.847.352c-.41.361-.407.4-.328,1.287a36.3,36.3,0,0,1-.286,7.043,25.512,25.512,0,0,1-8.135,14.089c-.354.324-.595.546-.772.726h-6.6c-5.514,0-10-4.078-10-9.09v-12.6c.105.762.242,1.531.409,2.285.209.947.339,1.264.606,1.477a1.2,1.2,0,0,0,.756.289h.014a1.252,1.252,0,0,0,.636-.177c.535-.333.593-.655.323-1.815a24.5,24.5,0,0,1-.6-6.58,25.846,25.846,0,0,1,3.116-12.2c.986-1.894,1.022-2.292.246-2.666a1.425,1.425,0,0,0-.64-.187,1.049,1.049,0,0,0-.573.192,5.253,5.253,0,0,0-.979,1.389,29.819,29.819,0,0,0-3.311,10.091V986.148c0-5.014,4.485-9.093,10-9.093h2.124a33.926,33.926,0,0,0-4.925,4.661,1.723,1.723,0,0,0-.518,1.033,1.088,1.088,0,0,0,1.13,1.069h.023a1.367,1.367,0,0,0,.414-.065,8.7,8.7,0,0,0,1.251-1.209,32.684,32.684,0,0,1,6.479-5.488h38.217c.153.14.645.516,1.459,1.116a28.954,28.954,0,0,1,4.652,4.148,28.444,28.444,0,0,1,7.637,18.817l.046,1.958.011.009v14.86c0,5.012-4.485,9.09-10,9.09h-8.273a35.8,35.8,0,0,0,1.882-4.934c.164-.668.156-.759-.089-1.079a1.115,1.115,0,0,0-.888-.456,1.4,1.4,0,0,0-.568.131c-.381.161-.5.32-.722.941-.688,1.956-1.414,3.772-2.158,5.4Zm13.952-22.944a1.1,1.1,0,0,0-.729.279l-.338.3-.068,3.623a49.954,49.954,0,0,1-2.243,14.76c-.221.77-.055,1.3.48,1.537a1.564,1.564,0,0,0,.592.146h.018c.622,0,1.043-.592,1.453-2.044a54.671,54.671,0,0,0,2.092-16.193c-.077-1.747-.09-1.806-.443-2.1A1.316,1.316,0,0,0-11337.982,1004.112Zm-44.2,9.943a1.146,1.146,0,0,0-.528.12,11.461,11.461,0,0,0-1.235,1.888,18,18,0,0,1-4.362,5.233c-1.323,1.137-1.445,1.281-1.454,1.709a1.017,1.017,0,0,0,1.045,1.059h.017a1.41,1.41,0,0,0,.578-.13,21.809,21.809,0,0,0,4.212-3.857c1.526-1.891,2.98-4.354,2.992-5.069a.767.767,0,0,0-.278-.578A1.5,1.5,0,0,0-11382.183,1014.055Zm18.049-27.026a17.156,17.156,0,0,1,8.279,2.116,14.879,14.879,0,0,1,5.915,5.838c1.018,1.856,1.491,3.548,1.949,6.965a44.874,44.874,0,0,1-.181,12.963c-.368,2.114-.362,2.287.089,2.648a1.258,1.258,0,0,0,.789.3h.021a1.117,1.117,0,0,0,1.062-.762,39.656,39.656,0,0,0,.844-5.891c.408-4.722-.221-11.485-1.373-14.768-2.089-5.947-7.617-10.287-14.429-11.327a20.67,20.67,0,0,0-3.072-.214,18.54,18.54,0,0,0-2.307.131c-7.444.951-13.3,5.734-15.289,12.484a19.019,19.019,0,0,0-.2,6.955,14.732,14.732,0,0,1,.249,3.566c-.006,2.451.008,2.585.288,2.864a1.047,1.047,0,0,0,.753.3,1.426,1.426,0,0,0,.835-.284l.39-.3.083-2.094a16.271,16.271,0,0,0-.237-4.19,13.306,13.306,0,0,1,1.278-9.121,15.464,15.464,0,0,1,9.567-7.522A17.036,17.036,0,0,1-11364.134,987.029Zm-25.551,13.883a1.217,1.217,0,0,0-.79.365l-.436.367.075,1.155c.045.656.19,1.813.323,2.578a11.429,11.429,0,0,1-.333,5.69,10.311,10.311,0,0,1-3.175,4.5c-.694.585-.855.8-.861,1.126-.012.575.109.793.561,1.014a1.248,1.248,0,0,0,.523.143h.018c.411,0,.837-.267,1.751-1.1a12.04,12.04,0,0,0,3.8-11.941,20.484,20.484,0,0,1-.249-2.073c-.077-.987-.13-1.153-.47-1.475A1.086,1.086,0,0,0-11389.685,1000.912Zm25.577-6.128h.129a7.277,7.277,0,0,1,6.992,5.054,37.671,37.671,0,0,1,.824,6.658c.119,2.342.144,2.495.443,2.728a1.447,1.447,0,0,0,.8.237h.02a1.062,1.062,0,0,0,.584-.14c.525-.357.595-.694.532-2.572a46.649,46.649,0,0,0-.778-6.835,9.18,9.18,0,0,0-6.489-6.838,11.829,11.829,0,0,0-3.254-.393,9.533,9.533,0,0,0-1.913.162,9.477,9.477,0,0,0-7.093,5.795,3.679,3.679,0,0,0-.28,1.1.966.966,0,0,0,.322.735,1.244,1.244,0,0,0,.838.326,1.044,1.044,0,0,0,.726-.278,2.982,2.982,0,0,0,.543-.97A7.341,7.341,0,0,1-11364.107,994.784Zm.061-15.506h0c.751,0,1.491.035,2.2.1a25.319,25.319,0,0,1,14.912,6.383,21.678,21.678,0,0,1,4.723,5.931,24.792,24.792,0,0,1,2.427,7.55c.228,1.293.317,1.56.6,1.789a1.141,1.141,0,0,0,.741.284h.023a1.246,1.246,0,0,0,.752-.26c.462-.357.479-.765.12-2.731a24.189,24.189,0,0,0-5.024-11.29,34.31,34.31,0,0,0-4.349-4.182,28.636,28.636,0,0,0-17.268-5.715c-.666,0-1.341.023-2,.069-9.027.632-17.271,5.522-21.515,12.763-1.267,2.159-2.633,5.786-2.658,7.056a1.067,1.067,0,0,0,.339.821,1.1,1.1,0,0,0,.749.291,1.185,1.185,0,0,0,.743-.269c.278-.206.424-.53.678-1.506a21.329,21.329,0,0,1,4.709-8.812,24.169,24.169,0,0,1,8.476-6.089A27.39,27.39,0,0,1-11364.047,979.279Zm32.926,10.851c-.205-.5-.425-1.005-.653-1.49a34.279,34.279,0,0,0-9.431-11.584h.087c5.514,0,10,4.079,10,9.093v3.981Z" transform="translate(11565.119 5370.944)" fill="#1771d9"/>
      <path id="Path_3356" data-name="Path 3356" d="M-11378.473,1011h-10.437a23.081,23.081,0,0,1,2.01-7.7,22.944,22.944,0,0,1,4.521-6.561,22.224,22.224,0,0,1,15.971-6.738,22.219,22.219,0,0,1,15.968,6.738,22.992,22.992,0,0,1,4.521,6.561,23.158,23.158,0,0,1,2.011,7.7h-10.437a12.13,12.13,0,0,0-12.062-10,12.131,12.131,0,0,0-12.063,10Z" transform="translate(11566 5332)" fill="#f3aa00"/>
    </g>
  </g>
</svg>
