<svg xmlns="http://www.w3.org/2000/svg" xmlns:xlink="http://www.w3.org/1999/xlink" width="199.25" height="128.002" viewBox="0 0 199.25 128.002">
  <defs>
    <linearGradient id="linear-gradient" y1="0.5" x2="1" y2="0.5" gradientUnits="objectBoundingBox">
      <stop offset="0" stop-color="#fff" stop-opacity="0"/>
      <stop offset="0.264" stop-color="#eee" stop-opacity="0.749"/>
      <stop offset="0.688" stop-color="#c4d0de"/>
      <stop offset="0.837" stop-color="#d5dee8" stop-opacity="0.749"/>
      <stop offset="1" stop-color="#fff" stop-opacity="0"/>
    </linearGradient>
    <radialGradient id="radial-gradient" cx="0.5" cy="0.5" r="0.589" gradientUnits="objectBoundingBox">
      <stop offset="0" stop-color="#29d1ff"/>
      <stop offset="1" stop-color="#00bcef"/>
    </radialGradient>
    <linearGradient id="linear-gradient-2" y1="0.267" x2="1" y2="0.267" gradientUnits="objectBoundingBox">
      <stop offset="0" stop-color="#e9e9e6"/>
      <stop offset="0.022" stop-color="#fff"/>
      <stop offset="0.976" stop-color="#fff"/>
      <stop offset="1" stop-color="#e9e9e9"/>
    </linearGradient>
    <radialGradient id="radial-gradient-2" cx="0.5" cy="0.5" r="0.5" gradientUnits="objectBoundingBox">
      <stop offset="0" stop-color="#ffc936"/>
      <stop offset="1" stop-color="#fbb700"/>
    </radialGradient>
  </defs>
  <g id="nfc-card-logo" transform="translate(-103.92 -6321.465)">
    <g id="Group_1451" data-name="Group 1451" transform="translate(-39)">
      <ellipse id="Shadow" cx="72.849" cy="1.619" rx="72.849" ry="1.619" transform="translate(196.472 6445.365)" fill="url(#linear-gradient)"/>
      <g id="Card" transform="translate(233.745 6321.465) rotate(30)">
        <rect id="CardBody" width="121.415" height="77.706" rx="6" transform="translate(0)" fill="url(#radial-gradient)"/>
        <rect id="WhiteLine" width="121.415" height="16.189" transform="translate(0 16.189)" fill="url(#linear-gradient-2)"/>
        <rect id="SimCard" width="12.951" height="9.713" rx="1" transform="translate(12.951 19.426)" fill="url(#radial-gradient-2)"/>
        <rect id="WhiteLine_2" data-name="WhiteLine 2" width="40.472" height="12.951" transform="translate(72.849 59.898)" fill="url(#linear-gradient-2)"/>
        <g id="Signal" transform="translate(29.139 51.868)">
          <path id="Path_3372" data-name="Path 3372" d="M5.14,20.8a.615.615,0,0,0,0-.869,13.367,13.367,0,0,1,0-18.882A.615.615,0,1,0,4.271.18a14.569,14.569,0,0,0,0,20.62A.615.615,0,0,0,5.14,20.8Z" transform="translate(0 0)" fill="#fff"/>
          <path id="Path_3373" data-name="Path 3373" d="M4.049,15.533a.615.615,0,0,0,0-.869,9.638,9.638,0,0,1,0-13.615A.615.615,0,0,0,3.18.18a10.856,10.856,0,0,0,0,15.353A.615.615,0,0,0,4.049,15.533Z" transform="translate(3.724 2.634)" fill="#fff"/>
          <path id="Path_3374" data-name="Path 3374" d="M2.955,10.266a.615.615,0,0,0,0-.869,5.91,5.91,0,0,1,0-8.348A.615.615,0,1,0,2.086.18a7.14,7.14,0,0,0,0,10.086A.615.615,0,0,0,2.955,10.266Z" transform="translate(7.452 5.267)" fill="#fff"/>
          <path id="Path_3375" data-name="Path 3375" d="M1.866,5a.615.615,0,0,0,0-.869,2.181,2.181,0,0,1,0-3.081A.615.615,0,0,0,1,.18,3.412,3.412,0,0,0,1,5,.615.615,0,0,0,1.866,5Z" transform="translate(11.175 7.9)" fill="#fff"/>
        </g>
        <path id="Path_3376" data-name="Path 3376" d="M1.949.081v6.9H1.266V.659L0,1.451V.735L.982.081Zm1.176,6.9V6.422L5.3,3.239a4.18,4.18,0,0,0,.424-.811,1.991,1.991,0,0,0,.149-.692V1.726a1.134,1.134,0,0,0-.261-.8.957.957,0,0,0-.74-.282A.964.964,0,0,0,4.1.979a1.573,1.573,0,0,0-.325.951v0H3.064v0A2.265,2.265,0,0,1,3.6.512a1.617,1.617,0,0,1,1.247-.5A1.771,1.771,0,0,1,6.14.46,1.71,1.71,0,0,1,6.6,1.736v0a2.54,2.54,0,0,1-.175.856,4.437,4.437,0,0,1-.507.97L3.979,6.341H6.611v.636Zm6.128.071a2.325,2.325,0,0,1-1-.19,1.26,1.26,0,0,1-.6-.6,2.619,2.619,0,0,1-.23-1.046h.683a1.368,1.368,0,0,0,.308.9,1.124,1.124,0,0,0,.839.282,1.081,1.081,0,0,0,.8-.282,1.068,1.068,0,0,0,.282-.79V4.743a1.043,1.043,0,0,0-.266-.764,1,1,0,0,0-.745-.27H8.836V3.073h.489a.906.906,0,0,0,.662-.23.865.865,0,0,0,.235-.647V1.6A.936.936,0,0,0,9.967.9.983.983,0,0,0,9.248.655a.94.94,0,0,0-.73.275,1.468,1.468,0,0,0-.3.887H7.536A2.122,2.122,0,0,1,8.008.439,1.684,1.684,0,0,1,9.272.009a1.645,1.645,0,0,1,1.2.42A1.585,1.585,0,0,1,10.9,1.613V2.2a1.249,1.249,0,0,1-.192.673,1.444,1.444,0,0,1-.548.5,1.119,1.119,0,0,1,.628.489,1.633,1.633,0,0,1,.225.882v.588A1.679,1.679,0,0,1,10.555,6.6,1.793,1.793,0,0,1,9.253,7.048Zm2.808-1.129V5.364L13.972.085h.711L12.829,5.307l3.239,0v.617Zm2.765,1.062,0-4.06.659,0V6.981Zm10.747.066a1.63,1.63,0,0,1-1.224-.434,2.067,2.067,0,0,1-.489-1.326v0l.683,0a1.315,1.315,0,0,0,.289.839.961.961,0,0,0,.74.275,1.027,1.027,0,0,0,.771-.28,1.081,1.081,0,0,0,.273-.787V3.927a1.123,1.123,0,0,0-.24-.766.864.864,0,0,0-.685-.273,1.058,1.058,0,0,0-.673.216,1.263,1.263,0,0,0-.408.609h-.6V.081h3.159V.716L24.7.721l0,2a1.281,1.281,0,0,1,.462-.351,1.4,1.4,0,0,1,.586-.123,1.484,1.484,0,0,1,1.15.441A1.769,1.769,0,0,1,27.3,3.927V5.336A1.706,1.706,0,0,1,26.849,6.6,1.725,1.725,0,0,1,25.573,7.048Zm4.5,0A1.652,1.652,0,0,1,28.8,6.557a1.971,1.971,0,0,1-.453-1.387V4.724A3.059,3.059,0,0,1,28.48,3.8a7.654,7.654,0,0,1,.341-.882L30.131.081h.759L29.272,3.519l-.09-.171a1.162,1.162,0,0,1,1-.47,1.558,1.558,0,0,1,1.2.462,1.863,1.863,0,0,1,.427,1.311v.493a2.012,2.012,0,0,1-.453,1.4A1.646,1.646,0,0,1,30.074,7.048Zm0-.645a.988.988,0,0,0,.778-.308,1.259,1.259,0,0,0,.275-.868V4.733a1.347,1.347,0,0,0-.28-.911,1,1,0,0,0-.8-.323.929.929,0,0,0-.756.323,1.4,1.4,0,0,0-.268.915v.493A1.25,1.25,0,0,0,29.3,6.1.986.986,0,0,0,30.074,6.4ZM36.059.081V.688L34.395,6.977h-.73l1.7-6.26h-2.02V1.873h-.683V.081Zm2.865,6.967a2.215,2.215,0,0,1-.984-.2,1.416,1.416,0,0,1-.621-.576,1.82,1.82,0,0,1-.216-.918V4.766a1.628,1.628,0,0,1,.211-.83,1.5,1.5,0,0,1,.6-.574,1.343,1.343,0,0,1-.507-.51,1.43,1.43,0,0,1-.18-.714v-.5a1.589,1.589,0,0,1,.446-1.2,2.06,2.06,0,0,1,2.511,0,1.594,1.594,0,0,1,.443,1.2v.5a1.434,1.434,0,0,1-.183.723,1.278,1.278,0,0,1-.519.5,1.5,1.5,0,0,1,.607.574,1.614,1.614,0,0,1,.213.83v.588a1.837,1.837,0,0,1-.213.918,1.4,1.4,0,0,1-.619.576A2.215,2.215,0,0,1,38.924,7.048Zm0-.636a1.153,1.153,0,0,0,.832-.285,1.065,1.065,0,0,0,.3-.806V4.71a.941.941,0,0,0-.3-.742,1.448,1.448,0,0,0-1.665,0,.947.947,0,0,0-.3.747v.617a1.052,1.052,0,0,0,.3.8A1.153,1.153,0,0,0,38.924,6.412Zm0-3.306a1.042,1.042,0,0,0,.759-.263.988.988,0,0,0,.27-.742V1.679a1.039,1.039,0,0,0-.27-.768,1.2,1.2,0,0,0-1.52,0,1.053,1.053,0,0,0-.268.771v.427a.979.979,0,0,0,.268.735A1.046,1.046,0,0,0,38.924,3.107Zm10.591,3.87,1.6-3.434.09.171a.816.816,0,0,1-.391.334,1.392,1.392,0,0,1-.557.111,1.622,1.622,0,0,1-1.228-.47A1.779,1.779,0,0,1,48.58,2.4V1.911a2.006,2.006,0,0,1,.455-1.4,1.9,1.9,0,0,1,2.559,0,2.011,2.011,0,0,1,.453,1.406v.446a3.029,3.029,0,0,1-.135.911,7.026,7.026,0,0,1-.344.877L50.273,6.977Zm.8-3.462a.985.985,0,0,0,.775-.306,1.257,1.257,0,0,0,.273-.866V1.85a1.3,1.3,0,0,0-.273-.882,1.12,1.12,0,0,0-1.553,0,1.3,1.3,0,0,0-.275.887v.493a1.241,1.241,0,0,0,.275.863A1,1,0,0,0,50.316,3.514Zm4.529,3.533a1.718,1.718,0,0,1-1.307-.472,1.807,1.807,0,0,1-.448-1.3V1.769a1.8,1.8,0,0,1,.451-1.3,2.058,2.058,0,0,1,2.611,0,1.8,1.8,0,0,1,.448,1.3v3.51a1.8,1.8,0,0,1-.448,1.3A1.728,1.728,0,0,1,54.845,7.048Zm0-.636a1.014,1.014,0,0,0,.809-.3,1.224,1.224,0,0,0,.263-.83V1.769a1.221,1.221,0,0,0-.263-.835,1.24,1.24,0,0,0-1.615,0,1.214,1.214,0,0,0-.266.835v3.51a1.217,1.217,0,0,0,.266.83A1.015,1.015,0,0,0,54.845,6.412ZM59.451.081v6.9h-.683V.659L57.5,1.451V.735l.982-.655Zm1.176,6.9V6.422L62.8,3.239a4.179,4.179,0,0,0,.424-.811,1.991,1.991,0,0,0,.149-.692V1.726a1.134,1.134,0,0,0-.261-.8,1.081,1.081,0,0,0-1.511.052,1.573,1.573,0,0,0-.325.951v0h-.716v0A2.265,2.265,0,0,1,61.1.512a1.617,1.617,0,0,1,1.247-.5,1.771,1.771,0,0,1,1.3.451A1.71,1.71,0,0,1,64.1,1.736v0a2.54,2.54,0,0,1-.175.856,4.437,4.437,0,0,1-.507.97L61.48,6.341h2.632v.636ZM73.6,7.048a2.325,2.325,0,0,1-1-.19,1.26,1.26,0,0,1-.6-.6,2.619,2.619,0,0,1-.23-1.046h.683a1.368,1.368,0,0,0,.308.9A1.124,1.124,0,0,0,73.6,6.4a1.081,1.081,0,0,0,.8-.282,1.068,1.068,0,0,0,.282-.79V4.743a1.043,1.043,0,0,0-.266-.764,1,1,0,0,0-.745-.27h-.489V3.073h.489a.906.906,0,0,0,.662-.23.865.865,0,0,0,.235-.647V1.6a.936.936,0,0,0-.254-.7.983.983,0,0,0-.719-.249.94.94,0,0,0-.73.275,1.468,1.468,0,0,0-.3.887h-.683A2.122,2.122,0,0,1,72.353.439,1.684,1.684,0,0,1,73.617.009a1.645,1.645,0,0,1,1.2.42,1.585,1.585,0,0,1,.427,1.183V2.2a1.249,1.249,0,0,1-.192.673,1.444,1.444,0,0,1-.548.5,1.119,1.119,0,0,1,.628.489,1.633,1.633,0,0,1,.225.882v.588A1.679,1.679,0,0,1,74.9,6.6,1.793,1.793,0,0,1,73.6,7.048Zm2.808-1.129V5.364L78.317.085h.711L77.174,5.307l3.239,0v.617Zm2.765,1.062,0-4.06.659,0V6.981Zm3.9.066a1.63,1.63,0,0,1-1.224-.434,2.067,2.067,0,0,1-.489-1.326v0l.683,0a1.315,1.315,0,0,0,.289.839.961.961,0,0,0,.74.275,1.027,1.027,0,0,0,.771-.28,1.081,1.081,0,0,0,.273-.787V3.927a1.123,1.123,0,0,0-.24-.766.864.864,0,0,0-.685-.273,1.058,1.058,0,0,0-.673.216,1.263,1.263,0,0,0-.408.609h-.6V.081h3.159V.716L82.2.721l0,2a1.281,1.281,0,0,1,.462-.351,1.4,1.4,0,0,1,.586-.123,1.484,1.484,0,0,1,1.15.441A1.769,1.769,0,0,1,84.8,3.927V5.336A1.705,1.705,0,0,1,84.35,6.6,1.725,1.725,0,0,1,83.074,7.048Zm4.5,0A1.652,1.652,0,0,1,86.3,6.557a1.971,1.971,0,0,1-.453-1.387V4.724a3.059,3.059,0,0,1,.138-.925,7.652,7.652,0,0,1,.341-.882L87.632.081h.759L86.774,3.519l-.09-.171a1.162,1.162,0,0,1,1-.47,1.558,1.558,0,0,1,1.2.462,1.863,1.863,0,0,1,.427,1.311v.493a2.012,2.012,0,0,1-.453,1.4A1.646,1.646,0,0,1,87.575,7.048Zm0-.645a.988.988,0,0,0,.778-.308,1.259,1.259,0,0,0,.275-.868V4.733a1.347,1.347,0,0,0-.28-.911,1,1,0,0,0-.8-.323.929.929,0,0,0-.756.323,1.4,1.4,0,0,0-.268.915v.493A1.25,1.25,0,0,0,86.8,6.1.986.986,0,0,0,87.575,6.4Z" transform="translate(8.403 39.97)" fill="#fff"/>
        <path id="Path_3377" data-name="Path 3377" d="M1.17,5.189A1.145,1.145,0,0,1,.3,4.874,1.2,1.2,0,0,1,0,4.009V1.669A1.2,1.2,0,0,1,.3.8,1.153,1.153,0,0,1,1.17.49,1.152,1.152,0,0,1,2.041.8a1.2,1.2,0,0,1,.3.868v2.34a1.2,1.2,0,0,1-.3.868A1.152,1.152,0,0,1,1.17,5.189Zm0-.424a.676.676,0,0,0,.539-.2.816.816,0,0,0,.175-.553V1.669a.814.814,0,0,0-.175-.556.682.682,0,0,0-.539-.2.682.682,0,0,0-.538.2.809.809,0,0,0-.177.556v2.34a.811.811,0,0,0,.177.553A.677.677,0,0,0,1.17,4.765Zm1.907.376v-.37L4.528,2.65a2.786,2.786,0,0,0,.283-.541,1.328,1.328,0,0,0,.1-.462V1.641a.756.756,0,0,0-.174-.533A.638.638,0,0,0,4.243.92a.643.643,0,0,0-.514.223,1.049,1.049,0,0,0-.217.634v0H3.035v0A1.51,1.51,0,0,1,3.389.832,1.078,1.078,0,0,1,4.221.5a1.181,1.181,0,0,1,.865.3,1.14,1.14,0,0,1,.305.851v0a1.694,1.694,0,0,1-.117.571,2.958,2.958,0,0,1-.338.647l-1.29,1.85H5.4v.424ZM7.832,0,6.207,6.014H5.792L7.415,0ZM9.59.544v4.6H9.135V.93l-.844.528V.98L8.945.544Zm.784,4.6v-.37L11.825,2.65a2.786,2.786,0,0,0,.283-.541,1.328,1.328,0,0,0,.1-.462V1.641a.756.756,0,0,0-.174-.533.721.721,0,0,0-1.007.035,1.049,1.049,0,0,0-.217.634v0h-.477v0a1.51,1.51,0,0,1,.354-.945A1.078,1.078,0,0,1,11.519.5a1.181,1.181,0,0,1,.865.3,1.14,1.14,0,0,1,.305.851v0a1.693,1.693,0,0,1-.117.571,2.958,2.958,0,0,1-.338.647l-1.29,1.85H12.7v.424Z" transform="translate(8.49 51.519)" fill="#fff"/>
      </g>
      <g id="Signal-2" data-name="Signal" transform="translate(142.92 6346.614)">
        <path id="Path_3372-2" data-name="Path 3372" d="M306.523,77.039a2.277,2.277,0,0,0,0-3.219,49.506,49.506,0,0,1,0-69.933A2.277,2.277,0,1,0,303.3.667a53.96,53.96,0,0,0,0,76.372A2.277,2.277,0,0,0,306.523,77.039Z" transform="translate(-287.487 0)" fill="#aeeeff"/>
        <path id="Path_3373-2" data-name="Path 3373" d="M238.217,121.8a2.276,2.276,0,0,0,0-3.219,35.7,35.7,0,0,1,0-50.426A2.277,2.277,0,1,0,235,64.934a40.209,40.209,0,0,0,0,56.865A2.277,2.277,0,0,0,238.217,121.8Z" transform="translate(-209.427 -54.514)" fill="#70e0ff"/>
        <path id="Path_3374-2" data-name="Path 3374" d="M169.9,166.558a2.276,2.276,0,0,0,0-3.22,21.887,21.887,0,0,1,0-30.918,2.277,2.277,0,0,0-3.219-3.22,26.446,26.446,0,0,0,0,37.357A2.277,2.277,0,0,0,169.9,166.558Z" transform="translate(-131.354 -109.026)" fill="#27d1ff"/>
        <path id="Path_3375-2" data-name="Path 3375" d="M101.6,211.316a2.276,2.276,0,0,0,0-3.219,8.078,8.078,0,0,1,0-11.411,2.277,2.277,0,0,0-3.219-3.219,12.636,12.636,0,0,0,0,17.85A2.277,2.277,0,0,0,101.6,211.316Z" transform="translate(-53.299 -163.539)" fill="#02bdf0"/>
      </g>
    </g>
  </g>
</svg>
