<svg xmlns="http://www.w3.org/2000/svg" xmlns:xlink="http://www.w3.org/1999/xlink" width="84.672" height="118.473" viewBox="0 0 84.672 118.473">
  <defs>
    <linearGradient id="linear-gradient" x1="0.726" y1="1" x2="0.712" gradientUnits="objectBoundingBox">
      <stop offset="0" stop-color="#beeaff"/>
      <stop offset="0.289" stop-color="#7dd5ff"/>
      <stop offset="0.661" stop-color="#00acff"/>
      <stop offset="1" stop-color="#0087c8"/>
    </linearGradient>
  </defs>
  <g id="nfc" transform="translate(-158.818 -6347.989)">
    <path id="Path_3353" data-name="Path 3353" d="M63.319,70H7a7.008,7.008,0,0,1-7-7V7A7.008,7.008,0,0,1,7,0H41.594C37.36.005,32.9.01,31.931.01a23.455,23.455,0,0,1,7.074.957,10.689,10.689,0,0,1,5.2,3.327,17.45,17.45,0,0,1,2.813,6.616,62.367,62.367,0,0,1,1.405,8.649c.569,5.673.539,10.672.539,10.721l-.118,21.7c-.036-.05-20.12-20.056-22.41-22.337v8.864L54.666,66.68c0-.128.237-22.066.237-36.4a138.645,138.645,0,0,0-.777-17.864c-.69-5-1.94-8.362-3.935-10.574A13.9,13.9,0,0,0,48.084,0H63.319a7.008,7.008,0,0,1,7,7V63A7.008,7.008,0,0,1,63.319,70ZM15.328,2.831c0,.222-.238,22.374-.238,36.651a139.583,139.583,0,0,0,.783,17.987c.694,5.036,1.953,8.419,3.962,10.646a13.988,13.988,0,0,0,2.128,1.859H22l4.273,0h.594l11.351-.01A23.613,23.613,0,0,1,31.1,69a10.766,10.766,0,0,1-5.238-3.35,17.571,17.571,0,0,1-2.832-6.661,62.8,62.8,0,0,1-1.415-8.708c-.573-5.711-.543-10.745-.543-10.8l.009-1.678c.027-4.987.11-20.164.11-20.173.035.049,18.8,18.743,22.565,22.49V31.2Z" transform="translate(164.931 6347.99)" fill="url(#linear-gradient)"/>
    <path id="Path_3352" data-name="Path 3352" d="M-18.529,0H-23.78L-35.162-19.16l-.857-1.428q-.264-.439-.813-1.384V0h-4.351V-29.993h5.977l10.5,17.666q.132.22,1.912,3.23v-20.9h4.263ZM-.978,0H-6.537V-29.993H12.426v4.636H-.978v8.2H9.569v4.5H-.978ZM38.48-10.415l5.01.549A11.724,11.724,0,0,1,40.007-2.45,10.83,10.83,0,0,1,32.13.461,10.29,10.29,0,0,1,25.461-1.6a13.187,13.187,0,0,1-3.944-5.6,21.233,21.233,0,0,1-1.384-7.8q0-6.855,3.252-11.151a10.6,10.6,0,0,1,8.943-4.3,10.511,10.511,0,0,1,7.427,2.747,12.945,12.945,0,0,1,3.735,7.866l-5.01.527Q37.1-26.1,32.371-26.1a5.229,5.229,0,0,0-4.713,2.823q-1.681,2.823-1.681,8.185,0,5.449,1.8,8.229a5.465,5.465,0,0,0,4.768,2.78A5.23,5.23,0,0,0,36.59-5.955,7.452,7.452,0,0,0,38.48-10.415Z" transform="translate(200 6466)" fill="#009ce8"/>
  </g>
</svg>
