<svg version="1.1" id="Capa_1" xmlns="http://www.w3.org/2000/svg" xmlns:xlink="http://www.w3.org/1999/xlink" x="0px" y="0px" viewBox="0 0 512 512" style="enable-background:new 0 0 512 512;" xml:space="preserve">
<g>
	<g>
		<g>
			<g>
				<g>
					
						<line style="fill:none;stroke:#0055B8;stroke-width:15;stroke-linecap:round;stroke-linejoin:round;stroke-miterlimit:10;" x1="219.488" y1="137.553" x2="219.488" y2="151.553"/>
					
						<line style="fill:none;stroke:#0055B8;stroke-width:15;stroke-linecap:round;stroke-linejoin:round;stroke-miterlimit:10;" x1="256" y1="137.553" x2="256" y2="151.553"/>
					
						<line style="fill:none;stroke:#0055B8;stroke-width:15;stroke-linecap:round;stroke-linejoin:round;stroke-miterlimit:10;" x1="292.512" y1="137.553" x2="292.512" y2="151.553"/>
				</g>
				<g>
					
						<line style="fill:none;stroke:#0055B8;stroke-width:15;stroke-linecap:round;stroke-linejoin:round;stroke-miterlimit:10;" x1="219.488" y1="301.554" x2="219.488" y2="315.554"/>
					
						<line style="fill:none;stroke:#0055B8;stroke-width:15;stroke-linecap:round;stroke-linejoin:round;stroke-miterlimit:10;" x1="256" y1="301.554" x2="256" y2="315.554"/>
					
						<line style="fill:none;stroke:#0055B8;stroke-width:15;stroke-linecap:round;stroke-linejoin:round;stroke-miterlimit:10;" x1="292.512" y1="301.554" x2="292.512" y2="315.554"/>
				</g>
				<g>
					
						<line style="fill:none;stroke:#0055B8;stroke-width:15;stroke-linecap:round;stroke-linejoin:round;stroke-miterlimit:10;" x1="345" y1="190.042" x2="331" y2="190.042"/>
					
						<line style="fill:none;stroke:#0055B8;stroke-width:15;stroke-linecap:round;stroke-linejoin:round;stroke-miterlimit:10;" x1="345" y1="226.554" x2="331" y2="226.554"/>
					
						<line style="fill:none;stroke:#0055B8;stroke-width:15;stroke-linecap:round;stroke-linejoin:round;stroke-miterlimit:10;" x1="345" y1="263.066" x2="331" y2="263.066"/>
				</g>
				<g>
					
						<line style="fill:none;stroke:#0055B8;stroke-width:15;stroke-linecap:round;stroke-linejoin:round;stroke-miterlimit:10;" x1="181" y1="190.042" x2="167" y2="190.042"/>
					
						<line style="fill:none;stroke:#0055B8;stroke-width:15;stroke-linecap:round;stroke-linejoin:round;stroke-miterlimit:10;" x1="181" y1="226.554" x2="167" y2="226.554"/>
					
						<line style="fill:none;stroke:#0055B8;stroke-width:15;stroke-linecap:round;stroke-linejoin:round;stroke-miterlimit:10;" x1="181" y1="263.066" x2="167" y2="263.066"/>
				</g>
			</g>
			<path style="fill:none;stroke:#0055B8;stroke-width:15;stroke-linecap:round;stroke-linejoin:round;stroke-miterlimit:10;" d="&#10;&#9;&#9;&#9;&#9;M310.319,301.554H201.681c-11.422,0-20.681-9.259-20.681-20.681V172.234c0-11.422,9.259-20.681,20.681-20.681h108.638&#10;&#9;&#9;&#9;&#9;c11.422,0,20.681,9.259,20.681,20.681v108.639C331,292.295,321.741,301.554,310.319,301.554z"/>
			<g>
				<g>
					<path style="fill:none;stroke:#0055B8;stroke-width:15;stroke-linecap:round;stroke-linejoin:round;stroke-miterlimit:10;" d="&#10;&#9;&#9;&#9;&#9;&#9;&#9;M208.924,259.879l25.16-66.061c0.514-1.257,2.293-1.259,2.81-0.003l24.931,66.064"/>
					
						<line style="fill:none;stroke:#0055B8;stroke-width:15;stroke-linecap:round;stroke-linejoin:round;stroke-miterlimit:10;" x1="216.77" y1="243.427" x2="254.105" y2="243.427"/>
				</g>
				<g>
					
						<line style="fill:none;stroke:#0055B8;stroke-width:15;stroke-linecap:round;stroke-linejoin:round;stroke-miterlimit:10;" x1="292.5" y1="193.39" x2="292.5" y2="260.395"/>
				</g>
			</g>
		</g>
		<path style="fill:none;stroke:#0055B8;stroke-width:15;stroke-linecap:round;stroke-linejoin:round;stroke-miterlimit:10;" d="&#10;&#9;&#9;&#9;M82.889,402.499H31.5c-13.255,0-24-10.745-24-24l0-276.002c0-13.255,10.745-24,24-24h268.167"/>
		
			<line style="fill:none;stroke:#0055B8;stroke-width:15;stroke-linecap:round;stroke-linejoin:round;stroke-miterlimit:10;" x1="214.444" y1="402.499" x2="117.778" y2="402.499"/>
		<path style="fill:none;stroke:#0055B8;stroke-width:15;stroke-linecap:round;stroke-linejoin:round;stroke-miterlimit:10;" d="&#10;&#9;&#9;&#9;M464,78.497h16.5c13.255,0,24,10.745,24,24v276.002c0,13.255-10.745,24-24,24H296.778"/>
		<path style="fill:none;stroke:#0055B8;stroke-width:15;stroke-linecap:round;stroke-linejoin:round;stroke-miterlimit:10;" d="&#10;&#9;&#9;&#9;M474.5,217.665v125.418c0,2.071-1.679,3.75-3.75,3.75H41.25c-2.071,0-3.75-1.679-3.75-3.75V112.248c0-2.071,1.679-3.75,3.75-3.75&#10;&#9;&#9;&#9;h262.083"/>
		<path style="fill:none;stroke:#0055B8;stroke-width:15;stroke-linecap:round;stroke-linejoin:round;stroke-miterlimit:10;" d="&#10;&#9;&#9;&#9;M462,108.498h8.75c2.071,0,3.75,1.679,3.75,3.75v69.75"/>
		<path style="fill:none;stroke:#0055B8;stroke-width:15;stroke-linecap:round;stroke-linejoin:round;stroke-miterlimit:10;" d="&#10;&#9;&#9;&#9;M362,504.5H150c-8.284,0-15-6.716-15-15v0c0-8.284,6.716-15,15-15h212c8.284,0,15,6.716,15,15v0&#10;&#9;&#9;&#9;C377,497.784,370.284,504.5,362,504.5z"/>
		
			<polyline style="fill:none;stroke:#0055B8;stroke-width:15;stroke-linecap:round;stroke-linejoin:round;stroke-miterlimit:10;" points="&#10;&#9;&#9;&#9;336,405.166 336,474.5 176,474.5 176,405.499 &#9;&#9;"/>
		<path style="fill:none;stroke:#0055B8;stroke-width:15;stroke-linecap:round;stroke-linejoin:round;stroke-miterlimit:10;" d="&#10;&#9;&#9;&#9;M278,420.499h-44c-9.941,0-18-8.059-18-18v0c0-9.941,8.059-18,18-18h44c9.941,0,18,8.059,18,18v0&#10;&#9;&#9;&#9;C296,412.44,287.941,420.499,278,420.499z"/>
		<path style="fill:none;stroke:#0055B8;stroke-width:15;stroke-linecap:round;stroke-linejoin:round;stroke-miterlimit:10;" d="&#10;&#9;&#9;&#9;M407.764,111.798h4.768c14.28,0,25.86,11.58,25.86,25.86v3.56"/>
		<path style="fill:none;stroke:#0055B8;stroke-width:15;stroke-linecap:round;stroke-linejoin:round;stroke-miterlimit:10;" d="&#10;&#9;&#9;&#9;M351.002,92.633V71.661c0-17.121,13.879-31,31-31h0c17.121,0,31,13.879,31,31v20.855c0,17.153-13.905,31.059-31.058,31.059h0&#10;&#9;&#9;&#9;C364.855,123.575,351.002,109.721,351.002,92.633z"/>
		
			<line style="fill:none;stroke:#0055B8;stroke-width:15;stroke-linecap:round;stroke-linejoin:round;stroke-miterlimit:10;" x1="352.514" y1="77.398" x2="411.489" y2="77.398"/>
		
			<circle style="fill:none;stroke:#0055B8;stroke-width:15;stroke-linecap:round;stroke-linejoin:round;stroke-miterlimit:10;" cx="382.002" cy="87.499" r="79.999"/>
		<path style="fill:none;stroke:#0055B8;stroke-width:15;stroke-linecap:round;stroke-linejoin:round;stroke-miterlimit:10;" d="&#10;&#9;&#9;&#9;M325.612,141.718v-4.06c0-14.28,11.58-25.86,25.86-25.86h4.515"/>
	</g>
</g>
<g>
</g>
<g>
</g>
<g>
</g>
<g>
</g>
<g>
</g>
<g>
</g>
<g>
</g>
<g>
</g>
<g>
</g>
<g>
</g>
<g>
</g>
<g>
</g>
<g>
</g>
<g>
</g>
<g>
</g>
</svg>