<svg version="1.1" id="Capa_1" xmlns="http://www.w3.org/2000/svg" xmlns:xlink="http://www.w3.org/1999/xlink" x="0px" y="0px" viewBox="0 0 512 512" style="enable-background:new 0 0 512 512;" xml:space="preserve">
<g>
	<g>
		<g>
			<path style="fill:none;stroke:#0055B8;stroke-width:15;stroke-linecap:round;stroke-linejoin:round;stroke-miterlimit:10;" d="&#10;&#9;&#9;&#9;&#9;M146.065,387.659v16.926c0,7.429,6.023,13.452,13.452,13.452h7.106c5.441,0,10.343,3.279,12.419,8.309&#10;&#9;&#9;&#9;&#9;c0.023,0.055,0.045,0.11,0.068,0.165c2.087,5.024,0.94,10.808-2.907,14.655l-5.025,5.025c-5.254,5.253-5.254,13.771,0,19.024&#10;&#9;&#9;&#9;&#9;l14.172,14.172c5.253,5.253,13.771,5.253,19.024,0l5.024-5.024c3.847-3.847,9.631-4.995,14.656-2.907&#10;&#9;&#9;&#9;&#9;c0.055,0.023,0.11,0.046,0.166,0.068c5.029,2.076,8.309,6.978,8.309,12.419v7.106c0,7.429,6.023,13.452,13.452,13.452h20.042&#10;&#9;&#9;&#9;&#9;c7.429,0,13.452-6.023,13.452-13.452v-7.106c0-5.441,3.279-10.343,8.308-12.419c0.055-0.023,0.11-0.045,0.164-0.068&#10;&#9;&#9;&#9;&#9;c5.024-2.087,10.809-0.94,14.656,2.908l5.024,5.024c5.253,5.253,13.771,5.254,19.024,0l14.172-14.172&#10;&#9;&#9;&#9;&#9;c5.253-5.253,5.253-13.771,0-19.024l-5.024-5.025c-3.847-3.847-4.995-9.632-2.907-14.656c0.023-0.055,0.046-0.11,0.068-0.165&#10;&#9;&#9;&#9;&#9;c2.076-5.029,6.978-8.308,12.419-8.308h7.105c7.429,0,13.452-6.022,13.452-13.452v-16.926H146.065z"/>
			<path style="fill:none;stroke:#0055B8;stroke-width:15;stroke-linecap:round;stroke-linejoin:round;stroke-miterlimit:10;" d="&#10;&#9;&#9;&#9;&#9;M217.074,387.659c-0.396,2.244-0.615,4.548-0.615,6.906c0,21.838,17.703,39.541,39.541,39.541&#10;&#9;&#9;&#9;&#9;c21.838,0,39.541-17.703,39.541-39.541c0-2.357-0.219-4.662-0.615-6.906H217.074z"/>
		</g>
		<path style="fill:none;stroke:#0055B8;stroke-width:15;stroke-linejoin:round;stroke-miterlimit:10;" d="M256,229.192v121.185&#10;&#9;&#9;&#9;h152.904c2.762,0,5-2.239,5-5V149.764c0-2.761-2.238-5-5-5h-78.643"/>
		<g>
			
				<line style="fill:none;stroke:#0055B8;stroke-width:15;stroke-linecap:round;stroke-linejoin:round;stroke-miterlimit:10;" x1="138.264" y1="308.56" x2="215.832" y2="308.56"/>
			
				<line style="fill:none;stroke:#0055B8;stroke-width:15;stroke-linecap:round;stroke-linejoin:round;stroke-miterlimit:10;" x1="138.264" y1="273.22" x2="215.832" y2="273.22"/>
			
				<line style="fill:none;stroke:#0055B8;stroke-width:15;stroke-linecap:round;stroke-linejoin:round;stroke-miterlimit:10;" x1="138.264" y1="237.88" x2="150.307" y2="237.88"/>
		</g>
		<g>
			
				<line style="fill:none;stroke:#0055B8;stroke-width:15;stroke-linecap:round;stroke-linejoin:round;stroke-miterlimit:10;" x1="373.736" y1="308.56" x2="296.168" y2="308.56"/>
			
				<line style="fill:none;stroke:#0055B8;stroke-width:15;stroke-linecap:round;stroke-linejoin:round;stroke-miterlimit:10;" x1="373.736" y1="273.22" x2="296.168" y2="273.22"/>
			
				<line style="fill:none;stroke:#0055B8;stroke-width:15;stroke-linecap:round;stroke-linejoin:round;stroke-miterlimit:10;" x1="373.736" y1="237.88" x2="361.693" y2="237.88"/>
		</g>
		<path style="fill:none;stroke:#0055B8;stroke-width:15;stroke-linecap:round;stroke-linejoin:round;stroke-miterlimit:10;" d="&#10;&#9;&#9;&#9;M296.237,80.671v-38.4c0-8.284,6.716-15,15-15h54.631"/>
		<path style="fill:none;stroke:#0055B8;stroke-width:15;stroke-linecap:round;stroke-linejoin:round;stroke-miterlimit:10;" d="&#10;&#9;&#9;&#9;M215.763,80.671v-38.4c0-8.284-6.716-15-15-15h-54.631"/>
		
			<line style="fill:none;stroke:#0055B8;stroke-width:15;stroke-linecap:round;stroke-linejoin:round;stroke-miterlimit:10;" x1="330.261" y1="101.181" x2="430.697" y2="101.181"/>
		
			<line style="fill:none;stroke:#0055B8;stroke-width:15;stroke-linecap:round;stroke-linejoin:round;stroke-miterlimit:10;" x1="181.739" y1="101.181" x2="81.303" y2="101.181"/>
		<path style="fill:none;stroke:#0055B8;stroke-width:15;stroke-linecap:round;stroke-linejoin:round;stroke-miterlimit:10;" d="&#10;&#9;&#9;&#9;M123,144.764h-19.904c-2.761,0-5,2.239-5,5v195.614c0,2.761,2.239,5,5,5H256"/>
		
			<line style="fill:none;stroke:#0055B8;stroke-width:15;stroke-linecap:round;stroke-linejoin:round;stroke-miterlimit:10;" x1="181.739" y1="144.764" x2="158" y2="144.764"/>
		<path style="fill:none;stroke:#0055B8;stroke-width:15;stroke-linecap:round;stroke-linejoin:round;stroke-miterlimit:10;" d="&#10;&#9;&#9;&#9;M98.096,170.748H76.684c-8.284,0-15,6.716-15,15V266"/>
		<path style="fill:none;stroke:#0055B8;stroke-width:15;stroke-linecap:round;stroke-linejoin:round;stroke-miterlimit:10;" d="&#10;&#9;&#9;&#9;M61.684,301v71.659c0,8.284,6.716,15,15,15h358.632c8.284,0,15-6.716,15-15V185.748c0-8.284-6.716-15-15-15h-21.412"/>
		<path style="fill:none;stroke:#0055B8;stroke-width:15;stroke-linecap:round;stroke-linejoin:round;stroke-miterlimit:10;" d="&#10;&#9;&#9;&#9;M395.409,47.041h-19.541c-5.523,0-10-4.477-10-10V17.5c0-5.523,4.477-10,10-10h19.541c5.523,0,10,4.477,10,10v19.541&#10;&#9;&#9;&#9;C405.409,42.564,400.932,47.041,395.409,47.041z"/>
		<path style="fill:none;stroke:#0055B8;stroke-width:15;stroke-linecap:round;stroke-linejoin:round;stroke-miterlimit:10;" d="&#10;&#9;&#9;&#9;M136.132,47.041h-19.541c-5.523,0-10-4.477-10-10V17.5c0-5.523,4.477-10,10-10h19.541c5.523,0,10,4.477,10,10v19.541&#10;&#9;&#9;&#9;C146.132,42.564,141.655,47.041,136.132,47.041z"/>
		<g>
			<path style="fill:none;stroke:#0055B8;stroke-width:15;stroke-linecap:round;stroke-linejoin:round;stroke-miterlimit:10;" d="&#10;&#9;&#9;&#9;&#9;M460.238,120.952h-19.541c-5.523,0-10-4.477-10-10V91.411c0-5.523,4.477-10,10-10h19.541c5.523,0,10,4.477,10,10v19.541&#10;&#9;&#9;&#9;&#9;C470.238,116.474,465.761,120.952,460.238,120.952z"/>
			<path style="fill:none;stroke:#0055B8;stroke-width:15;stroke-linecap:round;stroke-linejoin:round;stroke-miterlimit:10;" d="&#10;&#9;&#9;&#9;&#9;M71.303,120.952H51.762c-5.523,0-10-4.477-10-10V91.411c0-5.523,4.477-10,10-10h19.541c5.523,0,10,4.477,10,10v19.541&#10;&#9;&#9;&#9;&#9;C81.303,116.474,76.826,120.952,71.303,120.952z"/>
		</g>
		<path style="fill:none;stroke:#0055B8;stroke-width:15;stroke-linecap:round;stroke-linejoin:round;stroke-miterlimit:10;" d="&#10;&#9;&#9;&#9;M217.964,121.896v66.072c0,2.761,2.239,5,5,5h36.399c1.326,0,2.598-0.527,3.536-1.464l29.673-29.673&#10;&#9;&#9;&#9;c0.938-0.938,1.464-2.209,1.464-3.536v-36.399c0-2.761-2.239-5-5-5h-66.072C220.203,116.896,217.964,119.134,217.964,121.896z"/>
		<path style="fill:none;stroke:#0055B8;stroke-width:15;stroke-linecap:round;stroke-linejoin:round;stroke-miterlimit:10;" d="&#10;&#9;&#9;&#9;M330.261,168V95.671c0-8.284-6.716-15-15-15H196.739c-8.284,0-15,6.716-15,15v118.521c0,8.284,6.716,15,15,15h118.521&#10;&#9;&#9;&#9;c8.284,0,15-6.716,15-15V203"/>
	</g>
</g>
<g>
</g>
<g>
</g>
<g>
</g>
<g>
</g>
<g>
</g>
<g>
</g>
<g>
</g>
<g>
</g>
<g>
</g>
<g>
</g>
<g>
</g>
<g>
</g>
<g>
</g>
<g>
</g>
<g>
</g>
</svg>