<svg version="1.1" id="Capa_1" xmlns="http://www.w3.org/2000/svg" xmlns:xlink="http://www.w3.org/1999/xlink" x="0px" y="0px" viewBox="0 0 512 512" style="enable-background:new 0 0 512 512;" xml:space="preserve">
<g>
	<path style="fill:none;stroke:#0055B8;stroke-width:15;stroke-linecap:round;stroke-linejoin:round;stroke-miterlimit:10;" d="&#10;&#9;&#9;M146.4,166.05c-2.06,10.16-3.36,20.77-3.83,31.81c-0.12,2.78-0.84,5.5-2.11,7.98l-32.51,63.74c-6.64,13.03,2.82,28.48,17.44,28.48&#10;&#9;&#9;h6.98c5.53,0,10,4.47,10,10v54.02c0,33.14,26.87,60,60,60h13.19c5.53,0,10,4.48,10,10V456c0,16.57,13.44,30,30,30h38.23"/>
	<path style="fill:none;stroke:#0055B8;stroke-width:15;stroke-linecap:round;stroke-linejoin:round;stroke-miterlimit:10;" d="&#10;&#9;&#9;M310.94,26.38c-33.89,2.03-65.22,12.34-91.44,29.63"/>
	<path style="fill:none;stroke:#0055B8;stroke-width:15;stroke-linecap:round;stroke-linejoin:round;stroke-miterlimit:10;" d="&#10;&#9;&#9;M466.02,91.22c24.11,30.14,38.48,69.63,38.48,116.12c0,54.88-24,113.28-59.1,156.78c-2.9,3.59-4.52,8.04-4.52,12.66v3.74"/>
	<path style="fill:none;stroke:#0055B8;stroke-width:15;stroke-linecap:round;stroke-linejoin:round;stroke-miterlimit:10;" d="&#10;&#9;&#9;M441.41,66.34c-25.12-20.57-56.24-33.89-90.52-38.52"/>
	<g>
		<path style="fill:none;stroke:#0055B8;stroke-width:15;stroke-linecap:round;stroke-linejoin:round;stroke-miterlimit:10;" d="&#10;&#9;&#9;&#9;M60.73,382.126c-11.375-12.13-18.343-28.438-18.343-46.374c0-17.936,6.968-34.245,18.343-46.374"/>
		<path style="fill:none;stroke:#0055B8;stroke-width:15;stroke-linecap:round;stroke-linejoin:round;stroke-miterlimit:10;" d="&#10;&#9;&#9;&#9;M82.387,361.825c-6.4-6.823-10.333-16.003-10.333-26.073c0-10.07,3.933-19.25,10.333-26.073"/>
	</g>
	
		<line style="fill:none;stroke:#0055B8;stroke-width:15;stroke-linecap:round;stroke-linejoin:round;stroke-miterlimit:10;" x1="330.9" y1="90.49" x2="330.9" y2="47.5"/>
	
		<line style="fill:none;stroke:#0055B8;stroke-width:15;stroke-linecap:round;stroke-linejoin:round;stroke-miterlimit:10;" x1="250.03" y1="287.24" x2="217.08" y2="321.37"/>
	
		<line style="fill:none;stroke:#0055B8;stroke-width:15;stroke-linecap:round;stroke-linejoin:round;stroke-miterlimit:10;" x1="183.19" y1="335.75" x2="143.7" y2="335.75"/>
	<g>
		<path style="fill:none;stroke:#0055B8;stroke-width:15;stroke-linecap:round;stroke-linejoin:round;stroke-miterlimit:10;" d="&#10;&#9;&#9;&#9;M445.905,216.011v-21.039c0-4.768-3.366-8.873-8.042-9.806l-12.804-2.557c-3.466-0.692-6.339-3.153-7.474-6.499&#10;&#9;&#9;&#9;c-1.298-3.824-2.839-7.535-4.606-11.114c-1.566-3.173-1.283-6.947,0.68-9.891l7.248-10.872c2.644-3.966,2.121-9.247-1.249-12.618&#10;&#9;&#9;&#9;l-14.876-14.876c-3.371-3.371-8.652-3.894-12.618-1.249l-10.871,7.248c-2.945,1.963-6.718,2.247-9.892,0.68&#10;&#9;&#9;&#9;c-3.579-1.767-7.29-3.308-11.114-4.606c-3.347-1.136-5.807-4.008-6.499-7.474l-2.557-12.804c-0.934-4.676-5.038-8.042-9.806-8.042&#10;&#9;&#9;&#9;h-21.039c-4.768,0-8.873,3.366-9.806,8.042l-2.557,12.804c-0.692,3.466-3.153,6.339-6.499,7.474&#10;&#9;&#9;&#9;c-3.824,1.298-7.535,2.839-11.114,4.606c-3.173,1.566-6.947,1.283-9.892-0.68l-10.871-7.248&#10;&#9;&#9;&#9;c-3.966-2.644-9.247-2.121-12.618,1.249l-14.876,14.876c-3.371,3.371-3.894,8.652-1.249,12.618l7.248,10.872&#10;&#9;&#9;&#9;c1.963,2.945,2.247,6.718,0.68,9.891c-1.767,3.579-3.308,7.29-4.606,11.114c-1.136,3.347-4.008,5.807-7.474,6.499l-12.804,2.557&#10;&#9;&#9;&#9;c-4.676,0.934-8.042,5.038-8.042,9.806v21.039c0,4.768,3.366,8.873,8.042,9.806l12.804,2.557c3.466,0.692,6.339,3.153,7.474,6.499&#10;&#9;&#9;&#9;c1.298,3.824,2.839,7.535,4.606,11.114c1.566,3.173,1.283,6.947-0.68,9.891l-7.248,10.871c-2.644,3.966-2.121,9.247,1.249,12.618&#10;&#9;&#9;&#9;l14.876,14.876c3.371,3.371,8.652,3.894,12.618,1.249l10.871-7.248c2.945-1.963,6.718-2.247,9.892-0.68&#10;&#9;&#9;&#9;c3.579,1.767,7.29,3.308,11.114,4.606c3.347,1.136,5.807,4.008,6.499,7.474l2.557,12.804c0.934,4.676,5.038,8.042,9.806,8.042&#10;&#9;&#9;&#9;h21.039c4.768,0,8.873-3.366,9.806-8.042l2.557-12.804c0.692-3.466,3.153-6.339,6.499-7.474c3.824-1.298,7.535-2.839,11.114-4.606&#10;&#9;&#9;&#9;c3.173-1.566,6.947-1.283,9.892,0.68l10.871,7.248c3.966,2.644,9.247,2.121,12.618-1.249l14.876-14.876&#10;&#9;&#9;&#9;c3.371-3.371,3.894-8.652,1.249-12.618l-7.248-10.871c-1.963-2.945-2.247-6.718-0.68-9.891c1.767-3.579,3.308-7.29,4.606-11.114&#10;&#9;&#9;&#9;c1.136-3.347,4.008-5.807,7.474-6.499l12.804-2.557C442.538,224.884,445.905,220.779,445.905,216.011z"/>
		<path style="fill:none;stroke:#0055B8;stroke-width:15;stroke-linecap:round;stroke-linejoin:round;stroke-miterlimit:10;" d="&#10;&#9;&#9;&#9;M372.04,237.74c6.98-8.88,11.14-20.08,11.14-32.25c0-28.87-23.41-52.27-52.28-52.27c-28.86,0-52.27,23.4-52.27,52.27&#10;&#9;&#9;&#9;s23.41,52.27,52.27,52.27c3.98,0,7.85-0.44,11.58-1.29"/>
	</g>
	
		<circle style="fill:none;stroke:#0055B8;stroke-width:15;stroke-linecap:round;stroke-linejoin:round;stroke-miterlimit:10;" cx="330.905" cy="27.5" r="20"/>
	
		<circle style="fill:none;stroke:#0055B8;stroke-width:15;stroke-linecap:round;stroke-linejoin:round;stroke-miterlimit:10;" cx="203.187" cy="335.752" r="20"/>
	<path style="fill:none;stroke:#0055B8;stroke-width:15;stroke-linecap:round;stroke-linejoin:round;stroke-miterlimit:10;" d="&#10;&#9;&#9;M189.5,7.5h-152c-16.569,0-30,13.431-30,30v63.984c0,16.569,13.431,30,30,30h69.911c2.676,0,5.241,1.073,7.121,2.979l29.245,29.659&#10;&#9;&#9;c6.279,6.368,17.121,1.922,17.121-7.021v-18.616c0-3.866,3.134-7,7-7H189.5c16.569,0,30-13.431,30-30V37.5&#10;&#9;&#9;C219.5,20.931,206.068,7.5,189.5,7.5z"/>
	<g>
		<path style="fill:none;stroke:#0055B8;stroke-width:15;stroke-linecap:round;stroke-linejoin:round;stroke-miterlimit:10;" d="&#10;&#9;&#9;&#9;M292.5,460.74v13.76c0,16.57,13.43,30,30,30h152c16.57,0,30-13.43,30-30v-63.98c0-16.57-13.43-30-30-30h-69.91&#10;&#9;&#9;&#9;c-2.68,0-5.24-1.08-7.12-2.98l-29.25-29.66c-6.28-6.37-17.12-1.92-17.12,7.02v18.62c0,3.86-3.13,7-7,7h-21.6&#10;&#9;&#9;&#9;c-16.57,0-30,13.43-30,30v15.22"/>
		<g>
			<g>
				<path style="fill:none;stroke:#0055B8;stroke-width:15;stroke-linecap:round;stroke-linejoin:round;stroke-miterlimit:10;" d="&#10;&#9;&#9;&#9;&#9;&#9;M368.5,450.008v-15c0-9.665-7.835-17.5-17.5-17.5h0c-9.665,0-17.5,7.835-17.5,17.5v15c0,9.665,7.835,17.5,17.5,17.5h0&#10;&#9;&#9;&#9;&#9;&#9;C360.665,467.508,368.5,459.673,368.5,450.008z"/>
			</g>
			<g>
				<path style="fill:none;stroke:#0055B8;stroke-width:15;stroke-linecap:round;stroke-linejoin:round;stroke-miterlimit:10;" d="&#10;&#9;&#9;&#9;&#9;&#9;M463.5,450.008v-15c0-9.665-7.835-17.5-17.5-17.5h0c-9.665,0-17.5,7.835-17.5,17.5v15c0,9.665,7.835,17.5,17.5,17.5h0&#10;&#9;&#9;&#9;&#9;&#9;C455.665,467.508,463.5,459.673,463.5,450.008z"/>
			</g>
			
				<polyline style="fill:none;stroke:#0055B8;stroke-width:15;stroke-linecap:round;stroke-linejoin:round;stroke-miterlimit:10;" points="&#10;&#9;&#9;&#9;&#9;388.5,417.508 398.5,417.508 398.5,467.508 &#9;&#9;&#9;"/>
		</g>
	</g>
	<g>
		<g>
			<g>
				
					<line style="fill:none;stroke:#0055B8;stroke-width:15;stroke-linecap:round;stroke-linejoin:round;stroke-miterlimit:10;" x1="42.246" y1="44.492" x2="42.246" y2="94.492"/>
				
					<line style="fill:none;stroke:#0055B8;stroke-width:15;stroke-linecap:round;stroke-linejoin:round;stroke-miterlimit:10;" x1="77.246" y1="44.492" x2="77.246" y2="94.492"/>
				
					<line style="fill:none;stroke:#0055B8;stroke-width:15;stroke-linecap:round;stroke-linejoin:round;stroke-miterlimit:10;" x1="42.246" y1="44.492" x2="77.246" y2="94.492"/>
			</g>
			<g>
				
					<line style="fill:none;stroke:#0055B8;stroke-width:15;stroke-linecap:round;stroke-linejoin:round;stroke-miterlimit:10;" x1="154.754" y1="44.492" x2="154.754" y2="94.492"/>
				<path style="fill:none;stroke:#0055B8;stroke-width:15;stroke-linecap:round;stroke-linejoin:round;stroke-miterlimit:10;" d="&#10;&#9;&#9;&#9;&#9;&#9;M154.754,74.492h15c8.284,0,15-6.716,15-15v0c0-8.284-6.716-15-15-15h-15"/>
			</g>
			<g>
				<path style="fill:none;stroke:#0055B8;stroke-width:15;stroke-linecap:round;stroke-linejoin:round;stroke-miterlimit:10;" d="&#10;&#9;&#9;&#9;&#9;&#9;M107.246,44.492V94.45c0.553,0.095,17.508,0,17.508,0"/>
			</g>
		</g>
	</g>
</g>
<g>
</g>
<g>
</g>
<g>
</g>
<g>
</g>
<g>
</g>
<g>
</g>
<g>
</g>
<g>
</g>
<g>
</g>
<g>
</g>
<g>
</g>
<g>
</g>
<g>
</g>
<g>
</g>
<g>
</g>
</svg>