<svg id="Capa_1" enable-background="new 0 0 512 512" height="512" viewBox="0 0 512 512" width="512" xmlns="http://www.w3.org/2000/svg"><g><g><path d="m193.405 185.104c2.463-2.856 3.56-6.63 3.006-10.353-2.264-15.234-11.523-28.079-24.175-35.514 4.219-5.396 6.743-12.178 6.743-19.543 0-17.531-14.262-31.793-31.793-31.793s-31.793 14.262-31.793 31.793c0 7.365 2.524 14.147 6.743 19.542-12.653 7.435-21.912 20.281-24.175 35.514-.554 3.722.542 7.496 3.005 10.353 2.475 2.87 6.067 4.517 9.855 4.517h72.729c3.788 0 7.38-1.646 9.855-4.516zm-46.218-82.203c9.26 0 16.793 7.533 16.793 16.793 0 9.259-7.533 16.792-16.793 16.792s-16.793-7.533-16.793-16.792c0-9.26 7.533-16.793 16.793-16.793zm-33.958 71.719c2.614-11.852 11.344-21.343 22.476-25.287 3.564 1.386 7.434 2.154 11.482 2.154s7.918-.769 11.482-2.154c11.132 3.944 19.862 13.436 22.476 25.287z"/><path d="m215.17 107.084h30.296c4.142 0 7.5-3.358 7.5-7.5s-3.358-7.5-7.5-7.5h-30.296c-4.142 0-7.5 3.358-7.5 7.5s3.358 7.5 7.5 7.5z"/><path d="m215.17 133.202h107.604c4.142 0 7.5-3.358 7.5-7.5s-3.358-7.5-7.5-7.5h-107.604c-4.142 0-7.5 3.358-7.5 7.5s3.358 7.5 7.5 7.5z"/><path d="m215.17 159.319h107.604c4.142 0 7.5-3.358 7.5-7.5s-3.358-7.5-7.5-7.5h-107.604c-4.142 0-7.5 3.358-7.5 7.5s3.358 7.5 7.5 7.5z"/><path d="m330.274 177.937c0-4.142-3.358-7.5-7.5-7.5h-107.604c-4.142 0-7.5 3.358-7.5 7.5s3.358 7.5 7.5 7.5h107.604c4.142 0 7.5-3.358 7.5-7.5z"/><path d="m271.584 107.084h51.19c4.142 0 7.5-3.358 7.5-7.5s-3.358-7.5-7.5-7.5h-51.19c-4.142 0-7.5 3.358-7.5 7.5s3.358 7.5 7.5 7.5z"/><path d="m249.845 218.297-2.7 2.7c-8.622-9.242-20.894-15.037-34.5-15.037-26.025 0-47.198 21.173-47.198 47.198s21.173 47.199 47.198 47.199 47.199-21.173 47.199-47.199c0-6.929-1.513-13.507-4.207-19.44l4.815-4.815c2.929-2.929 2.929-7.678 0-10.606-2.93-2.928-7.679-2.928-10.607 0zm-37.2 67.06c-17.754 0-32.198-14.444-32.198-32.199s14.444-32.198 32.198-32.198c9.471 0 17.998 4.112 23.895 10.642l-23.032 23.032-10.231-10.231c-2.929-2.929-7.678-2.929-10.606 0-2.929 2.929-2.929 7.678 0 10.606l12.483 12.483c2.303 2.303 5.328 3.455 8.354 3.455 3.025 0 6.051-1.151 8.355-3.455l22.042-22.042c.609 2.471.939 5.051.939 7.708-.001 17.755-14.445 32.199-32.199 32.199z"/><circle cx="214.047" cy="37.429" r="7.5"/><path d="m413.094 99.016c0 16.349-6.347 31.7-17.872 43.225-2.929 2.929-2.929 7.678 0 10.606 1.464 1.464 3.384 2.197 5.303 2.197s3.839-.732 5.303-2.197c14.358-14.358 22.266-33.476 22.266-53.831 0-20.356-7.908-39.473-22.266-53.831-2.929-2.929-7.678-2.929-10.606 0-2.929 2.929-2.929 7.678 0 10.606 11.525 11.525 17.872 26.876 17.872 43.225z"/><path d="m375.074 126.89c1.464 1.465 3.384 2.197 5.303 2.197s3.839-.732 5.303-2.197c7.446-7.445 11.546-17.344 11.546-27.874s-4.1-20.429-11.546-27.875c-2.929-2.929-7.678-2.929-10.606 0-2.929 2.929-2.929 7.678 0 10.606 4.612 4.612 7.152 10.745 7.152 17.268s-2.54 12.655-7.152 17.268c-2.929 2.929-2.929 7.677 0 10.607z"/><path d="m32.868 55.791c2.929-2.929 2.929-7.678 0-10.606-2.929-2.929-7.678-2.929-10.606 0-29.683 29.682-29.683 77.979 0 107.662 1.464 1.465 3.384 2.197 5.303 2.197s3.839-.732 5.303-2.197c2.929-2.929 2.929-7.678 0-10.606-23.834-23.835-23.834-62.616 0-86.45z"/><path d="m53.017 126.89c2.929-2.929 2.929-7.678 0-10.606-4.612-4.612-7.152-10.745-7.152-17.268s2.54-12.656 7.152-17.268c2.929-2.929 2.929-7.678 0-10.606-2.929-2.929-7.678-2.929-10.606 0-7.446 7.445-11.546 17.345-11.546 27.875s4.1 20.429 11.546 27.874c1.464 1.465 3.384 2.197 5.303 2.197s3.839-.734 5.303-2.198z"/><path d="m494.5 213.273h-23.5c-4.142 0-7.5 3.358-7.5 7.5s3.358 7.5 7.5 7.5h23.5c1.378 0 2.5 1.122 2.5 2.5v258.348c0 1.378-1.122 2.5-2.5 2.5h-193.448c-1.378 0-2.5-1.122-2.5-2.5v-258.348c0-1.378 1.122-2.5 2.5-2.5h134.448c4.142 0 7.5-3.358 7.5-7.5s-3.358-7.5-7.5-7.5h-75.008v-176.309c0-13.384-10.889-24.273-24.273-24.273h-38.611c-5.54-4.567-12.633-7.313-20.356-7.313h-126.409c-7.723 0-14.816 2.746-20.356 7.313h-38.612c-13.384 0-24.273 10.889-24.273 24.273v302.847c0 13.384 10.889 24.273 24.273 24.273h27.22v15.296h-37.24c-20.678 0-37.5 16.822-37.5 37.5v62.241c0 6.893 5.607 12.5 12.5 12.5h226.896c1.22 8.466 8.502 15 17.3 15h193.449c9.649 0 17.5-7.851 17.5-17.5v-258.348c0-9.649-7.851-17.5-17.5-17.5zm-158.281-185.582c5.113 0 9.273 4.16 9.273 9.273v8.113h-37.119c.603-2.453.929-5.013.929-7.648 0-3.394-.535-6.665-1.517-9.737h28.434zm-185.376-7.313h126.409c9.401 0 17.05 7.649 17.05 17.05s-7.649 17.05-17.05 17.05h-126.409c-9.401 0-17.05-7.649-17.05-17.05s7.648-17.05 17.05-17.05zm-68.241 16.586c0-5.113 4.16-9.273 9.273-9.273h28.434c-.982 3.073-1.517 6.343-1.517 9.737 0 2.636.326 5.196.929 7.648h-37.12v-8.112zm200.95 375.658h-157.958c-6.893 0-12.5 5.607-12.5 12.5v20.759c0 6.893 5.607 12.5 12.5 12.5h108.406c4.142 0 7.5-3.358 7.5-7.5s-3.358-7.5-7.5-7.5h-105.906v-15.759h155.458v15.759h-14.552c-4.142 0-7.5 3.358-7.5 7.5s3.358 7.5 7.5 7.5h14.552v18.241h-224.196v-59.742c0-12.407 10.093-22.5 22.5-22.5h201.696zm0-33.242h-149.456v-15.296h149.456zm0-148.607v85.925h-124.552c-4.142 0-7.5 3.358-7.5 7.5s3.358 7.5 7.5 7.5h124.552v17.386h-191.677c-5.113 0-9.273-4.16-9.273-9.273v-8.113h41.398c4.142 0 7.5-3.358 7.5-7.5s-3.358-7.5-7.5-7.5h-41.398v-256.621h45.585c5.804 5.806 13.818 9.402 22.656 9.402h126.409c8.838 0 16.852-3.596 22.656-9.402h45.584v153.196h-44.44c-9.65 0-17.5 7.851-17.5 17.5z"/><path d="m476.666 344.004c0-43.5-35.39-78.89-78.89-78.89s-78.89 35.39-78.89 78.89 35.39 78.89 78.89 78.89 78.89-35.39 78.89-78.89zm-109.462-56.085c-.401.745-.802 1.493-1.189 2.272-3.441 6.936-6.133 14.936-8.015 23.598h-16.502c5.881-10.909 14.839-19.923 25.706-25.87zm-33.318 56.085c0-5.243.648-10.336 1.845-15.215h19.898c-.505 4.962-.768 10.052-.768 15.215s.262 10.253.768 15.215h-19.898c-1.197-4.879-1.845-9.972-1.845-15.215zm7.613 30.215h16.502c1.882 8.662 4.574 16.662 8.015 23.598.387.779.787 1.527 1.189 2.272-10.868-5.947-19.826-14.961-25.706-25.87zm48.777 30.989c-6.783-4.802-13.151-15.81-16.917-30.989h16.917zm0-45.989h-19.571c-.541-4.82-.843-9.898-.843-15.215s.302-10.396.843-15.215h19.571zm0-45.43h-16.917c3.766-15.179 10.134-26.187 16.917-30.989zm71.39 30.215c0 5.243-.648 10.336-1.845 15.215h-19.898c.505-4.962.768-10.052.768-15.215s-.262-10.253-.768-15.215h19.898c1.196 4.88 1.845 9.972 1.845 15.215zm-7.613-30.215h-16.503c-1.882-8.662-4.574-16.662-8.014-23.598-.387-.779-.787-1.526-1.189-2.272 10.868 5.948 19.825 14.961 25.706 25.87zm-48.777-30.989c6.782 4.802 13.151 15.81 16.917 30.989h-16.917zm0 122.408v-30.989h16.917c-3.766 15.179-10.135 26.187-16.917 30.989zm19.57-45.989h-19.57v-30.43h19.57c.541 4.82.843 9.899.843 15.215 0 5.317-.302 10.396-.843 15.215zm3.501 40.87c.401-.745.802-1.493 1.189-2.272 3.441-6.937 6.133-14.936 8.014-23.598h16.502c-5.88 10.909-14.837 19.923-25.705 25.87z"/><path d="m361.734 444.458c-4.142 0-7.5 3.358-7.5 7.5s3.358 7.5 7.5 7.5h72.084c4.142 0 7.5-3.358 7.5-7.5s-3.358-7.5-7.5-7.5z"/></g></g></svg>