<svg xmlns="http://www.w3.org/2000/svg" width="300" height="88.618" viewBox="0 0 300 88.618">
  <g id="pandas" transform="translate(-36.19 -55.39)">
    <path id="Path_3194" data-name="Path 3194" d="M262.237,150.894a13.945,13.945,0,0,1-10.967-5.057v18.091H243V119.266h7.478l.285,4.913a13.943,13.943,0,0,1,11.466-5.769c8.334,0,14.473,6.983,14.473,16.242S270.571,150.9,262.237,150.894Zm-2.561-26.353c-4.844,0-8.76,3.775-8.76,10.115s3.916,10.123,8.76,10.123,8.76-3.775,8.76-10.115S264.52,124.541,259.676,124.541Z" transform="translate(-123.667 -37.684)" fill="#130754"/>
    <path id="Path_3195" data-name="Path 3195" d="M365.348,150.063l-.285-4.913a13.935,13.935,0,0,1-11.47,5.765c-8.334,0-14.473-6.979-14.473-16.238s6.127-16.242,14.473-16.238a13.993,13.993,0,0,1,11.47,5.769l.285-4.913h7.494v30.767Zm-9.186-25.5c-4.844,0-8.76,3.775-8.764,10.115s3.916,10.119,8.76,10.119,8.764-3.775,8.764-10.115-3.916-10.119-8.76-10.119Z" transform="translate(-181.144 -37.702)" fill="#130754"/>
    <path id="Path_3196" data-name="Path 3196" d="M461.706,150.073V133.052c0-5.982-2.062-7.976-5.837-7.976-3.92,0-8.193,3.558-8.193,7.831v17.167H439.41V119.3h7.554l.358,5.7a13.105,13.105,0,0,1,11.4-6.553c8.189,0,11.257,5.7,11.257,13.319v18.308Z" transform="translate(-241.115 -37.708)" fill="#130754"/>
    <path id="Path_3197" data-name="Path 3197" d="M551.764,133.565l-.285-4.917a13.948,13.948,0,0,1-11.466,5.769c-8.334,0-14.473-6.983-14.473-16.242s6.127-16.238,14.473-16.238A13.963,13.963,0,0,1,550.98,107V90.83h8.266v42.735Zm-9.186-25.5c-4.824,0-8.76,3.775-8.76,10.111s3.916,10.111,8.76,10.111,8.76-3.771,8.76-10.111S547.434,108.065,542.578,108.065Z" transform="translate(-292.619 -21.192)" fill="#130754"/>
    <path id="Path_3198" data-name="Path 3198" d="M647.588,150.1l-.285-4.913a13.946,13.946,0,0,1-11.47,5.765c-8.334,0-14.473-6.979-14.473-16.242s6.127-16.238,14.473-16.238a13.986,13.986,0,0,1,11.47,5.773l.285-4.917h7.478v30.767ZM638.4,124.6c-4.824,0-8.76,3.775-8.764,10.115s3.92,10.1,8.76,10.1,8.764-3.775,8.764-10.115-3.916-10.1-8.76-10.1Z" transform="translate(-349.916 -37.72)" fill="#130754"/>
    <path id="Path_3199" data-name="Path 3199" d="M732.4,151a24.186,24.186,0,0,1-12.322-3.494l1.355-5.7a21.156,21.156,0,0,0,10.827,3.421c3.276,0,5.556-1,5.556-3.562,0-2.207-2.352-2.991-6.553-3.988-7.55-1.64-10.256-5.628-10.256-9.974,0-4.844,3.775-9.4,12.109-9.4a23.027,23.027,0,0,1,10.453,2.778l-1.355,5.415a17.926,17.926,0,0,0-8.9-2.565c-3.345,0-4.985,1.138-4.985,2.991,0,2.062,2.139,2.991,5.411,3.775,8.121,1.709,11.4,5.484,11.4,9.616C745.154,146.942,740.31,151,732.4,151Z" transform="translate(-408.948 -37.625)" fill="#130754"/>
    <rect id="Rectangle_29" data-name="Rectangle 29" width="9.685" height="20.109" transform="translate(51.744 60.628)" fill="#130754"/>
    <rect id="Rectangle_30" data-name="Rectangle 30" width="9.685" height="20.109" transform="translate(51.744 101.937)" fill="#130754"/>
    <rect id="Rectangle_31" data-name="Rectangle 31" width="9.685" height="9.488" transform="translate(51.744 86.607)" fill="#ffca00"/>
    <rect id="Rectangle_32" data-name="Rectangle 32" width="9.685" height="66.845" transform="translate(36.19 77.164)" fill="#130754"/>
    <rect id="Rectangle_33" data-name="Rectangle 33" width="9.685" height="20.109" transform="translate(66.981 118.528)" fill="#130754"/>
    <rect id="Rectangle_34" data-name="Rectangle 34" width="9.685" height="20.109" transform="translate(66.981 77.188)" fill="#130754"/>
    <rect id="Rectangle_35" data-name="Rectangle 35" width="9.685" height="9.488" transform="translate(66.981 103.167)" fill="#e70488"/>
    <rect id="Rectangle_36" data-name="Rectangle 36" width="9.685" height="66.845" transform="translate(82.214 55.39)" fill="#130754"/>
  </g>
</svg>
