<svg xmlns="http://www.w3.org/2000/svg" xmlns:xlink="http://www.w3.org/1999/xlink" width="300" height="87.07" viewBox="0 0 300 87.07">
  <defs>
    <linearGradient id="linear-gradient" x1="-24.752" y1="3.243" x2="-23.427" y2="2.114" gradientUnits="objectBoundingBox">
      <stop offset="0" stop-color="#5a9fd4"/>
      <stop offset="1" stop-color="#306998"/>
    </linearGradient>
    <linearGradient id="linear-gradient-2" x1="-23.216" y1="1.078" x2="-23.689" y2="1.736" gradientUnits="objectBoundingBox">
      <stop offset="0" stop-color="#ffd43b"/>
      <stop offset="1" stop-color="#ffe873"/>
    </linearGradient>
    <radialGradient id="radial-gradient" cx="0.5" cy="0.489" r="0.5" gradientTransform="matrix(0, -1, -0.853, 0, -32.299, -29.657)" gradientUnits="objectBoundingBox">
      <stop offset="0" stop-color="#b8b8b8" stop-opacity="0.498"/>
      <stop offset="1" stop-color="#7f7f7f" stop-opacity="0"/>
    </radialGradient>
  </defs>
  <g id="python" transform="translate(-5.591 -3.262)">
    <path id="Path_3177" data-name="Path 3177" d="M171.318,40.33q0-13.8-7.871-14.183a14.778,14.778,0,0,0-6.109,1,8.958,8.958,0,0,0-3.208,1.694V50.807q5.035,3.16,8.936,2.932Q171.314,53.192,171.318,40.33Zm6.473.382a19.516,19.516,0,0,1-3.3,11.64,12.172,12.172,0,0,1-10.217,5.389,18.126,18.126,0,0,1-10.144-3.08V74.622L148.5,72.614v-44.3a12.6,12.6,0,0,1,3.553-2.932,24.389,24.389,0,0,1,12.213-3.005l.08.08a11.2,11.2,0,0,1,10.125,5.389Q177.788,32.857,177.791,40.712Zm34.4,13.1q0,9.4-1.884,13.025T203.1,72.615a27.627,27.627,0,0,1-9.324,1.854l-.931-3.547a44.73,44.73,0,0,0,7.169-1.386A9.472,9.472,0,0,0,205.64,65.3q1.238-2.318,1.231-8.862V54.971a28.912,28.912,0,0,1-12.1,2.618,11.123,11.123,0,0,1-7.323-2.618,8.9,8.9,0,0,1-3.547-7.242V24.3l5.629-1.928V45.953a7.166,7.166,0,0,0,2.438,5.82,9.214,9.214,0,0,0,6.313,1.964,15.785,15.785,0,0,0,8.283-3.006V23.221h5.629V53.812Zm21.974,3.621q-.925.078-1.854.08-4.776,0-7.439-2.278a7.871,7.871,0,0,1-2.654-6.3V26.763h-3.856V23.222h3.856v-9.4l5.623-2V23.222h6.325v3.541h-6.325V48.78q0,3.169,1.7,4.484a8.6,8.6,0,0,0,4.625,1.238v2.931Zm34.082-.462H262.62V35.243a10.268,10.268,0,0,0-1.546-5.7,5.624,5.624,0,0,0-4.958-2.7q-3.871,0-9.681,4.083V56.971h-5.628V5.036l5.628-1.774V26.917a19.612,19.612,0,0,1,11.794-3.929,9.4,9.4,0,0,1,7.243,3.006,10.583,10.583,0,0,1,2.778,7.477v23.5h0Zm29.919-17.527a17.29,17.29,0,0,0-2.008-8.764,8.4,8.4,0,0,0-7.4-4.453q-9.257.535-9.251,13.254a21.8,21.8,0,0,0,1.934,9.737q2.476,4.98,7.428,4.9,9.293-.075,9.293-14.677Zm6.165.037a20.019,20.019,0,0,1-3.856,12.564,13.865,13.865,0,0,1-11.714,5.623A13.588,13.588,0,0,1,277.2,52.044a20.287,20.287,0,0,1-3.776-12.564,17.934,17.934,0,0,1,4.084-11.948,14.069,14.069,0,0,1,11.332-5.161,14.3,14.3,0,0,1,11.412,5.161,17.934,17.934,0,0,1,4.084,11.948ZM336.6,56.971h-5.629V34.012a7.679,7.679,0,0,0-2.272-5.9,8.258,8.258,0,0,0-6.054-2.039,13.528,13.528,0,0,0-7.63,2.618V56.971h-5.629V27.995a27.738,27.738,0,0,1,8.943-4.619,27.291,27.291,0,0,1,6.787-1,17.6,17.6,0,0,1,3.775.388,10.86,10.86,0,0,1,5.395,2.852A7.543,7.543,0,0,1,336.6,31.16V56.971Z" transform="translate(-52.612 0)" fill="#646464"/>
    <path id="Path_3178" data-name="Path 3178" d="M40.291,6.4a48.313,48.313,0,0,0-8.1.691c-7.169,1.267-8.471,3.917-8.471,8.807v6.457H40.667V24.5h-23.3A10.578,10.578,0,0,0,6.784,33.094a31.666,31.666,0,0,0,0,17.218c1.2,5.016,4.08,8.589,9,8.589h5.825v-7.74A10.766,10.766,0,0,1,32.2,40.637H49.118a8.535,8.535,0,0,0,8.471-8.609V15.895c0-4.591-3.873-8.04-8.471-8.807A52.847,52.847,0,0,0,40.291,6.4ZM31.13,11.59a3.229,3.229,0,1,1-3.179,3.238A3.214,3.214,0,0,1,31.13,11.59Z" transform="translate(0 -1.154)" fill="url(#linear-gradient)"/>
    <path id="Path_3179" data-name="Path 3179" d="M70.267,35.054v7.523A10.866,10.866,0,0,1,59.684,53.318H42.763a8.642,8.642,0,0,0-8.471,8.609V78.059c0,4.592,3.992,7.292,8.471,8.609a28.34,28.34,0,0,0,16.921,0c4.265-1.235,8.471-3.72,8.471-8.609V71.6H51.233V69.45H76.625c4.924,0,6.758-3.435,8.471-8.589,1.769-5.306,1.694-10.41,0-17.218-1.217-4.9-3.541-8.589-8.471-8.589ZM60.75,75.907a3.229,3.229,0,1,1-3.179,3.219A3.2,3.2,0,0,1,60.75,75.907Z" transform="translate(-10.566 -11.704)" fill="url(#linear-gradient-2)"/>
    <path id="Path_3180" data-name="Path 3180" d="M462.191,22.873h.987v-6.19h2.337v-.738h-5.663v.738h2.338v6.19m4.2,0h.843V17.219l1.83,5.652H470l1.908-5.634v5.634h.92V15.946h-1.217l-2.084,5.935-1.777-5.935h-1.36v6.927" transform="translate(-167.239 -4.669)" fill="#646464"/>
    <path id="Path_3181" data-name="Path 3181" d="M70.882,131.533c0,2.431-10.164,4.4-22.7,4.4s-22.7-1.971-22.7-4.4,10.164-4.4,22.7-4.4S70.882,129.1,70.882,131.533Z" transform="translate(-7.321 -45.603)" opacity="0.444" fill="url(#radial-gradient)"/>
  </g>
</svg>
