<svg xmlns="http://www.w3.org/2000/svg" width="300" height="78.288" viewBox="0 0 300 78.288">
  <g id="rabbitmq_logo" data-name="rabbitmq logo" transform="translate(164.851 -297.245)">
    <path id="Path_3209" data-name="Path 3209" d="M-93.887,328.554h-24.6a2.228,2.228,0,0,1-2.225-2.225V300.688a3.431,3.431,0,0,0-3.44-3.44h-8.787a3.431,3.431,0,0,0-3.44,3.44v25.47a2.392,2.392,0,0,1-2.4,2.4l-8.066.027a2.377,2.377,0,0,1-1.7-.7,2.377,2.377,0,0,1-.7-1.7l.059-25.5a3.431,3.431,0,0,0-3.44-3.44h-8.787a3.431,3.431,0,0,0-3.44,3.44V372.47a3.072,3.072,0,0,0,3.064,3.063h67.912a3.072,3.072,0,0,0,3.064-3.064V331.62a3.045,3.045,0,0,0-.892-2.172,3.045,3.045,0,0,0-2.172-.892ZM-105.425,355.5a4,4,0,0,1-3.99,3.99h-6.939a4,4,0,0,1-3.99-3.99v-6.939a4,4,0,0,1,3.99-3.99h6.939a4,4,0,0,1,3.99,3.99Z" transform="translate(0 0)" fill="#f60"/>
    <path id="Path_3211" data-name="Path 3211" d="M-47.6,312.805l-7.115,22.7-4.933,15.956c-.553,1.912-1.862,1.293-3.053,1.442-1.229.152-1.645-.435-2-1.56L-76.1,315.086a2.009,2.009,0,0,0-.788-1.376v37.046c0,1.576-.788,2.417-2.03,2.35-1.335,0-1.576-1.389-1.576-1.977l-.016-25.387-.016-16.007c-.016-1.242.286-1.7,1.629-1.7,4.8-.016,4.714-.053,6.108,4.567L-62.7,345.428c.118.369.08.855.756,1.175l1.442-4.714,9.9-32.1a2.115,2.115,0,0,1,2.484-1.728c4.38.067,4.38.016,4.38,4.346l.016,38.462c0,1.362-.134,2.137-1.843,2.147-1.5-.016-1.83-.5-1.811-1.912l.035-38.221a1.7,1.7,0,0,0-.251-.067Zm32.847,36.865,7.185-.454c1.362-.134,1.843.286,1.811,1.7-.016,1.362-.134,2.1-1.843,2.065l-15.27-.053c-7.516,0-11.864-3.138-14.177-10.321a34.251,34.251,0,0,1-1.5-8.641,43.7,43.7,0,0,1,1.157-14.53c1.175-4.228,3.088-8.04,7.051-10.353,7.366-4.295,15.972-.972,19.111,7.332,2.4,6.344,2.551,12.9,1.87,19.53-.486,4.915-1.763,9.514-5.422,13.729Zm1.343-19.431a32.013,32.013,0,0,0-1.461-11.912c-1.042-3-2.684-5.486-5.876-6.6-4.85-1.677-9.9.788-11.795,5.924-2.065,5.572-2.131,11.378-1.709,17.2a26.718,26.718,0,0,0,1.645,8.24c1.191,2.97,3.189,5.075,6.41,5.743,5.454,1.058,9.482-1.325,11.344-6.611a33.013,33.013,0,0,0,1.442-11.979Z" transform="translate(140.908 16.633)" fill="#acb7b1"/>
    <path id="Path_3212" data-name="Path 3212" d="M-117.482,330.355c4.5,1.442,5.5,5.155,6.293,9.028l2.332,11.485c.2.988.235,1.442-1.108,1.544-2.014.168-2.7-.553-3.037-2.5l-2.5-11.661c-1.122-4.4-3.44-6.074-7.933-6.09-1.293,0-2.583.067-3.86-.016-1.156-.08-1.442.337-1.426,1.461l.067,16.934c.035,1.611-.534,1.862-1.977,1.87-1.56.032-1.912-.47-1.87-1.963V309.42c0-1.544.419-1.976,1.95-1.87,3.793.2,7.6-.235,11.378.353,5.134.807,8.373,3.641,9.4,8.272,1.122,5.182-.588,10.168-4.327,12.586-.988.6-2.1.972-3.339,1.576Zm-11.21-10.537.016,7.351c0,.553-.251,1.335.756,1.325,3.373.067,6.763.1,9.883-1.461a8.681,8.681,0,0,0,4.567-9.228c-.588-3.624-2.77-5.588-6.88-6.293a54.276,54.276,0,0,0-7.147-.337c-1.007-.035-1.242.353-1.229,1.274l.032,7.367Zm79.327,6.01c1.928-2.8,4.113-4.816,7.5-5.035a8.743,8.743,0,0,1,8.894,5.3,25.137,25.137,0,0,1,.94,19.666,10.488,10.488,0,0,1-11.629,7.281c-5-.721-8.138-4.362-8.809-10.27a32.88,32.88,0,0,1-.235-3.86l-.035-29.631c0-1.362.337-1.763,1.728-1.779,1.461-.016,1.709.521,1.7,1.811l-.035,14.717-.016,1.795Zm14.883,11.544c-.016-4.4-.839-8.1-2.182-10.283-2.332-3.758-5.956-4.193-9.012-1.023a7.874,7.874,0,0,0-1.528,2.046,21.592,21.592,0,0,0-.553,17.821c1.763,4.327,6.49,5.219,9.8,2.182a9.114,9.114,0,0,0,2.35-3.675,22.019,22.019,0,0,0,1.122-7.065Zm-41.645-10.791c3.17-5.219,6.864-6.9,11.092-5.336a9.805,9.805,0,0,1,5.823,5.807,26.214,26.214,0,0,1,.369,18.857c-1.963,5.486-7.065,8.1-12.652,6.931-3.675-.788-5.788-3.259-6.963-6.645a16.677,16.677,0,0,1-.94-5.588l-.016-31.25c0-1.274.168-1.811,1.661-1.811s1.661.588,1.661,1.843l-.032,17.217ZM-61.3,337c-.016-4.228-.737-7.585-2.137-9.936-2.217-3.659-5.876-4.127-8.894-1.108-2.332,2.35-3.152,5.336-3.507,8.494-.454,4.127-.435,8.221,1.576,12.014,1.728,3.259,4.984,4.279,8.088,2.7a7.809,7.809,0,0,0,3.641-4.212,20.419,20.419,0,0,0,1.255-7.954ZM-87.69,348.071c-2.182,2.77-4.412,4.346-7.35,4.834-4.247.721-7.666-.855-8.993-4.228-1.645-4.177-.419-8.691,3.018-10.978,3.237-2.147,6.979-2.516,10.721-2.786,2.7-.2,2.7-.168,2.618-2.9l-.1-1.83c-.3-5.085-4.541-7.7-9.263-5.756a5.022,5.022,0,0,0-2.938,3.323c-.337,1.068-2.35,1.728-3.641,1.141-1.042-.47-.419-1.41-.251-2.065,1.108-4.212,4.933-6.277,11.092-6.058,4.479.152,7.2,2.383,8.021,6.6a12.344,12.344,0,0,1,.235,2.366l.032,20.975c0,1.175-.134,1.763-1.544,1.728-1.255-.032-1.811-.337-1.645-1.645.053-.721-.016-1.442-.016-2.719Zm-3.037-10.051-3.641.4c-2.281.435-4.362,1.325-5.588,3.44-1.058,1.811-1.335,3.707-.053,5.537,1.207,1.744,3,1.928,4.915,1.576a8.761,8.761,0,0,0,7.2-7.751c.369-3.237.369-3.259-2.837-3.205ZM-8.39,312.366l-.035,7.332c-.08,1.528.47,1.88,1.862,1.779,1.576-.117,3.189.053,4.808-.053,1.191-.067,1.477.419,1.41,1.5-.067.924.152,1.862-1.343,1.779-1.83-.1-3.675.016-5.521-.032-.855-.016-1.175.251-1.175,1.141l.067,19.482c.067,3.59,2.35,5.075,6.207,4.447.62-.1,1.728-.956,1.7.588-.016,1.023.788,2.634-1.362,2.671l-2.938.118c-4.479-.235-6.763-2.431-6.864-6.944l-.035-19.482c.016-1.528-.251-2.35-1.963-2.014-.353.067-.737-.032-1.108.016-1.376.219-1.744-.337-1.763-1.709,0-1.442.62-1.544,1.763-1.528,3.018.032,3.018,0,3.018-3.088a6.729,6.729,0,0,0-.016-1.293c-.486-2.583.988-3.793,3.307-4.7,0,2.551-2.316.908,0,0ZM-22.252,336.9l.035,13.977c.016,1.229-.369,1.544-1.544,1.528-1.157-.016-1.744-.134-1.744-1.56v-27.97c-.016-1.509.705-1.442,1.779-1.5,1.229-.067,1.544.32,1.528,1.528l-.053,14Zm.737-26.109c0,.419-.219,2.634-1.293,2.652-3.424.053-3.323.08-3.456-3.272.016-1.779.47-2.014,2.182-2.2,2.551.267,2.564.035,2.564,2.818Z" transform="translate(54.05 17.139)" fill="#fe6804"/>
    <path id="Path_3213" data-name="Path 3213" d="M-89.431,313H-91.3a1.428,1.428,0,0,1-1.426-1.426v-2.633a1.428,1.428,0,0,1,1.426-1.426h1.87A1.428,1.428,0,0,1-88,308.942v2.633A1.428,1.428,0,0,1-89.431,313Z" transform="translate(120.516 17.163)" fill="#fe6804"/>
  </g>
</svg>
