<svg xmlns="http://www.w3.org/2000/svg" width="300" height="95.635" viewBox="0 0 300 95.635">
  <g id="redis" transform="translate(-95.898 -127.126)">
    <path id="Path_3214" data-name="Path 3214" d="M239.839,155.545a4.522,4.522,0,0,1-4.493,4.493,8.1,8.1,0,0,0-5.086,1.611,12.783,12.783,0,0,0-3.9,4.069,26.052,26.052,0,0,0-3.475,7.12v16.106a4.615,4.615,0,0,1-4.662,4.493,4.526,4.526,0,0,1-4.493-4.493v-33.4a4.45,4.45,0,0,1,4.493-4.408,4.545,4.545,0,0,1,4.662,4.408v.594a10.9,10.9,0,0,1,1.78-1.7,18.586,18.586,0,0,1,10.68-3.306,4.4,4.4,0,0,1,4.493,4.408Zm-2.489,16.7c.085-11.528,9.071-21.192,20.682-21.192,11.02,0,19.744,8.222,20.43,19.666v.424a2.331,2.331,0,0,1-.085.763c-.262,2.035-2.035,3.391-4.408,3.391H247.013a11.113,11.113,0,0,0,2.882,5.6,13.114,13.114,0,0,0,8.137,3.814c3.052.254,6.691-.508,8.816-2.119,1.78-1.866,5.255-1.61,6.358-.262,1.1,1.181,1.949,3.731,0,5.51a21.428,21.428,0,0,1-15.174,5.6,21.039,21.039,0,0,1-20.682-21.191Zm9.24-4.154h23.988c-.847-3.391-5.171-8.392-12.546-8.985-7.2.338-10.758,5.51-11.443,8.985Zm75.061,20.768a4.614,4.614,0,0,1-4.579,4.579,4.561,4.561,0,0,1-4.493-3.645,20.662,20.662,0,0,1-11.528,3.645c-11.443,0-20.6-9.664-20.6-21.107,0-11.614,9.155-21.277,20.6-21.277a20.061,20.061,0,0,1,11.359,3.56V138.677a4.62,4.62,0,0,1,9.24,0v50.183Zm-20.6-28.567a10.971,10.971,0,0,0-7.967,3.475,12.289,12.289,0,0,0,0,16.953,10.974,10.974,0,0,0,7.967,3.477,10.831,10.831,0,0,0,7.968-3.477,12.289,12.289,0,0,0,0-16.953A10.834,10.834,0,0,0,301.052,160.292Zm36.734-19.836a4.577,4.577,0,0,1-4.579,4.662,4.631,4.631,0,0,1-4.577-4.662v-1.78a4.559,4.559,0,0,1,4.577-4.578,4.507,4.507,0,0,1,4.579,4.579v1.78Zm0,15.349v33.06a4.507,4.507,0,0,1-4.579,4.579,4.559,4.559,0,0,1-4.577-4.578v-33.06a4.526,4.526,0,0,1,4.577-4.663,4.477,4.477,0,0,1,4.579,4.663Zm5.82,25.51a4.41,4.41,0,0,1,6.358-.678c2.2,1.866,6.019,3.814,9.324,3.73a11.288,11.288,0,0,0,5.765-1.61,3.488,3.488,0,0,0,1.525-2.543,1.274,1.274,0,0,0-.254-.848c-.085-.254-.424-.593-1.1-1.017a19.6,19.6,0,0,0-6.781-2.375h-.085a32.2,32.2,0,0,1-7.375-2.2,14.084,14.084,0,0,1-5.849-4.916,10.285,10.285,0,0,1-1.44-5.339,11.905,11.905,0,0,1,5-9.325,18.24,18.24,0,0,1,10.427-3.135c5.849,0,10,2.8,12.715,4.662a4.682,4.682,0,0,1,1.356,6.272,4.478,4.478,0,0,1-6.272,1.181c-2.712-1.78-5.086-3.137-7.806-3.137a8.636,8.636,0,0,0-5.086,1.526,2.584,2.584,0,0,0-1.356,1.95.913.913,0,0,0,.169.678,2.289,2.289,0,0,0,.933.847,17.292,17.292,0,0,0,6.188,2.035l.085.085h.085a30.477,30.477,0,0,1,7.883,2.458,13.131,13.131,0,0,1,6.019,5,10.983,10.983,0,0,1,1.61,5.6,12.268,12.268,0,0,1-5.341,9.839,19.29,19.29,0,0,1-11.02,3.391,24.621,24.621,0,0,1-15.088-5.849,4.524,4.524,0,0,1-.594-6.274Z" transform="translate(20.255 1.198)" fill="#636466"/>
    <path id="Path_3215" data-name="Path 3215" d="M203.113,194.038c-5.955,3.1-36.8,15.788-43.371,19.211s-10.216,3.391-15.4.912-38.016-15.74-43.929-18.567c-2.956-1.413-4.51-2.6-4.51-3.731V180.584s42.737-9.3,49.638-11.78,9.293-2.558,15.164-.413,40.98,8.485,46.783,10.611l0,11.118c0,1.115-1.338,2.338-4.369,3.918Z" transform="translate(0 6.83)" fill="#a41e11"/>
    <path id="Path_3216" data-name="Path 3216" d="M203.113,184.091c-5.955,3.1-36.8,15.788-43.371,19.211s-10.216,3.391-15.4.912-38.016-15.742-43.929-18.567-6.037-4.772-.228-7.046l45.356-17.561c6.9-2.474,9.293-2.558,15.164-.413s36.537,14.356,42.339,16.482,6.027,3.879.066,6.983Z" transform="translate(0 5.495)" fill="#d82c20"/>
    <path id="Path_3217" data-name="Path 3217" d="M203.113,178.343c-5.955,3.1-36.8,15.788-43.371,19.213s-10.216,3.39-15.4.91-38.016-15.74-43.929-18.567c-2.956-1.413-4.51-2.6-4.51-3.73v-11.28s42.737-9.3,49.638-11.78,9.293-2.558,15.164-.413,40.98,8.484,46.783,10.61l0,11.12c0,1.115-1.338,2.338-4.369,3.917Z" transform="translate(0 4.132)" fill="#a41e11"/>
    <path id="Path_3218" data-name="Path 3218" d="M203.113,168.4c-5.955,3.1-36.8,15.788-43.371,19.213s-10.216,3.39-15.4.91-38.016-15.741-43.929-18.567-6.037-4.771-.228-7.047l45.356-17.559c6.9-2.475,9.293-2.558,15.164-.413s36.537,14.356,42.339,16.482,6.027,3.879.066,6.983Z" transform="translate(0 2.798)" fill="#d82c20"/>
    <path id="Path_3219" data-name="Path 3219" d="M203.113,162.068c-5.955,3.1-36.8,15.789-43.371,19.22s-10.216,3.39-15.4.91-38.016-15.741-43.929-18.567c-2.956-1.413-4.51-2.6-4.51-3.73V148.62s42.737-9.311,49.638-11.786,9.293-2.558,15.164-.413,40.98,8.484,46.783,10.61l0,11.12c0,1.114-1.338,2.337-4.369,3.916Z" transform="translate(0 1.335)" fill="#a41e11"/>
    <path id="Path_3220" data-name="Path 3220" d="M203.113,152.12c-5.955,3.1-36.8,15.789-43.371,19.213s-10.216,3.39-15.4.91-38.016-15.741-43.929-18.567-6.037-4.772-.228-7.047l45.356-17.56c6.9-2.476,9.293-2.558,15.164-.413s36.537,14.356,42.339,16.482,6.027,3.878.066,6.981Z" transform="translate(0 0)" fill="#d82c20"/>
    <g id="Group_1449" data-name="Group 1449" transform="translate(115.063 133.037)">
      <path id="Path_3221" data-name="Path 3221" d="M150.784,141.392l-2.166,5.211-3.5-5.812-11.164-1,8.331-3.006-2.493-4.611,7.8,3.051,7.358-2.407-1.991,4.768,7.5,2.806Zm-20.792,16.782,25.858-3.969-7.808,11.453Z" transform="translate(-109.203 -132.17)" fill="#fff"/>
      <path id="Path_3224" data-name="Path 3224" d="M13.82,0c7.633,0,13.82,2.4,13.82,5.357s-6.188,5.357-13.82,5.357S0,8.316,0,5.357,6.188,0,13.82,0Z" transform="translate(0 11.116)" fill="#fff"/>
    </g>
    <path id="Path_3222" data-name="Path 3222" d="M181.037,146.45l-15.293,6.037-.009-12.089Z" transform="translate(12.005 2.281)" fill="#7a0c00"/>
    <path id="Path_3223" data-name="Path 3223" d="M168.219,140.4l.009,12.089-1.656.653-15.284-6.046Z" transform="translate(9.521 2.281)" fill="#ad2115"/>
  </g>
</svg>
