<?xml version="1.0" encoding="utf-8"?>
<!-- Generator: Adobe Illustrator 27.7.0, SVG Export Plug-In . SVG Version: 6.00 Build 0)  -->
<svg version="1.1" id="katman_1" xmlns="http://www.w3.org/2000/svg" xmlns:xlink="http://www.w3.org/1999/xlink" x="0px" y="0px"
	 viewBox="0 0 128 128" style="enable-background:new 0 0 128 128;" xml:space="preserve">
<style type="text/css">
	.st0{fill:#EC671B;}
	.st1{fill:#FFFFFF;}
</style>
<path class="st0" d="M0,0h128c0,42.7,0,85.3,0,128c-42.7,0-85.3,0-128,0V0z M110.7,93.3c0,0.3,0,0.5,0,0.8c0.6,0,1.2,0,1.8,0
	c0,1.7,0,3.4,0,5.1c0.3,0,0.7,0,1,0c0-1.7,0-3.4,0-5.1c0.6,0,1.2,0,1.9,0c0-0.3,0-0.5,0-0.8C113.8,93.3,112.3,93.3,110.7,93.3z
	 M116.6,93.3c0,2,0,4,0,5.9c0.3,0,0.7,0,1,0c0-1.6,0-3.3,0-4.9c0.7,1.6,1.3,3.3,1.9,4.9c0.2,0,0.4,0,0.6,0c0.6-1.6,1.2-3.3,1.9-4.9
	c0,1.6,0,3.3,0,4.9c0.3,0,0.7,0,1,0c0-2,0-4,0-5.9c-0.5,0-1,0-1.5,0c-0.6,1.5-1.1,3-1.7,4.5c-0.6-1.5-1.2-3-1.7-4.5
	C117.6,93.3,117.1,93.3,116.6,93.3z M15.2,99.6c-2.5,0.1-5,1.2-6.5,3.3c-1.3,1.7-1.8,3.9-1.8,6.1c0,2,0.4,4.1,1.4,5.8
	c0.9,1.4,2.2,2.5,3.7,3.1c1.8,0.8,3.9,0.9,5.8,0.5c1.8-0.4,3.5-1.3,4.7-2.7c1.1-1.2,1.7-2.8,1.9-4.5c0.3-1.9,0.2-3.8-0.3-5.6
	c-0.5-1.7-1.6-3.3-3-4.3C19.3,100,17.2,99.5,15.2,99.6z M32.2,102.2c0-0.7,0-1.4,0-2.1c-1.5,0-3,0-4.5,0c0,6,0,12,0,18
	c1.6,0,3.2,0,4.8,0c0-4,0-8,0-11.9c0.2-0.6,0.7-1,1.2-1.3c1.2-0.6,2.6-0.6,3.9-0.6c0-1.5,0-3,0-4.5C35.6,99.6,33.5,100.6,32.2,102.2
	z M43.9,100.2c-1.6,0.5-3.1,1.6-4.1,3c1.1,0.6,2.1,1.2,3.2,1.8c0.9-1.1,2.2-1.9,3.7-2c1-0.1,2.3,0,3,0.8c0.5,0.6,0.4,1.4,0.4,2.2
	c-2.4,0.3-4.9,0.7-7.2,1.7c-1.3,0.6-2.5,1.4-3.3,2.6c-0.8,1.4-0.9,3.1-0.5,4.6c0.4,1.2,1.3,2.3,2.5,2.8c1.4,0.6,2.9,0.6,4.4,0.4
	c1.4-0.2,2.8-0.8,4.1-1.6c0.2,0.5,0.3,1,0.4,1.6c1.4,0,2.8,0,4.2,0c0-4.2,0-8.3,0-12.5c0.1-1.2-0.2-2.5-0.9-3.5
	c-1-1.3-2.7-2-4.2-2.2C47.7,99.6,45.7,99.6,43.9,100.2z M67.3,99.9c-1.7,0.3-3.1,1.3-4.5,2.3c-0.2-0.7-0.3-1.4-0.4-2.1
	c-1.3,0.2-2.6,0.4-3.9,0.5c0,5.8,0,11.7,0,17.5c1.6,0,3.1,0,4.7,0c0-4.3,0-8.6,0-12.9c1.1-0.9,2.4-1.8,3.8-2c0.7-0.1,1.6,0,2.1,0.5
	c0.5,0.6,0.6,1.5,0.6,2.3c0,4,0,8,0,12c1.6,0,3.1,0,4.7,0c0-4.3,0-8.5,0-12.8c0-0.9-0.2-1.7-0.4-2.5c-0.4-1.1-1.2-2-2.2-2.5
	C70.4,99.6,68.8,99.6,67.3,99.9z M79.5,102.5c-1.4,2-1.9,4.5-1.9,6.9c0,2.2,0.5,4.5,1.9,6.2c1.1,1.4,2.8,2.3,4.5,2.5
	c1.3,0.1,2.7,0.1,3.8-0.6c0.8-0.5,1.4-1.2,1.8-2c0,0.8,0,1.5,0,2.3c0,1-0.2,2.1-0.9,2.9c-0.6,0.7-1.6,0.9-2.5,0.9
	c-0.9,0-2,0-2.8-0.6c-0.4-0.3-0.6-0.7-0.8-1.2c-1.6,0.3-3.1,0.5-4.7,0.8c0.3,1.4,1.3,2.7,2.6,3.4c2,1.1,4.4,1.2,6.6,1
	c1.9-0.2,4-0.8,5.3-2.2c1.2-1.3,1.6-3.2,1.6-4.9c0-5.9,0-11.8,0-17.8c-1.3,0-2.7,0-4,0c-0.1,0.6-0.2,1.3-0.3,2
	c-0.4-0.9-1.2-1.4-2.1-1.8c-1.1-0.5-2.4-0.6-3.6-0.5C82.3,99.9,80.6,100.9,79.5,102.5z M99.1,102.3c-1.3,1.6-1.9,3.6-2,5.6
	c-0.2,2.2,0.1,4.4,1.1,6.4c0.8,1.6,2.1,2.8,3.7,3.4c2,0.8,4.3,0.8,6.4,0.4c2.1-0.5,4.1-1.7,5.1-3.6c-1.2-0.6-2.3-1.3-3.4-1.9
	c-0.5,0.8-1.1,1.4-2,1.9c-0.9,0.5-2,0.5-3,0.4c-1-0.2-1.9-0.7-2.4-1.5c-0.6-1-0.8-2.3-0.8-3.5c3.9,0,7.9,0,11.8,0
	c0.2-1.6,0-3.2-0.5-4.7c-0.5-1.7-1.5-3.2-3-4.1c-1.8-1.2-4-1.4-6.1-1.2C102.1,100,100.3,100.9,99.1,102.3z"/>
<path class="st0" d="M102.8,104c0.6-0.6,1.4-1,2.3-1.1c1.1-0.1,2.3,0.2,3,1.1c0.6,0.7,0.9,1.7,0.9,2.7c-2.4,0-4.8,0-7.2,0
	C101.8,105.7,102.1,104.7,102.8,104z"/>
<path class="st0" d="M85.3,103.1c1.1-0.2,2.3,0.2,3.1,1c0.9,0.9,1.3,2.3,1.4,3.6c0,0.9,0,1.9-0.2,2.8c-0.2,1-0.5,2-1.2,2.7
	c-0.6,0.6-1.6,0.9-2.5,0.9c-0.8,0-1.7-0.2-2.3-0.9c-0.8-0.8-1.1-2-1.2-3.1c-0.1-1.1-0.2-2.2,0-3.3c0.2-1,0.5-2,1.1-2.7
	C83.9,103.6,84.5,103.2,85.3,103.1z"/>
<path class="st0" d="M15,103.7c1.1-0.2,2.4,0,3.3,0.8c0.8,0.7,1.2,1.8,1.4,2.9c0.2,1.2,0.2,2.5,0,3.7c-0.2,1.1-0.7,2.1-1.6,2.8
	c-1,0.7-2.3,0.9-3.4,0.6c-0.9-0.2-1.8-0.8-2.3-1.7c-0.7-1.2-0.8-2.7-0.8-4.1c0-1.2,0.3-2.5,1-3.6C13.1,104.4,14,103.8,15,103.7z"/>
<path class="st0" d="M45.8,109.9c1.3-0.6,2.8-0.8,4.2-1c0,1.4,0,2.8,0,4.2c-1.2,1.1-2.7,1.9-4.4,1.9c-0.6,0-1.1-0.2-1.5-0.6
	c-0.7-0.8-0.8-2.1-0.3-3C44.4,110.7,45.1,110.2,45.8,109.9z"/>
<path class="st1" d="M110.7,93.3c1.6,0,3.1,0,4.7,0c0,0.3,0,0.5,0,0.8c-0.6,0-1.2,0-1.9,0c0,1.7,0,3.4,0,5.1c-0.3,0-0.7,0-1,0
	c0-1.7,0-3.4,0-5.1c-0.6,0-1.2,0-1.8,0C110.7,93.9,110.7,93.5,110.7,93.3z"/>
<path class="st1" d="M116.6,93.3c0.5,0,1,0,1.5,0c0.6,1.5,1.2,3,1.7,4.5c0.6-1.5,1.1-3,1.7-4.5c0.5,0,1,0,1.5,0c0,2,0,4,0,5.9
	c-0.3,0-0.7,0-1,0c0-1.6,0-3.3,0-4.9c-0.6,1.6-1.3,3.3-1.9,4.9c-0.2,0-0.4,0-0.6,0c-0.6-1.6-1.2-3.3-1.9-4.9c0,1.6,0,3.3,0,4.9
	c-0.3,0-0.7,0-1,0C116.6,97.3,116.6,95.3,116.6,93.3z"/>
<path class="st1" d="M15.2,99.6c2-0.1,4.2,0.4,5.9,1.6c1.5,1,2.5,2.6,3,4.3c0.6,1.8,0.6,3.8,0.3,5.6c-0.3,1.6-0.9,3.2-1.9,4.5
	c-1.2,1.4-2.8,2.4-4.7,2.7c-1.9,0.4-4,0.3-5.8-0.5c-1.5-0.6-2.8-1.7-3.7-3.1c-1.1-1.7-1.5-3.8-1.4-5.8c0-2.1,0.5-4.3,1.8-6.1
	C10.2,100.9,12.7,99.7,15.2,99.6z M15,103.7c-0.9,0.1-1.9,0.7-2.4,1.5c-0.7,1.1-0.9,2.3-1,3.6c0,1.4,0.1,2.8,0.8,4.1
	c0.5,0.8,1.3,1.5,2.3,1.7c1.2,0.2,2.5,0.1,3.4-0.6c0.9-0.7,1.3-1.7,1.6-2.8c0.2-1.2,0.2-2.5,0-3.7c-0.2-1.1-0.6-2.2-1.4-2.9
	C17.4,103.7,16.1,103.5,15,103.7z"/>
<path class="st1" d="M32.2,102.2c1.4-1.6,3.4-2.6,5.5-2.4c0,1.5,0,3,0,4.5c-1.3,0-2.7,0.1-3.9,0.6c-0.5,0.3-1.1,0.7-1.2,1.3
	c0,4,0,8,0,11.9c-1.6,0-3.2,0-4.8,0c0-6,0-12,0-18c1.5,0,3,0,4.5,0C32.2,100.8,32.2,101.5,32.2,102.2z"/>
<path class="st1" d="M43.9,100.2c1.8-0.6,3.8-0.6,5.7-0.4c1.6,0.3,3.2,0.9,4.2,2.2c0.8,1,1,2.3,0.9,3.5c0,4.2,0,8.3,0,12.5
	c-1.4,0-2.8,0-4.2,0c-0.2-0.5-0.3-1-0.4-1.6c-1.2,0.8-2.6,1.4-4.1,1.6c-1.4,0.2-3,0.3-4.4-0.4c-1.2-0.5-2.1-1.6-2.5-2.8
	c-0.5-1.5-0.4-3.3,0.5-4.6c0.8-1.2,2-2,3.3-2.6c2.3-1,4.7-1.4,7.2-1.7c0-0.7,0.2-1.6-0.4-2.2c-0.8-0.8-2-0.9-3-0.8
	c-1.4,0.1-2.8,0.9-3.7,2c-1.1-0.6-2.1-1.2-3.2-1.8C40.8,101.8,42.3,100.8,43.9,100.2z M45.8,109.9c-0.7,0.3-1.5,0.8-1.9,1.5
	c-0.6,0.9-0.5,2.2,0.3,3c0.4,0.4,0.9,0.6,1.5,0.6c1.6,0,3.2-0.8,4.4-1.9c0-1.4,0-2.8,0-4.2C48.6,109.1,47.2,109.4,45.8,109.9z"/>
<path class="st1" d="M67.3,99.9c1.5-0.3,3.1-0.2,4.5,0.4c1.1,0.5,1.8,1.4,2.2,2.5c0.3,0.8,0.4,1.7,0.4,2.5c0,4.3,0,8.5,0,12.8
	c-1.6,0-3.1,0-4.7,0c0-4,0-8,0-12c0-0.8-0.1-1.7-0.6-2.3c-0.5-0.6-1.4-0.6-2.1-0.5c-1.5,0.2-2.7,1-3.8,2c0,4.3,0,8.6,0,12.9
	c-1.6,0-3.1,0-4.7,0c0-5.8,0-11.7,0-17.5c1.3-0.2,2.6-0.4,3.9-0.5c0.1,0.7,0.3,1.4,0.4,2.1C64.1,101.2,65.6,100.2,67.3,99.9z"/>
<path class="st1" d="M79.5,102.5c1.1-1.5,2.8-2.6,4.7-2.8c1.2-0.1,2.5,0,3.6,0.5c0.9,0.3,1.7,0.9,2.1,1.8c0.1-0.7,0.2-1.3,0.3-2
	c1.3,0,2.7,0,4,0c0,5.9,0,11.8,0,17.8c0,1.7-0.4,3.6-1.6,4.9c-1.4,1.5-3.4,2-5.3,2.2c-2.2,0.2-4.6,0.1-6.6-1
	c-1.3-0.7-2.3-1.9-2.6-3.4c1.6-0.3,3.1-0.5,4.7-0.8c0.1,0.5,0.3,0.9,0.8,1.2c0.8,0.5,1.9,0.6,2.8,0.6c0.9,0,1.9-0.3,2.5-0.9
	c0.7-0.8,0.8-1.9,0.9-2.9c0-0.8,0-1.5,0-2.3c-0.5,0.8-1,1.5-1.8,2c-1.1,0.6-2.5,0.7-3.8,0.6c-1.7-0.2-3.4-1.1-4.5-2.5
	c-1.4-1.7-1.9-4-1.9-6.2C77.6,106.9,78.1,104.4,79.5,102.5z M85.3,103.1c-0.7,0.1-1.3,0.5-1.8,1c-0.6,0.8-0.9,1.7-1.1,2.7
	c-0.2,1.1-0.1,2.2,0,3.3c0.1,1.1,0.4,2.2,1.2,3.1c0.6,0.6,1.5,0.9,2.3,0.9c0.9,0,1.9-0.3,2.5-0.9c0.7-0.7,1-1.7,1.2-2.7
	c0.2-0.9,0.2-1.9,0.2-2.8c-0.1-1.3-0.5-2.7-1.4-3.6C87.6,103.3,86.4,102.9,85.3,103.1z"/>
<path class="st1" d="M99.1,102.3c1.2-1.5,3-2.3,4.9-2.6c2.1-0.2,4.3,0,6.1,1.2c1.5,0.9,2.5,2.5,3,4.1c0.5,1.5,0.6,3.1,0.5,4.7
	c-3.9,0-7.9,0-11.8,0c0,1.2,0.2,2.5,0.8,3.5c0.5,0.8,1.4,1.4,2.4,1.5c1,0.2,2.1,0.1,3-0.4c0.8-0.4,1.4-1.1,2-1.9
	c1.1,0.6,2.3,1.3,3.4,1.9c-1.1,1.9-3,3.1-5.1,3.6c-2.1,0.5-4.4,0.5-6.4-0.4c-1.6-0.6-2.9-1.9-3.7-3.4c-1-2-1.2-4.2-1.1-6.4
	C97.2,105.9,97.8,103.9,99.1,102.3z M102.8,104c-0.7,0.8-0.9,1.7-1,2.7c2.4,0,4.8,0,7.2,0c0-0.9-0.2-2-0.9-2.7
	c-0.8-0.8-1.9-1.1-3-1.1C104.2,103,103.4,103.3,102.8,104z"/>
</svg>
