<?xml version="1.0" encoding="utf-8"?>
<!-- Generator: Adobe Illustrator 27.7.0, SVG Export Plug-In . SVG Version: 6.00 Build 0)  -->
<svg version="1.1" id="Layer_1" xmlns="http://www.w3.org/2000/svg" xmlns:xlink="http://www.w3.org/1999/xlink" x="0px" y="0px"
	 viewBox="0 0 300 73.8" style="enable-background:new 0 0 300 73.8;" xml:space="preserve">
<style type="text/css">
	.st0{fill:#E60000;}
</style>
<path id="XMLID_49_" class="st0" d="M20.9,3.6c9.8-4.8,21.7-4.8,31.6-0.3c-7.7-0.6-15.3,1.9-21.7,6c-6.6,4.3-11.5,11.1-13.5,18.7
	c-1.4,5.4-1.2,11.3,1.1,16.5c3.1,7.4,10.6,12.9,18.7,12.9c4.6,0,9.3-1.5,12.8-4.5c4.2-3.5,7-8.8,7.2-14.3c0.2-4.5-0.9-9.1-3.8-12.7
	c-3.1-3.9-7.9-6.1-12.6-7.2c-0.5-7.1,5.1-13.9,12-15.3c8,3.8,14.5,10.4,18,18.5c3.4,7.7,4.1,16.7,1.8,24.8
	C70.6,54.3,66.1,61,60,65.8c-6.4,5.1-14.6,8-22.9,8c-7.2,0.1-14.5-2.1-20.5-6.1C9.3,62.9,3.7,55.4,1.4,46.9
	c-2.2-7.7-1.7-16.2,1.3-23.6C6,14.7,12.7,7.6,20.9,3.6z"/>
<path id="XMLID_48_" class="st0" d="M204.3,17.8c1.2-2,3.4-3.2,5.7-3.5c2.7-0.3,5.4,0,7.9,1c-0.2,1.9-0.5,3.9-0.8,5.8
	c-1.9-0.7-4.2-1.3-6.1-0.1c-1.4,1-1.3,2.8-1.3,4.3c1.9,0,3.9,0,5.8,0c0,1.9,0,3.8,0,5.6c-1.9,0-3.8,0-5.8,0c0,7.1,0,14.2,0,21.4
	c-2.3,0-4.6,0-6.9,0c0-7.1,0-14.2,0-21.4c-1.2,0-2.4,0-3.6,0c0-1.9,0-3.8,0-5.6c1.2,0,2.4,0,3.6,0C202.8,22.7,202.9,20,204.3,17.8z"
	/>
<g id="XMLID_70_">
	<path id="XMLID_71_" class="st0" d="M162.2,14.9c2.3,0,4.6,0,7,0c0,12.4,0,24.9,0,37.3c-2.1,0-4.2,0-6.4,0
		c-0.1-0.7-0.2-1.4-0.3-2.1c-3.2,3.6-9.1,3.4-12.7,0.5c-3.5-2.8-5-7.5-5-11.9c-0.1-4.7,1.8-9.6,5.9-12.2c3.3-2.2,7.7-2.3,11.5-1.2
		C162.2,21.9,162.2,18.4,162.2,14.9z M155.2,31.2c-2,1.2-3.1,3.4-3.4,5.6c-0.2,2.2-0.1,4.4,0.8,6.5c0.7,1.5,1.9,2.9,3.6,3.3
		c2.2,0.6,4.7-0.3,6.1-2.1c0-4.5,0-8.9,0-13.4C160,30.3,157.3,30,155.2,31.2z"/>
</g>
<g id="XMLID_66_">
	<path id="XMLID_67_" class="st0" d="M124.9,25c3.4-0.8,7.3-0.5,10.3,1.4c3.1,1.9,5.2,5.3,5.8,8.9c0.7,4,0.1,8.4-2.1,11.8
		c-1.7,2.7-4.5,4.7-7.6,5.4c-3.1,0.6-6.6,0.3-9.4-1.3c-2.7-1.5-4.6-4.1-5.6-7c-1.5-4.2-1.3-9,0.8-13C118.8,28.2,121.6,25.8,124.9,25
		z M126.7,30.7c-2,0.7-3.4,2.6-3.9,4.6c-0.7,2.5-0.6,5.3,0.4,7.8c0.6,1.7,2,3.1,3.7,3.6c1.9,0.6,4.2,0,5.5-1.5
		c1.8-1.9,2.2-4.8,2.1-7.3c-0.1-2.3-0.8-4.7-2.6-6.2C130.5,30.4,128.5,30.2,126.7,30.7z"/>
</g>
<g id="XMLID_62_">
	<path id="XMLID_63_" class="st0" d="M175.3,27.9c3.7-2.7,8.6-3.8,13.2-3c2.3,0.4,4.5,1.8,5.7,3.9c1.4,2.2,1.5,5,1.5,7.5
		c0,5.3,0,10.6,0,15.9c-2.1,0-4.2,0-6.4,0c-0.1-0.7-0.2-1.3-0.3-2c-3.5,3.6-9.9,3.4-13.4-0.2c-2-2.1-2.7-5.2-2-8
		c0.6-2.4,2.5-4.2,4.7-5.2c3.2-1.5,6.8-1.8,10.3-2.1c0.1-1.5-0.3-3.4-1.9-4c-3.1-1.3-6.6,0.2-9.2,2.1
		C176.9,31.1,176.1,29.5,175.3,27.9z M181.9,40.9c-1.4,0.8-2.1,2.6-1.6,4.1c0.4,1.2,1.7,1.8,3,1.9c2,0.2,3.9-0.6,5.4-1.9
		c0-1.8,0-3.7,0-5.5C186.4,39.8,184,39.8,181.9,40.9z"/>
</g>
<g id="XMLID_58_">
	<path id="XMLID_59_" class="st0" d="M226.5,25c3.4-0.7,7.1-0.5,10.1,1.4c3.2,1.9,5.3,5.4,5.9,9c0.8,3.8,0.1,7.9-1.7,11.2
		c-1.6,2.9-4.4,5-7.6,5.8c-3.4,0.7-7.2,0.4-10.2-1.5c-3-1.9-4.9-5.1-5.6-8.5c-1-4.1-0.3-8.7,1.9-12.3
		C220.9,27.6,223.6,25.7,226.5,25z M228.3,30.6c-1.8,0.5-3.2,2.1-3.8,3.8c-0.9,2.6-1,5.5-0.1,8.1c0.4,1.2,1.1,2.4,2.2,3.2
		c2,1.6,5.2,1.4,7-0.4c1.8-1.8,2.4-4.5,2.4-6.9c-0.1-2.5-0.7-5.2-2.8-6.9C231.9,30.4,230,30.2,228.3,30.6z"/>
</g>
<path id="XMLID_36_" class="st0" d="M253.9,27.4c2.8-2.3,6.6-3.3,10.2-2.5c2.3,0.4,4.4,1.7,5.6,3.8c1.5,2.6,1.8,5.7,1.7,8.6
	c0,5,0,10,0,15c-2.3,0-4.6,0-7,0c0-5,0-10,0-15c0-1.8-0.2-3.9-1.5-5.3c-0.8-1-2.2-1.5-3.5-1.5c-2.1-0.1-3.8,1.3-5.3,2.7
	c0,6.4,0,12.8,0,19.1c-2.3,0-4.6,0-6.9,0c0-9,0-18,0-27c2.1,0,4.2,0,6.3,0C253.6,26,253.8,26.7,253.9,27.4z"/>
<g id="XMLID_53_">
	<path id="XMLID_54_" class="st0" d="M279.1,28.4c4.3-4.7,12.6-5.1,17.1-0.6c3.2,3.4,3.9,8.3,3.7,12.8c-5.8,0-11.7,0-17.5,0
		c0,2.4,1.2,4.8,3.5,5.7c3.6,1.4,7.9,0.5,11.1-1.7c0.5,1.9,1.3,3.8,1.8,5.7c-2.9,1.9-6.3,2.5-9.7,2.6c-3.6,0.1-7.4-0.9-9.9-3.6
		c-3-3-4-7.6-3.7-11.7C275.7,34.2,276.8,30.8,279.1,28.4z M284.6,31.4c-1.3,1-1.8,2.6-2,4.1c3.5,0,6.9,0,10.4,0
		c-0.2-1.9-1.1-4-3-4.9C288.2,29.7,286.1,30.2,284.6,31.4z"/>
</g>
<path id="XMLID_32_" class="st0" d="M86.5,25.3c2.5,0,5,0,7.4,0c2.2,5.5,4.4,11.1,6.5,16.6c0.2,0.4,0.4,0.8,0.6,1.2
	c2.3-5.9,4.5-11.8,6.8-17.8c2.4,0,4.7,0,7.1,0c-3.7,9-7.3,18-11,27c-2,0-4,0-6,0C94.1,43.3,90.3,34.2,86.5,25.3z"/>
</svg>
